%TF.GenerationSoftware,KiCad,Pcbnew,9.0.6*%
%TF.CreationDate,2025-11-15T14:07:05+05:00*%
%TF.ProjectId,DynaButton,44796e61-4275-4747-946f-6e2e6b696361,rev?*%
%TF.SameCoordinates,Original*%
%TF.FileFunction,Soldermask,Top*%
%TF.FilePolarity,Negative*%
%FSLAX46Y46*%
G04 Gerber Fmt 4.6, Leading zero omitted, Abs format (unit mm)*
G04 Created by KiCad (PCBNEW 9.0.6) date 2025-11-15 14:07:05*
%MOMM*%
%LPD*%
G01*
G04 APERTURE LIST*
G04 Aperture macros list*
%AMRoundRect*
0 Rectangle with rounded corners*
0 $1 Rounding radius*
0 $2 $3 $4 $5 $6 $7 $8 $9 X,Y pos of 4 corners*
0 Add a 4 corners polygon primitive as box body*
4,1,4,$2,$3,$4,$5,$6,$7,$8,$9,$2,$3,0*
0 Add four circle primitives for the rounded corners*
1,1,$1+$1,$2,$3*
1,1,$1+$1,$4,$5*
1,1,$1+$1,$6,$7*
1,1,$1+$1,$8,$9*
0 Add four rect primitives between the rounded corners*
20,1,$1+$1,$2,$3,$4,$5,0*
20,1,$1+$1,$4,$5,$6,$7,0*
20,1,$1+$1,$6,$7,$8,$9,0*
20,1,$1+$1,$8,$9,$2,$3,0*%
G04 Aperture macros list end*
%ADD10RoundRect,0.159000X-0.189000X0.159000X-0.189000X-0.159000X0.189000X-0.159000X0.189000X0.159000X0*%
%ADD11RoundRect,0.159000X0.189000X-0.159000X0.189000X0.159000X-0.189000X0.159000X-0.189000X-0.159000X0*%
%ADD12RoundRect,0.159000X-0.159000X-0.189000X0.159000X-0.189000X0.159000X0.189000X-0.159000X0.189000X0*%
%ADD13RoundRect,0.287778X-0.489222X-0.714222X0.489222X-0.714222X0.489222X0.714222X-0.489222X0.714222X0*%
%ADD14RoundRect,0.250000X2.500000X-0.250000X2.500000X0.250000X-2.500000X0.250000X-2.500000X-0.250000X0*%
%ADD15RoundRect,0.250000X1.250000X-0.550000X1.250000X0.550000X-1.250000X0.550000X-1.250000X-0.550000X0*%
%ADD16C,2.200000*%
%ADD17RoundRect,0.239000X0.274000X-0.239000X0.274000X0.239000X-0.274000X0.239000X-0.274000X-0.239000X0*%
%ADD18RoundRect,0.159000X0.159000X0.189000X-0.159000X0.189000X-0.159000X-0.189000X0.159000X-0.189000X0*%
%ADD19RoundRect,0.475000X0.725000X-0.475000X0.725000X0.475000X-0.725000X0.475000X-0.725000X-0.475000X0*%
%ADD20C,2.374900*%
%ADD21C,0.990600*%
%ADD22C,0.787400*%
%ADD23RoundRect,0.075000X-0.665000X-0.075000X0.665000X-0.075000X0.665000X0.075000X-0.665000X0.075000X0*%
%ADD24RoundRect,0.075000X-0.075000X-0.665000X0.075000X-0.665000X0.075000X0.665000X-0.075000X0.665000X0*%
%ADD25RoundRect,0.150000X-0.150000X0.590000X-0.150000X-0.590000X0.150000X-0.590000X0.150000X0.590000X0*%
%ADD26RoundRect,0.375000X-0.375000X0.625000X-0.375000X-0.625000X0.375000X-0.625000X0.375000X0.625000X0*%
%ADD27RoundRect,0.500000X-1.400000X0.500000X-1.400000X-0.500000X1.400000X-0.500000X1.400000X0.500000X0*%
%ADD28R,2.800000X0.950000*%
%ADD29RoundRect,0.219000X0.219000X0.294000X-0.219000X0.294000X-0.219000X-0.294000X0.219000X-0.294000X0*%
%ADD30RoundRect,0.250000X-0.600000X-0.600000X0.600000X-0.600000X0.600000X0.600000X-0.600000X0.600000X0*%
%ADD31C,1.700000*%
%ADD32RoundRect,0.250000X0.650000X0.250000X-0.650000X0.250000X-0.650000X-0.250000X0.650000X-0.250000X0*%
%ADD33RoundRect,0.250000X-0.250000X-1.500000X0.250000X-1.500000X0.250000X1.500000X-0.250000X1.500000X0*%
%ADD34RoundRect,0.250001X-0.499999X-1.449999X0.499999X-1.449999X0.499999X1.449999X-0.499999X1.449999X0*%
%ADD35RoundRect,0.250000X0.600000X0.600000X-0.600000X0.600000X-0.600000X-0.600000X0.600000X-0.600000X0*%
%ADD36RoundRect,0.260556X-0.677444X1.027444X-0.677444X-1.027444X0.677444X-1.027444X0.677444X1.027444X0*%
%ADD37RoundRect,0.260556X1.027444X0.677444X-1.027444X0.677444X-1.027444X-0.677444X1.027444X-0.677444X0*%
%ADD38RoundRect,0.250000X-0.300000X1.000000X-0.300000X-1.000000X0.300000X-1.000000X0.300000X1.000000X0*%
%ADD39C,0.500000*%
%ADD40RoundRect,0.250000X-1.550000X0.920000X-1.550000X-0.920000X1.550000X-0.920000X1.550000X0.920000X0*%
%ADD41C,0.600000*%
%ADD42R,1.400000X0.300000*%
%ADD43R,1.400000X0.500000*%
%ADD44O,2.300000X1.300000*%
%ADD45O,2.100000X1.300000*%
%ADD46RoundRect,0.500000X1.000000X-2.000000X1.000000X2.000000X-1.000000X2.000000X-1.000000X-2.000000X0*%
G04 APERTURE END LIST*
D10*
%TO.C,C14*%
X118872000Y-62323600D03*
X118872000Y-61323600D03*
%TD*%
D11*
%TO.C,C4*%
X103987600Y-74660000D03*
X103987600Y-73660000D03*
%TD*%
%TO.C,C10*%
X93319600Y-70350000D03*
X93319600Y-69350000D03*
%TD*%
D12*
%TO.C,R11*%
X90787600Y-65532000D03*
X91787600Y-65532000D03*
%TD*%
D13*
%TO.C,S1*%
X112377400Y-86004400D03*
X116527400Y-86004400D03*
%TD*%
D14*
%TO.C,J_OUT2*%
X89544400Y-82518000D03*
X89544400Y-80518000D03*
X89544400Y-78518000D03*
D15*
X87294400Y-84918000D03*
X87294400Y-76118000D03*
%TD*%
D12*
%TO.C,R18*%
X90279600Y-58623200D03*
X91279600Y-58623200D03*
%TD*%
D16*
%TO.C,H3*%
X125933200Y-85801200D03*
%TD*%
D11*
%TO.C,C2*%
X87477600Y-50995200D03*
X87477600Y-49995200D03*
%TD*%
D10*
%TO.C,C13*%
X119888000Y-61163200D03*
X119888000Y-62163200D03*
%TD*%
D17*
%TO.C,D2*%
X94640400Y-76278800D03*
X94640400Y-74698800D03*
%TD*%
D18*
%TO.C,R22*%
X96359600Y-73406000D03*
X95359600Y-73406000D03*
%TD*%
D19*
%TO.C,X2*%
X98704400Y-82669600D03*
X98704400Y-78569600D03*
%TD*%
D10*
%TO.C,R3*%
X101041200Y-80018000D03*
X101041200Y-81018000D03*
%TD*%
D12*
%TO.C,R21*%
X94982500Y-64744400D03*
X95982500Y-64744400D03*
%TD*%
%TO.C,C15*%
X113909600Y-83769200D03*
X114909600Y-83769200D03*
%TD*%
%TO.C,R14*%
X115230800Y-76067600D03*
X116230800Y-76067600D03*
%TD*%
D20*
%TO.C,J2*%
X94843600Y-49276000D03*
D21*
X92303600Y-49276000D03*
D20*
X89763600Y-49276000D03*
X94843600Y-52451000D03*
X89763600Y-52451000D03*
D21*
X93319600Y-54356000D03*
X91287600Y-54356000D03*
D22*
X91668600Y-50546000D03*
X92938600Y-50546000D03*
X91668600Y-51816000D03*
X92938600Y-51816000D03*
X91668600Y-53086000D03*
X92938600Y-53086000D03*
%TD*%
D23*
%TO.C,U1*%
X103485200Y-76193200D03*
X103485200Y-76693200D03*
X103485200Y-77193200D03*
X103485200Y-77693200D03*
X103485200Y-78193200D03*
X103485200Y-78693200D03*
X103485200Y-79193200D03*
X103485200Y-79693200D03*
X103485200Y-80193200D03*
X103485200Y-80693200D03*
X103485200Y-81193200D03*
X103485200Y-81693200D03*
D24*
X104895200Y-83103200D03*
X105395200Y-83103200D03*
X105895200Y-83103200D03*
X106395200Y-83103200D03*
X106895200Y-83103200D03*
X107395200Y-83103200D03*
X107895200Y-83103200D03*
X108395200Y-83103200D03*
X108895200Y-83103200D03*
X109395200Y-83103200D03*
X109895200Y-83103200D03*
X110395200Y-83103200D03*
D23*
X111805200Y-81693200D03*
X111805200Y-81193200D03*
X111805200Y-80693200D03*
X111805200Y-80193200D03*
X111805200Y-79693200D03*
X111805200Y-79193200D03*
X111805200Y-78693200D03*
X111805200Y-78193200D03*
X111805200Y-77693200D03*
X111805200Y-77193200D03*
X111805200Y-76693200D03*
X111805200Y-76193200D03*
D24*
X110395200Y-74783200D03*
X109895200Y-74783200D03*
X109395200Y-74783200D03*
X108895200Y-74783200D03*
X108395200Y-74783200D03*
X107895200Y-74783200D03*
X107395200Y-74783200D03*
X106895200Y-74783200D03*
X106395200Y-74783200D03*
X105895200Y-74783200D03*
X105395200Y-74783200D03*
X104895200Y-74783200D03*
%TD*%
D11*
%TO.C,R1*%
X104952800Y-68876800D03*
X104952800Y-67876800D03*
%TD*%
D16*
%TO.C,H1*%
X83616800Y-48666400D03*
%TD*%
D12*
%TO.C,C1*%
X114460400Y-73438000D03*
X115460400Y-73438000D03*
%TD*%
D25*
%TO.C,Q2*%
X91767400Y-60147200D03*
X89867400Y-60147200D03*
X90817400Y-62027200D03*
%TD*%
D10*
%TO.C,R2*%
X121767600Y-83980400D03*
X121767600Y-84980400D03*
%TD*%
D12*
%TO.C,R20*%
X85606000Y-58674000D03*
X86606000Y-58674000D03*
%TD*%
D16*
%TO.C,H5*%
X125730000Y-48412400D03*
%TD*%
D10*
%TO.C,C7*%
X104952800Y-65946400D03*
X104952800Y-66946400D03*
%TD*%
D11*
%TO.C,C20*%
X100584000Y-77512800D03*
X100584000Y-76512800D03*
%TD*%
D17*
%TO.C,D4*%
X96266000Y-76278800D03*
X96266000Y-74698800D03*
%TD*%
D11*
%TO.C,C12*%
X126390400Y-65270000D03*
X126390400Y-64270000D03*
%TD*%
D10*
%TO.C,C18*%
X96367600Y-81552000D03*
X96367600Y-82552000D03*
%TD*%
D12*
%TO.C,R16*%
X94902400Y-58674000D03*
X95902400Y-58674000D03*
%TD*%
D26*
%TO.C,U2*%
X116904800Y-65360400D03*
X114604800Y-65360400D03*
D27*
X114604800Y-71660400D03*
D26*
X112304800Y-65360400D03*
%TD*%
D25*
%TO.C,Q1*%
X96392400Y-60147200D03*
X94492400Y-60147200D03*
X95442400Y-62027200D03*
%TD*%
D28*
%TO.C,U4*%
X95863200Y-66554000D03*
X95863200Y-68074000D03*
X95863200Y-69594000D03*
X95863200Y-71114000D03*
X102663200Y-71114000D03*
X102663200Y-69594000D03*
X102663200Y-68074000D03*
X102663200Y-66554000D03*
%TD*%
D14*
%TO.C,J_IN2*%
X89493600Y-71037200D03*
X89493600Y-69037200D03*
X89493600Y-67037200D03*
D15*
X87243600Y-73437200D03*
X87243600Y-64637200D03*
%TD*%
D29*
%TO.C,R8*%
X116999600Y-77368400D03*
X115359600Y-77368400D03*
%TD*%
D11*
%TO.C,R10*%
X106070400Y-69537200D03*
X106070400Y-68537200D03*
%TD*%
D30*
%TO.C,J4*%
X101396800Y-53086000D03*
D31*
X103936800Y-53086000D03*
X101396800Y-55626000D03*
X103936800Y-55626000D03*
X101396800Y-58166000D03*
X103936800Y-58166000D03*
%TD*%
D11*
%TO.C,C3*%
X102362000Y-74668000D03*
X102362000Y-73668000D03*
%TD*%
D10*
%TO.C,R7*%
X118211600Y-59088400D03*
X118211600Y-60088400D03*
%TD*%
D32*
%TO.C,X3*%
X99110800Y-76657200D03*
X99110800Y-74157200D03*
%TD*%
D25*
%TO.C,Q3*%
X87142400Y-60147200D03*
X85242400Y-60147200D03*
X86192400Y-62027200D03*
%TD*%
D12*
%TO.C,R15*%
X95410400Y-80568800D03*
X96410400Y-80568800D03*
%TD*%
%TO.C,C9*%
X114460400Y-74352400D03*
X115460400Y-74352400D03*
%TD*%
D10*
%TO.C,R5*%
X120810800Y-83949600D03*
X120810800Y-84949600D03*
%TD*%
D33*
%TO.C,J_BTN5*%
X87798400Y-88691600D03*
X89798400Y-88691600D03*
D34*
X85448400Y-94441600D03*
X92148400Y-94441600D03*
%TD*%
D29*
%TO.C,R23*%
X116998400Y-78923200D03*
X115358400Y-78923200D03*
%TD*%
D18*
%TO.C,R4*%
X96723200Y-77622400D03*
X95723200Y-77622400D03*
%TD*%
D16*
%TO.C,H2*%
X94843600Y-85140800D03*
%TD*%
D11*
%TO.C,C6*%
X101549200Y-74676000D03*
X101549200Y-73676000D03*
%TD*%
D18*
%TO.C,R9*%
X113022000Y-83769200D03*
X112022000Y-83769200D03*
%TD*%
D11*
%TO.C,C11*%
X93370400Y-81932400D03*
X93370400Y-80932400D03*
%TD*%
D35*
%TO.C,J3*%
X113944400Y-58166000D03*
D31*
X111404400Y-58166000D03*
X113944400Y-55626000D03*
X111404400Y-55626000D03*
X113944400Y-53086000D03*
X111404400Y-53086000D03*
%TD*%
D11*
%TO.C,C19*%
X100584000Y-75633200D03*
X100584000Y-74633200D03*
%TD*%
D18*
%TO.C,R17*%
X104110500Y-64744400D03*
X103110500Y-64744400D03*
%TD*%
D36*
%TO.C,D1*%
X108915200Y-65919600D03*
X108915200Y-69919600D03*
%TD*%
D12*
%TO.C,R19*%
X99605300Y-64744400D03*
X100605300Y-64744400D03*
%TD*%
D10*
%TO.C,C8*%
X106629200Y-65700400D03*
X106629200Y-66700400D03*
%TD*%
D33*
%TO.C,J_BTN7*%
X108298400Y-88691600D03*
X110298400Y-88691600D03*
D34*
X105948400Y-94441600D03*
X112648400Y-94441600D03*
%TD*%
D37*
%TO.C,D3*%
X123920000Y-71272400D03*
X119920000Y-71272400D03*
%TD*%
D33*
%TO.C,J_BTN8*%
X118548400Y-88691600D03*
X120548400Y-88691600D03*
D34*
X116198400Y-94441600D03*
X122898400Y-94441600D03*
%TD*%
D11*
%TO.C,C17*%
X96418400Y-79562800D03*
X96418400Y-78562800D03*
%TD*%
%TO.C,C5*%
X103174800Y-74660000D03*
X103174800Y-73660000D03*
%TD*%
%TO.C,R6*%
X119126000Y-60088400D03*
X119126000Y-59088400D03*
%TD*%
D38*
%TO.C,U3*%
X120077200Y-67486000D03*
X122377200Y-67486000D03*
X124677200Y-67486000D03*
D39*
X123377200Y-61516000D03*
X122377200Y-61516000D03*
D40*
X122377200Y-61516000D03*
D39*
X121377200Y-61516000D03*
%TD*%
D41*
%TO.C,J5*%
X119670800Y-81204800D03*
X119670800Y-75424800D03*
D42*
X118470800Y-79564800D03*
X118470800Y-78564800D03*
X118470800Y-78064800D03*
X118470800Y-77064800D03*
D43*
X118470800Y-75914800D03*
X118470800Y-75114800D03*
D42*
X118470800Y-76564800D03*
X118470800Y-77564800D03*
X118470800Y-79064800D03*
X118470800Y-80064800D03*
D43*
X118470800Y-80714800D03*
X118470800Y-81514800D03*
D44*
X119150800Y-82644800D03*
D45*
X123350800Y-82644800D03*
D39*
X121970800Y-80314800D03*
X123970800Y-80314800D03*
D46*
X122970800Y-78314800D03*
D39*
X121970800Y-76314800D03*
X123970800Y-76314800D03*
D44*
X119150800Y-73984800D03*
D45*
X123350800Y-73984800D03*
%TD*%
D33*
%TO.C,J_BTN6*%
X98048400Y-88691600D03*
X100048400Y-88691600D03*
D34*
X95698400Y-94441600D03*
X102398400Y-94441600D03*
%TD*%
M02*
