%TF.GenerationSoftware,KiCad,Pcbnew,9.0.6*%
%TF.CreationDate,2025-11-15T14:07:05+05:00*%
%TF.ProjectId,DynaButton,44796e61-4275-4747-946f-6e2e6b696361,rev?*%
%TF.SameCoordinates,Original*%
%TF.FileFunction,Legend,Top*%
%TF.FilePolarity,Positive*%
%FSLAX46Y46*%
G04 Gerber Fmt 4.6, Leading zero omitted, Abs format (unit mm)*
G04 Created by KiCad (PCBNEW 9.0.6) date 2025-11-15 14:07:05*
%MOMM*%
%LPD*%
G01*
G04 APERTURE LIST*
%ADD10C,0.200000*%
%ADD11C,0.125000*%
%ADD12C,0.127000*%
%ADD13C,0.120000*%
%ADD14C,0.150000*%
G04 APERTURE END LIST*
D10*
G36*
X121711917Y-56644415D02*
G01*
X121737702Y-56655863D01*
X121758995Y-56674816D01*
X121776371Y-56702672D01*
X121790716Y-56745827D01*
X121801192Y-56812809D01*
X121805339Y-56911842D01*
X121801155Y-57009643D01*
X121790520Y-57076712D01*
X121775834Y-57120719D01*
X121758135Y-57149372D01*
X121736779Y-57168723D01*
X121711256Y-57180317D01*
X121680237Y-57184368D01*
X121649193Y-57180316D01*
X121623654Y-57168720D01*
X121602291Y-57149369D01*
X121584592Y-57120719D01*
X121569889Y-57076732D01*
X121559261Y-57009968D01*
X121555087Y-56912917D01*
X121559242Y-56813133D01*
X121569726Y-56745847D01*
X121584054Y-56702672D01*
X121601431Y-56674819D01*
X121622731Y-56655866D01*
X121648531Y-56644416D01*
X121680237Y-56640391D01*
X121711917Y-56644415D01*
G37*
G36*
X124165934Y-55303198D02*
G01*
X124202973Y-55314220D01*
X124236842Y-55333104D01*
X124267209Y-55361506D01*
X124291195Y-55396567D01*
X124311466Y-55444157D01*
X124323836Y-55498240D01*
X124328416Y-55568086D01*
X124324473Y-55633666D01*
X124313664Y-55686398D01*
X124294700Y-55733806D01*
X124268283Y-55773641D01*
X124238380Y-55802184D01*
X124204341Y-55821757D01*
X124166872Y-55833354D01*
X124127306Y-55837242D01*
X124087721Y-55833426D01*
X124050223Y-55822050D01*
X124016196Y-55802774D01*
X123986329Y-55774716D01*
X123962318Y-55739198D01*
X123942317Y-55691820D01*
X123930159Y-55638029D01*
X123925660Y-55568672D01*
X123930215Y-55500449D01*
X123942854Y-55444451D01*
X123963545Y-55394914D01*
X123987404Y-55360431D01*
X124018933Y-55332000D01*
X124052128Y-55313683D01*
X124088335Y-55303101D01*
X124127306Y-55299517D01*
X124165934Y-55303198D01*
G37*
G36*
X119657773Y-55316831D02*
G01*
X119695666Y-55320864D01*
X119728730Y-55329017D01*
X119761514Y-55342308D01*
X119800728Y-55367029D01*
X119831242Y-55396546D01*
X119854131Y-55431213D01*
X119869920Y-55470095D01*
X119879875Y-55515247D01*
X119883392Y-55567842D01*
X119880113Y-55620959D01*
X119870943Y-55665508D01*
X119856623Y-55702860D01*
X119835629Y-55736498D01*
X119807850Y-55765455D01*
X119772456Y-55790103D01*
X119738478Y-55805336D01*
X119704166Y-55814820D01*
X119664194Y-55819585D01*
X119594306Y-55821610D01*
X119541305Y-55821610D01*
X119541305Y-55315148D01*
X119594306Y-55315148D01*
X119657773Y-55316831D01*
G37*
G36*
X122461228Y-55662169D02*
G01*
X122261242Y-55662169D01*
X122361235Y-55370250D01*
X122461228Y-55662169D01*
G37*
G36*
X123247299Y-55625190D02*
G01*
X123288131Y-55627647D01*
X123315052Y-55632860D01*
X123347113Y-55646716D01*
X123366148Y-55664367D01*
X123377020Y-55688326D01*
X123381193Y-55724353D01*
X123378013Y-55752640D01*
X123368884Y-55776670D01*
X123352414Y-55796361D01*
X123323796Y-55813062D01*
X123290432Y-55823414D01*
X123253308Y-55827326D01*
X123126497Y-55827863D01*
X123111207Y-55827863D01*
X123111207Y-55624653D01*
X123157125Y-55624653D01*
X123247299Y-55625190D01*
G37*
G36*
X123226783Y-55309726D02*
G01*
X123259354Y-55312784D01*
X123283887Y-55319447D01*
X123306112Y-55332466D01*
X123319693Y-55350026D01*
X123327344Y-55370866D01*
X123329805Y-55391157D01*
X123327515Y-55416792D01*
X123321061Y-55438149D01*
X123308229Y-55455788D01*
X123283887Y-55471171D01*
X123261609Y-55478354D01*
X123228688Y-55482308D01*
X123143985Y-55483969D01*
X123111207Y-55483969D01*
X123111207Y-55308896D01*
X123130893Y-55308896D01*
X123226783Y-55309726D01*
G37*
G36*
X125135004Y-55662169D02*
G01*
X124935018Y-55662169D01*
X125035011Y-55370250D01*
X125135004Y-55662169D01*
G37*
G36*
X125927083Y-55310850D02*
G01*
X125954398Y-55314648D01*
X125976811Y-55321645D01*
X126003607Y-55337307D01*
X126019944Y-55356523D01*
X126029239Y-55380208D01*
X126032547Y-55409622D01*
X126029737Y-55442473D01*
X126022436Y-55465260D01*
X126009761Y-55484678D01*
X125990489Y-55503167D01*
X125965386Y-55517473D01*
X125933629Y-55525881D01*
X125897699Y-55529492D01*
X125849463Y-55530864D01*
X125784983Y-55530864D01*
X125784983Y-55308896D01*
X125860942Y-55308896D01*
X125927083Y-55310850D01*
G37*
G36*
X126777941Y-55316831D02*
G01*
X126815834Y-55320864D01*
X126848897Y-55329017D01*
X126881682Y-55342308D01*
X126920895Y-55367029D01*
X126951409Y-55396546D01*
X126974299Y-55431213D01*
X126990087Y-55470095D01*
X127000043Y-55515247D01*
X127003559Y-55567842D01*
X127000281Y-55620959D01*
X126991111Y-55665508D01*
X126976790Y-55702860D01*
X126955797Y-55736498D01*
X126928017Y-55765455D01*
X126892624Y-55790103D01*
X126858646Y-55805336D01*
X126824334Y-55814820D01*
X126784361Y-55819585D01*
X126714473Y-55821610D01*
X126661472Y-55821610D01*
X126661472Y-55315148D01*
X126714473Y-55315148D01*
X126777941Y-55316831D01*
G37*
G36*
X127320496Y-57434431D02*
G01*
X119140740Y-57434431D01*
X119140740Y-56505959D01*
X119240740Y-56505959D01*
X119537495Y-57318800D01*
X119772456Y-57318800D01*
X120029264Y-56615380D01*
X120228018Y-56615380D01*
X120228018Y-56746685D01*
X120399623Y-56746685D01*
X120399623Y-57178116D01*
X120228018Y-57178116D01*
X120228018Y-57318800D01*
X120771214Y-57318800D01*
X120978283Y-57318800D01*
X121182666Y-57318800D01*
X121182666Y-57103084D01*
X120978283Y-57103084D01*
X120978283Y-57318800D01*
X120771214Y-57318800D01*
X120771214Y-57178116D01*
X120603468Y-57178116D01*
X120603468Y-56912379D01*
X121343573Y-56912379D01*
X121343599Y-56912917D01*
X121348357Y-57011728D01*
X121361598Y-57093998D01*
X121376689Y-57145551D01*
X121396273Y-57189422D01*
X121420070Y-57226622D01*
X121449226Y-57259118D01*
X121483802Y-57285896D01*
X121524459Y-57307222D01*
X121568279Y-57321801D01*
X121619769Y-57331116D01*
X121680237Y-57334431D01*
X121741808Y-57331108D01*
X121793390Y-57321841D01*
X121836504Y-57307467D01*
X121876527Y-57286425D01*
X121910949Y-57259930D01*
X121940356Y-57227697D01*
X121963402Y-57191598D01*
X121982820Y-57147830D01*
X121998242Y-57095122D01*
X122011942Y-57011360D01*
X122016853Y-56911842D01*
X122012052Y-56812619D01*
X121998828Y-56731298D01*
X121983825Y-56680429D01*
X121964426Y-56636910D01*
X121940893Y-56599797D01*
X121911396Y-56566500D01*
X121876965Y-56539294D01*
X121837041Y-56517830D01*
X121793925Y-56503177D01*
X121742182Y-56493722D01*
X121680237Y-56490328D01*
X121620882Y-56493565D01*
X121569905Y-56502698D01*
X121526120Y-56517048D01*
X121485452Y-56538014D01*
X121450690Y-56564590D01*
X121421193Y-56597062D01*
X121397256Y-56634558D01*
X121377493Y-56678198D01*
X121362135Y-56728855D01*
X121348560Y-56810312D01*
X121343573Y-56912379D01*
X120603468Y-56912379D01*
X120603468Y-56505959D01*
X120422582Y-56505959D01*
X120417142Y-56536382D01*
X120406169Y-56559888D01*
X120388940Y-56578979D01*
X120363573Y-56594913D01*
X120337728Y-56604195D01*
X120303440Y-56610788D01*
X120228018Y-56615380D01*
X120029264Y-56615380D01*
X120069212Y-56505959D01*
X119854424Y-56505959D01*
X119657711Y-57076950D01*
X119460949Y-56505959D01*
X119240740Y-56505959D01*
X119140740Y-56505959D01*
X119140740Y-55821610D01*
X119331452Y-55821610D01*
X119331452Y-55974800D01*
X119618339Y-55974800D01*
X119712313Y-55970976D01*
X119786623Y-55960633D01*
X119855134Y-55940837D01*
X119917244Y-55910368D01*
X119966267Y-55874388D01*
X120009897Y-55828838D01*
X120048402Y-55772566D01*
X120076964Y-55710848D01*
X120094357Y-55643480D01*
X120100328Y-55569210D01*
X120094621Y-55491833D01*
X120078276Y-55424031D01*
X120051968Y-55364241D01*
X120015584Y-55309944D01*
X119971607Y-55264033D01*
X119919442Y-55225804D01*
X119866433Y-55199495D01*
X119798102Y-55178617D01*
X119722510Y-55166456D01*
X119626546Y-55161959D01*
X120161828Y-55161959D01*
X120466741Y-55670180D01*
X120466741Y-55974800D01*
X120676595Y-55974800D01*
X121085311Y-55974800D01*
X121277676Y-55974800D01*
X121277676Y-55416900D01*
X121623036Y-55974800D01*
X121825269Y-55974800D01*
X121942652Y-55974800D01*
X122154117Y-55974800D01*
X122210391Y-55809105D01*
X122512080Y-55809105D01*
X122568353Y-55974800D01*
X122785339Y-55974800D01*
X122603843Y-55483969D01*
X122902477Y-55483969D01*
X122902477Y-55827863D01*
X122902477Y-55974800D01*
X123257704Y-55974800D01*
X123342301Y-55970580D01*
X123403859Y-55959559D01*
X123459105Y-55939158D01*
X123509616Y-55908365D01*
X123546694Y-55873980D01*
X123574927Y-55831624D01*
X123587953Y-55799970D01*
X123595955Y-55765146D01*
X123598716Y-55726551D01*
X123593147Y-55674305D01*
X123577422Y-55631427D01*
X123551968Y-55595881D01*
X123519836Y-55568672D01*
X123707600Y-55568672D01*
X123712537Y-55646689D01*
X123726647Y-55715216D01*
X123749203Y-55775628D01*
X123779941Y-55829073D01*
X123819072Y-55876418D01*
X123865534Y-55916369D01*
X123918452Y-55947774D01*
X123978756Y-55970864D01*
X124047694Y-55985347D01*
X124126769Y-55990431D01*
X124206090Y-55985341D01*
X124256339Y-55974800D01*
X124616427Y-55974800D01*
X124827893Y-55974800D01*
X124884166Y-55809105D01*
X125185855Y-55809105D01*
X125242128Y-55974800D01*
X125459114Y-55974800D01*
X125294959Y-55530864D01*
X125576253Y-55530864D01*
X125576253Y-55974800D01*
X125784983Y-55974800D01*
X125784983Y-55677800D01*
X125881703Y-55677800D01*
X126103622Y-55974800D01*
X126359930Y-55974800D01*
X126240114Y-55821610D01*
X126451619Y-55821610D01*
X126451619Y-55974800D01*
X126738507Y-55974800D01*
X126832480Y-55970976D01*
X126906790Y-55960633D01*
X126975302Y-55940837D01*
X127037411Y-55910368D01*
X127086435Y-55874388D01*
X127130065Y-55828838D01*
X127168569Y-55772566D01*
X127197132Y-55710848D01*
X127214524Y-55643480D01*
X127220496Y-55569210D01*
X127214788Y-55491833D01*
X127198444Y-55424031D01*
X127172135Y-55364241D01*
X127135752Y-55309944D01*
X127091775Y-55264033D01*
X127039609Y-55225804D01*
X126986601Y-55199495D01*
X126918269Y-55178617D01*
X126842677Y-55166456D01*
X126746713Y-55161959D01*
X126451619Y-55161959D01*
X126451619Y-55821610D01*
X126240114Y-55821610D01*
X126088283Y-55627486D01*
X126137624Y-55599128D01*
X126176991Y-55567585D01*
X126207718Y-55532866D01*
X126230233Y-55492943D01*
X126244452Y-55444567D01*
X126249533Y-55385686D01*
X126246248Y-55342630D01*
X126237028Y-55306678D01*
X126222470Y-55276558D01*
X126190894Y-55237295D01*
X126149539Y-55205728D01*
X126102476Y-55183143D01*
X126052233Y-55170166D01*
X125997857Y-55164185D01*
X125928207Y-55161959D01*
X125576253Y-55161959D01*
X125576253Y-55530864D01*
X125294959Y-55530864D01*
X125158549Y-55161959D01*
X124916992Y-55161959D01*
X124732029Y-55662169D01*
X124616427Y-55974800D01*
X124256339Y-55974800D01*
X124275188Y-55970846D01*
X124335579Y-55947748D01*
X124388521Y-55916346D01*
X124434955Y-55876418D01*
X124474104Y-55829071D01*
X124504856Y-55775624D01*
X124527421Y-55715212D01*
X124541537Y-55646686D01*
X124546476Y-55568672D01*
X124541494Y-55489914D01*
X124527276Y-55420951D01*
X124504582Y-55360355D01*
X124473696Y-55306939D01*
X124434417Y-55259803D01*
X124387784Y-55220027D01*
X124334769Y-55188762D01*
X124274453Y-55165785D01*
X124205612Y-55151381D01*
X124126769Y-55146328D01*
X124047664Y-55151392D01*
X123978711Y-55165816D01*
X123918407Y-55188805D01*
X123865505Y-55220062D01*
X123819072Y-55259803D01*
X123780021Y-55306908D01*
X123749297Y-55360307D01*
X123726712Y-55420902D01*
X123712560Y-55489883D01*
X123707600Y-55568672D01*
X123519836Y-55568672D01*
X123518169Y-55567260D01*
X123476519Y-55545406D01*
X123425450Y-55530522D01*
X123425450Y-55526125D01*
X123461259Y-55506601D01*
X123490302Y-55483192D01*
X123513426Y-55455783D01*
X123530614Y-55424411D01*
X123541019Y-55389901D01*
X123544592Y-55351443D01*
X123538759Y-55302705D01*
X123521877Y-55260829D01*
X123504504Y-55236572D01*
X123481737Y-55215541D01*
X123452805Y-55197570D01*
X123407301Y-55178932D01*
X123362338Y-55168554D01*
X123310078Y-55163927D01*
X123218332Y-55161959D01*
X122902477Y-55161959D01*
X122902477Y-55483969D01*
X122603843Y-55483969D01*
X122484773Y-55161959D01*
X122243217Y-55161959D01*
X122058254Y-55662169D01*
X121942652Y-55974800D01*
X121825269Y-55974800D01*
X121825269Y-55161959D01*
X121632903Y-55161959D01*
X121632903Y-55627633D01*
X121336148Y-55161959D01*
X121085311Y-55161959D01*
X121085311Y-55974800D01*
X120676595Y-55974800D01*
X120676595Y-55660361D01*
X120976623Y-55161959D01*
X120746008Y-55161959D01*
X120576064Y-55476398D01*
X120400112Y-55161959D01*
X120161828Y-55161959D01*
X119626546Y-55161959D01*
X119331452Y-55161959D01*
X119331452Y-55821610D01*
X119140740Y-55821610D01*
X119140740Y-55046328D01*
X127320496Y-55046328D01*
X127320496Y-57434431D01*
G37*
D11*
G36*
X122867020Y-53903998D02*
G01*
X122904060Y-53915020D01*
X122937929Y-53933904D01*
X122968295Y-53962306D01*
X122992281Y-53997367D01*
X123012552Y-54044957D01*
X123024922Y-54099040D01*
X123029503Y-54168886D01*
X123025560Y-54234466D01*
X123014750Y-54287198D01*
X122995787Y-54334606D01*
X122969370Y-54374441D01*
X122939466Y-54402984D01*
X122905427Y-54422557D01*
X122867958Y-54434154D01*
X122828393Y-54438042D01*
X122788807Y-54434226D01*
X122751310Y-54422850D01*
X122717283Y-54403574D01*
X122687416Y-54375516D01*
X122663405Y-54339998D01*
X122643404Y-54292620D01*
X122631246Y-54238829D01*
X122626746Y-54169472D01*
X122631302Y-54101249D01*
X122643941Y-54045251D01*
X122664631Y-53995714D01*
X122688491Y-53961231D01*
X122720020Y-53932800D01*
X122753215Y-53914483D01*
X122789421Y-53903901D01*
X122828393Y-53900317D01*
X122867020Y-53903998D01*
G37*
G36*
X118310682Y-52567650D02*
G01*
X118337996Y-52571448D01*
X118360410Y-52578445D01*
X118387206Y-52594107D01*
X118403543Y-52613323D01*
X118412838Y-52637008D01*
X118416146Y-52666422D01*
X118413336Y-52699273D01*
X118406034Y-52722060D01*
X118393360Y-52741478D01*
X118374087Y-52759967D01*
X118348985Y-52774273D01*
X118317228Y-52782681D01*
X118281298Y-52786292D01*
X118233062Y-52787664D01*
X118168581Y-52787664D01*
X118168581Y-52565696D01*
X118244541Y-52565696D01*
X118310682Y-52567650D01*
G37*
G36*
X121779065Y-51215998D02*
G01*
X121816104Y-51227020D01*
X121849974Y-51245904D01*
X121880340Y-51274306D01*
X121904326Y-51309367D01*
X121924597Y-51356957D01*
X121936967Y-51411040D01*
X121941547Y-51480886D01*
X121937605Y-51546466D01*
X121926795Y-51599198D01*
X121907831Y-51646606D01*
X121881415Y-51686441D01*
X121851511Y-51714984D01*
X121817472Y-51734557D01*
X121780003Y-51746154D01*
X121740438Y-51750042D01*
X121700852Y-51746226D01*
X121663355Y-51734850D01*
X121629328Y-51715574D01*
X121599461Y-51687516D01*
X121575450Y-51651998D01*
X121555448Y-51604620D01*
X121543290Y-51550829D01*
X121538791Y-51481472D01*
X121543347Y-51413249D01*
X121555986Y-51357251D01*
X121576676Y-51307714D01*
X121600535Y-51273231D01*
X121632065Y-51244800D01*
X121665260Y-51226483D01*
X121701466Y-51215901D01*
X121740438Y-51212317D01*
X121779065Y-51215998D01*
G37*
G36*
X123336452Y-54680120D02*
G01*
X117823384Y-54680120D01*
X117823384Y-54167812D01*
X117912273Y-54167812D01*
X117917497Y-54247658D01*
X117932387Y-54317281D01*
X117956146Y-54378214D01*
X117988509Y-54431719D01*
X118029754Y-54478733D01*
X118078290Y-54517840D01*
X118133896Y-54548811D01*
X118197608Y-54571719D01*
X118270762Y-54586152D01*
X118354939Y-54591231D01*
X118444364Y-54586044D01*
X118534750Y-54570324D01*
X118620197Y-54548090D01*
X118679586Y-54528168D01*
X118679586Y-54331747D01*
X120352503Y-54331747D01*
X120352503Y-54528021D01*
X120419767Y-54552848D01*
X120493236Y-54573352D01*
X120571735Y-54586438D01*
X120669482Y-54591231D01*
X120757763Y-54585859D01*
X120831891Y-54570826D01*
X120894099Y-54547349D01*
X120946258Y-54516053D01*
X120983893Y-54483187D01*
X121012124Y-54447699D01*
X121032013Y-54409230D01*
X121044069Y-54367120D01*
X121048205Y-54320463D01*
X121042864Y-54265892D01*
X121027818Y-54220878D01*
X121003655Y-54183443D01*
X120970865Y-54152474D01*
X120925806Y-54124532D01*
X120865658Y-54100010D01*
X120776851Y-54075927D01*
X120690780Y-54057854D01*
X120628454Y-54041166D01*
X120597870Y-54026444D01*
X120584265Y-54013339D01*
X120576149Y-53997162D01*
X120573299Y-53976911D01*
X120577080Y-53956098D01*
X120588588Y-53937491D01*
X120605438Y-53922345D01*
X120625225Y-53911650D01*
X120649725Y-53903079D01*
X120675197Y-53897777D01*
X120727416Y-53894064D01*
X120776472Y-53897037D01*
X120824902Y-53905964D01*
X120873034Y-53920980D01*
X120940226Y-53951939D01*
X120993543Y-53987854D01*
X121015965Y-53987854D01*
X121015965Y-53801447D01*
X120955591Y-53780722D01*
X120880725Y-53762759D01*
X121124653Y-53762759D01*
X121343787Y-54575600D01*
X121576062Y-54575600D01*
X121718163Y-54046081D01*
X121864073Y-54575600D01*
X122096348Y-54575600D01*
X122205837Y-54169472D01*
X122408686Y-54169472D01*
X122413624Y-54247489D01*
X122427734Y-54316016D01*
X122450290Y-54376428D01*
X122481028Y-54429873D01*
X122520159Y-54477218D01*
X122566621Y-54517169D01*
X122619538Y-54548574D01*
X122679843Y-54571664D01*
X122748781Y-54586147D01*
X122827856Y-54591231D01*
X122907177Y-54586141D01*
X122976275Y-54571646D01*
X123036666Y-54548548D01*
X123089607Y-54517146D01*
X123136041Y-54477218D01*
X123175191Y-54429871D01*
X123205943Y-54376424D01*
X123228508Y-54316012D01*
X123242623Y-54247486D01*
X123247563Y-54169472D01*
X123242580Y-54090714D01*
X123228363Y-54021751D01*
X123205669Y-53961155D01*
X123174783Y-53907739D01*
X123135504Y-53860603D01*
X123088871Y-53820827D01*
X123035855Y-53789562D01*
X122975540Y-53766585D01*
X122906699Y-53752181D01*
X122827856Y-53747128D01*
X122748751Y-53752192D01*
X122679797Y-53766616D01*
X122619493Y-53789605D01*
X122566592Y-53820862D01*
X122520159Y-53860603D01*
X122481107Y-53907708D01*
X122450384Y-53961107D01*
X122427799Y-54021702D01*
X122413646Y-54090683D01*
X122408686Y-54169472D01*
X122205837Y-54169472D01*
X122315483Y-53762759D01*
X122101819Y-53762759D01*
X121970661Y-54322320D01*
X121828023Y-53762759D01*
X121618707Y-53762759D01*
X121468937Y-54322320D01*
X121343787Y-53762759D01*
X121124653Y-53762759D01*
X120880725Y-53762759D01*
X120880117Y-53762613D01*
X120801285Y-53751004D01*
X120721408Y-53747128D01*
X120641073Y-53752122D01*
X120571651Y-53766285D01*
X120511523Y-53788734D01*
X120459335Y-53819082D01*
X120421412Y-53850750D01*
X120393174Y-53884695D01*
X120373417Y-53921231D01*
X120361509Y-53960976D01*
X120357437Y-54004804D01*
X120362752Y-54059774D01*
X120377913Y-54106542D01*
X120402524Y-54146758D01*
X120436208Y-54180057D01*
X120484264Y-54210383D01*
X120550340Y-54237274D01*
X120596158Y-54250619D01*
X120646279Y-54261650D01*
X120743243Y-54282117D01*
X120783471Y-54295591D01*
X120809628Y-54311964D01*
X120826824Y-54333541D01*
X120832343Y-54358175D01*
X120828108Y-54385665D01*
X120816760Y-54403799D01*
X120799503Y-54417619D01*
X120777144Y-54429445D01*
X120755891Y-54436010D01*
X120726293Y-54440875D01*
X120676027Y-54444295D01*
X120626940Y-54441204D01*
X120575441Y-54431675D01*
X120521080Y-54415181D01*
X120468927Y-54392874D01*
X120420499Y-54365112D01*
X120375462Y-54331747D01*
X120352503Y-54331747D01*
X118679586Y-54331747D01*
X118679586Y-54128537D01*
X118304136Y-54128537D01*
X118304136Y-54281727D01*
X118466411Y-54281727D01*
X118466411Y-54442096D01*
X118439886Y-54443757D01*
X118413411Y-54444295D01*
X118343220Y-54439145D01*
X118286084Y-54424866D01*
X118239600Y-54402643D01*
X118201896Y-54372829D01*
X118171838Y-54335150D01*
X118149601Y-54289409D01*
X118135418Y-54233944D01*
X118130333Y-54166590D01*
X118135566Y-54102998D01*
X118150263Y-54050087D01*
X118174297Y-54003371D01*
X118204632Y-53966897D01*
X118243170Y-53937337D01*
X118286062Y-53916681D01*
X118333124Y-53904556D01*
X118387179Y-53900317D01*
X118433819Y-53903475D01*
X118477060Y-53912724D01*
X118517720Y-53926731D01*
X118551115Y-53942375D01*
X118607926Y-53977693D01*
X118652769Y-54009738D01*
X118676265Y-54009738D01*
X118676265Y-53819179D01*
X118588183Y-53782125D01*
X118514478Y-53761587D01*
X118440678Y-53750815D01*
X118361484Y-53747128D01*
X118275523Y-53752365D01*
X118201000Y-53767235D01*
X118136254Y-53790819D01*
X118079889Y-53822693D01*
X118030829Y-53862948D01*
X117988692Y-53911443D01*
X117955945Y-53965288D01*
X117932155Y-54025235D01*
X117917402Y-54092320D01*
X117912273Y-54167812D01*
X117823384Y-54167812D01*
X117823384Y-52787664D01*
X117959852Y-52787664D01*
X117959852Y-53231600D01*
X118168581Y-53231600D01*
X118168581Y-52934600D01*
X118265302Y-52934600D01*
X118487221Y-53231600D01*
X118743529Y-53231600D01*
X118552803Y-52987747D01*
X118790912Y-52987747D01*
X118790912Y-53184021D01*
X118858176Y-53208848D01*
X118931645Y-53229352D01*
X119010144Y-53242438D01*
X119107891Y-53247231D01*
X119196172Y-53241859D01*
X119270300Y-53226826D01*
X119332508Y-53203349D01*
X119384667Y-53172053D01*
X119422302Y-53139187D01*
X119450533Y-53103699D01*
X119470422Y-53065230D01*
X119482477Y-53023120D01*
X119486614Y-52976463D01*
X119481273Y-52921892D01*
X119466227Y-52876878D01*
X119442064Y-52839443D01*
X119409274Y-52808474D01*
X119364215Y-52780532D01*
X119304066Y-52756010D01*
X119215260Y-52731927D01*
X119129189Y-52713854D01*
X119066862Y-52697166D01*
X119036279Y-52682444D01*
X119022674Y-52669339D01*
X119014558Y-52653162D01*
X119011708Y-52632911D01*
X119015489Y-52612098D01*
X119026997Y-52593491D01*
X119043847Y-52578345D01*
X119063634Y-52567650D01*
X119088134Y-52559079D01*
X119113606Y-52553777D01*
X119165825Y-52550064D01*
X119214881Y-52553037D01*
X119263311Y-52561964D01*
X119311443Y-52576980D01*
X119378635Y-52607939D01*
X119431952Y-52643854D01*
X119454374Y-52643854D01*
X119454374Y-52575075D01*
X119549433Y-52575075D01*
X119803543Y-52575075D01*
X119803543Y-53231600D01*
X120013397Y-53231600D01*
X120013397Y-52826010D01*
X120728295Y-52826010D01*
X120731908Y-52894632D01*
X120742222Y-52955219D01*
X120758630Y-53008801D01*
X120782093Y-53059488D01*
X120810596Y-53103248D01*
X120844164Y-53140839D01*
X120883014Y-53172957D01*
X120926817Y-53199484D01*
X120976153Y-53220511D01*
X121027976Y-53235154D01*
X121083639Y-53244148D01*
X121143655Y-53247231D01*
X121201583Y-53245501D01*
X121239838Y-53241174D01*
X121280720Y-53231600D01*
X121585588Y-53231600D01*
X122172503Y-53231600D01*
X122299168Y-53231600D01*
X122509021Y-53231600D01*
X122509021Y-52965766D01*
X122558212Y-52906268D01*
X122801380Y-53231600D01*
X123058763Y-53231600D01*
X122724883Y-52794893D01*
X123042936Y-52418759D01*
X122799768Y-52418759D01*
X122509021Y-52786687D01*
X122509021Y-52418759D01*
X122299168Y-52418759D01*
X122299168Y-53231600D01*
X122172503Y-53231600D01*
X122172503Y-53075284D01*
X121795441Y-53075284D01*
X121795441Y-52418759D01*
X121585588Y-52418759D01*
X121585588Y-53231600D01*
X121280720Y-53231600D01*
X121314722Y-53223637D01*
X121373145Y-53202779D01*
X121431666Y-53176938D01*
X121431666Y-52981495D01*
X121409782Y-52981495D01*
X121372071Y-53013149D01*
X121322343Y-53047587D01*
X121289398Y-53065404D01*
X121253222Y-53079241D01*
X121215485Y-53088014D01*
X121177556Y-53090916D01*
X121137739Y-53087761D01*
X121096662Y-53078068D01*
X121057784Y-53061038D01*
X121022315Y-53035179D01*
X120993146Y-53001451D01*
X120967946Y-52954384D01*
X120956469Y-52919452D01*
X120949033Y-52877281D01*
X120946355Y-52826547D01*
X120951712Y-52756543D01*
X120966286Y-52702032D01*
X120990016Y-52654634D01*
X121018505Y-52619527D01*
X121054328Y-52591581D01*
X121092266Y-52573365D01*
X121133028Y-52562962D01*
X121176432Y-52559443D01*
X121215449Y-52562540D01*
X121251317Y-52571606D01*
X121285298Y-52585259D01*
X121316334Y-52601453D01*
X121369042Y-52637357D01*
X121407632Y-52668864D01*
X121431666Y-52668864D01*
X121431666Y-52471076D01*
X121379447Y-52447238D01*
X121313062Y-52423937D01*
X121236809Y-52408892D01*
X121194329Y-52404650D01*
X121144192Y-52403128D01*
X121082799Y-52406520D01*
X121025868Y-52416425D01*
X120972831Y-52432583D01*
X120922532Y-52455412D01*
X120878976Y-52483233D01*
X120841429Y-52516066D01*
X120807803Y-52555681D01*
X120779780Y-52600427D01*
X120757263Y-52650888D01*
X120741461Y-52703990D01*
X120731676Y-52762133D01*
X120728295Y-52826010D01*
X120013397Y-52826010D01*
X120013397Y-52575075D01*
X120267507Y-52575075D01*
X120267507Y-52418759D01*
X119549433Y-52418759D01*
X119549433Y-52575075D01*
X119454374Y-52575075D01*
X119454374Y-52457447D01*
X119394000Y-52436722D01*
X119318526Y-52418613D01*
X119239694Y-52407004D01*
X119159817Y-52403128D01*
X119079482Y-52408122D01*
X119010060Y-52422285D01*
X118949932Y-52444734D01*
X118897744Y-52475082D01*
X118859821Y-52506750D01*
X118831583Y-52540695D01*
X118811826Y-52577231D01*
X118799918Y-52616976D01*
X118795846Y-52660804D01*
X118801161Y-52715774D01*
X118816322Y-52762542D01*
X118840933Y-52802758D01*
X118874617Y-52836057D01*
X118922672Y-52866383D01*
X118988749Y-52893274D01*
X119034567Y-52906619D01*
X119084688Y-52917650D01*
X119181652Y-52938117D01*
X119221880Y-52951591D01*
X119248037Y-52967964D01*
X119265233Y-52989541D01*
X119270752Y-53014175D01*
X119266517Y-53041665D01*
X119255169Y-53059799D01*
X119237912Y-53073619D01*
X119215553Y-53085445D01*
X119194300Y-53092010D01*
X119164702Y-53096875D01*
X119114436Y-53100295D01*
X119065349Y-53097204D01*
X119013850Y-53087675D01*
X118959489Y-53071181D01*
X118907336Y-53048874D01*
X118858908Y-53021112D01*
X118813871Y-52987747D01*
X118790912Y-52987747D01*
X118552803Y-52987747D01*
X118471882Y-52884286D01*
X118521223Y-52855928D01*
X118560590Y-52824385D01*
X118591317Y-52789666D01*
X118613832Y-52749743D01*
X118628050Y-52701367D01*
X118633131Y-52642486D01*
X118629846Y-52599430D01*
X118620627Y-52563478D01*
X118606069Y-52533358D01*
X118574493Y-52494095D01*
X118533138Y-52462528D01*
X118486075Y-52439943D01*
X118435832Y-52426966D01*
X118381456Y-52420985D01*
X118311806Y-52418759D01*
X117959852Y-52418759D01*
X117959852Y-52787664D01*
X117823384Y-52787664D01*
X117823384Y-51671884D01*
X117932496Y-51671884D01*
X117932496Y-51851598D01*
X117981544Y-51869473D01*
X118050270Y-51887306D01*
X118126289Y-51898916D01*
X118223780Y-51903231D01*
X118308818Y-51898276D01*
X118374332Y-51884962D01*
X118433137Y-51862235D01*
X118482287Y-51832254D01*
X118511292Y-51806611D01*
X118534341Y-51778302D01*
X118551945Y-51747062D01*
X118568915Y-51695790D01*
X118574660Y-51640084D01*
X118570276Y-51592276D01*
X118558784Y-51558702D01*
X118540281Y-51530115D01*
X118516188Y-51505213D01*
X118489074Y-51485936D01*
X118459328Y-51471898D01*
X118428397Y-51462176D01*
X118400319Y-51456609D01*
X118400319Y-51449232D01*
X118443676Y-51435008D01*
X118480275Y-51412629D01*
X118511205Y-51381675D01*
X118534692Y-51344618D01*
X118548604Y-51304891D01*
X118553313Y-51261507D01*
X118547632Y-51212927D01*
X118531429Y-51172554D01*
X118504572Y-51138108D01*
X118464799Y-51107976D01*
X118423943Y-51088665D01*
X118377057Y-51074759D01*
X118664785Y-51074759D01*
X118961540Y-51887600D01*
X119196502Y-51887600D01*
X119439613Y-51221696D01*
X120720480Y-51221696D01*
X120853836Y-51221696D01*
X120853836Y-51740663D01*
X120720480Y-51740663D01*
X120720480Y-51887600D01*
X121197046Y-51887600D01*
X121197046Y-51740663D01*
X121063690Y-51740663D01*
X121063690Y-51481472D01*
X121320731Y-51481472D01*
X121325668Y-51559489D01*
X121339778Y-51628016D01*
X121362334Y-51688428D01*
X121393072Y-51741873D01*
X121432203Y-51789218D01*
X121478665Y-51829169D01*
X121531583Y-51860574D01*
X121591887Y-51883664D01*
X121660826Y-51898147D01*
X121739900Y-51903231D01*
X121819222Y-51898141D01*
X121888319Y-51883646D01*
X121948710Y-51860548D01*
X122001652Y-51829146D01*
X122048086Y-51789218D01*
X122087236Y-51741871D01*
X122117988Y-51688424D01*
X122140553Y-51628012D01*
X122154668Y-51559486D01*
X122159607Y-51481472D01*
X122154625Y-51402714D01*
X122140408Y-51333751D01*
X122117713Y-51273155D01*
X122086827Y-51219739D01*
X122047549Y-51172603D01*
X122000915Y-51132827D01*
X121947900Y-51101562D01*
X121887585Y-51078585D01*
X121818743Y-51064181D01*
X121739900Y-51059128D01*
X121660796Y-51064192D01*
X121591842Y-51078616D01*
X121531538Y-51101605D01*
X121478636Y-51132862D01*
X121432203Y-51172603D01*
X121393152Y-51219708D01*
X121362428Y-51273107D01*
X121339844Y-51333702D01*
X121325691Y-51402683D01*
X121320731Y-51481472D01*
X121063690Y-51481472D01*
X121063690Y-51221696D01*
X121197046Y-51221696D01*
X121197046Y-51074759D01*
X120720480Y-51074759D01*
X120720480Y-51221696D01*
X119439613Y-51221696D01*
X119493257Y-51074759D01*
X119278470Y-51074759D01*
X119081757Y-51645750D01*
X118884995Y-51074759D01*
X118664785Y-51074759D01*
X118377057Y-51074759D01*
X118369154Y-51072415D01*
X118308742Y-51062681D01*
X118234136Y-51059128D01*
X118155399Y-51063309D01*
X118077821Y-51075834D01*
X118005078Y-51093930D01*
X117955993Y-51110565D01*
X117955993Y-51287348D01*
X117976216Y-51287348D01*
X118033750Y-51257800D01*
X118092622Y-51236302D01*
X118151981Y-51222779D01*
X118204094Y-51218569D01*
X118253822Y-51221842D01*
X118281580Y-51226884D01*
X118304136Y-51234836D01*
X118321740Y-51245199D01*
X118335790Y-51258479D01*
X118345059Y-51275185D01*
X118348393Y-51297753D01*
X118345011Y-51328384D01*
X118336376Y-51347969D01*
X118321871Y-51362938D01*
X118300326Y-51375325D01*
X118275908Y-51383107D01*
X118244541Y-51387830D01*
X118169168Y-51390516D01*
X118122713Y-51390516D01*
X118122713Y-51531200D01*
X118167507Y-51531200D01*
X118237458Y-51532031D01*
X118273662Y-51535052D01*
X118301938Y-51541703D01*
X118326349Y-51553011D01*
X118345071Y-51569693D01*
X118357006Y-51592186D01*
X118361484Y-51625332D01*
X118358090Y-51659829D01*
X118349468Y-51682094D01*
X118335521Y-51700151D01*
X118317228Y-51715555D01*
X118289390Y-51729905D01*
X118254360Y-51738563D01*
X118185532Y-51743789D01*
X118130448Y-51738776D01*
X118066097Y-51722442D01*
X118003786Y-51698415D01*
X117953794Y-51671884D01*
X117932496Y-51671884D01*
X117823384Y-51671884D01*
X117823384Y-50970239D01*
X123336452Y-50970239D01*
X123336452Y-54680120D01*
G37*
D10*
G36*
X127569589Y-52608015D02*
G01*
X127595374Y-52619463D01*
X127616666Y-52638416D01*
X127634043Y-52666272D01*
X127648388Y-52709427D01*
X127658864Y-52776409D01*
X127663010Y-52875442D01*
X127658827Y-52973243D01*
X127648192Y-53040312D01*
X127633506Y-53084319D01*
X127615807Y-53112972D01*
X127594451Y-53132323D01*
X127568928Y-53143917D01*
X127537909Y-53147968D01*
X127506865Y-53143916D01*
X127481326Y-53132320D01*
X127459963Y-53112969D01*
X127442264Y-53084319D01*
X127427560Y-53040332D01*
X127416933Y-52973568D01*
X127412759Y-52876517D01*
X127416914Y-52776733D01*
X127427398Y-52709447D01*
X127441726Y-52666272D01*
X127459103Y-52638419D01*
X127480403Y-52619466D01*
X127506203Y-52608016D01*
X127537909Y-52603991D01*
X127569589Y-52608015D01*
G37*
G36*
X124705474Y-52932790D02*
G01*
X124746305Y-52935247D01*
X124773227Y-52940460D01*
X124805287Y-52954316D01*
X124824322Y-52971967D01*
X124835194Y-52995926D01*
X124839368Y-53031953D01*
X124836188Y-53060240D01*
X124827058Y-53084270D01*
X124810589Y-53103961D01*
X124781970Y-53120662D01*
X124748606Y-53131014D01*
X124711482Y-53134926D01*
X124584671Y-53135463D01*
X124569381Y-53135463D01*
X124569381Y-52932253D01*
X124615299Y-52932253D01*
X124705474Y-52932790D01*
G37*
G36*
X124684957Y-52617326D02*
G01*
X124717528Y-52620384D01*
X124742061Y-52627047D01*
X124764286Y-52640066D01*
X124777867Y-52657626D01*
X124785518Y-52678466D01*
X124787979Y-52698757D01*
X124785689Y-52724392D01*
X124779235Y-52745749D01*
X124766403Y-52763388D01*
X124742061Y-52778771D01*
X124719783Y-52785954D01*
X124686862Y-52789908D01*
X124602159Y-52791569D01*
X124569381Y-52791569D01*
X124569381Y-52616496D01*
X124589067Y-52616496D01*
X124684957Y-52617326D01*
G37*
G36*
X126736011Y-52932790D02*
G01*
X126776842Y-52935247D01*
X126803764Y-52940460D01*
X126835824Y-52954316D01*
X126854860Y-52971967D01*
X126865731Y-52995926D01*
X126869905Y-53031953D01*
X126866725Y-53060240D01*
X126857595Y-53084270D01*
X126841126Y-53103961D01*
X126812508Y-53120662D01*
X126779143Y-53131014D01*
X126742019Y-53134926D01*
X126615208Y-53135463D01*
X126599919Y-53135463D01*
X126599919Y-52932253D01*
X126645836Y-52932253D01*
X126736011Y-52932790D01*
G37*
G36*
X126715495Y-52617326D02*
G01*
X126748065Y-52620384D01*
X126772599Y-52627047D01*
X126794823Y-52640066D01*
X126808405Y-52657626D01*
X126816055Y-52678466D01*
X126818516Y-52698757D01*
X126816226Y-52724392D01*
X126809772Y-52745749D01*
X126796940Y-52763388D01*
X126772599Y-52778771D01*
X126750320Y-52785954D01*
X126717400Y-52789908D01*
X126632696Y-52791569D01*
X126599919Y-52791569D01*
X126599919Y-52616496D01*
X126619605Y-52616496D01*
X126715495Y-52617326D01*
G37*
G36*
X128026939Y-54742031D02*
G01*
X124213073Y-54742031D01*
X124213073Y-54410684D01*
X124333296Y-54410684D01*
X124333296Y-54590398D01*
X124382344Y-54608273D01*
X124451070Y-54626106D01*
X124527089Y-54637716D01*
X124624580Y-54642031D01*
X124709618Y-54637076D01*
X124775132Y-54623762D01*
X124833937Y-54601035D01*
X124883087Y-54571054D01*
X124912092Y-54545411D01*
X124935141Y-54517102D01*
X124952745Y-54485862D01*
X124969715Y-54434590D01*
X124975460Y-54378884D01*
X124971076Y-54331076D01*
X124959584Y-54297502D01*
X124941081Y-54268915D01*
X124916988Y-54244013D01*
X124889874Y-54224736D01*
X124860128Y-54210698D01*
X124829197Y-54200976D01*
X124801119Y-54195409D01*
X124801119Y-54188032D01*
X124844476Y-54173808D01*
X124881075Y-54151429D01*
X124912005Y-54120475D01*
X124935492Y-54083418D01*
X124949404Y-54043691D01*
X124954113Y-54000307D01*
X124948432Y-53951727D01*
X124932229Y-53911354D01*
X124905372Y-53876908D01*
X124865599Y-53846776D01*
X124824743Y-53827465D01*
X124777857Y-53813559D01*
X125065585Y-53813559D01*
X125362340Y-54626400D01*
X125597302Y-54626400D01*
X125676056Y-54410684D01*
X126366178Y-54410684D01*
X126366178Y-54590398D01*
X126415226Y-54608273D01*
X126483952Y-54626106D01*
X126559971Y-54637716D01*
X126657462Y-54642031D01*
X126742500Y-54637076D01*
X126808014Y-54623762D01*
X126866820Y-54601035D01*
X126915969Y-54571054D01*
X126944974Y-54545411D01*
X126968023Y-54517102D01*
X126985627Y-54485862D01*
X127002597Y-54434590D01*
X127008342Y-54378884D01*
X127003958Y-54331076D01*
X126992466Y-54297502D01*
X126973963Y-54268915D01*
X126949870Y-54244013D01*
X126922756Y-54224736D01*
X126893010Y-54210698D01*
X126862079Y-54200976D01*
X126834001Y-54195409D01*
X126834001Y-54188032D01*
X126877358Y-54173808D01*
X126913957Y-54151429D01*
X126944887Y-54120475D01*
X126968374Y-54083418D01*
X126982286Y-54043691D01*
X126986995Y-54000307D01*
X126981314Y-53951727D01*
X126965111Y-53911354D01*
X126938254Y-53876908D01*
X126898481Y-53846776D01*
X126857625Y-53827465D01*
X126810739Y-53813559D01*
X127098467Y-53813559D01*
X127395222Y-54626400D01*
X127630184Y-54626400D01*
X127926939Y-53813559D01*
X127712152Y-53813559D01*
X127515439Y-54384550D01*
X127318677Y-53813559D01*
X127098467Y-53813559D01*
X126810739Y-53813559D01*
X126802836Y-53811215D01*
X126742424Y-53801481D01*
X126667818Y-53797928D01*
X126589081Y-53802109D01*
X126511503Y-53814634D01*
X126438760Y-53832730D01*
X126389675Y-53849365D01*
X126389675Y-54026148D01*
X126409898Y-54026148D01*
X126467432Y-53996600D01*
X126526304Y-53975102D01*
X126585663Y-53961579D01*
X126637776Y-53957369D01*
X126687504Y-53960642D01*
X126715262Y-53965684D01*
X126737818Y-53973636D01*
X126755422Y-53983999D01*
X126769472Y-53997279D01*
X126778741Y-54013985D01*
X126782075Y-54036553D01*
X126778693Y-54067184D01*
X126770058Y-54086769D01*
X126755553Y-54101738D01*
X126734008Y-54114125D01*
X126709590Y-54121907D01*
X126678223Y-54126630D01*
X126602850Y-54129316D01*
X126556395Y-54129316D01*
X126556395Y-54270000D01*
X126601189Y-54270000D01*
X126671140Y-54270831D01*
X126707344Y-54273852D01*
X126735620Y-54280503D01*
X126760031Y-54291811D01*
X126778753Y-54308493D01*
X126790688Y-54330986D01*
X126795167Y-54364132D01*
X126791772Y-54398629D01*
X126783150Y-54420894D01*
X126769203Y-54438951D01*
X126750910Y-54454355D01*
X126723072Y-54468705D01*
X126688042Y-54477363D01*
X126619214Y-54482589D01*
X126564130Y-54477576D01*
X126499779Y-54461242D01*
X126437468Y-54437215D01*
X126387476Y-54410684D01*
X126366178Y-54410684D01*
X125676056Y-54410684D01*
X125894057Y-53813559D01*
X125679270Y-53813559D01*
X125482557Y-54384550D01*
X125285795Y-53813559D01*
X125065585Y-53813559D01*
X124777857Y-53813559D01*
X124769954Y-53811215D01*
X124709542Y-53801481D01*
X124634936Y-53797928D01*
X124556199Y-53802109D01*
X124478621Y-53814634D01*
X124405878Y-53832730D01*
X124356793Y-53849365D01*
X124356793Y-54026148D01*
X124377016Y-54026148D01*
X124434550Y-53996600D01*
X124493422Y-53975102D01*
X124552781Y-53961579D01*
X124604894Y-53957369D01*
X124654622Y-53960642D01*
X124682380Y-53965684D01*
X124704936Y-53973636D01*
X124722540Y-53983999D01*
X124736590Y-53997279D01*
X124745859Y-54013985D01*
X124749193Y-54036553D01*
X124745811Y-54067184D01*
X124737176Y-54086769D01*
X124722671Y-54101738D01*
X124701126Y-54114125D01*
X124676708Y-54121907D01*
X124645341Y-54126630D01*
X124569968Y-54129316D01*
X124523513Y-54129316D01*
X124523513Y-54270000D01*
X124568307Y-54270000D01*
X124638258Y-54270831D01*
X124674462Y-54273852D01*
X124702738Y-54280503D01*
X124727149Y-54291811D01*
X124745871Y-54308493D01*
X124757806Y-54330986D01*
X124762284Y-54364132D01*
X124758890Y-54398629D01*
X124750268Y-54420894D01*
X124736321Y-54438951D01*
X124718028Y-54454355D01*
X124690190Y-54468705D01*
X124655160Y-54477363D01*
X124586332Y-54482589D01*
X124531248Y-54477576D01*
X124466897Y-54461242D01*
X124404586Y-54437215D01*
X124354594Y-54410684D01*
X124333296Y-54410684D01*
X124213073Y-54410684D01*
X124213073Y-52791569D01*
X124360652Y-52791569D01*
X124360652Y-53135463D01*
X124360652Y-53282400D01*
X124715878Y-53282400D01*
X124800475Y-53278180D01*
X124862033Y-53267159D01*
X124917280Y-53246758D01*
X124967790Y-53215965D01*
X125004869Y-53181580D01*
X125033101Y-53139224D01*
X125046127Y-53107570D01*
X125054129Y-53072746D01*
X125056890Y-53034151D01*
X125051321Y-52981905D01*
X125035597Y-52939027D01*
X125010142Y-52903481D01*
X124976343Y-52874860D01*
X124934693Y-52853006D01*
X124883624Y-52838122D01*
X124883624Y-52833725D01*
X124919434Y-52814201D01*
X124948476Y-52790792D01*
X124971601Y-52763383D01*
X124988788Y-52732011D01*
X124999193Y-52697501D01*
X125002766Y-52659043D01*
X124996933Y-52610305D01*
X124984305Y-52578980D01*
X125254873Y-52578980D01*
X125254873Y-52710285D01*
X125426478Y-52710285D01*
X125426478Y-53141716D01*
X125254873Y-53141716D01*
X125254873Y-53282400D01*
X125798070Y-53282400D01*
X125798070Y-53141716D01*
X125630324Y-53141716D01*
X125630324Y-52791569D01*
X126391189Y-52791569D01*
X126391189Y-53135463D01*
X126391189Y-53282400D01*
X126746416Y-53282400D01*
X126831013Y-53278180D01*
X126892571Y-53267159D01*
X126947817Y-53246758D01*
X126998328Y-53215965D01*
X127035406Y-53181580D01*
X127063638Y-53139224D01*
X127076664Y-53107570D01*
X127084666Y-53072746D01*
X127087428Y-53034151D01*
X127081858Y-52981905D01*
X127066134Y-52939027D01*
X127040679Y-52903481D01*
X127008202Y-52875979D01*
X127201245Y-52875979D01*
X127201271Y-52876517D01*
X127206029Y-52975328D01*
X127219270Y-53057598D01*
X127234361Y-53109151D01*
X127253945Y-53153022D01*
X127277742Y-53190222D01*
X127306898Y-53222718D01*
X127341474Y-53249496D01*
X127382131Y-53270822D01*
X127425950Y-53285401D01*
X127477441Y-53294716D01*
X127537909Y-53298031D01*
X127599479Y-53294708D01*
X127651062Y-53285441D01*
X127694176Y-53271067D01*
X127734198Y-53250025D01*
X127768621Y-53223530D01*
X127798028Y-53191297D01*
X127821074Y-53155198D01*
X127840492Y-53111430D01*
X127855913Y-53058722D01*
X127869614Y-52974960D01*
X127874525Y-52875442D01*
X127869724Y-52776219D01*
X127856499Y-52694898D01*
X127841496Y-52644029D01*
X127822098Y-52600510D01*
X127798565Y-52563397D01*
X127769068Y-52530100D01*
X127734637Y-52502894D01*
X127694713Y-52481430D01*
X127651597Y-52466777D01*
X127599853Y-52457322D01*
X127537909Y-52453928D01*
X127478554Y-52457165D01*
X127427577Y-52466298D01*
X127383792Y-52480648D01*
X127343124Y-52501614D01*
X127308362Y-52528190D01*
X127278865Y-52560662D01*
X127254927Y-52598158D01*
X127235165Y-52641798D01*
X127219807Y-52692455D01*
X127206232Y-52773912D01*
X127201245Y-52875979D01*
X127008202Y-52875979D01*
X127006881Y-52874860D01*
X126965231Y-52853006D01*
X126914162Y-52838122D01*
X126914162Y-52833725D01*
X126949971Y-52814201D01*
X126979014Y-52790792D01*
X127002138Y-52763383D01*
X127019325Y-52732011D01*
X127029730Y-52697501D01*
X127033303Y-52659043D01*
X127027471Y-52610305D01*
X127010589Y-52568429D01*
X126993216Y-52544172D01*
X126970449Y-52523141D01*
X126941517Y-52505170D01*
X126896012Y-52486532D01*
X126851049Y-52476154D01*
X126798790Y-52471527D01*
X126707044Y-52469559D01*
X126391189Y-52469559D01*
X126391189Y-52791569D01*
X125630324Y-52791569D01*
X125630324Y-52469559D01*
X125449437Y-52469559D01*
X125443997Y-52499982D01*
X125433024Y-52523488D01*
X125415795Y-52542579D01*
X125390428Y-52558513D01*
X125364583Y-52567795D01*
X125330296Y-52574388D01*
X125254873Y-52578980D01*
X124984305Y-52578980D01*
X124980051Y-52568429D01*
X124962678Y-52544172D01*
X124939912Y-52523141D01*
X124910980Y-52505170D01*
X124865475Y-52486532D01*
X124820512Y-52476154D01*
X124768253Y-52471527D01*
X124676506Y-52469559D01*
X124360652Y-52469559D01*
X124360652Y-52791569D01*
X124213073Y-52791569D01*
X124213073Y-51530612D01*
X124313073Y-51530612D01*
X124318297Y-51610458D01*
X124333187Y-51680081D01*
X124356946Y-51741014D01*
X124389309Y-51794519D01*
X124430554Y-51841533D01*
X124479090Y-51880640D01*
X124534696Y-51911611D01*
X124598408Y-51934519D01*
X124671562Y-51948952D01*
X124755739Y-51954031D01*
X124845164Y-51948844D01*
X124935550Y-51933124D01*
X125020997Y-51910890D01*
X125080386Y-51890968D01*
X125080386Y-51530612D01*
X126367839Y-51530612D01*
X126373063Y-51610458D01*
X126387953Y-51680081D01*
X126411712Y-51741014D01*
X126444075Y-51794519D01*
X126485320Y-51841533D01*
X126533856Y-51880640D01*
X126589462Y-51911611D01*
X126653174Y-51934519D01*
X126726328Y-51948952D01*
X126810505Y-51954031D01*
X126899930Y-51948844D01*
X126990317Y-51933124D01*
X127075763Y-51910890D01*
X127135153Y-51890968D01*
X127135153Y-51491337D01*
X126759703Y-51491337D01*
X126759703Y-51644527D01*
X126921977Y-51644527D01*
X126921977Y-51804896D01*
X126895453Y-51806557D01*
X126868977Y-51807095D01*
X126798786Y-51801945D01*
X126741651Y-51787666D01*
X126695167Y-51765443D01*
X126657462Y-51735629D01*
X126627404Y-51697950D01*
X126605167Y-51652209D01*
X126590984Y-51596744D01*
X126585899Y-51529390D01*
X126591132Y-51465798D01*
X126605830Y-51412887D01*
X126629863Y-51366171D01*
X126660198Y-51329697D01*
X126698736Y-51300137D01*
X126741629Y-51279481D01*
X126788691Y-51267356D01*
X126842745Y-51263117D01*
X126889385Y-51266275D01*
X126932626Y-51275524D01*
X126973287Y-51289531D01*
X127006681Y-51305175D01*
X127063492Y-51340493D01*
X127108335Y-51372538D01*
X127131831Y-51372538D01*
X127131831Y-51181979D01*
X127043750Y-51144925D01*
X126970044Y-51124387D01*
X126896245Y-51113615D01*
X126817051Y-51109928D01*
X126731089Y-51115165D01*
X126656566Y-51130035D01*
X126591820Y-51153619D01*
X126535455Y-51185493D01*
X126486395Y-51225748D01*
X126444259Y-51274243D01*
X126411511Y-51328088D01*
X126387721Y-51388035D01*
X126372969Y-51455120D01*
X126367839Y-51530612D01*
X125080386Y-51530612D01*
X125080386Y-51491337D01*
X124704936Y-51491337D01*
X124704936Y-51644527D01*
X124867211Y-51644527D01*
X124867211Y-51804896D01*
X124840686Y-51806557D01*
X124814211Y-51807095D01*
X124744020Y-51801945D01*
X124686884Y-51787666D01*
X124640400Y-51765443D01*
X124602696Y-51735629D01*
X124572638Y-51697950D01*
X124550401Y-51652209D01*
X124536218Y-51596744D01*
X124531133Y-51529390D01*
X124536366Y-51465798D01*
X124551063Y-51412887D01*
X124575097Y-51366171D01*
X124605432Y-51329697D01*
X124643970Y-51300137D01*
X124686862Y-51279481D01*
X124733924Y-51267356D01*
X124787979Y-51263117D01*
X124834619Y-51266275D01*
X124877860Y-51275524D01*
X124918520Y-51289531D01*
X124951915Y-51305175D01*
X125008726Y-51340493D01*
X125053569Y-51372538D01*
X125077065Y-51372538D01*
X125077065Y-51181979D01*
X124988983Y-51144925D01*
X124915278Y-51124387D01*
X124841478Y-51113615D01*
X124762284Y-51109928D01*
X124676323Y-51115165D01*
X124601800Y-51130035D01*
X124537054Y-51153619D01*
X124480689Y-51185493D01*
X124431629Y-51225748D01*
X124389492Y-51274243D01*
X124356745Y-51328088D01*
X124332955Y-51388035D01*
X124318202Y-51455120D01*
X124313073Y-51530612D01*
X124213073Y-51530612D01*
X124213073Y-51009928D01*
X128026939Y-51009928D01*
X128026939Y-54742031D01*
G37*
G36*
X93332837Y-46403939D02*
G01*
X93380203Y-46408980D01*
X93421532Y-46419171D01*
X93462513Y-46435785D01*
X93511529Y-46466686D01*
X93549672Y-46503583D01*
X93578284Y-46546916D01*
X93598020Y-46595518D01*
X93610464Y-46651959D01*
X93614859Y-46717703D01*
X93610761Y-46784099D01*
X93599299Y-46839785D01*
X93581398Y-46886475D01*
X93555156Y-46928523D01*
X93520432Y-46964719D01*
X93476190Y-46995529D01*
X93433718Y-47014570D01*
X93390827Y-47026426D01*
X93340862Y-47032382D01*
X93253502Y-47034913D01*
X93187251Y-47034913D01*
X93187251Y-46401836D01*
X93253502Y-46401836D01*
X93332837Y-46403939D01*
G37*
G36*
X93997141Y-47357050D02*
G01*
X90184122Y-47357050D01*
X90184122Y-46921584D01*
X90295233Y-46921584D01*
X90295233Y-47166926D01*
X90379312Y-47197960D01*
X90471148Y-47223591D01*
X90569272Y-47239947D01*
X90691455Y-47245939D01*
X90801807Y-47239224D01*
X90894467Y-47220432D01*
X90972227Y-47191086D01*
X91037425Y-47151966D01*
X91084469Y-47110884D01*
X91119758Y-47066524D01*
X91144620Y-47018437D01*
X91159689Y-46965800D01*
X91164859Y-46907479D01*
X91158184Y-46839265D01*
X91139376Y-46782997D01*
X91109172Y-46736204D01*
X91068184Y-46697493D01*
X91011861Y-46662565D01*
X90936675Y-46631912D01*
X90825667Y-46601809D01*
X90718078Y-46579217D01*
X90640170Y-46558357D01*
X90601940Y-46539955D01*
X90584935Y-46523573D01*
X90574790Y-46503352D01*
X90571227Y-46478039D01*
X90575954Y-46452023D01*
X90590339Y-46428763D01*
X90611401Y-46409831D01*
X90636134Y-46396462D01*
X90666760Y-46385749D01*
X90698600Y-46379121D01*
X90763873Y-46374480D01*
X90825194Y-46378197D01*
X90885730Y-46389355D01*
X90945895Y-46408125D01*
X91029886Y-46446824D01*
X91096532Y-46491717D01*
X91124559Y-46491717D01*
X91124559Y-46258709D01*
X91049092Y-46232802D01*
X90955512Y-46210349D01*
X91260419Y-46210349D01*
X91534338Y-47226400D01*
X91824681Y-47226400D01*
X92002307Y-46564501D01*
X92184695Y-47226400D01*
X92475039Y-47226400D01*
X92526662Y-47034913D01*
X92924934Y-47034913D01*
X92924934Y-47226400D01*
X93283544Y-47226400D01*
X93401011Y-47221620D01*
X93493898Y-47208692D01*
X93579538Y-47183946D01*
X93657174Y-47145860D01*
X93718454Y-47100886D01*
X93772992Y-47043948D01*
X93821122Y-46973608D01*
X93856825Y-46896461D01*
X93878566Y-46812250D01*
X93886030Y-46719412D01*
X93878896Y-46622691D01*
X93858465Y-46537939D01*
X93825580Y-46463202D01*
X93780100Y-46395330D01*
X93725129Y-46337942D01*
X93659922Y-46290156D01*
X93593662Y-46257269D01*
X93508247Y-46231171D01*
X93413757Y-46215970D01*
X93293802Y-46210349D01*
X92924934Y-46210349D01*
X92924934Y-47034913D01*
X92526662Y-47034913D01*
X92748957Y-46210349D01*
X92481878Y-46210349D01*
X92317930Y-46909800D01*
X92139632Y-46210349D01*
X91877987Y-46210349D01*
X91690775Y-46909800D01*
X91534338Y-46210349D01*
X91260419Y-46210349D01*
X90955512Y-46210349D01*
X90954749Y-46210166D01*
X90856209Y-46195655D01*
X90756363Y-46190810D01*
X90655945Y-46197053D01*
X90569167Y-46214757D01*
X90494008Y-46242818D01*
X90428772Y-46280752D01*
X90381368Y-46320337D01*
X90346071Y-46362769D01*
X90321375Y-46408439D01*
X90306489Y-46458120D01*
X90301400Y-46512905D01*
X90308043Y-46581618D01*
X90326994Y-46640077D01*
X90357759Y-46690348D01*
X90399863Y-46731971D01*
X90459933Y-46769879D01*
X90542528Y-46803493D01*
X90599801Y-46820174D01*
X90662452Y-46833962D01*
X90783657Y-46859547D01*
X90833942Y-46876389D01*
X90866639Y-46896855D01*
X90888133Y-46923826D01*
X90895032Y-46954618D01*
X90889738Y-46988982D01*
X90875554Y-47011649D01*
X90853982Y-47028924D01*
X90826033Y-47043706D01*
X90799467Y-47051913D01*
X90762469Y-47057994D01*
X90699638Y-47062268D01*
X90638279Y-47058405D01*
X90573905Y-47046494D01*
X90505953Y-47025876D01*
X90440762Y-46997993D01*
X90380227Y-46963290D01*
X90323931Y-46921584D01*
X90295233Y-46921584D01*
X90184122Y-46921584D01*
X90184122Y-46079699D01*
X93997141Y-46079699D01*
X93997141Y-47357050D01*
G37*
G36*
X109455935Y-46437697D02*
G01*
X109502234Y-46451475D01*
X109544571Y-46475080D01*
X109582529Y-46510582D01*
X109612511Y-46554409D01*
X109637850Y-46613897D01*
X109653313Y-46681501D01*
X109659038Y-46768808D01*
X109654109Y-46850783D01*
X109640597Y-46916697D01*
X109616893Y-46975957D01*
X109583872Y-47025751D01*
X109546492Y-47061431D01*
X109503944Y-47085896D01*
X109457108Y-47100392D01*
X109407651Y-47105253D01*
X109358169Y-47100482D01*
X109311297Y-47086263D01*
X109268763Y-47062167D01*
X109231430Y-47027095D01*
X109201416Y-46982697D01*
X109176414Y-46923475D01*
X109161217Y-46856236D01*
X109155592Y-46769541D01*
X109161287Y-46684261D01*
X109177086Y-46614263D01*
X109202949Y-46552343D01*
X109232773Y-46509239D01*
X109272185Y-46473700D01*
X109313678Y-46450804D01*
X109358936Y-46437576D01*
X109407651Y-46433096D01*
X109455935Y-46437697D01*
G37*
G36*
X110645886Y-46437697D02*
G01*
X110692185Y-46451475D01*
X110734522Y-46475080D01*
X110772480Y-46510582D01*
X110802462Y-46554409D01*
X110827801Y-46613897D01*
X110843264Y-46681501D01*
X110848989Y-46768808D01*
X110844061Y-46850783D01*
X110830549Y-46916697D01*
X110806844Y-46975957D01*
X110773823Y-47025751D01*
X110736444Y-47061431D01*
X110693895Y-47085896D01*
X110647059Y-47100392D01*
X110597602Y-47105253D01*
X110548120Y-47100482D01*
X110501248Y-47086263D01*
X110458714Y-47062167D01*
X110421381Y-47027095D01*
X110391367Y-46982697D01*
X110366365Y-46923475D01*
X110351168Y-46856236D01*
X110345543Y-46769541D01*
X110351238Y-46684261D01*
X110367037Y-46614263D01*
X110392900Y-46552343D01*
X110422724Y-46509239D01*
X110462136Y-46473700D01*
X110503630Y-46450804D01*
X110548887Y-46437576D01*
X110597602Y-46433096D01*
X110645886Y-46437697D01*
G37*
G36*
X114279243Y-46437697D02*
G01*
X114325542Y-46451475D01*
X114367878Y-46475080D01*
X114405836Y-46510582D01*
X114435819Y-46554409D01*
X114461157Y-46613897D01*
X114476620Y-46681501D01*
X114482346Y-46768808D01*
X114477417Y-46850783D01*
X114463905Y-46916697D01*
X114440201Y-46975957D01*
X114407180Y-47025751D01*
X114369800Y-47061431D01*
X114327251Y-47085896D01*
X114280415Y-47100392D01*
X114230959Y-47105253D01*
X114181477Y-47100482D01*
X114134605Y-47086263D01*
X114092071Y-47062167D01*
X114054737Y-47027095D01*
X114024724Y-46982697D01*
X113999722Y-46923475D01*
X113984524Y-46856236D01*
X113978900Y-46769541D01*
X113984595Y-46684261D01*
X114000393Y-46614263D01*
X114026256Y-46552343D01*
X114056081Y-46509239D01*
X114095492Y-46473700D01*
X114136986Y-46450804D01*
X114182244Y-46437576D01*
X114230959Y-46433096D01*
X114279243Y-46437697D01*
G37*
G36*
X108307642Y-46840188D02*
G01*
X108358681Y-46843259D01*
X108392333Y-46849775D01*
X108432409Y-46867095D01*
X108456203Y-46889159D01*
X108469793Y-46919108D01*
X108475010Y-46964141D01*
X108471035Y-46999500D01*
X108459622Y-47029537D01*
X108439036Y-47054151D01*
X108403263Y-47075027D01*
X108361558Y-47087968D01*
X108315153Y-47092857D01*
X108156639Y-47093529D01*
X108137527Y-47093529D01*
X108137527Y-46839516D01*
X108194924Y-46839516D01*
X108307642Y-46840188D01*
G37*
G36*
X108281997Y-46445858D02*
G01*
X108322710Y-46449681D01*
X108353377Y-46458009D01*
X108381157Y-46474283D01*
X108398134Y-46496233D01*
X108407698Y-46522283D01*
X108410774Y-46547646D01*
X108407911Y-46579690D01*
X108399844Y-46606387D01*
X108383803Y-46628435D01*
X108353377Y-46647664D01*
X108325529Y-46656643D01*
X108284378Y-46661585D01*
X108178499Y-46663661D01*
X108137527Y-46663661D01*
X108137527Y-46444820D01*
X108162134Y-46444820D01*
X108281997Y-46445858D01*
G37*
G36*
X116980808Y-47407850D02*
G01*
X107765504Y-47407850D01*
X107765504Y-46663661D01*
X107876615Y-46663661D01*
X107876615Y-47093529D01*
X107876615Y-47277200D01*
X108320648Y-47277200D01*
X108426394Y-47271925D01*
X108503342Y-47258149D01*
X108572400Y-47232648D01*
X108635538Y-47194157D01*
X108681886Y-47151175D01*
X108717176Y-47098231D01*
X108733459Y-47058663D01*
X108743462Y-47015132D01*
X108746913Y-46966889D01*
X108739951Y-46901581D01*
X108720296Y-46847984D01*
X108688478Y-46803552D01*
X108648314Y-46769541D01*
X108883017Y-46769541D01*
X108889189Y-46867061D01*
X108906826Y-46952720D01*
X108935021Y-47028236D01*
X108973444Y-47095042D01*
X109022358Y-47154223D01*
X109080435Y-47204161D01*
X109146582Y-47243418D01*
X109221963Y-47272280D01*
X109308136Y-47290384D01*
X109406979Y-47296739D01*
X109506131Y-47290377D01*
X109592503Y-47272257D01*
X109667991Y-47243385D01*
X109734169Y-47204133D01*
X109792211Y-47154223D01*
X109841148Y-47095038D01*
X109879588Y-47028231D01*
X109907795Y-46952715D01*
X109925439Y-46867058D01*
X109931613Y-46769541D01*
X110072968Y-46769541D01*
X110079140Y-46867061D01*
X110096778Y-46952720D01*
X110124973Y-47028236D01*
X110163395Y-47095042D01*
X110212309Y-47154223D01*
X110270387Y-47204161D01*
X110336533Y-47243418D01*
X110411914Y-47272280D01*
X110498087Y-47290384D01*
X110596930Y-47296739D01*
X110696082Y-47290377D01*
X110782454Y-47272257D01*
X110857943Y-47243385D01*
X110924120Y-47204133D01*
X110982162Y-47154223D01*
X111031100Y-47095038D01*
X111069539Y-47028231D01*
X111097746Y-46952715D01*
X111115390Y-46867058D01*
X111121564Y-46769541D01*
X111115336Y-46671093D01*
X111097565Y-46584888D01*
X111069197Y-46509144D01*
X111038782Y-46456544D01*
X111220604Y-46456544D01*
X111538242Y-46456544D01*
X111538242Y-47277200D01*
X111800559Y-47277200D01*
X111800559Y-46770212D01*
X112694183Y-46770212D01*
X112698698Y-46855990D01*
X112711591Y-46931724D01*
X112732101Y-46998702D01*
X112761430Y-47062060D01*
X112797058Y-47116760D01*
X112839019Y-47163749D01*
X112887581Y-47203896D01*
X112942334Y-47237055D01*
X113004005Y-47263339D01*
X113068784Y-47281643D01*
X113138363Y-47292886D01*
X113213382Y-47296739D01*
X113285793Y-47294576D01*
X113333610Y-47289167D01*
X113427216Y-47267247D01*
X113500245Y-47241174D01*
X113573396Y-47208873D01*
X113573396Y-46964569D01*
X113546041Y-46964569D01*
X113498902Y-47004136D01*
X113436742Y-47047184D01*
X113395561Y-47069455D01*
X113350341Y-47086751D01*
X113303170Y-47097718D01*
X113255758Y-47101345D01*
X113205987Y-47097401D01*
X113154641Y-47085286D01*
X113106044Y-47063998D01*
X113061707Y-47031674D01*
X113025247Y-46989514D01*
X112993746Y-46930680D01*
X112979400Y-46887015D01*
X112970104Y-46834301D01*
X112966758Y-46770884D01*
X112966861Y-46769541D01*
X113706325Y-46769541D01*
X113712497Y-46867061D01*
X113730134Y-46952720D01*
X113758329Y-47028236D01*
X113796752Y-47095042D01*
X113845666Y-47154223D01*
X113903743Y-47204161D01*
X113969890Y-47243418D01*
X114045271Y-47272280D01*
X114131443Y-47290384D01*
X114230287Y-47296739D01*
X114329438Y-47290377D01*
X114392249Y-47277200D01*
X114955749Y-47277200D01*
X115196206Y-47277200D01*
X115196206Y-46579825D01*
X115627906Y-47277200D01*
X115880697Y-47277200D01*
X116140816Y-47277200D01*
X116401728Y-47277200D01*
X116401728Y-46843424D01*
X116835503Y-46843424D01*
X116835503Y-46648030D01*
X116401728Y-46648030D01*
X116401728Y-46456544D01*
X116869697Y-46456544D01*
X116869697Y-46261149D01*
X116140816Y-46261149D01*
X116140816Y-47277200D01*
X115880697Y-47277200D01*
X115880697Y-46261149D01*
X115640240Y-46261149D01*
X115640240Y-46843241D01*
X115269296Y-46261149D01*
X114955749Y-46261149D01*
X114955749Y-47277200D01*
X114392249Y-47277200D01*
X114415811Y-47272257D01*
X114491299Y-47243385D01*
X114557476Y-47204133D01*
X114615519Y-47154223D01*
X114664456Y-47095038D01*
X114702896Y-47028231D01*
X114731102Y-46952715D01*
X114748746Y-46867058D01*
X114754921Y-46769541D01*
X114748693Y-46671093D01*
X114730921Y-46584888D01*
X114702553Y-46509144D01*
X114663945Y-46442374D01*
X114614847Y-46383454D01*
X114556556Y-46333733D01*
X114490286Y-46294653D01*
X114414892Y-46265932D01*
X114328841Y-46247926D01*
X114230287Y-46241610D01*
X114131406Y-46247940D01*
X114045214Y-46265970D01*
X113969834Y-46294707D01*
X113903707Y-46333778D01*
X113845666Y-46383454D01*
X113796851Y-46442335D01*
X113758447Y-46509083D01*
X113730216Y-46584827D01*
X113712525Y-46671053D01*
X113706325Y-46769541D01*
X112966861Y-46769541D01*
X112973453Y-46683379D01*
X112991670Y-46615240D01*
X113021334Y-46555992D01*
X113056944Y-46512109D01*
X113101723Y-46477177D01*
X113149146Y-46454406D01*
X113200099Y-46441403D01*
X113254354Y-46437004D01*
X113303125Y-46440875D01*
X113347960Y-46452208D01*
X113390435Y-46469274D01*
X113429231Y-46489516D01*
X113495116Y-46534396D01*
X113543354Y-46573780D01*
X113573396Y-46573780D01*
X113573396Y-46326545D01*
X113508122Y-46296748D01*
X113425140Y-46267622D01*
X113329825Y-46248815D01*
X113276725Y-46243513D01*
X113214054Y-46241610D01*
X113137312Y-46245850D01*
X113066148Y-46258232D01*
X112999853Y-46278429D01*
X112936978Y-46306965D01*
X112882534Y-46341741D01*
X112835599Y-46382782D01*
X112793567Y-46432301D01*
X112758538Y-46488234D01*
X112730392Y-46551310D01*
X112710639Y-46617688D01*
X112698408Y-46690366D01*
X112694183Y-46770212D01*
X111800559Y-46770212D01*
X111800559Y-46456544D01*
X112118197Y-46456544D01*
X112118197Y-46261149D01*
X111220604Y-46261149D01*
X111220604Y-46456544D01*
X111038782Y-46456544D01*
X111030589Y-46442374D01*
X110981491Y-46383454D01*
X110923199Y-46333733D01*
X110856930Y-46294653D01*
X110781536Y-46265932D01*
X110695484Y-46247926D01*
X110596930Y-46241610D01*
X110498049Y-46247940D01*
X110411857Y-46265970D01*
X110336477Y-46294707D01*
X110270350Y-46333778D01*
X110212309Y-46383454D01*
X110163495Y-46442335D01*
X110125090Y-46509083D01*
X110096860Y-46584827D01*
X110079169Y-46671053D01*
X110072968Y-46769541D01*
X109931613Y-46769541D01*
X109925385Y-46671093D01*
X109907613Y-46584888D01*
X109879245Y-46509144D01*
X109840638Y-46442374D01*
X109791540Y-46383454D01*
X109733248Y-46333733D01*
X109666979Y-46294653D01*
X109591584Y-46265932D01*
X109505533Y-46247926D01*
X109406979Y-46241610D01*
X109308098Y-46247940D01*
X109221906Y-46265970D01*
X109146526Y-46294707D01*
X109080399Y-46333778D01*
X109022358Y-46383454D01*
X108973544Y-46442335D01*
X108935139Y-46509083D01*
X108906908Y-46584827D01*
X108889218Y-46671053D01*
X108883017Y-46769541D01*
X108648314Y-46769541D01*
X108646229Y-46767775D01*
X108594167Y-46740458D01*
X108530331Y-46721852D01*
X108530331Y-46716357D01*
X108575092Y-46691952D01*
X108611395Y-46662690D01*
X108640301Y-46628429D01*
X108661785Y-46589214D01*
X108674791Y-46546076D01*
X108679258Y-46498004D01*
X108671967Y-46437082D01*
X108650864Y-46384736D01*
X108629148Y-46354415D01*
X108600690Y-46328126D01*
X108564525Y-46305663D01*
X108507644Y-46282365D01*
X108451440Y-46269392D01*
X108386116Y-46263609D01*
X108271433Y-46261149D01*
X107876615Y-46261149D01*
X107876615Y-46663661D01*
X107765504Y-46663661D01*
X107765504Y-46130499D01*
X116980808Y-46130499D01*
X116980808Y-47407850D01*
G37*
G36*
X121102371Y-97197948D02*
G01*
X120806593Y-97197948D01*
X121102371Y-96830423D01*
X121102371Y-97197948D01*
G37*
G36*
X121602866Y-97750650D02*
G01*
X117463722Y-97750650D01*
X117463722Y-97315184D01*
X117574833Y-97315184D01*
X117574833Y-97560526D01*
X117658912Y-97591560D01*
X117750748Y-97617191D01*
X117848872Y-97633547D01*
X117971055Y-97639539D01*
X118081407Y-97632824D01*
X118174067Y-97614032D01*
X118251827Y-97584686D01*
X118317025Y-97545566D01*
X118364069Y-97504484D01*
X118399358Y-97460124D01*
X118424220Y-97412037D01*
X118439289Y-97359400D01*
X118444459Y-97301079D01*
X118437784Y-97232865D01*
X118418976Y-97176597D01*
X118388772Y-97129804D01*
X118347784Y-97091093D01*
X118291461Y-97056165D01*
X118216275Y-97025512D01*
X118105267Y-96995409D01*
X117997678Y-96972817D01*
X117919770Y-96951957D01*
X117881540Y-96933555D01*
X117864535Y-96917173D01*
X117854390Y-96896952D01*
X117850827Y-96871639D01*
X117855554Y-96845623D01*
X117869939Y-96822363D01*
X117891001Y-96803431D01*
X117915734Y-96790062D01*
X117946360Y-96779349D01*
X117978200Y-96772721D01*
X118043473Y-96768080D01*
X118104794Y-96771797D01*
X118165330Y-96782955D01*
X118225495Y-96801725D01*
X118309486Y-96840424D01*
X118376132Y-96885317D01*
X118404159Y-96885317D01*
X118404159Y-96652309D01*
X118328692Y-96626402D01*
X118235112Y-96603949D01*
X118540019Y-96603949D01*
X118813938Y-97620000D01*
X119104281Y-97620000D01*
X119281907Y-96958101D01*
X119464295Y-97620000D01*
X119754639Y-97620000D01*
X119870264Y-97191109D01*
X120609855Y-97191109D01*
X120609855Y-97197948D01*
X120609855Y-97385526D01*
X121102371Y-97385526D01*
X121102371Y-97623907D01*
X121353086Y-97623907D01*
X121353086Y-97385526D01*
X121491755Y-97385526D01*
X121491755Y-97197948D01*
X121353086Y-97197948D01*
X121353086Y-96603949D01*
X121085946Y-96603949D01*
X120609855Y-97191109D01*
X119870264Y-97191109D01*
X120028557Y-96603949D01*
X119761478Y-96603949D01*
X119597530Y-97303400D01*
X119419232Y-96603949D01*
X119157587Y-96603949D01*
X118970375Y-97303400D01*
X118813938Y-96603949D01*
X118540019Y-96603949D01*
X118235112Y-96603949D01*
X118234349Y-96603766D01*
X118135809Y-96589255D01*
X118035963Y-96584410D01*
X117935545Y-96590653D01*
X117848767Y-96608357D01*
X117773608Y-96636418D01*
X117708372Y-96674352D01*
X117660968Y-96713937D01*
X117625671Y-96756369D01*
X117600975Y-96802039D01*
X117586089Y-96851720D01*
X117581000Y-96906505D01*
X117587643Y-96975218D01*
X117606594Y-97033677D01*
X117637359Y-97083948D01*
X117679463Y-97125571D01*
X117739533Y-97163479D01*
X117822128Y-97197093D01*
X117879401Y-97213774D01*
X117942052Y-97227562D01*
X118063257Y-97253147D01*
X118113542Y-97269989D01*
X118146239Y-97290455D01*
X118167733Y-97317426D01*
X118174632Y-97348218D01*
X118169338Y-97382582D01*
X118155154Y-97405249D01*
X118133582Y-97422524D01*
X118105633Y-97437306D01*
X118079067Y-97445513D01*
X118042069Y-97451594D01*
X117979238Y-97455868D01*
X117917879Y-97452005D01*
X117853505Y-97440094D01*
X117785553Y-97419476D01*
X117720362Y-97391593D01*
X117659827Y-97356890D01*
X117603531Y-97315184D01*
X117574833Y-97315184D01*
X117463722Y-97315184D01*
X117463722Y-96473299D01*
X121602866Y-96473299D01*
X121602866Y-97750650D01*
G37*
G36*
X90790281Y-97801450D02*
G01*
X86729722Y-97801450D01*
X86729722Y-97365984D01*
X86840833Y-97365984D01*
X86840833Y-97611326D01*
X86924912Y-97642360D01*
X87016748Y-97667991D01*
X87114872Y-97684347D01*
X87237055Y-97690339D01*
X87347407Y-97683624D01*
X87440067Y-97664832D01*
X87517827Y-97635486D01*
X87583025Y-97596366D01*
X87630069Y-97555284D01*
X87665358Y-97510924D01*
X87690220Y-97462837D01*
X87705289Y-97410200D01*
X87710459Y-97351879D01*
X87703784Y-97283665D01*
X87684976Y-97227397D01*
X87654772Y-97180604D01*
X87613784Y-97141893D01*
X87557461Y-97106965D01*
X87482275Y-97076312D01*
X87371267Y-97046209D01*
X87263678Y-97023617D01*
X87185770Y-97002757D01*
X87147540Y-96984355D01*
X87130535Y-96967973D01*
X87120390Y-96947752D01*
X87116827Y-96922439D01*
X87121554Y-96896423D01*
X87135939Y-96873163D01*
X87157001Y-96854231D01*
X87181734Y-96840862D01*
X87212360Y-96830149D01*
X87244200Y-96823521D01*
X87309473Y-96818880D01*
X87370794Y-96822597D01*
X87431330Y-96833755D01*
X87491495Y-96852525D01*
X87575486Y-96891224D01*
X87642132Y-96936117D01*
X87670159Y-96936117D01*
X87670159Y-96703109D01*
X87594692Y-96677202D01*
X87501112Y-96654749D01*
X87806019Y-96654749D01*
X88079938Y-97670800D01*
X88370281Y-97670800D01*
X88547907Y-97008901D01*
X88730295Y-97670800D01*
X89020639Y-97670800D01*
X89257683Y-96791525D01*
X90000175Y-96791525D01*
X90000175Y-96955656D01*
X90214681Y-96955656D01*
X90214681Y-97494945D01*
X90000175Y-97494945D01*
X90000175Y-97670800D01*
X90679170Y-97670800D01*
X90679170Y-97494945D01*
X90469487Y-97494945D01*
X90469487Y-96654749D01*
X90243380Y-96654749D01*
X90236579Y-96692778D01*
X90222863Y-96722160D01*
X90201327Y-96746024D01*
X90169618Y-96765941D01*
X90137312Y-96777544D01*
X90094453Y-96785786D01*
X90000175Y-96791525D01*
X89257683Y-96791525D01*
X89294557Y-96654749D01*
X89027478Y-96654749D01*
X88863530Y-97354200D01*
X88685232Y-96654749D01*
X88423587Y-96654749D01*
X88236375Y-97354200D01*
X88079938Y-96654749D01*
X87806019Y-96654749D01*
X87501112Y-96654749D01*
X87500349Y-96654566D01*
X87401809Y-96640055D01*
X87301963Y-96635210D01*
X87201545Y-96641453D01*
X87114767Y-96659157D01*
X87039608Y-96687218D01*
X86974372Y-96725152D01*
X86926968Y-96764737D01*
X86891671Y-96807169D01*
X86866975Y-96852839D01*
X86852089Y-96902520D01*
X86847000Y-96957305D01*
X86853643Y-97026018D01*
X86872594Y-97084477D01*
X86903359Y-97134748D01*
X86945463Y-97176371D01*
X87005533Y-97214279D01*
X87088128Y-97247893D01*
X87145401Y-97264574D01*
X87208052Y-97278362D01*
X87329257Y-97303947D01*
X87379542Y-97320789D01*
X87412239Y-97341255D01*
X87433733Y-97368226D01*
X87440632Y-97399018D01*
X87435338Y-97433382D01*
X87421154Y-97456049D01*
X87399582Y-97473324D01*
X87371633Y-97488106D01*
X87345067Y-97496313D01*
X87308069Y-97502394D01*
X87245238Y-97506668D01*
X87183879Y-97502805D01*
X87119505Y-97490894D01*
X87051553Y-97470276D01*
X86986362Y-97442393D01*
X86925827Y-97407690D01*
X86869531Y-97365984D01*
X86840833Y-97365984D01*
X86729722Y-97365984D01*
X86729722Y-96524099D01*
X90790281Y-96524099D01*
X90790281Y-97801450D01*
G37*
G36*
X105554080Y-47474292D02*
G01*
X100496522Y-47474292D01*
X100496522Y-47363181D01*
X102470351Y-47363181D01*
X103486828Y-47363181D01*
X103486828Y-47218589D01*
X102470351Y-47218589D01*
X102470351Y-47363181D01*
X100496522Y-47363181D01*
X100496522Y-46819984D01*
X100607633Y-46819984D01*
X100607633Y-47065326D01*
X100691712Y-47096360D01*
X100783548Y-47121991D01*
X100881672Y-47138347D01*
X101003855Y-47144339D01*
X101114207Y-47137624D01*
X101206867Y-47118832D01*
X101284627Y-47089486D01*
X101349825Y-47050366D01*
X101396869Y-47009284D01*
X101432158Y-46964924D01*
X101457020Y-46916837D01*
X101472089Y-46864200D01*
X101477259Y-46805879D01*
X101470584Y-46737665D01*
X101451776Y-46681397D01*
X101421572Y-46634604D01*
X101380584Y-46595893D01*
X101324261Y-46560965D01*
X101249075Y-46530312D01*
X101138067Y-46500209D01*
X101030478Y-46477617D01*
X100952570Y-46456757D01*
X100914340Y-46438355D01*
X100897335Y-46421973D01*
X100887190Y-46401752D01*
X100883627Y-46376439D01*
X100888354Y-46350423D01*
X100902739Y-46327163D01*
X100923801Y-46308231D01*
X100948534Y-46294862D01*
X100979160Y-46284149D01*
X101011000Y-46277521D01*
X101076273Y-46272880D01*
X101137594Y-46276597D01*
X101198130Y-46287755D01*
X101258295Y-46306525D01*
X101342286Y-46345224D01*
X101408932Y-46390117D01*
X101436959Y-46390117D01*
X101436959Y-46304144D01*
X101555783Y-46304144D01*
X101873421Y-46304144D01*
X101873421Y-47124800D01*
X102135738Y-47124800D01*
X102135738Y-46304144D01*
X102453376Y-46304144D01*
X102453376Y-46108749D01*
X103492263Y-46108749D01*
X103863206Y-47124800D01*
X104156909Y-47124800D01*
X104255352Y-46855155D01*
X104640265Y-46855155D01*
X104640265Y-47079798D01*
X104701574Y-47102141D01*
X104787482Y-47124433D01*
X104882505Y-47138945D01*
X105004370Y-47144339D01*
X105110667Y-47138145D01*
X105192559Y-47121502D01*
X105266066Y-47093093D01*
X105327503Y-47055618D01*
X105363759Y-47023564D01*
X105392570Y-46988177D01*
X105414576Y-46949128D01*
X105435788Y-46885037D01*
X105442969Y-46815405D01*
X105437489Y-46755645D01*
X105423124Y-46713678D01*
X105399996Y-46677944D01*
X105369880Y-46646816D01*
X105335987Y-46622720D01*
X105298805Y-46605173D01*
X105260141Y-46593020D01*
X105225044Y-46586061D01*
X105225044Y-46576841D01*
X105279239Y-46559060D01*
X105324988Y-46531086D01*
X105363651Y-46492394D01*
X105393010Y-46446072D01*
X105410399Y-46396414D01*
X105416286Y-46342184D01*
X105409185Y-46281458D01*
X105388930Y-46230993D01*
X105355360Y-46187935D01*
X105305644Y-46150271D01*
X105254573Y-46126132D01*
X105186087Y-46105818D01*
X105110572Y-46093652D01*
X105017315Y-46089210D01*
X104918893Y-46094436D01*
X104821921Y-46110093D01*
X104730992Y-46132713D01*
X104669635Y-46153507D01*
X104669635Y-46374485D01*
X104694914Y-46374485D01*
X104766832Y-46337550D01*
X104840422Y-46310677D01*
X104914621Y-46293773D01*
X104979763Y-46288512D01*
X105041922Y-46292603D01*
X105076620Y-46298905D01*
X105104815Y-46308845D01*
X105126819Y-46321799D01*
X105144382Y-46338399D01*
X105155968Y-46359282D01*
X105160136Y-46387491D01*
X105155909Y-46425780D01*
X105145115Y-46450262D01*
X105126984Y-46468972D01*
X105100052Y-46484456D01*
X105069529Y-46494184D01*
X105030321Y-46500087D01*
X104936104Y-46503446D01*
X104878036Y-46503446D01*
X104878036Y-46679301D01*
X104934028Y-46679301D01*
X105021467Y-46680339D01*
X105066722Y-46684115D01*
X105102067Y-46692429D01*
X105132581Y-46706564D01*
X105155984Y-46727416D01*
X105170902Y-46755532D01*
X105176500Y-46796965D01*
X105172258Y-46840086D01*
X105161479Y-46867917D01*
X105144046Y-46890488D01*
X105121179Y-46909744D01*
X105086383Y-46927681D01*
X105042594Y-46938503D01*
X104956560Y-46945037D01*
X104887705Y-46938771D01*
X104807266Y-46918353D01*
X104729377Y-46888319D01*
X104666888Y-46855155D01*
X104640265Y-46855155D01*
X104255352Y-46855155D01*
X104527852Y-46108749D01*
X104259368Y-46108749D01*
X104013477Y-46822488D01*
X103767524Y-46108749D01*
X103492263Y-46108749D01*
X102453376Y-46108749D01*
X101555783Y-46108749D01*
X101555783Y-46304144D01*
X101436959Y-46304144D01*
X101436959Y-46157109D01*
X101361492Y-46131202D01*
X101267149Y-46108566D01*
X101168609Y-46094055D01*
X101068763Y-46089210D01*
X100968345Y-46095453D01*
X100881567Y-46113157D01*
X100806408Y-46141218D01*
X100741172Y-46179152D01*
X100693768Y-46218737D01*
X100658471Y-46261169D01*
X100633775Y-46306839D01*
X100618889Y-46356520D01*
X100613800Y-46411305D01*
X100620443Y-46480018D01*
X100639394Y-46538477D01*
X100670159Y-46588748D01*
X100712263Y-46630371D01*
X100772333Y-46668279D01*
X100854928Y-46701893D01*
X100912201Y-46718574D01*
X100974852Y-46732362D01*
X101096057Y-46757947D01*
X101146342Y-46774789D01*
X101179039Y-46795255D01*
X101200533Y-46822226D01*
X101207432Y-46853018D01*
X101202138Y-46887382D01*
X101187954Y-46910049D01*
X101166382Y-46927324D01*
X101138433Y-46942106D01*
X101111867Y-46950313D01*
X101074869Y-46956394D01*
X101012038Y-46960668D01*
X100950679Y-46956805D01*
X100886305Y-46944894D01*
X100818353Y-46924276D01*
X100753162Y-46896393D01*
X100692627Y-46861690D01*
X100636331Y-46819984D01*
X100607633Y-46819984D01*
X100496522Y-46819984D01*
X100496522Y-45978099D01*
X105554080Y-45978099D01*
X105554080Y-47474292D01*
G37*
G36*
X83414538Y-81216540D02*
G01*
X83484536Y-81232339D01*
X83546456Y-81258202D01*
X83589560Y-81288026D01*
X83625099Y-81327438D01*
X83647995Y-81368932D01*
X83661223Y-81414189D01*
X83665703Y-81462904D01*
X83661102Y-81511188D01*
X83647324Y-81557487D01*
X83623719Y-81599824D01*
X83588217Y-81637782D01*
X83544390Y-81667764D01*
X83484902Y-81693103D01*
X83417298Y-81708566D01*
X83329991Y-81714291D01*
X83248016Y-81709363D01*
X83182102Y-81695851D01*
X83122842Y-81672146D01*
X83073048Y-81639125D01*
X83037368Y-81601746D01*
X83012903Y-81559197D01*
X82998407Y-81512361D01*
X82993546Y-81462904D01*
X82998317Y-81413422D01*
X83012536Y-81366550D01*
X83036632Y-81324016D01*
X83071704Y-81286683D01*
X83116102Y-81256669D01*
X83175324Y-81231667D01*
X83242563Y-81216470D01*
X83329258Y-81210846D01*
X83414538Y-81216540D01*
G37*
G36*
X83646163Y-77471182D02*
G01*
X83644060Y-77550517D01*
X83639019Y-77597883D01*
X83628828Y-77639212D01*
X83612214Y-77680193D01*
X83581313Y-77729210D01*
X83544416Y-77767352D01*
X83501083Y-77795964D01*
X83452481Y-77815700D01*
X83396040Y-77828144D01*
X83330296Y-77832540D01*
X83263900Y-77828442D01*
X83208214Y-77816979D01*
X83161524Y-77799078D01*
X83119476Y-77772836D01*
X83083280Y-77738112D01*
X83052470Y-77693871D01*
X83033429Y-77651398D01*
X83021573Y-77608508D01*
X83015617Y-77558542D01*
X83013086Y-77471182D01*
X83013086Y-77404931D01*
X83646163Y-77404931D01*
X83646163Y-77471182D01*
G37*
G36*
X83968300Y-84230828D02*
G01*
X82690949Y-84230828D01*
X82690949Y-83539762D01*
X82821600Y-83539762D01*
X82821600Y-83802079D01*
X83642255Y-83802079D01*
X83642255Y-84119717D01*
X83837650Y-84119717D01*
X83837650Y-83222124D01*
X83642255Y-83222124D01*
X83642255Y-83539762D01*
X82821600Y-83539762D01*
X82690949Y-83539762D01*
X82690949Y-82625561D01*
X82802060Y-82625561D01*
X82806828Y-82717867D01*
X82820176Y-82795914D01*
X82840946Y-82861755D01*
X82868389Y-82917178D01*
X82902200Y-82963654D01*
X82944407Y-83003909D01*
X82993186Y-83035475D01*
X83049498Y-83058692D01*
X83114686Y-83073299D01*
X83190406Y-83078448D01*
X83837650Y-83078448D01*
X83837650Y-82814788D01*
X83203229Y-82814788D01*
X83131114Y-82808766D01*
X83079552Y-82792919D01*
X83043372Y-82769359D01*
X83017048Y-82735708D01*
X82999931Y-82689200D01*
X82993546Y-82625561D01*
X83000210Y-82561171D01*
X83018028Y-82514636D01*
X83045448Y-82481397D01*
X83082702Y-82458191D01*
X83133856Y-82442784D01*
X83203229Y-82437006D01*
X83837650Y-82437006D01*
X83837650Y-82173346D01*
X83189735Y-82173346D01*
X83114299Y-82178474D01*
X83049306Y-82193027D01*
X82993115Y-82216167D01*
X82944397Y-82247635D01*
X82902200Y-82287773D01*
X82868399Y-82334131D01*
X82840959Y-82389455D01*
X82820185Y-82455225D01*
X82806832Y-82533240D01*
X82802060Y-82625561D01*
X82690949Y-82625561D01*
X82690949Y-81462233D01*
X82802060Y-81462233D01*
X82802103Y-81462904D01*
X82808422Y-81561384D01*
X82826542Y-81647756D01*
X82855414Y-81723245D01*
X82894666Y-81789422D01*
X82944576Y-81847465D01*
X83003761Y-81896402D01*
X83070568Y-81934842D01*
X83146084Y-81963048D01*
X83231741Y-81980692D01*
X83329258Y-81986866D01*
X83427706Y-81980638D01*
X83513911Y-81962867D01*
X83589655Y-81934499D01*
X83656425Y-81895891D01*
X83715345Y-81846793D01*
X83765066Y-81788501D01*
X83804146Y-81722232D01*
X83832867Y-81646838D01*
X83850873Y-81560786D01*
X83857189Y-81462233D01*
X83850859Y-81363352D01*
X83832829Y-81277160D01*
X83804092Y-81201779D01*
X83765021Y-81135653D01*
X83715345Y-81077611D01*
X83656464Y-81028797D01*
X83589716Y-80990393D01*
X83513972Y-80962162D01*
X83427746Y-80944471D01*
X83329258Y-80938271D01*
X83231738Y-80944443D01*
X83146079Y-80962080D01*
X83070563Y-80990275D01*
X83003757Y-81028698D01*
X82944576Y-81077611D01*
X82894638Y-81135689D01*
X82855381Y-81201836D01*
X82826519Y-81277216D01*
X82808415Y-81363389D01*
X82802060Y-81462233D01*
X82690949Y-81462233D01*
X82690949Y-79575395D01*
X82821600Y-79575395D01*
X83518974Y-79575395D01*
X82821600Y-80007095D01*
X82821600Y-80259886D01*
X83837650Y-80259886D01*
X83837650Y-80019429D01*
X83255558Y-80019429D01*
X83837650Y-79648485D01*
X83837650Y-79334938D01*
X82821600Y-79334938D01*
X82821600Y-79575395D01*
X82690949Y-79575395D01*
X82690949Y-78561727D01*
X82821600Y-78561727D01*
X82821600Y-78824043D01*
X83214647Y-78824043D01*
X83837650Y-79199078D01*
X83837650Y-78910811D01*
X83444602Y-78698380D01*
X83837650Y-78478440D01*
X83837650Y-78180586D01*
X83202374Y-78561727D01*
X82821600Y-78561727D01*
X82690949Y-78561727D01*
X82690949Y-77471182D01*
X82821600Y-77471182D01*
X82821600Y-77501224D01*
X82826379Y-77618691D01*
X82839307Y-77711578D01*
X82864053Y-77797218D01*
X82902139Y-77874855D01*
X82947113Y-77936134D01*
X83004051Y-77990672D01*
X83074391Y-78038803D01*
X83151538Y-78074506D01*
X83235749Y-78096246D01*
X83328587Y-78103710D01*
X83425308Y-78096576D01*
X83510060Y-78076146D01*
X83584797Y-78043260D01*
X83652669Y-77997780D01*
X83710057Y-77942809D01*
X83757843Y-77877602D01*
X83790730Y-77811342D01*
X83816828Y-77725928D01*
X83832029Y-77631437D01*
X83837650Y-77511482D01*
X83837650Y-77142615D01*
X82821600Y-77142615D01*
X82821600Y-77471182D01*
X82690949Y-77471182D01*
X82690949Y-77031504D01*
X83968300Y-77031504D01*
X83968300Y-84230828D01*
G37*
G36*
X101166917Y-97801450D02*
G01*
X97042122Y-97801450D01*
X97042122Y-97365984D01*
X97153233Y-97365984D01*
X97153233Y-97611326D01*
X97237312Y-97642360D01*
X97329148Y-97667991D01*
X97427272Y-97684347D01*
X97549455Y-97690339D01*
X97659807Y-97683624D01*
X97752467Y-97664832D01*
X97830227Y-97635486D01*
X97895425Y-97596366D01*
X97942469Y-97555284D01*
X97977758Y-97510924D01*
X98002620Y-97462837D01*
X98017689Y-97410200D01*
X98022859Y-97351879D01*
X98016184Y-97283665D01*
X97997376Y-97227397D01*
X97967172Y-97180604D01*
X97926184Y-97141893D01*
X97869861Y-97106965D01*
X97794675Y-97076312D01*
X97683667Y-97046209D01*
X97576078Y-97023617D01*
X97498170Y-97002757D01*
X97459940Y-96984355D01*
X97442935Y-96967973D01*
X97432790Y-96947752D01*
X97429227Y-96922439D01*
X97433954Y-96896423D01*
X97448339Y-96873163D01*
X97469401Y-96854231D01*
X97494134Y-96840862D01*
X97524760Y-96830149D01*
X97556600Y-96823521D01*
X97621873Y-96818880D01*
X97683194Y-96822597D01*
X97743730Y-96833755D01*
X97803895Y-96852525D01*
X97887886Y-96891224D01*
X97954532Y-96936117D01*
X97982559Y-96936117D01*
X97982559Y-96703109D01*
X97907092Y-96677202D01*
X97813512Y-96654749D01*
X98118419Y-96654749D01*
X98392338Y-97670800D01*
X98682681Y-97670800D01*
X98860307Y-97008901D01*
X99042695Y-97670800D01*
X99333039Y-97670800D01*
X99378538Y-97502028D01*
X100257254Y-97502028D01*
X100257254Y-97670800D01*
X101055806Y-97670800D01*
X101055806Y-97475405D01*
X100598766Y-97475405D01*
X100688220Y-97408300D01*
X100750411Y-97358392D01*
X100813273Y-97303031D01*
X100876670Y-97238959D01*
X100925027Y-97179633D01*
X100960490Y-97124489D01*
X100987413Y-97065271D01*
X101003344Y-97004666D01*
X101008667Y-96941857D01*
X101001892Y-96870249D01*
X100982672Y-96810009D01*
X100951676Y-96758871D01*
X100908222Y-96715321D01*
X100856678Y-96682425D01*
X100792705Y-96657397D01*
X100713700Y-96641114D01*
X100616535Y-96635210D01*
X100521903Y-96640480D01*
X100426942Y-96656398D01*
X100338481Y-96679140D01*
X100283876Y-96698652D01*
X100283876Y-96924393D01*
X100305736Y-96924393D01*
X100367349Y-96888764D01*
X100434452Y-96859852D01*
X100503519Y-96840594D01*
X100566648Y-96834512D01*
X100621496Y-96839287D01*
X100663465Y-96852250D01*
X100695425Y-96872186D01*
X100719840Y-96900095D01*
X100734835Y-96935033D01*
X100740183Y-96979165D01*
X100736510Y-97016768D01*
X100725174Y-97055488D01*
X100705317Y-97095974D01*
X100662457Y-97155465D01*
X100587836Y-97234460D01*
X100527220Y-97289870D01*
X100440619Y-97362138D01*
X100257254Y-97502028D01*
X99378538Y-97502028D01*
X99606957Y-96654749D01*
X99339878Y-96654749D01*
X99175930Y-97354200D01*
X98997632Y-96654749D01*
X98735987Y-96654749D01*
X98548775Y-97354200D01*
X98392338Y-96654749D01*
X98118419Y-96654749D01*
X97813512Y-96654749D01*
X97812749Y-96654566D01*
X97714209Y-96640055D01*
X97614363Y-96635210D01*
X97513945Y-96641453D01*
X97427167Y-96659157D01*
X97352008Y-96687218D01*
X97286772Y-96725152D01*
X97239368Y-96764737D01*
X97204071Y-96807169D01*
X97179375Y-96852839D01*
X97164489Y-96902520D01*
X97159400Y-96957305D01*
X97166043Y-97026018D01*
X97184994Y-97084477D01*
X97215759Y-97134748D01*
X97257863Y-97176371D01*
X97317933Y-97214279D01*
X97400528Y-97247893D01*
X97457801Y-97264574D01*
X97520452Y-97278362D01*
X97641657Y-97303947D01*
X97691942Y-97320789D01*
X97724639Y-97341255D01*
X97746133Y-97368226D01*
X97753032Y-97399018D01*
X97747738Y-97433382D01*
X97733554Y-97456049D01*
X97711982Y-97473324D01*
X97684033Y-97488106D01*
X97657467Y-97496313D01*
X97620469Y-97502394D01*
X97557638Y-97506668D01*
X97496279Y-97502805D01*
X97431905Y-97490894D01*
X97363953Y-97470276D01*
X97298762Y-97442393D01*
X97238227Y-97407690D01*
X97181931Y-97365984D01*
X97153233Y-97365984D01*
X97042122Y-97365984D01*
X97042122Y-96524099D01*
X101166917Y-96524099D01*
X101166917Y-97801450D01*
G37*
G36*
X126894490Y-77421313D02*
G01*
X126921187Y-77429381D01*
X126943235Y-77445421D01*
X126962464Y-77475848D01*
X126971443Y-77503695D01*
X126976385Y-77544846D01*
X126978139Y-77634300D01*
X126978461Y-77650726D01*
X126978461Y-77691697D01*
X126759620Y-77691697D01*
X126759620Y-77667090D01*
X126760658Y-77547228D01*
X126764481Y-77506514D01*
X126772809Y-77475848D01*
X126789083Y-77448067D01*
X126811033Y-77431090D01*
X126837083Y-77421527D01*
X126862446Y-77418451D01*
X126894490Y-77421313D01*
G37*
G36*
X127314300Y-77358190D02*
G01*
X127344337Y-77369602D01*
X127368951Y-77390189D01*
X127389827Y-77425961D01*
X127402768Y-77467667D01*
X127407657Y-77514072D01*
X127408329Y-77672585D01*
X127408329Y-77691697D01*
X127154316Y-77691697D01*
X127154316Y-77634300D01*
X127154988Y-77521582D01*
X127158059Y-77470543D01*
X127164575Y-77436891D01*
X127181895Y-77396816D01*
X127203959Y-77373022D01*
X127233908Y-77359432D01*
X127278941Y-77354215D01*
X127314300Y-77358190D01*
G37*
G36*
X127722650Y-80208845D02*
G01*
X126445299Y-80208845D01*
X126445299Y-79456291D01*
X126575949Y-79456291D01*
X127210370Y-79456291D01*
X127282485Y-79462313D01*
X127334047Y-79478160D01*
X127370227Y-79501720D01*
X127396551Y-79535372D01*
X127413668Y-79581879D01*
X127420053Y-79645518D01*
X127413389Y-79709908D01*
X127395571Y-79756443D01*
X127368151Y-79789682D01*
X127330897Y-79812889D01*
X127279743Y-79828295D01*
X127210370Y-79834074D01*
X126575949Y-79834074D01*
X126575949Y-80097734D01*
X127223864Y-80097734D01*
X127299300Y-80092605D01*
X127364293Y-80078052D01*
X127420484Y-80054913D01*
X127469202Y-80023444D01*
X127511399Y-79983306D01*
X127545200Y-79936948D01*
X127572640Y-79881624D01*
X127593414Y-79815854D01*
X127606767Y-79737840D01*
X127611539Y-79645518D01*
X127606771Y-79553212D01*
X127593423Y-79475165D01*
X127572653Y-79409324D01*
X127545210Y-79353902D01*
X127511399Y-79307425D01*
X127469192Y-79267171D01*
X127420413Y-79235604D01*
X127364101Y-79212387D01*
X127298913Y-79197780D01*
X127223193Y-79192631D01*
X126575949Y-79192631D01*
X126575949Y-79456291D01*
X126445299Y-79456291D01*
X126445299Y-78541418D01*
X126556410Y-78541418D01*
X126562653Y-78641837D01*
X126580357Y-78728614D01*
X126608418Y-78803774D01*
X126646352Y-78869009D01*
X126685937Y-78916413D01*
X126728369Y-78951710D01*
X126774039Y-78976407D01*
X126823720Y-78991292D01*
X126878505Y-78996382D01*
X126947218Y-78989738D01*
X127005677Y-78970787D01*
X127055948Y-78940023D01*
X127097571Y-78897918D01*
X127135479Y-78837849D01*
X127169093Y-78755253D01*
X127185774Y-78697980D01*
X127199562Y-78635330D01*
X127225147Y-78514124D01*
X127241989Y-78463839D01*
X127262455Y-78431143D01*
X127289426Y-78409648D01*
X127320218Y-78402749D01*
X127354582Y-78408043D01*
X127377249Y-78422228D01*
X127394524Y-78443799D01*
X127409306Y-78471748D01*
X127417513Y-78498315D01*
X127423594Y-78535312D01*
X127427868Y-78598144D01*
X127424005Y-78659503D01*
X127412094Y-78723876D01*
X127391476Y-78791828D01*
X127363593Y-78857020D01*
X127328890Y-78917554D01*
X127287184Y-78973850D01*
X127287184Y-79002549D01*
X127532526Y-79002549D01*
X127563560Y-78918469D01*
X127589191Y-78826633D01*
X127605547Y-78728509D01*
X127611539Y-78606326D01*
X127604824Y-78495974D01*
X127586032Y-78403314D01*
X127556686Y-78325554D01*
X127517566Y-78260356D01*
X127476484Y-78213312D01*
X127432124Y-78178023D01*
X127384037Y-78153161D01*
X127331400Y-78138092D01*
X127273079Y-78132922D01*
X127204865Y-78139597D01*
X127148597Y-78158405D01*
X127101804Y-78188609D01*
X127063093Y-78229597D01*
X127028165Y-78285921D01*
X126997512Y-78361106D01*
X126967409Y-78472114D01*
X126944817Y-78579703D01*
X126923957Y-78657611D01*
X126905555Y-78695841D01*
X126889173Y-78712847D01*
X126868952Y-78722991D01*
X126843639Y-78726554D01*
X126817623Y-78721828D01*
X126794363Y-78707442D01*
X126775431Y-78686380D01*
X126762062Y-78661647D01*
X126751349Y-78631022D01*
X126744721Y-78599182D01*
X126740080Y-78533908D01*
X126743797Y-78472587D01*
X126754955Y-78412051D01*
X126773725Y-78351886D01*
X126812424Y-78267896D01*
X126857317Y-78201249D01*
X126857317Y-78173222D01*
X126624309Y-78173222D01*
X126598402Y-78248689D01*
X126575766Y-78343032D01*
X126561255Y-78441572D01*
X126556410Y-78541418D01*
X126445299Y-78541418D01*
X126445299Y-77557791D01*
X126575949Y-77557791D01*
X126575949Y-77667090D01*
X126575949Y-77952610D01*
X127592000Y-77952610D01*
X127592000Y-77508576D01*
X127586725Y-77402830D01*
X127572949Y-77325883D01*
X127547448Y-77256825D01*
X127508957Y-77193686D01*
X127465975Y-77147338D01*
X127413031Y-77112048D01*
X127373463Y-77095765D01*
X127329932Y-77085763D01*
X127281689Y-77082312D01*
X127216381Y-77089273D01*
X127162784Y-77108929D01*
X127118352Y-77140747D01*
X127082575Y-77182995D01*
X127055258Y-77235058D01*
X127036652Y-77298894D01*
X127031157Y-77298894D01*
X127006752Y-77254132D01*
X126977490Y-77217829D01*
X126943229Y-77188924D01*
X126904014Y-77167439D01*
X126860876Y-77154433D01*
X126812804Y-77149967D01*
X126751882Y-77157258D01*
X126699536Y-77178360D01*
X126669215Y-77200077D01*
X126642926Y-77228535D01*
X126620463Y-77264700D01*
X126597165Y-77321581D01*
X126584192Y-77377784D01*
X126578409Y-77443109D01*
X126575949Y-77557791D01*
X126445299Y-77557791D01*
X126445299Y-76971201D01*
X127722650Y-76971201D01*
X127722650Y-80208845D01*
G37*
G36*
X111351094Y-97801450D02*
G01*
X107252922Y-97801450D01*
X107252922Y-97365984D01*
X107364033Y-97365984D01*
X107364033Y-97611326D01*
X107448112Y-97642360D01*
X107539948Y-97667991D01*
X107638072Y-97684347D01*
X107760255Y-97690339D01*
X107870607Y-97683624D01*
X107963267Y-97664832D01*
X108041027Y-97635486D01*
X108106225Y-97596366D01*
X108153269Y-97555284D01*
X108188558Y-97510924D01*
X108213420Y-97462837D01*
X108228489Y-97410200D01*
X108233659Y-97351879D01*
X108226984Y-97283665D01*
X108208176Y-97227397D01*
X108177972Y-97180604D01*
X108136984Y-97141893D01*
X108080661Y-97106965D01*
X108005475Y-97076312D01*
X107894467Y-97046209D01*
X107786878Y-97023617D01*
X107708970Y-97002757D01*
X107670740Y-96984355D01*
X107653735Y-96967973D01*
X107643590Y-96947752D01*
X107640027Y-96922439D01*
X107644754Y-96896423D01*
X107659139Y-96873163D01*
X107680201Y-96854231D01*
X107704934Y-96840862D01*
X107735560Y-96830149D01*
X107767400Y-96823521D01*
X107832673Y-96818880D01*
X107893994Y-96822597D01*
X107954530Y-96833755D01*
X108014695Y-96852525D01*
X108098686Y-96891224D01*
X108165332Y-96936117D01*
X108193359Y-96936117D01*
X108193359Y-96703109D01*
X108117892Y-96677202D01*
X108024312Y-96654749D01*
X108329219Y-96654749D01*
X108603138Y-97670800D01*
X108893481Y-97670800D01*
X109071107Y-97008901D01*
X109253495Y-97670800D01*
X109543839Y-97670800D01*
X109616533Y-97401155D01*
X110437279Y-97401155D01*
X110437279Y-97625798D01*
X110498588Y-97648141D01*
X110584497Y-97670433D01*
X110679520Y-97684945D01*
X110801384Y-97690339D01*
X110907681Y-97684145D01*
X110989573Y-97667502D01*
X111063081Y-97639093D01*
X111124518Y-97601618D01*
X111160773Y-97569564D01*
X111189585Y-97534177D01*
X111211590Y-97495128D01*
X111232802Y-97431037D01*
X111239983Y-97361405D01*
X111234503Y-97301645D01*
X111220139Y-97259678D01*
X111197010Y-97223944D01*
X111166894Y-97192816D01*
X111133001Y-97168720D01*
X111095819Y-97151173D01*
X111057155Y-97139020D01*
X111022058Y-97132061D01*
X111022058Y-97122841D01*
X111076253Y-97105060D01*
X111122002Y-97077086D01*
X111160665Y-97038394D01*
X111190024Y-96992072D01*
X111207413Y-96942414D01*
X111213300Y-96888184D01*
X111206199Y-96827458D01*
X111185945Y-96776993D01*
X111152374Y-96733935D01*
X111102658Y-96696271D01*
X111051587Y-96672132D01*
X110983101Y-96651818D01*
X110907587Y-96639652D01*
X110814329Y-96635210D01*
X110715907Y-96640436D01*
X110618935Y-96656093D01*
X110528006Y-96678713D01*
X110466649Y-96699507D01*
X110466649Y-96920485D01*
X110491929Y-96920485D01*
X110563846Y-96883550D01*
X110637436Y-96856677D01*
X110711635Y-96839773D01*
X110776777Y-96834512D01*
X110838937Y-96838603D01*
X110873634Y-96844905D01*
X110901829Y-96854845D01*
X110923834Y-96867799D01*
X110941396Y-96884399D01*
X110952983Y-96905282D01*
X110957150Y-96933491D01*
X110952923Y-96971780D01*
X110942129Y-96996262D01*
X110923998Y-97014972D01*
X110897066Y-97030456D01*
X110866543Y-97040184D01*
X110827335Y-97046087D01*
X110733118Y-97049446D01*
X110675050Y-97049446D01*
X110675050Y-97225301D01*
X110731042Y-97225301D01*
X110818481Y-97226339D01*
X110863736Y-97230115D01*
X110899081Y-97238429D01*
X110929595Y-97252564D01*
X110952998Y-97273416D01*
X110967916Y-97301532D01*
X110973514Y-97342965D01*
X110969272Y-97386086D01*
X110958493Y-97413917D01*
X110941060Y-97436488D01*
X110918193Y-97455744D01*
X110883397Y-97473681D01*
X110839608Y-97484503D01*
X110753574Y-97491037D01*
X110684719Y-97484771D01*
X110604280Y-97464353D01*
X110526391Y-97434319D01*
X110463902Y-97401155D01*
X110437279Y-97401155D01*
X109616533Y-97401155D01*
X109817757Y-96654749D01*
X109550678Y-96654749D01*
X109386730Y-97354200D01*
X109208432Y-96654749D01*
X108946787Y-96654749D01*
X108759575Y-97354200D01*
X108603138Y-96654749D01*
X108329219Y-96654749D01*
X108024312Y-96654749D01*
X108023549Y-96654566D01*
X107925009Y-96640055D01*
X107825163Y-96635210D01*
X107724745Y-96641453D01*
X107637967Y-96659157D01*
X107562808Y-96687218D01*
X107497572Y-96725152D01*
X107450168Y-96764737D01*
X107414871Y-96807169D01*
X107390175Y-96852839D01*
X107375289Y-96902520D01*
X107370200Y-96957305D01*
X107376843Y-97026018D01*
X107395794Y-97084477D01*
X107426559Y-97134748D01*
X107468663Y-97176371D01*
X107528733Y-97214279D01*
X107611328Y-97247893D01*
X107668601Y-97264574D01*
X107731252Y-97278362D01*
X107852457Y-97303947D01*
X107902742Y-97320789D01*
X107935439Y-97341255D01*
X107956933Y-97368226D01*
X107963832Y-97399018D01*
X107958538Y-97433382D01*
X107944354Y-97456049D01*
X107922782Y-97473324D01*
X107894833Y-97488106D01*
X107868267Y-97496313D01*
X107831269Y-97502394D01*
X107768438Y-97506668D01*
X107707079Y-97502805D01*
X107642705Y-97490894D01*
X107574753Y-97470276D01*
X107509562Y-97442393D01*
X107449027Y-97407690D01*
X107392731Y-97365984D01*
X107364033Y-97365984D01*
X107252922Y-97365984D01*
X107252922Y-96524099D01*
X111351094Y-96524099D01*
X111351094Y-97801450D01*
G37*
G36*
X83646163Y-66752382D02*
G01*
X83644060Y-66831717D01*
X83639019Y-66879083D01*
X83628828Y-66920412D01*
X83612214Y-66961393D01*
X83581313Y-67010410D01*
X83544416Y-67048552D01*
X83501083Y-67077164D01*
X83452481Y-67096900D01*
X83396040Y-67109344D01*
X83330296Y-67113740D01*
X83263900Y-67109642D01*
X83208214Y-67098179D01*
X83161524Y-67080278D01*
X83119476Y-67054036D01*
X83083280Y-67019312D01*
X83052470Y-66975071D01*
X83033429Y-66932598D01*
X83021573Y-66889708D01*
X83015617Y-66839742D01*
X83013086Y-66752382D01*
X83013086Y-66686131D01*
X83646163Y-66686131D01*
X83646163Y-66752382D01*
G37*
G36*
X83948761Y-72078994D02*
G01*
X82710489Y-72078994D01*
X82710489Y-71283392D01*
X82821600Y-71283392D01*
X83518974Y-71283392D01*
X82821600Y-71715092D01*
X82821600Y-71967883D01*
X83837650Y-71967883D01*
X83837650Y-71727426D01*
X83255558Y-71727426D01*
X83837650Y-71356482D01*
X83837650Y-71042935D01*
X82821600Y-71042935D01*
X82821600Y-71283392D01*
X82710489Y-71283392D01*
X82710489Y-70828856D01*
X82821600Y-70828856D01*
X83005270Y-70828856D01*
X83005270Y-70662161D01*
X83653979Y-70662161D01*
X83653979Y-70828856D01*
X83837650Y-70828856D01*
X83837650Y-70233148D01*
X83653979Y-70233148D01*
X83653979Y-70399844D01*
X83005270Y-70399844D01*
X83005270Y-70233148D01*
X82821600Y-70233148D01*
X82821600Y-70828856D01*
X82710489Y-70828856D01*
X82710489Y-68856595D01*
X82821600Y-68856595D01*
X83518974Y-68856595D01*
X82821600Y-69288295D01*
X82821600Y-69541086D01*
X83837650Y-69541086D01*
X83837650Y-69300629D01*
X83255558Y-69300629D01*
X83837650Y-68929685D01*
X83837650Y-68616138D01*
X82821600Y-68616138D01*
X82821600Y-68856595D01*
X82710489Y-68856595D01*
X82710489Y-67842927D01*
X82821600Y-67842927D01*
X82821600Y-68105243D01*
X83214647Y-68105243D01*
X83837650Y-68480278D01*
X83837650Y-68192011D01*
X83444602Y-67979580D01*
X83837650Y-67759640D01*
X83837650Y-67461786D01*
X83202374Y-67842927D01*
X82821600Y-67842927D01*
X82710489Y-67842927D01*
X82710489Y-66752382D01*
X82821600Y-66752382D01*
X82821600Y-66782424D01*
X82826379Y-66899891D01*
X82839307Y-66992778D01*
X82864053Y-67078418D01*
X82902139Y-67156055D01*
X82947113Y-67217334D01*
X83004051Y-67271872D01*
X83074391Y-67320003D01*
X83151538Y-67355706D01*
X83235749Y-67377446D01*
X83328587Y-67384910D01*
X83425308Y-67377776D01*
X83510060Y-67357346D01*
X83584797Y-67324460D01*
X83652669Y-67278980D01*
X83710057Y-67224009D01*
X83757843Y-67158802D01*
X83790730Y-67092542D01*
X83816828Y-67007128D01*
X83832029Y-66912637D01*
X83837650Y-66792682D01*
X83837650Y-66423815D01*
X82821600Y-66423815D01*
X82821600Y-66752382D01*
X82710489Y-66752382D01*
X82710489Y-66312704D01*
X83948761Y-66312704D01*
X83948761Y-72078994D01*
G37*
D12*
%TO.C,S1*%
X112452400Y-84554400D02*
X116452400Y-84554400D01*
X112452400Y-84784400D02*
X112452400Y-84554400D01*
X112452400Y-87454400D02*
X112452400Y-87224400D01*
X116452400Y-84554400D02*
X116452400Y-84784400D01*
X116452400Y-87454400D02*
X112452400Y-87454400D01*
X116452400Y-87454400D02*
X116452400Y-87224400D01*
D13*
%TO.C,J_OUT2*%
X84684400Y-75433000D02*
X85534400Y-75433000D01*
X84684400Y-85603000D02*
X84684400Y-75433000D01*
X85534400Y-85603000D02*
X84684400Y-85603000D01*
X89054400Y-75433000D02*
X89904400Y-75433000D01*
X89054400Y-85603000D02*
X89904400Y-85603000D01*
X89904400Y-75433000D02*
X89904400Y-77758000D01*
X89904400Y-83278000D02*
X92294400Y-83278000D01*
X89904400Y-85603000D02*
X89904400Y-83278000D01*
D14*
%TO.C,D2*%
X93910400Y-74688800D02*
X93910400Y-76978800D01*
X93910400Y-76978800D02*
X95370400Y-76978800D01*
X95370400Y-76978800D02*
X95370400Y-74688800D01*
%TO.C,X2*%
X96954400Y-83119600D02*
X96954400Y-78119600D01*
X100454400Y-83119600D02*
X100454400Y-78119600D01*
D13*
%TO.C,J2*%
X91033600Y-49911000D02*
X91668600Y-49911000D01*
X91033600Y-50546000D02*
X91033600Y-49911000D01*
D14*
%TO.C,U1*%
X104035200Y-75333200D02*
X104035200Y-75783200D01*
X104035200Y-82553200D02*
X104035200Y-82103200D01*
X104485200Y-75333200D02*
X104035200Y-75333200D01*
X104485200Y-82553200D02*
X104035200Y-82553200D01*
X110805200Y-75333200D02*
X111255200Y-75333200D01*
X110805200Y-82553200D02*
X111255200Y-82553200D01*
X111255200Y-75333200D02*
X111255200Y-75783200D01*
X111255200Y-82553200D02*
X111255200Y-82103200D01*
D13*
X103445200Y-75783200D02*
X103105200Y-75313200D01*
X103785200Y-75313200D01*
X103445200Y-75783200D01*
G36*
X103445200Y-75783200D02*
G01*
X103105200Y-75313200D01*
X103785200Y-75313200D01*
X103445200Y-75783200D01*
G37*
D14*
%TO.C,Q2*%
X89257400Y-61087200D02*
X89257400Y-60437200D01*
X89257400Y-61087200D02*
X89257400Y-61737200D01*
X92377400Y-61087200D02*
X92377400Y-60437200D01*
X92377400Y-61087200D02*
X92377400Y-61737200D01*
D13*
X92657400Y-60164700D02*
X92327400Y-59924700D01*
X92657400Y-59684700D01*
X92657400Y-60164700D01*
G36*
X92657400Y-60164700D02*
G01*
X92327400Y-59924700D01*
X92657400Y-59684700D01*
X92657400Y-60164700D01*
G37*
D14*
%TO.C,D4*%
X95536000Y-74688800D02*
X95536000Y-76978800D01*
X95536000Y-76978800D02*
X96996000Y-76978800D01*
X96996000Y-76978800D02*
X96996000Y-74688800D01*
D13*
%TO.C,U2*%
X111194800Y-66660400D02*
X111194800Y-70420400D01*
X111194800Y-70420400D02*
X112454800Y-70420400D01*
X118014800Y-66660400D02*
X118014800Y-70420400D01*
X118014800Y-70420400D02*
X116754800Y-70420400D01*
X118244800Y-65620400D02*
X117914800Y-65380400D01*
X118244800Y-65140400D01*
X118244800Y-65620400D01*
G36*
X118244800Y-65620400D02*
G01*
X117914800Y-65380400D01*
X118244800Y-65140400D01*
X118244800Y-65620400D01*
G37*
D14*
%TO.C,Q1*%
X93882400Y-61087200D02*
X93882400Y-60437200D01*
X93882400Y-61087200D02*
X93882400Y-61737200D01*
X97002400Y-61087200D02*
X97002400Y-60437200D01*
X97002400Y-61087200D02*
X97002400Y-61737200D01*
D13*
X97282400Y-60164700D02*
X96952400Y-59924700D01*
X97282400Y-59684700D01*
X97282400Y-60164700D01*
G36*
X97282400Y-60164700D02*
G01*
X96952400Y-59924700D01*
X97282400Y-59684700D01*
X97282400Y-60164700D01*
G37*
D14*
%TO.C,U4*%
X97453200Y-65524000D02*
X97453200Y-65784000D01*
X97453200Y-65524000D02*
X101073200Y-65524000D01*
X97453200Y-72144000D02*
X97453200Y-71884000D01*
X97453200Y-72144000D02*
X101073200Y-72144000D01*
X101073200Y-65524000D02*
X101073200Y-65784000D01*
X101073200Y-72144000D02*
X101073200Y-71884000D01*
D13*
X96863200Y-65834000D02*
X96623200Y-65504000D01*
X97103200Y-65504000D01*
X96863200Y-65834000D01*
G36*
X96863200Y-65834000D02*
G01*
X96623200Y-65504000D01*
X97103200Y-65504000D01*
X96863200Y-65834000D01*
G37*
%TO.C,J_IN2*%
X84633600Y-63952200D02*
X85483600Y-63952200D01*
X84633600Y-74122200D02*
X84633600Y-63952200D01*
X85483600Y-74122200D02*
X84633600Y-74122200D01*
X89003600Y-63952200D02*
X89853600Y-63952200D01*
X89003600Y-74122200D02*
X89853600Y-74122200D01*
X89853600Y-63952200D02*
X89853600Y-66277200D01*
X89853600Y-71797200D02*
X92243600Y-71797200D01*
X89853600Y-74122200D02*
X89853600Y-71797200D01*
%TO.C,J4*%
X96716800Y-52586000D02*
X96716800Y-53586000D01*
X96716800Y-53586000D02*
X97716800Y-53086000D01*
X97716800Y-53086000D02*
X96716800Y-52586000D01*
X98106800Y-47876000D02*
X107226800Y-47876000D01*
X98106800Y-53576000D02*
X99416800Y-53576000D01*
X98106800Y-63376000D02*
X98106800Y-47876000D01*
X99416800Y-49176000D02*
X105916800Y-49176000D01*
X99416800Y-53576000D02*
X99416800Y-49176000D01*
X99416800Y-57676000D02*
X98106800Y-57676000D01*
X99416800Y-62076000D02*
X99416800Y-57676000D01*
X105916800Y-49176000D02*
X105916800Y-62076000D01*
X105916800Y-62076000D02*
X99416800Y-62076000D01*
X107226800Y-47876000D02*
X107226800Y-63376000D01*
X107226800Y-63376000D02*
X98106800Y-63376000D01*
D14*
%TO.C,X3*%
X98310800Y-76007200D02*
X98310800Y-74807200D01*
X99910800Y-74807200D02*
X99910800Y-76007200D01*
%TO.C,Q3*%
X84632400Y-61087200D02*
X84632400Y-60437200D01*
X84632400Y-61087200D02*
X84632400Y-61737200D01*
X87752400Y-61087200D02*
X87752400Y-60437200D01*
X87752400Y-61087200D02*
X87752400Y-61737200D01*
D13*
X88032400Y-60164700D02*
X87702400Y-59924700D01*
X88032400Y-59684700D01*
X88032400Y-60164700D01*
G36*
X88032400Y-60164700D02*
G01*
X87702400Y-59924700D01*
X88032400Y-59684700D01*
X88032400Y-60164700D01*
G37*
%TO.C,J_BTN5*%
X84738400Y-88231600D02*
X85758400Y-88231600D01*
X84738400Y-92481600D02*
X84738400Y-88231600D01*
X85758400Y-88231600D02*
X85758400Y-89831600D01*
X85758400Y-89831600D02*
X87038400Y-89831600D01*
X86458400Y-96051600D02*
X91138400Y-96051600D01*
X87038400Y-89831600D02*
X87038400Y-86941600D01*
X91838400Y-88231600D02*
X91838400Y-89831600D01*
X91838400Y-89831600D02*
X90558400Y-89831600D01*
X92858400Y-88231600D02*
X91838400Y-88231600D01*
X92858400Y-92481600D02*
X92858400Y-88231600D01*
%TO.C,J3*%
X108114400Y-47876000D02*
X117234400Y-47876000D01*
X108114400Y-63376000D02*
X108114400Y-47876000D01*
X109424400Y-49176000D02*
X115924400Y-49176000D01*
X109424400Y-62076000D02*
X109424400Y-49176000D01*
X115924400Y-49176000D02*
X115924400Y-53576000D01*
X115924400Y-53576000D02*
X117234400Y-53576000D01*
X115924400Y-57676000D02*
X115924400Y-62076000D01*
X115924400Y-62076000D02*
X109424400Y-62076000D01*
X117234400Y-47876000D02*
X117234400Y-63376000D01*
X117234400Y-57676000D02*
X115924400Y-57676000D01*
X117234400Y-63376000D02*
X108114400Y-63376000D01*
X117624400Y-58166000D02*
X118624400Y-58666000D01*
X118624400Y-57666000D02*
X117624400Y-58166000D01*
X118624400Y-58666000D02*
X118624400Y-57666000D01*
D14*
%TO.C,D1*%
X107265200Y-64409600D02*
X107265200Y-69919600D01*
X110565200Y-64409600D02*
X107265200Y-64409600D01*
X110565200Y-64409600D02*
X110565200Y-69919600D01*
D13*
%TO.C,J_BTN7*%
X105238400Y-88231600D02*
X106258400Y-88231600D01*
X105238400Y-92481600D02*
X105238400Y-88231600D01*
X106258400Y-88231600D02*
X106258400Y-89831600D01*
X106258400Y-89831600D02*
X107538400Y-89831600D01*
X106958400Y-96051600D02*
X111638400Y-96051600D01*
X107538400Y-89831600D02*
X107538400Y-86941600D01*
X112338400Y-88231600D02*
X112338400Y-89831600D01*
X112338400Y-89831600D02*
X111058400Y-89831600D01*
X113358400Y-88231600D02*
X112338400Y-88231600D01*
X113358400Y-92481600D02*
X113358400Y-88231600D01*
D14*
%TO.C,D3*%
X125430000Y-69622400D02*
X119920000Y-69622400D01*
X125430000Y-72922400D02*
X119920000Y-72922400D01*
X125430000Y-72922400D02*
X125430000Y-69622400D01*
D13*
%TO.C,J_BTN8*%
X115488400Y-88231600D02*
X116508400Y-88231600D01*
X115488400Y-92481600D02*
X115488400Y-88231600D01*
X116508400Y-88231600D02*
X116508400Y-89831600D01*
X116508400Y-89831600D02*
X117788400Y-89831600D01*
X117208400Y-96051600D02*
X121888400Y-96051600D01*
X117788400Y-89831600D02*
X117788400Y-86941600D01*
X122588400Y-88231600D02*
X122588400Y-89831600D01*
X122588400Y-89831600D02*
X121308400Y-89831600D01*
X123608400Y-88231600D02*
X122588400Y-88231600D01*
X123608400Y-92481600D02*
X123608400Y-88231600D01*
D14*
%TO.C,U3*%
X119047200Y-62946000D02*
X125707200Y-62946000D01*
X119047200Y-65886000D02*
X119047200Y-62946000D01*
X125707200Y-62946000D02*
X125707200Y-65886000D01*
X125707200Y-65886000D02*
X119047200Y-65886000D01*
X119407200Y-66266000D02*
G75*
G02*
X119347200Y-66266000I-30000J0D01*
G01*
X119347200Y-66266000D02*
G75*
G02*
X119407200Y-66266000I30000J0D01*
G01*
D13*
%TO.C,J_BTN6*%
X94988400Y-88231600D02*
X96008400Y-88231600D01*
X94988400Y-92481600D02*
X94988400Y-88231600D01*
X96008400Y-88231600D02*
X96008400Y-89831600D01*
X96008400Y-89831600D02*
X97288400Y-89831600D01*
X96708400Y-96051600D02*
X101388400Y-96051600D01*
X97288400Y-89831600D02*
X97288400Y-86941600D01*
X102088400Y-88231600D02*
X102088400Y-89831600D01*
X102088400Y-89831600D02*
X100808400Y-89831600D01*
X103108400Y-88231600D02*
X102088400Y-88231600D01*
X103108400Y-92481600D02*
X103108400Y-88231600D01*
%TD*%
M02*
