%TF.GenerationSoftware,KiCad,Pcbnew,9.0.6*%
%TF.CreationDate,2025-11-15T14:07:05+05:00*%
%TF.ProjectId,DynaButton,44796e61-4275-4747-946f-6e2e6b696361,rev?*%
%TF.SameCoordinates,Original*%
%TF.FileFunction,Copper,L4,Bot*%
%TF.FilePolarity,Positive*%
%FSLAX46Y46*%
G04 Gerber Fmt 4.6, Leading zero omitted, Abs format (unit mm)*
G04 Created by KiCad (PCBNEW 9.0.6) date 2025-11-15 14:07:05*
%MOMM*%
%LPD*%
G01*
G04 APERTURE LIST*
G04 Aperture macros list*
%AMRoundRect*
0 Rectangle with rounded corners*
0 $1 Rounding radius*
0 $2 $3 $4 $5 $6 $7 $8 $9 X,Y pos of 4 corners*
0 Add a 4 corners polygon primitive as box body*
4,1,4,$2,$3,$4,$5,$6,$7,$8,$9,$2,$3,0*
0 Add four circle primitives for the rounded corners*
1,1,$1+$1,$2,$3*
1,1,$1+$1,$4,$5*
1,1,$1+$1,$6,$7*
1,1,$1+$1,$8,$9*
0 Add four rect primitives between the rounded corners*
20,1,$1+$1,$2,$3,$4,$5,0*
20,1,$1+$1,$4,$5,$6,$7,0*
20,1,$1+$1,$6,$7,$8,$9,0*
20,1,$1+$1,$8,$9,$2,$3,0*%
G04 Aperture macros list end*
%TA.AperFunction,ComponentPad*%
%ADD10RoundRect,0.250000X-0.600000X-0.600000X0.600000X-0.600000X0.600000X0.600000X-0.600000X0.600000X0*%
%TD*%
%TA.AperFunction,ComponentPad*%
%ADD11C,1.700000*%
%TD*%
%TA.AperFunction,ComponentPad*%
%ADD12RoundRect,0.250000X0.600000X0.600000X-0.600000X0.600000X-0.600000X-0.600000X0.600000X-0.600000X0*%
%TD*%
%TA.AperFunction,ComponentPad*%
%ADD13C,0.500000*%
%TD*%
%TA.AperFunction,SMDPad,CuDef*%
%ADD14RoundRect,0.250000X-1.550000X0.920000X-1.550000X-0.920000X1.550000X-0.920000X1.550000X0.920000X0*%
%TD*%
%TA.AperFunction,ComponentPad*%
%ADD15O,2.300000X1.300000*%
%TD*%
%TA.AperFunction,ComponentPad*%
%ADD16O,2.100000X1.300000*%
%TD*%
%TA.AperFunction,ViaPad*%
%ADD17C,0.600000*%
%TD*%
%TA.AperFunction,Conductor*%
%ADD18C,0.152000*%
%TD*%
%TA.AperFunction,Conductor*%
%ADD19C,0.500000*%
%TD*%
G04 APERTURE END LIST*
D10*
%TO.P,J4,1,Pin_1*%
%TO.N,+3.3V*%
X101396800Y-53086000D03*
D11*
%TO.P,J4,2,Pin_2*%
%TO.N,/SWDIO*%
X103936800Y-53086000D03*
%TO.P,J4,3,Pin_3*%
%TO.N,/RESET*%
X101396800Y-55626000D03*
%TO.P,J4,4,Pin_4*%
%TO.N,/SWCLK*%
X103936800Y-55626000D03*
%TO.P,J4,5,Pin_5*%
%TO.N,GND*%
X101396800Y-58166000D03*
%TO.P,J4,6,Pin_6*%
%TO.N,/SWO*%
X103936800Y-58166000D03*
%TD*%
D12*
%TO.P,J3,1,Pin_1*%
%TO.N,+3.3V*%
X113944400Y-58166000D03*
D11*
%TO.P,J3,2,Pin_2*%
X111404400Y-58166000D03*
%TO.P,J3,3,Pin_3*%
%TO.N,Net-(J3-Pin_3)*%
X113944400Y-55626000D03*
%TO.P,J3,4,Pin_4*%
%TO.N,Net-(J3-Pin_4)*%
X111404400Y-55626000D03*
%TO.P,J3,5,Pin_5*%
%TO.N,GND*%
X113944400Y-53086000D03*
%TO.P,J3,6,Pin_6*%
X111404400Y-53086000D03*
%TD*%
D13*
%TO.P,U3,4,VOUT*%
%TO.N,+3.3V*%
X123377200Y-61516000D03*
X122377200Y-61516000D03*
D14*
X122377200Y-61516000D03*
D13*
X121377200Y-61516000D03*
%TD*%
D15*
%TO.P,J5,S1,SHIELD*%
%TO.N,GND*%
X119150800Y-82644800D03*
D16*
X123350800Y-82644800D03*
D13*
X121970800Y-80314800D03*
X123970800Y-80314800D03*
X121970800Y-76314800D03*
X123970800Y-76314800D03*
D15*
X119150800Y-73984800D03*
D16*
X123350800Y-73984800D03*
%TD*%
D17*
%TO.N,+3.3V*%
X97078800Y-58572400D03*
X97536000Y-59334400D03*
X97536000Y-60096400D03*
X92100400Y-58572400D03*
X92760800Y-60147200D03*
X88290400Y-60147200D03*
X86715600Y-57759600D03*
%TO.N,+5V*%
X96875600Y-64922400D03*
X96875600Y-62788800D03*
%TO.N,+3.3V*%
X101814027Y-81572690D03*
%TO.N,+12V*%
X90322400Y-69037200D03*
X91389200Y-69037200D03*
X92303600Y-69037200D03*
X104749600Y-71323200D03*
X105816400Y-71272400D03*
%TO.N,GND*%
X88544400Y-95453200D03*
X88493600Y-93776800D03*
X98856800Y-95554800D03*
X98856800Y-93726000D03*
X109270800Y-95351600D03*
X109270800Y-93472000D03*
X119430800Y-95453200D03*
X119430800Y-93929200D03*
X126441200Y-96469200D03*
X126441200Y-92862400D03*
X126441200Y-90220800D03*
X127152400Y-81534000D03*
X127101600Y-74218800D03*
X127101600Y-72136000D03*
X118465600Y-67259200D03*
X118465600Y-68224400D03*
X118465600Y-68986400D03*
X117043200Y-68986400D03*
X116179600Y-68986400D03*
X117043200Y-67767200D03*
X116179600Y-67767200D03*
X117297200Y-63855600D03*
X116281200Y-63855600D03*
X117246400Y-62788800D03*
X116128800Y-62788800D03*
X115062000Y-62738000D03*
X117043200Y-61976000D03*
X116027200Y-61976000D03*
X121462800Y-49072800D03*
X119278400Y-49072800D03*
X107137200Y-48818800D03*
X105410000Y-48818800D03*
X103733600Y-48818800D03*
X90220800Y-54610000D03*
X86563200Y-52476400D03*
X84836000Y-56388000D03*
X82854800Y-56388000D03*
X84836000Y-54254400D03*
X82854800Y-54254400D03*
X86207600Y-71577200D03*
X89662000Y-74371200D03*
X90170000Y-73456800D03*
X91490800Y-72339200D03*
X90779600Y-72440800D03*
X90119200Y-72542400D03*
X93014800Y-74980800D03*
X91236800Y-76555600D03*
X92354400Y-76149200D03*
X94132400Y-79298800D03*
X86156800Y-81737200D03*
X85242400Y-80924400D03*
X86715600Y-89763600D03*
X86715600Y-88747600D03*
X91846400Y-85852000D03*
X90982800Y-85852000D03*
X90068400Y-85852000D03*
X91846400Y-84785200D03*
X90982800Y-84785200D03*
X90068400Y-84785200D03*
%TO.N,/RESET*%
X105968800Y-79193200D03*
%TO.N,GND*%
X104952800Y-79857600D03*
%TO.N,/TX_EN_3V3*%
X85293200Y-82702400D03*
X84226400Y-60299600D03*
%TO.N,/BOOT0*%
X106883200Y-72898000D03*
X106781600Y-63398400D03*
%TO.N,/SWDIO*%
X110439200Y-76758800D03*
%TO.N,/SWCLK*%
X111015200Y-72694800D03*
%TO.N,/SWO*%
X108339200Y-72390000D03*
%TO.N,+12V*%
X92913200Y-68376800D03*
X106680000Y-71272400D03*
%TO.N,GND*%
X89408000Y-54457600D03*
%TO.N,+3.3V*%
X89103200Y-47345600D03*
X90220800Y-47345600D03*
%TO.N,/RESET*%
X94234000Y-55575200D03*
%TO.N,GND*%
X86563200Y-51003200D03*
X126339600Y-63347600D03*
%TO.N,+3.3V*%
X121920000Y-65328800D03*
X122682000Y-65430400D03*
%TO.N,/BOOT1*%
X109931200Y-62077600D03*
X108407200Y-81584800D03*
%TO.N,/TXD_3V*%
X105562400Y-59486800D03*
%TO.N,/RXD_3V*%
X106680000Y-60096400D03*
X109677200Y-78384400D03*
%TO.N,/TXD_3V*%
X108661200Y-78384400D03*
%TO.N,GND*%
X94386400Y-77520800D03*
%TO.N,/LED_GREEN*%
X105105200Y-76504800D03*
X97434400Y-76454000D03*
%TO.N,+3.3V*%
X97434400Y-73406000D03*
%TO.N,GND*%
X93319600Y-72288400D03*
X93319600Y-71272400D03*
%TO.N,/TX_EN_5V*%
X100533200Y-67665600D03*
X98298000Y-66548000D03*
%TO.N,/RXD_5V*%
X104851200Y-64770000D03*
X106984800Y-69494400D03*
%TO.N,+5V*%
X105838652Y-66000859D03*
X106984800Y-68376800D03*
%TO.N,GND*%
X105816400Y-67411600D03*
X106969400Y-67364788D03*
X120802400Y-85750400D03*
X121767600Y-85801200D03*
X109829600Y-84378800D03*
%TO.N,+3.3V*%
X111048800Y-83108800D03*
X111252000Y-84582000D03*
%TO.N,GND*%
X114960400Y-82854800D03*
X116527400Y-87469800D03*
X118516400Y-86207600D03*
X108298400Y-86149600D03*
X97993200Y-86258400D03*
X86766400Y-87426800D03*
X94386400Y-82194400D03*
X95300800Y-81584800D03*
X101498400Y-76708000D03*
X101193600Y-72847200D03*
X102311200Y-72847200D03*
X103581200Y-72847200D03*
X104698800Y-72847200D03*
X105359200Y-73304400D03*
%TO.N,+3.3V*%
X103682800Y-75488800D03*
X102565200Y-75488800D03*
X101752400Y-75488800D03*
%TO.N,GND*%
X113829391Y-76568939D03*
%TO.N,+3.3V*%
X113182400Y-76098400D03*
%TO.N,GND*%
X116160800Y-74352400D03*
X116160800Y-73438000D03*
%TD*%
D18*
%TO.N,+3.3V*%
X102565200Y-75488800D02*
X103682800Y-75488800D01*
%TO.N,+5V*%
X96875600Y-62788800D02*
X96824800Y-62839600D01*
X96824800Y-62839600D02*
X96824800Y-64871600D01*
X96824800Y-64871600D02*
X96875600Y-64922400D01*
D19*
%TO.N,+12V*%
X92303600Y-69037200D02*
X90322400Y-69037200D01*
D18*
X92913200Y-68376800D02*
X92913200Y-68427600D01*
D19*
X92913200Y-68427600D02*
X92303600Y-69037200D01*
X104749600Y-71323200D02*
X96774000Y-71323200D01*
X105816400Y-71272400D02*
X105765600Y-71272400D01*
D18*
%TO.N,/TXD_3V*%
X105714800Y-59639200D02*
X105562400Y-59486800D01*
X108915200Y-78130400D02*
X108915200Y-63147602D01*
X108661200Y-78384400D02*
X108915200Y-78130400D01*
X108915200Y-63147602D02*
X105562400Y-59794802D01*
X105562400Y-59794802D02*
X105562400Y-59639200D01*
X105562400Y-59639200D02*
X105714800Y-59639200D01*
%TO.N,/BOOT1*%
X109931200Y-62077600D02*
X109931200Y-75539600D01*
X109931200Y-75539600D02*
X109623800Y-75847000D01*
X109623800Y-75847000D02*
X109623800Y-77514998D01*
X109623800Y-77514998D02*
X110254200Y-78145398D01*
X110254200Y-78145398D02*
X110254200Y-80195000D01*
X110254200Y-80195000D02*
X108915200Y-81534000D01*
X108915200Y-81534000D02*
X108458000Y-81534000D01*
X108458000Y-81534000D02*
X108407200Y-81584800D01*
%TO.N,/RXD_5V*%
X106984800Y-69494400D02*
X106984800Y-69240400D01*
X105054400Y-67564000D02*
X105054400Y-64973200D01*
X106984800Y-69240400D02*
X105765600Y-68021200D01*
X105765600Y-68021200D02*
X105511600Y-68021200D01*
X105511600Y-68021200D02*
X105054400Y-67564000D01*
X105054400Y-64973200D02*
X104851200Y-64770000D01*
%TO.N,/TX_EN_5V*%
X100533200Y-67665600D02*
X100482400Y-67614800D01*
X100482400Y-67614800D02*
X99364800Y-67614800D01*
X99364800Y-67614800D02*
X98298000Y-66548000D01*
%TO.N,/TX_EN_3V3*%
X85293200Y-82702400D02*
X84074000Y-81483200D01*
X84074000Y-81483200D02*
X84074000Y-60452000D01*
X84074000Y-60452000D02*
X84226400Y-60299600D01*
%TO.N,/RESET*%
X107853600Y-68036800D02*
X107853600Y-67259200D01*
X106172000Y-63604802D02*
X106172000Y-61925200D01*
X105968800Y-72996398D02*
X107666000Y-71299198D01*
X102616000Y-56845200D02*
X101396800Y-55626000D01*
X105968800Y-79193200D02*
X105968800Y-72996398D01*
X107666000Y-68224400D02*
X107853600Y-68036800D01*
X107853600Y-67259200D02*
X107851000Y-67256600D01*
X107666000Y-71299198D02*
X107666000Y-68224400D01*
X107851000Y-67256600D02*
X107851000Y-64973200D01*
X106625998Y-64058800D02*
X106172000Y-63604802D01*
X107848400Y-64973200D02*
X106934000Y-64058800D01*
X107851000Y-64973200D02*
X107848400Y-64973200D01*
X106934000Y-64058800D02*
X106625998Y-64058800D01*
X106172000Y-61925200D02*
X104190800Y-59944000D01*
X104190800Y-59944000D02*
X104120981Y-59944000D01*
X102616000Y-58439019D02*
X102616000Y-56845200D01*
X104120981Y-59944000D02*
X102616000Y-58439019D01*
%TO.N,+5V*%
X106984800Y-68376800D02*
X106375200Y-67767200D01*
X106393400Y-67650602D02*
X106393400Y-67172598D01*
X106375200Y-67767200D02*
X106375200Y-67668802D01*
X106375200Y-67668802D02*
X106393400Y-67650602D01*
X106375200Y-66395600D02*
X105968800Y-65989200D01*
X106393400Y-67172598D02*
X106375200Y-67154398D01*
X106375200Y-67154398D02*
X106375200Y-66395600D01*
X105968800Y-65989200D02*
X105957141Y-66000859D01*
X105957141Y-66000859D02*
X105838652Y-66000859D01*
%TO.N,/BOOT0*%
X106781600Y-63398400D02*
X108204000Y-64820800D01*
X108204000Y-64820800D02*
X108204000Y-66635000D01*
X108204000Y-66635000D02*
X108206600Y-66632400D01*
X108206600Y-66632400D02*
X108206600Y-71320600D01*
X108206600Y-71320600D02*
X106883200Y-72644000D01*
X106883200Y-72644000D02*
X106883200Y-72898000D01*
%TO.N,/SWDIO*%
X112115600Y-72034400D02*
X111506000Y-71424800D01*
X105460800Y-54610000D02*
X103936800Y-53086000D01*
X110029819Y-60861000D02*
X108816200Y-60861000D01*
X112115600Y-74676000D02*
X112115600Y-72034400D01*
X106271000Y-58315800D02*
X106271000Y-57460983D01*
X110439200Y-76352400D02*
X112115600Y-74676000D01*
X111506000Y-71424800D02*
X111506000Y-62337181D01*
X111506000Y-62337181D02*
X110029819Y-60861000D01*
X108816200Y-60861000D02*
X106271000Y-58315800D01*
X106271000Y-57460983D02*
X105460800Y-56650783D01*
X110439200Y-76758800D02*
X110439200Y-76352400D01*
X105460800Y-56650783D02*
X105460800Y-54610000D01*
%TO.N,/SWCLK*%
X111015200Y-72694800D02*
X110591600Y-72271200D01*
X110591600Y-72271200D02*
X110591600Y-61921998D01*
X105918000Y-57607200D02*
X103936800Y-55626000D01*
X110591600Y-61921998D02*
X110112202Y-61442600D01*
X110112202Y-61442600D02*
X110109000Y-61442600D01*
X110109000Y-61442600D02*
X109880400Y-61214000D01*
X109880400Y-61214000D02*
X108613602Y-61214000D01*
X108613602Y-61214000D02*
X106919002Y-59519400D01*
X106919002Y-59519400D02*
X106915800Y-59519400D01*
X106915800Y-59519400D02*
X105918000Y-58521600D01*
X105918000Y-58521600D02*
X105918000Y-57607200D01*
%TO.N,/SWO*%
X108339200Y-72390000D02*
X108559600Y-72169600D01*
X108559600Y-72169600D02*
X108559600Y-63550800D01*
X108559600Y-63550800D02*
X103936800Y-58928000D01*
X103936800Y-58928000D02*
X103936800Y-58166000D01*
D19*
%TO.N,+12V*%
X105714800Y-71323200D02*
X104749600Y-71323200D01*
X96774000Y-71323200D02*
X93827600Y-68376800D01*
X93827600Y-68376800D02*
X92913200Y-68376800D01*
X105765600Y-71272400D02*
X105714800Y-71323200D01*
X106680000Y-71272400D02*
X105816400Y-71272400D01*
D18*
%TO.N,/RESET*%
X94284800Y-55626000D02*
X101396800Y-55626000D01*
X94234000Y-55575200D02*
X94284800Y-55626000D01*
%TO.N,/RXD_3V*%
X106730800Y-60096400D02*
X106680000Y-60096400D01*
X107035600Y-60401200D02*
X106730800Y-60096400D01*
X109270800Y-62636400D02*
X107035600Y-60401200D01*
X109270800Y-65836800D02*
X109270800Y-62636400D01*
X109677200Y-78384400D02*
X109270800Y-77978000D01*
X109270800Y-77978000D02*
X109270800Y-65836800D01*
%TO.N,/LED_GREEN*%
X104666200Y-76065800D02*
X105105200Y-76504800D01*
X100348200Y-76065800D02*
X104666200Y-76065800D01*
X97434400Y-76454000D02*
X99923600Y-76454000D01*
X100330000Y-76047600D02*
X100348200Y-76065800D01*
X99923600Y-76454000D02*
X100330000Y-76047600D01*
%TD*%
%TA.AperFunction,Conductor*%
%TO.N,GND*%
G36*
X128271339Y-45986185D02*
G01*
X128317094Y-46038989D01*
X128328300Y-46090500D01*
X128328300Y-97724300D01*
X128308615Y-97791339D01*
X128255811Y-97837094D01*
X128204300Y-97848300D01*
X81142500Y-97848300D01*
X81075461Y-97828615D01*
X81029706Y-97775811D01*
X81018500Y-97724300D01*
X81018500Y-85034513D01*
X93493100Y-85034513D01*
X93493100Y-85247086D01*
X93526353Y-85457039D01*
X93592044Y-85659214D01*
X93688551Y-85848620D01*
X93813490Y-86020586D01*
X93963813Y-86170909D01*
X94135779Y-86295848D01*
X94135781Y-86295849D01*
X94135784Y-86295851D01*
X94325188Y-86392357D01*
X94527357Y-86458046D01*
X94737313Y-86491300D01*
X94737314Y-86491300D01*
X94949886Y-86491300D01*
X94949887Y-86491300D01*
X95159843Y-86458046D01*
X95362012Y-86392357D01*
X95551416Y-86295851D01*
X95573389Y-86279886D01*
X95723386Y-86170909D01*
X95723388Y-86170906D01*
X95723392Y-86170904D01*
X95873704Y-86020592D01*
X95873706Y-86020588D01*
X95873709Y-86020586D01*
X95998648Y-85848620D01*
X95998647Y-85848620D01*
X95998651Y-85848616D01*
X96076966Y-85694913D01*
X124582700Y-85694913D01*
X124582700Y-85907487D01*
X124615954Y-86117443D01*
X124633326Y-86170909D01*
X124681644Y-86319614D01*
X124778151Y-86509020D01*
X124903090Y-86680986D01*
X125053413Y-86831309D01*
X125225379Y-86956248D01*
X125225381Y-86956249D01*
X125225384Y-86956251D01*
X125414788Y-87052757D01*
X125616957Y-87118446D01*
X125826913Y-87151700D01*
X125826914Y-87151700D01*
X126039486Y-87151700D01*
X126039487Y-87151700D01*
X126249443Y-87118446D01*
X126451612Y-87052757D01*
X126641016Y-86956251D01*
X126662989Y-86940286D01*
X126812986Y-86831309D01*
X126812988Y-86831306D01*
X126812992Y-86831304D01*
X126963304Y-86680992D01*
X126963306Y-86680988D01*
X126963309Y-86680986D01*
X127088248Y-86509020D01*
X127088247Y-86509020D01*
X127088251Y-86509016D01*
X127184757Y-86319612D01*
X127250446Y-86117443D01*
X127283700Y-85907487D01*
X127283700Y-85694913D01*
X127250446Y-85484957D01*
X127184757Y-85282788D01*
X127088251Y-85093384D01*
X127088249Y-85093381D01*
X127088248Y-85093379D01*
X126963309Y-84921413D01*
X126812986Y-84771090D01*
X126641020Y-84646151D01*
X126451614Y-84549644D01*
X126451613Y-84549643D01*
X126451612Y-84549643D01*
X126249443Y-84483954D01*
X126249441Y-84483953D01*
X126249440Y-84483953D01*
X126088157Y-84458408D01*
X126039487Y-84450700D01*
X125826913Y-84450700D01*
X125778242Y-84458408D01*
X125616960Y-84483953D01*
X125414785Y-84549644D01*
X125225379Y-84646151D01*
X125053413Y-84771090D01*
X124903090Y-84921413D01*
X124778151Y-85093379D01*
X124681644Y-85282785D01*
X124615953Y-85484960D01*
X124588354Y-85659214D01*
X124582700Y-85694913D01*
X96076966Y-85694913D01*
X96095157Y-85659212D01*
X96160846Y-85457043D01*
X96194100Y-85247087D01*
X96194100Y-85034513D01*
X96160846Y-84824557D01*
X96095157Y-84622388D01*
X95998651Y-84432984D01*
X95998649Y-84432981D01*
X95998648Y-84432979D01*
X95873709Y-84261013D01*
X95723386Y-84110690D01*
X95551420Y-83985751D01*
X95362014Y-83889244D01*
X95362013Y-83889243D01*
X95362012Y-83889243D01*
X95159843Y-83823554D01*
X95159841Y-83823553D01*
X95159840Y-83823553D01*
X94998557Y-83798008D01*
X94949887Y-83790300D01*
X94737313Y-83790300D01*
X94688642Y-83798008D01*
X94527360Y-83823553D01*
X94325185Y-83889244D01*
X94135779Y-83985751D01*
X93963813Y-84110690D01*
X93813490Y-84261013D01*
X93688551Y-84432979D01*
X93592044Y-84622385D01*
X93526353Y-84824560D01*
X93493100Y-85034513D01*
X81018500Y-85034513D01*
X81018500Y-60220753D01*
X83425900Y-60220753D01*
X83425900Y-60378446D01*
X83456661Y-60533089D01*
X83456663Y-60533097D01*
X83487145Y-60606688D01*
X83488061Y-60608898D01*
X83497500Y-60656351D01*
X83497500Y-81399690D01*
X83497499Y-81399708D01*
X83497499Y-81559096D01*
X83522266Y-81651531D01*
X83536786Y-81705719D01*
X83536788Y-81705724D01*
X83565411Y-81755300D01*
X83612685Y-81837180D01*
X83612687Y-81837182D01*
X83727085Y-81951580D01*
X83727091Y-81951585D01*
X84456381Y-82680875D01*
X84489866Y-82742198D01*
X84492700Y-82768556D01*
X84492700Y-82781246D01*
X84523461Y-82935889D01*
X84523464Y-82935901D01*
X84583802Y-83081572D01*
X84583809Y-83081585D01*
X84671410Y-83212688D01*
X84671413Y-83212692D01*
X84782907Y-83324186D01*
X84782911Y-83324189D01*
X84914014Y-83411790D01*
X84914027Y-83411797D01*
X85059698Y-83472135D01*
X85059703Y-83472137D01*
X85214353Y-83502899D01*
X85214356Y-83502900D01*
X85214358Y-83502900D01*
X85372044Y-83502900D01*
X85372045Y-83502899D01*
X85526697Y-83472137D01*
X85672379Y-83411794D01*
X85803489Y-83324189D01*
X85914989Y-83212689D01*
X86002594Y-83081579D01*
X86023976Y-83029958D01*
X86023978Y-83029953D01*
X110248300Y-83029953D01*
X110248300Y-83187646D01*
X110279061Y-83342289D01*
X110279064Y-83342301D01*
X110339402Y-83487972D01*
X110339409Y-83487985D01*
X110427010Y-83619088D01*
X110427013Y-83619092D01*
X110538507Y-83730586D01*
X110538511Y-83730589D01*
X110672337Y-83820010D01*
X110717142Y-83873623D01*
X110725849Y-83942948D01*
X110695694Y-84005975D01*
X110691128Y-84010793D01*
X110630210Y-84071711D01*
X110542609Y-84202814D01*
X110542602Y-84202827D01*
X110482264Y-84348498D01*
X110482261Y-84348510D01*
X110451500Y-84503153D01*
X110451500Y-84660846D01*
X110482261Y-84815489D01*
X110482264Y-84815501D01*
X110542602Y-84961172D01*
X110542609Y-84961185D01*
X110630210Y-85092288D01*
X110630213Y-85092292D01*
X110741707Y-85203786D01*
X110741711Y-85203789D01*
X110872814Y-85291390D01*
X110872827Y-85291397D01*
X111018498Y-85351735D01*
X111018503Y-85351737D01*
X111173153Y-85382499D01*
X111173156Y-85382500D01*
X111173158Y-85382500D01*
X111330844Y-85382500D01*
X111330845Y-85382499D01*
X111485497Y-85351737D01*
X111631179Y-85291394D01*
X111762289Y-85203789D01*
X111873789Y-85092289D01*
X111961394Y-84961179D01*
X112021737Y-84815497D01*
X112052500Y-84660842D01*
X112052500Y-84503158D01*
X112052500Y-84503155D01*
X112052499Y-84503153D01*
X112021738Y-84348510D01*
X112021737Y-84348503D01*
X111985496Y-84261008D01*
X111961397Y-84202827D01*
X111961390Y-84202814D01*
X111873789Y-84071711D01*
X111873786Y-84071707D01*
X111762292Y-83960213D01*
X111762288Y-83960210D01*
X111628462Y-83870789D01*
X111583657Y-83817176D01*
X111574950Y-83747851D01*
X111605105Y-83684824D01*
X111609653Y-83680024D01*
X111670589Y-83619089D01*
X111758194Y-83487979D01*
X111818537Y-83342297D01*
X111849300Y-83187642D01*
X111849300Y-83029958D01*
X111849300Y-83029955D01*
X111849299Y-83029953D01*
X111818538Y-82875310D01*
X111818537Y-82875303D01*
X111779576Y-82781242D01*
X111758197Y-82729627D01*
X111758190Y-82729614D01*
X111670589Y-82598511D01*
X111670586Y-82598507D01*
X111559092Y-82487013D01*
X111559088Y-82487010D01*
X111427985Y-82399409D01*
X111427972Y-82399402D01*
X111282301Y-82339064D01*
X111282289Y-82339061D01*
X111127645Y-82308300D01*
X111127642Y-82308300D01*
X110969958Y-82308300D01*
X110969955Y-82308300D01*
X110815310Y-82339061D01*
X110815298Y-82339064D01*
X110669627Y-82399402D01*
X110669614Y-82399409D01*
X110538511Y-82487010D01*
X110538507Y-82487013D01*
X110427013Y-82598507D01*
X110427010Y-82598511D01*
X110339409Y-82729614D01*
X110339402Y-82729627D01*
X110279064Y-82875298D01*
X110279061Y-82875310D01*
X110248300Y-83029953D01*
X86023978Y-83029953D01*
X86046155Y-82976414D01*
X86062935Y-82935901D01*
X86062937Y-82935897D01*
X86093700Y-82781242D01*
X86093700Y-82623558D01*
X86093700Y-82623555D01*
X86093699Y-82623553D01*
X86066539Y-82487011D01*
X86062937Y-82468903D01*
X86028308Y-82385300D01*
X86002597Y-82323227D01*
X86002590Y-82323214D01*
X85914989Y-82192111D01*
X85914986Y-82192107D01*
X85803492Y-82080613D01*
X85803488Y-82080610D01*
X85672385Y-81993009D01*
X85672372Y-81993002D01*
X85526701Y-81932664D01*
X85526689Y-81932661D01*
X85372045Y-81901900D01*
X85372042Y-81901900D01*
X85359356Y-81901900D01*
X85292317Y-81882215D01*
X85271675Y-81865581D01*
X84899937Y-81493843D01*
X101013527Y-81493843D01*
X101013527Y-81651533D01*
X101044288Y-81806179D01*
X101044291Y-81806191D01*
X101104629Y-81951862D01*
X101104636Y-81951875D01*
X101192237Y-82082978D01*
X101192240Y-82082982D01*
X101303734Y-82194476D01*
X101303738Y-82194479D01*
X101434841Y-82282080D01*
X101434854Y-82282087D01*
X101572411Y-82339064D01*
X101580530Y-82342427D01*
X101735180Y-82373189D01*
X101735183Y-82373190D01*
X101735185Y-82373190D01*
X101892871Y-82373190D01*
X101892872Y-82373189D01*
X102047524Y-82342427D01*
X102193206Y-82282084D01*
X102324316Y-82194479D01*
X102435816Y-82082979D01*
X102523421Y-81951869D01*
X102583764Y-81806187D01*
X102614527Y-81651532D01*
X102614527Y-81493848D01*
X102614527Y-81493845D01*
X102614526Y-81493843D01*
X102599298Y-81417288D01*
X102583764Y-81339193D01*
X102558116Y-81277272D01*
X102523424Y-81193517D01*
X102523417Y-81193504D01*
X102435816Y-81062401D01*
X102435813Y-81062397D01*
X102324319Y-80950903D01*
X102324315Y-80950900D01*
X102193212Y-80863299D01*
X102193199Y-80863292D01*
X102047528Y-80802954D01*
X102047516Y-80802951D01*
X101892872Y-80772190D01*
X101892869Y-80772190D01*
X101735185Y-80772190D01*
X101735182Y-80772190D01*
X101580537Y-80802951D01*
X101580525Y-80802954D01*
X101434854Y-80863292D01*
X101434841Y-80863299D01*
X101303738Y-80950900D01*
X101303734Y-80950903D01*
X101192240Y-81062397D01*
X101192237Y-81062401D01*
X101104636Y-81193504D01*
X101104629Y-81193517D01*
X101044291Y-81339188D01*
X101044288Y-81339200D01*
X101013527Y-81493843D01*
X84899937Y-81493843D01*
X84686819Y-81280725D01*
X84653334Y-81219402D01*
X84650500Y-81193044D01*
X84650500Y-73327153D01*
X96633900Y-73327153D01*
X96633900Y-73484846D01*
X96664661Y-73639489D01*
X96664664Y-73639501D01*
X96725002Y-73785172D01*
X96725009Y-73785185D01*
X96812610Y-73916288D01*
X96812613Y-73916292D01*
X96924107Y-74027786D01*
X96924111Y-74027789D01*
X97055214Y-74115390D01*
X97055227Y-74115397D01*
X97200898Y-74175735D01*
X97200903Y-74175737D01*
X97355553Y-74206499D01*
X97355556Y-74206500D01*
X97355558Y-74206500D01*
X97513244Y-74206500D01*
X97513245Y-74206499D01*
X97667897Y-74175737D01*
X97813579Y-74115394D01*
X97944689Y-74027789D01*
X98056189Y-73916289D01*
X98143794Y-73785179D01*
X98204137Y-73639497D01*
X98234900Y-73484842D01*
X98234900Y-73327158D01*
X98234900Y-73327155D01*
X98234899Y-73327153D01*
X98204138Y-73172510D01*
X98204137Y-73172503D01*
X98173856Y-73099397D01*
X98143797Y-73026827D01*
X98143790Y-73026814D01*
X98056189Y-72895711D01*
X98056186Y-72895707D01*
X97944692Y-72784213D01*
X97944688Y-72784210D01*
X97813585Y-72696609D01*
X97813572Y-72696602D01*
X97667901Y-72636264D01*
X97667889Y-72636261D01*
X97513245Y-72605500D01*
X97513242Y-72605500D01*
X97355558Y-72605500D01*
X97355555Y-72605500D01*
X97200910Y-72636261D01*
X97200898Y-72636264D01*
X97055227Y-72696602D01*
X97055214Y-72696609D01*
X96924111Y-72784210D01*
X96924107Y-72784213D01*
X96812613Y-72895707D01*
X96812610Y-72895711D01*
X96725009Y-73026814D01*
X96725002Y-73026827D01*
X96664664Y-73172498D01*
X96664661Y-73172510D01*
X96633900Y-73327153D01*
X84650500Y-73327153D01*
X84650500Y-68958353D01*
X89521900Y-68958353D01*
X89521900Y-69116046D01*
X89552661Y-69270689D01*
X89552664Y-69270701D01*
X89613002Y-69416372D01*
X89613009Y-69416385D01*
X89700610Y-69547488D01*
X89700613Y-69547492D01*
X89812107Y-69658986D01*
X89812111Y-69658989D01*
X89943214Y-69746590D01*
X89943227Y-69746597D01*
X90042460Y-69787700D01*
X90088903Y-69806937D01*
X90243553Y-69837699D01*
X90243556Y-69837700D01*
X90243558Y-69837700D01*
X90401244Y-69837700D01*
X90401245Y-69837699D01*
X90477552Y-69822520D01*
X90555888Y-69806939D01*
X90555889Y-69806938D01*
X90555897Y-69806937D01*
X90579555Y-69797137D01*
X90627004Y-69787700D01*
X91084596Y-69787700D01*
X91132044Y-69797137D01*
X91155703Y-69806937D01*
X91155708Y-69806938D01*
X91155711Y-69806939D01*
X91310353Y-69837699D01*
X91310356Y-69837700D01*
X91310358Y-69837700D01*
X91468044Y-69837700D01*
X91468045Y-69837699D01*
X91544352Y-69822520D01*
X91622688Y-69806939D01*
X91622689Y-69806938D01*
X91622697Y-69806937D01*
X91646355Y-69797137D01*
X91693804Y-69787700D01*
X91998996Y-69787700D01*
X92046444Y-69797137D01*
X92070103Y-69806937D01*
X92070108Y-69806938D01*
X92070111Y-69806939D01*
X92224753Y-69837699D01*
X92224756Y-69837700D01*
X92224758Y-69837700D01*
X92382444Y-69837700D01*
X92382445Y-69837699D01*
X92537097Y-69806937D01*
X92682779Y-69746594D01*
X92813889Y-69658989D01*
X92925389Y-69547489D01*
X93012994Y-69416379D01*
X93022792Y-69392721D01*
X93049667Y-69352498D01*
X93238549Y-69163616D01*
X93265478Y-69148913D01*
X93291294Y-69132323D01*
X93297496Y-69131431D01*
X93299872Y-69130134D01*
X93326229Y-69127300D01*
X93465370Y-69127300D01*
X93532409Y-69146985D01*
X93553051Y-69163619D01*
X96295586Y-71906154D01*
X96326846Y-71927040D01*
X96342477Y-71937484D01*
X96418505Y-71988284D01*
X96418506Y-71988284D01*
X96418507Y-71988285D01*
X96548518Y-72042137D01*
X96555087Y-72044858D01*
X96555091Y-72044858D01*
X96555092Y-72044859D01*
X96700079Y-72073700D01*
X96700082Y-72073700D01*
X96700083Y-72073700D01*
X96847918Y-72073700D01*
X104444996Y-72073700D01*
X104492444Y-72083137D01*
X104516103Y-72092937D01*
X104516108Y-72092938D01*
X104516111Y-72092939D01*
X104670753Y-72123699D01*
X104670756Y-72123700D01*
X104670758Y-72123700D01*
X104828444Y-72123700D01*
X104828445Y-72123699D01*
X104904752Y-72108520D01*
X104983088Y-72092939D01*
X104983089Y-72092938D01*
X104983097Y-72092937D01*
X105006755Y-72083137D01*
X105054204Y-72073700D01*
X105776841Y-72073700D01*
X105843880Y-72093385D01*
X105889635Y-72146189D01*
X105899579Y-72215347D01*
X105870554Y-72278903D01*
X105864522Y-72285381D01*
X105507486Y-72642416D01*
X105507482Y-72642421D01*
X105448849Y-72743976D01*
X105448850Y-72743977D01*
X105448849Y-72743979D01*
X105431587Y-72773877D01*
X105392299Y-72920501D01*
X105392299Y-72920503D01*
X105392299Y-73082284D01*
X105392300Y-73082297D01*
X105392300Y-75594630D01*
X105387209Y-75611966D01*
X105387138Y-75630035D01*
X105377570Y-75644794D01*
X105372615Y-75661669D01*
X105358960Y-75673501D01*
X105349131Y-75688663D01*
X105333102Y-75695906D01*
X105319811Y-75707424D01*
X105301927Y-75709995D01*
X105285461Y-75717437D01*
X105256053Y-75716591D01*
X105250653Y-75717368D01*
X105250167Y-75717297D01*
X105247110Y-75716845D01*
X105184042Y-75704300D01*
X105162242Y-75704300D01*
X105153224Y-75702967D01*
X105129442Y-75691992D01*
X105104318Y-75684615D01*
X105092072Y-75674746D01*
X105089784Y-75673691D01*
X105088752Y-75672071D01*
X105083676Y-75667981D01*
X105020182Y-75604487D01*
X105020180Y-75604485D01*
X104981123Y-75581935D01*
X104888724Y-75528588D01*
X104888725Y-75528588D01*
X104876701Y-75525366D01*
X104742097Y-75489299D01*
X104600846Y-75489299D01*
X104533807Y-75469614D01*
X104488052Y-75416810D01*
X104479229Y-75389490D01*
X104458529Y-75285426D01*
X104452537Y-75255303D01*
X104452535Y-75255298D01*
X104392197Y-75109627D01*
X104392190Y-75109614D01*
X104304589Y-74978511D01*
X104304586Y-74978507D01*
X104193092Y-74867013D01*
X104193088Y-74867010D01*
X104061985Y-74779409D01*
X104061972Y-74779402D01*
X103916301Y-74719064D01*
X103916289Y-74719061D01*
X103761645Y-74688300D01*
X103761642Y-74688300D01*
X103603958Y-74688300D01*
X103603955Y-74688300D01*
X103449310Y-74719061D01*
X103449298Y-74719064D01*
X103303627Y-74779402D01*
X103303614Y-74779409D01*
X103192891Y-74853393D01*
X103126213Y-74874271D01*
X103058833Y-74855787D01*
X103055109Y-74853393D01*
X102944385Y-74779409D01*
X102944372Y-74779402D01*
X102798701Y-74719064D01*
X102798689Y-74719061D01*
X102644045Y-74688300D01*
X102644042Y-74688300D01*
X102486358Y-74688300D01*
X102486355Y-74688300D01*
X102331710Y-74719061D01*
X102331698Y-74719064D01*
X102206252Y-74771025D01*
X102136782Y-74778494D01*
X102111348Y-74771025D01*
X101985901Y-74719064D01*
X101985889Y-74719061D01*
X101831245Y-74688300D01*
X101831242Y-74688300D01*
X101673558Y-74688300D01*
X101673555Y-74688300D01*
X101518910Y-74719061D01*
X101518898Y-74719064D01*
X101373227Y-74779402D01*
X101373214Y-74779409D01*
X101242111Y-74867010D01*
X101242107Y-74867013D01*
X101130613Y-74978507D01*
X101130610Y-74978511D01*
X101043009Y-75109614D01*
X101043002Y-75109627D01*
X100982664Y-75255298D01*
X100982661Y-75255310D01*
X100955971Y-75389491D01*
X100923586Y-75451402D01*
X100862871Y-75485976D01*
X100834354Y-75489300D01*
X100490150Y-75489300D01*
X100458058Y-75485075D01*
X100405898Y-75471099D01*
X100405897Y-75471099D01*
X100254103Y-75471099D01*
X100107479Y-75510387D01*
X100107477Y-75510387D01*
X100107477Y-75510388D01*
X99976021Y-75586285D01*
X99976018Y-75586287D01*
X99721125Y-75841181D01*
X99659802Y-75874666D01*
X99633444Y-75877500D01*
X98041341Y-75877500D01*
X97974302Y-75857815D01*
X97953660Y-75841181D01*
X97944692Y-75832213D01*
X97944688Y-75832210D01*
X97813585Y-75744609D01*
X97813572Y-75744602D01*
X97667901Y-75684264D01*
X97667889Y-75684261D01*
X97513245Y-75653500D01*
X97513242Y-75653500D01*
X97355558Y-75653500D01*
X97355555Y-75653500D01*
X97200910Y-75684261D01*
X97200898Y-75684264D01*
X97055227Y-75744602D01*
X97055214Y-75744609D01*
X96924111Y-75832210D01*
X96924107Y-75832213D01*
X96812613Y-75943707D01*
X96812610Y-75943711D01*
X96725009Y-76074814D01*
X96725002Y-76074827D01*
X96664664Y-76220498D01*
X96664661Y-76220510D01*
X96633900Y-76375153D01*
X96633900Y-76532846D01*
X96664661Y-76687489D01*
X96664664Y-76687501D01*
X96725002Y-76833172D01*
X96725009Y-76833185D01*
X96812610Y-76964288D01*
X96812613Y-76964292D01*
X96924107Y-77075786D01*
X96924111Y-77075789D01*
X97055214Y-77163390D01*
X97055227Y-77163397D01*
X97177854Y-77214190D01*
X97200903Y-77223737D01*
X97344669Y-77252334D01*
X97355553Y-77254499D01*
X97355556Y-77254500D01*
X97355558Y-77254500D01*
X97513244Y-77254500D01*
X97513245Y-77254499D01*
X97667897Y-77223737D01*
X97813579Y-77163394D01*
X97944689Y-77075789D01*
X97944692Y-77075786D01*
X97953660Y-77066819D01*
X98014983Y-77033334D01*
X98041341Y-77030500D01*
X99840091Y-77030500D01*
X99840107Y-77030501D01*
X99847703Y-77030501D01*
X99999494Y-77030501D01*
X99999497Y-77030501D01*
X100146121Y-76991213D01*
X100189592Y-76966115D01*
X100277580Y-76915315D01*
X100384915Y-76807980D01*
X100384915Y-76807978D01*
X100395116Y-76797778D01*
X100395120Y-76797772D01*
X100514276Y-76678618D01*
X100575600Y-76645134D01*
X100601957Y-76642300D01*
X104214604Y-76642300D01*
X104281643Y-76661985D01*
X104327398Y-76714789D01*
X104333157Y-76732624D01*
X104333693Y-76732462D01*
X104335463Y-76738298D01*
X104395802Y-76883972D01*
X104395809Y-76883985D01*
X104483410Y-77015088D01*
X104483413Y-77015092D01*
X104594907Y-77126586D01*
X104594911Y-77126589D01*
X104726014Y-77214190D01*
X104726027Y-77214197D01*
X104871698Y-77274535D01*
X104871703Y-77274537D01*
X104997597Y-77299579D01*
X105026353Y-77305299D01*
X105026356Y-77305300D01*
X105026358Y-77305300D01*
X105184043Y-77305300D01*
X105244108Y-77293352D01*
X105313699Y-77299579D01*
X105368877Y-77342441D01*
X105392122Y-77408331D01*
X105392300Y-77414969D01*
X105392300Y-78586259D01*
X105372615Y-78653298D01*
X105355981Y-78673940D01*
X105347013Y-78682907D01*
X105347010Y-78682911D01*
X105259409Y-78814014D01*
X105259402Y-78814027D01*
X105199064Y-78959698D01*
X105199061Y-78959710D01*
X105168300Y-79114353D01*
X105168300Y-79272046D01*
X105199061Y-79426689D01*
X105199064Y-79426701D01*
X105259402Y-79572372D01*
X105259409Y-79572385D01*
X105347010Y-79703488D01*
X105347013Y-79703492D01*
X105458507Y-79814986D01*
X105458511Y-79814989D01*
X105589614Y-79902590D01*
X105589627Y-79902597D01*
X105719053Y-79956206D01*
X105735303Y-79962937D01*
X105884046Y-79992524D01*
X105889953Y-79993699D01*
X105889956Y-79993700D01*
X105889958Y-79993700D01*
X106047644Y-79993700D01*
X106047645Y-79993699D01*
X106202297Y-79962937D01*
X106314966Y-79916267D01*
X106347972Y-79902597D01*
X106347972Y-79902596D01*
X106347979Y-79902594D01*
X106479089Y-79814989D01*
X106590589Y-79703489D01*
X106678194Y-79572379D01*
X106738537Y-79426697D01*
X106769300Y-79272042D01*
X106769300Y-79114358D01*
X106769300Y-79114355D01*
X106769299Y-79114353D01*
X106765210Y-79093797D01*
X106738537Y-78959703D01*
X106711607Y-78894688D01*
X106678197Y-78814027D01*
X106678190Y-78814014D01*
X106590589Y-78682911D01*
X106590586Y-78682907D01*
X106581619Y-78673940D01*
X106548134Y-78612617D01*
X106545300Y-78586259D01*
X106545300Y-73798064D01*
X106564985Y-73731025D01*
X106617789Y-73685270D01*
X106686947Y-73675326D01*
X106693483Y-73676445D01*
X106724575Y-73682630D01*
X106804355Y-73698500D01*
X106804358Y-73698500D01*
X106962044Y-73698500D01*
X106962045Y-73698499D01*
X107116697Y-73667737D01*
X107262379Y-73607394D01*
X107393489Y-73519789D01*
X107504989Y-73408289D01*
X107592594Y-73277179D01*
X107652937Y-73131497D01*
X107658395Y-73104056D01*
X107690779Y-73042148D01*
X107751494Y-73007573D01*
X107821263Y-73011312D01*
X107848901Y-73025146D01*
X107960021Y-73099394D01*
X107960023Y-73099395D01*
X107960027Y-73099397D01*
X108105698Y-73159735D01*
X108105703Y-73159737D01*
X108216187Y-73181713D01*
X108238891Y-73186230D01*
X108300802Y-73218615D01*
X108335376Y-73279330D01*
X108338700Y-73307847D01*
X108338700Y-77570855D01*
X108319015Y-77637894D01*
X108283591Y-77673957D01*
X108150910Y-77762610D01*
X108039413Y-77874107D01*
X108039410Y-77874111D01*
X107951809Y-78005214D01*
X107951802Y-78005227D01*
X107891464Y-78150898D01*
X107891461Y-78150910D01*
X107860700Y-78305553D01*
X107860700Y-78463246D01*
X107891461Y-78617889D01*
X107891464Y-78617901D01*
X107951802Y-78763572D01*
X107951809Y-78763585D01*
X108039410Y-78894688D01*
X108039413Y-78894692D01*
X108150907Y-79006186D01*
X108150911Y-79006189D01*
X108282014Y-79093790D01*
X108282027Y-79093797D01*
X108427698Y-79154135D01*
X108427703Y-79154137D01*
X108561892Y-79180829D01*
X108582353Y-79184899D01*
X108582356Y-79184900D01*
X108582358Y-79184900D01*
X108740044Y-79184900D01*
X108740045Y-79184899D01*
X108894697Y-79154137D01*
X109040379Y-79093794D01*
X109100309Y-79053749D01*
X109166986Y-79032872D01*
X109234366Y-79051356D01*
X109238074Y-79053738D01*
X109298021Y-79093794D01*
X109298023Y-79093795D01*
X109298027Y-79093797D01*
X109443698Y-79154135D01*
X109443703Y-79154137D01*
X109537845Y-79172863D01*
X109577891Y-79180829D01*
X109639802Y-79213214D01*
X109674376Y-79273929D01*
X109677700Y-79302446D01*
X109677700Y-79904843D01*
X109658015Y-79971882D01*
X109641381Y-79992524D01*
X108825251Y-80808653D01*
X108763928Y-80842138D01*
X108694236Y-80837154D01*
X108690119Y-80835534D01*
X108689665Y-80835346D01*
X108640697Y-80815063D01*
X108640693Y-80815062D01*
X108640688Y-80815060D01*
X108486045Y-80784300D01*
X108486042Y-80784300D01*
X108328358Y-80784300D01*
X108328355Y-80784300D01*
X108173710Y-80815061D01*
X108173698Y-80815064D01*
X108028027Y-80875402D01*
X108028014Y-80875409D01*
X107896911Y-80963010D01*
X107896907Y-80963013D01*
X107785413Y-81074507D01*
X107785410Y-81074511D01*
X107697809Y-81205614D01*
X107697802Y-81205627D01*
X107637464Y-81351298D01*
X107637461Y-81351310D01*
X107606700Y-81505953D01*
X107606700Y-81663646D01*
X107637461Y-81818289D01*
X107637464Y-81818301D01*
X107697802Y-81963972D01*
X107697809Y-81963985D01*
X107785410Y-82095088D01*
X107785413Y-82095092D01*
X107896907Y-82206586D01*
X107896911Y-82206589D01*
X108028014Y-82294190D01*
X108028027Y-82294197D01*
X108144469Y-82342428D01*
X108173703Y-82354537D01*
X108328353Y-82385299D01*
X108328356Y-82385300D01*
X108328358Y-82385300D01*
X108486044Y-82385300D01*
X108486045Y-82385299D01*
X108640697Y-82354537D01*
X108786379Y-82294194D01*
X108917489Y-82206589D01*
X108998312Y-82125764D01*
X109053897Y-82093673D01*
X109137721Y-82071213D01*
X109181192Y-82046115D01*
X109269180Y-81995315D01*
X109376515Y-81887980D01*
X109376515Y-81887978D01*
X109386719Y-81877775D01*
X109386723Y-81877770D01*
X110132168Y-81132325D01*
X119120300Y-81132325D01*
X119120300Y-81277275D01*
X119157816Y-81417285D01*
X119157817Y-81417288D01*
X119230288Y-81542811D01*
X119230290Y-81542813D01*
X119230291Y-81542815D01*
X119332785Y-81645309D01*
X119332786Y-81645310D01*
X119332788Y-81645311D01*
X119458311Y-81717782D01*
X119458312Y-81717782D01*
X119458315Y-81717784D01*
X119598325Y-81755300D01*
X119598328Y-81755300D01*
X119743272Y-81755300D01*
X119743275Y-81755300D01*
X119883285Y-81717784D01*
X120008815Y-81645309D01*
X120111309Y-81542815D01*
X120183784Y-81417285D01*
X120221300Y-81277275D01*
X120221300Y-81132325D01*
X120183784Y-80992315D01*
X120166866Y-80963013D01*
X120111311Y-80866788D01*
X120111306Y-80866782D01*
X120008817Y-80764293D01*
X120008811Y-80764288D01*
X119883288Y-80691817D01*
X119883289Y-80691817D01*
X119871806Y-80688740D01*
X119743275Y-80654300D01*
X119598325Y-80654300D01*
X119469793Y-80688740D01*
X119458311Y-80691817D01*
X119332788Y-80764288D01*
X119332782Y-80764293D01*
X119230293Y-80866782D01*
X119230288Y-80866788D01*
X119157817Y-80992311D01*
X119157816Y-80992315D01*
X119120300Y-81132325D01*
X110132168Y-81132325D01*
X110597970Y-80666523D01*
X110597975Y-80666519D01*
X110608178Y-80656315D01*
X110608180Y-80656315D01*
X110715515Y-80548980D01*
X110791413Y-80417521D01*
X110830701Y-80270897D01*
X110830701Y-80119103D01*
X110830701Y-80111508D01*
X110830700Y-80111490D01*
X110830700Y-78069502D01*
X110830700Y-78069500D01*
X110791413Y-77922877D01*
X110715515Y-77791418D01*
X110648312Y-77724215D01*
X110614828Y-77662891D01*
X110619813Y-77593200D01*
X110661684Y-77537266D01*
X110688533Y-77521977D01*
X110818379Y-77468194D01*
X110949489Y-77380589D01*
X111060989Y-77269089D01*
X111148594Y-77137979D01*
X111208937Y-76992297D01*
X111239700Y-76837642D01*
X111239700Y-76679958D01*
X111239700Y-76679955D01*
X111239699Y-76679953D01*
X111225524Y-76608692D01*
X111208937Y-76525303D01*
X111203344Y-76511802D01*
X111195875Y-76442335D01*
X111227148Y-76379855D01*
X111230196Y-76376696D01*
X111587339Y-76019553D01*
X112381900Y-76019553D01*
X112381900Y-76177246D01*
X112412661Y-76331889D01*
X112412664Y-76331901D01*
X112473002Y-76477572D01*
X112473009Y-76477585D01*
X112560610Y-76608688D01*
X112560613Y-76608692D01*
X112672107Y-76720186D01*
X112672111Y-76720189D01*
X112803214Y-76807790D01*
X112803227Y-76807797D01*
X112948898Y-76868135D01*
X112948903Y-76868137D01*
X113103553Y-76898899D01*
X113103556Y-76898900D01*
X113103558Y-76898900D01*
X113261244Y-76898900D01*
X113261245Y-76898899D01*
X113415897Y-76868137D01*
X113561579Y-76807794D01*
X113692689Y-76720189D01*
X113804189Y-76608689D01*
X113891794Y-76477579D01*
X113952137Y-76331897D01*
X113982900Y-76177242D01*
X113982900Y-76019558D01*
X113982900Y-76019555D01*
X113982899Y-76019553D01*
X113966634Y-75937784D01*
X113952137Y-75864903D01*
X113942311Y-75841181D01*
X113891797Y-75719227D01*
X113891790Y-75719214D01*
X113804189Y-75588111D01*
X113804186Y-75588107D01*
X113692692Y-75476613D01*
X113692688Y-75476610D01*
X113648823Y-75447300D01*
X113561585Y-75389009D01*
X113561572Y-75389002D01*
X113473025Y-75352325D01*
X119120300Y-75352325D01*
X119120300Y-75497275D01*
X119157816Y-75637285D01*
X119157817Y-75637288D01*
X119230288Y-75762811D01*
X119230290Y-75762813D01*
X119230291Y-75762815D01*
X119332785Y-75865309D01*
X119332786Y-75865310D01*
X119332788Y-75865311D01*
X119458311Y-75937782D01*
X119458312Y-75937782D01*
X119458315Y-75937784D01*
X119598325Y-75975300D01*
X119598328Y-75975300D01*
X119743272Y-75975300D01*
X119743275Y-75975300D01*
X119883285Y-75937784D01*
X120008815Y-75865309D01*
X120111309Y-75762815D01*
X120183784Y-75637285D01*
X120221300Y-75497275D01*
X120221300Y-75352325D01*
X120183784Y-75212315D01*
X120124493Y-75109621D01*
X120111311Y-75086788D01*
X120111306Y-75086782D01*
X120008817Y-74984293D01*
X120008811Y-74984288D01*
X119883288Y-74911817D01*
X119883289Y-74911817D01*
X119833675Y-74898523D01*
X119743275Y-74874300D01*
X119598325Y-74874300D01*
X119507925Y-74898523D01*
X119458311Y-74911817D01*
X119332788Y-74984288D01*
X119332782Y-74984293D01*
X119230293Y-75086782D01*
X119230288Y-75086788D01*
X119157817Y-75212311D01*
X119157816Y-75212315D01*
X119120300Y-75352325D01*
X113473025Y-75352325D01*
X113415901Y-75328664D01*
X113415889Y-75328661D01*
X113261245Y-75297900D01*
X113261242Y-75297900D01*
X113103558Y-75297900D01*
X113103555Y-75297900D01*
X112948910Y-75328661D01*
X112948898Y-75328664D01*
X112803227Y-75389002D01*
X112803214Y-75389009D01*
X112672111Y-75476610D01*
X112672107Y-75476613D01*
X112560613Y-75588107D01*
X112560610Y-75588111D01*
X112473009Y-75719214D01*
X112473002Y-75719227D01*
X112412664Y-75864898D01*
X112412661Y-75864910D01*
X112381900Y-76019553D01*
X111587339Y-76019553D01*
X112459370Y-75147523D01*
X112459375Y-75147519D01*
X112469578Y-75137315D01*
X112469580Y-75137315D01*
X112576915Y-75029980D01*
X112652813Y-74898521D01*
X112668949Y-74838300D01*
X112692101Y-74751897D01*
X112692101Y-74600102D01*
X112692101Y-74592507D01*
X112692100Y-74592489D01*
X112692100Y-72120300D01*
X112692101Y-72120287D01*
X112692101Y-71958505D01*
X112692101Y-71958503D01*
X112652813Y-71811879D01*
X112607842Y-71733987D01*
X112576915Y-71680420D01*
X112469580Y-71573085D01*
X112469579Y-71573084D01*
X112465249Y-71568754D01*
X112465238Y-71568744D01*
X112118819Y-71222325D01*
X112085334Y-71161002D01*
X112082500Y-71134644D01*
X112082500Y-65249953D01*
X121119500Y-65249953D01*
X121119500Y-65407646D01*
X121150261Y-65562289D01*
X121150264Y-65562301D01*
X121210602Y-65707972D01*
X121210609Y-65707985D01*
X121298210Y-65839088D01*
X121298213Y-65839092D01*
X121409707Y-65950586D01*
X121409711Y-65950589D01*
X121540814Y-66038190D01*
X121540827Y-66038197D01*
X121681981Y-66096664D01*
X121686503Y-66098537D01*
X121841153Y-66129299D01*
X121841156Y-66129300D01*
X121841158Y-66129300D01*
X121998844Y-66129300D01*
X121998845Y-66129299D01*
X122153497Y-66098537D01*
X122153504Y-66098533D01*
X122157600Y-66097292D01*
X122227467Y-66096664D01*
X122262491Y-66112846D01*
X122302821Y-66139794D01*
X122448503Y-66200137D01*
X122603153Y-66230899D01*
X122603156Y-66230900D01*
X122603158Y-66230900D01*
X122760844Y-66230900D01*
X122760845Y-66230899D01*
X122915497Y-66200137D01*
X123061179Y-66139794D01*
X123192289Y-66052189D01*
X123303789Y-65940689D01*
X123391394Y-65809579D01*
X123451737Y-65663897D01*
X123482500Y-65509242D01*
X123482500Y-65351558D01*
X123482500Y-65351555D01*
X123482499Y-65351553D01*
X123468324Y-65280292D01*
X123451737Y-65196903D01*
X123431969Y-65149179D01*
X123391397Y-65051227D01*
X123391390Y-65051214D01*
X123303789Y-64920111D01*
X123303786Y-64920107D01*
X123192292Y-64808613D01*
X123192288Y-64808610D01*
X123061185Y-64721009D01*
X123061172Y-64721002D01*
X122915501Y-64660664D01*
X122915489Y-64660661D01*
X122760845Y-64629900D01*
X122760842Y-64629900D01*
X122603158Y-64629900D01*
X122603156Y-64629900D01*
X122448498Y-64660663D01*
X122444386Y-64661911D01*
X122374519Y-64662531D01*
X122339507Y-64646352D01*
X122299182Y-64619408D01*
X122299181Y-64619407D01*
X122299179Y-64619406D01*
X122299176Y-64619404D01*
X122299171Y-64619402D01*
X122153501Y-64559064D01*
X122153489Y-64559061D01*
X121998845Y-64528300D01*
X121998842Y-64528300D01*
X121841158Y-64528300D01*
X121841155Y-64528300D01*
X121686510Y-64559061D01*
X121686498Y-64559064D01*
X121540827Y-64619402D01*
X121540814Y-64619409D01*
X121409711Y-64707010D01*
X121409707Y-64707013D01*
X121298213Y-64818507D01*
X121298210Y-64818511D01*
X121210609Y-64949614D01*
X121210602Y-64949627D01*
X121150264Y-65095298D01*
X121150261Y-65095310D01*
X121119500Y-65249953D01*
X112082500Y-65249953D01*
X112082500Y-62261285D01*
X112082500Y-62261283D01*
X112043213Y-62114660D01*
X111967315Y-61983201D01*
X111859980Y-61875866D01*
X111859979Y-61875865D01*
X111855649Y-61871535D01*
X111855638Y-61871525D01*
X110530096Y-60545983D01*
X120076700Y-60545983D01*
X120076700Y-62486001D01*
X120076701Y-62486018D01*
X120087200Y-62588796D01*
X120087201Y-62588799D01*
X120090217Y-62597900D01*
X120142386Y-62755334D01*
X120234488Y-62904656D01*
X120358544Y-63028712D01*
X120507866Y-63120814D01*
X120674403Y-63175999D01*
X120777191Y-63186500D01*
X123977208Y-63186499D01*
X124079997Y-63175999D01*
X124246534Y-63120814D01*
X124395856Y-63028712D01*
X124519912Y-62904656D01*
X124612014Y-62755334D01*
X124667199Y-62588797D01*
X124677700Y-62486009D01*
X124677699Y-60545992D01*
X124667199Y-60443203D01*
X124612014Y-60276666D01*
X124519912Y-60127344D01*
X124395856Y-60003288D01*
X124261516Y-59920427D01*
X124246536Y-59911187D01*
X124246531Y-59911185D01*
X124245062Y-59910698D01*
X124079997Y-59856001D01*
X124079995Y-59856000D01*
X123977210Y-59845500D01*
X120777198Y-59845500D01*
X120777181Y-59845501D01*
X120674403Y-59856000D01*
X120674400Y-59856001D01*
X120507868Y-59911185D01*
X120507863Y-59911187D01*
X120358542Y-60003289D01*
X120234489Y-60127342D01*
X120142387Y-60276663D01*
X120142385Y-60276668D01*
X120124747Y-60329897D01*
X120087201Y-60443203D01*
X120087201Y-60443204D01*
X120087200Y-60443204D01*
X120076700Y-60545983D01*
X110530096Y-60545983D01*
X110498204Y-60514091D01*
X110498202Y-60514088D01*
X110383801Y-60399687D01*
X110383799Y-60399685D01*
X110344742Y-60377135D01*
X110252343Y-60323788D01*
X110252340Y-60323786D01*
X110234181Y-60318920D01*
X110234181Y-60318921D01*
X110169948Y-60301710D01*
X110105716Y-60284499D01*
X109953922Y-60284499D01*
X109946326Y-60284499D01*
X109946310Y-60284500D01*
X109106356Y-60284500D01*
X109039317Y-60264815D01*
X109018675Y-60248181D01*
X106883819Y-58113325D01*
X106850334Y-58052002D01*
X106847500Y-58025644D01*
X106847500Y-57546882D01*
X106847501Y-57546869D01*
X106847501Y-57385088D01*
X106847501Y-57385086D01*
X106808213Y-57238462D01*
X106766088Y-57165500D01*
X106732315Y-57107003D01*
X106624980Y-56999668D01*
X106624979Y-56999667D01*
X106620649Y-56995337D01*
X106620638Y-56995327D01*
X106073619Y-56448308D01*
X106040134Y-56386985D01*
X106037300Y-56360627D01*
X106037300Y-55519713D01*
X110053900Y-55519713D01*
X110053900Y-55732287D01*
X110087154Y-55942243D01*
X110133697Y-56085488D01*
X110152844Y-56144414D01*
X110249351Y-56333820D01*
X110374290Y-56505786D01*
X110524613Y-56656109D01*
X110696582Y-56781050D01*
X110705346Y-56785516D01*
X110756142Y-56833491D01*
X110772936Y-56901312D01*
X110750398Y-56967447D01*
X110705346Y-57006484D01*
X110696582Y-57010949D01*
X110524613Y-57135890D01*
X110374290Y-57286213D01*
X110249351Y-57458179D01*
X110152844Y-57647585D01*
X110087153Y-57849760D01*
X110053900Y-58059713D01*
X110053900Y-58272286D01*
X110085055Y-58468994D01*
X110087154Y-58482243D01*
X110145411Y-58661540D01*
X110152844Y-58684414D01*
X110249351Y-58873820D01*
X110374290Y-59045786D01*
X110524613Y-59196109D01*
X110696579Y-59321048D01*
X110696581Y-59321049D01*
X110696584Y-59321051D01*
X110885988Y-59417557D01*
X111088157Y-59483246D01*
X111298113Y-59516500D01*
X111298114Y-59516500D01*
X111510686Y-59516500D01*
X111510687Y-59516500D01*
X111720643Y-59483246D01*
X111922812Y-59417557D01*
X112112216Y-59321051D01*
X112134189Y-59305086D01*
X112284186Y-59196109D01*
X112284188Y-59196106D01*
X112284192Y-59196104D01*
X112434504Y-59045792D01*
X112438060Y-59040896D01*
X112493387Y-58998230D01*
X112563000Y-58992248D01*
X112624797Y-59024851D01*
X112656086Y-59074772D01*
X112658710Y-59082692D01*
X112659586Y-59085334D01*
X112751688Y-59234656D01*
X112875744Y-59358712D01*
X113025066Y-59450814D01*
X113191603Y-59505999D01*
X113294391Y-59516500D01*
X114594408Y-59516499D01*
X114697197Y-59505999D01*
X114863734Y-59450814D01*
X115013056Y-59358712D01*
X115137112Y-59234656D01*
X115229214Y-59085334D01*
X115284399Y-58918797D01*
X115294900Y-58816009D01*
X115294899Y-57515992D01*
X115284399Y-57413203D01*
X115229214Y-57246666D01*
X115137112Y-57097344D01*
X115013056Y-56973288D01*
X114896364Y-56901312D01*
X114863736Y-56881187D01*
X114863725Y-56881182D01*
X114853173Y-56877686D01*
X114795728Y-56837913D01*
X114768906Y-56773397D01*
X114781222Y-56704621D01*
X114819303Y-56659656D01*
X114824188Y-56656107D01*
X114824188Y-56656106D01*
X114824192Y-56656104D01*
X114974504Y-56505792D01*
X114974506Y-56505788D01*
X114974509Y-56505786D01*
X115099448Y-56333820D01*
X115099450Y-56333817D01*
X115099451Y-56333816D01*
X115195957Y-56144412D01*
X115261646Y-55942243D01*
X115294900Y-55732287D01*
X115294900Y-55519713D01*
X115261646Y-55309757D01*
X115195957Y-55107588D01*
X115099451Y-54918184D01*
X115099449Y-54918181D01*
X115099448Y-54918179D01*
X114974509Y-54746213D01*
X114824186Y-54595890D01*
X114652220Y-54470951D01*
X114462814Y-54374444D01*
X114462813Y-54374443D01*
X114462812Y-54374443D01*
X114260643Y-54308754D01*
X114260641Y-54308753D01*
X114260640Y-54308753D01*
X114095135Y-54282540D01*
X114050687Y-54275500D01*
X113838113Y-54275500D01*
X113793665Y-54282540D01*
X113628160Y-54308753D01*
X113425985Y-54374444D01*
X113236579Y-54470951D01*
X113064613Y-54595890D01*
X112914290Y-54746213D01*
X112789349Y-54918182D01*
X112784884Y-54926946D01*
X112736909Y-54977742D01*
X112669088Y-54994536D01*
X112602953Y-54971998D01*
X112563916Y-54926946D01*
X112559450Y-54918182D01*
X112434509Y-54746213D01*
X112284186Y-54595890D01*
X112112220Y-54470951D01*
X111922814Y-54374444D01*
X111922813Y-54374443D01*
X111922812Y-54374443D01*
X111720643Y-54308754D01*
X111720641Y-54308753D01*
X111720640Y-54308753D01*
X111555135Y-54282540D01*
X111510687Y-54275500D01*
X111298113Y-54275500D01*
X111253665Y-54282540D01*
X111088160Y-54308753D01*
X110885985Y-54374444D01*
X110696579Y-54470951D01*
X110524613Y-54595890D01*
X110374290Y-54746213D01*
X110249351Y-54918179D01*
X110152844Y-55107585D01*
X110087153Y-55309760D01*
X110082094Y-55341702D01*
X110053900Y-55519713D01*
X106037300Y-55519713D01*
X106037300Y-54534104D01*
X106037300Y-54534102D01*
X105998013Y-54387479D01*
X105922115Y-54256020D01*
X105814780Y-54148685D01*
X105814779Y-54148684D01*
X105810449Y-54144354D01*
X105810438Y-54144344D01*
X105262234Y-53596140D01*
X105228749Y-53534817D01*
X105231984Y-53470141D01*
X105254046Y-53402243D01*
X105287300Y-53192287D01*
X105287300Y-52979713D01*
X105254046Y-52769757D01*
X105188357Y-52567588D01*
X105091851Y-52378184D01*
X105091849Y-52378181D01*
X105091848Y-52378179D01*
X104966909Y-52206213D01*
X104816586Y-52055890D01*
X104644620Y-51930951D01*
X104455214Y-51834444D01*
X104455213Y-51834443D01*
X104455212Y-51834443D01*
X104253043Y-51768754D01*
X104253041Y-51768753D01*
X104253040Y-51768753D01*
X104091757Y-51743208D01*
X104043087Y-51735500D01*
X103830513Y-51735500D01*
X103781842Y-51743208D01*
X103620560Y-51768753D01*
X103418385Y-51834444D01*
X103228979Y-51930951D01*
X103057013Y-52055890D01*
X102906694Y-52206209D01*
X102906685Y-52206219D01*
X102903130Y-52211113D01*
X102847797Y-52253775D01*
X102778183Y-52259748D01*
X102716391Y-52227137D01*
X102685112Y-52177223D01*
X102681615Y-52166670D01*
X102681614Y-52166666D01*
X102589512Y-52017344D01*
X102465456Y-51893288D01*
X102316134Y-51801186D01*
X102149597Y-51746001D01*
X102149595Y-51746000D01*
X102046810Y-51735500D01*
X100746798Y-51735500D01*
X100746781Y-51735501D01*
X100644003Y-51746000D01*
X100644000Y-51746001D01*
X100477468Y-51801185D01*
X100477463Y-51801187D01*
X100328142Y-51893289D01*
X100204089Y-52017342D01*
X100111987Y-52166663D01*
X100111985Y-52166668D01*
X100098883Y-52206208D01*
X100056801Y-52333203D01*
X100056801Y-52333204D01*
X100056800Y-52333204D01*
X100046300Y-52435983D01*
X100046300Y-53736001D01*
X100046301Y-53736018D01*
X100056800Y-53838796D01*
X100056801Y-53838799D01*
X100105155Y-53984720D01*
X100111986Y-54005334D01*
X100204088Y-54154656D01*
X100328144Y-54278712D01*
X100477466Y-54370814D01*
X100488023Y-54374312D01*
X100545468Y-54414084D01*
X100572292Y-54478600D01*
X100559977Y-54547376D01*
X100521913Y-54592330D01*
X100517019Y-54595885D01*
X100517009Y-54595894D01*
X100366690Y-54746213D01*
X100241749Y-54918182D01*
X100209338Y-54981794D01*
X100161364Y-55032591D01*
X100098853Y-55049500D01*
X94891740Y-55049500D01*
X94824701Y-55029815D01*
X94804063Y-55013185D01*
X94744289Y-54953411D01*
X94744288Y-54953410D01*
X94744287Y-54953409D01*
X94613185Y-54865809D01*
X94613172Y-54865802D01*
X94467501Y-54805464D01*
X94467489Y-54805461D01*
X94312845Y-54774700D01*
X94312842Y-54774700D01*
X94155158Y-54774700D01*
X94155152Y-54774700D01*
X94150711Y-54775137D01*
X94082066Y-54762112D01*
X94031360Y-54714042D01*
X94014692Y-54646190D01*
X94024007Y-54604281D01*
X94036740Y-54573542D01*
X94065400Y-54429455D01*
X94065400Y-54282545D01*
X94036740Y-54138458D01*
X93981598Y-54005334D01*
X93980521Y-54002733D01*
X93980516Y-54002724D01*
X93898901Y-53880580D01*
X93898898Y-53880576D01*
X93795023Y-53776701D01*
X93795019Y-53776698D01*
X93672875Y-53695083D01*
X93672866Y-53695078D01*
X93537144Y-53638861D01*
X93537145Y-53638861D01*
X93537142Y-53638860D01*
X93537138Y-53638859D01*
X93537134Y-53638858D01*
X93393059Y-53610200D01*
X93393055Y-53610200D01*
X93246145Y-53610200D01*
X93246140Y-53610200D01*
X93102065Y-53638858D01*
X93102055Y-53638861D01*
X92966333Y-53695078D01*
X92966324Y-53695083D01*
X92844180Y-53776698D01*
X92844176Y-53776701D01*
X92740301Y-53880576D01*
X92740298Y-53880580D01*
X92658683Y-54002724D01*
X92658678Y-54002733D01*
X92602461Y-54138455D01*
X92602458Y-54138465D01*
X92573800Y-54282540D01*
X92573800Y-54429459D01*
X92602458Y-54573534D01*
X92602461Y-54573544D01*
X92658678Y-54709266D01*
X92658683Y-54709275D01*
X92740298Y-54831419D01*
X92740301Y-54831423D01*
X92844176Y-54935298D01*
X92844180Y-54935301D01*
X92966324Y-55016916D01*
X92966330Y-55016919D01*
X92966331Y-55016920D01*
X93102058Y-55073140D01*
X93246140Y-55101799D01*
X93246144Y-55101800D01*
X93378055Y-55101800D01*
X93445094Y-55121485D01*
X93490849Y-55174289D01*
X93500793Y-55243447D01*
X93492616Y-55273253D01*
X93464263Y-55341702D01*
X93464261Y-55341710D01*
X93433500Y-55496353D01*
X93433500Y-55654046D01*
X93464261Y-55808689D01*
X93464264Y-55808701D01*
X93524602Y-55954372D01*
X93524609Y-55954385D01*
X93612210Y-56085488D01*
X93612213Y-56085492D01*
X93723707Y-56196986D01*
X93723711Y-56196989D01*
X93854814Y-56284590D01*
X93854827Y-56284597D01*
X93973664Y-56333820D01*
X94000503Y-56344937D01*
X94155153Y-56375699D01*
X94155156Y-56375700D01*
X94155158Y-56375700D01*
X94312844Y-56375700D01*
X94312845Y-56375699D01*
X94467497Y-56344937D01*
X94613179Y-56284594D01*
X94704765Y-56223397D01*
X94771442Y-56202520D01*
X94773656Y-56202500D01*
X100098853Y-56202500D01*
X100165892Y-56222185D01*
X100209338Y-56270206D01*
X100241749Y-56333817D01*
X100366690Y-56505786D01*
X100517013Y-56656109D01*
X100688979Y-56781048D01*
X100688981Y-56781049D01*
X100688984Y-56781051D01*
X100878388Y-56877557D01*
X101080557Y-56943246D01*
X101290513Y-56976500D01*
X101290514Y-56976500D01*
X101503086Y-56976500D01*
X101503087Y-56976500D01*
X101713043Y-56943246D01*
X101780942Y-56921183D01*
X101796153Y-56920749D01*
X101810413Y-56915431D01*
X101830368Y-56919772D01*
X101850782Y-56919189D01*
X101864868Y-56927277D01*
X101878686Y-56930283D01*
X101906940Y-56951434D01*
X102003181Y-57047675D01*
X102036666Y-57108998D01*
X102039500Y-57135356D01*
X102039500Y-58355509D01*
X102039499Y-58355527D01*
X102039499Y-58363122D01*
X102039499Y-58514916D01*
X102058076Y-58584243D01*
X102061627Y-58597497D01*
X102078787Y-58661541D01*
X102078788Y-58661542D01*
X102091992Y-58684412D01*
X102154685Y-58792999D01*
X102154687Y-58793001D01*
X102269085Y-58907399D01*
X102269091Y-58907404D01*
X103655325Y-60293638D01*
X103655335Y-60293649D01*
X103659665Y-60297979D01*
X103659666Y-60297980D01*
X103767001Y-60405315D01*
X103888702Y-60475579D01*
X103898460Y-60481213D01*
X103901211Y-60481950D01*
X103909786Y-60486411D01*
X103916542Y-60492901D01*
X103940242Y-60508736D01*
X105559181Y-62127675D01*
X105592666Y-62188998D01*
X105595500Y-62215356D01*
X105595500Y-63521292D01*
X105595499Y-63521310D01*
X105595499Y-63680698D01*
X105601962Y-63704816D01*
X105601963Y-63704820D01*
X105634787Y-63827324D01*
X105634788Y-63827325D01*
X105710685Y-63958782D01*
X105710687Y-63958784D01*
X105825085Y-64073182D01*
X105825091Y-64073187D01*
X106160342Y-64408438D01*
X106160352Y-64408449D01*
X106164682Y-64412779D01*
X106164683Y-64412780D01*
X106272018Y-64520115D01*
X106376185Y-64580256D01*
X106403477Y-64596013D01*
X106550101Y-64635301D01*
X106643845Y-64635301D01*
X106710884Y-64654986D01*
X106731526Y-64671620D01*
X107238181Y-65178275D01*
X107271666Y-65239598D01*
X107274500Y-65265956D01*
X107274500Y-67173090D01*
X107274497Y-67173099D01*
X107274499Y-67173099D01*
X107274499Y-67332495D01*
X107275560Y-67340553D01*
X107274746Y-67340660D01*
X107277100Y-67358527D01*
X107277100Y-67467664D01*
X107257415Y-67534703D01*
X107204611Y-67580458D01*
X107135453Y-67590402D01*
X107128910Y-67589282D01*
X107069710Y-67577507D01*
X107007799Y-67545122D01*
X106973224Y-67484407D01*
X106969900Y-67455889D01*
X106969900Y-67258498D01*
X106969901Y-67258485D01*
X106969901Y-67096703D01*
X106969900Y-67096699D01*
X106955925Y-67044540D01*
X106951700Y-67012448D01*
X106951700Y-66319704D01*
X106951700Y-66319702D01*
X106912413Y-66173079D01*
X106836515Y-66041620D01*
X106729180Y-65934285D01*
X106729179Y-65934284D01*
X106724849Y-65929954D01*
X106724838Y-65929944D01*
X106646441Y-65851547D01*
X106612956Y-65790224D01*
X106612519Y-65788129D01*
X106608389Y-65767362D01*
X106600162Y-65747500D01*
X106548049Y-65621686D01*
X106548042Y-65621673D01*
X106460441Y-65490570D01*
X106460438Y-65490566D01*
X106348944Y-65379072D01*
X106348940Y-65379069D01*
X106217837Y-65291468D01*
X106217824Y-65291461D01*
X106072153Y-65231123D01*
X106072141Y-65231120D01*
X105917497Y-65200359D01*
X105917494Y-65200359D01*
X105759810Y-65200359D01*
X105754900Y-65200359D01*
X105746214Y-65197808D01*
X105737253Y-65199097D01*
X105713212Y-65188118D01*
X105687861Y-65180674D01*
X105681933Y-65173833D01*
X105673697Y-65170072D01*
X105659407Y-65147837D01*
X105642106Y-65127870D01*
X105639818Y-65117355D01*
X105635923Y-65111294D01*
X105630900Y-65076359D01*
X105630900Y-64965621D01*
X105633283Y-64941429D01*
X105651700Y-64848844D01*
X105651700Y-64691155D01*
X105651699Y-64691153D01*
X105637428Y-64619408D01*
X105620937Y-64536503D01*
X105585783Y-64451633D01*
X105560597Y-64390827D01*
X105560590Y-64390814D01*
X105472989Y-64259711D01*
X105472986Y-64259707D01*
X105361492Y-64148213D01*
X105361488Y-64148210D01*
X105230385Y-64060609D01*
X105230372Y-64060602D01*
X105084701Y-64000264D01*
X105084689Y-64000261D01*
X104930045Y-63969500D01*
X104930042Y-63969500D01*
X104772358Y-63969500D01*
X104772355Y-63969500D01*
X104617710Y-64000261D01*
X104617698Y-64000264D01*
X104472027Y-64060602D01*
X104472014Y-64060609D01*
X104340911Y-64148210D01*
X104340907Y-64148213D01*
X104229413Y-64259707D01*
X104229410Y-64259711D01*
X104141809Y-64390814D01*
X104141802Y-64390827D01*
X104081464Y-64536498D01*
X104081461Y-64536510D01*
X104050700Y-64691153D01*
X104050700Y-64848846D01*
X104081461Y-65003489D01*
X104081464Y-65003501D01*
X104141802Y-65149172D01*
X104141809Y-65149185D01*
X104229410Y-65280288D01*
X104229413Y-65280292D01*
X104340908Y-65391787D01*
X104340911Y-65391789D01*
X104422791Y-65446499D01*
X104467596Y-65500110D01*
X104477900Y-65549601D01*
X104477900Y-67480490D01*
X104477899Y-67480508D01*
X104477899Y-67488103D01*
X104477899Y-67639897D01*
X104481984Y-67655142D01*
X104502283Y-67730898D01*
X104517187Y-67786522D01*
X104517188Y-67786523D01*
X104542486Y-67830340D01*
X104593085Y-67917980D01*
X104593087Y-67917982D01*
X104707485Y-68032380D01*
X104707491Y-68032385D01*
X105050283Y-68375177D01*
X105050285Y-68375180D01*
X105157620Y-68482515D01*
X105193964Y-68503498D01*
X105289079Y-68558413D01*
X105435702Y-68597700D01*
X105475444Y-68597700D01*
X105542483Y-68617385D01*
X105563125Y-68634019D01*
X106164039Y-69234933D01*
X106197524Y-69296256D01*
X106197975Y-69346805D01*
X106184300Y-69415553D01*
X106184300Y-69573246D01*
X106215061Y-69727889D01*
X106215064Y-69727901D01*
X106275402Y-69873572D01*
X106275409Y-69873585D01*
X106363010Y-70004688D01*
X106363013Y-70004692D01*
X106474507Y-70116186D01*
X106474511Y-70116189D01*
X106605614Y-70203790D01*
X106605627Y-70203797D01*
X106676948Y-70233339D01*
X106731352Y-70277180D01*
X106753417Y-70343474D01*
X106736138Y-70411173D01*
X106685001Y-70458784D01*
X106629496Y-70471900D01*
X106601155Y-70471900D01*
X106446511Y-70502660D01*
X106446506Y-70502662D01*
X106446504Y-70502662D01*
X106446503Y-70502663D01*
X106422844Y-70512462D01*
X106375396Y-70521900D01*
X106121004Y-70521900D01*
X106073555Y-70512462D01*
X106049897Y-70502663D01*
X106049893Y-70502662D01*
X106049888Y-70502660D01*
X105895245Y-70471900D01*
X105895242Y-70471900D01*
X105737558Y-70471900D01*
X105737555Y-70471900D01*
X105582910Y-70502661D01*
X105582898Y-70502664D01*
X105436604Y-70563261D01*
X105389152Y-70572700D01*
X105054204Y-70572700D01*
X105006755Y-70563262D01*
X104983097Y-70553463D01*
X104983093Y-70553462D01*
X104983088Y-70553460D01*
X104828445Y-70522700D01*
X104828442Y-70522700D01*
X104670758Y-70522700D01*
X104670755Y-70522700D01*
X104516111Y-70553460D01*
X104516106Y-70553462D01*
X104516104Y-70553462D01*
X104516103Y-70553463D01*
X104492444Y-70563262D01*
X104444996Y-70572700D01*
X97136230Y-70572700D01*
X97069191Y-70553015D01*
X97048549Y-70536381D01*
X94306021Y-67793852D01*
X94306020Y-67793851D01*
X94295051Y-67786522D01*
X94232073Y-67744442D01*
X94232072Y-67744441D01*
X94183101Y-67711719D01*
X94183088Y-67711712D01*
X94046517Y-67655143D01*
X94046507Y-67655140D01*
X93901520Y-67626300D01*
X93901518Y-67626300D01*
X93217804Y-67626300D01*
X93170355Y-67616862D01*
X93146697Y-67607063D01*
X93146693Y-67607062D01*
X93146688Y-67607060D01*
X92992045Y-67576300D01*
X92992042Y-67576300D01*
X92834358Y-67576300D01*
X92834355Y-67576300D01*
X92679710Y-67607061D01*
X92679698Y-67607064D01*
X92534027Y-67667402D01*
X92534014Y-67667409D01*
X92402911Y-67755010D01*
X92402907Y-67755013D01*
X92291413Y-67866507D01*
X92291410Y-67866511D01*
X92203809Y-67997614D01*
X92203804Y-67997624D01*
X92158086Y-68107997D01*
X92153453Y-68114930D01*
X92152357Y-68119970D01*
X92131207Y-68148225D01*
X92029049Y-68250382D01*
X91967729Y-68283866D01*
X91941370Y-68286700D01*
X91693804Y-68286700D01*
X91646355Y-68277262D01*
X91622697Y-68267463D01*
X91622693Y-68267462D01*
X91622688Y-68267460D01*
X91468045Y-68236700D01*
X91468042Y-68236700D01*
X91310358Y-68236700D01*
X91310355Y-68236700D01*
X91155711Y-68267460D01*
X91155706Y-68267462D01*
X91155704Y-68267462D01*
X91155703Y-68267463D01*
X91132044Y-68277262D01*
X91084596Y-68286700D01*
X90627004Y-68286700D01*
X90579555Y-68277262D01*
X90555897Y-68267463D01*
X90555893Y-68267462D01*
X90555888Y-68267460D01*
X90401245Y-68236700D01*
X90401242Y-68236700D01*
X90243558Y-68236700D01*
X90243555Y-68236700D01*
X90088910Y-68267461D01*
X90088898Y-68267464D01*
X89943227Y-68327802D01*
X89943214Y-68327809D01*
X89812111Y-68415410D01*
X89812107Y-68415413D01*
X89700613Y-68526907D01*
X89700610Y-68526911D01*
X89613009Y-68658014D01*
X89613002Y-68658027D01*
X89552664Y-68803698D01*
X89552661Y-68803710D01*
X89521900Y-68958353D01*
X84650500Y-68958353D01*
X84650500Y-66469153D01*
X97497500Y-66469153D01*
X97497500Y-66626846D01*
X97528261Y-66781489D01*
X97528264Y-66781501D01*
X97588602Y-66927172D01*
X97588609Y-66927185D01*
X97676210Y-67058288D01*
X97676213Y-67058292D01*
X97787707Y-67169786D01*
X97787711Y-67169789D01*
X97918814Y-67257390D01*
X97918827Y-67257397D01*
X98064498Y-67317735D01*
X98064503Y-67317737D01*
X98219153Y-67348499D01*
X98219156Y-67348500D01*
X98219158Y-67348500D01*
X98231844Y-67348500D01*
X98298883Y-67368185D01*
X98319525Y-67384819D01*
X98899144Y-67964438D01*
X98899154Y-67964449D01*
X98903484Y-67968779D01*
X98903485Y-67968780D01*
X99010820Y-68076115D01*
X99072831Y-68111917D01*
X99142279Y-68152013D01*
X99288903Y-68191301D01*
X99288906Y-68191301D01*
X99448293Y-68191301D01*
X99448309Y-68191300D01*
X99875460Y-68191300D01*
X99942499Y-68210985D01*
X99963136Y-68227614D01*
X100002982Y-68267460D01*
X100022912Y-68287390D01*
X100154014Y-68374990D01*
X100154027Y-68374997D01*
X100299698Y-68435335D01*
X100299703Y-68435337D01*
X100454353Y-68466099D01*
X100454356Y-68466100D01*
X100454358Y-68466100D01*
X100612044Y-68466100D01*
X100612045Y-68466099D01*
X100766697Y-68435337D01*
X100912379Y-68374994D01*
X101043489Y-68287389D01*
X101154989Y-68175889D01*
X101242594Y-68044779D01*
X101302937Y-67899097D01*
X101333700Y-67744442D01*
X101333700Y-67586758D01*
X101333700Y-67586755D01*
X101333699Y-67586753D01*
X101325418Y-67545122D01*
X101302937Y-67432103D01*
X101302935Y-67432098D01*
X101242597Y-67286427D01*
X101242590Y-67286414D01*
X101154989Y-67155311D01*
X101154986Y-67155307D01*
X101043492Y-67043813D01*
X101043488Y-67043810D01*
X100912385Y-66956209D01*
X100912372Y-66956202D01*
X100766701Y-66895864D01*
X100766689Y-66895861D01*
X100612045Y-66865100D01*
X100612042Y-66865100D01*
X100454358Y-66865100D01*
X100454355Y-66865100D01*
X100299710Y-66895861D01*
X100299698Y-66895864D01*
X100154027Y-66956202D01*
X100154015Y-66956209D01*
X100062435Y-67017402D01*
X99995758Y-67038280D01*
X99993544Y-67038300D01*
X99654956Y-67038300D01*
X99587917Y-67018615D01*
X99567275Y-67001981D01*
X99134819Y-66569525D01*
X99101334Y-66508202D01*
X99098500Y-66481844D01*
X99098500Y-66469155D01*
X99098499Y-66469153D01*
X99067737Y-66314503D01*
X99033108Y-66230900D01*
X99007397Y-66168827D01*
X99007390Y-66168814D01*
X98919789Y-66037711D01*
X98919786Y-66037707D01*
X98808292Y-65926213D01*
X98808288Y-65926210D01*
X98677185Y-65838609D01*
X98677172Y-65838602D01*
X98531501Y-65778264D01*
X98531489Y-65778261D01*
X98376845Y-65747500D01*
X98376842Y-65747500D01*
X98219158Y-65747500D01*
X98219155Y-65747500D01*
X98064510Y-65778261D01*
X98064498Y-65778264D01*
X97918827Y-65838602D01*
X97918814Y-65838609D01*
X97787711Y-65926210D01*
X97787707Y-65926213D01*
X97676213Y-66037707D01*
X97676210Y-66037711D01*
X97588609Y-66168814D01*
X97588602Y-66168827D01*
X97528264Y-66314498D01*
X97528261Y-66314510D01*
X97497500Y-66469153D01*
X84650500Y-66469153D01*
X84650500Y-62709953D01*
X96075100Y-62709953D01*
X96075100Y-62867646D01*
X96105861Y-63022289D01*
X96105864Y-63022301D01*
X96166202Y-63167972D01*
X96166209Y-63167984D01*
X96227402Y-63259565D01*
X96248280Y-63326242D01*
X96248300Y-63328456D01*
X96248300Y-64382743D01*
X96228615Y-64449782D01*
X96227402Y-64451633D01*
X96166212Y-64543210D01*
X96166202Y-64543228D01*
X96105864Y-64688898D01*
X96105861Y-64688910D01*
X96075100Y-64843553D01*
X96075100Y-65001246D01*
X96105861Y-65155889D01*
X96105864Y-65155901D01*
X96166202Y-65301572D01*
X96166209Y-65301585D01*
X96253810Y-65432688D01*
X96253813Y-65432692D01*
X96365307Y-65544186D01*
X96365311Y-65544189D01*
X96496414Y-65631790D01*
X96496427Y-65631797D01*
X96642098Y-65692135D01*
X96642103Y-65692137D01*
X96796753Y-65722899D01*
X96796756Y-65722900D01*
X96796758Y-65722900D01*
X96954444Y-65722900D01*
X96954445Y-65722899D01*
X97109097Y-65692137D01*
X97254779Y-65631794D01*
X97385889Y-65544189D01*
X97497389Y-65432689D01*
X97584994Y-65301579D01*
X97645337Y-65155897D01*
X97676100Y-65001242D01*
X97676100Y-64843558D01*
X97676100Y-64843555D01*
X97676099Y-64843553D01*
X97669149Y-64808613D01*
X97645337Y-64688903D01*
X97638178Y-64671620D01*
X97584997Y-64543227D01*
X97584990Y-64543214D01*
X97497389Y-64412111D01*
X97497386Y-64412107D01*
X97437619Y-64352340D01*
X97404134Y-64291017D01*
X97401300Y-64264659D01*
X97401300Y-63446540D01*
X97420985Y-63379501D01*
X97437614Y-63358863D01*
X97497389Y-63299089D01*
X97584994Y-63167979D01*
X97645337Y-63022297D01*
X97676100Y-62867642D01*
X97676100Y-62709958D01*
X97676100Y-62709955D01*
X97676099Y-62709953D01*
X97645338Y-62555310D01*
X97645337Y-62555303D01*
X97645209Y-62554994D01*
X97584997Y-62409627D01*
X97584990Y-62409614D01*
X97497389Y-62278511D01*
X97497386Y-62278507D01*
X97385892Y-62167013D01*
X97385888Y-62167010D01*
X97254785Y-62079409D01*
X97254772Y-62079402D01*
X97109101Y-62019064D01*
X97109089Y-62019061D01*
X96954445Y-61988300D01*
X96954442Y-61988300D01*
X96796758Y-61988300D01*
X96796755Y-61988300D01*
X96642110Y-62019061D01*
X96642098Y-62019064D01*
X96496427Y-62079402D01*
X96496414Y-62079409D01*
X96365311Y-62167010D01*
X96365307Y-62167013D01*
X96253813Y-62278507D01*
X96253810Y-62278511D01*
X96166209Y-62409614D01*
X96166202Y-62409627D01*
X96105864Y-62555298D01*
X96105861Y-62555310D01*
X96075100Y-62709953D01*
X84650500Y-62709953D01*
X84650500Y-61045257D01*
X84670185Y-60978218D01*
X84705609Y-60942155D01*
X84736689Y-60921389D01*
X84848189Y-60809889D01*
X84935794Y-60678779D01*
X84996137Y-60533097D01*
X85026900Y-60378442D01*
X85026900Y-60220758D01*
X85026900Y-60220755D01*
X85000186Y-60086458D01*
X85000185Y-60086456D01*
X84996585Y-60068353D01*
X87489900Y-60068353D01*
X87489900Y-60226046D01*
X87520661Y-60380689D01*
X87520664Y-60380701D01*
X87581002Y-60526372D01*
X87581009Y-60526385D01*
X87668610Y-60657488D01*
X87668613Y-60657492D01*
X87780107Y-60768986D01*
X87780111Y-60768989D01*
X87911214Y-60856590D01*
X87911227Y-60856597D01*
X88008529Y-60896900D01*
X88056903Y-60916937D01*
X88183677Y-60942154D01*
X88211553Y-60947699D01*
X88211556Y-60947700D01*
X88211558Y-60947700D01*
X88369244Y-60947700D01*
X88369245Y-60947699D01*
X88523897Y-60916937D01*
X88669579Y-60856594D01*
X88800689Y-60768989D01*
X88912189Y-60657489D01*
X88999794Y-60526379D01*
X89060137Y-60380697D01*
X89090900Y-60226042D01*
X89090900Y-60068358D01*
X89090900Y-60068355D01*
X89090899Y-60068353D01*
X89080795Y-60017558D01*
X89060137Y-59913703D01*
X89059095Y-59911187D01*
X88999797Y-59768027D01*
X88999790Y-59768014D01*
X88912189Y-59636911D01*
X88912186Y-59636907D01*
X88800692Y-59525413D01*
X88800688Y-59525410D01*
X88669585Y-59437809D01*
X88669572Y-59437802D01*
X88523901Y-59377464D01*
X88523889Y-59377461D01*
X88369245Y-59346700D01*
X88369242Y-59346700D01*
X88211558Y-59346700D01*
X88211555Y-59346700D01*
X88056910Y-59377461D01*
X88056898Y-59377464D01*
X87911227Y-59437802D01*
X87911214Y-59437809D01*
X87780111Y-59525410D01*
X87780107Y-59525413D01*
X87668613Y-59636907D01*
X87668610Y-59636911D01*
X87581009Y-59768014D01*
X87581002Y-59768027D01*
X87520664Y-59913698D01*
X87520661Y-59913710D01*
X87489900Y-60068353D01*
X84996585Y-60068353D01*
X84996137Y-60066103D01*
X84970119Y-60003289D01*
X84935797Y-59920427D01*
X84935790Y-59920414D01*
X84848189Y-59789311D01*
X84848186Y-59789307D01*
X84736692Y-59677813D01*
X84736688Y-59677810D01*
X84605585Y-59590209D01*
X84605572Y-59590202D01*
X84459901Y-59529864D01*
X84459889Y-59529861D01*
X84305245Y-59499100D01*
X84305242Y-59499100D01*
X84147558Y-59499100D01*
X84147555Y-59499100D01*
X83992910Y-59529861D01*
X83992898Y-59529864D01*
X83847227Y-59590202D01*
X83847214Y-59590209D01*
X83716111Y-59677810D01*
X83716107Y-59677813D01*
X83604613Y-59789307D01*
X83604610Y-59789311D01*
X83517009Y-59920414D01*
X83517002Y-59920427D01*
X83456664Y-60066098D01*
X83456661Y-60066110D01*
X83425900Y-60220753D01*
X81018500Y-60220753D01*
X81018500Y-57680753D01*
X85915100Y-57680753D01*
X85915100Y-57838446D01*
X85945861Y-57993089D01*
X85945864Y-57993101D01*
X86006202Y-58138772D01*
X86006209Y-58138785D01*
X86093810Y-58269888D01*
X86093813Y-58269892D01*
X86205307Y-58381386D01*
X86205311Y-58381389D01*
X86336414Y-58468990D01*
X86336427Y-58468997D01*
X86447287Y-58514916D01*
X86482103Y-58529337D01*
X86636753Y-58560099D01*
X86636756Y-58560100D01*
X86636758Y-58560100D01*
X86794444Y-58560100D01*
X86794445Y-58560099D01*
X86949097Y-58529337D01*
X87035488Y-58493553D01*
X91299900Y-58493553D01*
X91299900Y-58651246D01*
X91330661Y-58805889D01*
X91330664Y-58805901D01*
X91391002Y-58951572D01*
X91391009Y-58951585D01*
X91478610Y-59082688D01*
X91478613Y-59082692D01*
X91590107Y-59194186D01*
X91590111Y-59194189D01*
X91721214Y-59281790D01*
X91721227Y-59281797D01*
X91830395Y-59327015D01*
X91866903Y-59342137D01*
X92017265Y-59372046D01*
X92021553Y-59372899D01*
X92021556Y-59372900D01*
X92103659Y-59372900D01*
X92170698Y-59392585D01*
X92216453Y-59445389D01*
X92226397Y-59514547D01*
X92197372Y-59578103D01*
X92191340Y-59584581D01*
X92139013Y-59636907D01*
X92139010Y-59636911D01*
X92051409Y-59768014D01*
X92051402Y-59768027D01*
X91991064Y-59913698D01*
X91991061Y-59913710D01*
X91960300Y-60068353D01*
X91960300Y-60226046D01*
X91991061Y-60380689D01*
X91991064Y-60380701D01*
X92051402Y-60526372D01*
X92051409Y-60526385D01*
X92139010Y-60657488D01*
X92139013Y-60657492D01*
X92250507Y-60768986D01*
X92250511Y-60768989D01*
X92381614Y-60856590D01*
X92381627Y-60856597D01*
X92478929Y-60896900D01*
X92527303Y-60916937D01*
X92654077Y-60942154D01*
X92681953Y-60947699D01*
X92681956Y-60947700D01*
X92681958Y-60947700D01*
X92839644Y-60947700D01*
X92839645Y-60947699D01*
X92994297Y-60916937D01*
X93139979Y-60856594D01*
X93271089Y-60768989D01*
X93382589Y-60657489D01*
X93470194Y-60526379D01*
X93530537Y-60380697D01*
X93561300Y-60226042D01*
X93561300Y-60068358D01*
X93561300Y-60068355D01*
X93561299Y-60068353D01*
X93551195Y-60017558D01*
X93530537Y-59913703D01*
X93529495Y-59911187D01*
X93470197Y-59768027D01*
X93470190Y-59768014D01*
X93382589Y-59636911D01*
X93382586Y-59636907D01*
X93271092Y-59525413D01*
X93271088Y-59525410D01*
X93139985Y-59437809D01*
X93139972Y-59437802D01*
X92994301Y-59377464D01*
X92994289Y-59377461D01*
X92839645Y-59346700D01*
X92839642Y-59346700D01*
X92757541Y-59346700D01*
X92690502Y-59327015D01*
X92644747Y-59274211D01*
X92634803Y-59205053D01*
X92663828Y-59141497D01*
X92669860Y-59135019D01*
X92722186Y-59082692D01*
X92722189Y-59082689D01*
X92809794Y-58951579D01*
X92870137Y-58805897D01*
X92900900Y-58651242D01*
X92900900Y-58493558D01*
X92900900Y-58493555D01*
X92900899Y-58493553D01*
X96278300Y-58493553D01*
X96278300Y-58651246D01*
X96309061Y-58805889D01*
X96309064Y-58805901D01*
X96369402Y-58951572D01*
X96369409Y-58951585D01*
X96457010Y-59082688D01*
X96457013Y-59082692D01*
X96568508Y-59194187D01*
X96568511Y-59194189D01*
X96680392Y-59268945D01*
X96725195Y-59322555D01*
X96735500Y-59372046D01*
X96735500Y-59413246D01*
X96766261Y-59567889D01*
X96766263Y-59567897D01*
X96807705Y-59667947D01*
X96815174Y-59737417D01*
X96807705Y-59762853D01*
X96766263Y-59862902D01*
X96766261Y-59862910D01*
X96735500Y-60017553D01*
X96735500Y-60175246D01*
X96766261Y-60329889D01*
X96766264Y-60329901D01*
X96826602Y-60475572D01*
X96826609Y-60475585D01*
X96914210Y-60606688D01*
X96914213Y-60606692D01*
X97025707Y-60718186D01*
X97025711Y-60718189D01*
X97156814Y-60805790D01*
X97156827Y-60805797D01*
X97279454Y-60856590D01*
X97302503Y-60866137D01*
X97457153Y-60896899D01*
X97457156Y-60896900D01*
X97457158Y-60896900D01*
X97614844Y-60896900D01*
X97614845Y-60896899D01*
X97769497Y-60866137D01*
X97882166Y-60819467D01*
X97915172Y-60805797D01*
X97915172Y-60805796D01*
X97915179Y-60805794D01*
X98046289Y-60718189D01*
X98157789Y-60606689D01*
X98245394Y-60475579D01*
X98305737Y-60329897D01*
X98336500Y-60175242D01*
X98336500Y-60017558D01*
X98336500Y-60017555D01*
X98336499Y-60017553D01*
X98333662Y-60003289D01*
X98305737Y-59862903D01*
X98264294Y-59762852D01*
X98256826Y-59693383D01*
X98264295Y-59667947D01*
X98305737Y-59567897D01*
X98336500Y-59413242D01*
X98336500Y-59255558D01*
X98336500Y-59255555D01*
X98336499Y-59255553D01*
X98305737Y-59100903D01*
X98282910Y-59045793D01*
X98245397Y-58955227D01*
X98245390Y-58955214D01*
X98157789Y-58824111D01*
X98157786Y-58824107D01*
X98046289Y-58712610D01*
X97934409Y-58637855D01*
X97889604Y-58584243D01*
X97879300Y-58534753D01*
X97879300Y-58493555D01*
X97879299Y-58493553D01*
X97857580Y-58384364D01*
X97848537Y-58338903D01*
X97819951Y-58269889D01*
X97788197Y-58193227D01*
X97788190Y-58193214D01*
X97700589Y-58062111D01*
X97700586Y-58062107D01*
X97589092Y-57950613D01*
X97589088Y-57950610D01*
X97457985Y-57863009D01*
X97457972Y-57863002D01*
X97312301Y-57802664D01*
X97312289Y-57802661D01*
X97157645Y-57771900D01*
X97157642Y-57771900D01*
X96999958Y-57771900D01*
X96999955Y-57771900D01*
X96845310Y-57802661D01*
X96845298Y-57802664D01*
X96699627Y-57863002D01*
X96699614Y-57863009D01*
X96568511Y-57950610D01*
X96568507Y-57950613D01*
X96457013Y-58062107D01*
X96457010Y-58062111D01*
X96369409Y-58193214D01*
X96369402Y-58193227D01*
X96309064Y-58338898D01*
X96309061Y-58338910D01*
X96278300Y-58493553D01*
X92900899Y-58493553D01*
X92879180Y-58384364D01*
X92870137Y-58338903D01*
X92841551Y-58269889D01*
X92809797Y-58193227D01*
X92809790Y-58193214D01*
X92722189Y-58062111D01*
X92722186Y-58062107D01*
X92610692Y-57950613D01*
X92610688Y-57950610D01*
X92479585Y-57863009D01*
X92479572Y-57863002D01*
X92333901Y-57802664D01*
X92333889Y-57802661D01*
X92179245Y-57771900D01*
X92179242Y-57771900D01*
X92021558Y-57771900D01*
X92021555Y-57771900D01*
X91866910Y-57802661D01*
X91866898Y-57802664D01*
X91721227Y-57863002D01*
X91721214Y-57863009D01*
X91590111Y-57950610D01*
X91590107Y-57950613D01*
X91478613Y-58062107D01*
X91478610Y-58062111D01*
X91391009Y-58193214D01*
X91391002Y-58193227D01*
X91330664Y-58338898D01*
X91330661Y-58338910D01*
X91299900Y-58493553D01*
X87035488Y-58493553D01*
X87062793Y-58482243D01*
X87094772Y-58468997D01*
X87094772Y-58468996D01*
X87094779Y-58468994D01*
X87094785Y-58468990D01*
X87221437Y-58384364D01*
X87221438Y-58384363D01*
X87225889Y-58381389D01*
X87337389Y-58269889D01*
X87424994Y-58138779D01*
X87485337Y-57993097D01*
X87516100Y-57838442D01*
X87516100Y-57680758D01*
X87516100Y-57680755D01*
X87516099Y-57680753D01*
X87489470Y-57546882D01*
X87485337Y-57526103D01*
X87485209Y-57525794D01*
X87424997Y-57380427D01*
X87424990Y-57380414D01*
X87337389Y-57249311D01*
X87337386Y-57249307D01*
X87225892Y-57137813D01*
X87225888Y-57137810D01*
X87094785Y-57050209D01*
X87094772Y-57050202D01*
X86949101Y-56989864D01*
X86949089Y-56989861D01*
X86794445Y-56959100D01*
X86794442Y-56959100D01*
X86636758Y-56959100D01*
X86636755Y-56959100D01*
X86482110Y-56989861D01*
X86482098Y-56989864D01*
X86336427Y-57050202D01*
X86336414Y-57050209D01*
X86205311Y-57137810D01*
X86205307Y-57137813D01*
X86093813Y-57249307D01*
X86093810Y-57249311D01*
X86006209Y-57380414D01*
X86006202Y-57380427D01*
X85945864Y-57526098D01*
X85945861Y-57526110D01*
X85915100Y-57680753D01*
X81018500Y-57680753D01*
X81018500Y-54282540D01*
X90541800Y-54282540D01*
X90541800Y-54429459D01*
X90570458Y-54573534D01*
X90570461Y-54573544D01*
X90626678Y-54709266D01*
X90626683Y-54709275D01*
X90708298Y-54831419D01*
X90708301Y-54831423D01*
X90812176Y-54935298D01*
X90812180Y-54935301D01*
X90934324Y-55016916D01*
X90934330Y-55016919D01*
X90934331Y-55016920D01*
X91070058Y-55073140D01*
X91214140Y-55101799D01*
X91214144Y-55101800D01*
X91214145Y-55101800D01*
X91361056Y-55101800D01*
X91361057Y-55101799D01*
X91505142Y-55073140D01*
X91640869Y-55016920D01*
X91763020Y-54935301D01*
X91866901Y-54831420D01*
X91948520Y-54709269D01*
X92004740Y-54573542D01*
X92033400Y-54429455D01*
X92033400Y-54282545D01*
X92004740Y-54138458D01*
X91949598Y-54005334D01*
X91948521Y-54002733D01*
X91948516Y-54002724D01*
X91866901Y-53880580D01*
X91866898Y-53880576D01*
X91763023Y-53776701D01*
X91763019Y-53776698D01*
X91640875Y-53695083D01*
X91640866Y-53695078D01*
X91505144Y-53638861D01*
X91505145Y-53638861D01*
X91505142Y-53638860D01*
X91505138Y-53638859D01*
X91505134Y-53638858D01*
X91361059Y-53610200D01*
X91361055Y-53610200D01*
X91214145Y-53610200D01*
X91214140Y-53610200D01*
X91070065Y-53638858D01*
X91070055Y-53638861D01*
X90934333Y-53695078D01*
X90934324Y-53695083D01*
X90812180Y-53776698D01*
X90812176Y-53776701D01*
X90708301Y-53880576D01*
X90708298Y-53880580D01*
X90626683Y-54002724D01*
X90626678Y-54002733D01*
X90570461Y-54138455D01*
X90570458Y-54138465D01*
X90541800Y-54282540D01*
X81018500Y-54282540D01*
X81018500Y-52337831D01*
X88325650Y-52337831D01*
X88325650Y-52564168D01*
X88361058Y-52787722D01*
X88361058Y-52787725D01*
X88430998Y-53002978D01*
X88431000Y-53002981D01*
X88533755Y-53204650D01*
X88666793Y-53387761D01*
X88826839Y-53547807D01*
X89009950Y-53680845D01*
X89211619Y-53783600D01*
X89211621Y-53783601D01*
X89412401Y-53848837D01*
X89426879Y-53853542D01*
X89650431Y-53888950D01*
X89650432Y-53888950D01*
X89876768Y-53888950D01*
X89876769Y-53888950D01*
X90100321Y-53853542D01*
X90100324Y-53853541D01*
X90100325Y-53853541D01*
X90315578Y-53783601D01*
X90315578Y-53783600D01*
X90315581Y-53783600D01*
X90517250Y-53680845D01*
X90700361Y-53547807D01*
X90860407Y-53387761D01*
X90993445Y-53204650D01*
X91096200Y-53002981D01*
X91166142Y-52787721D01*
X91201550Y-52564169D01*
X91201550Y-52337831D01*
X93405650Y-52337831D01*
X93405650Y-52564168D01*
X93441058Y-52787722D01*
X93441058Y-52787725D01*
X93510998Y-53002978D01*
X93511000Y-53002981D01*
X93613755Y-53204650D01*
X93746793Y-53387761D01*
X93906839Y-53547807D01*
X94089950Y-53680845D01*
X94291619Y-53783600D01*
X94291621Y-53783601D01*
X94492401Y-53848837D01*
X94506879Y-53853542D01*
X94730431Y-53888950D01*
X94730432Y-53888950D01*
X94956768Y-53888950D01*
X94956769Y-53888950D01*
X95180321Y-53853542D01*
X95180324Y-53853541D01*
X95180325Y-53853541D01*
X95395578Y-53783601D01*
X95395578Y-53783600D01*
X95395581Y-53783600D01*
X95597250Y-53680845D01*
X95780361Y-53547807D01*
X95940407Y-53387761D01*
X96073445Y-53204650D01*
X96176200Y-53002981D01*
X96246142Y-52787721D01*
X96281550Y-52564169D01*
X96281550Y-52337831D01*
X96246142Y-52114279D01*
X96246141Y-52114275D01*
X96246141Y-52114274D01*
X96176201Y-51899021D01*
X96176199Y-51899018D01*
X96173280Y-51893288D01*
X96073445Y-51697350D01*
X95940407Y-51514239D01*
X95780361Y-51354193D01*
X95597250Y-51221155D01*
X95395581Y-51118400D01*
X95395578Y-51118398D01*
X95180323Y-51048458D01*
X95031286Y-51024852D01*
X94956769Y-51013050D01*
X94730431Y-51013050D01*
X94655913Y-51024852D01*
X94506877Y-51048458D01*
X94506874Y-51048458D01*
X94291621Y-51118398D01*
X94291618Y-51118400D01*
X94089949Y-51221155D01*
X93985478Y-51297058D01*
X93906839Y-51354193D01*
X93906837Y-51354195D01*
X93906836Y-51354195D01*
X93746795Y-51514236D01*
X93746795Y-51514237D01*
X93746793Y-51514239D01*
X93689658Y-51592878D01*
X93613755Y-51697349D01*
X93511000Y-51899018D01*
X93510998Y-51899021D01*
X93441058Y-52114274D01*
X93441058Y-52114277D01*
X93405650Y-52337831D01*
X91201550Y-52337831D01*
X91166142Y-52114279D01*
X91166141Y-52114275D01*
X91166141Y-52114274D01*
X91096201Y-51899021D01*
X91096199Y-51899018D01*
X91093280Y-51893288D01*
X90993445Y-51697350D01*
X90860407Y-51514239D01*
X90700361Y-51354193D01*
X90517250Y-51221155D01*
X90315581Y-51118400D01*
X90315578Y-51118398D01*
X90100323Y-51048458D01*
X89951286Y-51024852D01*
X89876769Y-51013050D01*
X89650431Y-51013050D01*
X89575913Y-51024852D01*
X89426877Y-51048458D01*
X89426874Y-51048458D01*
X89211621Y-51118398D01*
X89211618Y-51118400D01*
X89009949Y-51221155D01*
X88905478Y-51297058D01*
X88826839Y-51354193D01*
X88826837Y-51354195D01*
X88826836Y-51354195D01*
X88666795Y-51514236D01*
X88666795Y-51514237D01*
X88666793Y-51514239D01*
X88609658Y-51592878D01*
X88533755Y-51697349D01*
X88431000Y-51899018D01*
X88430998Y-51899021D01*
X88361058Y-52114274D01*
X88361058Y-52114277D01*
X88325650Y-52337831D01*
X81018500Y-52337831D01*
X81018500Y-48560113D01*
X82266300Y-48560113D01*
X82266300Y-48772686D01*
X82291344Y-48930812D01*
X82299554Y-48982643D01*
X82344254Y-49120216D01*
X82365244Y-49184814D01*
X82461751Y-49374220D01*
X82586690Y-49546186D01*
X82737013Y-49696509D01*
X82908979Y-49821448D01*
X82908981Y-49821449D01*
X82908984Y-49821451D01*
X83098388Y-49917957D01*
X83300557Y-49983646D01*
X83510513Y-50016900D01*
X83510514Y-50016900D01*
X83723086Y-50016900D01*
X83723087Y-50016900D01*
X83933043Y-49983646D01*
X84135212Y-49917957D01*
X84324616Y-49821451D01*
X84421002Y-49751423D01*
X84496586Y-49696509D01*
X84496588Y-49696506D01*
X84496592Y-49696504D01*
X84646904Y-49546192D01*
X84646906Y-49546188D01*
X84646909Y-49546186D01*
X84771848Y-49374220D01*
X84771847Y-49374220D01*
X84771851Y-49374216D01*
X84868357Y-49184812D01*
X84934046Y-48982643D01*
X84967300Y-48772687D01*
X84967300Y-48560113D01*
X84934046Y-48350157D01*
X84868357Y-48147988D01*
X84771851Y-47958584D01*
X84771849Y-47958581D01*
X84771848Y-47958579D01*
X84646909Y-47786613D01*
X84496586Y-47636290D01*
X84324620Y-47511351D01*
X84135214Y-47414844D01*
X84135213Y-47414843D01*
X84135212Y-47414843D01*
X83933043Y-47349154D01*
X83933041Y-47349153D01*
X83933040Y-47349153D01*
X83771757Y-47323608D01*
X83723087Y-47315900D01*
X83510513Y-47315900D01*
X83461842Y-47323608D01*
X83300560Y-47349153D01*
X83098385Y-47414844D01*
X82908979Y-47511351D01*
X82737013Y-47636290D01*
X82586690Y-47786613D01*
X82461751Y-47958579D01*
X82365244Y-48147985D01*
X82299553Y-48350160D01*
X82266300Y-48560113D01*
X81018500Y-48560113D01*
X81018500Y-47266753D01*
X88302700Y-47266753D01*
X88302700Y-47424446D01*
X88333461Y-47579089D01*
X88333464Y-47579101D01*
X88393802Y-47724772D01*
X88393809Y-47724785D01*
X88481410Y-47855888D01*
X88481413Y-47855892D01*
X88592907Y-47967386D01*
X88592911Y-47967389D01*
X88724016Y-48054991D01*
X88724018Y-48054992D01*
X88724021Y-48054994D01*
X88724023Y-48054995D01*
X88724498Y-48055249D01*
X88724703Y-48055450D01*
X88729086Y-48058379D01*
X88728530Y-48059209D01*
X88774347Y-48104206D01*
X88789815Y-48172342D01*
X88765990Y-48238024D01*
X88753738Y-48252294D01*
X88666792Y-48339240D01*
X88533755Y-48522349D01*
X88431004Y-48724010D01*
X88430998Y-48724021D01*
X88361058Y-48939274D01*
X88361058Y-48939277D01*
X88342182Y-49058455D01*
X88325650Y-49162831D01*
X88325650Y-49389169D01*
X88342180Y-49493534D01*
X88361058Y-49612722D01*
X88361058Y-49612725D01*
X88430998Y-49827978D01*
X88431000Y-49827981D01*
X88533755Y-50029650D01*
X88666793Y-50212761D01*
X88826839Y-50372807D01*
X89009950Y-50505845D01*
X89211619Y-50608600D01*
X89211621Y-50608601D01*
X89412401Y-50673837D01*
X89426879Y-50678542D01*
X89650431Y-50713950D01*
X89650432Y-50713950D01*
X89876768Y-50713950D01*
X89876769Y-50713950D01*
X90100321Y-50678542D01*
X90100324Y-50678541D01*
X90100325Y-50678541D01*
X90315578Y-50608601D01*
X90315578Y-50608600D01*
X90315581Y-50608600D01*
X90517250Y-50505845D01*
X90700361Y-50372807D01*
X90860407Y-50212761D01*
X90993445Y-50029650D01*
X91096200Y-49827981D01*
X91121076Y-49751420D01*
X91166141Y-49612725D01*
X91166141Y-49612724D01*
X91166142Y-49612721D01*
X91201550Y-49389169D01*
X91201550Y-49202540D01*
X91557800Y-49202540D01*
X91557800Y-49349459D01*
X91586458Y-49493534D01*
X91586461Y-49493544D01*
X91642678Y-49629266D01*
X91642683Y-49629275D01*
X91724298Y-49751419D01*
X91724301Y-49751423D01*
X91828176Y-49855298D01*
X91828180Y-49855301D01*
X91950324Y-49936916D01*
X91950330Y-49936919D01*
X91950331Y-49936920D01*
X92086058Y-49993140D01*
X92230140Y-50021799D01*
X92230144Y-50021800D01*
X92230145Y-50021800D01*
X92377056Y-50021800D01*
X92377057Y-50021799D01*
X92521142Y-49993140D01*
X92656869Y-49936920D01*
X92779020Y-49855301D01*
X92882901Y-49751420D01*
X92964520Y-49629269D01*
X93020740Y-49493542D01*
X93049400Y-49349455D01*
X93049400Y-49202545D01*
X93045343Y-49182148D01*
X93045343Y-49182146D01*
X93041501Y-49162831D01*
X93405650Y-49162831D01*
X93405650Y-49389169D01*
X93422180Y-49493534D01*
X93441058Y-49612722D01*
X93441058Y-49612725D01*
X93510998Y-49827978D01*
X93511000Y-49827981D01*
X93613755Y-50029650D01*
X93746793Y-50212761D01*
X93906839Y-50372807D01*
X94089950Y-50505845D01*
X94291619Y-50608600D01*
X94291621Y-50608601D01*
X94492401Y-50673837D01*
X94506879Y-50678542D01*
X94730431Y-50713950D01*
X94730432Y-50713950D01*
X94956768Y-50713950D01*
X94956769Y-50713950D01*
X95180321Y-50678542D01*
X95180324Y-50678541D01*
X95180325Y-50678541D01*
X95395578Y-50608601D01*
X95395578Y-50608600D01*
X95395581Y-50608600D01*
X95597250Y-50505845D01*
X95780361Y-50372807D01*
X95940407Y-50212761D01*
X96073445Y-50029650D01*
X96176200Y-49827981D01*
X96201076Y-49751420D01*
X96246141Y-49612725D01*
X96246141Y-49612724D01*
X96246142Y-49612721D01*
X96281550Y-49389169D01*
X96281550Y-49162831D01*
X96246142Y-48939279D01*
X96246141Y-48939275D01*
X96246141Y-48939274D01*
X96176201Y-48724021D01*
X96176196Y-48724010D01*
X96092048Y-48558861D01*
X96073445Y-48522350D01*
X95940407Y-48339239D01*
X95907281Y-48306113D01*
X124379500Y-48306113D01*
X124379500Y-48518687D01*
X124385863Y-48558858D01*
X124412021Y-48724019D01*
X124412754Y-48728643D01*
X124475817Y-48922731D01*
X124478444Y-48930814D01*
X124574951Y-49120220D01*
X124699890Y-49292186D01*
X124850213Y-49442509D01*
X125022179Y-49567448D01*
X125022181Y-49567449D01*
X125022184Y-49567451D01*
X125211588Y-49663957D01*
X125413757Y-49729646D01*
X125623713Y-49762900D01*
X125623714Y-49762900D01*
X125836286Y-49762900D01*
X125836287Y-49762900D01*
X126046243Y-49729646D01*
X126248412Y-49663957D01*
X126437816Y-49567451D01*
X126539555Y-49493534D01*
X126609786Y-49442509D01*
X126609788Y-49442506D01*
X126609792Y-49442504D01*
X126760104Y-49292192D01*
X126760106Y-49292188D01*
X126760109Y-49292186D01*
X126885048Y-49120220D01*
X126885047Y-49120220D01*
X126885051Y-49120216D01*
X126981557Y-48930812D01*
X127047246Y-48728643D01*
X127080500Y-48518687D01*
X127080500Y-48306113D01*
X127047246Y-48096157D01*
X126981557Y-47893988D01*
X126885051Y-47704584D01*
X126885049Y-47704581D01*
X126885048Y-47704579D01*
X126760109Y-47532613D01*
X126609786Y-47382290D01*
X126437820Y-47257351D01*
X126248414Y-47160844D01*
X126248413Y-47160843D01*
X126248412Y-47160843D01*
X126046243Y-47095154D01*
X126046241Y-47095153D01*
X126046240Y-47095153D01*
X125884957Y-47069608D01*
X125836287Y-47061900D01*
X125623713Y-47061900D01*
X125575042Y-47069608D01*
X125413760Y-47095153D01*
X125211585Y-47160844D01*
X125022179Y-47257351D01*
X124850213Y-47382290D01*
X124699890Y-47532613D01*
X124574951Y-47704579D01*
X124478444Y-47893985D01*
X124412753Y-48096160D01*
X124399602Y-48179193D01*
X124379500Y-48306113D01*
X95907281Y-48306113D01*
X95780361Y-48179193D01*
X95597250Y-48046155D01*
X95395581Y-47943400D01*
X95395578Y-47943398D01*
X95180323Y-47873458D01*
X95031286Y-47849852D01*
X94956769Y-47838050D01*
X94730431Y-47838050D01*
X94655913Y-47849852D01*
X94506877Y-47873458D01*
X94506874Y-47873458D01*
X94291621Y-47943398D01*
X94291618Y-47943400D01*
X94089949Y-48046155D01*
X93994729Y-48115337D01*
X93906839Y-48179193D01*
X93906837Y-48179195D01*
X93906836Y-48179195D01*
X93746795Y-48339236D01*
X93746795Y-48339237D01*
X93746793Y-48339239D01*
X93689658Y-48417878D01*
X93613755Y-48522349D01*
X93511004Y-48724010D01*
X93510998Y-48724021D01*
X93441058Y-48939274D01*
X93441058Y-48939277D01*
X93422182Y-49058455D01*
X93405650Y-49162831D01*
X93041501Y-49162831D01*
X93020741Y-49058465D01*
X93020740Y-49058458D01*
X92964520Y-48922731D01*
X92964519Y-48922730D01*
X92964516Y-48922724D01*
X92882901Y-48800580D01*
X92882898Y-48800576D01*
X92779023Y-48696701D01*
X92779019Y-48696698D01*
X92656875Y-48615083D01*
X92656866Y-48615078D01*
X92521144Y-48558861D01*
X92521145Y-48558861D01*
X92521142Y-48558860D01*
X92521138Y-48558859D01*
X92521134Y-48558858D01*
X92377059Y-48530200D01*
X92377055Y-48530200D01*
X92230145Y-48530200D01*
X92230140Y-48530200D01*
X92086065Y-48558858D01*
X92086055Y-48558861D01*
X91950333Y-48615078D01*
X91950324Y-48615083D01*
X91828180Y-48696698D01*
X91828176Y-48696701D01*
X91724301Y-48800576D01*
X91724298Y-48800580D01*
X91642683Y-48922724D01*
X91642678Y-48922733D01*
X91586461Y-49058455D01*
X91586458Y-49058465D01*
X91557800Y-49202540D01*
X91201550Y-49202540D01*
X91201550Y-49162831D01*
X91166142Y-48939279D01*
X91166141Y-48939275D01*
X91166141Y-48939274D01*
X91096201Y-48724021D01*
X91096196Y-48724010D01*
X91012048Y-48558861D01*
X90993445Y-48522350D01*
X90860407Y-48339239D01*
X90700361Y-48179193D01*
X90700359Y-48179192D01*
X90699265Y-48178257D01*
X90698964Y-48177796D01*
X90696916Y-48175748D01*
X90697346Y-48175317D01*
X90661076Y-48119748D01*
X90660582Y-48049880D01*
X90697939Y-47990836D01*
X90710916Y-47980868D01*
X90731086Y-47967391D01*
X90731085Y-47967391D01*
X90731089Y-47967389D01*
X90842589Y-47855889D01*
X90930194Y-47724779D01*
X90990537Y-47579097D01*
X91021300Y-47424442D01*
X91021300Y-47266758D01*
X91021300Y-47266755D01*
X91021299Y-47266753D01*
X90990538Y-47112110D01*
X90990537Y-47112103D01*
X90983516Y-47095153D01*
X90930197Y-46966427D01*
X90930190Y-46966414D01*
X90842589Y-46835311D01*
X90842586Y-46835307D01*
X90731092Y-46723813D01*
X90731088Y-46723810D01*
X90599985Y-46636209D01*
X90599972Y-46636202D01*
X90454301Y-46575864D01*
X90454289Y-46575861D01*
X90299645Y-46545100D01*
X90299642Y-46545100D01*
X90141958Y-46545100D01*
X90141955Y-46545100D01*
X89987310Y-46575861D01*
X89987298Y-46575864D01*
X89841627Y-46636202D01*
X89841614Y-46636209D01*
X89730891Y-46710193D01*
X89664213Y-46731071D01*
X89596833Y-46712587D01*
X89593109Y-46710193D01*
X89482385Y-46636209D01*
X89482372Y-46636202D01*
X89336701Y-46575864D01*
X89336689Y-46575861D01*
X89182045Y-46545100D01*
X89182042Y-46545100D01*
X89024358Y-46545100D01*
X89024355Y-46545100D01*
X88869710Y-46575861D01*
X88869698Y-46575864D01*
X88724027Y-46636202D01*
X88724014Y-46636209D01*
X88592911Y-46723810D01*
X88592907Y-46723813D01*
X88481413Y-46835307D01*
X88481410Y-46835311D01*
X88393809Y-46966414D01*
X88393802Y-46966427D01*
X88333464Y-47112098D01*
X88333461Y-47112110D01*
X88302700Y-47266753D01*
X81018500Y-47266753D01*
X81018500Y-46090500D01*
X81038185Y-46023461D01*
X81090989Y-45977706D01*
X81142500Y-45966500D01*
X128204300Y-45966500D01*
X128271339Y-45986185D01*
G37*
%TD.AperFunction*%
%TD*%
M02*
