M48
; DRILL file {KiCad 9.0.6} date 2025-11-15T14:07:07+0500
; FORMAT={3:3/ absolute / metric / suppress leading zeros}
; #@! TF.CreationDate,2025-11-15T14:07:07+05:00
; #@! TF.GenerationSoftware,Kicad,Pcbnew,9.0.6
; #@! TF.FileFunction,Plated,1,4,PTH
FMAT,2
METRIC,TZ
; #@! TA.AperFunction,Plated,PTH,ViaDrill
T1C0.300
; #@! TA.AperFunction,Plated,PTH,ComponentDrill
T2C0.300
; #@! TA.AperFunction,Plated,PTH,ComponentDrill
T3C0.500
; #@! TA.AperFunction,Plated,PTH,ComponentDrill
T4C1.000
%
G90
G05
T1
X82855Y-54254
X82855Y-56388
X84226Y-60300
X84836Y-54254
X84836Y-56388
X85242Y-80924
X85293Y-82702
X86157Y-81737
X86208Y-71577
X86563Y-51003
X86563Y-52476
X86716Y-57760
X86716Y-88748
X86716Y-89764
X86766Y-87427
X88290Y-60147
X88494Y-93777
X88544Y-95453
X89103Y-47346
X89408Y-54458
X89662Y-74371
X90068Y-84785
X90068Y-85852
X90119Y-72542
X90170Y-73457
X90221Y-47346
X90221Y-54610
X90322Y-69037
X90780Y-72441
X90983Y-84785
X90983Y-85852
X91237Y-76556
X91389Y-69037
X91491Y-72339
X91846Y-84785
X91846Y-85852
X92100Y-58572
X92304Y-69037
X92354Y-76149
X92761Y-60147
X92913Y-68377
X93015Y-74981
X93320Y-71272
X93320Y-72288
X94132Y-79299
X94234Y-55575
X94386Y-77521
X94386Y-82194
X95301Y-81585
X96876Y-62789
X96876Y-64922
X97079Y-58572
X97434Y-73406
X97434Y-76454
X97536Y-59334
X97536Y-60096
X97993Y-86258
X98298Y-66548
X98857Y-93726
X98857Y-95555
X100533Y-67666
X101194Y-72847
X101498Y-76708
X101752Y-75489
X101814Y-81573
X102311Y-72847
X102565Y-75489
X103581Y-72847
X103683Y-75489
X103734Y-48819
X104699Y-72847
X104750Y-71323
X104851Y-64770
X104953Y-79858
X105105Y-76505
X105359Y-73304
X105410Y-48819
X105562Y-59487
X105816Y-67412
X105816Y-71272
X105839Y-66001
X105969Y-79193
X106680Y-60096
X106680Y-71272
X106782Y-63398
X106883Y-72898
X106969Y-67365
X106985Y-68377
X106985Y-69494
X107137Y-48819
X108298Y-86150
X108339Y-72390
X108407Y-81585
X108661Y-78384
X109271Y-93472
X109271Y-95352
X109677Y-78384
X109830Y-84379
X109931Y-62078
X110439Y-76759
X111015Y-72695
X111049Y-83109
X111252Y-84582
X113182Y-76098
X113829Y-76569
X114960Y-82855
X115062Y-62738
X116027Y-61976
X116129Y-62789
X116161Y-73438
X116161Y-74352
X116180Y-67767
X116180Y-68986
X116281Y-63856
X116527Y-87470
X117043Y-61976
X117043Y-67767
X117043Y-68986
X117246Y-62789
X117297Y-63856
X118466Y-67259
X118466Y-68224
X118466Y-68986
X118516Y-86208
X119278Y-49073
X119431Y-93929
X119431Y-95453
X120802Y-85750
X121463Y-49073
X121768Y-85801
X121920Y-65329
X122682Y-65430
X126340Y-63348
X126441Y-90221
X126441Y-92862
X126441Y-96469
X127102Y-72136
X127102Y-74219
X127152Y-81534
T2
X121377Y-61516
X121971Y-76315
X121971Y-80315
X122377Y-61516
X123377Y-61516
X123971Y-76315
X123971Y-80315
T4
X101397Y-53086
X101397Y-55626
X101397Y-58166
X103937Y-53086
X103937Y-55626
X103937Y-58166
X111404Y-53086
X111404Y-55626
X111404Y-58166
X113944Y-53086
X113944Y-55626
X113944Y-58166
T3
G00X118601Y-73985
M15
G01X119701Y-73985
M16
G05
G00X118601Y-82645
M15
G01X119701Y-82645
M16
G05
G00X122951Y-73985
M15
G01X123751Y-73985
M16
G05
G00X122951Y-82645
M15
G01X123751Y-82645
M16
G05
M30
