%TF.GenerationSoftware,KiCad,Pcbnew,9.0.6*%
%TF.CreationDate,2025-11-15T14:07:07+05:00*%
%TF.ProjectId,DynaButton,44796e61-4275-4747-946f-6e2e6b696361,rev?*%
%TF.SameCoordinates,Original*%
%TF.FileFunction,Drillmap*%
%TF.FilePolarity,Positive*%
%FSLAX45Y45*%
G04 Gerber Fmt 4.5, Leading zero omitted, Abs format (unit mm)*
G04 Created by KiCad (PCBNEW 9.0.6) date 2025-11-15 14:07:07*
%MOMM*%
%LPD*%
G01*
G04 APERTURE LIST*
%ADD10C,0.100000*%
%ADD11C,0.200000*%
G04 APERTURE END LIST*
D10*
X8051800Y-4546600D02*
X12882880Y-4546600D01*
X12882880Y-9834880D01*
X8051800Y-9834880D01*
X8051800Y-4546600D01*
D11*
D10*
X8270480Y-5410440D02*
X8300480Y-5440440D01*
X8300480Y-5410440D02*
X8270480Y-5440440D01*
X8270480Y-5623800D02*
X8300480Y-5653800D01*
X8300480Y-5623800D02*
X8270480Y-5653800D01*
X8407640Y-6014960D02*
X8437640Y-6044960D01*
X8437640Y-6014960D02*
X8407640Y-6044960D01*
X8468600Y-5410440D02*
X8498600Y-5440440D01*
X8498600Y-5410440D02*
X8468600Y-5440440D01*
X8468600Y-5623800D02*
X8498600Y-5653800D01*
X8498600Y-5623800D02*
X8468600Y-5653800D01*
X8509240Y-8077440D02*
X8539240Y-8107440D01*
X8539240Y-8077440D02*
X8509240Y-8107440D01*
X8514320Y-8255240D02*
X8544320Y-8285240D01*
X8544320Y-8255240D02*
X8514320Y-8285240D01*
X8600680Y-8158720D02*
X8630680Y-8188720D01*
X8630680Y-8158720D02*
X8600680Y-8188720D01*
X8605760Y-7142720D02*
X8635760Y-7172720D01*
X8635760Y-7142720D02*
X8605760Y-7172720D01*
X8641320Y-5085320D02*
X8671320Y-5115320D01*
X8671320Y-5085320D02*
X8641320Y-5115320D01*
X8641320Y-5232640D02*
X8671320Y-5262640D01*
X8671320Y-5232640D02*
X8641320Y-5262640D01*
X8656560Y-5760960D02*
X8686560Y-5790960D01*
X8686560Y-5760960D02*
X8656560Y-5790960D01*
X8656560Y-8859760D02*
X8686560Y-8889760D01*
X8686560Y-8859760D02*
X8656560Y-8889760D01*
X8656560Y-8961360D02*
X8686560Y-8991360D01*
X8686560Y-8961360D02*
X8656560Y-8991360D01*
X8661640Y-8727680D02*
X8691640Y-8757680D01*
X8691640Y-8727680D02*
X8661640Y-8757680D01*
X8814040Y-5999720D02*
X8844040Y-6029720D01*
X8844040Y-5999720D02*
X8814040Y-6029720D01*
X8834360Y-9362680D02*
X8864360Y-9392680D01*
X8864360Y-9362680D02*
X8834360Y-9392680D01*
X8839440Y-9530320D02*
X8869440Y-9560320D01*
X8869440Y-9530320D02*
X8839440Y-9560320D01*
X8895320Y-4719560D02*
X8925320Y-4749560D01*
X8925320Y-4719560D02*
X8895320Y-4749560D01*
X8925800Y-5430760D02*
X8955800Y-5460760D01*
X8955800Y-5430760D02*
X8925800Y-5460760D01*
X8951200Y-7422120D02*
X8981200Y-7452120D01*
X8981200Y-7422120D02*
X8951200Y-7452120D01*
X8991840Y-8463520D02*
X9021840Y-8493520D01*
X9021840Y-8463520D02*
X8991840Y-8493520D01*
X8991840Y-8570200D02*
X9021840Y-8600200D01*
X9021840Y-8570200D02*
X8991840Y-8600200D01*
X8996920Y-7239240D02*
X9026920Y-7269240D01*
X9026920Y-7239240D02*
X8996920Y-7269240D01*
X9002000Y-7330680D02*
X9032000Y-7360680D01*
X9032000Y-7330680D02*
X9002000Y-7360680D01*
X9007080Y-4719560D02*
X9037080Y-4749560D01*
X9037080Y-4719560D02*
X9007080Y-4749560D01*
X9007080Y-5446000D02*
X9037080Y-5476000D01*
X9037080Y-5446000D02*
X9007080Y-5476000D01*
X9017240Y-6888720D02*
X9047240Y-6918720D01*
X9047240Y-6888720D02*
X9017240Y-6918720D01*
X9062960Y-7229080D02*
X9092960Y-7259080D01*
X9092960Y-7229080D02*
X9062960Y-7259080D01*
X9083280Y-8463520D02*
X9113280Y-8493520D01*
X9113280Y-8463520D02*
X9083280Y-8493520D01*
X9083280Y-8570200D02*
X9113280Y-8600200D01*
X9113280Y-8570200D02*
X9083280Y-8600200D01*
X9108680Y-7640560D02*
X9138680Y-7670560D01*
X9138680Y-7640560D02*
X9108680Y-7670560D01*
X9123920Y-6888720D02*
X9153920Y-6918720D01*
X9153920Y-6888720D02*
X9123920Y-6918720D01*
X9134080Y-7218920D02*
X9164080Y-7248920D01*
X9164080Y-7218920D02*
X9134080Y-7248920D01*
X9169640Y-8463520D02*
X9199640Y-8493520D01*
X9199640Y-8463520D02*
X9169640Y-8493520D01*
X9169640Y-8570200D02*
X9199640Y-8600200D01*
X9199640Y-8570200D02*
X9169640Y-8600200D01*
X9195040Y-5842240D02*
X9225040Y-5872240D01*
X9225040Y-5842240D02*
X9195040Y-5872240D01*
X9215360Y-6888720D02*
X9245360Y-6918720D01*
X9245360Y-6888720D02*
X9215360Y-6918720D01*
X9220440Y-7599920D02*
X9250440Y-7629920D01*
X9250440Y-7599920D02*
X9220440Y-7629920D01*
X9261080Y-5999720D02*
X9291080Y-6029720D01*
X9291080Y-5999720D02*
X9261080Y-6029720D01*
X9276320Y-6822680D02*
X9306320Y-6852680D01*
X9306320Y-6822680D02*
X9276320Y-6852680D01*
X9286480Y-7483080D02*
X9316480Y-7513080D01*
X9316480Y-7483080D02*
X9286480Y-7513080D01*
X9316960Y-7112240D02*
X9346960Y-7142240D01*
X9346960Y-7112240D02*
X9316960Y-7142240D01*
X9316960Y-7213840D02*
X9346960Y-7243840D01*
X9346960Y-7213840D02*
X9316960Y-7243840D01*
X9398240Y-7914880D02*
X9428240Y-7944880D01*
X9428240Y-7914880D02*
X9398240Y-7944880D01*
X9408400Y-5542520D02*
X9438400Y-5572520D01*
X9438400Y-5542520D02*
X9408400Y-5572520D01*
X9423640Y-7737080D02*
X9453640Y-7767080D01*
X9453640Y-7737080D02*
X9423640Y-7767080D01*
X9423640Y-8204440D02*
X9453640Y-8234440D01*
X9453640Y-8204440D02*
X9423640Y-8234440D01*
X9515080Y-8143480D02*
X9545080Y-8173480D01*
X9545080Y-8143480D02*
X9515080Y-8173480D01*
X9672560Y-6263880D02*
X9702560Y-6293880D01*
X9702560Y-6263880D02*
X9672560Y-6293880D01*
X9672560Y-6477240D02*
X9702560Y-6507240D01*
X9702560Y-6477240D02*
X9672560Y-6507240D01*
X9692880Y-5842240D02*
X9722880Y-5872240D01*
X9722880Y-5842240D02*
X9692880Y-5872240D01*
X9728440Y-7325600D02*
X9758440Y-7355600D01*
X9758440Y-7325600D02*
X9728440Y-7355600D01*
X9728440Y-7630400D02*
X9758440Y-7660400D01*
X9758440Y-7630400D02*
X9728440Y-7660400D01*
X9738600Y-5918440D02*
X9768600Y-5948440D01*
X9768600Y-5918440D02*
X9738600Y-5948440D01*
X9738600Y-5994640D02*
X9768600Y-6024640D01*
X9768600Y-5994640D02*
X9738600Y-6024640D01*
X9784320Y-8610840D02*
X9814320Y-8640840D01*
X9814320Y-8610840D02*
X9784320Y-8640840D01*
X9814800Y-6639800D02*
X9844800Y-6669800D01*
X9844800Y-6639800D02*
X9814800Y-6669800D01*
X9870680Y-9357600D02*
X9900680Y-9387600D01*
X9900680Y-9357600D02*
X9870680Y-9387600D01*
X9870680Y-9540480D02*
X9900680Y-9570480D01*
X9900680Y-9540480D02*
X9870680Y-9570480D01*
X10038320Y-6751560D02*
X10068320Y-6781560D01*
X10068320Y-6751560D02*
X10038320Y-6781560D01*
X10104360Y-7269720D02*
X10134360Y-7299720D01*
X10134360Y-7269720D02*
X10104360Y-7299720D01*
X10134840Y-7655800D02*
X10164840Y-7685800D01*
X10164840Y-7655800D02*
X10134840Y-7685800D01*
X10160240Y-7533880D02*
X10190240Y-7563880D01*
X10190240Y-7533880D02*
X10160240Y-7563880D01*
X10166403Y-8142269D02*
X10196403Y-8172269D01*
X10196403Y-8142269D02*
X10166403Y-8172269D01*
X10216120Y-7269720D02*
X10246120Y-7299720D01*
X10246120Y-7269720D02*
X10216120Y-7299720D01*
X10241520Y-7533880D02*
X10271520Y-7563880D01*
X10271520Y-7533880D02*
X10241520Y-7563880D01*
X10343120Y-7269720D02*
X10373120Y-7299720D01*
X10373120Y-7269720D02*
X10343120Y-7299720D01*
X10353280Y-7533880D02*
X10383280Y-7563880D01*
X10383280Y-7533880D02*
X10353280Y-7563880D01*
X10358360Y-4866880D02*
X10388360Y-4896880D01*
X10388360Y-4866880D02*
X10358360Y-4896880D01*
X10454880Y-7269720D02*
X10484880Y-7299720D01*
X10484880Y-7269720D02*
X10454880Y-7299720D01*
X10459960Y-7117320D02*
X10489960Y-7147320D01*
X10489960Y-7117320D02*
X10459960Y-7147320D01*
X10470120Y-6462000D02*
X10500120Y-6492000D01*
X10500120Y-6462000D02*
X10470120Y-6492000D01*
X10480280Y-7970760D02*
X10510280Y-8000760D01*
X10510280Y-7970760D02*
X10480280Y-8000760D01*
X10495520Y-7635480D02*
X10525520Y-7665480D01*
X10525520Y-7635480D02*
X10495520Y-7665480D01*
X10520920Y-7315440D02*
X10550920Y-7345440D01*
X10550920Y-7315440D02*
X10520920Y-7345440D01*
X10526000Y-4866880D02*
X10556000Y-4896880D01*
X10556000Y-4866880D02*
X10526000Y-4896880D01*
X10541240Y-5933680D02*
X10571240Y-5963680D01*
X10571240Y-5933680D02*
X10541240Y-5963680D01*
X10566640Y-6726160D02*
X10596640Y-6756160D01*
X10596640Y-6726160D02*
X10566640Y-6756160D01*
X10566640Y-7112240D02*
X10596640Y-7142240D01*
X10596640Y-7112240D02*
X10566640Y-7142240D01*
X10568865Y-6585086D02*
X10598865Y-6615086D01*
X10598865Y-6585086D02*
X10568865Y-6615086D01*
X10581880Y-7904320D02*
X10611880Y-7934320D01*
X10611880Y-7904320D02*
X10581880Y-7934320D01*
X10653000Y-5994640D02*
X10683000Y-6024640D01*
X10683000Y-5994640D02*
X10653000Y-6024640D01*
X10653000Y-7112240D02*
X10683000Y-7142240D01*
X10683000Y-7112240D02*
X10653000Y-7142240D01*
X10663160Y-6324840D02*
X10693160Y-6354840D01*
X10693160Y-6324840D02*
X10663160Y-6354840D01*
X10673320Y-7274800D02*
X10703320Y-7304800D01*
X10703320Y-7274800D02*
X10673320Y-7304800D01*
X10681940Y-6721479D02*
X10711940Y-6751479D01*
X10711940Y-6721479D02*
X10681940Y-6751479D01*
X10683480Y-6822680D02*
X10713480Y-6852680D01*
X10713480Y-6822680D02*
X10683480Y-6852680D01*
X10683480Y-6934440D02*
X10713480Y-6964440D01*
X10713480Y-6934440D02*
X10683480Y-6964440D01*
X10698720Y-4866880D02*
X10728720Y-4896880D01*
X10728720Y-4866880D02*
X10698720Y-4896880D01*
X10814840Y-8599960D02*
X10844840Y-8629960D01*
X10844840Y-8599960D02*
X10814840Y-8629960D01*
X10818920Y-7224000D02*
X10848920Y-7254000D01*
X10848920Y-7224000D02*
X10818920Y-7254000D01*
X10825720Y-8143480D02*
X10855720Y-8173480D01*
X10855720Y-8143480D02*
X10825720Y-8173480D01*
X10851120Y-7823440D02*
X10881120Y-7853440D01*
X10881120Y-7823440D02*
X10851120Y-7853440D01*
X10912080Y-9332200D02*
X10942080Y-9362200D01*
X10942080Y-9332200D02*
X10912080Y-9362200D01*
X10912080Y-9520160D02*
X10942080Y-9550160D01*
X10942080Y-9520160D02*
X10912080Y-9550160D01*
X10952720Y-7823440D02*
X10982720Y-7853440D01*
X10982720Y-7823440D02*
X10952720Y-7853440D01*
X10967960Y-8422880D02*
X10997960Y-8452880D01*
X10997960Y-8422880D02*
X10967960Y-8452880D01*
X10978120Y-6192760D02*
X11008120Y-6222760D01*
X11008120Y-6192760D02*
X10978120Y-6222760D01*
X11028920Y-7660880D02*
X11058920Y-7690880D01*
X11058920Y-7660880D02*
X11028920Y-7690880D01*
X11086520Y-7254480D02*
X11116520Y-7284480D01*
X11116520Y-7254480D02*
X11086520Y-7284480D01*
X11089880Y-8295880D02*
X11119880Y-8325880D01*
X11119880Y-8295880D02*
X11089880Y-8325880D01*
X11110200Y-8443200D02*
X11140200Y-8473200D01*
X11140200Y-8443200D02*
X11110200Y-8473200D01*
X11303240Y-7594840D02*
X11333240Y-7624840D01*
X11333240Y-7594840D02*
X11303240Y-7624840D01*
X11367939Y-7641894D02*
X11397939Y-7671894D01*
X11397939Y-7641894D02*
X11367939Y-7671894D01*
X11481040Y-8270480D02*
X11511040Y-8300480D01*
X11511040Y-8270480D02*
X11481040Y-8300480D01*
X11491200Y-6258800D02*
X11521200Y-6288800D01*
X11521200Y-6258800D02*
X11491200Y-6288800D01*
X11587720Y-6182600D02*
X11617720Y-6212600D01*
X11617720Y-6182600D02*
X11587720Y-6212600D01*
X11597880Y-6263880D02*
X11627880Y-6293880D01*
X11627880Y-6263880D02*
X11597880Y-6293880D01*
X11601080Y-7328800D02*
X11631080Y-7358800D01*
X11631080Y-7328800D02*
X11601080Y-7358800D01*
X11601080Y-7420240D02*
X11631080Y-7450240D01*
X11631080Y-7420240D02*
X11601080Y-7450240D01*
X11602960Y-6761720D02*
X11632960Y-6791720D01*
X11632960Y-6761720D02*
X11602960Y-6791720D01*
X11602960Y-6883640D02*
X11632960Y-6913640D01*
X11632960Y-6883640D02*
X11602960Y-6913640D01*
X11613120Y-6370560D02*
X11643120Y-6400560D01*
X11643120Y-6370560D02*
X11613120Y-6400560D01*
X11637740Y-8731980D02*
X11667740Y-8761980D01*
X11667740Y-8731980D02*
X11637740Y-8761980D01*
X11689320Y-6182600D02*
X11719320Y-6212600D01*
X11719320Y-6182600D02*
X11689320Y-6212600D01*
X11689320Y-6761720D02*
X11719320Y-6791720D01*
X11719320Y-6761720D02*
X11689320Y-6791720D01*
X11689320Y-6883640D02*
X11719320Y-6913640D01*
X11719320Y-6883640D02*
X11689320Y-6913640D01*
X11709640Y-6263880D02*
X11739640Y-6293880D01*
X11739640Y-6263880D02*
X11709640Y-6293880D01*
X11714720Y-6370560D02*
X11744720Y-6400560D01*
X11744720Y-6370560D02*
X11714720Y-6400560D01*
X11831560Y-6710920D02*
X11861560Y-6740920D01*
X11861560Y-6710920D02*
X11831560Y-6740920D01*
X11831560Y-6807440D02*
X11861560Y-6837440D01*
X11861560Y-6807440D02*
X11831560Y-6837440D01*
X11831560Y-6883640D02*
X11861560Y-6913640D01*
X11861560Y-6883640D02*
X11831560Y-6913640D01*
X11836640Y-8605760D02*
X11866640Y-8635760D01*
X11866640Y-8605760D02*
X11836640Y-8635760D01*
X11912840Y-4892280D02*
X11942840Y-4922280D01*
X11942840Y-4892280D02*
X11912840Y-4922280D01*
X11928080Y-9377920D02*
X11958080Y-9407920D01*
X11958080Y-9377920D02*
X11928080Y-9407920D01*
X11928080Y-9530320D02*
X11958080Y-9560320D01*
X11958080Y-9530320D02*
X11928080Y-9560320D01*
X12065240Y-8560040D02*
X12095240Y-8590040D01*
X12095240Y-8560040D02*
X12065240Y-8590040D01*
X12131280Y-4892280D02*
X12161280Y-4922280D01*
X12161280Y-4892280D02*
X12131280Y-4922280D01*
X12161760Y-8565120D02*
X12191760Y-8595120D01*
X12191760Y-8565120D02*
X12161760Y-8595120D01*
X12177000Y-6517880D02*
X12207000Y-6547880D01*
X12207000Y-6517880D02*
X12177000Y-6547880D01*
X12253200Y-6528040D02*
X12283200Y-6558040D01*
X12283200Y-6528040D02*
X12253200Y-6558040D01*
X12618960Y-6319760D02*
X12648960Y-6349760D01*
X12648960Y-6319760D02*
X12618960Y-6349760D01*
X12629120Y-9007080D02*
X12659120Y-9037080D01*
X12659120Y-9007080D02*
X12629120Y-9037080D01*
X12629120Y-9271240D02*
X12659120Y-9301240D01*
X12659120Y-9271240D02*
X12629120Y-9301240D01*
X12629120Y-9631920D02*
X12659120Y-9661920D01*
X12659120Y-9631920D02*
X12629120Y-9661920D01*
X12695160Y-7198600D02*
X12725160Y-7228600D01*
X12725160Y-7198600D02*
X12695160Y-7228600D01*
X12695160Y-7406880D02*
X12725160Y-7436880D01*
X12725160Y-7406880D02*
X12695160Y-7436880D01*
X12700240Y-8138400D02*
X12730240Y-8168400D01*
X12730240Y-8138400D02*
X12700240Y-8168400D01*
X12152720Y-6151600D02*
G75*
G02*
X12122720Y-6151600I-15000J0D01*
G01*
X12122720Y-6151600D02*
G75*
G02*
X12152720Y-6151600I15000J0D01*
G01*
X12212080Y-7631480D02*
G75*
G02*
X12182080Y-7631480I-15000J0D01*
G01*
X12182080Y-7631480D02*
G75*
G02*
X12212080Y-7631480I15000J0D01*
G01*
X12212080Y-8031480D02*
G75*
G02*
X12182080Y-8031480I-15000J0D01*
G01*
X12182080Y-8031480D02*
G75*
G02*
X12212080Y-8031480I15000J0D01*
G01*
X12252720Y-6151600D02*
G75*
G02*
X12222720Y-6151600I-15000J0D01*
G01*
X12222720Y-6151600D02*
G75*
G02*
X12252720Y-6151600I15000J0D01*
G01*
X12352720Y-6151600D02*
G75*
G02*
X12322720Y-6151600I-15000J0D01*
G01*
X12322720Y-6151600D02*
G75*
G02*
X12352720Y-6151600I15000J0D01*
G01*
X12412080Y-7631480D02*
G75*
G02*
X12382080Y-7631480I-15000J0D01*
G01*
X12382080Y-7631480D02*
G75*
G02*
X12412080Y-7631480I15000J0D01*
G01*
X12412080Y-8031480D02*
G75*
G02*
X12382080Y-8031480I-15000J0D01*
G01*
X12382080Y-8031480D02*
G75*
G02*
X12412080Y-8031480I15000J0D01*
G01*
X11915080Y-7373480D02*
X11915080Y-7423480D01*
X11890080Y-7398480D02*
X11940080Y-7398480D01*
X11860080Y-7423480D02*
X11970080Y-7423480D01*
X11970080Y-7373480D02*
G75*
G02*
X11970080Y-7423480I0J-25000D01*
G01*
X11970080Y-7373480D02*
X11860080Y-7373480D01*
X11860080Y-7373480D02*
G75*
G03*
X11860080Y-7423480I0J-25000D01*
G01*
X11915080Y-8239480D02*
X11915080Y-8289480D01*
X11890080Y-8264480D02*
X11940080Y-8264480D01*
X11860080Y-8289480D02*
X11970080Y-8289480D01*
X11970080Y-8239480D02*
G75*
G02*
X11970080Y-8289480I0J-25000D01*
G01*
X11970080Y-8239480D02*
X11860080Y-8239480D01*
X11860080Y-8239480D02*
G75*
G03*
X11860080Y-8289480I0J-25000D01*
G01*
X12335080Y-7373480D02*
X12335080Y-7423480D01*
X12310080Y-7398480D02*
X12360080Y-7398480D01*
X12295080Y-7423480D02*
X12375080Y-7423480D01*
X12375080Y-7373480D02*
G75*
G02*
X12375080Y-7423480I0J-25000D01*
G01*
X12375080Y-7373480D02*
X12295080Y-7373480D01*
X12295080Y-7373480D02*
G75*
G03*
X12295080Y-7423480I0J-25000D01*
G01*
X12335080Y-8239480D02*
X12335080Y-8289480D01*
X12310080Y-8264480D02*
X12360080Y-8264480D01*
X12295080Y-8289480D02*
X12375080Y-8289480D01*
X12375080Y-8239480D02*
G75*
G02*
X12375080Y-8289480I0J-25000D01*
G01*
X12375080Y-8239480D02*
X12295080Y-8239480D01*
X12295080Y-8239480D02*
G75*
G03*
X12295080Y-8289480I0J-25000D01*
G01*
X10175036Y-5343956D02*
X10175036Y-5273244D01*
X10104324Y-5273244D01*
X10104324Y-5343956D01*
X10175036Y-5343956D01*
X10175036Y-5597956D02*
X10175036Y-5527244D01*
X10104324Y-5527244D01*
X10104324Y-5597956D01*
X10175036Y-5597956D01*
X10175036Y-5851956D02*
X10175036Y-5781244D01*
X10104324Y-5781244D01*
X10104324Y-5851956D01*
X10175036Y-5851956D01*
X10429036Y-5343956D02*
X10429036Y-5273244D01*
X10358324Y-5273244D01*
X10358324Y-5343956D01*
X10429036Y-5343956D01*
X10429036Y-5597956D02*
X10429036Y-5527244D01*
X10358324Y-5527244D01*
X10358324Y-5597956D01*
X10429036Y-5597956D01*
X10429036Y-5851956D02*
X10429036Y-5781244D01*
X10358324Y-5781244D01*
X10358324Y-5851956D01*
X10429036Y-5851956D01*
X11175796Y-5343956D02*
X11175796Y-5273244D01*
X11105084Y-5273244D01*
X11105084Y-5343956D01*
X11175796Y-5343956D01*
X11175796Y-5597956D02*
X11175796Y-5527244D01*
X11105084Y-5527244D01*
X11105084Y-5597956D01*
X11175796Y-5597956D01*
X11175796Y-5851956D02*
X11175796Y-5781244D01*
X11105084Y-5781244D01*
X11105084Y-5851956D01*
X11175796Y-5851956D01*
X11429796Y-5343956D02*
X11429796Y-5273244D01*
X11359084Y-5273244D01*
X11359084Y-5343956D01*
X11429796Y-5343956D01*
X11429796Y-5597956D02*
X11429796Y-5527244D01*
X11359084Y-5527244D01*
X11359084Y-5597956D01*
X11429796Y-5597956D01*
X11429796Y-5851956D02*
X11429796Y-5781244D01*
X11359084Y-5781244D01*
X11359084Y-5851956D01*
X11429796Y-5851956D01*
D11*
X8307577Y-10151364D02*
X8307577Y-9951364D01*
X8307577Y-9951364D02*
X8355196Y-9951364D01*
X8355196Y-9951364D02*
X8383767Y-9960888D01*
X8383767Y-9960888D02*
X8402815Y-9979935D01*
X8402815Y-9979935D02*
X8412339Y-9998983D01*
X8412339Y-9998983D02*
X8421863Y-10037078D01*
X8421863Y-10037078D02*
X8421863Y-10065650D01*
X8421863Y-10065650D02*
X8412339Y-10103745D01*
X8412339Y-10103745D02*
X8402815Y-10122792D01*
X8402815Y-10122792D02*
X8383767Y-10141840D01*
X8383767Y-10141840D02*
X8355196Y-10151364D01*
X8355196Y-10151364D02*
X8307577Y-10151364D01*
X8507577Y-10151364D02*
X8507577Y-10018030D01*
X8507577Y-10056126D02*
X8517101Y-10037078D01*
X8517101Y-10037078D02*
X8526624Y-10027554D01*
X8526624Y-10027554D02*
X8545672Y-10018030D01*
X8545672Y-10018030D02*
X8564720Y-10018030D01*
X8631386Y-10151364D02*
X8631386Y-10018030D01*
X8631386Y-9951364D02*
X8621863Y-9960888D01*
X8621863Y-9960888D02*
X8631386Y-9970411D01*
X8631386Y-9970411D02*
X8640910Y-9960888D01*
X8640910Y-9960888D02*
X8631386Y-9951364D01*
X8631386Y-9951364D02*
X8631386Y-9970411D01*
X8755196Y-10151364D02*
X8736148Y-10141840D01*
X8736148Y-10141840D02*
X8726624Y-10122792D01*
X8726624Y-10122792D02*
X8726624Y-9951364D01*
X8859958Y-10151364D02*
X8840910Y-10141840D01*
X8840910Y-10141840D02*
X8831386Y-10122792D01*
X8831386Y-10122792D02*
X8831386Y-9951364D01*
X9088529Y-10151364D02*
X9088529Y-9951364D01*
X9088529Y-9951364D02*
X9155196Y-10094221D01*
X9155196Y-10094221D02*
X9221863Y-9951364D01*
X9221863Y-9951364D02*
X9221863Y-10151364D01*
X9402815Y-10151364D02*
X9402815Y-10046602D01*
X9402815Y-10046602D02*
X9393291Y-10027554D01*
X9393291Y-10027554D02*
X9374244Y-10018030D01*
X9374244Y-10018030D02*
X9336148Y-10018030D01*
X9336148Y-10018030D02*
X9317101Y-10027554D01*
X9402815Y-10141840D02*
X9383767Y-10151364D01*
X9383767Y-10151364D02*
X9336148Y-10151364D01*
X9336148Y-10151364D02*
X9317101Y-10141840D01*
X9317101Y-10141840D02*
X9307577Y-10122792D01*
X9307577Y-10122792D02*
X9307577Y-10103745D01*
X9307577Y-10103745D02*
X9317101Y-10084697D01*
X9317101Y-10084697D02*
X9336148Y-10075173D01*
X9336148Y-10075173D02*
X9383767Y-10075173D01*
X9383767Y-10075173D02*
X9402815Y-10065650D01*
X9498053Y-10018030D02*
X9498053Y-10218030D01*
X9498053Y-10027554D02*
X9517101Y-10018030D01*
X9517101Y-10018030D02*
X9555196Y-10018030D01*
X9555196Y-10018030D02*
X9574244Y-10027554D01*
X9574244Y-10027554D02*
X9583767Y-10037078D01*
X9583767Y-10037078D02*
X9593291Y-10056126D01*
X9593291Y-10056126D02*
X9593291Y-10113269D01*
X9593291Y-10113269D02*
X9583767Y-10132316D01*
X9583767Y-10132316D02*
X9574244Y-10141840D01*
X9574244Y-10141840D02*
X9555196Y-10151364D01*
X9555196Y-10151364D02*
X9517101Y-10151364D01*
X9517101Y-10151364D02*
X9498053Y-10141840D01*
X9679005Y-10132316D02*
X9688529Y-10141840D01*
X9688529Y-10141840D02*
X9679005Y-10151364D01*
X9679005Y-10151364D02*
X9669482Y-10141840D01*
X9669482Y-10141840D02*
X9679005Y-10132316D01*
X9679005Y-10132316D02*
X9679005Y-10151364D01*
X9679005Y-10027554D02*
X9688529Y-10037078D01*
X9688529Y-10037078D02*
X9679005Y-10046602D01*
X9679005Y-10046602D02*
X9669482Y-10037078D01*
X9669482Y-10037078D02*
X9679005Y-10027554D01*
X9679005Y-10027554D02*
X9679005Y-10046602D01*
D10*
X8016800Y-10464880D02*
X8046800Y-10494880D01*
X8046800Y-10464880D02*
X8016800Y-10494880D01*
D11*
X8345672Y-10371364D02*
X8364720Y-10371364D01*
X8364720Y-10371364D02*
X8383767Y-10380888D01*
X8383767Y-10380888D02*
X8393291Y-10390411D01*
X8393291Y-10390411D02*
X8402815Y-10409459D01*
X8402815Y-10409459D02*
X8412339Y-10447554D01*
X8412339Y-10447554D02*
X8412339Y-10495173D01*
X8412339Y-10495173D02*
X8402815Y-10533269D01*
X8402815Y-10533269D02*
X8393291Y-10552316D01*
X8393291Y-10552316D02*
X8383767Y-10561840D01*
X8383767Y-10561840D02*
X8364720Y-10571364D01*
X8364720Y-10571364D02*
X8345672Y-10571364D01*
X8345672Y-10571364D02*
X8326624Y-10561840D01*
X8326624Y-10561840D02*
X8317101Y-10552316D01*
X8317101Y-10552316D02*
X8307577Y-10533269D01*
X8307577Y-10533269D02*
X8298053Y-10495173D01*
X8298053Y-10495173D02*
X8298053Y-10447554D01*
X8298053Y-10447554D02*
X8307577Y-10409459D01*
X8307577Y-10409459D02*
X8317101Y-10390411D01*
X8317101Y-10390411D02*
X8326624Y-10380888D01*
X8326624Y-10380888D02*
X8345672Y-10371364D01*
X8498053Y-10552316D02*
X8507577Y-10561840D01*
X8507577Y-10561840D02*
X8498053Y-10571364D01*
X8498053Y-10571364D02*
X8488529Y-10561840D01*
X8488529Y-10561840D02*
X8498053Y-10552316D01*
X8498053Y-10552316D02*
X8498053Y-10571364D01*
X8574244Y-10371364D02*
X8698053Y-10371364D01*
X8698053Y-10371364D02*
X8631386Y-10447554D01*
X8631386Y-10447554D02*
X8659958Y-10447554D01*
X8659958Y-10447554D02*
X8679005Y-10457078D01*
X8679005Y-10457078D02*
X8688529Y-10466602D01*
X8688529Y-10466602D02*
X8698053Y-10485650D01*
X8698053Y-10485650D02*
X8698053Y-10533269D01*
X8698053Y-10533269D02*
X8688529Y-10552316D01*
X8688529Y-10552316D02*
X8679005Y-10561840D01*
X8679005Y-10561840D02*
X8659958Y-10571364D01*
X8659958Y-10571364D02*
X8602815Y-10571364D01*
X8602815Y-10571364D02*
X8583767Y-10561840D01*
X8583767Y-10561840D02*
X8574244Y-10552316D01*
X8821863Y-10371364D02*
X8840910Y-10371364D01*
X8840910Y-10371364D02*
X8859958Y-10380888D01*
X8859958Y-10380888D02*
X8869482Y-10390411D01*
X8869482Y-10390411D02*
X8879005Y-10409459D01*
X8879005Y-10409459D02*
X8888529Y-10447554D01*
X8888529Y-10447554D02*
X8888529Y-10495173D01*
X8888529Y-10495173D02*
X8879005Y-10533269D01*
X8879005Y-10533269D02*
X8869482Y-10552316D01*
X8869482Y-10552316D02*
X8859958Y-10561840D01*
X8859958Y-10561840D02*
X8840910Y-10571364D01*
X8840910Y-10571364D02*
X8821863Y-10571364D01*
X8821863Y-10571364D02*
X8802815Y-10561840D01*
X8802815Y-10561840D02*
X8793291Y-10552316D01*
X8793291Y-10552316D02*
X8783767Y-10533269D01*
X8783767Y-10533269D02*
X8774244Y-10495173D01*
X8774244Y-10495173D02*
X8774244Y-10447554D01*
X8774244Y-10447554D02*
X8783767Y-10409459D01*
X8783767Y-10409459D02*
X8793291Y-10390411D01*
X8793291Y-10390411D02*
X8802815Y-10380888D01*
X8802815Y-10380888D02*
X8821863Y-10371364D01*
X9012339Y-10371364D02*
X9031386Y-10371364D01*
X9031386Y-10371364D02*
X9050434Y-10380888D01*
X9050434Y-10380888D02*
X9059958Y-10390411D01*
X9059958Y-10390411D02*
X9069482Y-10409459D01*
X9069482Y-10409459D02*
X9079005Y-10447554D01*
X9079005Y-10447554D02*
X9079005Y-10495173D01*
X9079005Y-10495173D02*
X9069482Y-10533269D01*
X9069482Y-10533269D02*
X9059958Y-10552316D01*
X9059958Y-10552316D02*
X9050434Y-10561840D01*
X9050434Y-10561840D02*
X9031386Y-10571364D01*
X9031386Y-10571364D02*
X9012339Y-10571364D01*
X9012339Y-10571364D02*
X8993291Y-10561840D01*
X8993291Y-10561840D02*
X8983767Y-10552316D01*
X8983767Y-10552316D02*
X8974244Y-10533269D01*
X8974244Y-10533269D02*
X8964720Y-10495173D01*
X8964720Y-10495173D02*
X8964720Y-10447554D01*
X8964720Y-10447554D02*
X8974244Y-10409459D01*
X8974244Y-10409459D02*
X8983767Y-10390411D01*
X8983767Y-10390411D02*
X8993291Y-10380888D01*
X8993291Y-10380888D02*
X9012339Y-10371364D01*
X9164720Y-10571364D02*
X9164720Y-10438030D01*
X9164720Y-10457078D02*
X9174244Y-10447554D01*
X9174244Y-10447554D02*
X9193291Y-10438030D01*
X9193291Y-10438030D02*
X9221863Y-10438030D01*
X9221863Y-10438030D02*
X9240910Y-10447554D01*
X9240910Y-10447554D02*
X9250434Y-10466602D01*
X9250434Y-10466602D02*
X9250434Y-10571364D01*
X9250434Y-10466602D02*
X9259958Y-10447554D01*
X9259958Y-10447554D02*
X9279005Y-10438030D01*
X9279005Y-10438030D02*
X9307577Y-10438030D01*
X9307577Y-10438030D02*
X9326625Y-10447554D01*
X9326625Y-10447554D02*
X9336148Y-10466602D01*
X9336148Y-10466602D02*
X9336148Y-10571364D01*
X9431386Y-10571364D02*
X9431386Y-10438030D01*
X9431386Y-10457078D02*
X9440910Y-10447554D01*
X9440910Y-10447554D02*
X9459958Y-10438030D01*
X9459958Y-10438030D02*
X9488529Y-10438030D01*
X9488529Y-10438030D02*
X9507577Y-10447554D01*
X9507577Y-10447554D02*
X9517101Y-10466602D01*
X9517101Y-10466602D02*
X9517101Y-10571364D01*
X9517101Y-10466602D02*
X9526625Y-10447554D01*
X9526625Y-10447554D02*
X9545672Y-10438030D01*
X9545672Y-10438030D02*
X9574244Y-10438030D01*
X9574244Y-10438030D02*
X9593291Y-10447554D01*
X9593291Y-10447554D02*
X9602815Y-10466602D01*
X9602815Y-10466602D02*
X9602815Y-10571364D01*
X9993291Y-10361840D02*
X9821863Y-10618983D01*
X10250434Y-10371364D02*
X10269482Y-10371364D01*
X10269482Y-10371364D02*
X10288529Y-10380888D01*
X10288529Y-10380888D02*
X10298053Y-10390411D01*
X10298053Y-10390411D02*
X10307577Y-10409459D01*
X10307577Y-10409459D02*
X10317101Y-10447554D01*
X10317101Y-10447554D02*
X10317101Y-10495173D01*
X10317101Y-10495173D02*
X10307577Y-10533269D01*
X10307577Y-10533269D02*
X10298053Y-10552316D01*
X10298053Y-10552316D02*
X10288529Y-10561840D01*
X10288529Y-10561840D02*
X10269482Y-10571364D01*
X10269482Y-10571364D02*
X10250434Y-10571364D01*
X10250434Y-10571364D02*
X10231387Y-10561840D01*
X10231387Y-10561840D02*
X10221863Y-10552316D01*
X10221863Y-10552316D02*
X10212339Y-10533269D01*
X10212339Y-10533269D02*
X10202815Y-10495173D01*
X10202815Y-10495173D02*
X10202815Y-10447554D01*
X10202815Y-10447554D02*
X10212339Y-10409459D01*
X10212339Y-10409459D02*
X10221863Y-10390411D01*
X10221863Y-10390411D02*
X10231387Y-10380888D01*
X10231387Y-10380888D02*
X10250434Y-10371364D01*
X10402815Y-10552316D02*
X10412339Y-10561840D01*
X10412339Y-10561840D02*
X10402815Y-10571364D01*
X10402815Y-10571364D02*
X10393291Y-10561840D01*
X10393291Y-10561840D02*
X10402815Y-10552316D01*
X10402815Y-10552316D02*
X10402815Y-10571364D01*
X10536148Y-10371364D02*
X10555196Y-10371364D01*
X10555196Y-10371364D02*
X10574244Y-10380888D01*
X10574244Y-10380888D02*
X10583768Y-10390411D01*
X10583768Y-10390411D02*
X10593291Y-10409459D01*
X10593291Y-10409459D02*
X10602815Y-10447554D01*
X10602815Y-10447554D02*
X10602815Y-10495173D01*
X10602815Y-10495173D02*
X10593291Y-10533269D01*
X10593291Y-10533269D02*
X10583768Y-10552316D01*
X10583768Y-10552316D02*
X10574244Y-10561840D01*
X10574244Y-10561840D02*
X10555196Y-10571364D01*
X10555196Y-10571364D02*
X10536148Y-10571364D01*
X10536148Y-10571364D02*
X10517101Y-10561840D01*
X10517101Y-10561840D02*
X10507577Y-10552316D01*
X10507577Y-10552316D02*
X10498053Y-10533269D01*
X10498053Y-10533269D02*
X10488529Y-10495173D01*
X10488529Y-10495173D02*
X10488529Y-10447554D01*
X10488529Y-10447554D02*
X10498053Y-10409459D01*
X10498053Y-10409459D02*
X10507577Y-10390411D01*
X10507577Y-10390411D02*
X10517101Y-10380888D01*
X10517101Y-10380888D02*
X10536148Y-10371364D01*
X10793291Y-10571364D02*
X10679006Y-10571364D01*
X10736148Y-10571364D02*
X10736148Y-10371364D01*
X10736148Y-10371364D02*
X10717101Y-10399935D01*
X10717101Y-10399935D02*
X10698053Y-10418983D01*
X10698053Y-10418983D02*
X10679006Y-10428507D01*
X10983768Y-10571364D02*
X10869482Y-10571364D01*
X10926625Y-10571364D02*
X10926625Y-10371364D01*
X10926625Y-10371364D02*
X10907577Y-10399935D01*
X10907577Y-10399935D02*
X10888529Y-10418983D01*
X10888529Y-10418983D02*
X10869482Y-10428507D01*
X11098053Y-10457078D02*
X11079006Y-10447554D01*
X11079006Y-10447554D02*
X11069482Y-10438030D01*
X11069482Y-10438030D02*
X11059958Y-10418983D01*
X11059958Y-10418983D02*
X11059958Y-10409459D01*
X11059958Y-10409459D02*
X11069482Y-10390411D01*
X11069482Y-10390411D02*
X11079006Y-10380888D01*
X11079006Y-10380888D02*
X11098053Y-10371364D01*
X11098053Y-10371364D02*
X11136149Y-10371364D01*
X11136149Y-10371364D02*
X11155196Y-10380888D01*
X11155196Y-10380888D02*
X11164720Y-10390411D01*
X11164720Y-10390411D02*
X11174244Y-10409459D01*
X11174244Y-10409459D02*
X11174244Y-10418983D01*
X11174244Y-10418983D02*
X11164720Y-10438030D01*
X11164720Y-10438030D02*
X11155196Y-10447554D01*
X11155196Y-10447554D02*
X11136149Y-10457078D01*
X11136149Y-10457078D02*
X11098053Y-10457078D01*
X11098053Y-10457078D02*
X11079006Y-10466602D01*
X11079006Y-10466602D02*
X11069482Y-10476126D01*
X11069482Y-10476126D02*
X11059958Y-10495173D01*
X11059958Y-10495173D02*
X11059958Y-10533269D01*
X11059958Y-10533269D02*
X11069482Y-10552316D01*
X11069482Y-10552316D02*
X11079006Y-10561840D01*
X11079006Y-10561840D02*
X11098053Y-10571364D01*
X11098053Y-10571364D02*
X11136149Y-10571364D01*
X11136149Y-10571364D02*
X11155196Y-10561840D01*
X11155196Y-10561840D02*
X11164720Y-10552316D01*
X11164720Y-10552316D02*
X11174244Y-10533269D01*
X11174244Y-10533269D02*
X11174244Y-10495173D01*
X11174244Y-10495173D02*
X11164720Y-10476126D01*
X11164720Y-10476126D02*
X11155196Y-10466602D01*
X11155196Y-10466602D02*
X11136149Y-10457078D01*
X11250434Y-10371364D02*
X11250434Y-10409459D01*
X11326625Y-10371364D02*
X11326625Y-10409459D01*
X11621863Y-10647554D02*
X11612339Y-10638030D01*
X11612339Y-10638030D02*
X11593291Y-10609459D01*
X11593291Y-10609459D02*
X11583768Y-10590411D01*
X11583768Y-10590411D02*
X11574244Y-10561840D01*
X11574244Y-10561840D02*
X11564720Y-10514221D01*
X11564720Y-10514221D02*
X11564720Y-10476126D01*
X11564720Y-10476126D02*
X11574244Y-10428507D01*
X11574244Y-10428507D02*
X11583768Y-10399935D01*
X11583768Y-10399935D02*
X11593291Y-10380888D01*
X11593291Y-10380888D02*
X11612339Y-10352316D01*
X11612339Y-10352316D02*
X11621863Y-10342792D01*
X11802815Y-10571364D02*
X11688529Y-10571364D01*
X11745672Y-10571364D02*
X11745672Y-10371364D01*
X11745672Y-10371364D02*
X11726625Y-10399935D01*
X11726625Y-10399935D02*
X11707577Y-10418983D01*
X11707577Y-10418983D02*
X11688529Y-10428507D01*
X11869482Y-10371364D02*
X11993291Y-10371364D01*
X11993291Y-10371364D02*
X11926625Y-10447554D01*
X11926625Y-10447554D02*
X11955196Y-10447554D01*
X11955196Y-10447554D02*
X11974244Y-10457078D01*
X11974244Y-10457078D02*
X11983768Y-10466602D01*
X11983768Y-10466602D02*
X11993291Y-10485650D01*
X11993291Y-10485650D02*
X11993291Y-10533269D01*
X11993291Y-10533269D02*
X11983768Y-10552316D01*
X11983768Y-10552316D02*
X11974244Y-10561840D01*
X11974244Y-10561840D02*
X11955196Y-10571364D01*
X11955196Y-10571364D02*
X11898053Y-10571364D01*
X11898053Y-10571364D02*
X11879006Y-10561840D01*
X11879006Y-10561840D02*
X11869482Y-10552316D01*
X12088529Y-10571364D02*
X12126625Y-10571364D01*
X12126625Y-10571364D02*
X12145672Y-10561840D01*
X12145672Y-10561840D02*
X12155196Y-10552316D01*
X12155196Y-10552316D02*
X12174244Y-10523745D01*
X12174244Y-10523745D02*
X12183768Y-10485650D01*
X12183768Y-10485650D02*
X12183768Y-10409459D01*
X12183768Y-10409459D02*
X12174244Y-10390411D01*
X12174244Y-10390411D02*
X12164720Y-10380888D01*
X12164720Y-10380888D02*
X12145672Y-10371364D01*
X12145672Y-10371364D02*
X12107577Y-10371364D01*
X12107577Y-10371364D02*
X12088529Y-10380888D01*
X12088529Y-10380888D02*
X12079006Y-10390411D01*
X12079006Y-10390411D02*
X12069482Y-10409459D01*
X12069482Y-10409459D02*
X12069482Y-10457078D01*
X12069482Y-10457078D02*
X12079006Y-10476126D01*
X12079006Y-10476126D02*
X12088529Y-10485650D01*
X12088529Y-10485650D02*
X12107577Y-10495173D01*
X12107577Y-10495173D02*
X12145672Y-10495173D01*
X12145672Y-10495173D02*
X12164720Y-10485650D01*
X12164720Y-10485650D02*
X12174244Y-10476126D01*
X12174244Y-10476126D02*
X12183768Y-10457078D01*
X12421863Y-10571364D02*
X12421863Y-10371364D01*
X12507577Y-10571364D02*
X12507577Y-10466602D01*
X12507577Y-10466602D02*
X12498053Y-10447554D01*
X12498053Y-10447554D02*
X12479006Y-10438030D01*
X12479006Y-10438030D02*
X12450434Y-10438030D01*
X12450434Y-10438030D02*
X12431387Y-10447554D01*
X12431387Y-10447554D02*
X12421863Y-10457078D01*
X12631387Y-10571364D02*
X12612339Y-10561840D01*
X12612339Y-10561840D02*
X12602815Y-10552316D01*
X12602815Y-10552316D02*
X12593291Y-10533269D01*
X12593291Y-10533269D02*
X12593291Y-10476126D01*
X12593291Y-10476126D02*
X12602815Y-10457078D01*
X12602815Y-10457078D02*
X12612339Y-10447554D01*
X12612339Y-10447554D02*
X12631387Y-10438030D01*
X12631387Y-10438030D02*
X12659958Y-10438030D01*
X12659958Y-10438030D02*
X12679006Y-10447554D01*
X12679006Y-10447554D02*
X12688530Y-10457078D01*
X12688530Y-10457078D02*
X12698053Y-10476126D01*
X12698053Y-10476126D02*
X12698053Y-10533269D01*
X12698053Y-10533269D02*
X12688530Y-10552316D01*
X12688530Y-10552316D02*
X12679006Y-10561840D01*
X12679006Y-10561840D02*
X12659958Y-10571364D01*
X12659958Y-10571364D02*
X12631387Y-10571364D01*
X12812339Y-10571364D02*
X12793291Y-10561840D01*
X12793291Y-10561840D02*
X12783768Y-10542792D01*
X12783768Y-10542792D02*
X12783768Y-10371364D01*
X12964720Y-10561840D02*
X12945672Y-10571364D01*
X12945672Y-10571364D02*
X12907577Y-10571364D01*
X12907577Y-10571364D02*
X12888530Y-10561840D01*
X12888530Y-10561840D02*
X12879006Y-10542792D01*
X12879006Y-10542792D02*
X12879006Y-10466602D01*
X12879006Y-10466602D02*
X12888530Y-10447554D01*
X12888530Y-10447554D02*
X12907577Y-10438030D01*
X12907577Y-10438030D02*
X12945672Y-10438030D01*
X12945672Y-10438030D02*
X12964720Y-10447554D01*
X12964720Y-10447554D02*
X12974244Y-10466602D01*
X12974244Y-10466602D02*
X12974244Y-10485650D01*
X12974244Y-10485650D02*
X12879006Y-10504697D01*
X13050434Y-10561840D02*
X13069482Y-10571364D01*
X13069482Y-10571364D02*
X13107577Y-10571364D01*
X13107577Y-10571364D02*
X13126625Y-10561840D01*
X13126625Y-10561840D02*
X13136149Y-10542792D01*
X13136149Y-10542792D02*
X13136149Y-10533269D01*
X13136149Y-10533269D02*
X13126625Y-10514221D01*
X13126625Y-10514221D02*
X13107577Y-10504697D01*
X13107577Y-10504697D02*
X13079006Y-10504697D01*
X13079006Y-10504697D02*
X13059958Y-10495173D01*
X13059958Y-10495173D02*
X13050434Y-10476126D01*
X13050434Y-10476126D02*
X13050434Y-10466602D01*
X13050434Y-10466602D02*
X13059958Y-10447554D01*
X13059958Y-10447554D02*
X13079006Y-10438030D01*
X13079006Y-10438030D02*
X13107577Y-10438030D01*
X13107577Y-10438030D02*
X13126625Y-10447554D01*
X13202815Y-10647554D02*
X13212339Y-10638030D01*
X13212339Y-10638030D02*
X13231387Y-10609459D01*
X13231387Y-10609459D02*
X13240911Y-10590411D01*
X13240911Y-10590411D02*
X13250434Y-10561840D01*
X13250434Y-10561840D02*
X13259958Y-10514221D01*
X13259958Y-10514221D02*
X13259958Y-10476126D01*
X13259958Y-10476126D02*
X13250434Y-10428507D01*
X13250434Y-10428507D02*
X13240911Y-10399935D01*
X13240911Y-10399935D02*
X13231387Y-10380888D01*
X13231387Y-10380888D02*
X13212339Y-10352316D01*
X13212339Y-10352316D02*
X13202815Y-10342792D01*
D10*
X8046800Y-10743880D02*
G75*
G02*
X8016800Y-10743880I-15000J0D01*
G01*
X8016800Y-10743880D02*
G75*
G02*
X8046800Y-10743880I15000J0D01*
G01*
D11*
X8345672Y-10635364D02*
X8364720Y-10635364D01*
X8364720Y-10635364D02*
X8383767Y-10644888D01*
X8383767Y-10644888D02*
X8393291Y-10654411D01*
X8393291Y-10654411D02*
X8402815Y-10673459D01*
X8402815Y-10673459D02*
X8412339Y-10711554D01*
X8412339Y-10711554D02*
X8412339Y-10759173D01*
X8412339Y-10759173D02*
X8402815Y-10797269D01*
X8402815Y-10797269D02*
X8393291Y-10816316D01*
X8393291Y-10816316D02*
X8383767Y-10825840D01*
X8383767Y-10825840D02*
X8364720Y-10835364D01*
X8364720Y-10835364D02*
X8345672Y-10835364D01*
X8345672Y-10835364D02*
X8326624Y-10825840D01*
X8326624Y-10825840D02*
X8317101Y-10816316D01*
X8317101Y-10816316D02*
X8307577Y-10797269D01*
X8307577Y-10797269D02*
X8298053Y-10759173D01*
X8298053Y-10759173D02*
X8298053Y-10711554D01*
X8298053Y-10711554D02*
X8307577Y-10673459D01*
X8307577Y-10673459D02*
X8317101Y-10654411D01*
X8317101Y-10654411D02*
X8326624Y-10644888D01*
X8326624Y-10644888D02*
X8345672Y-10635364D01*
X8498053Y-10816316D02*
X8507577Y-10825840D01*
X8507577Y-10825840D02*
X8498053Y-10835364D01*
X8498053Y-10835364D02*
X8488529Y-10825840D01*
X8488529Y-10825840D02*
X8498053Y-10816316D01*
X8498053Y-10816316D02*
X8498053Y-10835364D01*
X8574244Y-10635364D02*
X8698053Y-10635364D01*
X8698053Y-10635364D02*
X8631386Y-10711554D01*
X8631386Y-10711554D02*
X8659958Y-10711554D01*
X8659958Y-10711554D02*
X8679005Y-10721078D01*
X8679005Y-10721078D02*
X8688529Y-10730602D01*
X8688529Y-10730602D02*
X8698053Y-10749650D01*
X8698053Y-10749650D02*
X8698053Y-10797269D01*
X8698053Y-10797269D02*
X8688529Y-10816316D01*
X8688529Y-10816316D02*
X8679005Y-10825840D01*
X8679005Y-10825840D02*
X8659958Y-10835364D01*
X8659958Y-10835364D02*
X8602815Y-10835364D01*
X8602815Y-10835364D02*
X8583767Y-10825840D01*
X8583767Y-10825840D02*
X8574244Y-10816316D01*
X8821863Y-10635364D02*
X8840910Y-10635364D01*
X8840910Y-10635364D02*
X8859958Y-10644888D01*
X8859958Y-10644888D02*
X8869482Y-10654411D01*
X8869482Y-10654411D02*
X8879005Y-10673459D01*
X8879005Y-10673459D02*
X8888529Y-10711554D01*
X8888529Y-10711554D02*
X8888529Y-10759173D01*
X8888529Y-10759173D02*
X8879005Y-10797269D01*
X8879005Y-10797269D02*
X8869482Y-10816316D01*
X8869482Y-10816316D02*
X8859958Y-10825840D01*
X8859958Y-10825840D02*
X8840910Y-10835364D01*
X8840910Y-10835364D02*
X8821863Y-10835364D01*
X8821863Y-10835364D02*
X8802815Y-10825840D01*
X8802815Y-10825840D02*
X8793291Y-10816316D01*
X8793291Y-10816316D02*
X8783767Y-10797269D01*
X8783767Y-10797269D02*
X8774244Y-10759173D01*
X8774244Y-10759173D02*
X8774244Y-10711554D01*
X8774244Y-10711554D02*
X8783767Y-10673459D01*
X8783767Y-10673459D02*
X8793291Y-10654411D01*
X8793291Y-10654411D02*
X8802815Y-10644888D01*
X8802815Y-10644888D02*
X8821863Y-10635364D01*
X9012339Y-10635364D02*
X9031386Y-10635364D01*
X9031386Y-10635364D02*
X9050434Y-10644888D01*
X9050434Y-10644888D02*
X9059958Y-10654411D01*
X9059958Y-10654411D02*
X9069482Y-10673459D01*
X9069482Y-10673459D02*
X9079005Y-10711554D01*
X9079005Y-10711554D02*
X9079005Y-10759173D01*
X9079005Y-10759173D02*
X9069482Y-10797269D01*
X9069482Y-10797269D02*
X9059958Y-10816316D01*
X9059958Y-10816316D02*
X9050434Y-10825840D01*
X9050434Y-10825840D02*
X9031386Y-10835364D01*
X9031386Y-10835364D02*
X9012339Y-10835364D01*
X9012339Y-10835364D02*
X8993291Y-10825840D01*
X8993291Y-10825840D02*
X8983767Y-10816316D01*
X8983767Y-10816316D02*
X8974244Y-10797269D01*
X8974244Y-10797269D02*
X8964720Y-10759173D01*
X8964720Y-10759173D02*
X8964720Y-10711554D01*
X8964720Y-10711554D02*
X8974244Y-10673459D01*
X8974244Y-10673459D02*
X8983767Y-10654411D01*
X8983767Y-10654411D02*
X8993291Y-10644888D01*
X8993291Y-10644888D02*
X9012339Y-10635364D01*
X9164720Y-10835364D02*
X9164720Y-10702030D01*
X9164720Y-10721078D02*
X9174244Y-10711554D01*
X9174244Y-10711554D02*
X9193291Y-10702030D01*
X9193291Y-10702030D02*
X9221863Y-10702030D01*
X9221863Y-10702030D02*
X9240910Y-10711554D01*
X9240910Y-10711554D02*
X9250434Y-10730602D01*
X9250434Y-10730602D02*
X9250434Y-10835364D01*
X9250434Y-10730602D02*
X9259958Y-10711554D01*
X9259958Y-10711554D02*
X9279005Y-10702030D01*
X9279005Y-10702030D02*
X9307577Y-10702030D01*
X9307577Y-10702030D02*
X9326625Y-10711554D01*
X9326625Y-10711554D02*
X9336148Y-10730602D01*
X9336148Y-10730602D02*
X9336148Y-10835364D01*
X9431386Y-10835364D02*
X9431386Y-10702030D01*
X9431386Y-10721078D02*
X9440910Y-10711554D01*
X9440910Y-10711554D02*
X9459958Y-10702030D01*
X9459958Y-10702030D02*
X9488529Y-10702030D01*
X9488529Y-10702030D02*
X9507577Y-10711554D01*
X9507577Y-10711554D02*
X9517101Y-10730602D01*
X9517101Y-10730602D02*
X9517101Y-10835364D01*
X9517101Y-10730602D02*
X9526625Y-10711554D01*
X9526625Y-10711554D02*
X9545672Y-10702030D01*
X9545672Y-10702030D02*
X9574244Y-10702030D01*
X9574244Y-10702030D02*
X9593291Y-10711554D01*
X9593291Y-10711554D02*
X9602815Y-10730602D01*
X9602815Y-10730602D02*
X9602815Y-10835364D01*
X9993291Y-10625840D02*
X9821863Y-10882983D01*
X10250434Y-10635364D02*
X10269482Y-10635364D01*
X10269482Y-10635364D02*
X10288529Y-10644888D01*
X10288529Y-10644888D02*
X10298053Y-10654411D01*
X10298053Y-10654411D02*
X10307577Y-10673459D01*
X10307577Y-10673459D02*
X10317101Y-10711554D01*
X10317101Y-10711554D02*
X10317101Y-10759173D01*
X10317101Y-10759173D02*
X10307577Y-10797269D01*
X10307577Y-10797269D02*
X10298053Y-10816316D01*
X10298053Y-10816316D02*
X10288529Y-10825840D01*
X10288529Y-10825840D02*
X10269482Y-10835364D01*
X10269482Y-10835364D02*
X10250434Y-10835364D01*
X10250434Y-10835364D02*
X10231387Y-10825840D01*
X10231387Y-10825840D02*
X10221863Y-10816316D01*
X10221863Y-10816316D02*
X10212339Y-10797269D01*
X10212339Y-10797269D02*
X10202815Y-10759173D01*
X10202815Y-10759173D02*
X10202815Y-10711554D01*
X10202815Y-10711554D02*
X10212339Y-10673459D01*
X10212339Y-10673459D02*
X10221863Y-10654411D01*
X10221863Y-10654411D02*
X10231387Y-10644888D01*
X10231387Y-10644888D02*
X10250434Y-10635364D01*
X10402815Y-10816316D02*
X10412339Y-10825840D01*
X10412339Y-10825840D02*
X10402815Y-10835364D01*
X10402815Y-10835364D02*
X10393291Y-10825840D01*
X10393291Y-10825840D02*
X10402815Y-10816316D01*
X10402815Y-10816316D02*
X10402815Y-10835364D01*
X10536148Y-10635364D02*
X10555196Y-10635364D01*
X10555196Y-10635364D02*
X10574244Y-10644888D01*
X10574244Y-10644888D02*
X10583768Y-10654411D01*
X10583768Y-10654411D02*
X10593291Y-10673459D01*
X10593291Y-10673459D02*
X10602815Y-10711554D01*
X10602815Y-10711554D02*
X10602815Y-10759173D01*
X10602815Y-10759173D02*
X10593291Y-10797269D01*
X10593291Y-10797269D02*
X10583768Y-10816316D01*
X10583768Y-10816316D02*
X10574244Y-10825840D01*
X10574244Y-10825840D02*
X10555196Y-10835364D01*
X10555196Y-10835364D02*
X10536148Y-10835364D01*
X10536148Y-10835364D02*
X10517101Y-10825840D01*
X10517101Y-10825840D02*
X10507577Y-10816316D01*
X10507577Y-10816316D02*
X10498053Y-10797269D01*
X10498053Y-10797269D02*
X10488529Y-10759173D01*
X10488529Y-10759173D02*
X10488529Y-10711554D01*
X10488529Y-10711554D02*
X10498053Y-10673459D01*
X10498053Y-10673459D02*
X10507577Y-10654411D01*
X10507577Y-10654411D02*
X10517101Y-10644888D01*
X10517101Y-10644888D02*
X10536148Y-10635364D01*
X10793291Y-10835364D02*
X10679006Y-10835364D01*
X10736148Y-10835364D02*
X10736148Y-10635364D01*
X10736148Y-10635364D02*
X10717101Y-10663935D01*
X10717101Y-10663935D02*
X10698053Y-10682983D01*
X10698053Y-10682983D02*
X10679006Y-10692507D01*
X10983768Y-10835364D02*
X10869482Y-10835364D01*
X10926625Y-10835364D02*
X10926625Y-10635364D01*
X10926625Y-10635364D02*
X10907577Y-10663935D01*
X10907577Y-10663935D02*
X10888529Y-10682983D01*
X10888529Y-10682983D02*
X10869482Y-10692507D01*
X11098053Y-10721078D02*
X11079006Y-10711554D01*
X11079006Y-10711554D02*
X11069482Y-10702030D01*
X11069482Y-10702030D02*
X11059958Y-10682983D01*
X11059958Y-10682983D02*
X11059958Y-10673459D01*
X11059958Y-10673459D02*
X11069482Y-10654411D01*
X11069482Y-10654411D02*
X11079006Y-10644888D01*
X11079006Y-10644888D02*
X11098053Y-10635364D01*
X11098053Y-10635364D02*
X11136149Y-10635364D01*
X11136149Y-10635364D02*
X11155196Y-10644888D01*
X11155196Y-10644888D02*
X11164720Y-10654411D01*
X11164720Y-10654411D02*
X11174244Y-10673459D01*
X11174244Y-10673459D02*
X11174244Y-10682983D01*
X11174244Y-10682983D02*
X11164720Y-10702030D01*
X11164720Y-10702030D02*
X11155196Y-10711554D01*
X11155196Y-10711554D02*
X11136149Y-10721078D01*
X11136149Y-10721078D02*
X11098053Y-10721078D01*
X11098053Y-10721078D02*
X11079006Y-10730602D01*
X11079006Y-10730602D02*
X11069482Y-10740126D01*
X11069482Y-10740126D02*
X11059958Y-10759173D01*
X11059958Y-10759173D02*
X11059958Y-10797269D01*
X11059958Y-10797269D02*
X11069482Y-10816316D01*
X11069482Y-10816316D02*
X11079006Y-10825840D01*
X11079006Y-10825840D02*
X11098053Y-10835364D01*
X11098053Y-10835364D02*
X11136149Y-10835364D01*
X11136149Y-10835364D02*
X11155196Y-10825840D01*
X11155196Y-10825840D02*
X11164720Y-10816316D01*
X11164720Y-10816316D02*
X11174244Y-10797269D01*
X11174244Y-10797269D02*
X11174244Y-10759173D01*
X11174244Y-10759173D02*
X11164720Y-10740126D01*
X11164720Y-10740126D02*
X11155196Y-10730602D01*
X11155196Y-10730602D02*
X11136149Y-10721078D01*
X11250434Y-10635364D02*
X11250434Y-10673459D01*
X11326625Y-10635364D02*
X11326625Y-10673459D01*
X11621863Y-10911554D02*
X11612339Y-10902030D01*
X11612339Y-10902030D02*
X11593291Y-10873459D01*
X11593291Y-10873459D02*
X11583768Y-10854411D01*
X11583768Y-10854411D02*
X11574244Y-10825840D01*
X11574244Y-10825840D02*
X11564720Y-10778221D01*
X11564720Y-10778221D02*
X11564720Y-10740126D01*
X11564720Y-10740126D02*
X11574244Y-10692507D01*
X11574244Y-10692507D02*
X11583768Y-10663935D01*
X11583768Y-10663935D02*
X11593291Y-10644888D01*
X11593291Y-10644888D02*
X11612339Y-10616316D01*
X11612339Y-10616316D02*
X11621863Y-10606792D01*
X11679006Y-10635364D02*
X11812339Y-10635364D01*
X11812339Y-10635364D02*
X11726625Y-10835364D01*
X12040910Y-10835364D02*
X12040910Y-10635364D01*
X12126625Y-10835364D02*
X12126625Y-10730602D01*
X12126625Y-10730602D02*
X12117101Y-10711554D01*
X12117101Y-10711554D02*
X12098053Y-10702030D01*
X12098053Y-10702030D02*
X12069482Y-10702030D01*
X12069482Y-10702030D02*
X12050434Y-10711554D01*
X12050434Y-10711554D02*
X12040910Y-10721078D01*
X12250434Y-10835364D02*
X12231387Y-10825840D01*
X12231387Y-10825840D02*
X12221863Y-10816316D01*
X12221863Y-10816316D02*
X12212339Y-10797269D01*
X12212339Y-10797269D02*
X12212339Y-10740126D01*
X12212339Y-10740126D02*
X12221863Y-10721078D01*
X12221863Y-10721078D02*
X12231387Y-10711554D01*
X12231387Y-10711554D02*
X12250434Y-10702030D01*
X12250434Y-10702030D02*
X12279006Y-10702030D01*
X12279006Y-10702030D02*
X12298053Y-10711554D01*
X12298053Y-10711554D02*
X12307577Y-10721078D01*
X12307577Y-10721078D02*
X12317101Y-10740126D01*
X12317101Y-10740126D02*
X12317101Y-10797269D01*
X12317101Y-10797269D02*
X12307577Y-10816316D01*
X12307577Y-10816316D02*
X12298053Y-10825840D01*
X12298053Y-10825840D02*
X12279006Y-10835364D01*
X12279006Y-10835364D02*
X12250434Y-10835364D01*
X12431387Y-10835364D02*
X12412339Y-10825840D01*
X12412339Y-10825840D02*
X12402815Y-10806792D01*
X12402815Y-10806792D02*
X12402815Y-10635364D01*
X12583768Y-10825840D02*
X12564720Y-10835364D01*
X12564720Y-10835364D02*
X12526625Y-10835364D01*
X12526625Y-10835364D02*
X12507577Y-10825840D01*
X12507577Y-10825840D02*
X12498053Y-10806792D01*
X12498053Y-10806792D02*
X12498053Y-10730602D01*
X12498053Y-10730602D02*
X12507577Y-10711554D01*
X12507577Y-10711554D02*
X12526625Y-10702030D01*
X12526625Y-10702030D02*
X12564720Y-10702030D01*
X12564720Y-10702030D02*
X12583768Y-10711554D01*
X12583768Y-10711554D02*
X12593291Y-10730602D01*
X12593291Y-10730602D02*
X12593291Y-10749650D01*
X12593291Y-10749650D02*
X12498053Y-10768697D01*
X12669482Y-10825840D02*
X12688530Y-10835364D01*
X12688530Y-10835364D02*
X12726625Y-10835364D01*
X12726625Y-10835364D02*
X12745672Y-10825840D01*
X12745672Y-10825840D02*
X12755196Y-10806792D01*
X12755196Y-10806792D02*
X12755196Y-10797269D01*
X12755196Y-10797269D02*
X12745672Y-10778221D01*
X12745672Y-10778221D02*
X12726625Y-10768697D01*
X12726625Y-10768697D02*
X12698053Y-10768697D01*
X12698053Y-10768697D02*
X12679006Y-10759173D01*
X12679006Y-10759173D02*
X12669482Y-10740126D01*
X12669482Y-10740126D02*
X12669482Y-10730602D01*
X12669482Y-10730602D02*
X12679006Y-10711554D01*
X12679006Y-10711554D02*
X12698053Y-10702030D01*
X12698053Y-10702030D02*
X12726625Y-10702030D01*
X12726625Y-10702030D02*
X12745672Y-10711554D01*
X12821863Y-10911554D02*
X12831387Y-10902030D01*
X12831387Y-10902030D02*
X12850434Y-10873459D01*
X12850434Y-10873459D02*
X12859958Y-10854411D01*
X12859958Y-10854411D02*
X12869482Y-10825840D01*
X12869482Y-10825840D02*
X12879006Y-10778221D01*
X12879006Y-10778221D02*
X12879006Y-10740126D01*
X12879006Y-10740126D02*
X12869482Y-10692507D01*
X12869482Y-10692507D02*
X12859958Y-10663935D01*
X12859958Y-10663935D02*
X12850434Y-10644888D01*
X12850434Y-10644888D02*
X12831387Y-10616316D01*
X12831387Y-10616316D02*
X12821863Y-10606792D01*
D10*
X8021800Y-10982880D02*
X8021800Y-11032880D01*
X7996800Y-11007880D02*
X8046800Y-11007880D01*
D11*
X8345672Y-10899364D02*
X8364720Y-10899364D01*
X8364720Y-10899364D02*
X8383767Y-10908888D01*
X8383767Y-10908888D02*
X8393291Y-10918411D01*
X8393291Y-10918411D02*
X8402815Y-10937459D01*
X8402815Y-10937459D02*
X8412339Y-10975554D01*
X8412339Y-10975554D02*
X8412339Y-11023173D01*
X8412339Y-11023173D02*
X8402815Y-11061269D01*
X8402815Y-11061269D02*
X8393291Y-11080316D01*
X8393291Y-11080316D02*
X8383767Y-11089840D01*
X8383767Y-11089840D02*
X8364720Y-11099364D01*
X8364720Y-11099364D02*
X8345672Y-11099364D01*
X8345672Y-11099364D02*
X8326624Y-11089840D01*
X8326624Y-11089840D02*
X8317101Y-11080316D01*
X8317101Y-11080316D02*
X8307577Y-11061269D01*
X8307577Y-11061269D02*
X8298053Y-11023173D01*
X8298053Y-11023173D02*
X8298053Y-10975554D01*
X8298053Y-10975554D02*
X8307577Y-10937459D01*
X8307577Y-10937459D02*
X8317101Y-10918411D01*
X8317101Y-10918411D02*
X8326624Y-10908888D01*
X8326624Y-10908888D02*
X8345672Y-10899364D01*
X8498053Y-11080316D02*
X8507577Y-11089840D01*
X8507577Y-11089840D02*
X8498053Y-11099364D01*
X8498053Y-11099364D02*
X8488529Y-11089840D01*
X8488529Y-11089840D02*
X8498053Y-11080316D01*
X8498053Y-11080316D02*
X8498053Y-11099364D01*
X8688529Y-10899364D02*
X8593291Y-10899364D01*
X8593291Y-10899364D02*
X8583767Y-10994602D01*
X8583767Y-10994602D02*
X8593291Y-10985078D01*
X8593291Y-10985078D02*
X8612339Y-10975554D01*
X8612339Y-10975554D02*
X8659958Y-10975554D01*
X8659958Y-10975554D02*
X8679005Y-10985078D01*
X8679005Y-10985078D02*
X8688529Y-10994602D01*
X8688529Y-10994602D02*
X8698053Y-11013650D01*
X8698053Y-11013650D02*
X8698053Y-11061269D01*
X8698053Y-11061269D02*
X8688529Y-11080316D01*
X8688529Y-11080316D02*
X8679005Y-11089840D01*
X8679005Y-11089840D02*
X8659958Y-11099364D01*
X8659958Y-11099364D02*
X8612339Y-11099364D01*
X8612339Y-11099364D02*
X8593291Y-11089840D01*
X8593291Y-11089840D02*
X8583767Y-11080316D01*
X8821863Y-10899364D02*
X8840910Y-10899364D01*
X8840910Y-10899364D02*
X8859958Y-10908888D01*
X8859958Y-10908888D02*
X8869482Y-10918411D01*
X8869482Y-10918411D02*
X8879005Y-10937459D01*
X8879005Y-10937459D02*
X8888529Y-10975554D01*
X8888529Y-10975554D02*
X8888529Y-11023173D01*
X8888529Y-11023173D02*
X8879005Y-11061269D01*
X8879005Y-11061269D02*
X8869482Y-11080316D01*
X8869482Y-11080316D02*
X8859958Y-11089840D01*
X8859958Y-11089840D02*
X8840910Y-11099364D01*
X8840910Y-11099364D02*
X8821863Y-11099364D01*
X8821863Y-11099364D02*
X8802815Y-11089840D01*
X8802815Y-11089840D02*
X8793291Y-11080316D01*
X8793291Y-11080316D02*
X8783767Y-11061269D01*
X8783767Y-11061269D02*
X8774244Y-11023173D01*
X8774244Y-11023173D02*
X8774244Y-10975554D01*
X8774244Y-10975554D02*
X8783767Y-10937459D01*
X8783767Y-10937459D02*
X8793291Y-10918411D01*
X8793291Y-10918411D02*
X8802815Y-10908888D01*
X8802815Y-10908888D02*
X8821863Y-10899364D01*
X9012339Y-10899364D02*
X9031386Y-10899364D01*
X9031386Y-10899364D02*
X9050434Y-10908888D01*
X9050434Y-10908888D02*
X9059958Y-10918411D01*
X9059958Y-10918411D02*
X9069482Y-10937459D01*
X9069482Y-10937459D02*
X9079005Y-10975554D01*
X9079005Y-10975554D02*
X9079005Y-11023173D01*
X9079005Y-11023173D02*
X9069482Y-11061269D01*
X9069482Y-11061269D02*
X9059958Y-11080316D01*
X9059958Y-11080316D02*
X9050434Y-11089840D01*
X9050434Y-11089840D02*
X9031386Y-11099364D01*
X9031386Y-11099364D02*
X9012339Y-11099364D01*
X9012339Y-11099364D02*
X8993291Y-11089840D01*
X8993291Y-11089840D02*
X8983767Y-11080316D01*
X8983767Y-11080316D02*
X8974244Y-11061269D01*
X8974244Y-11061269D02*
X8964720Y-11023173D01*
X8964720Y-11023173D02*
X8964720Y-10975554D01*
X8964720Y-10975554D02*
X8974244Y-10937459D01*
X8974244Y-10937459D02*
X8983767Y-10918411D01*
X8983767Y-10918411D02*
X8993291Y-10908888D01*
X8993291Y-10908888D02*
X9012339Y-10899364D01*
X9164720Y-11099364D02*
X9164720Y-10966030D01*
X9164720Y-10985078D02*
X9174244Y-10975554D01*
X9174244Y-10975554D02*
X9193291Y-10966030D01*
X9193291Y-10966030D02*
X9221863Y-10966030D01*
X9221863Y-10966030D02*
X9240910Y-10975554D01*
X9240910Y-10975554D02*
X9250434Y-10994602D01*
X9250434Y-10994602D02*
X9250434Y-11099364D01*
X9250434Y-10994602D02*
X9259958Y-10975554D01*
X9259958Y-10975554D02*
X9279005Y-10966030D01*
X9279005Y-10966030D02*
X9307577Y-10966030D01*
X9307577Y-10966030D02*
X9326625Y-10975554D01*
X9326625Y-10975554D02*
X9336148Y-10994602D01*
X9336148Y-10994602D02*
X9336148Y-11099364D01*
X9431386Y-11099364D02*
X9431386Y-10966030D01*
X9431386Y-10985078D02*
X9440910Y-10975554D01*
X9440910Y-10975554D02*
X9459958Y-10966030D01*
X9459958Y-10966030D02*
X9488529Y-10966030D01*
X9488529Y-10966030D02*
X9507577Y-10975554D01*
X9507577Y-10975554D02*
X9517101Y-10994602D01*
X9517101Y-10994602D02*
X9517101Y-11099364D01*
X9517101Y-10994602D02*
X9526625Y-10975554D01*
X9526625Y-10975554D02*
X9545672Y-10966030D01*
X9545672Y-10966030D02*
X9574244Y-10966030D01*
X9574244Y-10966030D02*
X9593291Y-10975554D01*
X9593291Y-10975554D02*
X9602815Y-10994602D01*
X9602815Y-10994602D02*
X9602815Y-11099364D01*
X9993291Y-10889840D02*
X9821863Y-11146983D01*
X10250434Y-10899364D02*
X10269482Y-10899364D01*
X10269482Y-10899364D02*
X10288529Y-10908888D01*
X10288529Y-10908888D02*
X10298053Y-10918411D01*
X10298053Y-10918411D02*
X10307577Y-10937459D01*
X10307577Y-10937459D02*
X10317101Y-10975554D01*
X10317101Y-10975554D02*
X10317101Y-11023173D01*
X10317101Y-11023173D02*
X10307577Y-11061269D01*
X10307577Y-11061269D02*
X10298053Y-11080316D01*
X10298053Y-11080316D02*
X10288529Y-11089840D01*
X10288529Y-11089840D02*
X10269482Y-11099364D01*
X10269482Y-11099364D02*
X10250434Y-11099364D01*
X10250434Y-11099364D02*
X10231387Y-11089840D01*
X10231387Y-11089840D02*
X10221863Y-11080316D01*
X10221863Y-11080316D02*
X10212339Y-11061269D01*
X10212339Y-11061269D02*
X10202815Y-11023173D01*
X10202815Y-11023173D02*
X10202815Y-10975554D01*
X10202815Y-10975554D02*
X10212339Y-10937459D01*
X10212339Y-10937459D02*
X10221863Y-10918411D01*
X10221863Y-10918411D02*
X10231387Y-10908888D01*
X10231387Y-10908888D02*
X10250434Y-10899364D01*
X10402815Y-11080316D02*
X10412339Y-11089840D01*
X10412339Y-11089840D02*
X10402815Y-11099364D01*
X10402815Y-11099364D02*
X10393291Y-11089840D01*
X10393291Y-11089840D02*
X10402815Y-11080316D01*
X10402815Y-11080316D02*
X10402815Y-11099364D01*
X10536148Y-10899364D02*
X10555196Y-10899364D01*
X10555196Y-10899364D02*
X10574244Y-10908888D01*
X10574244Y-10908888D02*
X10583768Y-10918411D01*
X10583768Y-10918411D02*
X10593291Y-10937459D01*
X10593291Y-10937459D02*
X10602815Y-10975554D01*
X10602815Y-10975554D02*
X10602815Y-11023173D01*
X10602815Y-11023173D02*
X10593291Y-11061269D01*
X10593291Y-11061269D02*
X10583768Y-11080316D01*
X10583768Y-11080316D02*
X10574244Y-11089840D01*
X10574244Y-11089840D02*
X10555196Y-11099364D01*
X10555196Y-11099364D02*
X10536148Y-11099364D01*
X10536148Y-11099364D02*
X10517101Y-11089840D01*
X10517101Y-11089840D02*
X10507577Y-11080316D01*
X10507577Y-11080316D02*
X10498053Y-11061269D01*
X10498053Y-11061269D02*
X10488529Y-11023173D01*
X10488529Y-11023173D02*
X10488529Y-10975554D01*
X10488529Y-10975554D02*
X10498053Y-10937459D01*
X10498053Y-10937459D02*
X10507577Y-10918411D01*
X10507577Y-10918411D02*
X10517101Y-10908888D01*
X10517101Y-10908888D02*
X10536148Y-10899364D01*
X10793291Y-11099364D02*
X10679006Y-11099364D01*
X10736148Y-11099364D02*
X10736148Y-10899364D01*
X10736148Y-10899364D02*
X10717101Y-10927935D01*
X10717101Y-10927935D02*
X10698053Y-10946983D01*
X10698053Y-10946983D02*
X10679006Y-10956507D01*
X10888529Y-11099364D02*
X10926625Y-11099364D01*
X10926625Y-11099364D02*
X10945672Y-11089840D01*
X10945672Y-11089840D02*
X10955196Y-11080316D01*
X10955196Y-11080316D02*
X10974244Y-11051745D01*
X10974244Y-11051745D02*
X10983768Y-11013650D01*
X10983768Y-11013650D02*
X10983768Y-10937459D01*
X10983768Y-10937459D02*
X10974244Y-10918411D01*
X10974244Y-10918411D02*
X10964720Y-10908888D01*
X10964720Y-10908888D02*
X10945672Y-10899364D01*
X10945672Y-10899364D02*
X10907577Y-10899364D01*
X10907577Y-10899364D02*
X10888529Y-10908888D01*
X10888529Y-10908888D02*
X10879006Y-10918411D01*
X10879006Y-10918411D02*
X10869482Y-10937459D01*
X10869482Y-10937459D02*
X10869482Y-10985078D01*
X10869482Y-10985078D02*
X10879006Y-11004126D01*
X10879006Y-11004126D02*
X10888529Y-11013650D01*
X10888529Y-11013650D02*
X10907577Y-11023173D01*
X10907577Y-11023173D02*
X10945672Y-11023173D01*
X10945672Y-11023173D02*
X10964720Y-11013650D01*
X10964720Y-11013650D02*
X10974244Y-11004126D01*
X10974244Y-11004126D02*
X10983768Y-10985078D01*
X11050434Y-10899364D02*
X11183768Y-10899364D01*
X11183768Y-10899364D02*
X11098053Y-11099364D01*
X11250434Y-10899364D02*
X11250434Y-10937459D01*
X11326625Y-10899364D02*
X11326625Y-10937459D01*
X11621863Y-11175554D02*
X11612339Y-11166030D01*
X11612339Y-11166030D02*
X11593291Y-11137459D01*
X11593291Y-11137459D02*
X11583768Y-11118411D01*
X11583768Y-11118411D02*
X11574244Y-11089840D01*
X11574244Y-11089840D02*
X11564720Y-11042221D01*
X11564720Y-11042221D02*
X11564720Y-11004126D01*
X11564720Y-11004126D02*
X11574244Y-10956507D01*
X11574244Y-10956507D02*
X11583768Y-10927935D01*
X11583768Y-10927935D02*
X11593291Y-10908888D01*
X11593291Y-10908888D02*
X11612339Y-10880316D01*
X11612339Y-10880316D02*
X11621863Y-10870792D01*
X11736148Y-10899364D02*
X11755196Y-10899364D01*
X11755196Y-10899364D02*
X11774244Y-10908888D01*
X11774244Y-10908888D02*
X11783768Y-10918411D01*
X11783768Y-10918411D02*
X11793291Y-10937459D01*
X11793291Y-10937459D02*
X11802815Y-10975554D01*
X11802815Y-10975554D02*
X11802815Y-11023173D01*
X11802815Y-11023173D02*
X11793291Y-11061269D01*
X11793291Y-11061269D02*
X11783768Y-11080316D01*
X11783768Y-11080316D02*
X11774244Y-11089840D01*
X11774244Y-11089840D02*
X11755196Y-11099364D01*
X11755196Y-11099364D02*
X11736148Y-11099364D01*
X11736148Y-11099364D02*
X11717101Y-11089840D01*
X11717101Y-11089840D02*
X11707577Y-11080316D01*
X11707577Y-11080316D02*
X11698053Y-11061269D01*
X11698053Y-11061269D02*
X11688529Y-11023173D01*
X11688529Y-11023173D02*
X11688529Y-10975554D01*
X11688529Y-10975554D02*
X11698053Y-10937459D01*
X11698053Y-10937459D02*
X11707577Y-10918411D01*
X11707577Y-10918411D02*
X11717101Y-10908888D01*
X11717101Y-10908888D02*
X11736148Y-10899364D01*
X12040910Y-11099364D02*
X12040910Y-10899364D01*
X12126625Y-11099364D02*
X12126625Y-10994602D01*
X12126625Y-10994602D02*
X12117101Y-10975554D01*
X12117101Y-10975554D02*
X12098053Y-10966030D01*
X12098053Y-10966030D02*
X12069482Y-10966030D01*
X12069482Y-10966030D02*
X12050434Y-10975554D01*
X12050434Y-10975554D02*
X12040910Y-10985078D01*
X12250434Y-11099364D02*
X12231387Y-11089840D01*
X12231387Y-11089840D02*
X12221863Y-11080316D01*
X12221863Y-11080316D02*
X12212339Y-11061269D01*
X12212339Y-11061269D02*
X12212339Y-11004126D01*
X12212339Y-11004126D02*
X12221863Y-10985078D01*
X12221863Y-10985078D02*
X12231387Y-10975554D01*
X12231387Y-10975554D02*
X12250434Y-10966030D01*
X12250434Y-10966030D02*
X12279006Y-10966030D01*
X12279006Y-10966030D02*
X12298053Y-10975554D01*
X12298053Y-10975554D02*
X12307577Y-10985078D01*
X12307577Y-10985078D02*
X12317101Y-11004126D01*
X12317101Y-11004126D02*
X12317101Y-11061269D01*
X12317101Y-11061269D02*
X12307577Y-11080316D01*
X12307577Y-11080316D02*
X12298053Y-11089840D01*
X12298053Y-11089840D02*
X12279006Y-11099364D01*
X12279006Y-11099364D02*
X12250434Y-11099364D01*
X12431387Y-11099364D02*
X12412339Y-11089840D01*
X12412339Y-11089840D02*
X12402815Y-11070792D01*
X12402815Y-11070792D02*
X12402815Y-10899364D01*
X12583768Y-11089840D02*
X12564720Y-11099364D01*
X12564720Y-11099364D02*
X12526625Y-11099364D01*
X12526625Y-11099364D02*
X12507577Y-11089840D01*
X12507577Y-11089840D02*
X12498053Y-11070792D01*
X12498053Y-11070792D02*
X12498053Y-10994602D01*
X12498053Y-10994602D02*
X12507577Y-10975554D01*
X12507577Y-10975554D02*
X12526625Y-10966030D01*
X12526625Y-10966030D02*
X12564720Y-10966030D01*
X12564720Y-10966030D02*
X12583768Y-10975554D01*
X12583768Y-10975554D02*
X12593291Y-10994602D01*
X12593291Y-10994602D02*
X12593291Y-11013650D01*
X12593291Y-11013650D02*
X12498053Y-11032697D01*
X12669482Y-11089840D02*
X12688530Y-11099364D01*
X12688530Y-11099364D02*
X12726625Y-11099364D01*
X12726625Y-11099364D02*
X12745672Y-11089840D01*
X12745672Y-11089840D02*
X12755196Y-11070792D01*
X12755196Y-11070792D02*
X12755196Y-11061269D01*
X12755196Y-11061269D02*
X12745672Y-11042221D01*
X12745672Y-11042221D02*
X12726625Y-11032697D01*
X12726625Y-11032697D02*
X12698053Y-11032697D01*
X12698053Y-11032697D02*
X12679006Y-11023173D01*
X12679006Y-11023173D02*
X12669482Y-11004126D01*
X12669482Y-11004126D02*
X12669482Y-10994602D01*
X12669482Y-10994602D02*
X12679006Y-10975554D01*
X12679006Y-10975554D02*
X12698053Y-10966030D01*
X12698053Y-10966030D02*
X12726625Y-10966030D01*
X12726625Y-10966030D02*
X12745672Y-10975554D01*
X12993292Y-11023173D02*
X13145673Y-11023173D01*
X13069482Y-11099364D02*
X13069482Y-10946983D01*
X13479006Y-10966030D02*
X13479006Y-11099364D01*
X13431387Y-10889840D02*
X13383768Y-11032697D01*
X13383768Y-11032697D02*
X13507577Y-11032697D01*
X13726625Y-11089840D02*
X13745673Y-11099364D01*
X13745673Y-11099364D02*
X13783768Y-11099364D01*
X13783768Y-11099364D02*
X13802815Y-11089840D01*
X13802815Y-11089840D02*
X13812339Y-11070792D01*
X13812339Y-11070792D02*
X13812339Y-11061269D01*
X13812339Y-11061269D02*
X13802815Y-11042221D01*
X13802815Y-11042221D02*
X13783768Y-11032697D01*
X13783768Y-11032697D02*
X13755196Y-11032697D01*
X13755196Y-11032697D02*
X13736149Y-11023173D01*
X13736149Y-11023173D02*
X13726625Y-11004126D01*
X13726625Y-11004126D02*
X13726625Y-10994602D01*
X13726625Y-10994602D02*
X13736149Y-10975554D01*
X13736149Y-10975554D02*
X13755196Y-10966030D01*
X13755196Y-10966030D02*
X13783768Y-10966030D01*
X13783768Y-10966030D02*
X13802815Y-10975554D01*
X13926625Y-11099364D02*
X13907577Y-11089840D01*
X13907577Y-11089840D02*
X13898054Y-11070792D01*
X13898054Y-11070792D02*
X13898054Y-10899364D01*
X14031387Y-11099364D02*
X14012339Y-11089840D01*
X14012339Y-11089840D02*
X14002815Y-11080316D01*
X14002815Y-11080316D02*
X13993292Y-11061269D01*
X13993292Y-11061269D02*
X13993292Y-11004126D01*
X13993292Y-11004126D02*
X14002815Y-10985078D01*
X14002815Y-10985078D02*
X14012339Y-10975554D01*
X14012339Y-10975554D02*
X14031387Y-10966030D01*
X14031387Y-10966030D02*
X14059958Y-10966030D01*
X14059958Y-10966030D02*
X14079006Y-10975554D01*
X14079006Y-10975554D02*
X14088530Y-10985078D01*
X14088530Y-10985078D02*
X14098054Y-11004126D01*
X14098054Y-11004126D02*
X14098054Y-11061269D01*
X14098054Y-11061269D02*
X14088530Y-11080316D01*
X14088530Y-11080316D02*
X14079006Y-11089840D01*
X14079006Y-11089840D02*
X14059958Y-11099364D01*
X14059958Y-11099364D02*
X14031387Y-11099364D01*
X14155196Y-10966030D02*
X14231387Y-10966030D01*
X14183768Y-10899364D02*
X14183768Y-11070792D01*
X14183768Y-11070792D02*
X14193292Y-11089840D01*
X14193292Y-11089840D02*
X14212339Y-11099364D01*
X14212339Y-11099364D02*
X14231387Y-11099364D01*
X14288530Y-11089840D02*
X14307577Y-11099364D01*
X14307577Y-11099364D02*
X14345673Y-11099364D01*
X14345673Y-11099364D02*
X14364720Y-11089840D01*
X14364720Y-11089840D02*
X14374244Y-11070792D01*
X14374244Y-11070792D02*
X14374244Y-11061269D01*
X14374244Y-11061269D02*
X14364720Y-11042221D01*
X14364720Y-11042221D02*
X14345673Y-11032697D01*
X14345673Y-11032697D02*
X14317101Y-11032697D01*
X14317101Y-11032697D02*
X14298054Y-11023173D01*
X14298054Y-11023173D02*
X14288530Y-11004126D01*
X14288530Y-11004126D02*
X14288530Y-10994602D01*
X14288530Y-10994602D02*
X14298054Y-10975554D01*
X14298054Y-10975554D02*
X14317101Y-10966030D01*
X14317101Y-10966030D02*
X14345673Y-10966030D01*
X14345673Y-10966030D02*
X14364720Y-10975554D01*
X14440911Y-11175554D02*
X14450435Y-11166030D01*
X14450435Y-11166030D02*
X14469482Y-11137459D01*
X14469482Y-11137459D02*
X14479006Y-11118411D01*
X14479006Y-11118411D02*
X14488530Y-11089840D01*
X14488530Y-11089840D02*
X14498054Y-11042221D01*
X14498054Y-11042221D02*
X14498054Y-11004126D01*
X14498054Y-11004126D02*
X14488530Y-10956507D01*
X14488530Y-10956507D02*
X14479006Y-10927935D01*
X14479006Y-10927935D02*
X14469482Y-10908888D01*
X14469482Y-10908888D02*
X14450435Y-10880316D01*
X14450435Y-10880316D02*
X14440911Y-10870792D01*
D10*
X8032156Y-11307236D02*
X8032156Y-11236524D01*
X7961444Y-11236524D01*
X7961444Y-11307236D01*
X8032156Y-11307236D01*
D11*
X8412339Y-11363364D02*
X8298053Y-11363364D01*
X8355196Y-11363364D02*
X8355196Y-11163364D01*
X8355196Y-11163364D02*
X8336148Y-11191935D01*
X8336148Y-11191935D02*
X8317101Y-11210983D01*
X8317101Y-11210983D02*
X8298053Y-11220507D01*
X8498053Y-11344316D02*
X8507577Y-11353840D01*
X8507577Y-11353840D02*
X8498053Y-11363364D01*
X8498053Y-11363364D02*
X8488529Y-11353840D01*
X8488529Y-11353840D02*
X8498053Y-11344316D01*
X8498053Y-11344316D02*
X8498053Y-11363364D01*
X8631386Y-11163364D02*
X8650434Y-11163364D01*
X8650434Y-11163364D02*
X8669482Y-11172888D01*
X8669482Y-11172888D02*
X8679005Y-11182411D01*
X8679005Y-11182411D02*
X8688529Y-11201459D01*
X8688529Y-11201459D02*
X8698053Y-11239554D01*
X8698053Y-11239554D02*
X8698053Y-11287173D01*
X8698053Y-11287173D02*
X8688529Y-11325268D01*
X8688529Y-11325268D02*
X8679005Y-11344316D01*
X8679005Y-11344316D02*
X8669482Y-11353840D01*
X8669482Y-11353840D02*
X8650434Y-11363364D01*
X8650434Y-11363364D02*
X8631386Y-11363364D01*
X8631386Y-11363364D02*
X8612339Y-11353840D01*
X8612339Y-11353840D02*
X8602815Y-11344316D01*
X8602815Y-11344316D02*
X8593291Y-11325268D01*
X8593291Y-11325268D02*
X8583767Y-11287173D01*
X8583767Y-11287173D02*
X8583767Y-11239554D01*
X8583767Y-11239554D02*
X8593291Y-11201459D01*
X8593291Y-11201459D02*
X8602815Y-11182411D01*
X8602815Y-11182411D02*
X8612339Y-11172888D01*
X8612339Y-11172888D02*
X8631386Y-11163364D01*
X8821863Y-11163364D02*
X8840910Y-11163364D01*
X8840910Y-11163364D02*
X8859958Y-11172888D01*
X8859958Y-11172888D02*
X8869482Y-11182411D01*
X8869482Y-11182411D02*
X8879005Y-11201459D01*
X8879005Y-11201459D02*
X8888529Y-11239554D01*
X8888529Y-11239554D02*
X8888529Y-11287173D01*
X8888529Y-11287173D02*
X8879005Y-11325268D01*
X8879005Y-11325268D02*
X8869482Y-11344316D01*
X8869482Y-11344316D02*
X8859958Y-11353840D01*
X8859958Y-11353840D02*
X8840910Y-11363364D01*
X8840910Y-11363364D02*
X8821863Y-11363364D01*
X8821863Y-11363364D02*
X8802815Y-11353840D01*
X8802815Y-11353840D02*
X8793291Y-11344316D01*
X8793291Y-11344316D02*
X8783767Y-11325268D01*
X8783767Y-11325268D02*
X8774244Y-11287173D01*
X8774244Y-11287173D02*
X8774244Y-11239554D01*
X8774244Y-11239554D02*
X8783767Y-11201459D01*
X8783767Y-11201459D02*
X8793291Y-11182411D01*
X8793291Y-11182411D02*
X8802815Y-11172888D01*
X8802815Y-11172888D02*
X8821863Y-11163364D01*
X9012339Y-11163364D02*
X9031386Y-11163364D01*
X9031386Y-11163364D02*
X9050434Y-11172888D01*
X9050434Y-11172888D02*
X9059958Y-11182411D01*
X9059958Y-11182411D02*
X9069482Y-11201459D01*
X9069482Y-11201459D02*
X9079005Y-11239554D01*
X9079005Y-11239554D02*
X9079005Y-11287173D01*
X9079005Y-11287173D02*
X9069482Y-11325268D01*
X9069482Y-11325268D02*
X9059958Y-11344316D01*
X9059958Y-11344316D02*
X9050434Y-11353840D01*
X9050434Y-11353840D02*
X9031386Y-11363364D01*
X9031386Y-11363364D02*
X9012339Y-11363364D01*
X9012339Y-11363364D02*
X8993291Y-11353840D01*
X8993291Y-11353840D02*
X8983767Y-11344316D01*
X8983767Y-11344316D02*
X8974244Y-11325268D01*
X8974244Y-11325268D02*
X8964720Y-11287173D01*
X8964720Y-11287173D02*
X8964720Y-11239554D01*
X8964720Y-11239554D02*
X8974244Y-11201459D01*
X8974244Y-11201459D02*
X8983767Y-11182411D01*
X8983767Y-11182411D02*
X8993291Y-11172888D01*
X8993291Y-11172888D02*
X9012339Y-11163364D01*
X9164720Y-11363364D02*
X9164720Y-11230030D01*
X9164720Y-11249078D02*
X9174244Y-11239554D01*
X9174244Y-11239554D02*
X9193291Y-11230030D01*
X9193291Y-11230030D02*
X9221863Y-11230030D01*
X9221863Y-11230030D02*
X9240910Y-11239554D01*
X9240910Y-11239554D02*
X9250434Y-11258602D01*
X9250434Y-11258602D02*
X9250434Y-11363364D01*
X9250434Y-11258602D02*
X9259958Y-11239554D01*
X9259958Y-11239554D02*
X9279005Y-11230030D01*
X9279005Y-11230030D02*
X9307577Y-11230030D01*
X9307577Y-11230030D02*
X9326625Y-11239554D01*
X9326625Y-11239554D02*
X9336148Y-11258602D01*
X9336148Y-11258602D02*
X9336148Y-11363364D01*
X9431386Y-11363364D02*
X9431386Y-11230030D01*
X9431386Y-11249078D02*
X9440910Y-11239554D01*
X9440910Y-11239554D02*
X9459958Y-11230030D01*
X9459958Y-11230030D02*
X9488529Y-11230030D01*
X9488529Y-11230030D02*
X9507577Y-11239554D01*
X9507577Y-11239554D02*
X9517101Y-11258602D01*
X9517101Y-11258602D02*
X9517101Y-11363364D01*
X9517101Y-11258602D02*
X9526625Y-11239554D01*
X9526625Y-11239554D02*
X9545672Y-11230030D01*
X9545672Y-11230030D02*
X9574244Y-11230030D01*
X9574244Y-11230030D02*
X9593291Y-11239554D01*
X9593291Y-11239554D02*
X9602815Y-11258602D01*
X9602815Y-11258602D02*
X9602815Y-11363364D01*
X9993291Y-11153840D02*
X9821863Y-11410983D01*
X10250434Y-11163364D02*
X10269482Y-11163364D01*
X10269482Y-11163364D02*
X10288529Y-11172888D01*
X10288529Y-11172888D02*
X10298053Y-11182411D01*
X10298053Y-11182411D02*
X10307577Y-11201459D01*
X10307577Y-11201459D02*
X10317101Y-11239554D01*
X10317101Y-11239554D02*
X10317101Y-11287173D01*
X10317101Y-11287173D02*
X10307577Y-11325268D01*
X10307577Y-11325268D02*
X10298053Y-11344316D01*
X10298053Y-11344316D02*
X10288529Y-11353840D01*
X10288529Y-11353840D02*
X10269482Y-11363364D01*
X10269482Y-11363364D02*
X10250434Y-11363364D01*
X10250434Y-11363364D02*
X10231387Y-11353840D01*
X10231387Y-11353840D02*
X10221863Y-11344316D01*
X10221863Y-11344316D02*
X10212339Y-11325268D01*
X10212339Y-11325268D02*
X10202815Y-11287173D01*
X10202815Y-11287173D02*
X10202815Y-11239554D01*
X10202815Y-11239554D02*
X10212339Y-11201459D01*
X10212339Y-11201459D02*
X10221863Y-11182411D01*
X10221863Y-11182411D02*
X10231387Y-11172888D01*
X10231387Y-11172888D02*
X10250434Y-11163364D01*
X10402815Y-11344316D02*
X10412339Y-11353840D01*
X10412339Y-11353840D02*
X10402815Y-11363364D01*
X10402815Y-11363364D02*
X10393291Y-11353840D01*
X10393291Y-11353840D02*
X10402815Y-11344316D01*
X10402815Y-11344316D02*
X10402815Y-11363364D01*
X10536148Y-11163364D02*
X10555196Y-11163364D01*
X10555196Y-11163364D02*
X10574244Y-11172888D01*
X10574244Y-11172888D02*
X10583768Y-11182411D01*
X10583768Y-11182411D02*
X10593291Y-11201459D01*
X10593291Y-11201459D02*
X10602815Y-11239554D01*
X10602815Y-11239554D02*
X10602815Y-11287173D01*
X10602815Y-11287173D02*
X10593291Y-11325268D01*
X10593291Y-11325268D02*
X10583768Y-11344316D01*
X10583768Y-11344316D02*
X10574244Y-11353840D01*
X10574244Y-11353840D02*
X10555196Y-11363364D01*
X10555196Y-11363364D02*
X10536148Y-11363364D01*
X10536148Y-11363364D02*
X10517101Y-11353840D01*
X10517101Y-11353840D02*
X10507577Y-11344316D01*
X10507577Y-11344316D02*
X10498053Y-11325268D01*
X10498053Y-11325268D02*
X10488529Y-11287173D01*
X10488529Y-11287173D02*
X10488529Y-11239554D01*
X10488529Y-11239554D02*
X10498053Y-11201459D01*
X10498053Y-11201459D02*
X10507577Y-11182411D01*
X10507577Y-11182411D02*
X10517101Y-11172888D01*
X10517101Y-11172888D02*
X10536148Y-11163364D01*
X10669482Y-11163364D02*
X10793291Y-11163364D01*
X10793291Y-11163364D02*
X10726625Y-11239554D01*
X10726625Y-11239554D02*
X10755196Y-11239554D01*
X10755196Y-11239554D02*
X10774244Y-11249078D01*
X10774244Y-11249078D02*
X10783768Y-11258602D01*
X10783768Y-11258602D02*
X10793291Y-11277649D01*
X10793291Y-11277649D02*
X10793291Y-11325268D01*
X10793291Y-11325268D02*
X10783768Y-11344316D01*
X10783768Y-11344316D02*
X10774244Y-11353840D01*
X10774244Y-11353840D02*
X10755196Y-11363364D01*
X10755196Y-11363364D02*
X10698053Y-11363364D01*
X10698053Y-11363364D02*
X10679006Y-11353840D01*
X10679006Y-11353840D02*
X10669482Y-11344316D01*
X10888529Y-11363364D02*
X10926625Y-11363364D01*
X10926625Y-11363364D02*
X10945672Y-11353840D01*
X10945672Y-11353840D02*
X10955196Y-11344316D01*
X10955196Y-11344316D02*
X10974244Y-11315745D01*
X10974244Y-11315745D02*
X10983768Y-11277649D01*
X10983768Y-11277649D02*
X10983768Y-11201459D01*
X10983768Y-11201459D02*
X10974244Y-11182411D01*
X10974244Y-11182411D02*
X10964720Y-11172888D01*
X10964720Y-11172888D02*
X10945672Y-11163364D01*
X10945672Y-11163364D02*
X10907577Y-11163364D01*
X10907577Y-11163364D02*
X10888529Y-11172888D01*
X10888529Y-11172888D02*
X10879006Y-11182411D01*
X10879006Y-11182411D02*
X10869482Y-11201459D01*
X10869482Y-11201459D02*
X10869482Y-11249078D01*
X10869482Y-11249078D02*
X10879006Y-11268126D01*
X10879006Y-11268126D02*
X10888529Y-11277649D01*
X10888529Y-11277649D02*
X10907577Y-11287173D01*
X10907577Y-11287173D02*
X10945672Y-11287173D01*
X10945672Y-11287173D02*
X10964720Y-11277649D01*
X10964720Y-11277649D02*
X10974244Y-11268126D01*
X10974244Y-11268126D02*
X10983768Y-11249078D01*
X11155196Y-11230030D02*
X11155196Y-11363364D01*
X11107577Y-11153840D02*
X11059958Y-11296697D01*
X11059958Y-11296697D02*
X11183768Y-11296697D01*
X11250434Y-11163364D02*
X11250434Y-11201459D01*
X11326625Y-11163364D02*
X11326625Y-11201459D01*
X11621863Y-11439554D02*
X11612339Y-11430030D01*
X11612339Y-11430030D02*
X11593291Y-11401459D01*
X11593291Y-11401459D02*
X11583768Y-11382411D01*
X11583768Y-11382411D02*
X11574244Y-11353840D01*
X11574244Y-11353840D02*
X11564720Y-11306221D01*
X11564720Y-11306221D02*
X11564720Y-11268126D01*
X11564720Y-11268126D02*
X11574244Y-11220507D01*
X11574244Y-11220507D02*
X11583768Y-11191935D01*
X11583768Y-11191935D02*
X11593291Y-11172888D01*
X11593291Y-11172888D02*
X11612339Y-11144316D01*
X11612339Y-11144316D02*
X11621863Y-11134792D01*
X11802815Y-11363364D02*
X11688529Y-11363364D01*
X11745672Y-11363364D02*
X11745672Y-11163364D01*
X11745672Y-11163364D02*
X11726625Y-11191935D01*
X11726625Y-11191935D02*
X11707577Y-11210983D01*
X11707577Y-11210983D02*
X11688529Y-11220507D01*
X11879006Y-11182411D02*
X11888529Y-11172888D01*
X11888529Y-11172888D02*
X11907577Y-11163364D01*
X11907577Y-11163364D02*
X11955196Y-11163364D01*
X11955196Y-11163364D02*
X11974244Y-11172888D01*
X11974244Y-11172888D02*
X11983768Y-11182411D01*
X11983768Y-11182411D02*
X11993291Y-11201459D01*
X11993291Y-11201459D02*
X11993291Y-11220507D01*
X11993291Y-11220507D02*
X11983768Y-11249078D01*
X11983768Y-11249078D02*
X11869482Y-11363364D01*
X11869482Y-11363364D02*
X11993291Y-11363364D01*
X12231387Y-11363364D02*
X12231387Y-11163364D01*
X12317101Y-11363364D02*
X12317101Y-11258602D01*
X12317101Y-11258602D02*
X12307577Y-11239554D01*
X12307577Y-11239554D02*
X12288530Y-11230030D01*
X12288530Y-11230030D02*
X12259958Y-11230030D01*
X12259958Y-11230030D02*
X12240910Y-11239554D01*
X12240910Y-11239554D02*
X12231387Y-11249078D01*
X12440910Y-11363364D02*
X12421863Y-11353840D01*
X12421863Y-11353840D02*
X12412339Y-11344316D01*
X12412339Y-11344316D02*
X12402815Y-11325268D01*
X12402815Y-11325268D02*
X12402815Y-11268126D01*
X12402815Y-11268126D02*
X12412339Y-11249078D01*
X12412339Y-11249078D02*
X12421863Y-11239554D01*
X12421863Y-11239554D02*
X12440910Y-11230030D01*
X12440910Y-11230030D02*
X12469482Y-11230030D01*
X12469482Y-11230030D02*
X12488530Y-11239554D01*
X12488530Y-11239554D02*
X12498053Y-11249078D01*
X12498053Y-11249078D02*
X12507577Y-11268126D01*
X12507577Y-11268126D02*
X12507577Y-11325268D01*
X12507577Y-11325268D02*
X12498053Y-11344316D01*
X12498053Y-11344316D02*
X12488530Y-11353840D01*
X12488530Y-11353840D02*
X12469482Y-11363364D01*
X12469482Y-11363364D02*
X12440910Y-11363364D01*
X12621863Y-11363364D02*
X12602815Y-11353840D01*
X12602815Y-11353840D02*
X12593291Y-11334792D01*
X12593291Y-11334792D02*
X12593291Y-11163364D01*
X12774244Y-11353840D02*
X12755196Y-11363364D01*
X12755196Y-11363364D02*
X12717101Y-11363364D01*
X12717101Y-11363364D02*
X12698053Y-11353840D01*
X12698053Y-11353840D02*
X12688530Y-11334792D01*
X12688530Y-11334792D02*
X12688530Y-11258602D01*
X12688530Y-11258602D02*
X12698053Y-11239554D01*
X12698053Y-11239554D02*
X12717101Y-11230030D01*
X12717101Y-11230030D02*
X12755196Y-11230030D01*
X12755196Y-11230030D02*
X12774244Y-11239554D01*
X12774244Y-11239554D02*
X12783768Y-11258602D01*
X12783768Y-11258602D02*
X12783768Y-11277649D01*
X12783768Y-11277649D02*
X12688530Y-11296697D01*
X12859958Y-11353840D02*
X12879006Y-11363364D01*
X12879006Y-11363364D02*
X12917101Y-11363364D01*
X12917101Y-11363364D02*
X12936149Y-11353840D01*
X12936149Y-11353840D02*
X12945672Y-11334792D01*
X12945672Y-11334792D02*
X12945672Y-11325268D01*
X12945672Y-11325268D02*
X12936149Y-11306221D01*
X12936149Y-11306221D02*
X12917101Y-11296697D01*
X12917101Y-11296697D02*
X12888530Y-11296697D01*
X12888530Y-11296697D02*
X12869482Y-11287173D01*
X12869482Y-11287173D02*
X12859958Y-11268126D01*
X12859958Y-11268126D02*
X12859958Y-11258602D01*
X12859958Y-11258602D02*
X12869482Y-11239554D01*
X12869482Y-11239554D02*
X12888530Y-11230030D01*
X12888530Y-11230030D02*
X12917101Y-11230030D01*
X12917101Y-11230030D02*
X12936149Y-11239554D01*
X13012339Y-11439554D02*
X13021863Y-11430030D01*
X13021863Y-11430030D02*
X13040911Y-11401459D01*
X13040911Y-11401459D02*
X13050434Y-11382411D01*
X13050434Y-11382411D02*
X13059958Y-11353840D01*
X13059958Y-11353840D02*
X13069482Y-11306221D01*
X13069482Y-11306221D02*
X13069482Y-11268126D01*
X13069482Y-11268126D02*
X13059958Y-11220507D01*
X13059958Y-11220507D02*
X13050434Y-11191935D01*
X13050434Y-11191935D02*
X13040911Y-11172888D01*
X13040911Y-11172888D02*
X13021863Y-11144316D01*
X13021863Y-11144316D02*
X13012339Y-11134792D01*
M02*
