%TF.GenerationSoftware,KiCad,Pcbnew,9.0.6*%
%TF.CreationDate,2025-11-15T14:07:05+05:00*%
%TF.ProjectId,DynaButton,44796e61-4275-4747-946f-6e2e6b696361,rev?*%
%TF.SameCoordinates,Original*%
%TF.FileFunction,Copper,L2,Inr*%
%TF.FilePolarity,Positive*%
%FSLAX46Y46*%
G04 Gerber Fmt 4.6, Leading zero omitted, Abs format (unit mm)*
G04 Created by KiCad (PCBNEW 9.0.6) date 2025-11-15 14:07:05*
%MOMM*%
%LPD*%
G01*
G04 APERTURE LIST*
G04 Aperture macros list*
%AMRoundRect*
0 Rectangle with rounded corners*
0 $1 Rounding radius*
0 $2 $3 $4 $5 $6 $7 $8 $9 X,Y pos of 4 corners*
0 Add a 4 corners polygon primitive as box body*
4,1,4,$2,$3,$4,$5,$6,$7,$8,$9,$2,$3,0*
0 Add four circle primitives for the rounded corners*
1,1,$1+$1,$2,$3*
1,1,$1+$1,$4,$5*
1,1,$1+$1,$6,$7*
1,1,$1+$1,$8,$9*
0 Add four rect primitives between the rounded corners*
20,1,$1+$1,$2,$3,$4,$5,0*
20,1,$1+$1,$4,$5,$6,$7,0*
20,1,$1+$1,$6,$7,$8,$9,0*
20,1,$1+$1,$8,$9,$2,$3,0*%
G04 Aperture macros list end*
%TA.AperFunction,ComponentPad*%
%ADD10RoundRect,0.250000X-0.600000X-0.600000X0.600000X-0.600000X0.600000X0.600000X-0.600000X0.600000X0*%
%TD*%
%TA.AperFunction,ComponentPad*%
%ADD11C,1.700000*%
%TD*%
%TA.AperFunction,ComponentPad*%
%ADD12RoundRect,0.250000X0.600000X0.600000X-0.600000X0.600000X-0.600000X-0.600000X0.600000X-0.600000X0*%
%TD*%
%TA.AperFunction,ComponentPad*%
%ADD13C,0.500000*%
%TD*%
%TA.AperFunction,ComponentPad*%
%ADD14O,2.300000X1.300000*%
%TD*%
%TA.AperFunction,ComponentPad*%
%ADD15O,2.100000X1.300000*%
%TD*%
%TA.AperFunction,ViaPad*%
%ADD16C,0.600000*%
%TD*%
G04 APERTURE END LIST*
D10*
%TO.N,+3.3V*%
%TO.C,J4*%
X101396800Y-53086000D03*
D11*
%TO.N,/SWDIO*%
X103936800Y-53086000D03*
%TO.N,/RESET*%
X101396800Y-55626000D03*
%TO.N,/SWCLK*%
X103936800Y-55626000D03*
%TO.N,GND*%
X101396800Y-58166000D03*
%TO.N,/SWO*%
X103936800Y-58166000D03*
%TD*%
D12*
%TO.N,+3.3V*%
%TO.C,J3*%
X113944400Y-58166000D03*
D11*
X111404400Y-58166000D03*
%TO.N,Net-(J3-Pin_3)*%
X113944400Y-55626000D03*
%TO.N,Net-(J3-Pin_4)*%
X111404400Y-55626000D03*
%TO.N,GND*%
X113944400Y-53086000D03*
X111404400Y-53086000D03*
%TD*%
D13*
%TO.N,+3.3V*%
%TO.C,U3*%
X123377200Y-61516000D03*
X122377200Y-61516000D03*
X121377200Y-61516000D03*
%TD*%
D14*
%TO.N,GND*%
%TO.C,J5*%
X119150800Y-82644800D03*
D15*
X123350800Y-82644800D03*
D13*
X121970800Y-80314800D03*
X123970800Y-80314800D03*
X121970800Y-76314800D03*
X123970800Y-76314800D03*
D14*
X119150800Y-73984800D03*
D15*
X123350800Y-73984800D03*
%TD*%
D16*
%TO.N,+3.3V*%
X97078800Y-58572400D03*
X97536000Y-59334400D03*
X97536000Y-60096400D03*
X92100400Y-58572400D03*
X92760800Y-60147200D03*
X88290400Y-60147200D03*
X86715600Y-57759600D03*
%TO.N,+5V*%
X96875600Y-64922400D03*
X96875600Y-62788800D03*
%TO.N,+3.3V*%
X101814027Y-81572690D03*
%TO.N,+12V*%
X90322400Y-69037200D03*
X91389200Y-69037200D03*
X92303600Y-69037200D03*
X104749600Y-71323200D03*
X105816400Y-71272400D03*
%TO.N,GND*%
X88544400Y-95453200D03*
X88493600Y-93776800D03*
X98856800Y-95554800D03*
X98856800Y-93726000D03*
X109270800Y-95351600D03*
X109270800Y-93472000D03*
X119430800Y-95453200D03*
X119430800Y-93929200D03*
X126441200Y-96469200D03*
X126441200Y-92862400D03*
X126441200Y-90220800D03*
X127152400Y-81534000D03*
X127101600Y-74218800D03*
X127101600Y-72136000D03*
X118465600Y-67259200D03*
X118465600Y-68224400D03*
X118465600Y-68986400D03*
X117043200Y-68986400D03*
X116179600Y-68986400D03*
X117043200Y-67767200D03*
X116179600Y-67767200D03*
X117297200Y-63855600D03*
X116281200Y-63855600D03*
X117246400Y-62788800D03*
X116128800Y-62788800D03*
X115062000Y-62738000D03*
X117043200Y-61976000D03*
X116027200Y-61976000D03*
X121462800Y-49072800D03*
X119278400Y-49072800D03*
X107137200Y-48818800D03*
X105410000Y-48818800D03*
X103733600Y-48818800D03*
X90220800Y-54610000D03*
X86563200Y-52476400D03*
X84836000Y-56388000D03*
X82854800Y-56388000D03*
X84836000Y-54254400D03*
X82854800Y-54254400D03*
X86207600Y-71577200D03*
X89662000Y-74371200D03*
X90170000Y-73456800D03*
X91490800Y-72339200D03*
X90779600Y-72440800D03*
X90119200Y-72542400D03*
X93014800Y-74980800D03*
X91236800Y-76555600D03*
X92354400Y-76149200D03*
X94132400Y-79298800D03*
X86156800Y-81737200D03*
X85242400Y-80924400D03*
X86715600Y-89763600D03*
X86715600Y-88747600D03*
X91846400Y-85852000D03*
X90982800Y-85852000D03*
X90068400Y-85852000D03*
X91846400Y-84785200D03*
X90982800Y-84785200D03*
X90068400Y-84785200D03*
%TO.N,/RESET*%
X105968800Y-79193200D03*
%TO.N,GND*%
X104952800Y-79857600D03*
%TO.N,/TX_EN_3V3*%
X85293200Y-82702400D03*
X84226400Y-60299600D03*
%TO.N,/BOOT0*%
X106883200Y-72898000D03*
X106781600Y-63398400D03*
%TO.N,/SWDIO*%
X110439200Y-76758800D03*
%TO.N,/SWCLK*%
X111015200Y-72694800D03*
%TO.N,/SWO*%
X108339200Y-72390000D03*
%TO.N,+12V*%
X92913200Y-68376800D03*
X106680000Y-71272400D03*
%TO.N,GND*%
X89408000Y-54457600D03*
%TO.N,+3.3V*%
X89103200Y-47345600D03*
X90220800Y-47345600D03*
%TO.N,/RESET*%
X94234000Y-55575200D03*
%TO.N,GND*%
X86563200Y-51003200D03*
X126339600Y-63347600D03*
%TO.N,+3.3V*%
X121920000Y-65328800D03*
X122682000Y-65430400D03*
%TO.N,/BOOT1*%
X109931200Y-62077600D03*
X108407200Y-81584800D03*
%TO.N,/TXD_3V*%
X105562400Y-59486800D03*
%TO.N,/RXD_3V*%
X106680000Y-60096400D03*
X109677200Y-78384400D03*
%TO.N,/TXD_3V*%
X108661200Y-78384400D03*
%TO.N,GND*%
X94386400Y-77520800D03*
%TO.N,/LED_GREEN*%
X105105200Y-76504800D03*
X97434400Y-76454000D03*
%TO.N,+3.3V*%
X97434400Y-73406000D03*
%TO.N,GND*%
X93319600Y-72288400D03*
X93319600Y-71272400D03*
%TO.N,/TX_EN_5V*%
X100533200Y-67665600D03*
X98298000Y-66548000D03*
%TO.N,/RXD_5V*%
X104851200Y-64770000D03*
X106984800Y-69494400D03*
%TO.N,+5V*%
X105838652Y-66000859D03*
X106984800Y-68376800D03*
%TO.N,GND*%
X105816400Y-67411600D03*
X106969400Y-67364788D03*
X120802400Y-85750400D03*
X121767600Y-85801200D03*
X109829600Y-84378800D03*
%TO.N,+3.3V*%
X111048800Y-83108800D03*
X111252000Y-84582000D03*
%TO.N,GND*%
X114960400Y-82854800D03*
X116527400Y-87469800D03*
X118516400Y-86207600D03*
X108298400Y-86149600D03*
X97993200Y-86258400D03*
X86766400Y-87426800D03*
X94386400Y-82194400D03*
X95300800Y-81584800D03*
X101498400Y-76708000D03*
X101193600Y-72847200D03*
X102311200Y-72847200D03*
X103581200Y-72847200D03*
X104698800Y-72847200D03*
X105359200Y-73304400D03*
%TO.N,+3.3V*%
X103682800Y-75488800D03*
X102565200Y-75488800D03*
X101752400Y-75488800D03*
%TO.N,GND*%
X113829391Y-76568939D03*
%TO.N,+3.3V*%
X113182400Y-76098400D03*
%TO.N,GND*%
X116160800Y-74352400D03*
X116160800Y-73438000D03*
%TD*%
%TA.AperFunction,Conductor*%
%TO.N,GND*%
G36*
X102738244Y-56279999D02*
G01*
X102777286Y-56325056D01*
X102781751Y-56333820D01*
X102906690Y-56505786D01*
X103057013Y-56656109D01*
X103228982Y-56781050D01*
X103237746Y-56785516D01*
X103288542Y-56833491D01*
X103305336Y-56901312D01*
X103282798Y-56967447D01*
X103237746Y-57006484D01*
X103228982Y-57010949D01*
X103057013Y-57135890D01*
X102906690Y-57286213D01*
X102781749Y-57458182D01*
X102777002Y-57467499D01*
X102729027Y-57518293D01*
X102661205Y-57535087D01*
X102595071Y-57512548D01*
X102556034Y-57467495D01*
X102551426Y-57458452D01*
X102512070Y-57404282D01*
X102512069Y-57404282D01*
X101879762Y-58036590D01*
X101862725Y-57973007D01*
X101796899Y-57858993D01*
X101703807Y-57765901D01*
X101589793Y-57700075D01*
X101526209Y-57683037D01*
X102158516Y-57050728D01*
X102104347Y-57011373D01*
X102104347Y-57011372D01*
X102095300Y-57006763D01*
X102044506Y-56958788D01*
X102027712Y-56890966D01*
X102050251Y-56824832D01*
X102095308Y-56785793D01*
X102104616Y-56781051D01*
X102209814Y-56704621D01*
X102276586Y-56656109D01*
X102276588Y-56656106D01*
X102276592Y-56656104D01*
X102426904Y-56505792D01*
X102426906Y-56505788D01*
X102426909Y-56505786D01*
X102551848Y-56333820D01*
X102551847Y-56333820D01*
X102551851Y-56333816D01*
X102556314Y-56325054D01*
X102604288Y-56274259D01*
X102672108Y-56257463D01*
X102738244Y-56279999D01*
G37*
%TD.AperFunction*%
%TA.AperFunction,Conductor*%
G36*
X113478475Y-53278993D02*
G01*
X113544301Y-53393007D01*
X113637393Y-53486099D01*
X113751407Y-53551925D01*
X113814990Y-53568962D01*
X113182682Y-54201269D01*
X113182682Y-54201270D01*
X113236852Y-54240626D01*
X113236851Y-54240626D01*
X113245895Y-54245234D01*
X113296692Y-54293208D01*
X113313487Y-54361029D01*
X113290950Y-54427164D01*
X113245899Y-54466202D01*
X113236582Y-54470949D01*
X113064613Y-54595890D01*
X112914290Y-54746213D01*
X112789349Y-54918182D01*
X112784884Y-54926946D01*
X112736909Y-54977742D01*
X112669088Y-54994536D01*
X112602953Y-54971998D01*
X112563916Y-54926946D01*
X112559450Y-54918182D01*
X112434509Y-54746213D01*
X112284186Y-54595890D01*
X112112217Y-54470949D01*
X112102904Y-54466204D01*
X112052107Y-54418230D01*
X112035312Y-54350409D01*
X112057849Y-54284274D01*
X112102907Y-54245232D01*
X112111955Y-54240622D01*
X112166116Y-54201270D01*
X112166117Y-54201270D01*
X111533808Y-53568962D01*
X111597393Y-53551925D01*
X111711407Y-53486099D01*
X111804499Y-53393007D01*
X111870325Y-53278993D01*
X111887362Y-53215408D01*
X112519670Y-53847717D01*
X112519670Y-53847716D01*
X112559022Y-53793554D01*
X112563914Y-53783954D01*
X112611888Y-53733157D01*
X112679708Y-53716361D01*
X112745844Y-53738897D01*
X112784886Y-53783954D01*
X112789775Y-53793550D01*
X112829128Y-53847716D01*
X113461437Y-53215408D01*
X113478475Y-53278993D01*
G37*
%TD.AperFunction*%
%TA.AperFunction,Conductor*%
G36*
X128271339Y-45986185D02*
G01*
X128317094Y-46038989D01*
X128328300Y-46090500D01*
X128328300Y-97724300D01*
X128308615Y-97791339D01*
X128255811Y-97837094D01*
X128204300Y-97848300D01*
X81142500Y-97848300D01*
X81075461Y-97828615D01*
X81029706Y-97775811D01*
X81018500Y-97724300D01*
X81018500Y-85034513D01*
X93493100Y-85034513D01*
X93493100Y-85247086D01*
X93526353Y-85457039D01*
X93592044Y-85659214D01*
X93688551Y-85848620D01*
X93813490Y-86020586D01*
X93963813Y-86170909D01*
X94135779Y-86295848D01*
X94135781Y-86295849D01*
X94135784Y-86295851D01*
X94325188Y-86392357D01*
X94527357Y-86458046D01*
X94737313Y-86491300D01*
X94737314Y-86491300D01*
X94949886Y-86491300D01*
X94949887Y-86491300D01*
X95159843Y-86458046D01*
X95362012Y-86392357D01*
X95551416Y-86295851D01*
X95573389Y-86279886D01*
X95723386Y-86170909D01*
X95723388Y-86170906D01*
X95723392Y-86170904D01*
X95873704Y-86020592D01*
X95873706Y-86020588D01*
X95873709Y-86020586D01*
X95998648Y-85848620D01*
X95998647Y-85848620D01*
X95998651Y-85848616D01*
X96076966Y-85694913D01*
X124582700Y-85694913D01*
X124582700Y-85907487D01*
X124615954Y-86117443D01*
X124633326Y-86170909D01*
X124681644Y-86319614D01*
X124778151Y-86509020D01*
X124903090Y-86680986D01*
X125053413Y-86831309D01*
X125225379Y-86956248D01*
X125225381Y-86956249D01*
X125225384Y-86956251D01*
X125414788Y-87052757D01*
X125616957Y-87118446D01*
X125826913Y-87151700D01*
X125826914Y-87151700D01*
X126039486Y-87151700D01*
X126039487Y-87151700D01*
X126249443Y-87118446D01*
X126451612Y-87052757D01*
X126641016Y-86956251D01*
X126662989Y-86940286D01*
X126812986Y-86831309D01*
X126812988Y-86831306D01*
X126812992Y-86831304D01*
X126963304Y-86680992D01*
X126963306Y-86680988D01*
X126963309Y-86680986D01*
X127088248Y-86509020D01*
X127088247Y-86509020D01*
X127088251Y-86509016D01*
X127184757Y-86319612D01*
X127250446Y-86117443D01*
X127283700Y-85907487D01*
X127283700Y-85694913D01*
X127250446Y-85484957D01*
X127184757Y-85282788D01*
X127088251Y-85093384D01*
X127088249Y-85093381D01*
X127088248Y-85093379D01*
X126963309Y-84921413D01*
X126812986Y-84771090D01*
X126641020Y-84646151D01*
X126451614Y-84549644D01*
X126451613Y-84549643D01*
X126451612Y-84549643D01*
X126249443Y-84483954D01*
X126249441Y-84483953D01*
X126249440Y-84483953D01*
X126088157Y-84458408D01*
X126039487Y-84450700D01*
X125826913Y-84450700D01*
X125778242Y-84458408D01*
X125616960Y-84483953D01*
X125414785Y-84549644D01*
X125225379Y-84646151D01*
X125053413Y-84771090D01*
X124903090Y-84921413D01*
X124778151Y-85093379D01*
X124681644Y-85282785D01*
X124615953Y-85484960D01*
X124588354Y-85659214D01*
X124582700Y-85694913D01*
X96076966Y-85694913D01*
X96095157Y-85659212D01*
X96160846Y-85457043D01*
X96194100Y-85247087D01*
X96194100Y-85034513D01*
X96160846Y-84824557D01*
X96095157Y-84622388D01*
X95998651Y-84432984D01*
X95998649Y-84432981D01*
X95998648Y-84432979D01*
X95873709Y-84261013D01*
X95723386Y-84110690D01*
X95551420Y-83985751D01*
X95362014Y-83889244D01*
X95362013Y-83889243D01*
X95362012Y-83889243D01*
X95159843Y-83823554D01*
X95159841Y-83823553D01*
X95159840Y-83823553D01*
X94998557Y-83798008D01*
X94949887Y-83790300D01*
X94737313Y-83790300D01*
X94688642Y-83798008D01*
X94527360Y-83823553D01*
X94325185Y-83889244D01*
X94135779Y-83985751D01*
X93963813Y-84110690D01*
X93813490Y-84261013D01*
X93688551Y-84432979D01*
X93592044Y-84622385D01*
X93526353Y-84824560D01*
X93493100Y-85034513D01*
X81018500Y-85034513D01*
X81018500Y-82623553D01*
X84492700Y-82623553D01*
X84492700Y-82781246D01*
X84523461Y-82935889D01*
X84523464Y-82935901D01*
X84583802Y-83081572D01*
X84583809Y-83081585D01*
X84671410Y-83212688D01*
X84671413Y-83212692D01*
X84782907Y-83324186D01*
X84782911Y-83324189D01*
X84914014Y-83411790D01*
X84914027Y-83411797D01*
X85059698Y-83472135D01*
X85059703Y-83472137D01*
X85214353Y-83502899D01*
X85214356Y-83502900D01*
X85214358Y-83502900D01*
X85372044Y-83502900D01*
X85372045Y-83502899D01*
X85526697Y-83472137D01*
X85672379Y-83411794D01*
X85803489Y-83324189D01*
X85914989Y-83212689D01*
X86002594Y-83081579D01*
X86023976Y-83029958D01*
X86023978Y-83029953D01*
X110248300Y-83029953D01*
X110248300Y-83187646D01*
X110279061Y-83342289D01*
X110279064Y-83342301D01*
X110339402Y-83487972D01*
X110339409Y-83487985D01*
X110427010Y-83619088D01*
X110427013Y-83619092D01*
X110538507Y-83730586D01*
X110538511Y-83730589D01*
X110672337Y-83820010D01*
X110717142Y-83873623D01*
X110725849Y-83942948D01*
X110695694Y-84005975D01*
X110691128Y-84010793D01*
X110630210Y-84071711D01*
X110542609Y-84202814D01*
X110542602Y-84202827D01*
X110482264Y-84348498D01*
X110482261Y-84348510D01*
X110451500Y-84503153D01*
X110451500Y-84660846D01*
X110482261Y-84815489D01*
X110482264Y-84815501D01*
X110542602Y-84961172D01*
X110542609Y-84961185D01*
X110630210Y-85092288D01*
X110630213Y-85092292D01*
X110741707Y-85203786D01*
X110741711Y-85203789D01*
X110872814Y-85291390D01*
X110872827Y-85291397D01*
X111018498Y-85351735D01*
X111018503Y-85351737D01*
X111173153Y-85382499D01*
X111173156Y-85382500D01*
X111173158Y-85382500D01*
X111330844Y-85382500D01*
X111330845Y-85382499D01*
X111485497Y-85351737D01*
X111631179Y-85291394D01*
X111762289Y-85203789D01*
X111873789Y-85092289D01*
X111961394Y-84961179D01*
X112021737Y-84815497D01*
X112052500Y-84660842D01*
X112052500Y-84503158D01*
X112052500Y-84503155D01*
X112052499Y-84503153D01*
X112021738Y-84348510D01*
X112021737Y-84348503D01*
X111985496Y-84261008D01*
X111961397Y-84202827D01*
X111961390Y-84202814D01*
X111873789Y-84071711D01*
X111873786Y-84071707D01*
X111762292Y-83960213D01*
X111762288Y-83960210D01*
X111628462Y-83870789D01*
X111583657Y-83817176D01*
X111574950Y-83747851D01*
X111605105Y-83684824D01*
X111609653Y-83680024D01*
X111670589Y-83619089D01*
X111758194Y-83487979D01*
X111818537Y-83342297D01*
X111849300Y-83187642D01*
X111849300Y-83029958D01*
X111849300Y-83029955D01*
X111849299Y-83029953D01*
X111819857Y-82881937D01*
X111819856Y-82881933D01*
X111818537Y-82875305D01*
X111818537Y-82875303D01*
X111810848Y-82856740D01*
X111758197Y-82729627D01*
X111758190Y-82729614D01*
X111670589Y-82598511D01*
X111670586Y-82598507D01*
X111559092Y-82487013D01*
X111559088Y-82487010D01*
X111427985Y-82399409D01*
X111427972Y-82399402D01*
X111416862Y-82394800D01*
X117526061Y-82394800D01*
X118551072Y-82394800D01*
X118459186Y-82432860D01*
X118388860Y-82503186D01*
X118350800Y-82595072D01*
X118350800Y-82694528D01*
X118388860Y-82786414D01*
X118459186Y-82856740D01*
X118551072Y-82894800D01*
X117526061Y-82894800D01*
X117529115Y-82914085D01*
X117529118Y-82914095D01*
X117585050Y-83086241D01*
X117585052Y-83086247D01*
X117667234Y-83247534D01*
X117773623Y-83393969D01*
X117901630Y-83521976D01*
X118048065Y-83628365D01*
X118209352Y-83710547D01*
X118209355Y-83710548D01*
X118381506Y-83766482D01*
X118560294Y-83794800D01*
X118900800Y-83794800D01*
X118900800Y-82894800D01*
X119400800Y-82894800D01*
X119400800Y-83794800D01*
X119741306Y-83794800D01*
X119920093Y-83766482D01*
X120092244Y-83710548D01*
X120092247Y-83710547D01*
X120253534Y-83628365D01*
X120399969Y-83521976D01*
X120527976Y-83393969D01*
X120634365Y-83247534D01*
X120716547Y-83086247D01*
X120716549Y-83086241D01*
X120772481Y-82914095D01*
X120772484Y-82914085D01*
X120775539Y-82894800D01*
X119750528Y-82894800D01*
X119842414Y-82856740D01*
X119912740Y-82786414D01*
X119950800Y-82694528D01*
X119950800Y-82595072D01*
X119912740Y-82503186D01*
X119842414Y-82432860D01*
X119750528Y-82394800D01*
X120775539Y-82394800D01*
X121826061Y-82394800D01*
X122901072Y-82394800D01*
X122809186Y-82432860D01*
X122738860Y-82503186D01*
X122700800Y-82595072D01*
X122700800Y-82694528D01*
X122738860Y-82786414D01*
X122809186Y-82856740D01*
X122901072Y-82894800D01*
X121826061Y-82894800D01*
X121829115Y-82914085D01*
X121829118Y-82914095D01*
X121885050Y-83086241D01*
X121885052Y-83086247D01*
X121967234Y-83247534D01*
X122073623Y-83393969D01*
X122201630Y-83521976D01*
X122348065Y-83628365D01*
X122509352Y-83710547D01*
X122509355Y-83710548D01*
X122681506Y-83766482D01*
X122860294Y-83794800D01*
X123100800Y-83794800D01*
X123100800Y-82894800D01*
X123600800Y-82894800D01*
X123600800Y-83794800D01*
X123841306Y-83794800D01*
X124020093Y-83766482D01*
X124192244Y-83710548D01*
X124192247Y-83710547D01*
X124353534Y-83628365D01*
X124499969Y-83521976D01*
X124627976Y-83393969D01*
X124734365Y-83247534D01*
X124816547Y-83086247D01*
X124816549Y-83086241D01*
X124872481Y-82914095D01*
X124872484Y-82914085D01*
X124875539Y-82894800D01*
X123800528Y-82894800D01*
X123892414Y-82856740D01*
X123962740Y-82786414D01*
X124000800Y-82694528D01*
X124000800Y-82595072D01*
X123962740Y-82503186D01*
X123892414Y-82432860D01*
X123800528Y-82394800D01*
X124875539Y-82394800D01*
X124872484Y-82375514D01*
X124872481Y-82375504D01*
X124816549Y-82203358D01*
X124816547Y-82203352D01*
X124734365Y-82042065D01*
X124627976Y-81895630D01*
X124499969Y-81767623D01*
X124353534Y-81661234D01*
X124192247Y-81579052D01*
X124192244Y-81579051D01*
X124020093Y-81523117D01*
X123841306Y-81494800D01*
X123600800Y-81494800D01*
X123600800Y-82394800D01*
X123100800Y-82394800D01*
X123100800Y-81494800D01*
X122860294Y-81494800D01*
X122681506Y-81523117D01*
X122509355Y-81579051D01*
X122509352Y-81579052D01*
X122348065Y-81661234D01*
X122201630Y-81767623D01*
X122073623Y-81895630D01*
X121967234Y-82042065D01*
X121885052Y-82203352D01*
X121885050Y-82203358D01*
X121829118Y-82375504D01*
X121829115Y-82375514D01*
X121826061Y-82394800D01*
X120775539Y-82394800D01*
X120772484Y-82375514D01*
X120772481Y-82375504D01*
X120716549Y-82203358D01*
X120716547Y-82203352D01*
X120634365Y-82042065D01*
X120527976Y-81895630D01*
X120399969Y-81767623D01*
X120253532Y-81661232D01*
X120207235Y-81637642D01*
X120156440Y-81589667D01*
X120139645Y-81521846D01*
X120156144Y-81465158D01*
X120183784Y-81417285D01*
X120221300Y-81277275D01*
X120221300Y-81132325D01*
X120183784Y-80992315D01*
X120166866Y-80963013D01*
X120111311Y-80866788D01*
X120111306Y-80866782D01*
X120008817Y-80764293D01*
X120008811Y-80764288D01*
X119883288Y-80691817D01*
X119883289Y-80691817D01*
X119876286Y-80689940D01*
X119743275Y-80654300D01*
X119598325Y-80654300D01*
X119469793Y-80688740D01*
X119458311Y-80691817D01*
X119332788Y-80764288D01*
X119332782Y-80764293D01*
X119230293Y-80866782D01*
X119230288Y-80866788D01*
X119157817Y-80992311D01*
X119157816Y-80992315D01*
X119120300Y-81132325D01*
X119120300Y-81132327D01*
X119120300Y-81277274D01*
X119136761Y-81338707D01*
X119135098Y-81408556D01*
X119095936Y-81466419D01*
X119031707Y-81493923D01*
X119016986Y-81494800D01*
X118560294Y-81494800D01*
X118381506Y-81523117D01*
X118209355Y-81579051D01*
X118209352Y-81579052D01*
X118048065Y-81661234D01*
X117901630Y-81767623D01*
X117773623Y-81895630D01*
X117667234Y-82042065D01*
X117585052Y-82203352D01*
X117585050Y-82203358D01*
X117529118Y-82375504D01*
X117529115Y-82375514D01*
X117526061Y-82394800D01*
X111416862Y-82394800D01*
X111282301Y-82339064D01*
X111282289Y-82339061D01*
X111127645Y-82308300D01*
X111127642Y-82308300D01*
X110969958Y-82308300D01*
X110969955Y-82308300D01*
X110815310Y-82339061D01*
X110815298Y-82339064D01*
X110669627Y-82399402D01*
X110669614Y-82399409D01*
X110538511Y-82487010D01*
X110538507Y-82487013D01*
X110427013Y-82598507D01*
X110427010Y-82598511D01*
X110339409Y-82729614D01*
X110339402Y-82729627D01*
X110279064Y-82875298D01*
X110279061Y-82875310D01*
X110248300Y-83029953D01*
X86023978Y-83029953D01*
X86046155Y-82976414D01*
X86062935Y-82935901D01*
X86062937Y-82935897D01*
X86093700Y-82781242D01*
X86093700Y-82623558D01*
X86093700Y-82623555D01*
X86093699Y-82623553D01*
X86066539Y-82487011D01*
X86062937Y-82468903D01*
X86028308Y-82385300D01*
X86002597Y-82323227D01*
X86002590Y-82323214D01*
X85914989Y-82192111D01*
X85914986Y-82192107D01*
X85803492Y-82080613D01*
X85803488Y-82080610D01*
X85672385Y-81993009D01*
X85672372Y-81993002D01*
X85526701Y-81932664D01*
X85526689Y-81932661D01*
X85372045Y-81901900D01*
X85372042Y-81901900D01*
X85214358Y-81901900D01*
X85214355Y-81901900D01*
X85059710Y-81932661D01*
X85059698Y-81932664D01*
X84914027Y-81993002D01*
X84914014Y-81993009D01*
X84782911Y-82080610D01*
X84782907Y-82080613D01*
X84671413Y-82192107D01*
X84671410Y-82192111D01*
X84583809Y-82323214D01*
X84583802Y-82323227D01*
X84523464Y-82468898D01*
X84523461Y-82468910D01*
X84492700Y-82623553D01*
X81018500Y-82623553D01*
X81018500Y-81493843D01*
X101013527Y-81493843D01*
X101013527Y-81651536D01*
X101044288Y-81806179D01*
X101044291Y-81806191D01*
X101104629Y-81951862D01*
X101104636Y-81951875D01*
X101192237Y-82082978D01*
X101192240Y-82082982D01*
X101303734Y-82194476D01*
X101303738Y-82194479D01*
X101434841Y-82282080D01*
X101434854Y-82282087D01*
X101572411Y-82339064D01*
X101580530Y-82342427D01*
X101735180Y-82373189D01*
X101735183Y-82373190D01*
X101735185Y-82373190D01*
X101892871Y-82373190D01*
X101892872Y-82373189D01*
X102047524Y-82342427D01*
X102193206Y-82282084D01*
X102324316Y-82194479D01*
X102435816Y-82082979D01*
X102523421Y-81951869D01*
X102583764Y-81806187D01*
X102614527Y-81651532D01*
X102614527Y-81505953D01*
X107606700Y-81505953D01*
X107606700Y-81663646D01*
X107637461Y-81818289D01*
X107637464Y-81818301D01*
X107697802Y-81963972D01*
X107697809Y-81963985D01*
X107785410Y-82095088D01*
X107785413Y-82095092D01*
X107896907Y-82206586D01*
X107896911Y-82206589D01*
X108028014Y-82294190D01*
X108028027Y-82294197D01*
X108144469Y-82342428D01*
X108173703Y-82354537D01*
X108279111Y-82375504D01*
X108328353Y-82385299D01*
X108328356Y-82385300D01*
X108328358Y-82385300D01*
X108486044Y-82385300D01*
X108486045Y-82385299D01*
X108640697Y-82354537D01*
X108786379Y-82294194D01*
X108917489Y-82206589D01*
X109028989Y-82095089D01*
X109116594Y-81963979D01*
X109176937Y-81818297D01*
X109207700Y-81663642D01*
X109207700Y-81505958D01*
X109207700Y-81505955D01*
X109207699Y-81505953D01*
X109176937Y-81351303D01*
X109146274Y-81277275D01*
X109116597Y-81205627D01*
X109116590Y-81205614D01*
X109028989Y-81074511D01*
X109028986Y-81074507D01*
X108917492Y-80963013D01*
X108917488Y-80963010D01*
X108786385Y-80875409D01*
X108786372Y-80875402D01*
X108640701Y-80815064D01*
X108640689Y-80815061D01*
X108486045Y-80784300D01*
X108486042Y-80784300D01*
X108328358Y-80784300D01*
X108328355Y-80784300D01*
X108173710Y-80815061D01*
X108173698Y-80815064D01*
X108028027Y-80875402D01*
X108028014Y-80875409D01*
X107896911Y-80963010D01*
X107896907Y-80963013D01*
X107785413Y-81074507D01*
X107785410Y-81074511D01*
X107697809Y-81205614D01*
X107697802Y-81205627D01*
X107637464Y-81351298D01*
X107637461Y-81351310D01*
X107606700Y-81505953D01*
X102614527Y-81505953D01*
X102614527Y-81493848D01*
X102614527Y-81493845D01*
X102614526Y-81493843D01*
X102599298Y-81417287D01*
X102583764Y-81339193D01*
X102528440Y-81205627D01*
X102523424Y-81193517D01*
X102523417Y-81193504D01*
X102435816Y-81062401D01*
X102435813Y-81062397D01*
X102324319Y-80950903D01*
X102324315Y-80950900D01*
X102193212Y-80863299D01*
X102193199Y-80863292D01*
X102047528Y-80802954D01*
X102047516Y-80802951D01*
X101892872Y-80772190D01*
X101892869Y-80772190D01*
X101735185Y-80772190D01*
X101735182Y-80772190D01*
X101580537Y-80802951D01*
X101580525Y-80802954D01*
X101434854Y-80863292D01*
X101434841Y-80863299D01*
X101303738Y-80950900D01*
X101303734Y-80950903D01*
X101192240Y-81062397D01*
X101192237Y-81062401D01*
X101104636Y-81193504D01*
X101104629Y-81193517D01*
X101044291Y-81339188D01*
X101044288Y-81339200D01*
X101013527Y-81493843D01*
X81018500Y-81493843D01*
X81018500Y-80564800D01*
X121262559Y-80564800D01*
X121306157Y-80670054D01*
X121306162Y-80670064D01*
X121388236Y-80792896D01*
X121388239Y-80792900D01*
X121492699Y-80897360D01*
X121492707Y-80897366D01*
X121615539Y-80979440D01*
X121615543Y-80979442D01*
X121720799Y-81023040D01*
X121720800Y-81023040D01*
X122220800Y-81023040D01*
X122326056Y-80979442D01*
X122326060Y-80979440D01*
X122448892Y-80897366D01*
X122448900Y-80897360D01*
X122553360Y-80792900D01*
X122553363Y-80792896D01*
X122635437Y-80670064D01*
X122635442Y-80670054D01*
X122679041Y-80564800D01*
X123262559Y-80564800D01*
X123306157Y-80670054D01*
X123306162Y-80670064D01*
X123388236Y-80792896D01*
X123388239Y-80792900D01*
X123492699Y-80897360D01*
X123492707Y-80897366D01*
X123615539Y-80979440D01*
X123615543Y-80979442D01*
X123720799Y-81023040D01*
X123720800Y-81023040D01*
X124220800Y-81023040D01*
X124326056Y-80979442D01*
X124326060Y-80979440D01*
X124448892Y-80897366D01*
X124448900Y-80897360D01*
X124553360Y-80792900D01*
X124553363Y-80792896D01*
X124635437Y-80670064D01*
X124635442Y-80670054D01*
X124679041Y-80564800D01*
X124220800Y-80564800D01*
X124220800Y-81023040D01*
X123720800Y-81023040D01*
X123720800Y-80564800D01*
X123262559Y-80564800D01*
X122679041Y-80564800D01*
X122220800Y-80564800D01*
X122220800Y-81023040D01*
X121720800Y-81023040D01*
X121720800Y-80564800D01*
X121262559Y-80564800D01*
X81018500Y-80564800D01*
X81018500Y-80284963D01*
X121820800Y-80284963D01*
X121820800Y-80344637D01*
X121843636Y-80399768D01*
X121885832Y-80441964D01*
X121940963Y-80464800D01*
X122000637Y-80464800D01*
X122055768Y-80441964D01*
X122097964Y-80399768D01*
X122120800Y-80344637D01*
X122120800Y-80284963D01*
X123820800Y-80284963D01*
X123820800Y-80344637D01*
X123843636Y-80399768D01*
X123885832Y-80441964D01*
X123940963Y-80464800D01*
X124000637Y-80464800D01*
X124055768Y-80441964D01*
X124097964Y-80399768D01*
X124120800Y-80344637D01*
X124120800Y-80284963D01*
X124097964Y-80229832D01*
X124055768Y-80187636D01*
X124000637Y-80164800D01*
X123940963Y-80164800D01*
X123885832Y-80187636D01*
X123843636Y-80229832D01*
X123820800Y-80284963D01*
X122120800Y-80284963D01*
X122097964Y-80229832D01*
X122055768Y-80187636D01*
X122000637Y-80164800D01*
X121940963Y-80164800D01*
X121885832Y-80187636D01*
X121843636Y-80229832D01*
X121820800Y-80284963D01*
X81018500Y-80284963D01*
X81018500Y-80064799D01*
X121262559Y-80064799D01*
X121262559Y-80064800D01*
X121720800Y-80064800D01*
X122220800Y-80064800D01*
X122679041Y-80064800D01*
X122679040Y-80064799D01*
X123262559Y-80064799D01*
X123262559Y-80064800D01*
X123720800Y-80064800D01*
X124220800Y-80064800D01*
X124679041Y-80064800D01*
X124679040Y-80064799D01*
X124635442Y-79959545D01*
X124635437Y-79959535D01*
X124553363Y-79836703D01*
X124553360Y-79836699D01*
X124448900Y-79732239D01*
X124448896Y-79732236D01*
X124326064Y-79650162D01*
X124326054Y-79650157D01*
X124220800Y-79606559D01*
X124220800Y-80064800D01*
X123720800Y-80064800D01*
X123720800Y-79606559D01*
X123720799Y-79606559D01*
X123615545Y-79650157D01*
X123615535Y-79650162D01*
X123492703Y-79732236D01*
X123492699Y-79732239D01*
X123388239Y-79836699D01*
X123388236Y-79836703D01*
X123306162Y-79959535D01*
X123306157Y-79959545D01*
X123262559Y-80064799D01*
X122679040Y-80064799D01*
X122635442Y-79959545D01*
X122635437Y-79959535D01*
X122553363Y-79836703D01*
X122553360Y-79836699D01*
X122448900Y-79732239D01*
X122448896Y-79732236D01*
X122326064Y-79650162D01*
X122326054Y-79650157D01*
X122220800Y-79606559D01*
X122220800Y-80064800D01*
X121720800Y-80064800D01*
X121720800Y-79606559D01*
X121720799Y-79606559D01*
X121615545Y-79650157D01*
X121615535Y-79650162D01*
X121492703Y-79732236D01*
X121492699Y-79732239D01*
X121388239Y-79836699D01*
X121388236Y-79836703D01*
X121306162Y-79959535D01*
X121306157Y-79959545D01*
X121262559Y-80064799D01*
X81018500Y-80064799D01*
X81018500Y-79114353D01*
X105168300Y-79114353D01*
X105168300Y-79272046D01*
X105199061Y-79426689D01*
X105199064Y-79426701D01*
X105259402Y-79572372D01*
X105259409Y-79572385D01*
X105347010Y-79703488D01*
X105347013Y-79703492D01*
X105458507Y-79814986D01*
X105458511Y-79814989D01*
X105589614Y-79902590D01*
X105589627Y-79902597D01*
X105727090Y-79959535D01*
X105735303Y-79962937D01*
X105889953Y-79993699D01*
X105889956Y-79993700D01*
X105889958Y-79993700D01*
X106047644Y-79993700D01*
X106047645Y-79993699D01*
X106202297Y-79962937D01*
X106347979Y-79902594D01*
X106479089Y-79814989D01*
X106590589Y-79703489D01*
X106678194Y-79572379D01*
X106738537Y-79426697D01*
X106769300Y-79272042D01*
X106769300Y-79114358D01*
X106769300Y-79114355D01*
X106769299Y-79114353D01*
X106765210Y-79093797D01*
X106738537Y-78959703D01*
X106711607Y-78894688D01*
X106678197Y-78814027D01*
X106678190Y-78814014D01*
X106590589Y-78682911D01*
X106590586Y-78682907D01*
X106479092Y-78571413D01*
X106479088Y-78571410D01*
X106347985Y-78483809D01*
X106347972Y-78483802D01*
X106202301Y-78423464D01*
X106202291Y-78423461D01*
X106190334Y-78421083D01*
X106190333Y-78421082D01*
X106047645Y-78392700D01*
X106047642Y-78392700D01*
X105889958Y-78392700D01*
X105889955Y-78392700D01*
X105735310Y-78423461D01*
X105735298Y-78423464D01*
X105589627Y-78483802D01*
X105589614Y-78483809D01*
X105458511Y-78571410D01*
X105458507Y-78571413D01*
X105347013Y-78682907D01*
X105347010Y-78682911D01*
X105259409Y-78814014D01*
X105259402Y-78814027D01*
X105199064Y-78959698D01*
X105199061Y-78959710D01*
X105168300Y-79114353D01*
X81018500Y-79114353D01*
X81018500Y-78305553D01*
X107860700Y-78305553D01*
X107860700Y-78463246D01*
X107891461Y-78617889D01*
X107891464Y-78617901D01*
X107951802Y-78763572D01*
X107951809Y-78763585D01*
X108039410Y-78894688D01*
X108039413Y-78894692D01*
X108150907Y-79006186D01*
X108150911Y-79006189D01*
X108282014Y-79093790D01*
X108282027Y-79093797D01*
X108427698Y-79154135D01*
X108427703Y-79154137D01*
X108582353Y-79184899D01*
X108582356Y-79184900D01*
X108582358Y-79184900D01*
X108740044Y-79184900D01*
X108740045Y-79184899D01*
X108894697Y-79154137D01*
X109040379Y-79093794D01*
X109100309Y-79053749D01*
X109166986Y-79032872D01*
X109234366Y-79051356D01*
X109238074Y-79053738D01*
X109298021Y-79093794D01*
X109298023Y-79093795D01*
X109298027Y-79093797D01*
X109443698Y-79154135D01*
X109443703Y-79154137D01*
X109598353Y-79184899D01*
X109598356Y-79184900D01*
X109598358Y-79184900D01*
X109756044Y-79184900D01*
X109756045Y-79184899D01*
X109910697Y-79154137D01*
X110056379Y-79093794D01*
X110187489Y-79006189D01*
X110298989Y-78894689D01*
X110386594Y-78763579D01*
X110446937Y-78617897D01*
X110477700Y-78463242D01*
X110477700Y-78305558D01*
X110477700Y-78305555D01*
X110477699Y-78305553D01*
X110446938Y-78150910D01*
X110446937Y-78150903D01*
X110446935Y-78150898D01*
X110386597Y-78005227D01*
X110386590Y-78005214D01*
X110298989Y-77874111D01*
X110298986Y-77874107D01*
X110183182Y-77758303D01*
X110184096Y-77757388D01*
X110148529Y-77705170D01*
X110146660Y-77635325D01*
X110182849Y-77575558D01*
X110245605Y-77544843D01*
X110290719Y-77545447D01*
X110317320Y-77550739D01*
X110360356Y-77559300D01*
X110360358Y-77559300D01*
X110518044Y-77559300D01*
X110518045Y-77559299D01*
X110672697Y-77528537D01*
X110818379Y-77468194D01*
X110949489Y-77380589D01*
X111060989Y-77269089D01*
X111148594Y-77137979D01*
X111208937Y-76992297D01*
X111239700Y-76837642D01*
X111239700Y-76679958D01*
X111239700Y-76679955D01*
X111239699Y-76679953D01*
X111225524Y-76608692D01*
X111208937Y-76525303D01*
X111208935Y-76525298D01*
X111148597Y-76379627D01*
X111148590Y-76379614D01*
X111060989Y-76248511D01*
X111060986Y-76248507D01*
X110949492Y-76137013D01*
X110918894Y-76116568D01*
X110918892Y-76116566D01*
X110818385Y-76049409D01*
X110818372Y-76049402D01*
X110746309Y-76019553D01*
X112381900Y-76019553D01*
X112381900Y-76177246D01*
X112412661Y-76331889D01*
X112412664Y-76331901D01*
X112473002Y-76477572D01*
X112473009Y-76477585D01*
X112560610Y-76608688D01*
X112560613Y-76608692D01*
X112672107Y-76720186D01*
X112672111Y-76720189D01*
X112803214Y-76807790D01*
X112803227Y-76807797D01*
X112948898Y-76868135D01*
X112948903Y-76868137D01*
X113095816Y-76897360D01*
X113103553Y-76898899D01*
X113103556Y-76898900D01*
X113103558Y-76898900D01*
X113261244Y-76898900D01*
X113261245Y-76898899D01*
X113415897Y-76868137D01*
X113561579Y-76807794D01*
X113692689Y-76720189D01*
X113804189Y-76608689D01*
X113833515Y-76564800D01*
X121262559Y-76564800D01*
X121306157Y-76670054D01*
X121306162Y-76670064D01*
X121388236Y-76792896D01*
X121388239Y-76792900D01*
X121492699Y-76897360D01*
X121492707Y-76897366D01*
X121615539Y-76979440D01*
X121615543Y-76979442D01*
X121720799Y-77023040D01*
X121720800Y-77023040D01*
X122220800Y-77023040D01*
X122326056Y-76979442D01*
X122326060Y-76979440D01*
X122448892Y-76897366D01*
X122448900Y-76897360D01*
X122553360Y-76792900D01*
X122553363Y-76792896D01*
X122635437Y-76670064D01*
X122635442Y-76670054D01*
X122679041Y-76564800D01*
X123262559Y-76564800D01*
X123306157Y-76670054D01*
X123306162Y-76670064D01*
X123388236Y-76792896D01*
X123388239Y-76792900D01*
X123492699Y-76897360D01*
X123492707Y-76897366D01*
X123615539Y-76979440D01*
X123615543Y-76979442D01*
X123720799Y-77023040D01*
X123720800Y-77023040D01*
X124220800Y-77023040D01*
X124326056Y-76979442D01*
X124326060Y-76979440D01*
X124448892Y-76897366D01*
X124448900Y-76897360D01*
X124553360Y-76792900D01*
X124553363Y-76792896D01*
X124635437Y-76670064D01*
X124635442Y-76670054D01*
X124679041Y-76564800D01*
X124220800Y-76564800D01*
X124220800Y-77023040D01*
X123720800Y-77023040D01*
X123720800Y-76564800D01*
X123262559Y-76564800D01*
X122679041Y-76564800D01*
X122220800Y-76564800D01*
X122220800Y-77023040D01*
X121720800Y-77023040D01*
X121720800Y-76564800D01*
X121262559Y-76564800D01*
X113833515Y-76564800D01*
X113859909Y-76525298D01*
X113888755Y-76482128D01*
X113888755Y-76482127D01*
X113891794Y-76477579D01*
X113952137Y-76331897D01*
X113961473Y-76284963D01*
X121820800Y-76284963D01*
X121820800Y-76344637D01*
X121843636Y-76399768D01*
X121885832Y-76441964D01*
X121940963Y-76464800D01*
X122000637Y-76464800D01*
X122055768Y-76441964D01*
X122097964Y-76399768D01*
X122120800Y-76344637D01*
X122120800Y-76284963D01*
X123820800Y-76284963D01*
X123820800Y-76344637D01*
X123843636Y-76399768D01*
X123885832Y-76441964D01*
X123940963Y-76464800D01*
X124000637Y-76464800D01*
X124055768Y-76441964D01*
X124097964Y-76399768D01*
X124120800Y-76344637D01*
X124120800Y-76284963D01*
X124097964Y-76229832D01*
X124055768Y-76187636D01*
X124000637Y-76164800D01*
X123940963Y-76164800D01*
X123885832Y-76187636D01*
X123843636Y-76229832D01*
X123820800Y-76284963D01*
X122120800Y-76284963D01*
X122097964Y-76229832D01*
X122055768Y-76187636D01*
X122000637Y-76164800D01*
X121940963Y-76164800D01*
X121885832Y-76187636D01*
X121843636Y-76229832D01*
X121820800Y-76284963D01*
X113961473Y-76284963D01*
X113982900Y-76177242D01*
X113982900Y-76064799D01*
X121262559Y-76064799D01*
X121262559Y-76064800D01*
X121720800Y-76064800D01*
X122220800Y-76064800D01*
X122679041Y-76064800D01*
X122679040Y-76064799D01*
X123262559Y-76064799D01*
X123262559Y-76064800D01*
X123720800Y-76064800D01*
X124220800Y-76064800D01*
X124679041Y-76064800D01*
X124679040Y-76064799D01*
X124635442Y-75959545D01*
X124635437Y-75959535D01*
X124553363Y-75836703D01*
X124553360Y-75836699D01*
X124448900Y-75732239D01*
X124448896Y-75732236D01*
X124326064Y-75650162D01*
X124326054Y-75650157D01*
X124220800Y-75606559D01*
X124220800Y-76064800D01*
X123720800Y-76064800D01*
X123720800Y-75606559D01*
X123720799Y-75606559D01*
X123615545Y-75650157D01*
X123615535Y-75650162D01*
X123492703Y-75732236D01*
X123492699Y-75732239D01*
X123388239Y-75836699D01*
X123388236Y-75836703D01*
X123306162Y-75959535D01*
X123306157Y-75959545D01*
X123262559Y-76064799D01*
X122679040Y-76064799D01*
X122635442Y-75959545D01*
X122635437Y-75959535D01*
X122553363Y-75836703D01*
X122553360Y-75836699D01*
X122448900Y-75732239D01*
X122448896Y-75732236D01*
X122326064Y-75650162D01*
X122326054Y-75650157D01*
X122220800Y-75606559D01*
X122220800Y-76064800D01*
X121720800Y-76064800D01*
X121720800Y-75606559D01*
X121720799Y-75606559D01*
X121615545Y-75650157D01*
X121615535Y-75650162D01*
X121492703Y-75732236D01*
X121492699Y-75732239D01*
X121388239Y-75836699D01*
X121388236Y-75836703D01*
X121306162Y-75959535D01*
X121306157Y-75959545D01*
X121262559Y-76064799D01*
X113982900Y-76064799D01*
X113982900Y-76019558D01*
X113982900Y-76019555D01*
X113982899Y-76019553D01*
X113974096Y-75975300D01*
X113952137Y-75864903D01*
X113940455Y-75836699D01*
X113891797Y-75719227D01*
X113891790Y-75719214D01*
X113804189Y-75588111D01*
X113804186Y-75588107D01*
X113692692Y-75476613D01*
X113692688Y-75476610D01*
X113561585Y-75389009D01*
X113561572Y-75389002D01*
X113415901Y-75328664D01*
X113415889Y-75328661D01*
X113261245Y-75297900D01*
X113261242Y-75297900D01*
X113103558Y-75297900D01*
X113103555Y-75297900D01*
X112948910Y-75328661D01*
X112948898Y-75328664D01*
X112803227Y-75389002D01*
X112803214Y-75389009D01*
X112672111Y-75476610D01*
X112672107Y-75476613D01*
X112560613Y-75588107D01*
X112560610Y-75588111D01*
X112473009Y-75719214D01*
X112473002Y-75719227D01*
X112412664Y-75864898D01*
X112412661Y-75864910D01*
X112381900Y-76019553D01*
X110746309Y-76019553D01*
X110672701Y-75989064D01*
X110672689Y-75989061D01*
X110518045Y-75958300D01*
X110518042Y-75958300D01*
X110360358Y-75958300D01*
X110360355Y-75958300D01*
X110205710Y-75989061D01*
X110205698Y-75989064D01*
X110060027Y-76049402D01*
X110060014Y-76049409D01*
X109928911Y-76137010D01*
X109928907Y-76137013D01*
X109817413Y-76248507D01*
X109817410Y-76248511D01*
X109729809Y-76379614D01*
X109729802Y-76379627D01*
X109669464Y-76525298D01*
X109669461Y-76525310D01*
X109638700Y-76679953D01*
X109638700Y-76837646D01*
X109669461Y-76992289D01*
X109669464Y-76992301D01*
X109729802Y-77137972D01*
X109729809Y-77137985D01*
X109817410Y-77269088D01*
X109817413Y-77269092D01*
X109933218Y-77384897D01*
X109932302Y-77385812D01*
X109967869Y-77438026D01*
X109969740Y-77507871D01*
X109933552Y-77567639D01*
X109870797Y-77598355D01*
X109825679Y-77597751D01*
X109756045Y-77583900D01*
X109756042Y-77583900D01*
X109598358Y-77583900D01*
X109598355Y-77583900D01*
X109443710Y-77614661D01*
X109443698Y-77614664D01*
X109298028Y-77675002D01*
X109298015Y-77675009D01*
X109238091Y-77715050D01*
X109171413Y-77735928D01*
X109104033Y-77717443D01*
X109100309Y-77715050D01*
X109040384Y-77675009D01*
X109040381Y-77675007D01*
X109040379Y-77675006D01*
X109040376Y-77675004D01*
X109040371Y-77675002D01*
X108894701Y-77614664D01*
X108894689Y-77614661D01*
X108740045Y-77583900D01*
X108740042Y-77583900D01*
X108582358Y-77583900D01*
X108582355Y-77583900D01*
X108427710Y-77614661D01*
X108427698Y-77614664D01*
X108282027Y-77675002D01*
X108282014Y-77675009D01*
X108150911Y-77762610D01*
X108150907Y-77762613D01*
X108039413Y-77874107D01*
X108039410Y-77874111D01*
X107951809Y-78005214D01*
X107951802Y-78005227D01*
X107891464Y-78150898D01*
X107891461Y-78150910D01*
X107860700Y-78305553D01*
X81018500Y-78305553D01*
X81018500Y-76375153D01*
X96633900Y-76375153D01*
X96633900Y-76532846D01*
X96664661Y-76687489D01*
X96664664Y-76687501D01*
X96725002Y-76833172D01*
X96725009Y-76833185D01*
X96812610Y-76964288D01*
X96812613Y-76964292D01*
X96924107Y-77075786D01*
X96924111Y-77075789D01*
X97055214Y-77163390D01*
X97055227Y-77163397D01*
X97177854Y-77214190D01*
X97200903Y-77223737D01*
X97355553Y-77254499D01*
X97355556Y-77254500D01*
X97355558Y-77254500D01*
X97513244Y-77254500D01*
X97513245Y-77254499D01*
X97667897Y-77223737D01*
X97813579Y-77163394D01*
X97944689Y-77075789D01*
X98056189Y-76964289D01*
X98143794Y-76833179D01*
X98154308Y-76807797D01*
X98183098Y-76738289D01*
X98204137Y-76687497D01*
X98234900Y-76532842D01*
X98234900Y-76375158D01*
X98234900Y-76375155D01*
X98234899Y-76375153D01*
X98228829Y-76344637D01*
X98204137Y-76220503D01*
X98204135Y-76220498D01*
X98143797Y-76074827D01*
X98143790Y-76074814D01*
X98056189Y-75943711D01*
X98056186Y-75943707D01*
X97944692Y-75832213D01*
X97944688Y-75832210D01*
X97813585Y-75744609D01*
X97813572Y-75744602D01*
X97667901Y-75684264D01*
X97667889Y-75684261D01*
X97513245Y-75653500D01*
X97513242Y-75653500D01*
X97355558Y-75653500D01*
X97355555Y-75653500D01*
X97200910Y-75684261D01*
X97200898Y-75684264D01*
X97055227Y-75744602D01*
X97055214Y-75744609D01*
X96924111Y-75832210D01*
X96924107Y-75832213D01*
X96812613Y-75943707D01*
X96812610Y-75943711D01*
X96725009Y-76074814D01*
X96725002Y-76074827D01*
X96664664Y-76220498D01*
X96664661Y-76220510D01*
X96633900Y-76375153D01*
X81018500Y-76375153D01*
X81018500Y-75409953D01*
X100951900Y-75409953D01*
X100951900Y-75567646D01*
X100982661Y-75722289D01*
X100982664Y-75722301D01*
X101043002Y-75867972D01*
X101043009Y-75867985D01*
X101130610Y-75999088D01*
X101130613Y-75999092D01*
X101242107Y-76110586D01*
X101242111Y-76110589D01*
X101373214Y-76198190D01*
X101373227Y-76198197D01*
X101449602Y-76229832D01*
X101518903Y-76258537D01*
X101651755Y-76284963D01*
X101673553Y-76289299D01*
X101673556Y-76289300D01*
X101673558Y-76289300D01*
X101831244Y-76289300D01*
X101831245Y-76289299D01*
X101985897Y-76258537D01*
X102111347Y-76206573D01*
X102180817Y-76199105D01*
X102206250Y-76206573D01*
X102331703Y-76258537D01*
X102464555Y-76284963D01*
X102486353Y-76289299D01*
X102486356Y-76289300D01*
X102486358Y-76289300D01*
X102644044Y-76289300D01*
X102644045Y-76289299D01*
X102798697Y-76258537D01*
X102944379Y-76198194D01*
X103055110Y-76124205D01*
X103121786Y-76103328D01*
X103189166Y-76121812D01*
X103192871Y-76124193D01*
X103303621Y-76198194D01*
X103303623Y-76198195D01*
X103303627Y-76198197D01*
X103380002Y-76229832D01*
X103449303Y-76258537D01*
X103582155Y-76284963D01*
X103603953Y-76289299D01*
X103603956Y-76289300D01*
X103603958Y-76289300D01*
X103761644Y-76289300D01*
X103761645Y-76289299D01*
X103916297Y-76258537D01*
X104061979Y-76198194D01*
X104061985Y-76198190D01*
X104145243Y-76142559D01*
X104211920Y-76121681D01*
X104279300Y-76140165D01*
X104325991Y-76192144D01*
X104337167Y-76261114D01*
X104335751Y-76269852D01*
X104304700Y-76425953D01*
X104304700Y-76583646D01*
X104335461Y-76738289D01*
X104335464Y-76738301D01*
X104395802Y-76883972D01*
X104395809Y-76883985D01*
X104483410Y-77015088D01*
X104483413Y-77015092D01*
X104594907Y-77126586D01*
X104594911Y-77126589D01*
X104726014Y-77214190D01*
X104726027Y-77214197D01*
X104871698Y-77274535D01*
X104871703Y-77274537D01*
X105026353Y-77305299D01*
X105026356Y-77305300D01*
X105026358Y-77305300D01*
X105184044Y-77305300D01*
X105184045Y-77305299D01*
X105338697Y-77274537D01*
X105484379Y-77214194D01*
X105615489Y-77126589D01*
X105726989Y-77015089D01*
X105814594Y-76883979D01*
X105874937Y-76738297D01*
X105905700Y-76583642D01*
X105905700Y-76425958D01*
X105905700Y-76425955D01*
X105905699Y-76425953D01*
X105896483Y-76379621D01*
X105874937Y-76271303D01*
X105844656Y-76198197D01*
X105814597Y-76125627D01*
X105814590Y-76125614D01*
X105726989Y-75994511D01*
X105726986Y-75994507D01*
X105615492Y-75883013D01*
X105615488Y-75883010D01*
X105484385Y-75795409D01*
X105484372Y-75795402D01*
X105338701Y-75735064D01*
X105338689Y-75735061D01*
X105184045Y-75704300D01*
X105184042Y-75704300D01*
X105026358Y-75704300D01*
X105026355Y-75704300D01*
X104871710Y-75735061D01*
X104871698Y-75735064D01*
X104726027Y-75795402D01*
X104726016Y-75795408D01*
X104642755Y-75851041D01*
X104576077Y-75871918D01*
X104508697Y-75853433D01*
X104462008Y-75801453D01*
X104450832Y-75732483D01*
X104452248Y-75723746D01*
X104452535Y-75722300D01*
X104452537Y-75722297D01*
X104475559Y-75606559D01*
X104483300Y-75567644D01*
X104483300Y-75409955D01*
X104483299Y-75409953D01*
X104471836Y-75352325D01*
X104452537Y-75255303D01*
X104432649Y-75207289D01*
X104392197Y-75109627D01*
X104392190Y-75109614D01*
X104304589Y-74978511D01*
X104304586Y-74978507D01*
X104193092Y-74867013D01*
X104193088Y-74867010D01*
X104061985Y-74779409D01*
X104061972Y-74779402D01*
X103916301Y-74719064D01*
X103916289Y-74719061D01*
X103761645Y-74688300D01*
X103761642Y-74688300D01*
X103603958Y-74688300D01*
X103603955Y-74688300D01*
X103449310Y-74719061D01*
X103449298Y-74719064D01*
X103303627Y-74779402D01*
X103303614Y-74779409D01*
X103192891Y-74853393D01*
X103126213Y-74874271D01*
X103058833Y-74855787D01*
X103055109Y-74853393D01*
X102944385Y-74779409D01*
X102944372Y-74779402D01*
X102798701Y-74719064D01*
X102798689Y-74719061D01*
X102644045Y-74688300D01*
X102644042Y-74688300D01*
X102486358Y-74688300D01*
X102486355Y-74688300D01*
X102331710Y-74719061D01*
X102331698Y-74719064D01*
X102206252Y-74771025D01*
X102136782Y-74778494D01*
X102111348Y-74771025D01*
X101985901Y-74719064D01*
X101985889Y-74719061D01*
X101831245Y-74688300D01*
X101831242Y-74688300D01*
X101673558Y-74688300D01*
X101673555Y-74688300D01*
X101518910Y-74719061D01*
X101518898Y-74719064D01*
X101373227Y-74779402D01*
X101373214Y-74779409D01*
X101242111Y-74867010D01*
X101242107Y-74867013D01*
X101130613Y-74978507D01*
X101130610Y-74978511D01*
X101043009Y-75109614D01*
X101043002Y-75109627D01*
X100982664Y-75255298D01*
X100982661Y-75255310D01*
X100951900Y-75409953D01*
X81018500Y-75409953D01*
X81018500Y-73327153D01*
X96633900Y-73327153D01*
X96633900Y-73484846D01*
X96664661Y-73639489D01*
X96664664Y-73639501D01*
X96725002Y-73785172D01*
X96725009Y-73785185D01*
X96812610Y-73916288D01*
X96812613Y-73916292D01*
X96924107Y-74027786D01*
X96924111Y-74027789D01*
X97055214Y-74115390D01*
X97055227Y-74115397D01*
X97200898Y-74175735D01*
X97200903Y-74175737D01*
X97355553Y-74206499D01*
X97355556Y-74206500D01*
X97355558Y-74206500D01*
X97513244Y-74206500D01*
X97513245Y-74206499D01*
X97667897Y-74175737D01*
X97813579Y-74115394D01*
X97813585Y-74115390D01*
X97844645Y-74094637D01*
X97934603Y-74034528D01*
X97944689Y-74027789D01*
X98056189Y-73916289D01*
X98143794Y-73785179D01*
X98164662Y-73734800D01*
X117526061Y-73734800D01*
X118551072Y-73734800D01*
X118459186Y-73772860D01*
X118388860Y-73843186D01*
X118350800Y-73935072D01*
X118350800Y-74034528D01*
X118388860Y-74126414D01*
X118459186Y-74196740D01*
X118551072Y-74234800D01*
X117526061Y-74234800D01*
X117529115Y-74254085D01*
X117529118Y-74254095D01*
X117585050Y-74426241D01*
X117585052Y-74426247D01*
X117667234Y-74587534D01*
X117773623Y-74733969D01*
X117901630Y-74861976D01*
X118048065Y-74968365D01*
X118209352Y-75050547D01*
X118209355Y-75050548D01*
X118381506Y-75106482D01*
X118560294Y-75134800D01*
X119016986Y-75134800D01*
X119084025Y-75154485D01*
X119129780Y-75207289D01*
X119139724Y-75276447D01*
X119136761Y-75290890D01*
X119120300Y-75352325D01*
X119120300Y-75497275D01*
X119144639Y-75588107D01*
X119157817Y-75637288D01*
X119230288Y-75762811D01*
X119230290Y-75762813D01*
X119230291Y-75762815D01*
X119332785Y-75865309D01*
X119332786Y-75865310D01*
X119332788Y-75865311D01*
X119458311Y-75937782D01*
X119458312Y-75937782D01*
X119458315Y-75937784D01*
X119598325Y-75975300D01*
X119598328Y-75975300D01*
X119743272Y-75975300D01*
X119743275Y-75975300D01*
X119883285Y-75937784D01*
X120008815Y-75865309D01*
X120111309Y-75762815D01*
X120183784Y-75637285D01*
X120221300Y-75497275D01*
X120221300Y-75352325D01*
X120183784Y-75212315D01*
X120156143Y-75164440D01*
X120139671Y-75096542D01*
X120162523Y-75030515D01*
X120207237Y-74991956D01*
X120253532Y-74968367D01*
X120399969Y-74861976D01*
X120527976Y-74733969D01*
X120634365Y-74587534D01*
X120716547Y-74426247D01*
X120716549Y-74426241D01*
X120772481Y-74254095D01*
X120772484Y-74254085D01*
X120775539Y-74234800D01*
X119750528Y-74234800D01*
X119842414Y-74196740D01*
X119912740Y-74126414D01*
X119950800Y-74034528D01*
X119950800Y-73935072D01*
X119912740Y-73843186D01*
X119842414Y-73772860D01*
X119750528Y-73734800D01*
X120775539Y-73734800D01*
X121826061Y-73734800D01*
X122901072Y-73734800D01*
X122809186Y-73772860D01*
X122738860Y-73843186D01*
X122700800Y-73935072D01*
X122700800Y-74034528D01*
X122738860Y-74126414D01*
X122809186Y-74196740D01*
X122901072Y-74234800D01*
X121826061Y-74234800D01*
X121829115Y-74254085D01*
X121829118Y-74254095D01*
X121885050Y-74426241D01*
X121885052Y-74426247D01*
X121967234Y-74587534D01*
X122073623Y-74733969D01*
X122201630Y-74861976D01*
X122348065Y-74968365D01*
X122509352Y-75050547D01*
X122509355Y-75050548D01*
X122681506Y-75106482D01*
X122860294Y-75134800D01*
X123100800Y-75134800D01*
X123100800Y-74234800D01*
X123600800Y-74234800D01*
X123600800Y-75134800D01*
X123841306Y-75134800D01*
X124020093Y-75106482D01*
X124192244Y-75050548D01*
X124192247Y-75050547D01*
X124353534Y-74968365D01*
X124499969Y-74861976D01*
X124627976Y-74733969D01*
X124734365Y-74587534D01*
X124816547Y-74426247D01*
X124816549Y-74426241D01*
X124872481Y-74254095D01*
X124872484Y-74254085D01*
X124875539Y-74234800D01*
X123800528Y-74234800D01*
X123892414Y-74196740D01*
X123962740Y-74126414D01*
X124000800Y-74034528D01*
X124000800Y-73935072D01*
X123962740Y-73843186D01*
X123892414Y-73772860D01*
X123800528Y-73734800D01*
X124875539Y-73734800D01*
X124872484Y-73715514D01*
X124872481Y-73715504D01*
X124816549Y-73543358D01*
X124816547Y-73543352D01*
X124734365Y-73382065D01*
X124627976Y-73235630D01*
X124499969Y-73107623D01*
X124353534Y-73001234D01*
X124192247Y-72919052D01*
X124192244Y-72919051D01*
X124020093Y-72863117D01*
X123841306Y-72834800D01*
X123600800Y-72834800D01*
X123600800Y-73734800D01*
X123100800Y-73734800D01*
X123100800Y-72834800D01*
X122860294Y-72834800D01*
X122681506Y-72863117D01*
X122509355Y-72919051D01*
X122509352Y-72919052D01*
X122348065Y-73001234D01*
X122201630Y-73107623D01*
X122073623Y-73235630D01*
X121967234Y-73382065D01*
X121885052Y-73543352D01*
X121885050Y-73543358D01*
X121829118Y-73715504D01*
X121829115Y-73715514D01*
X121826061Y-73734800D01*
X120775539Y-73734800D01*
X120772484Y-73715514D01*
X120772481Y-73715504D01*
X120716549Y-73543358D01*
X120716547Y-73543352D01*
X120634365Y-73382065D01*
X120527976Y-73235630D01*
X120399969Y-73107623D01*
X120253534Y-73001234D01*
X120092247Y-72919052D01*
X120092244Y-72919051D01*
X119920093Y-72863117D01*
X119741306Y-72834800D01*
X119400800Y-72834800D01*
X119400800Y-73734800D01*
X118900800Y-73734800D01*
X118900800Y-72834800D01*
X118560294Y-72834800D01*
X118381506Y-72863117D01*
X118209355Y-72919051D01*
X118209352Y-72919052D01*
X118048065Y-73001234D01*
X117901630Y-73107623D01*
X117773623Y-73235630D01*
X117667234Y-73382065D01*
X117585052Y-73543352D01*
X117585050Y-73543358D01*
X117529118Y-73715504D01*
X117529115Y-73715514D01*
X117526061Y-73734800D01*
X98164662Y-73734800D01*
X98204137Y-73639497D01*
X98234900Y-73484842D01*
X98234900Y-73327158D01*
X98234900Y-73327155D01*
X98234899Y-73327153D01*
X98210619Y-73205092D01*
X98204137Y-73172503D01*
X98173856Y-73099397D01*
X98143797Y-73026827D01*
X98143790Y-73026814D01*
X98056189Y-72895711D01*
X98056186Y-72895707D01*
X97944692Y-72784213D01*
X97944688Y-72784210D01*
X97813585Y-72696609D01*
X97813572Y-72696602D01*
X97667901Y-72636264D01*
X97667889Y-72636261D01*
X97513245Y-72605500D01*
X97513242Y-72605500D01*
X97355558Y-72605500D01*
X97355555Y-72605500D01*
X97200910Y-72636261D01*
X97200898Y-72636264D01*
X97055227Y-72696602D01*
X97055214Y-72696609D01*
X96924111Y-72784210D01*
X96924107Y-72784213D01*
X96812613Y-72895707D01*
X96812610Y-72895711D01*
X96725009Y-73026814D01*
X96725002Y-73026827D01*
X96664664Y-73172498D01*
X96664661Y-73172510D01*
X96633900Y-73327153D01*
X81018500Y-73327153D01*
X81018500Y-71244353D01*
X103949100Y-71244353D01*
X103949100Y-71402046D01*
X103979861Y-71556689D01*
X103979864Y-71556701D01*
X104040202Y-71702372D01*
X104040209Y-71702385D01*
X104127810Y-71833488D01*
X104127813Y-71833492D01*
X104239307Y-71944986D01*
X104239311Y-71944989D01*
X104370414Y-72032590D01*
X104370427Y-72032597D01*
X104516098Y-72092935D01*
X104516103Y-72092937D01*
X104670753Y-72123699D01*
X104670756Y-72123700D01*
X104670758Y-72123700D01*
X104828444Y-72123700D01*
X104828445Y-72123699D01*
X104983097Y-72092937D01*
X105128779Y-72032594D01*
X105252124Y-71950176D01*
X105318799Y-71929300D01*
X105386179Y-71947784D01*
X105389904Y-71950178D01*
X105417247Y-71968448D01*
X105437221Y-71981794D01*
X105437223Y-71981795D01*
X105437227Y-71981797D01*
X105582898Y-72042135D01*
X105582903Y-72042137D01*
X105712713Y-72067958D01*
X105737553Y-72072899D01*
X105737556Y-72072900D01*
X105737558Y-72072900D01*
X105895244Y-72072900D01*
X105895245Y-72072899D01*
X106049897Y-72042137D01*
X106195579Y-71981794D01*
X106195580Y-71981792D01*
X106200747Y-71979653D01*
X106231251Y-71976373D01*
X106261454Y-71970924D01*
X106267524Y-71972473D01*
X106270217Y-71972184D01*
X106295652Y-71979653D01*
X106309541Y-71985406D01*
X106370913Y-72010827D01*
X106402999Y-72024117D01*
X106457403Y-72067958D01*
X106479468Y-72134252D01*
X106462189Y-72201951D01*
X106424440Y-72241779D01*
X106372909Y-72276211D01*
X106261413Y-72387707D01*
X106261410Y-72387711D01*
X106173809Y-72518814D01*
X106173802Y-72518827D01*
X106113464Y-72664498D01*
X106113461Y-72664510D01*
X106082700Y-72819153D01*
X106082700Y-72976846D01*
X106113461Y-73131489D01*
X106113464Y-73131501D01*
X106173802Y-73277172D01*
X106173809Y-73277185D01*
X106261410Y-73408288D01*
X106261413Y-73408292D01*
X106372907Y-73519786D01*
X106372911Y-73519789D01*
X106504014Y-73607390D01*
X106504027Y-73607397D01*
X106649698Y-73667735D01*
X106649703Y-73667737D01*
X106804353Y-73698499D01*
X106804356Y-73698500D01*
X106804358Y-73698500D01*
X106962044Y-73698500D01*
X106962045Y-73698499D01*
X107116697Y-73667737D01*
X107130715Y-73661930D01*
X107141895Y-73657300D01*
X107262372Y-73607397D01*
X107262372Y-73607396D01*
X107262379Y-73607394D01*
X107393489Y-73519789D01*
X107504989Y-73408289D01*
X107592594Y-73277179D01*
X107652937Y-73131497D01*
X107658395Y-73104056D01*
X107690779Y-73042148D01*
X107751494Y-73007573D01*
X107821263Y-73011312D01*
X107848901Y-73025146D01*
X107960021Y-73099394D01*
X107960023Y-73099395D01*
X107960027Y-73099397D01*
X108105698Y-73159735D01*
X108105703Y-73159737D01*
X108260353Y-73190499D01*
X108260356Y-73190500D01*
X108260358Y-73190500D01*
X108418044Y-73190500D01*
X108418045Y-73190499D01*
X108572697Y-73159737D01*
X108718379Y-73099394D01*
X108849489Y-73011789D01*
X108960989Y-72900289D01*
X109048594Y-72769179D01*
X109108937Y-72623497D01*
X109110438Y-72615953D01*
X110214700Y-72615953D01*
X110214700Y-72773646D01*
X110245461Y-72928289D01*
X110245464Y-72928301D01*
X110305802Y-73073972D01*
X110305809Y-73073985D01*
X110393410Y-73205088D01*
X110393413Y-73205092D01*
X110504907Y-73316586D01*
X110504911Y-73316589D01*
X110636014Y-73404190D01*
X110636027Y-73404197D01*
X110781698Y-73464535D01*
X110781703Y-73464537D01*
X110883803Y-73484846D01*
X110936353Y-73495299D01*
X110936356Y-73495300D01*
X110936358Y-73495300D01*
X111094044Y-73495300D01*
X111094045Y-73495299D01*
X111248697Y-73464537D01*
X111361366Y-73417867D01*
X111394372Y-73404197D01*
X111394372Y-73404196D01*
X111394379Y-73404194D01*
X111525489Y-73316589D01*
X111636989Y-73205089D01*
X111724594Y-73073979D01*
X111784937Y-72928297D01*
X111815700Y-72773642D01*
X111815700Y-72615958D01*
X111815700Y-72615955D01*
X111815699Y-72615953D01*
X111796378Y-72518821D01*
X111784937Y-72461303D01*
X111775352Y-72438163D01*
X111724597Y-72315627D01*
X111724590Y-72315614D01*
X111636989Y-72184511D01*
X111636986Y-72184507D01*
X111525492Y-72073013D01*
X111525488Y-72073010D01*
X111394385Y-71985409D01*
X111394372Y-71985402D01*
X111248701Y-71925064D01*
X111248689Y-71925061D01*
X111094045Y-71894300D01*
X111094042Y-71894300D01*
X110936358Y-71894300D01*
X110936355Y-71894300D01*
X110781710Y-71925061D01*
X110781698Y-71925064D01*
X110636027Y-71985402D01*
X110636014Y-71985409D01*
X110504911Y-72073010D01*
X110504907Y-72073013D01*
X110393413Y-72184507D01*
X110393410Y-72184511D01*
X110305809Y-72315614D01*
X110305802Y-72315627D01*
X110245464Y-72461298D01*
X110245461Y-72461310D01*
X110214700Y-72615953D01*
X109110438Y-72615953D01*
X109139700Y-72468842D01*
X109139700Y-72311158D01*
X109139700Y-72311155D01*
X109139699Y-72311153D01*
X109132843Y-72276686D01*
X109108937Y-72156503D01*
X109104703Y-72146282D01*
X109048597Y-72010827D01*
X109048590Y-72010814D01*
X108960989Y-71879711D01*
X108960986Y-71879707D01*
X108849492Y-71768213D01*
X108849488Y-71768210D01*
X108718385Y-71680609D01*
X108718372Y-71680602D01*
X108572701Y-71620264D01*
X108572689Y-71620261D01*
X108418045Y-71589500D01*
X108418042Y-71589500D01*
X108260358Y-71589500D01*
X108260355Y-71589500D01*
X108105710Y-71620261D01*
X108105698Y-71620264D01*
X107960027Y-71680602D01*
X107960014Y-71680609D01*
X107828911Y-71768210D01*
X107828907Y-71768213D01*
X107717413Y-71879707D01*
X107717410Y-71879711D01*
X107629809Y-72010814D01*
X107629802Y-72010827D01*
X107569464Y-72156498D01*
X107569462Y-72156505D01*
X107564004Y-72183944D01*
X107531617Y-72245854D01*
X107470901Y-72280427D01*
X107401132Y-72276686D01*
X107373496Y-72262852D01*
X107262385Y-72188609D01*
X107262372Y-72188602D01*
X107160200Y-72146282D01*
X107105796Y-72102441D01*
X107083731Y-72036147D01*
X107101010Y-71968448D01*
X107138762Y-71928619D01*
X107173736Y-71905249D01*
X107190289Y-71894189D01*
X107301789Y-71782689D01*
X107389394Y-71651579D01*
X107449737Y-71505897D01*
X107480500Y-71351242D01*
X107480500Y-71193558D01*
X107480500Y-71193555D01*
X107480499Y-71193553D01*
X107449738Y-71038910D01*
X107449737Y-71038903D01*
X107449735Y-71038898D01*
X107389397Y-70893227D01*
X107389390Y-70893214D01*
X107301789Y-70762111D01*
X107301786Y-70762107D01*
X107190292Y-70650613D01*
X107190288Y-70650610D01*
X107059185Y-70563009D01*
X107059172Y-70563002D01*
X106987852Y-70533461D01*
X106933448Y-70489620D01*
X106911383Y-70423326D01*
X106928662Y-70355627D01*
X106979799Y-70308016D01*
X107035304Y-70294900D01*
X107063644Y-70294900D01*
X107063645Y-70294899D01*
X107218297Y-70264137D01*
X107363979Y-70203794D01*
X107495089Y-70116189D01*
X107606589Y-70004689D01*
X107694194Y-69873579D01*
X107754537Y-69727897D01*
X107785300Y-69573242D01*
X107785300Y-69415558D01*
X107785300Y-69415555D01*
X107785299Y-69415553D01*
X107756485Y-69270697D01*
X107754537Y-69260903D01*
X107743191Y-69233511D01*
X107694197Y-69115227D01*
X107694195Y-69115223D01*
X107694194Y-69115221D01*
X107620205Y-69004489D01*
X107599328Y-68937814D01*
X107617812Y-68870434D01*
X107620206Y-68866709D01*
X107662301Y-68803710D01*
X107694194Y-68755979D01*
X107754537Y-68610297D01*
X107785300Y-68455642D01*
X107785300Y-68297958D01*
X107785300Y-68297955D01*
X107785299Y-68297953D01*
X107761019Y-68175892D01*
X107754537Y-68143303D01*
X107713730Y-68044785D01*
X107694197Y-67997627D01*
X107694190Y-67997614D01*
X107606589Y-67866511D01*
X107606586Y-67866507D01*
X107495092Y-67755013D01*
X107495088Y-67755010D01*
X107363985Y-67667409D01*
X107363972Y-67667402D01*
X107218301Y-67607064D01*
X107218289Y-67607061D01*
X107063645Y-67576300D01*
X107063642Y-67576300D01*
X106905958Y-67576300D01*
X106905955Y-67576300D01*
X106751310Y-67607061D01*
X106751298Y-67607064D01*
X106605627Y-67667402D01*
X106605614Y-67667409D01*
X106474511Y-67755010D01*
X106474507Y-67755013D01*
X106363013Y-67866507D01*
X106363010Y-67866511D01*
X106275409Y-67997614D01*
X106275402Y-67997627D01*
X106215064Y-68143298D01*
X106215061Y-68143310D01*
X106184300Y-68297953D01*
X106184300Y-68455646D01*
X106215061Y-68610289D01*
X106215064Y-68610301D01*
X106275402Y-68755972D01*
X106275409Y-68755985D01*
X106349393Y-68866709D01*
X106370271Y-68933387D01*
X106351787Y-69000767D01*
X106349393Y-69004491D01*
X106275409Y-69115214D01*
X106275402Y-69115227D01*
X106215064Y-69260898D01*
X106215061Y-69260910D01*
X106184300Y-69415553D01*
X106184300Y-69573246D01*
X106215061Y-69727889D01*
X106215064Y-69727901D01*
X106275402Y-69873572D01*
X106275409Y-69873585D01*
X106363010Y-70004688D01*
X106363013Y-70004692D01*
X106474507Y-70116186D01*
X106474511Y-70116189D01*
X106605614Y-70203790D01*
X106605627Y-70203797D01*
X106676948Y-70233339D01*
X106731352Y-70277180D01*
X106753417Y-70343474D01*
X106736138Y-70411173D01*
X106685001Y-70458784D01*
X106629496Y-70471900D01*
X106601155Y-70471900D01*
X106446510Y-70502661D01*
X106446498Y-70502664D01*
X106295652Y-70565146D01*
X106226183Y-70572615D01*
X106200748Y-70565146D01*
X106049901Y-70502664D01*
X106049889Y-70502661D01*
X105895245Y-70471900D01*
X105895242Y-70471900D01*
X105737558Y-70471900D01*
X105737555Y-70471900D01*
X105582910Y-70502661D01*
X105582898Y-70502664D01*
X105437227Y-70563002D01*
X105437214Y-70563009D01*
X105313877Y-70645421D01*
X105247199Y-70666299D01*
X105179819Y-70647814D01*
X105176095Y-70645421D01*
X105128785Y-70613809D01*
X105128772Y-70613802D01*
X104983101Y-70553464D01*
X104983089Y-70553461D01*
X104828445Y-70522700D01*
X104828442Y-70522700D01*
X104670758Y-70522700D01*
X104670755Y-70522700D01*
X104516110Y-70553461D01*
X104516098Y-70553464D01*
X104370427Y-70613802D01*
X104370414Y-70613809D01*
X104239311Y-70701410D01*
X104239307Y-70701413D01*
X104127813Y-70812907D01*
X104127810Y-70812911D01*
X104040209Y-70944014D01*
X104040202Y-70944027D01*
X103979864Y-71089698D01*
X103979861Y-71089710D01*
X103949100Y-71244353D01*
X81018500Y-71244353D01*
X81018500Y-68958353D01*
X89521900Y-68958353D01*
X89521900Y-69116046D01*
X89552661Y-69270689D01*
X89552664Y-69270701D01*
X89613002Y-69416372D01*
X89613009Y-69416385D01*
X89700610Y-69547488D01*
X89700613Y-69547492D01*
X89812107Y-69658986D01*
X89812111Y-69658989D01*
X89943214Y-69746590D01*
X89943227Y-69746597D01*
X90088898Y-69806935D01*
X90088903Y-69806937D01*
X90243553Y-69837699D01*
X90243556Y-69837700D01*
X90243558Y-69837700D01*
X90401244Y-69837700D01*
X90401245Y-69837699D01*
X90555897Y-69806937D01*
X90701579Y-69746594D01*
X90786909Y-69689577D01*
X90853586Y-69668700D01*
X90920966Y-69687184D01*
X90924681Y-69689571D01*
X91010021Y-69746594D01*
X91010023Y-69746595D01*
X91010027Y-69746597D01*
X91155698Y-69806935D01*
X91155703Y-69806937D01*
X91310353Y-69837699D01*
X91310356Y-69837700D01*
X91310358Y-69837700D01*
X91468044Y-69837700D01*
X91468045Y-69837699D01*
X91622697Y-69806937D01*
X91768379Y-69746594D01*
X91777511Y-69740492D01*
X91844185Y-69719615D01*
X91911566Y-69738099D01*
X91915250Y-69740466D01*
X91924421Y-69746594D01*
X91924424Y-69746595D01*
X91924427Y-69746597D01*
X92070098Y-69806935D01*
X92070103Y-69806937D01*
X92224753Y-69837699D01*
X92224756Y-69837700D01*
X92224758Y-69837700D01*
X92382444Y-69837700D01*
X92382445Y-69837699D01*
X92537097Y-69806937D01*
X92682779Y-69746594D01*
X92813889Y-69658989D01*
X92925389Y-69547489D01*
X93012994Y-69416379D01*
X93073337Y-69270697D01*
X93080734Y-69233508D01*
X93113117Y-69171599D01*
X93154892Y-69143142D01*
X93292379Y-69086194D01*
X93423489Y-68998589D01*
X93534989Y-68887089D01*
X93622594Y-68755979D01*
X93682937Y-68610297D01*
X93713700Y-68455642D01*
X93713700Y-68297958D01*
X93713700Y-68297955D01*
X93713699Y-68297953D01*
X93689419Y-68175892D01*
X93682937Y-68143303D01*
X93642130Y-68044785D01*
X93622597Y-67997627D01*
X93622590Y-67997614D01*
X93534989Y-67866511D01*
X93534986Y-67866507D01*
X93423492Y-67755013D01*
X93423488Y-67755010D01*
X93316867Y-67683768D01*
X93292384Y-67667409D01*
X93292372Y-67667402D01*
X93146701Y-67607064D01*
X93146689Y-67607061D01*
X93044595Y-67586753D01*
X99732700Y-67586753D01*
X99732700Y-67744446D01*
X99763461Y-67899089D01*
X99763464Y-67899101D01*
X99823802Y-68044772D01*
X99823809Y-68044785D01*
X99911410Y-68175888D01*
X99911413Y-68175892D01*
X100022907Y-68287386D01*
X100022911Y-68287389D01*
X100154014Y-68374990D01*
X100154027Y-68374997D01*
X100299698Y-68435335D01*
X100299703Y-68435337D01*
X100401803Y-68455646D01*
X100454353Y-68466099D01*
X100454356Y-68466100D01*
X100454358Y-68466100D01*
X100612044Y-68466100D01*
X100612045Y-68466099D01*
X100766697Y-68435337D01*
X100912379Y-68374994D01*
X101043489Y-68287389D01*
X101154989Y-68175889D01*
X101242594Y-68044779D01*
X101302937Y-67899097D01*
X101333700Y-67744442D01*
X101333700Y-67586758D01*
X101333700Y-67586755D01*
X101333699Y-67586753D01*
X101302938Y-67432110D01*
X101302937Y-67432103D01*
X101268308Y-67348500D01*
X101242597Y-67286427D01*
X101242590Y-67286414D01*
X101154989Y-67155311D01*
X101154986Y-67155307D01*
X101043492Y-67043813D01*
X101043488Y-67043810D01*
X100912385Y-66956209D01*
X100912372Y-66956202D01*
X100766701Y-66895864D01*
X100766689Y-66895861D01*
X100612045Y-66865100D01*
X100612042Y-66865100D01*
X100454358Y-66865100D01*
X100454355Y-66865100D01*
X100299710Y-66895861D01*
X100299698Y-66895864D01*
X100154027Y-66956202D01*
X100154014Y-66956209D01*
X100022911Y-67043810D01*
X100022907Y-67043813D01*
X99911413Y-67155307D01*
X99911410Y-67155311D01*
X99823809Y-67286414D01*
X99823802Y-67286427D01*
X99763464Y-67432098D01*
X99763461Y-67432110D01*
X99732700Y-67586753D01*
X93044595Y-67586753D01*
X92992045Y-67576300D01*
X92992042Y-67576300D01*
X92834358Y-67576300D01*
X92834355Y-67576300D01*
X92679710Y-67607061D01*
X92679698Y-67607064D01*
X92534027Y-67667402D01*
X92534014Y-67667409D01*
X92402911Y-67755010D01*
X92402907Y-67755013D01*
X92291413Y-67866507D01*
X92291410Y-67866511D01*
X92203809Y-67997614D01*
X92203802Y-67997627D01*
X92143464Y-68143298D01*
X92143461Y-68143307D01*
X92136065Y-68180492D01*
X92133100Y-68186158D01*
X92133030Y-68192551D01*
X92117102Y-68216741D01*
X92103679Y-68242402D01*
X92097243Y-68246902D01*
X92094607Y-68250907D01*
X92070409Y-68265669D01*
X92064706Y-68269658D01*
X92063316Y-68270274D01*
X91924421Y-68327806D01*
X91906419Y-68339834D01*
X91896658Y-68344162D01*
X91872172Y-68347405D01*
X91848608Y-68354783D01*
X91838148Y-68351913D01*
X91827393Y-68353338D01*
X91805042Y-68342829D01*
X91781229Y-68336296D01*
X91777513Y-68333908D01*
X91768384Y-68327809D01*
X91768372Y-68327802D01*
X91622701Y-68267464D01*
X91622689Y-68267461D01*
X91468045Y-68236700D01*
X91468042Y-68236700D01*
X91310358Y-68236700D01*
X91310355Y-68236700D01*
X91155710Y-68267461D01*
X91155698Y-68267464D01*
X91010027Y-68327802D01*
X91010014Y-68327809D01*
X90924691Y-68384821D01*
X90858013Y-68405699D01*
X90790633Y-68387214D01*
X90786909Y-68384821D01*
X90701585Y-68327809D01*
X90701572Y-68327802D01*
X90555901Y-68267464D01*
X90555889Y-68267461D01*
X90401245Y-68236700D01*
X90401242Y-68236700D01*
X90243558Y-68236700D01*
X90243555Y-68236700D01*
X90088910Y-68267461D01*
X90088898Y-68267464D01*
X89943227Y-68327802D01*
X89943214Y-68327809D01*
X89812111Y-68415410D01*
X89812107Y-68415413D01*
X89700613Y-68526907D01*
X89700610Y-68526911D01*
X89613009Y-68658014D01*
X89613002Y-68658027D01*
X89552664Y-68803698D01*
X89552661Y-68803710D01*
X89521900Y-68958353D01*
X81018500Y-68958353D01*
X81018500Y-66469153D01*
X97497500Y-66469153D01*
X97497500Y-66626846D01*
X97528261Y-66781489D01*
X97528264Y-66781501D01*
X97588602Y-66927172D01*
X97588609Y-66927185D01*
X97676210Y-67058288D01*
X97676213Y-67058292D01*
X97787707Y-67169786D01*
X97787711Y-67169789D01*
X97918814Y-67257390D01*
X97918827Y-67257397D01*
X97988913Y-67286427D01*
X98064503Y-67317737D01*
X98219153Y-67348499D01*
X98219156Y-67348500D01*
X98219158Y-67348500D01*
X98376844Y-67348500D01*
X98376845Y-67348499D01*
X98531497Y-67317737D01*
X98677179Y-67257394D01*
X98808289Y-67169789D01*
X98919789Y-67058289D01*
X99007394Y-66927179D01*
X99067737Y-66781497D01*
X99098500Y-66626842D01*
X99098500Y-66469158D01*
X99098500Y-66469155D01*
X99098499Y-66469153D01*
X99067738Y-66314510D01*
X99067737Y-66314503D01*
X99034541Y-66234360D01*
X99007397Y-66168827D01*
X99007390Y-66168814D01*
X98919789Y-66037711D01*
X98919786Y-66037707D01*
X98808292Y-65926213D01*
X98808288Y-65926210D01*
X98677185Y-65838609D01*
X98677172Y-65838602D01*
X98531501Y-65778264D01*
X98531489Y-65778261D01*
X98376845Y-65747500D01*
X98376842Y-65747500D01*
X98219158Y-65747500D01*
X98219155Y-65747500D01*
X98064510Y-65778261D01*
X98064498Y-65778264D01*
X97918827Y-65838602D01*
X97918814Y-65838609D01*
X97787711Y-65926210D01*
X97787707Y-65926213D01*
X97676213Y-66037707D01*
X97676210Y-66037711D01*
X97588609Y-66168814D01*
X97588602Y-66168827D01*
X97528264Y-66314498D01*
X97528261Y-66314510D01*
X97497500Y-66469153D01*
X81018500Y-66469153D01*
X81018500Y-64843553D01*
X96075100Y-64843553D01*
X96075100Y-65001246D01*
X96105861Y-65155889D01*
X96105864Y-65155901D01*
X96166202Y-65301572D01*
X96166209Y-65301585D01*
X96253810Y-65432688D01*
X96253813Y-65432692D01*
X96365307Y-65544186D01*
X96365311Y-65544189D01*
X96496414Y-65631790D01*
X96496427Y-65631797D01*
X96642098Y-65692135D01*
X96642103Y-65692137D01*
X96796753Y-65722899D01*
X96796756Y-65722900D01*
X96796758Y-65722900D01*
X96954444Y-65722900D01*
X96954445Y-65722899D01*
X97109097Y-65692137D01*
X97254779Y-65631794D01*
X97385889Y-65544189D01*
X97497389Y-65432689D01*
X97584994Y-65301579D01*
X97645337Y-65155897D01*
X97676100Y-65001242D01*
X97676100Y-64843558D01*
X97676100Y-64843555D01*
X97649386Y-64709258D01*
X97649385Y-64709256D01*
X97648939Y-64707013D01*
X97645785Y-64691153D01*
X104050700Y-64691153D01*
X104050700Y-64848846D01*
X104081461Y-65003489D01*
X104081464Y-65003501D01*
X104141802Y-65149172D01*
X104141809Y-65149185D01*
X104229410Y-65280288D01*
X104229413Y-65280292D01*
X104340907Y-65391786D01*
X104340911Y-65391789D01*
X104472014Y-65479390D01*
X104472027Y-65479397D01*
X104617698Y-65539735D01*
X104617703Y-65539737D01*
X104759684Y-65567979D01*
X104772353Y-65570499D01*
X104772356Y-65570500D01*
X104772358Y-65570500D01*
X104930044Y-65570500D01*
X104942718Y-65567979D01*
X105012310Y-65574206D01*
X105067487Y-65617069D01*
X105090732Y-65682958D01*
X105081471Y-65737048D01*
X105068916Y-65767357D01*
X105068913Y-65767369D01*
X105038152Y-65922012D01*
X105038152Y-66079705D01*
X105068913Y-66234348D01*
X105068916Y-66234360D01*
X105129254Y-66380031D01*
X105129261Y-66380044D01*
X105216862Y-66511147D01*
X105216865Y-66511151D01*
X105328359Y-66622645D01*
X105328363Y-66622648D01*
X105459466Y-66710249D01*
X105459479Y-66710256D01*
X105605150Y-66770594D01*
X105605155Y-66770596D01*
X105759805Y-66801358D01*
X105759808Y-66801359D01*
X105759810Y-66801359D01*
X105917496Y-66801359D01*
X105917497Y-66801358D01*
X106072149Y-66770596D01*
X106217831Y-66710253D01*
X106348941Y-66622648D01*
X106460441Y-66511148D01*
X106548046Y-66380038D01*
X106608389Y-66234356D01*
X106639152Y-66079701D01*
X106639152Y-65922017D01*
X106639152Y-65922014D01*
X106639151Y-65922012D01*
X106622560Y-65838606D01*
X106608389Y-65767362D01*
X106595833Y-65737048D01*
X106548049Y-65621686D01*
X106548042Y-65621673D01*
X106460441Y-65490570D01*
X106460438Y-65490566D01*
X106348944Y-65379072D01*
X106348940Y-65379069D01*
X106300898Y-65346968D01*
X106217837Y-65291468D01*
X106217824Y-65291461D01*
X106117613Y-65249953D01*
X121119500Y-65249953D01*
X121119500Y-65407646D01*
X121150261Y-65562289D01*
X121150264Y-65562301D01*
X121210602Y-65707972D01*
X121210609Y-65707985D01*
X121298210Y-65839088D01*
X121298213Y-65839092D01*
X121409707Y-65950586D01*
X121409711Y-65950589D01*
X121540814Y-66038190D01*
X121540827Y-66038197D01*
X121641033Y-66079703D01*
X121686503Y-66098537D01*
X121841153Y-66129299D01*
X121841156Y-66129300D01*
X121841158Y-66129300D01*
X121998844Y-66129300D01*
X121998845Y-66129299D01*
X122153497Y-66098537D01*
X122153504Y-66098533D01*
X122157600Y-66097292D01*
X122227467Y-66096664D01*
X122262491Y-66112846D01*
X122302821Y-66139794D01*
X122448503Y-66200137D01*
X122603153Y-66230899D01*
X122603156Y-66230900D01*
X122603158Y-66230900D01*
X122760844Y-66230900D01*
X122760845Y-66230899D01*
X122915497Y-66200137D01*
X123061179Y-66139794D01*
X123192289Y-66052189D01*
X123303789Y-65940689D01*
X123391394Y-65809579D01*
X123451737Y-65663897D01*
X123482500Y-65509242D01*
X123482500Y-65351558D01*
X123482500Y-65351555D01*
X123482499Y-65351553D01*
X123468324Y-65280292D01*
X123451737Y-65196903D01*
X123431969Y-65149179D01*
X123391397Y-65051227D01*
X123391390Y-65051214D01*
X123303789Y-64920111D01*
X123303786Y-64920107D01*
X123192292Y-64808613D01*
X123192288Y-64808610D01*
X123061185Y-64721009D01*
X123061172Y-64721002D01*
X122915501Y-64660664D01*
X122915489Y-64660661D01*
X122760845Y-64629900D01*
X122760842Y-64629900D01*
X122603158Y-64629900D01*
X122603156Y-64629900D01*
X122448498Y-64660663D01*
X122444386Y-64661911D01*
X122374519Y-64662531D01*
X122339507Y-64646352D01*
X122299182Y-64619408D01*
X122299181Y-64619407D01*
X122299179Y-64619406D01*
X122299176Y-64619404D01*
X122299171Y-64619402D01*
X122153501Y-64559064D01*
X122153489Y-64559061D01*
X121998845Y-64528300D01*
X121998842Y-64528300D01*
X121841158Y-64528300D01*
X121841155Y-64528300D01*
X121686510Y-64559061D01*
X121686498Y-64559064D01*
X121540827Y-64619402D01*
X121540814Y-64619409D01*
X121409711Y-64707010D01*
X121409707Y-64707013D01*
X121298213Y-64818507D01*
X121298210Y-64818511D01*
X121210609Y-64949614D01*
X121210602Y-64949627D01*
X121150264Y-65095298D01*
X121150261Y-65095310D01*
X121119500Y-65249953D01*
X106117613Y-65249953D01*
X106072153Y-65231123D01*
X106072141Y-65231120D01*
X105917497Y-65200359D01*
X105917494Y-65200359D01*
X105759810Y-65200359D01*
X105759808Y-65200359D01*
X105747125Y-65202881D01*
X105677534Y-65196649D01*
X105622359Y-65153783D01*
X105599118Y-65087892D01*
X105608379Y-65033812D01*
X105620937Y-65003497D01*
X105651700Y-64848842D01*
X105651700Y-64691158D01*
X105651700Y-64691155D01*
X105651699Y-64691153D01*
X105637428Y-64619408D01*
X105620937Y-64536503D01*
X105569411Y-64412107D01*
X105560597Y-64390827D01*
X105560590Y-64390814D01*
X105472989Y-64259711D01*
X105472986Y-64259707D01*
X105361492Y-64148213D01*
X105361488Y-64148210D01*
X105230385Y-64060609D01*
X105230372Y-64060602D01*
X105084701Y-64000264D01*
X105084689Y-64000261D01*
X104930045Y-63969500D01*
X104930042Y-63969500D01*
X104772358Y-63969500D01*
X104772355Y-63969500D01*
X104617710Y-64000261D01*
X104617698Y-64000264D01*
X104472027Y-64060602D01*
X104472014Y-64060609D01*
X104340911Y-64148210D01*
X104340907Y-64148213D01*
X104229413Y-64259707D01*
X104229410Y-64259711D01*
X104141809Y-64390814D01*
X104141802Y-64390827D01*
X104081464Y-64536498D01*
X104081461Y-64536510D01*
X104050700Y-64691153D01*
X97645785Y-64691153D01*
X97645337Y-64688903D01*
X97642915Y-64683056D01*
X97584997Y-64543227D01*
X97584990Y-64543214D01*
X97497389Y-64412111D01*
X97497386Y-64412107D01*
X97385892Y-64300613D01*
X97385888Y-64300610D01*
X97254785Y-64213009D01*
X97254772Y-64213002D01*
X97109101Y-64152664D01*
X97109089Y-64152661D01*
X96954445Y-64121900D01*
X96954442Y-64121900D01*
X96796758Y-64121900D01*
X96796755Y-64121900D01*
X96642110Y-64152661D01*
X96642098Y-64152664D01*
X96496427Y-64213002D01*
X96496414Y-64213009D01*
X96365311Y-64300610D01*
X96365307Y-64300613D01*
X96253813Y-64412107D01*
X96253810Y-64412111D01*
X96166209Y-64543214D01*
X96166202Y-64543227D01*
X96105864Y-64688898D01*
X96105861Y-64688910D01*
X96075100Y-64843553D01*
X81018500Y-64843553D01*
X81018500Y-62709953D01*
X96075100Y-62709953D01*
X96075100Y-62867646D01*
X96105861Y-63022289D01*
X96105864Y-63022301D01*
X96166202Y-63167972D01*
X96166209Y-63167985D01*
X96253810Y-63299088D01*
X96253813Y-63299092D01*
X96365307Y-63410586D01*
X96365311Y-63410589D01*
X96496414Y-63498190D01*
X96496427Y-63498197D01*
X96642098Y-63558535D01*
X96642103Y-63558537D01*
X96796753Y-63589299D01*
X96796756Y-63589300D01*
X96796758Y-63589300D01*
X96954444Y-63589300D01*
X96954445Y-63589299D01*
X97109097Y-63558537D01*
X97254779Y-63498194D01*
X97385889Y-63410589D01*
X97476925Y-63319553D01*
X105981100Y-63319553D01*
X105981100Y-63477246D01*
X106011861Y-63631889D01*
X106011864Y-63631901D01*
X106072202Y-63777572D01*
X106072209Y-63777585D01*
X106159810Y-63908688D01*
X106159813Y-63908692D01*
X106271307Y-64020186D01*
X106271311Y-64020189D01*
X106402414Y-64107790D01*
X106402427Y-64107797D01*
X106548098Y-64168135D01*
X106548103Y-64168137D01*
X106702753Y-64198899D01*
X106702756Y-64198900D01*
X106702758Y-64198900D01*
X106860444Y-64198900D01*
X106860445Y-64198899D01*
X107015097Y-64168137D01*
X107160779Y-64107794D01*
X107291889Y-64020189D01*
X107403389Y-63908689D01*
X107490994Y-63777579D01*
X107551337Y-63631897D01*
X107582100Y-63477242D01*
X107582100Y-63319558D01*
X107582100Y-63319555D01*
X107582099Y-63319553D01*
X107551950Y-63167985D01*
X107551337Y-63164903D01*
X107492270Y-63022301D01*
X107490997Y-63019227D01*
X107490990Y-63019214D01*
X107403389Y-62888111D01*
X107403386Y-62888107D01*
X107291892Y-62776613D01*
X107291888Y-62776610D01*
X107160785Y-62689009D01*
X107160772Y-62689002D01*
X107015101Y-62628664D01*
X107015089Y-62628661D01*
X106860445Y-62597900D01*
X106860442Y-62597900D01*
X106702758Y-62597900D01*
X106702755Y-62597900D01*
X106548110Y-62628661D01*
X106548098Y-62628664D01*
X106402427Y-62689002D01*
X106402414Y-62689009D01*
X106271311Y-62776610D01*
X106271307Y-62776613D01*
X106159813Y-62888107D01*
X106159810Y-62888111D01*
X106072209Y-63019214D01*
X106072202Y-63019227D01*
X106011864Y-63164898D01*
X106011861Y-63164910D01*
X105981100Y-63319553D01*
X97476925Y-63319553D01*
X97497389Y-63299089D01*
X97513226Y-63275387D01*
X97533815Y-63244575D01*
X97584990Y-63167985D01*
X97584990Y-63167984D01*
X97584994Y-63167979D01*
X97645337Y-63022297D01*
X97676100Y-62867642D01*
X97676100Y-62709958D01*
X97676100Y-62709955D01*
X97676099Y-62709953D01*
X97671932Y-62689002D01*
X97645337Y-62555303D01*
X97604530Y-62456785D01*
X97584997Y-62409627D01*
X97584990Y-62409614D01*
X97497389Y-62278511D01*
X97497386Y-62278507D01*
X97385892Y-62167013D01*
X97385888Y-62167010D01*
X97279267Y-62095768D01*
X97254784Y-62079409D01*
X97254772Y-62079402D01*
X97109101Y-62019064D01*
X97109089Y-62019061D01*
X97006995Y-61998753D01*
X109130700Y-61998753D01*
X109130700Y-62156446D01*
X109161461Y-62311089D01*
X109161464Y-62311101D01*
X109221802Y-62456772D01*
X109221809Y-62456785D01*
X109309410Y-62587888D01*
X109309413Y-62587892D01*
X109420907Y-62699386D01*
X109420911Y-62699389D01*
X109552014Y-62786990D01*
X109552027Y-62786997D01*
X109697698Y-62847335D01*
X109697703Y-62847337D01*
X109799803Y-62867646D01*
X109852353Y-62878099D01*
X109852356Y-62878100D01*
X109852358Y-62878100D01*
X110010044Y-62878100D01*
X110010045Y-62878099D01*
X110164697Y-62847337D01*
X110310379Y-62786994D01*
X110441489Y-62699389D01*
X110552989Y-62587889D01*
X110640594Y-62456779D01*
X110700937Y-62311097D01*
X110731700Y-62156442D01*
X110731700Y-61998758D01*
X110731700Y-61998755D01*
X110731699Y-61998753D01*
X110706387Y-61871501D01*
X110700937Y-61844103D01*
X110655711Y-61734917D01*
X110640597Y-61698427D01*
X110640590Y-61698414D01*
X110568096Y-61589920D01*
X120626699Y-61589920D01*
X120655540Y-61734907D01*
X120655543Y-61734917D01*
X120712112Y-61871488D01*
X120712119Y-61871501D01*
X120794248Y-61994415D01*
X120794251Y-61994419D01*
X120898780Y-62098948D01*
X120898784Y-62098951D01*
X121021698Y-62181080D01*
X121021711Y-62181087D01*
X121158282Y-62237656D01*
X121158287Y-62237658D01*
X121158291Y-62237658D01*
X121158292Y-62237659D01*
X121303279Y-62266500D01*
X121303282Y-62266500D01*
X121451120Y-62266500D01*
X121548662Y-62247096D01*
X121596113Y-62237658D01*
X121732695Y-62181084D01*
X121808311Y-62130559D01*
X121874986Y-62109682D01*
X121942366Y-62128166D01*
X121946048Y-62130531D01*
X122021705Y-62181084D01*
X122021707Y-62181085D01*
X122021711Y-62181087D01*
X122158282Y-62237656D01*
X122158287Y-62237658D01*
X122158291Y-62237658D01*
X122158292Y-62237659D01*
X122303279Y-62266500D01*
X122303282Y-62266500D01*
X122451120Y-62266500D01*
X122548662Y-62247096D01*
X122596113Y-62237658D01*
X122732695Y-62181084D01*
X122808311Y-62130559D01*
X122874986Y-62109682D01*
X122942366Y-62128166D01*
X122946048Y-62130531D01*
X123021705Y-62181084D01*
X123021707Y-62181085D01*
X123021711Y-62181087D01*
X123158282Y-62237656D01*
X123158287Y-62237658D01*
X123158291Y-62237658D01*
X123158292Y-62237659D01*
X123303279Y-62266500D01*
X123303282Y-62266500D01*
X123451120Y-62266500D01*
X123548662Y-62247096D01*
X123596113Y-62237658D01*
X123732695Y-62181084D01*
X123855616Y-62098951D01*
X123960151Y-61994416D01*
X124042284Y-61871495D01*
X124098858Y-61734913D01*
X124127700Y-61589918D01*
X124127700Y-61442082D01*
X124127700Y-61442079D01*
X124098859Y-61297092D01*
X124098858Y-61297091D01*
X124098858Y-61297087D01*
X124090579Y-61277100D01*
X124042287Y-61160511D01*
X124042280Y-61160498D01*
X123960151Y-61037584D01*
X123960148Y-61037580D01*
X123855619Y-60933051D01*
X123855615Y-60933048D01*
X123732701Y-60850919D01*
X123732688Y-60850912D01*
X123596117Y-60794343D01*
X123596107Y-60794340D01*
X123451120Y-60765500D01*
X123451118Y-60765500D01*
X123303282Y-60765500D01*
X123303280Y-60765500D01*
X123158292Y-60794340D01*
X123158282Y-60794343D01*
X123021711Y-60850912D01*
X123021698Y-60850919D01*
X122946091Y-60901439D01*
X122879413Y-60922317D01*
X122812033Y-60903832D01*
X122808309Y-60901439D01*
X122732701Y-60850919D01*
X122732688Y-60850912D01*
X122596117Y-60794343D01*
X122596107Y-60794340D01*
X122451120Y-60765500D01*
X122451118Y-60765500D01*
X122303282Y-60765500D01*
X122303280Y-60765500D01*
X122158292Y-60794340D01*
X122158282Y-60794343D01*
X122021711Y-60850912D01*
X122021698Y-60850919D01*
X121946091Y-60901439D01*
X121879413Y-60922317D01*
X121812033Y-60903832D01*
X121808309Y-60901439D01*
X121732701Y-60850919D01*
X121732688Y-60850912D01*
X121596117Y-60794343D01*
X121596107Y-60794340D01*
X121451120Y-60765500D01*
X121451118Y-60765500D01*
X121303282Y-60765500D01*
X121303280Y-60765500D01*
X121158292Y-60794340D01*
X121158282Y-60794343D01*
X121021711Y-60850912D01*
X121021698Y-60850919D01*
X120898784Y-60933048D01*
X120898780Y-60933051D01*
X120794251Y-61037580D01*
X120794248Y-61037584D01*
X120712119Y-61160498D01*
X120712112Y-61160511D01*
X120655543Y-61297082D01*
X120655540Y-61297092D01*
X120626700Y-61442079D01*
X120626700Y-61442082D01*
X120626700Y-61589918D01*
X120626700Y-61589920D01*
X120626699Y-61589920D01*
X110568096Y-61589920D01*
X110552989Y-61567311D01*
X110552986Y-61567307D01*
X110441492Y-61455813D01*
X110441488Y-61455810D01*
X110310385Y-61368209D01*
X110310372Y-61368202D01*
X110164701Y-61307864D01*
X110164689Y-61307861D01*
X110010045Y-61277100D01*
X110010042Y-61277100D01*
X109852358Y-61277100D01*
X109852355Y-61277100D01*
X109697710Y-61307861D01*
X109697698Y-61307864D01*
X109552027Y-61368202D01*
X109552014Y-61368209D01*
X109420911Y-61455810D01*
X109420907Y-61455813D01*
X109309413Y-61567307D01*
X109309410Y-61567311D01*
X109221809Y-61698414D01*
X109221802Y-61698427D01*
X109161464Y-61844098D01*
X109161461Y-61844110D01*
X109130700Y-61998753D01*
X97006995Y-61998753D01*
X96954445Y-61988300D01*
X96954442Y-61988300D01*
X96796758Y-61988300D01*
X96796755Y-61988300D01*
X96642110Y-62019061D01*
X96642098Y-62019064D01*
X96496427Y-62079402D01*
X96496414Y-62079409D01*
X96365311Y-62167010D01*
X96365307Y-62167013D01*
X96253813Y-62278507D01*
X96253810Y-62278511D01*
X96166209Y-62409614D01*
X96166202Y-62409627D01*
X96105864Y-62555298D01*
X96105861Y-62555310D01*
X96075100Y-62709953D01*
X81018500Y-62709953D01*
X81018500Y-60220753D01*
X83425900Y-60220753D01*
X83425900Y-60378446D01*
X83456661Y-60533089D01*
X83456664Y-60533101D01*
X83517002Y-60678772D01*
X83517009Y-60678785D01*
X83604610Y-60809888D01*
X83604613Y-60809892D01*
X83716107Y-60921386D01*
X83716111Y-60921389D01*
X83847214Y-61008990D01*
X83847227Y-61008997D01*
X83992898Y-61069335D01*
X83992903Y-61069337D01*
X84147553Y-61100099D01*
X84147556Y-61100100D01*
X84147558Y-61100100D01*
X84305244Y-61100100D01*
X84305245Y-61100099D01*
X84459897Y-61069337D01*
X84605579Y-61008994D01*
X84736689Y-60921389D01*
X84848189Y-60809889D01*
X84935794Y-60678779D01*
X84996137Y-60533097D01*
X85026900Y-60378442D01*
X85026900Y-60220758D01*
X85026900Y-60220755D01*
X85000186Y-60086458D01*
X85000185Y-60086456D01*
X84996585Y-60068353D01*
X87489900Y-60068353D01*
X87489900Y-60226046D01*
X87520661Y-60380689D01*
X87520664Y-60380701D01*
X87581002Y-60526372D01*
X87581009Y-60526385D01*
X87668610Y-60657488D01*
X87668613Y-60657492D01*
X87780107Y-60768986D01*
X87780111Y-60768989D01*
X87911214Y-60856590D01*
X87911227Y-60856597D01*
X88008529Y-60896900D01*
X88056903Y-60916937D01*
X88211553Y-60947699D01*
X88211556Y-60947700D01*
X88211558Y-60947700D01*
X88369244Y-60947700D01*
X88369245Y-60947699D01*
X88523897Y-60916937D01*
X88669579Y-60856594D01*
X88800689Y-60768989D01*
X88912189Y-60657489D01*
X88999794Y-60526379D01*
X89060137Y-60380697D01*
X89090900Y-60226042D01*
X89090900Y-60068358D01*
X89090900Y-60068355D01*
X89090899Y-60068353D01*
X89080795Y-60017558D01*
X89060137Y-59913703D01*
X89040369Y-59865979D01*
X88999797Y-59768027D01*
X88999790Y-59768014D01*
X88912189Y-59636911D01*
X88912186Y-59636907D01*
X88800692Y-59525413D01*
X88800688Y-59525410D01*
X88669585Y-59437809D01*
X88669572Y-59437802D01*
X88523901Y-59377464D01*
X88523889Y-59377461D01*
X88369245Y-59346700D01*
X88369242Y-59346700D01*
X88211558Y-59346700D01*
X88211555Y-59346700D01*
X88056910Y-59377461D01*
X88056898Y-59377464D01*
X87911227Y-59437802D01*
X87911214Y-59437809D01*
X87780111Y-59525410D01*
X87780107Y-59525413D01*
X87668613Y-59636907D01*
X87668610Y-59636911D01*
X87581009Y-59768014D01*
X87581002Y-59768027D01*
X87520664Y-59913698D01*
X87520661Y-59913710D01*
X87489900Y-60068353D01*
X84996585Y-60068353D01*
X84996137Y-60066103D01*
X84967551Y-59997089D01*
X84935797Y-59920427D01*
X84935790Y-59920414D01*
X84848189Y-59789311D01*
X84848186Y-59789307D01*
X84736692Y-59677813D01*
X84736688Y-59677810D01*
X84605585Y-59590209D01*
X84605572Y-59590202D01*
X84459901Y-59529864D01*
X84459889Y-59529861D01*
X84305245Y-59499100D01*
X84305242Y-59499100D01*
X84147558Y-59499100D01*
X84147555Y-59499100D01*
X83992910Y-59529861D01*
X83992898Y-59529864D01*
X83847227Y-59590202D01*
X83847214Y-59590209D01*
X83716111Y-59677810D01*
X83716107Y-59677813D01*
X83604613Y-59789307D01*
X83604610Y-59789311D01*
X83517009Y-59920414D01*
X83517002Y-59920427D01*
X83456664Y-60066098D01*
X83456661Y-60066110D01*
X83425900Y-60220753D01*
X81018500Y-60220753D01*
X81018500Y-57680753D01*
X85915100Y-57680753D01*
X85915100Y-57838446D01*
X85945861Y-57993089D01*
X85945864Y-57993101D01*
X86006202Y-58138772D01*
X86006209Y-58138785D01*
X86093810Y-58269888D01*
X86093813Y-58269892D01*
X86205307Y-58381386D01*
X86205311Y-58381389D01*
X86336414Y-58468990D01*
X86336427Y-58468997D01*
X86482098Y-58529335D01*
X86482103Y-58529337D01*
X86636753Y-58560099D01*
X86636756Y-58560100D01*
X86636758Y-58560100D01*
X86794444Y-58560100D01*
X86794445Y-58560099D01*
X86949097Y-58529337D01*
X87035488Y-58493553D01*
X91299900Y-58493553D01*
X91299900Y-58651246D01*
X91330661Y-58805889D01*
X91330664Y-58805901D01*
X91391002Y-58951572D01*
X91391009Y-58951585D01*
X91478610Y-59082688D01*
X91478613Y-59082692D01*
X91590107Y-59194186D01*
X91590111Y-59194189D01*
X91721214Y-59281790D01*
X91721227Y-59281797D01*
X91830395Y-59327015D01*
X91866903Y-59342137D01*
X92017265Y-59372046D01*
X92021553Y-59372899D01*
X92021556Y-59372900D01*
X92103659Y-59372900D01*
X92170698Y-59392585D01*
X92216453Y-59445389D01*
X92226397Y-59514547D01*
X92197372Y-59578103D01*
X92191340Y-59584581D01*
X92139013Y-59636907D01*
X92139010Y-59636911D01*
X92051409Y-59768014D01*
X92051402Y-59768027D01*
X91991064Y-59913698D01*
X91991061Y-59913710D01*
X91960300Y-60068353D01*
X91960300Y-60226046D01*
X91991061Y-60380689D01*
X91991064Y-60380701D01*
X92051402Y-60526372D01*
X92051409Y-60526385D01*
X92139010Y-60657488D01*
X92139013Y-60657492D01*
X92250507Y-60768986D01*
X92250511Y-60768989D01*
X92381614Y-60856590D01*
X92381627Y-60856597D01*
X92478929Y-60896900D01*
X92527303Y-60916937D01*
X92681953Y-60947699D01*
X92681956Y-60947700D01*
X92681958Y-60947700D01*
X92839644Y-60947700D01*
X92839645Y-60947699D01*
X92994297Y-60916937D01*
X93139979Y-60856594D01*
X93271089Y-60768989D01*
X93382589Y-60657489D01*
X93470194Y-60526379D01*
X93530537Y-60380697D01*
X93561300Y-60226042D01*
X93561300Y-60068358D01*
X93561300Y-60068355D01*
X93561299Y-60068353D01*
X93551195Y-60017558D01*
X93530537Y-59913703D01*
X93510769Y-59865979D01*
X93470197Y-59768027D01*
X93470190Y-59768014D01*
X93382589Y-59636911D01*
X93382586Y-59636907D01*
X93271092Y-59525413D01*
X93271088Y-59525410D01*
X93139985Y-59437809D01*
X93139972Y-59437802D01*
X92994301Y-59377464D01*
X92994289Y-59377461D01*
X92839645Y-59346700D01*
X92839642Y-59346700D01*
X92757541Y-59346700D01*
X92690502Y-59327015D01*
X92644747Y-59274211D01*
X92634803Y-59205053D01*
X92663828Y-59141497D01*
X92669860Y-59135019D01*
X92722186Y-59082692D01*
X92722189Y-59082689D01*
X92809794Y-58951579D01*
X92870137Y-58805897D01*
X92900900Y-58651242D01*
X92900900Y-58493558D01*
X92900900Y-58493555D01*
X92900899Y-58493553D01*
X96278300Y-58493553D01*
X96278300Y-58651246D01*
X96309061Y-58805889D01*
X96309064Y-58805901D01*
X96369402Y-58951572D01*
X96369409Y-58951585D01*
X96457010Y-59082688D01*
X96457013Y-59082692D01*
X96568508Y-59194187D01*
X96568511Y-59194189D01*
X96680392Y-59268945D01*
X96725195Y-59322555D01*
X96735500Y-59372046D01*
X96735500Y-59413246D01*
X96766261Y-59567889D01*
X96766263Y-59567897D01*
X96807705Y-59667947D01*
X96815174Y-59737417D01*
X96807705Y-59762853D01*
X96766263Y-59862902D01*
X96766261Y-59862910D01*
X96735500Y-60017553D01*
X96735500Y-60175246D01*
X96766261Y-60329889D01*
X96766264Y-60329901D01*
X96826602Y-60475572D01*
X96826609Y-60475585D01*
X96914210Y-60606688D01*
X96914213Y-60606692D01*
X97025707Y-60718186D01*
X97025711Y-60718189D01*
X97156814Y-60805790D01*
X97156827Y-60805797D01*
X97265746Y-60850912D01*
X97302503Y-60866137D01*
X97457153Y-60896899D01*
X97457156Y-60896900D01*
X97457158Y-60896900D01*
X97614844Y-60896900D01*
X97614845Y-60896899D01*
X97769497Y-60866137D01*
X97882166Y-60819467D01*
X97915172Y-60805797D01*
X97915172Y-60805796D01*
X97915179Y-60805794D01*
X98046289Y-60718189D01*
X98157789Y-60606689D01*
X98245394Y-60475579D01*
X98305737Y-60329897D01*
X98336500Y-60175242D01*
X98336500Y-60017558D01*
X98336500Y-60017555D01*
X98336499Y-60017553D01*
X98317178Y-59920421D01*
X98305737Y-59862903D01*
X98264294Y-59762852D01*
X98256826Y-59693383D01*
X98264295Y-59667947D01*
X98305737Y-59567897D01*
X98336500Y-59413242D01*
X98336500Y-59255558D01*
X98336500Y-59255555D01*
X98336499Y-59255551D01*
X98305738Y-59100908D01*
X98305737Y-59100907D01*
X98305737Y-59100903D01*
X98282910Y-59045793D01*
X98245397Y-58955227D01*
X98245390Y-58955214D01*
X98157789Y-58824111D01*
X98157786Y-58824107D01*
X98046289Y-58712610D01*
X97934409Y-58637855D01*
X97889604Y-58584243D01*
X97879300Y-58534753D01*
X97879300Y-58493555D01*
X97879299Y-58493553D01*
X97857580Y-58384364D01*
X97848537Y-58338903D01*
X97819951Y-58269889D01*
X97788197Y-58193227D01*
X97788190Y-58193214D01*
X97741790Y-58123772D01*
X97700589Y-58062111D01*
X97700586Y-58062107D01*
X97589092Y-57950613D01*
X97589088Y-57950610D01*
X97457985Y-57863009D01*
X97457972Y-57863002D01*
X97312301Y-57802664D01*
X97312289Y-57802661D01*
X97157645Y-57771900D01*
X97157642Y-57771900D01*
X96999958Y-57771900D01*
X96999955Y-57771900D01*
X96845310Y-57802661D01*
X96845298Y-57802664D01*
X96699627Y-57863002D01*
X96699614Y-57863009D01*
X96568511Y-57950610D01*
X96568507Y-57950613D01*
X96457013Y-58062107D01*
X96457010Y-58062111D01*
X96369409Y-58193214D01*
X96369402Y-58193227D01*
X96309064Y-58338898D01*
X96309061Y-58338910D01*
X96278300Y-58493553D01*
X92900899Y-58493553D01*
X92879180Y-58384364D01*
X92870137Y-58338903D01*
X92841551Y-58269889D01*
X92809797Y-58193227D01*
X92809790Y-58193214D01*
X92722189Y-58062111D01*
X92722186Y-58062107D01*
X92610692Y-57950613D01*
X92610688Y-57950610D01*
X92479585Y-57863009D01*
X92479572Y-57863002D01*
X92333901Y-57802664D01*
X92333889Y-57802661D01*
X92179245Y-57771900D01*
X92179242Y-57771900D01*
X92021558Y-57771900D01*
X92021555Y-57771900D01*
X91866910Y-57802661D01*
X91866898Y-57802664D01*
X91721227Y-57863002D01*
X91721214Y-57863009D01*
X91590111Y-57950610D01*
X91590107Y-57950613D01*
X91478613Y-58062107D01*
X91478610Y-58062111D01*
X91391009Y-58193214D01*
X91391002Y-58193227D01*
X91330664Y-58338898D01*
X91330661Y-58338910D01*
X91299900Y-58493553D01*
X87035488Y-58493553D01*
X87062793Y-58482243D01*
X87094772Y-58468997D01*
X87094772Y-58468996D01*
X87094779Y-58468994D01*
X87225889Y-58381389D01*
X87337389Y-58269889D01*
X87424994Y-58138779D01*
X87485337Y-57993097D01*
X87516100Y-57838442D01*
X87516100Y-57680758D01*
X87516100Y-57680755D01*
X87516099Y-57680753D01*
X87485338Y-57526110D01*
X87485337Y-57526103D01*
X87482102Y-57518293D01*
X87424997Y-57380427D01*
X87424990Y-57380414D01*
X87337389Y-57249311D01*
X87337386Y-57249307D01*
X87225892Y-57137813D01*
X87225888Y-57137810D01*
X87094785Y-57050209D01*
X87094772Y-57050202D01*
X86949101Y-56989864D01*
X86949089Y-56989861D01*
X86794445Y-56959100D01*
X86794442Y-56959100D01*
X86636758Y-56959100D01*
X86636755Y-56959100D01*
X86482110Y-56989861D01*
X86482098Y-56989864D01*
X86336427Y-57050202D01*
X86336414Y-57050209D01*
X86205311Y-57137810D01*
X86205307Y-57137813D01*
X86093813Y-57249307D01*
X86093810Y-57249311D01*
X86006209Y-57380414D01*
X86006202Y-57380427D01*
X85945864Y-57526098D01*
X85945861Y-57526110D01*
X85915100Y-57680753D01*
X81018500Y-57680753D01*
X81018500Y-54282540D01*
X90541800Y-54282540D01*
X90541800Y-54429459D01*
X90570458Y-54573534D01*
X90570461Y-54573544D01*
X90626678Y-54709266D01*
X90626683Y-54709275D01*
X90708298Y-54831419D01*
X90708301Y-54831423D01*
X90812176Y-54935298D01*
X90812180Y-54935301D01*
X90934324Y-55016916D01*
X90934330Y-55016919D01*
X90934331Y-55016920D01*
X91070058Y-55073140D01*
X91214140Y-55101799D01*
X91214144Y-55101800D01*
X91214145Y-55101800D01*
X91361056Y-55101800D01*
X91361057Y-55101799D01*
X91505142Y-55073140D01*
X91640869Y-55016920D01*
X91763020Y-54935301D01*
X91866901Y-54831420D01*
X91948520Y-54709269D01*
X92004740Y-54573542D01*
X92033400Y-54429455D01*
X92033400Y-54282545D01*
X92033399Y-54282540D01*
X92573800Y-54282540D01*
X92573800Y-54429459D01*
X92602458Y-54573534D01*
X92602461Y-54573544D01*
X92658678Y-54709266D01*
X92658683Y-54709275D01*
X92740298Y-54831419D01*
X92740301Y-54831423D01*
X92844176Y-54935298D01*
X92844180Y-54935301D01*
X92966324Y-55016916D01*
X92966330Y-55016919D01*
X92966331Y-55016920D01*
X93102058Y-55073140D01*
X93246140Y-55101799D01*
X93246144Y-55101800D01*
X93378055Y-55101800D01*
X93445094Y-55121485D01*
X93490849Y-55174289D01*
X93500793Y-55243447D01*
X93492616Y-55273253D01*
X93464263Y-55341702D01*
X93464261Y-55341710D01*
X93433500Y-55496353D01*
X93433500Y-55654046D01*
X93464261Y-55808689D01*
X93464264Y-55808701D01*
X93524602Y-55954372D01*
X93524609Y-55954385D01*
X93612210Y-56085488D01*
X93612213Y-56085492D01*
X93723707Y-56196986D01*
X93723711Y-56196989D01*
X93854814Y-56284590D01*
X93854827Y-56284597D01*
X93973654Y-56333816D01*
X94000503Y-56344937D01*
X94155153Y-56375699D01*
X94155156Y-56375700D01*
X94155158Y-56375700D01*
X94312844Y-56375700D01*
X94312845Y-56375699D01*
X94467497Y-56344937D01*
X94613179Y-56284594D01*
X94744289Y-56196989D01*
X94855789Y-56085489D01*
X94943394Y-55954379D01*
X95003737Y-55808697D01*
X95034500Y-55654042D01*
X95034500Y-55496358D01*
X95034500Y-55496355D01*
X95034499Y-55496353D01*
X95003738Y-55341710D01*
X95003737Y-55341703D01*
X94990505Y-55309757D01*
X94943397Y-55196027D01*
X94943390Y-55196014D01*
X94855789Y-55064911D01*
X94855786Y-55064907D01*
X94744292Y-54953413D01*
X94744288Y-54953410D01*
X94613185Y-54865809D01*
X94613172Y-54865802D01*
X94467501Y-54805464D01*
X94467489Y-54805461D01*
X94312845Y-54774700D01*
X94312842Y-54774700D01*
X94155158Y-54774700D01*
X94155152Y-54774700D01*
X94150711Y-54775137D01*
X94082066Y-54762112D01*
X94031360Y-54714042D01*
X94014692Y-54646190D01*
X94024007Y-54604281D01*
X94036740Y-54573542D01*
X94065400Y-54429455D01*
X94065400Y-54282545D01*
X94036740Y-54138458D01*
X93981598Y-54005334D01*
X93980521Y-54002733D01*
X93980516Y-54002724D01*
X93898901Y-53880580D01*
X93898898Y-53880576D01*
X93795023Y-53776701D01*
X93795019Y-53776698D01*
X93672875Y-53695083D01*
X93672866Y-53695078D01*
X93537144Y-53638861D01*
X93537145Y-53638861D01*
X93537142Y-53638860D01*
X93537138Y-53638859D01*
X93537134Y-53638858D01*
X93393059Y-53610200D01*
X93393055Y-53610200D01*
X93246145Y-53610200D01*
X93246140Y-53610200D01*
X93102065Y-53638858D01*
X93102055Y-53638861D01*
X92966333Y-53695078D01*
X92966324Y-53695083D01*
X92844180Y-53776698D01*
X92844176Y-53776701D01*
X92740301Y-53880576D01*
X92740298Y-53880580D01*
X92658683Y-54002724D01*
X92658678Y-54002733D01*
X92602461Y-54138455D01*
X92602458Y-54138465D01*
X92573800Y-54282540D01*
X92033399Y-54282540D01*
X92004740Y-54138458D01*
X91949598Y-54005334D01*
X91948521Y-54002733D01*
X91948516Y-54002724D01*
X91866901Y-53880580D01*
X91866898Y-53880576D01*
X91763023Y-53776701D01*
X91763019Y-53776698D01*
X91640875Y-53695083D01*
X91640866Y-53695078D01*
X91505144Y-53638861D01*
X91505145Y-53638861D01*
X91505142Y-53638860D01*
X91505138Y-53638859D01*
X91505134Y-53638858D01*
X91361059Y-53610200D01*
X91361055Y-53610200D01*
X91214145Y-53610200D01*
X91214140Y-53610200D01*
X91070065Y-53638858D01*
X91070055Y-53638861D01*
X90934333Y-53695078D01*
X90934324Y-53695083D01*
X90812180Y-53776698D01*
X90812176Y-53776701D01*
X90708301Y-53880576D01*
X90708298Y-53880580D01*
X90626683Y-54002724D01*
X90626678Y-54002733D01*
X90570461Y-54138455D01*
X90570458Y-54138465D01*
X90541800Y-54282540D01*
X81018500Y-54282540D01*
X81018500Y-52337831D01*
X88325650Y-52337831D01*
X88325650Y-52564168D01*
X88361058Y-52787722D01*
X88361058Y-52787725D01*
X88430998Y-53002978D01*
X88431000Y-53002981D01*
X88533755Y-53204650D01*
X88666793Y-53387761D01*
X88826839Y-53547807D01*
X89009950Y-53680845D01*
X89211619Y-53783600D01*
X89211621Y-53783601D01*
X89408948Y-53847716D01*
X89426879Y-53853542D01*
X89650431Y-53888950D01*
X89650432Y-53888950D01*
X89876768Y-53888950D01*
X89876769Y-53888950D01*
X90100321Y-53853542D01*
X90100324Y-53853541D01*
X90100325Y-53853541D01*
X90315578Y-53783601D01*
X90315578Y-53783600D01*
X90315581Y-53783600D01*
X90517250Y-53680845D01*
X90700361Y-53547807D01*
X90860407Y-53387761D01*
X90993445Y-53204650D01*
X91096200Y-53002981D01*
X91166142Y-52787721D01*
X91201550Y-52564169D01*
X91201550Y-52337831D01*
X93405650Y-52337831D01*
X93405650Y-52564168D01*
X93441058Y-52787722D01*
X93441058Y-52787725D01*
X93510998Y-53002978D01*
X93511000Y-53002981D01*
X93613755Y-53204650D01*
X93746793Y-53387761D01*
X93906839Y-53547807D01*
X94089950Y-53680845D01*
X94291619Y-53783600D01*
X94291621Y-53783601D01*
X94488948Y-53847716D01*
X94506879Y-53853542D01*
X94730431Y-53888950D01*
X94730432Y-53888950D01*
X94956768Y-53888950D01*
X94956769Y-53888950D01*
X95180321Y-53853542D01*
X95180324Y-53853541D01*
X95180325Y-53853541D01*
X95395578Y-53783601D01*
X95395578Y-53783600D01*
X95395581Y-53783600D01*
X95597250Y-53680845D01*
X95780361Y-53547807D01*
X95940407Y-53387761D01*
X96073445Y-53204650D01*
X96176200Y-53002981D01*
X96246142Y-52787721D01*
X96281550Y-52564169D01*
X96281550Y-52435983D01*
X100046300Y-52435983D01*
X100046300Y-53736001D01*
X100046301Y-53736018D01*
X100056800Y-53838796D01*
X100056801Y-53838799D01*
X100073420Y-53888950D01*
X100111986Y-54005334D01*
X100204088Y-54154656D01*
X100328144Y-54278712D01*
X100477466Y-54370814D01*
X100488023Y-54374312D01*
X100545468Y-54414084D01*
X100572292Y-54478600D01*
X100559977Y-54547376D01*
X100521913Y-54592330D01*
X100517019Y-54595885D01*
X100517009Y-54595894D01*
X100366690Y-54746213D01*
X100241751Y-54918179D01*
X100145244Y-55107585D01*
X100079553Y-55309760D01*
X100074495Y-55341698D01*
X100046300Y-55519713D01*
X100046300Y-55732287D01*
X100079554Y-55942243D01*
X100126097Y-56085488D01*
X100145244Y-56144414D01*
X100241751Y-56333820D01*
X100366690Y-56505786D01*
X100517013Y-56656109D01*
X100688979Y-56781048D01*
X100688981Y-56781049D01*
X100688984Y-56781051D01*
X100698293Y-56785794D01*
X100749090Y-56833766D01*
X100765887Y-56901587D01*
X100743352Y-56967722D01*
X100698305Y-57006760D01*
X100689246Y-57011376D01*
X100689240Y-57011380D01*
X100635082Y-57050727D01*
X100635082Y-57050728D01*
X101267391Y-57683037D01*
X101203807Y-57700075D01*
X101089793Y-57765901D01*
X100996701Y-57858993D01*
X100930875Y-57973007D01*
X100913837Y-58036591D01*
X100281528Y-57404282D01*
X100281527Y-57404282D01*
X100242180Y-57458439D01*
X100145704Y-57647782D01*
X100080042Y-57849869D01*
X100080042Y-57849872D01*
X100046800Y-58059753D01*
X100046800Y-58272246D01*
X100080042Y-58482127D01*
X100080042Y-58482130D01*
X100145704Y-58684217D01*
X100242175Y-58873550D01*
X100281528Y-58927716D01*
X100913837Y-58295408D01*
X100930875Y-58358993D01*
X100996701Y-58473007D01*
X101089793Y-58566099D01*
X101203807Y-58631925D01*
X101267390Y-58648962D01*
X100635082Y-59281269D01*
X100635082Y-59281270D01*
X100689249Y-59320624D01*
X100878582Y-59417095D01*
X101080670Y-59482757D01*
X101290554Y-59516000D01*
X101503046Y-59516000D01*
X101712927Y-59482757D01*
X101712930Y-59482757D01*
X101915017Y-59417095D01*
X102104354Y-59320622D01*
X102158516Y-59281270D01*
X102158517Y-59281270D01*
X101526208Y-58648962D01*
X101589793Y-58631925D01*
X101703807Y-58566099D01*
X101796899Y-58473007D01*
X101862725Y-58358993D01*
X101879762Y-58295408D01*
X102512070Y-58927717D01*
X102512070Y-58927716D01*
X102551422Y-58873555D01*
X102556032Y-58864507D01*
X102604005Y-58813709D01*
X102671825Y-58796912D01*
X102737961Y-58819447D01*
X102777004Y-58864504D01*
X102781749Y-58873817D01*
X102906690Y-59045786D01*
X103057013Y-59196109D01*
X103228979Y-59321048D01*
X103228981Y-59321049D01*
X103228984Y-59321051D01*
X103418388Y-59417557D01*
X103620557Y-59483246D01*
X103830513Y-59516500D01*
X103830514Y-59516500D01*
X104043086Y-59516500D01*
X104043087Y-59516500D01*
X104253043Y-59483246D01*
X104455212Y-59417557D01*
X104581607Y-59353155D01*
X104650274Y-59340260D01*
X104715014Y-59366536D01*
X104755272Y-59423642D01*
X104761900Y-59463641D01*
X104761900Y-59565646D01*
X104792661Y-59720289D01*
X104792664Y-59720301D01*
X104853002Y-59865972D01*
X104853009Y-59865985D01*
X104940610Y-59997088D01*
X104940613Y-59997092D01*
X105052107Y-60108586D01*
X105052111Y-60108589D01*
X105183214Y-60196190D01*
X105183227Y-60196197D01*
X105328898Y-60256535D01*
X105328903Y-60256537D01*
X105483553Y-60287299D01*
X105483556Y-60287300D01*
X105483558Y-60287300D01*
X105641244Y-60287300D01*
X105702702Y-60275074D01*
X105773675Y-60260957D01*
X105843265Y-60267184D01*
X105898443Y-60310046D01*
X105912427Y-60335122D01*
X105970602Y-60475572D01*
X105970609Y-60475585D01*
X106058210Y-60606688D01*
X106058213Y-60606692D01*
X106169707Y-60718186D01*
X106169711Y-60718189D01*
X106300814Y-60805790D01*
X106300827Y-60805797D01*
X106409746Y-60850912D01*
X106446503Y-60866137D01*
X106601153Y-60896899D01*
X106601156Y-60896900D01*
X106601158Y-60896900D01*
X106758844Y-60896900D01*
X106758845Y-60896899D01*
X106913497Y-60866137D01*
X107026166Y-60819467D01*
X107059172Y-60805797D01*
X107059172Y-60805796D01*
X107059179Y-60805794D01*
X107190289Y-60718189D01*
X107301789Y-60606689D01*
X107389394Y-60475579D01*
X107449737Y-60329897D01*
X107480500Y-60175242D01*
X107480500Y-60017558D01*
X107480500Y-60017555D01*
X107480499Y-60017553D01*
X107461178Y-59920421D01*
X107449737Y-59862903D01*
X107449735Y-59862898D01*
X107389397Y-59717227D01*
X107389390Y-59717214D01*
X107301789Y-59586111D01*
X107301786Y-59586107D01*
X107190292Y-59474613D01*
X107190288Y-59474610D01*
X107059185Y-59387009D01*
X107059172Y-59387002D01*
X106913501Y-59326664D01*
X106913489Y-59326661D01*
X106758845Y-59295900D01*
X106758842Y-59295900D01*
X106601158Y-59295900D01*
X106601153Y-59295900D01*
X106468724Y-59322242D01*
X106399133Y-59316015D01*
X106343955Y-59273152D01*
X106329972Y-59248077D01*
X106324413Y-59234657D01*
X106308445Y-59196104D01*
X106271797Y-59107626D01*
X106271790Y-59107614D01*
X106184189Y-58976511D01*
X106184186Y-58976507D01*
X106072692Y-58865013D01*
X106072688Y-58865010D01*
X105941585Y-58777409D01*
X105941572Y-58777402D01*
X105795901Y-58717064D01*
X105795889Y-58717061D01*
X105641245Y-58686300D01*
X105641242Y-58686300D01*
X105483558Y-58686300D01*
X105483553Y-58686300D01*
X105374802Y-58707932D01*
X105305210Y-58701705D01*
X105250033Y-58658842D01*
X105226789Y-58592952D01*
X105232679Y-58548003D01*
X105254046Y-58482243D01*
X105287300Y-58272287D01*
X105287300Y-58059713D01*
X105254046Y-57849757D01*
X105188357Y-57647588D01*
X105091851Y-57458184D01*
X105091849Y-57458181D01*
X105091848Y-57458179D01*
X104966909Y-57286213D01*
X104816586Y-57135890D01*
X104644620Y-57010951D01*
X104636400Y-57006763D01*
X104635854Y-57006485D01*
X104585059Y-56958512D01*
X104568263Y-56890692D01*
X104590799Y-56824556D01*
X104635854Y-56785515D01*
X104644616Y-56781051D01*
X104666589Y-56765086D01*
X104816586Y-56656109D01*
X104816588Y-56656106D01*
X104816592Y-56656104D01*
X104966904Y-56505792D01*
X104966906Y-56505788D01*
X104966909Y-56505786D01*
X105091848Y-56333820D01*
X105091847Y-56333820D01*
X105091851Y-56333816D01*
X105188357Y-56144412D01*
X105254046Y-55942243D01*
X105287300Y-55732287D01*
X105287300Y-55519713D01*
X110053900Y-55519713D01*
X110053900Y-55732287D01*
X110087154Y-55942243D01*
X110133697Y-56085488D01*
X110152844Y-56144414D01*
X110249351Y-56333820D01*
X110374290Y-56505786D01*
X110524613Y-56656109D01*
X110696582Y-56781050D01*
X110705346Y-56785516D01*
X110756142Y-56833491D01*
X110772936Y-56901312D01*
X110750398Y-56967447D01*
X110705346Y-57006484D01*
X110696582Y-57010949D01*
X110524613Y-57135890D01*
X110374290Y-57286213D01*
X110249351Y-57458179D01*
X110152844Y-57647585D01*
X110087153Y-57849760D01*
X110053900Y-58059713D01*
X110053900Y-58272286D01*
X110087135Y-58482127D01*
X110087154Y-58482243D01*
X110142065Y-58651242D01*
X110152844Y-58684414D01*
X110249351Y-58873820D01*
X110374290Y-59045786D01*
X110524613Y-59196109D01*
X110696579Y-59321048D01*
X110696581Y-59321049D01*
X110696584Y-59321051D01*
X110885988Y-59417557D01*
X111088157Y-59483246D01*
X111298113Y-59516500D01*
X111298114Y-59516500D01*
X111510686Y-59516500D01*
X111510687Y-59516500D01*
X111720643Y-59483246D01*
X111922812Y-59417557D01*
X112112216Y-59321051D01*
X112134189Y-59305086D01*
X112284186Y-59196109D01*
X112284188Y-59196106D01*
X112284192Y-59196104D01*
X112434504Y-59045792D01*
X112438060Y-59040896D01*
X112493387Y-58998230D01*
X112563000Y-58992248D01*
X112624797Y-59024851D01*
X112656086Y-59074772D01*
X112658710Y-59082692D01*
X112659586Y-59085334D01*
X112751688Y-59234656D01*
X112875744Y-59358712D01*
X113025066Y-59450814D01*
X113191603Y-59505999D01*
X113294391Y-59516500D01*
X114594408Y-59516499D01*
X114697197Y-59505999D01*
X114863734Y-59450814D01*
X115013056Y-59358712D01*
X115137112Y-59234656D01*
X115229214Y-59085334D01*
X115284399Y-58918797D01*
X115294900Y-58816009D01*
X115294899Y-57515992D01*
X115284399Y-57413203D01*
X115229214Y-57246666D01*
X115137112Y-57097344D01*
X115013056Y-56973288D01*
X114917653Y-56914443D01*
X114863736Y-56881187D01*
X114863725Y-56881182D01*
X114853173Y-56877686D01*
X114795728Y-56837913D01*
X114768906Y-56773397D01*
X114781222Y-56704621D01*
X114819303Y-56659656D01*
X114824188Y-56656107D01*
X114824188Y-56656106D01*
X114824192Y-56656104D01*
X114974504Y-56505792D01*
X114974506Y-56505788D01*
X114974509Y-56505786D01*
X115099448Y-56333820D01*
X115099447Y-56333820D01*
X115099451Y-56333816D01*
X115195957Y-56144412D01*
X115261646Y-55942243D01*
X115294900Y-55732287D01*
X115294900Y-55519713D01*
X115261646Y-55309757D01*
X115195957Y-55107588D01*
X115099451Y-54918184D01*
X115099449Y-54918181D01*
X115099448Y-54918179D01*
X114974509Y-54746213D01*
X114824186Y-54595890D01*
X114652217Y-54470949D01*
X114642904Y-54466204D01*
X114592107Y-54418230D01*
X114575312Y-54350409D01*
X114597849Y-54284274D01*
X114642907Y-54245232D01*
X114651955Y-54240622D01*
X114706116Y-54201270D01*
X114706117Y-54201270D01*
X114073808Y-53568962D01*
X114137393Y-53551925D01*
X114251407Y-53486099D01*
X114344499Y-53393007D01*
X114410325Y-53278993D01*
X114427362Y-53215409D01*
X115059670Y-53847717D01*
X115059670Y-53847716D01*
X115099022Y-53793554D01*
X115195495Y-53604217D01*
X115261157Y-53402130D01*
X115261157Y-53402127D01*
X115294400Y-53192246D01*
X115294400Y-52979753D01*
X115261157Y-52769872D01*
X115261157Y-52769869D01*
X115195495Y-52567782D01*
X115099024Y-52378449D01*
X115059670Y-52324282D01*
X115059669Y-52324282D01*
X114427362Y-52956590D01*
X114410325Y-52893007D01*
X114344499Y-52778993D01*
X114251407Y-52685901D01*
X114137393Y-52620075D01*
X114073809Y-52603037D01*
X114706116Y-51970728D01*
X114651950Y-51931375D01*
X114462617Y-51834904D01*
X114260529Y-51769242D01*
X114050646Y-51736000D01*
X113838154Y-51736000D01*
X113628272Y-51769242D01*
X113628269Y-51769242D01*
X113426182Y-51834904D01*
X113236839Y-51931380D01*
X113182682Y-51970727D01*
X113182682Y-51970728D01*
X113814991Y-52603037D01*
X113751407Y-52620075D01*
X113637393Y-52685901D01*
X113544301Y-52778993D01*
X113478475Y-52893007D01*
X113461437Y-52956591D01*
X112829128Y-52324282D01*
X112829127Y-52324282D01*
X112789780Y-52378440D01*
X112784883Y-52388051D01*
X112736906Y-52438845D01*
X112669084Y-52455638D01*
X112602950Y-52433098D01*
X112563916Y-52388048D01*
X112559026Y-52378452D01*
X112519670Y-52324282D01*
X112519669Y-52324282D01*
X111887362Y-52956590D01*
X111870325Y-52893007D01*
X111804499Y-52778993D01*
X111711407Y-52685901D01*
X111597393Y-52620075D01*
X111533809Y-52603037D01*
X112166116Y-51970728D01*
X112111950Y-51931375D01*
X111922617Y-51834904D01*
X111720529Y-51769242D01*
X111510646Y-51736000D01*
X111298154Y-51736000D01*
X111088272Y-51769242D01*
X111088269Y-51769242D01*
X110886182Y-51834904D01*
X110696839Y-51931380D01*
X110642682Y-51970727D01*
X110642682Y-51970728D01*
X111274991Y-52603037D01*
X111211407Y-52620075D01*
X111097393Y-52685901D01*
X111004301Y-52778993D01*
X110938475Y-52893007D01*
X110921437Y-52956591D01*
X110289128Y-52324282D01*
X110289127Y-52324282D01*
X110249780Y-52378439D01*
X110153304Y-52567782D01*
X110087642Y-52769869D01*
X110087642Y-52769872D01*
X110054400Y-52979753D01*
X110054400Y-53192246D01*
X110087642Y-53402127D01*
X110087642Y-53402130D01*
X110153304Y-53604217D01*
X110249775Y-53793550D01*
X110289128Y-53847716D01*
X110921437Y-53215408D01*
X110938475Y-53278993D01*
X111004301Y-53393007D01*
X111097393Y-53486099D01*
X111211407Y-53551925D01*
X111274990Y-53568962D01*
X110642682Y-54201269D01*
X110642682Y-54201270D01*
X110696852Y-54240626D01*
X110696851Y-54240626D01*
X110705895Y-54245234D01*
X110756692Y-54293208D01*
X110773487Y-54361029D01*
X110750950Y-54427164D01*
X110705899Y-54466202D01*
X110696582Y-54470949D01*
X110524613Y-54595890D01*
X110374290Y-54746213D01*
X110249351Y-54918179D01*
X110152844Y-55107585D01*
X110087153Y-55309760D01*
X110082095Y-55341698D01*
X110053900Y-55519713D01*
X105287300Y-55519713D01*
X105254046Y-55309757D01*
X105188357Y-55107588D01*
X105091851Y-54918184D01*
X105091849Y-54918181D01*
X105091848Y-54918179D01*
X104966909Y-54746213D01*
X104816586Y-54595890D01*
X104644620Y-54470951D01*
X104643915Y-54470591D01*
X104635854Y-54466485D01*
X104585059Y-54418512D01*
X104568263Y-54350692D01*
X104590799Y-54284556D01*
X104635854Y-54245515D01*
X104644616Y-54241051D01*
X104699372Y-54201269D01*
X104816586Y-54116109D01*
X104816588Y-54116106D01*
X104816592Y-54116104D01*
X104966904Y-53965792D01*
X104966906Y-53965788D01*
X104966909Y-53965786D01*
X105091848Y-53793820D01*
X105091847Y-53793820D01*
X105091851Y-53793816D01*
X105188357Y-53604412D01*
X105254046Y-53402243D01*
X105287300Y-53192287D01*
X105287300Y-52979713D01*
X105254046Y-52769757D01*
X105188357Y-52567588D01*
X105091851Y-52378184D01*
X105091849Y-52378181D01*
X105091848Y-52378179D01*
X104966909Y-52206213D01*
X104816586Y-52055890D01*
X104644620Y-51930951D01*
X104455214Y-51834444D01*
X104455213Y-51834443D01*
X104455212Y-51834443D01*
X104253043Y-51768754D01*
X104253041Y-51768753D01*
X104253040Y-51768753D01*
X104091757Y-51743208D01*
X104043087Y-51735500D01*
X103830513Y-51735500D01*
X103781842Y-51743208D01*
X103620560Y-51768753D01*
X103418385Y-51834444D01*
X103228979Y-51930951D01*
X103057013Y-52055890D01*
X102906694Y-52206209D01*
X102906685Y-52206219D01*
X102903130Y-52211113D01*
X102847797Y-52253775D01*
X102778183Y-52259748D01*
X102716391Y-52227137D01*
X102685112Y-52177223D01*
X102681615Y-52166670D01*
X102681614Y-52166666D01*
X102589512Y-52017344D01*
X102465456Y-51893288D01*
X102316134Y-51801186D01*
X102149597Y-51746001D01*
X102149595Y-51746000D01*
X102046810Y-51735500D01*
X100746798Y-51735500D01*
X100746781Y-51735501D01*
X100644003Y-51746000D01*
X100644000Y-51746001D01*
X100477468Y-51801185D01*
X100477463Y-51801187D01*
X100328142Y-51893289D01*
X100204089Y-52017342D01*
X100111987Y-52166663D01*
X100111985Y-52166668D01*
X100098883Y-52206208D01*
X100056801Y-52333203D01*
X100056801Y-52333204D01*
X100056800Y-52333204D01*
X100046300Y-52435983D01*
X96281550Y-52435983D01*
X96281550Y-52337831D01*
X96246142Y-52114279D01*
X96246141Y-52114275D01*
X96246141Y-52114274D01*
X96176201Y-51899021D01*
X96176199Y-51899018D01*
X96173280Y-51893288D01*
X96073445Y-51697350D01*
X95940407Y-51514239D01*
X95780361Y-51354193D01*
X95597250Y-51221155D01*
X95395581Y-51118400D01*
X95395578Y-51118398D01*
X95180323Y-51048458D01*
X95031286Y-51024852D01*
X94956769Y-51013050D01*
X94730431Y-51013050D01*
X94655913Y-51024852D01*
X94506877Y-51048458D01*
X94506874Y-51048458D01*
X94291621Y-51118398D01*
X94291618Y-51118400D01*
X94089949Y-51221155D01*
X93985478Y-51297058D01*
X93906839Y-51354193D01*
X93906837Y-51354195D01*
X93906836Y-51354195D01*
X93746795Y-51514236D01*
X93746795Y-51514237D01*
X93746793Y-51514239D01*
X93689658Y-51592878D01*
X93613755Y-51697349D01*
X93511000Y-51899018D01*
X93510998Y-51899021D01*
X93441058Y-52114274D01*
X93441058Y-52114277D01*
X93405650Y-52337831D01*
X91201550Y-52337831D01*
X91166142Y-52114279D01*
X91166141Y-52114275D01*
X91166141Y-52114274D01*
X91096201Y-51899021D01*
X91096199Y-51899018D01*
X91093280Y-51893288D01*
X90993445Y-51697350D01*
X90860407Y-51514239D01*
X90700361Y-51354193D01*
X90517250Y-51221155D01*
X90315581Y-51118400D01*
X90315578Y-51118398D01*
X90100323Y-51048458D01*
X89951286Y-51024852D01*
X89876769Y-51013050D01*
X89650431Y-51013050D01*
X89575913Y-51024852D01*
X89426877Y-51048458D01*
X89426874Y-51048458D01*
X89211621Y-51118398D01*
X89211618Y-51118400D01*
X89009949Y-51221155D01*
X88905478Y-51297058D01*
X88826839Y-51354193D01*
X88826837Y-51354195D01*
X88826836Y-51354195D01*
X88666795Y-51514236D01*
X88666795Y-51514237D01*
X88666793Y-51514239D01*
X88609658Y-51592878D01*
X88533755Y-51697349D01*
X88431000Y-51899018D01*
X88430998Y-51899021D01*
X88361058Y-52114274D01*
X88361058Y-52114277D01*
X88325650Y-52337831D01*
X81018500Y-52337831D01*
X81018500Y-48560113D01*
X82266300Y-48560113D01*
X82266300Y-48772686D01*
X82291344Y-48930812D01*
X82299554Y-48982643D01*
X82344254Y-49120216D01*
X82365244Y-49184814D01*
X82461751Y-49374220D01*
X82586690Y-49546186D01*
X82737013Y-49696509D01*
X82908979Y-49821448D01*
X82908981Y-49821449D01*
X82908984Y-49821451D01*
X83098388Y-49917957D01*
X83300557Y-49983646D01*
X83510513Y-50016900D01*
X83510514Y-50016900D01*
X83723086Y-50016900D01*
X83723087Y-50016900D01*
X83933043Y-49983646D01*
X84135212Y-49917957D01*
X84324616Y-49821451D01*
X84421002Y-49751423D01*
X84496586Y-49696509D01*
X84496588Y-49696506D01*
X84496592Y-49696504D01*
X84646904Y-49546192D01*
X84646906Y-49546188D01*
X84646909Y-49546186D01*
X84771848Y-49374220D01*
X84771847Y-49374220D01*
X84771851Y-49374216D01*
X84868357Y-49184812D01*
X84934046Y-48982643D01*
X84967300Y-48772687D01*
X84967300Y-48560113D01*
X84934046Y-48350157D01*
X84868357Y-48147988D01*
X84771851Y-47958584D01*
X84771849Y-47958581D01*
X84771848Y-47958579D01*
X84646909Y-47786613D01*
X84496586Y-47636290D01*
X84324620Y-47511351D01*
X84135214Y-47414844D01*
X84135213Y-47414843D01*
X84135212Y-47414843D01*
X83933043Y-47349154D01*
X83933041Y-47349153D01*
X83933040Y-47349153D01*
X83771757Y-47323608D01*
X83723087Y-47315900D01*
X83510513Y-47315900D01*
X83461842Y-47323608D01*
X83300560Y-47349153D01*
X83098385Y-47414844D01*
X82908979Y-47511351D01*
X82737013Y-47636290D01*
X82586690Y-47786613D01*
X82461751Y-47958579D01*
X82365244Y-48147985D01*
X82299553Y-48350160D01*
X82266300Y-48560113D01*
X81018500Y-48560113D01*
X81018500Y-47266753D01*
X88302700Y-47266753D01*
X88302700Y-47424446D01*
X88333461Y-47579089D01*
X88333464Y-47579101D01*
X88393802Y-47724772D01*
X88393809Y-47724785D01*
X88481410Y-47855888D01*
X88481413Y-47855892D01*
X88592907Y-47967386D01*
X88592911Y-47967389D01*
X88724016Y-48054991D01*
X88724018Y-48054992D01*
X88724021Y-48054994D01*
X88724023Y-48054995D01*
X88724498Y-48055249D01*
X88724703Y-48055450D01*
X88729086Y-48058379D01*
X88728530Y-48059209D01*
X88774347Y-48104206D01*
X88789815Y-48172342D01*
X88765990Y-48238024D01*
X88753738Y-48252294D01*
X88666792Y-48339240D01*
X88533755Y-48522349D01*
X88431004Y-48724010D01*
X88430998Y-48724021D01*
X88361058Y-48939274D01*
X88361058Y-48939277D01*
X88342182Y-49058455D01*
X88325650Y-49162831D01*
X88325650Y-49389169D01*
X88342180Y-49493534D01*
X88361058Y-49612722D01*
X88361058Y-49612725D01*
X88430998Y-49827978D01*
X88431000Y-49827981D01*
X88533755Y-50029650D01*
X88666793Y-50212761D01*
X88826839Y-50372807D01*
X89009950Y-50505845D01*
X89211619Y-50608600D01*
X89211621Y-50608601D01*
X89412401Y-50673837D01*
X89426879Y-50678542D01*
X89650431Y-50713950D01*
X89650432Y-50713950D01*
X89876768Y-50713950D01*
X89876769Y-50713950D01*
X90100321Y-50678542D01*
X90100324Y-50678541D01*
X90100325Y-50678541D01*
X90315578Y-50608601D01*
X90315578Y-50608600D01*
X90315581Y-50608600D01*
X90517250Y-50505845D01*
X90700361Y-50372807D01*
X90860407Y-50212761D01*
X90993445Y-50029650D01*
X91096200Y-49827981D01*
X91121076Y-49751420D01*
X91166141Y-49612725D01*
X91166141Y-49612724D01*
X91166142Y-49612721D01*
X91201550Y-49389169D01*
X91201550Y-49202540D01*
X91557800Y-49202540D01*
X91557800Y-49349459D01*
X91586458Y-49493534D01*
X91586461Y-49493544D01*
X91642678Y-49629266D01*
X91642683Y-49629275D01*
X91724298Y-49751419D01*
X91724301Y-49751423D01*
X91828176Y-49855298D01*
X91828180Y-49855301D01*
X91950324Y-49936916D01*
X91950330Y-49936919D01*
X91950331Y-49936920D01*
X92086058Y-49993140D01*
X92230140Y-50021799D01*
X92230144Y-50021800D01*
X92230145Y-50021800D01*
X92377056Y-50021800D01*
X92377057Y-50021799D01*
X92521142Y-49993140D01*
X92656869Y-49936920D01*
X92779020Y-49855301D01*
X92882901Y-49751420D01*
X92964520Y-49629269D01*
X93020740Y-49493542D01*
X93049400Y-49349455D01*
X93049400Y-49202545D01*
X93045343Y-49182148D01*
X93045343Y-49182146D01*
X93041501Y-49162831D01*
X93405650Y-49162831D01*
X93405650Y-49389169D01*
X93422180Y-49493534D01*
X93441058Y-49612722D01*
X93441058Y-49612725D01*
X93510998Y-49827978D01*
X93511000Y-49827981D01*
X93613755Y-50029650D01*
X93746793Y-50212761D01*
X93906839Y-50372807D01*
X94089950Y-50505845D01*
X94291619Y-50608600D01*
X94291621Y-50608601D01*
X94492401Y-50673837D01*
X94506879Y-50678542D01*
X94730431Y-50713950D01*
X94730432Y-50713950D01*
X94956768Y-50713950D01*
X94956769Y-50713950D01*
X95180321Y-50678542D01*
X95180324Y-50678541D01*
X95180325Y-50678541D01*
X95395578Y-50608601D01*
X95395578Y-50608600D01*
X95395581Y-50608600D01*
X95597250Y-50505845D01*
X95780361Y-50372807D01*
X95940407Y-50212761D01*
X96073445Y-50029650D01*
X96176200Y-49827981D01*
X96201076Y-49751420D01*
X96246141Y-49612725D01*
X96246141Y-49612724D01*
X96246142Y-49612721D01*
X96281550Y-49389169D01*
X96281550Y-49162831D01*
X96246142Y-48939279D01*
X96246141Y-48939275D01*
X96246141Y-48939274D01*
X96176201Y-48724021D01*
X96176196Y-48724010D01*
X96092048Y-48558861D01*
X96073445Y-48522350D01*
X95940407Y-48339239D01*
X95907281Y-48306113D01*
X124379500Y-48306113D01*
X124379500Y-48518687D01*
X124385863Y-48558858D01*
X124412021Y-48724019D01*
X124412754Y-48728643D01*
X124475817Y-48922731D01*
X124478444Y-48930814D01*
X124574951Y-49120220D01*
X124699890Y-49292186D01*
X124850213Y-49442509D01*
X125022179Y-49567448D01*
X125022181Y-49567449D01*
X125022184Y-49567451D01*
X125211588Y-49663957D01*
X125413757Y-49729646D01*
X125623713Y-49762900D01*
X125623714Y-49762900D01*
X125836286Y-49762900D01*
X125836287Y-49762900D01*
X126046243Y-49729646D01*
X126248412Y-49663957D01*
X126437816Y-49567451D01*
X126539555Y-49493534D01*
X126609786Y-49442509D01*
X126609788Y-49442506D01*
X126609792Y-49442504D01*
X126760104Y-49292192D01*
X126760106Y-49292188D01*
X126760109Y-49292186D01*
X126885048Y-49120220D01*
X126885047Y-49120220D01*
X126885051Y-49120216D01*
X126981557Y-48930812D01*
X127047246Y-48728643D01*
X127080500Y-48518687D01*
X127080500Y-48306113D01*
X127047246Y-48096157D01*
X126981557Y-47893988D01*
X126885051Y-47704584D01*
X126885049Y-47704581D01*
X126885048Y-47704579D01*
X126760109Y-47532613D01*
X126609786Y-47382290D01*
X126437820Y-47257351D01*
X126248414Y-47160844D01*
X126248413Y-47160843D01*
X126248412Y-47160843D01*
X126046243Y-47095154D01*
X126046241Y-47095153D01*
X126046240Y-47095153D01*
X125884957Y-47069608D01*
X125836287Y-47061900D01*
X125623713Y-47061900D01*
X125575042Y-47069608D01*
X125413760Y-47095153D01*
X125211585Y-47160844D01*
X125022179Y-47257351D01*
X124850213Y-47382290D01*
X124699890Y-47532613D01*
X124574951Y-47704579D01*
X124478444Y-47893985D01*
X124412753Y-48096160D01*
X124399602Y-48179193D01*
X124379500Y-48306113D01*
X95907281Y-48306113D01*
X95780361Y-48179193D01*
X95597250Y-48046155D01*
X95395581Y-47943400D01*
X95395578Y-47943398D01*
X95180323Y-47873458D01*
X95031286Y-47849852D01*
X94956769Y-47838050D01*
X94730431Y-47838050D01*
X94655913Y-47849852D01*
X94506877Y-47873458D01*
X94506874Y-47873458D01*
X94291621Y-47943398D01*
X94291618Y-47943400D01*
X94089949Y-48046155D01*
X93994729Y-48115337D01*
X93906839Y-48179193D01*
X93906837Y-48179195D01*
X93906836Y-48179195D01*
X93746795Y-48339236D01*
X93746795Y-48339237D01*
X93746793Y-48339239D01*
X93689658Y-48417878D01*
X93613755Y-48522349D01*
X93511004Y-48724010D01*
X93510998Y-48724021D01*
X93441058Y-48939274D01*
X93441058Y-48939277D01*
X93422182Y-49058455D01*
X93405650Y-49162831D01*
X93041501Y-49162831D01*
X93020741Y-49058465D01*
X93020740Y-49058458D01*
X92964520Y-48922731D01*
X92964519Y-48922730D01*
X92964516Y-48922724D01*
X92882901Y-48800580D01*
X92882898Y-48800576D01*
X92779023Y-48696701D01*
X92779019Y-48696698D01*
X92656875Y-48615083D01*
X92656866Y-48615078D01*
X92521144Y-48558861D01*
X92521145Y-48558861D01*
X92521142Y-48558860D01*
X92521138Y-48558859D01*
X92521134Y-48558858D01*
X92377059Y-48530200D01*
X92377055Y-48530200D01*
X92230145Y-48530200D01*
X92230140Y-48530200D01*
X92086065Y-48558858D01*
X92086055Y-48558861D01*
X91950333Y-48615078D01*
X91950324Y-48615083D01*
X91828180Y-48696698D01*
X91828176Y-48696701D01*
X91724301Y-48800576D01*
X91724298Y-48800580D01*
X91642683Y-48922724D01*
X91642678Y-48922733D01*
X91586461Y-49058455D01*
X91586458Y-49058465D01*
X91557800Y-49202540D01*
X91201550Y-49202540D01*
X91201550Y-49162831D01*
X91166142Y-48939279D01*
X91166141Y-48939275D01*
X91166141Y-48939274D01*
X91096201Y-48724021D01*
X91096196Y-48724010D01*
X91012048Y-48558861D01*
X90993445Y-48522350D01*
X90860407Y-48339239D01*
X90700361Y-48179193D01*
X90700359Y-48179192D01*
X90699265Y-48178257D01*
X90698964Y-48177796D01*
X90696916Y-48175748D01*
X90697346Y-48175317D01*
X90661076Y-48119748D01*
X90660582Y-48049880D01*
X90697939Y-47990836D01*
X90710916Y-47980868D01*
X90731086Y-47967391D01*
X90731085Y-47967391D01*
X90731089Y-47967389D01*
X90842589Y-47855889D01*
X90930194Y-47724779D01*
X90990537Y-47579097D01*
X91021300Y-47424442D01*
X91021300Y-47266758D01*
X91021300Y-47266755D01*
X91021299Y-47266753D01*
X90990538Y-47112110D01*
X90990537Y-47112103D01*
X90983516Y-47095153D01*
X90930197Y-46966427D01*
X90930190Y-46966414D01*
X90842589Y-46835311D01*
X90842586Y-46835307D01*
X90731092Y-46723813D01*
X90731088Y-46723810D01*
X90599985Y-46636209D01*
X90599972Y-46636202D01*
X90454301Y-46575864D01*
X90454289Y-46575861D01*
X90299645Y-46545100D01*
X90299642Y-46545100D01*
X90141958Y-46545100D01*
X90141955Y-46545100D01*
X89987310Y-46575861D01*
X89987298Y-46575864D01*
X89841627Y-46636202D01*
X89841614Y-46636209D01*
X89730891Y-46710193D01*
X89664213Y-46731071D01*
X89596833Y-46712587D01*
X89593109Y-46710193D01*
X89482385Y-46636209D01*
X89482372Y-46636202D01*
X89336701Y-46575864D01*
X89336689Y-46575861D01*
X89182045Y-46545100D01*
X89182042Y-46545100D01*
X89024358Y-46545100D01*
X89024355Y-46545100D01*
X88869710Y-46575861D01*
X88869698Y-46575864D01*
X88724027Y-46636202D01*
X88724014Y-46636209D01*
X88592911Y-46723810D01*
X88592907Y-46723813D01*
X88481413Y-46835307D01*
X88481410Y-46835311D01*
X88393809Y-46966414D01*
X88393802Y-46966427D01*
X88333464Y-47112098D01*
X88333461Y-47112110D01*
X88302700Y-47266753D01*
X81018500Y-47266753D01*
X81018500Y-46090500D01*
X81038185Y-46023461D01*
X81090989Y-45977706D01*
X81142500Y-45966500D01*
X128204300Y-45966500D01*
X128271339Y-45986185D01*
G37*
%TD.AperFunction*%
%TD*%
M02*
