%TF.GenerationSoftware,KiCad,Pcbnew,9.0.6*%
%TF.CreationDate,2025-11-15T14:07:05+05:00*%
%TF.ProjectId,DynaButton,44796e61-4275-4747-946f-6e2e6b696361,rev?*%
%TF.SameCoordinates,Original*%
%TF.FileFunction,Copper,L3,Inr*%
%TF.FilePolarity,Positive*%
%FSLAX46Y46*%
G04 Gerber Fmt 4.6, Leading zero omitted, Abs format (unit mm)*
G04 Created by KiCad (PCBNEW 9.0.6) date 2025-11-15 14:07:05*
%MOMM*%
%LPD*%
G01*
G04 APERTURE LIST*
G04 Aperture macros list*
%AMRoundRect*
0 Rectangle with rounded corners*
0 $1 Rounding radius*
0 $2 $3 $4 $5 $6 $7 $8 $9 X,Y pos of 4 corners*
0 Add a 4 corners polygon primitive as box body*
4,1,4,$2,$3,$4,$5,$6,$7,$8,$9,$2,$3,0*
0 Add four circle primitives for the rounded corners*
1,1,$1+$1,$2,$3*
1,1,$1+$1,$4,$5*
1,1,$1+$1,$6,$7*
1,1,$1+$1,$8,$9*
0 Add four rect primitives between the rounded corners*
20,1,$1+$1,$2,$3,$4,$5,0*
20,1,$1+$1,$4,$5,$6,$7,0*
20,1,$1+$1,$6,$7,$8,$9,0*
20,1,$1+$1,$8,$9,$2,$3,0*%
G04 Aperture macros list end*
%TA.AperFunction,ComponentPad*%
%ADD10RoundRect,0.250000X-0.600000X-0.600000X0.600000X-0.600000X0.600000X0.600000X-0.600000X0.600000X0*%
%TD*%
%TA.AperFunction,ComponentPad*%
%ADD11C,1.700000*%
%TD*%
%TA.AperFunction,ComponentPad*%
%ADD12RoundRect,0.250000X0.600000X0.600000X-0.600000X0.600000X-0.600000X-0.600000X0.600000X-0.600000X0*%
%TD*%
%TA.AperFunction,ComponentPad*%
%ADD13C,0.500000*%
%TD*%
%TA.AperFunction,ComponentPad*%
%ADD14O,2.300000X1.300000*%
%TD*%
%TA.AperFunction,ComponentPad*%
%ADD15O,2.100000X1.300000*%
%TD*%
%TA.AperFunction,ViaPad*%
%ADD16C,0.600000*%
%TD*%
G04 APERTURE END LIST*
D10*
%TO.N,+3.3V*%
%TO.C,J4*%
X101396800Y-53086000D03*
D11*
%TO.N,/SWDIO*%
X103936800Y-53086000D03*
%TO.N,/RESET*%
X101396800Y-55626000D03*
%TO.N,/SWCLK*%
X103936800Y-55626000D03*
%TO.N,GND*%
X101396800Y-58166000D03*
%TO.N,/SWO*%
X103936800Y-58166000D03*
%TD*%
D12*
%TO.N,+3.3V*%
%TO.C,J3*%
X113944400Y-58166000D03*
D11*
X111404400Y-58166000D03*
%TO.N,Net-(J3-Pin_3)*%
X113944400Y-55626000D03*
%TO.N,Net-(J3-Pin_4)*%
X111404400Y-55626000D03*
%TO.N,GND*%
X113944400Y-53086000D03*
X111404400Y-53086000D03*
%TD*%
D13*
%TO.N,+3.3V*%
%TO.C,U3*%
X123377200Y-61516000D03*
X122377200Y-61516000D03*
X121377200Y-61516000D03*
%TD*%
D14*
%TO.N,GND*%
%TO.C,J5*%
X119150800Y-82644800D03*
D15*
X123350800Y-82644800D03*
D13*
X121970800Y-80314800D03*
X123970800Y-80314800D03*
X121970800Y-76314800D03*
X123970800Y-76314800D03*
D14*
X119150800Y-73984800D03*
D15*
X123350800Y-73984800D03*
%TD*%
D16*
%TO.N,+3.3V*%
X97078800Y-58572400D03*
X97536000Y-59334400D03*
X97536000Y-60096400D03*
X92100400Y-58572400D03*
X92760800Y-60147200D03*
X88290400Y-60147200D03*
X86715600Y-57759600D03*
%TO.N,+5V*%
X96875600Y-64922400D03*
X96875600Y-62788800D03*
%TO.N,+3.3V*%
X101814027Y-81572690D03*
%TO.N,+12V*%
X90322400Y-69037200D03*
X91389200Y-69037200D03*
X92303600Y-69037200D03*
X104749600Y-71323200D03*
X105816400Y-71272400D03*
%TO.N,GND*%
X88544400Y-95453200D03*
X88493600Y-93776800D03*
X98856800Y-95554800D03*
X98856800Y-93726000D03*
X109270800Y-95351600D03*
X109270800Y-93472000D03*
X119430800Y-95453200D03*
X119430800Y-93929200D03*
X126441200Y-96469200D03*
X126441200Y-92862400D03*
X126441200Y-90220800D03*
X127152400Y-81534000D03*
X127101600Y-74218800D03*
X127101600Y-72136000D03*
X118465600Y-67259200D03*
X118465600Y-68224400D03*
X118465600Y-68986400D03*
X117043200Y-68986400D03*
X116179600Y-68986400D03*
X117043200Y-67767200D03*
X116179600Y-67767200D03*
X117297200Y-63855600D03*
X116281200Y-63855600D03*
X117246400Y-62788800D03*
X116128800Y-62788800D03*
X115062000Y-62738000D03*
X117043200Y-61976000D03*
X116027200Y-61976000D03*
X121462800Y-49072800D03*
X119278400Y-49072800D03*
X107137200Y-48818800D03*
X105410000Y-48818800D03*
X103733600Y-48818800D03*
X90220800Y-54610000D03*
X86563200Y-52476400D03*
X84836000Y-56388000D03*
X82854800Y-56388000D03*
X84836000Y-54254400D03*
X82854800Y-54254400D03*
X86207600Y-71577200D03*
X89662000Y-74371200D03*
X90170000Y-73456800D03*
X91490800Y-72339200D03*
X90779600Y-72440800D03*
X90119200Y-72542400D03*
X93014800Y-74980800D03*
X91236800Y-76555600D03*
X92354400Y-76149200D03*
X94132400Y-79298800D03*
X86156800Y-81737200D03*
X85242400Y-80924400D03*
X86715600Y-89763600D03*
X86715600Y-88747600D03*
X91846400Y-85852000D03*
X90982800Y-85852000D03*
X90068400Y-85852000D03*
X91846400Y-84785200D03*
X90982800Y-84785200D03*
X90068400Y-84785200D03*
%TO.N,/RESET*%
X105968800Y-79193200D03*
%TO.N,GND*%
X104952800Y-79857600D03*
%TO.N,/TX_EN_3V3*%
X85293200Y-82702400D03*
X84226400Y-60299600D03*
%TO.N,/BOOT0*%
X106883200Y-72898000D03*
X106781600Y-63398400D03*
%TO.N,/SWDIO*%
X110439200Y-76758800D03*
%TO.N,/SWCLK*%
X111015200Y-72694800D03*
%TO.N,/SWO*%
X108339200Y-72390000D03*
%TO.N,+12V*%
X92913200Y-68376800D03*
X106680000Y-71272400D03*
%TO.N,GND*%
X89408000Y-54457600D03*
%TO.N,+3.3V*%
X89103200Y-47345600D03*
X90220800Y-47345600D03*
%TO.N,/RESET*%
X94234000Y-55575200D03*
%TO.N,GND*%
X86563200Y-51003200D03*
X126339600Y-63347600D03*
%TO.N,+3.3V*%
X121920000Y-65328800D03*
X122682000Y-65430400D03*
%TO.N,/BOOT1*%
X109931200Y-62077600D03*
X108407200Y-81584800D03*
%TO.N,/TXD_3V*%
X105562400Y-59486800D03*
%TO.N,/RXD_3V*%
X106680000Y-60096400D03*
X109677200Y-78384400D03*
%TO.N,/TXD_3V*%
X108661200Y-78384400D03*
%TO.N,GND*%
X94386400Y-77520800D03*
%TO.N,/LED_GREEN*%
X105105200Y-76504800D03*
X97434400Y-76454000D03*
%TO.N,+3.3V*%
X97434400Y-73406000D03*
%TO.N,GND*%
X93319600Y-72288400D03*
X93319600Y-71272400D03*
%TO.N,/TX_EN_5V*%
X100533200Y-67665600D03*
X98298000Y-66548000D03*
%TO.N,/RXD_5V*%
X104851200Y-64770000D03*
X106984800Y-69494400D03*
%TO.N,+5V*%
X105838652Y-66000859D03*
X106984800Y-68376800D03*
%TO.N,GND*%
X105816400Y-67411600D03*
X106969400Y-67364788D03*
X120802400Y-85750400D03*
X121767600Y-85801200D03*
X109829600Y-84378800D03*
%TO.N,+3.3V*%
X111048800Y-83108800D03*
X111252000Y-84582000D03*
%TO.N,GND*%
X114960400Y-82854800D03*
X116527400Y-87469800D03*
X118516400Y-86207600D03*
X108298400Y-86149600D03*
X97993200Y-86258400D03*
X86766400Y-87426800D03*
X94386400Y-82194400D03*
X95300800Y-81584800D03*
X101498400Y-76708000D03*
X101193600Y-72847200D03*
X102311200Y-72847200D03*
X103581200Y-72847200D03*
X104698800Y-72847200D03*
X105359200Y-73304400D03*
%TO.N,+3.3V*%
X103682800Y-75488800D03*
X102565200Y-75488800D03*
X101752400Y-75488800D03*
%TO.N,GND*%
X113829391Y-76568939D03*
%TO.N,+3.3V*%
X113182400Y-76098400D03*
%TO.N,GND*%
X116160800Y-74352400D03*
X116160800Y-73438000D03*
%TD*%
%TA.AperFunction,Conductor*%
%TO.N,+3.3V*%
G36*
X112745844Y-56279999D02*
G01*
X112784886Y-56325056D01*
X112789351Y-56333820D01*
X112914290Y-56505786D01*
X112914296Y-56505792D01*
X113064608Y-56656104D01*
X113064609Y-56656105D01*
X113064608Y-56656105D01*
X113069998Y-56660020D01*
X113112667Y-56715348D01*
X113118649Y-56784961D01*
X113086047Y-56846758D01*
X113036129Y-56878046D01*
X113025281Y-56881641D01*
X113025275Y-56881643D01*
X112876054Y-56973684D01*
X112752084Y-57097654D01*
X112660043Y-57246875D01*
X112660042Y-57246878D01*
X112636206Y-57318811D01*
X112596433Y-57376255D01*
X112531917Y-57403078D01*
X112520706Y-57403245D01*
X111887362Y-58036590D01*
X111870325Y-57973007D01*
X111804499Y-57858993D01*
X111711407Y-57765901D01*
X111597393Y-57700075D01*
X111533809Y-57683037D01*
X112166116Y-57050728D01*
X112111947Y-57011373D01*
X112111947Y-57011372D01*
X112102900Y-57006763D01*
X112052106Y-56958788D01*
X112035312Y-56890966D01*
X112057851Y-56824832D01*
X112102908Y-56785793D01*
X112112216Y-56781051D01*
X112216921Y-56704979D01*
X112284186Y-56656109D01*
X112284188Y-56656106D01*
X112284192Y-56656104D01*
X112434504Y-56505792D01*
X112434506Y-56505788D01*
X112434509Y-56505786D01*
X112559448Y-56333820D01*
X112559447Y-56333820D01*
X112559451Y-56333816D01*
X112563914Y-56325054D01*
X112611888Y-56274259D01*
X112679708Y-56257463D01*
X112745844Y-56279999D01*
G37*
%TD.AperFunction*%
%TA.AperFunction,Conductor*%
G36*
X128271339Y-45986185D02*
G01*
X128317094Y-46038989D01*
X128328300Y-46090500D01*
X128328300Y-97724300D01*
X128308615Y-97791339D01*
X128255811Y-97837094D01*
X128204300Y-97848300D01*
X81142500Y-97848300D01*
X81075461Y-97828615D01*
X81029706Y-97775811D01*
X81018500Y-97724300D01*
X81018500Y-96390353D01*
X125640700Y-96390353D01*
X125640700Y-96548046D01*
X125671461Y-96702689D01*
X125671464Y-96702701D01*
X125731802Y-96848372D01*
X125731809Y-96848385D01*
X125819410Y-96979488D01*
X125819413Y-96979492D01*
X125930907Y-97090986D01*
X125930911Y-97090989D01*
X126062014Y-97178590D01*
X126062027Y-97178597D01*
X126207698Y-97238935D01*
X126207703Y-97238937D01*
X126362353Y-97269699D01*
X126362356Y-97269700D01*
X126362358Y-97269700D01*
X126520044Y-97269700D01*
X126520045Y-97269699D01*
X126674697Y-97238937D01*
X126820379Y-97178594D01*
X126951489Y-97090989D01*
X127062989Y-96979489D01*
X127150594Y-96848379D01*
X127210937Y-96702697D01*
X127241700Y-96548042D01*
X127241700Y-96390358D01*
X127241700Y-96390355D01*
X127241699Y-96390353D01*
X127214517Y-96253700D01*
X127210937Y-96235703D01*
X127205648Y-96222935D01*
X127150597Y-96090027D01*
X127150590Y-96090014D01*
X127062989Y-95958911D01*
X127062986Y-95958907D01*
X126951492Y-95847413D01*
X126951488Y-95847410D01*
X126820385Y-95759809D01*
X126820372Y-95759802D01*
X126674701Y-95699464D01*
X126674689Y-95699461D01*
X126520045Y-95668700D01*
X126520042Y-95668700D01*
X126362358Y-95668700D01*
X126362355Y-95668700D01*
X126207710Y-95699461D01*
X126207698Y-95699464D01*
X126062027Y-95759802D01*
X126062014Y-95759809D01*
X125930911Y-95847410D01*
X125930907Y-95847413D01*
X125819413Y-95958907D01*
X125819410Y-95958911D01*
X125731809Y-96090014D01*
X125731802Y-96090027D01*
X125671464Y-96235698D01*
X125671461Y-96235710D01*
X125640700Y-96390353D01*
X81018500Y-96390353D01*
X81018500Y-93697953D01*
X87693100Y-93697953D01*
X87693100Y-93855646D01*
X87723861Y-94010289D01*
X87723864Y-94010301D01*
X87784202Y-94155972D01*
X87784209Y-94155985D01*
X87871810Y-94287088D01*
X87871813Y-94287092D01*
X87983307Y-94398586D01*
X87983311Y-94398589D01*
X88114414Y-94486190D01*
X88114421Y-94486194D01*
X88174211Y-94510959D01*
X88228613Y-94554799D01*
X88250679Y-94621092D01*
X88233401Y-94688792D01*
X88182264Y-94736403D01*
X88174218Y-94740078D01*
X88165228Y-94743802D01*
X88165214Y-94743809D01*
X88034111Y-94831410D01*
X88034107Y-94831413D01*
X87922613Y-94942907D01*
X87922610Y-94942911D01*
X87835009Y-95074014D01*
X87835002Y-95074027D01*
X87774664Y-95219698D01*
X87774661Y-95219710D01*
X87743900Y-95374353D01*
X87743900Y-95532046D01*
X87774661Y-95686689D01*
X87774664Y-95686701D01*
X87835002Y-95832372D01*
X87835009Y-95832385D01*
X87922610Y-95963488D01*
X87922613Y-95963492D01*
X88034107Y-96074986D01*
X88034111Y-96074989D01*
X88165214Y-96162590D01*
X88165227Y-96162597D01*
X88310898Y-96222935D01*
X88310903Y-96222937D01*
X88465553Y-96253699D01*
X88465556Y-96253700D01*
X88465558Y-96253700D01*
X88623244Y-96253700D01*
X88623245Y-96253699D01*
X88777897Y-96222937D01*
X88923579Y-96162594D01*
X89054689Y-96074989D01*
X89166189Y-95963489D01*
X89253794Y-95832379D01*
X89314137Y-95686697D01*
X89344900Y-95532042D01*
X89344900Y-95374358D01*
X89344900Y-95374355D01*
X89344899Y-95374353D01*
X89334348Y-95321310D01*
X89314137Y-95219703D01*
X89295875Y-95175614D01*
X89253797Y-95074027D01*
X89253790Y-95074014D01*
X89166189Y-94942911D01*
X89166186Y-94942907D01*
X89054692Y-94831413D01*
X89054688Y-94831410D01*
X88923585Y-94743809D01*
X88923572Y-94743802D01*
X88863789Y-94719040D01*
X88809385Y-94675200D01*
X88787320Y-94608906D01*
X88804599Y-94541206D01*
X88855736Y-94493595D01*
X88863791Y-94489917D01*
X88864732Y-94489526D01*
X88872779Y-94486194D01*
X89003889Y-94398589D01*
X89115389Y-94287089D01*
X89202994Y-94155979D01*
X89263337Y-94010297D01*
X89294100Y-93855642D01*
X89294100Y-93697958D01*
X89294100Y-93697955D01*
X89294099Y-93697953D01*
X89287596Y-93665257D01*
X89283995Y-93647153D01*
X98056300Y-93647153D01*
X98056300Y-93804846D01*
X98087061Y-93959489D01*
X98087064Y-93959501D01*
X98147402Y-94105172D01*
X98147409Y-94105185D01*
X98235010Y-94236288D01*
X98235013Y-94236292D01*
X98346507Y-94347786D01*
X98346511Y-94347789D01*
X98477614Y-94435390D01*
X98477627Y-94435397D01*
X98600254Y-94486190D01*
X98623303Y-94495737D01*
X98666791Y-94504387D01*
X98739159Y-94518783D01*
X98801070Y-94551168D01*
X98835645Y-94611884D01*
X98831905Y-94681653D01*
X98791038Y-94738325D01*
X98739159Y-94762017D01*
X98623310Y-94785061D01*
X98623298Y-94785064D01*
X98477627Y-94845402D01*
X98477614Y-94845409D01*
X98346511Y-94933010D01*
X98346507Y-94933013D01*
X98235013Y-95044507D01*
X98235010Y-95044511D01*
X98147409Y-95175614D01*
X98147402Y-95175627D01*
X98087064Y-95321298D01*
X98087061Y-95321310D01*
X98056300Y-95475953D01*
X98056300Y-95633646D01*
X98087061Y-95788289D01*
X98087064Y-95788301D01*
X98147402Y-95933972D01*
X98147409Y-95933985D01*
X98235010Y-96065088D01*
X98235013Y-96065092D01*
X98346507Y-96176586D01*
X98346511Y-96176589D01*
X98477614Y-96264190D01*
X98477627Y-96264197D01*
X98623298Y-96324535D01*
X98623303Y-96324537D01*
X98777953Y-96355299D01*
X98777956Y-96355300D01*
X98777958Y-96355300D01*
X98935644Y-96355300D01*
X98935645Y-96355299D01*
X99090297Y-96324537D01*
X99156330Y-96297185D01*
X99222675Y-96269705D01*
X99222675Y-96269704D01*
X99235979Y-96264194D01*
X99367089Y-96176589D01*
X99478589Y-96065089D01*
X99566194Y-95933979D01*
X99626537Y-95788297D01*
X99657300Y-95633642D01*
X99657300Y-95475958D01*
X99657300Y-95475955D01*
X99657299Y-95475953D01*
X99626538Y-95321310D01*
X99626537Y-95321303D01*
X99606427Y-95272753D01*
X108470300Y-95272753D01*
X108470300Y-95430446D01*
X108501061Y-95585089D01*
X108501064Y-95585101D01*
X108561402Y-95730772D01*
X108561409Y-95730785D01*
X108649010Y-95861888D01*
X108649013Y-95861892D01*
X108760507Y-95973386D01*
X108760511Y-95973389D01*
X108891614Y-96060990D01*
X108891627Y-96060997D01*
X108961713Y-96090027D01*
X109037303Y-96121337D01*
X109191953Y-96152099D01*
X109191956Y-96152100D01*
X109191958Y-96152100D01*
X109349644Y-96152100D01*
X109349645Y-96152099D01*
X109504297Y-96121337D01*
X109616966Y-96074667D01*
X109649972Y-96060997D01*
X109649972Y-96060996D01*
X109649979Y-96060994D01*
X109781089Y-95973389D01*
X109892589Y-95861889D01*
X109980194Y-95730779D01*
X110040537Y-95585097D01*
X110071300Y-95430442D01*
X110071300Y-95272758D01*
X110071300Y-95272755D01*
X110071299Y-95272753D01*
X110060748Y-95219710D01*
X110040537Y-95118103D01*
X110022275Y-95074014D01*
X109980197Y-94972427D01*
X109980190Y-94972414D01*
X109892589Y-94841311D01*
X109892586Y-94841307D01*
X109781092Y-94729813D01*
X109781088Y-94729810D01*
X109649985Y-94642209D01*
X109649972Y-94642202D01*
X109504301Y-94581864D01*
X109504289Y-94581861D01*
X109349645Y-94551100D01*
X109349642Y-94551100D01*
X109191958Y-94551100D01*
X109191955Y-94551100D01*
X109037310Y-94581861D01*
X109037298Y-94581864D01*
X108891627Y-94642202D01*
X108891614Y-94642209D01*
X108760511Y-94729810D01*
X108760507Y-94729813D01*
X108649013Y-94841307D01*
X108649010Y-94841311D01*
X108561409Y-94972414D01*
X108561402Y-94972427D01*
X108501064Y-95118098D01*
X108501061Y-95118110D01*
X108470300Y-95272753D01*
X99606427Y-95272753D01*
X99584451Y-95219698D01*
X99566197Y-95175627D01*
X99566190Y-95175614D01*
X99478589Y-95044511D01*
X99478586Y-95044507D01*
X99367092Y-94933013D01*
X99367088Y-94933010D01*
X99235985Y-94845409D01*
X99235972Y-94845402D01*
X99090301Y-94785064D01*
X99090289Y-94785061D01*
X98974440Y-94762017D01*
X98912529Y-94729632D01*
X98877955Y-94668916D01*
X98881694Y-94599147D01*
X98922561Y-94542475D01*
X98974440Y-94518783D01*
X99024766Y-94508772D01*
X99090297Y-94495737D01*
X99202966Y-94449067D01*
X99235972Y-94435397D01*
X99235972Y-94435396D01*
X99235979Y-94435394D01*
X99367089Y-94347789D01*
X99478589Y-94236289D01*
X99566194Y-94105179D01*
X99626537Y-93959497D01*
X99657300Y-93804842D01*
X99657300Y-93647158D01*
X99657300Y-93647155D01*
X99657299Y-93647153D01*
X99654312Y-93632135D01*
X99626537Y-93492503D01*
X99585385Y-93393153D01*
X108470300Y-93393153D01*
X108470300Y-93550846D01*
X108501061Y-93705489D01*
X108501064Y-93705501D01*
X108561402Y-93851172D01*
X108561409Y-93851185D01*
X108649010Y-93982288D01*
X108649013Y-93982292D01*
X108760507Y-94093786D01*
X108760511Y-94093789D01*
X108891614Y-94181390D01*
X108891627Y-94181397D01*
X109037298Y-94241735D01*
X109037303Y-94241737D01*
X109191953Y-94272499D01*
X109191956Y-94272500D01*
X109191958Y-94272500D01*
X109349644Y-94272500D01*
X109349645Y-94272499D01*
X109504297Y-94241737D01*
X109649979Y-94181394D01*
X109781089Y-94093789D01*
X109892589Y-93982289D01*
X109980194Y-93851179D01*
X109980536Y-93850353D01*
X118630300Y-93850353D01*
X118630300Y-94008046D01*
X118661061Y-94162689D01*
X118661064Y-94162701D01*
X118721402Y-94308372D01*
X118721409Y-94308385D01*
X118809010Y-94439488D01*
X118809013Y-94439492D01*
X118920507Y-94550986D01*
X118920510Y-94550988D01*
X118920511Y-94550989D01*
X118920779Y-94551168D01*
X118976048Y-94588098D01*
X119020852Y-94641711D01*
X119029559Y-94711036D01*
X118999404Y-94774063D01*
X118976048Y-94794302D01*
X118920507Y-94831413D01*
X118809013Y-94942907D01*
X118809010Y-94942911D01*
X118721409Y-95074014D01*
X118721402Y-95074027D01*
X118661064Y-95219698D01*
X118661061Y-95219710D01*
X118630300Y-95374353D01*
X118630300Y-95532046D01*
X118661061Y-95686689D01*
X118661064Y-95686701D01*
X118721402Y-95832372D01*
X118721409Y-95832385D01*
X118809010Y-95963488D01*
X118809013Y-95963492D01*
X118920507Y-96074986D01*
X118920511Y-96074989D01*
X119051614Y-96162590D01*
X119051627Y-96162597D01*
X119197298Y-96222935D01*
X119197303Y-96222937D01*
X119351953Y-96253699D01*
X119351956Y-96253700D01*
X119351958Y-96253700D01*
X119509644Y-96253700D01*
X119509645Y-96253699D01*
X119664297Y-96222937D01*
X119809979Y-96162594D01*
X119941089Y-96074989D01*
X120052589Y-95963489D01*
X120140194Y-95832379D01*
X120200537Y-95686697D01*
X120231300Y-95532042D01*
X120231300Y-95374358D01*
X120231300Y-95374355D01*
X120231299Y-95374353D01*
X120220748Y-95321310D01*
X120200537Y-95219703D01*
X120182275Y-95175614D01*
X120140197Y-95074027D01*
X120140190Y-95074014D01*
X120052589Y-94942911D01*
X120052586Y-94942907D01*
X119941092Y-94831413D01*
X119941088Y-94831410D01*
X119885552Y-94794302D01*
X119840747Y-94740690D01*
X119832040Y-94671365D01*
X119862194Y-94608337D01*
X119885552Y-94588098D01*
X119903579Y-94576052D01*
X119941089Y-94550989D01*
X120052589Y-94439489D01*
X120140194Y-94308379D01*
X120200537Y-94162697D01*
X120231300Y-94008042D01*
X120231300Y-93850358D01*
X120231300Y-93850355D01*
X120231299Y-93850353D01*
X120202485Y-93705497D01*
X120200537Y-93695703D01*
X120174208Y-93632138D01*
X120140197Y-93550027D01*
X120140190Y-93550014D01*
X120052589Y-93418911D01*
X120052586Y-93418907D01*
X119941092Y-93307413D01*
X119941088Y-93307410D01*
X119809985Y-93219809D01*
X119809972Y-93219802D01*
X119664301Y-93159464D01*
X119664289Y-93159461D01*
X119509645Y-93128700D01*
X119509642Y-93128700D01*
X119351958Y-93128700D01*
X119351955Y-93128700D01*
X119197310Y-93159461D01*
X119197298Y-93159464D01*
X119051627Y-93219802D01*
X119051614Y-93219809D01*
X118920511Y-93307410D01*
X118920507Y-93307413D01*
X118809013Y-93418907D01*
X118809010Y-93418911D01*
X118721409Y-93550014D01*
X118721402Y-93550027D01*
X118661064Y-93695698D01*
X118661061Y-93695710D01*
X118630300Y-93850353D01*
X109980536Y-93850353D01*
X109999386Y-93804846D01*
X110002713Y-93796814D01*
X110040535Y-93705501D01*
X110040537Y-93705497D01*
X110071300Y-93550842D01*
X110071300Y-93393158D01*
X110071300Y-93393155D01*
X110071299Y-93393153D01*
X110062083Y-93346821D01*
X110040537Y-93238503D01*
X110031095Y-93215707D01*
X109980197Y-93092827D01*
X109980190Y-93092814D01*
X109892589Y-92961711D01*
X109892586Y-92961707D01*
X109781092Y-92850213D01*
X109781088Y-92850210D01*
X109681330Y-92783553D01*
X125640700Y-92783553D01*
X125640700Y-92941246D01*
X125671461Y-93095889D01*
X125671464Y-93095901D01*
X125731802Y-93241572D01*
X125731809Y-93241585D01*
X125819410Y-93372688D01*
X125819413Y-93372692D01*
X125930907Y-93484186D01*
X125930911Y-93484189D01*
X126062014Y-93571790D01*
X126062027Y-93571797D01*
X126207698Y-93632135D01*
X126207703Y-93632137D01*
X126362353Y-93662899D01*
X126362356Y-93662900D01*
X126362358Y-93662900D01*
X126520044Y-93662900D01*
X126520045Y-93662899D01*
X126674697Y-93632137D01*
X126820379Y-93571794D01*
X126951489Y-93484189D01*
X127062989Y-93372689D01*
X127150594Y-93241579D01*
X127210937Y-93095897D01*
X127241700Y-92941242D01*
X127241700Y-92783558D01*
X127241700Y-92783555D01*
X127241699Y-92783553D01*
X127237532Y-92762602D01*
X127210937Y-92628903D01*
X127210935Y-92628898D01*
X127150597Y-92483227D01*
X127150590Y-92483214D01*
X127062989Y-92352111D01*
X127062986Y-92352107D01*
X126951492Y-92240613D01*
X126951488Y-92240610D01*
X126820385Y-92153009D01*
X126820372Y-92153002D01*
X126674701Y-92092664D01*
X126674689Y-92092661D01*
X126520045Y-92061900D01*
X126520042Y-92061900D01*
X126362358Y-92061900D01*
X126362355Y-92061900D01*
X126207710Y-92092661D01*
X126207698Y-92092664D01*
X126062027Y-92153002D01*
X126062014Y-92153009D01*
X125930911Y-92240610D01*
X125930907Y-92240613D01*
X125819413Y-92352107D01*
X125819410Y-92352111D01*
X125731809Y-92483214D01*
X125731802Y-92483227D01*
X125671464Y-92628898D01*
X125671461Y-92628910D01*
X125640700Y-92783553D01*
X109681330Y-92783553D01*
X109649985Y-92762609D01*
X109649972Y-92762602D01*
X109504301Y-92702264D01*
X109504289Y-92702261D01*
X109349645Y-92671500D01*
X109349642Y-92671500D01*
X109191958Y-92671500D01*
X109191955Y-92671500D01*
X109037310Y-92702261D01*
X109037298Y-92702264D01*
X108891627Y-92762602D01*
X108891614Y-92762609D01*
X108760511Y-92850210D01*
X108760507Y-92850213D01*
X108649013Y-92961707D01*
X108649010Y-92961711D01*
X108561409Y-93092814D01*
X108561402Y-93092827D01*
X108501064Y-93238498D01*
X108501061Y-93238510D01*
X108470300Y-93393153D01*
X99585385Y-93393153D01*
X99566197Y-93346826D01*
X99566190Y-93346814D01*
X99478589Y-93215711D01*
X99478586Y-93215707D01*
X99367092Y-93104213D01*
X99367088Y-93104210D01*
X99235985Y-93016609D01*
X99235972Y-93016602D01*
X99090301Y-92956264D01*
X99090289Y-92956261D01*
X98935645Y-92925500D01*
X98935642Y-92925500D01*
X98777958Y-92925500D01*
X98777955Y-92925500D01*
X98623310Y-92956261D01*
X98623298Y-92956264D01*
X98477627Y-93016602D01*
X98477614Y-93016609D01*
X98346511Y-93104210D01*
X98346507Y-93104213D01*
X98235013Y-93215707D01*
X98235010Y-93215711D01*
X98147409Y-93346814D01*
X98147402Y-93346827D01*
X98087064Y-93492498D01*
X98087061Y-93492510D01*
X98056300Y-93647153D01*
X89283995Y-93647153D01*
X89263338Y-93543308D01*
X89263337Y-93543307D01*
X89263337Y-93543303D01*
X89242293Y-93492498D01*
X89202997Y-93397627D01*
X89202990Y-93397614D01*
X89115389Y-93266511D01*
X89115386Y-93266507D01*
X89003892Y-93155013D01*
X89003888Y-93155010D01*
X88872785Y-93067409D01*
X88872772Y-93067402D01*
X88727101Y-93007064D01*
X88727089Y-93007061D01*
X88572445Y-92976300D01*
X88572442Y-92976300D01*
X88414758Y-92976300D01*
X88414755Y-92976300D01*
X88260110Y-93007061D01*
X88260098Y-93007064D01*
X88114427Y-93067402D01*
X88114414Y-93067409D01*
X87983311Y-93155010D01*
X87983307Y-93155013D01*
X87871813Y-93266507D01*
X87871810Y-93266511D01*
X87784209Y-93397614D01*
X87784202Y-93397627D01*
X87723864Y-93543298D01*
X87723861Y-93543310D01*
X87693100Y-93697953D01*
X81018500Y-93697953D01*
X81018500Y-88668753D01*
X85915100Y-88668753D01*
X85915100Y-88826446D01*
X85945861Y-88981089D01*
X85945864Y-88981101D01*
X86006202Y-89126771D01*
X86006209Y-89126784D01*
X86046250Y-89186709D01*
X86067128Y-89253387D01*
X86048643Y-89320767D01*
X86046250Y-89324491D01*
X86006209Y-89384415D01*
X86006202Y-89384428D01*
X85945864Y-89530098D01*
X85945861Y-89530110D01*
X85915100Y-89684753D01*
X85915100Y-89842446D01*
X85945861Y-89997089D01*
X85945864Y-89997101D01*
X86006202Y-90142772D01*
X86006209Y-90142785D01*
X86093810Y-90273888D01*
X86093813Y-90273892D01*
X86205307Y-90385386D01*
X86205311Y-90385389D01*
X86336414Y-90472990D01*
X86336427Y-90472997D01*
X86482098Y-90533335D01*
X86482103Y-90533337D01*
X86636753Y-90564099D01*
X86636756Y-90564100D01*
X86636758Y-90564100D01*
X86794444Y-90564100D01*
X86794445Y-90564099D01*
X86949097Y-90533337D01*
X87094779Y-90472994D01*
X87225889Y-90385389D01*
X87337389Y-90273889D01*
X87424994Y-90142779D01*
X87425336Y-90141953D01*
X125640700Y-90141953D01*
X125640700Y-90299646D01*
X125671461Y-90454289D01*
X125671464Y-90454301D01*
X125731802Y-90599972D01*
X125731809Y-90599985D01*
X125819410Y-90731088D01*
X125819413Y-90731092D01*
X125930907Y-90842586D01*
X125930911Y-90842589D01*
X126062014Y-90930190D01*
X126062027Y-90930197D01*
X126207698Y-90990535D01*
X126207703Y-90990537D01*
X126362353Y-91021299D01*
X126362356Y-91021300D01*
X126362358Y-91021300D01*
X126520044Y-91021300D01*
X126520045Y-91021299D01*
X126674697Y-90990537D01*
X126820379Y-90930194D01*
X126951489Y-90842589D01*
X127062989Y-90731089D01*
X127150594Y-90599979D01*
X127210937Y-90454297D01*
X127241700Y-90299642D01*
X127241700Y-90141958D01*
X127241700Y-90141955D01*
X127241699Y-90141953D01*
X127212885Y-89997097D01*
X127210937Y-89987303D01*
X127150935Y-89842444D01*
X127150597Y-89841627D01*
X127150590Y-89841614D01*
X127062989Y-89710511D01*
X127062986Y-89710507D01*
X126951492Y-89599013D01*
X126951488Y-89599010D01*
X126820385Y-89511409D01*
X126820372Y-89511402D01*
X126674701Y-89451064D01*
X126674689Y-89451061D01*
X126520045Y-89420300D01*
X126520042Y-89420300D01*
X126362358Y-89420300D01*
X126362355Y-89420300D01*
X126207710Y-89451061D01*
X126207698Y-89451064D01*
X126062027Y-89511402D01*
X126062014Y-89511409D01*
X125930911Y-89599010D01*
X125930907Y-89599013D01*
X125819413Y-89710507D01*
X125819410Y-89710511D01*
X125731809Y-89841614D01*
X125731802Y-89841627D01*
X125671464Y-89987298D01*
X125671461Y-89987310D01*
X125640700Y-90141953D01*
X87425336Y-90141953D01*
X87485337Y-89997097D01*
X87516100Y-89842442D01*
X87516100Y-89684758D01*
X87516100Y-89684755D01*
X87516099Y-89684753D01*
X87499044Y-89599011D01*
X87485337Y-89530103D01*
X87477591Y-89511402D01*
X87424997Y-89384427D01*
X87424993Y-89384420D01*
X87384950Y-89324492D01*
X87364072Y-89257814D01*
X87382556Y-89190434D01*
X87384938Y-89186725D01*
X87424994Y-89126779D01*
X87485337Y-88981097D01*
X87516100Y-88826442D01*
X87516100Y-88668758D01*
X87516100Y-88668755D01*
X87516099Y-88668753D01*
X87485338Y-88514110D01*
X87485337Y-88514103D01*
X87485335Y-88514098D01*
X87424997Y-88368427D01*
X87424990Y-88368414D01*
X87337389Y-88237311D01*
X87337386Y-88237307D01*
X87300360Y-88200281D01*
X87266875Y-88138958D01*
X87271859Y-88069266D01*
X87300360Y-88024919D01*
X87388186Y-87937092D01*
X87388189Y-87937089D01*
X87475794Y-87805979D01*
X87536137Y-87660297D01*
X87566900Y-87505642D01*
X87566900Y-87390953D01*
X115726900Y-87390953D01*
X115726900Y-87548646D01*
X115757661Y-87703289D01*
X115757664Y-87703301D01*
X115818002Y-87848972D01*
X115818009Y-87848985D01*
X115905610Y-87980088D01*
X115905613Y-87980092D01*
X116017107Y-88091586D01*
X116017111Y-88091589D01*
X116148214Y-88179190D01*
X116148227Y-88179197D01*
X116288519Y-88237307D01*
X116293903Y-88239537D01*
X116448553Y-88270299D01*
X116448556Y-88270300D01*
X116448558Y-88270300D01*
X116606244Y-88270300D01*
X116606245Y-88270299D01*
X116760897Y-88239537D01*
X116906579Y-88179194D01*
X117037689Y-88091589D01*
X117149189Y-87980089D01*
X117236794Y-87848979D01*
X117297137Y-87703297D01*
X117327900Y-87548642D01*
X117327900Y-87390958D01*
X117327900Y-87390955D01*
X117327899Y-87390953D01*
X117297138Y-87236310D01*
X117297137Y-87236303D01*
X117262094Y-87151700D01*
X117236797Y-87090627D01*
X117236790Y-87090614D01*
X117149189Y-86959511D01*
X117149186Y-86959507D01*
X117037692Y-86848013D01*
X117037688Y-86848010D01*
X116906585Y-86760409D01*
X116906572Y-86760402D01*
X116760901Y-86700064D01*
X116760889Y-86700061D01*
X116606245Y-86669300D01*
X116606242Y-86669300D01*
X116448558Y-86669300D01*
X116448555Y-86669300D01*
X116293910Y-86700061D01*
X116293898Y-86700064D01*
X116148227Y-86760402D01*
X116148214Y-86760409D01*
X116017111Y-86848010D01*
X116017107Y-86848013D01*
X115905613Y-86959507D01*
X115905610Y-86959511D01*
X115818009Y-87090614D01*
X115818002Y-87090627D01*
X115757664Y-87236298D01*
X115757661Y-87236310D01*
X115726900Y-87390953D01*
X87566900Y-87390953D01*
X87566900Y-87347958D01*
X87566900Y-87347955D01*
X87566899Y-87347953D01*
X87536137Y-87193303D01*
X87518905Y-87151700D01*
X87475797Y-87047627D01*
X87475790Y-87047614D01*
X87388189Y-86916511D01*
X87388186Y-86916507D01*
X87276692Y-86805013D01*
X87276688Y-86805010D01*
X87145585Y-86717409D01*
X87145572Y-86717402D01*
X86999901Y-86657064D01*
X86999889Y-86657061D01*
X86845245Y-86626300D01*
X86845242Y-86626300D01*
X86687558Y-86626300D01*
X86687555Y-86626300D01*
X86532910Y-86657061D01*
X86532898Y-86657064D01*
X86387227Y-86717402D01*
X86387214Y-86717409D01*
X86256111Y-86805010D01*
X86256107Y-86805013D01*
X86144613Y-86916507D01*
X86144610Y-86916511D01*
X86057009Y-87047614D01*
X86057002Y-87047627D01*
X85996664Y-87193298D01*
X85996661Y-87193310D01*
X85965900Y-87347953D01*
X85965900Y-87505646D01*
X85996661Y-87660289D01*
X85996664Y-87660301D01*
X86057002Y-87805972D01*
X86057009Y-87805985D01*
X86144610Y-87937088D01*
X86144613Y-87937092D01*
X86181640Y-87974119D01*
X86215125Y-88035442D01*
X86210141Y-88105134D01*
X86181640Y-88149481D01*
X86093813Y-88237307D01*
X86093810Y-88237311D01*
X86006209Y-88368414D01*
X86006202Y-88368427D01*
X85945864Y-88514098D01*
X85945861Y-88514110D01*
X85915100Y-88668753D01*
X81018500Y-88668753D01*
X81018500Y-84706353D01*
X89267900Y-84706353D01*
X89267900Y-84864046D01*
X89298661Y-85018689D01*
X89298664Y-85018701D01*
X89359002Y-85164372D01*
X89359009Y-85164385D01*
X89416021Y-85249709D01*
X89436899Y-85316387D01*
X89418414Y-85383767D01*
X89416021Y-85387491D01*
X89359009Y-85472814D01*
X89359002Y-85472827D01*
X89298664Y-85618498D01*
X89298661Y-85618510D01*
X89267900Y-85773153D01*
X89267900Y-85930846D01*
X89298661Y-86085489D01*
X89298664Y-86085501D01*
X89359002Y-86231172D01*
X89359009Y-86231185D01*
X89446610Y-86362288D01*
X89446613Y-86362292D01*
X89558107Y-86473786D01*
X89558111Y-86473789D01*
X89689214Y-86561390D01*
X89689227Y-86561397D01*
X89786529Y-86601700D01*
X89834903Y-86621737D01*
X89989553Y-86652499D01*
X89989556Y-86652500D01*
X89989558Y-86652500D01*
X90147244Y-86652500D01*
X90147245Y-86652499D01*
X90301897Y-86621737D01*
X90447579Y-86561394D01*
X90456711Y-86555292D01*
X90523385Y-86534415D01*
X90590766Y-86552899D01*
X90594450Y-86555266D01*
X90603621Y-86561394D01*
X90603624Y-86561395D01*
X90603627Y-86561397D01*
X90700929Y-86601700D01*
X90749303Y-86621737D01*
X90903953Y-86652499D01*
X90903956Y-86652500D01*
X90903958Y-86652500D01*
X91061644Y-86652500D01*
X91061645Y-86652499D01*
X91216297Y-86621737D01*
X91361979Y-86561394D01*
X91361980Y-86561392D01*
X91367147Y-86559253D01*
X91436617Y-86551784D01*
X91462053Y-86559253D01*
X91467219Y-86561393D01*
X91467221Y-86561394D01*
X91612903Y-86621737D01*
X91767553Y-86652499D01*
X91767556Y-86652500D01*
X91767558Y-86652500D01*
X91925244Y-86652500D01*
X91925245Y-86652499D01*
X92079897Y-86621737D01*
X92225579Y-86561394D01*
X92356689Y-86473789D01*
X92468189Y-86362289D01*
X92555794Y-86231179D01*
X92616137Y-86085497D01*
X92646900Y-85930842D01*
X92646900Y-85773158D01*
X92646900Y-85773155D01*
X92646899Y-85773153D01*
X92624235Y-85659214D01*
X92616137Y-85618503D01*
X92616135Y-85618498D01*
X92555797Y-85472827D01*
X92555795Y-85472823D01*
X92555794Y-85472821D01*
X92498777Y-85387490D01*
X92477900Y-85320814D01*
X92496384Y-85253434D01*
X92498778Y-85249709D01*
X92505194Y-85240107D01*
X92555794Y-85164379D01*
X92609586Y-85034513D01*
X93493100Y-85034513D01*
X93493100Y-85247087D01*
X93500041Y-85290911D01*
X93523687Y-85440209D01*
X93526354Y-85457043D01*
X93585575Y-85639307D01*
X93592044Y-85659214D01*
X93688551Y-85848620D01*
X93813490Y-86020586D01*
X93963813Y-86170909D01*
X94135779Y-86295848D01*
X94135781Y-86295849D01*
X94135784Y-86295851D01*
X94325188Y-86392357D01*
X94527357Y-86458046D01*
X94737313Y-86491300D01*
X94737314Y-86491300D01*
X94949886Y-86491300D01*
X94949887Y-86491300D01*
X95159843Y-86458046D01*
X95362012Y-86392357D01*
X95551416Y-86295851D01*
X95644192Y-86228446D01*
X95711488Y-86179553D01*
X97192700Y-86179553D01*
X97192700Y-86337246D01*
X97223461Y-86491889D01*
X97223464Y-86491901D01*
X97283802Y-86637572D01*
X97283809Y-86637585D01*
X97371410Y-86768688D01*
X97371413Y-86768692D01*
X97482907Y-86880186D01*
X97482911Y-86880189D01*
X97614014Y-86967790D01*
X97614027Y-86967797D01*
X97711329Y-87008100D01*
X97759703Y-87028137D01*
X97914353Y-87058899D01*
X97914356Y-87058900D01*
X97914358Y-87058900D01*
X98072044Y-87058900D01*
X98072045Y-87058899D01*
X98226697Y-87028137D01*
X98372379Y-86967794D01*
X98503489Y-86880189D01*
X98614989Y-86768689D01*
X98702594Y-86637579D01*
X98762937Y-86491897D01*
X98793700Y-86337242D01*
X98793700Y-86179558D01*
X98793700Y-86179555D01*
X98793699Y-86179553D01*
X98775659Y-86088857D01*
X98772058Y-86070753D01*
X107497900Y-86070753D01*
X107497900Y-86228446D01*
X107528661Y-86383089D01*
X107528664Y-86383101D01*
X107589002Y-86528772D01*
X107589009Y-86528785D01*
X107676610Y-86659888D01*
X107676613Y-86659892D01*
X107788107Y-86771386D01*
X107788111Y-86771389D01*
X107919214Y-86858990D01*
X107919227Y-86858997D01*
X108064898Y-86919335D01*
X108064903Y-86919337D01*
X108219553Y-86950099D01*
X108219556Y-86950100D01*
X108219558Y-86950100D01*
X108377244Y-86950100D01*
X108377245Y-86950099D01*
X108531897Y-86919337D01*
X108677579Y-86858994D01*
X108808689Y-86771389D01*
X108920189Y-86659889D01*
X109007794Y-86528779D01*
X109011375Y-86520135D01*
X109036370Y-86459790D01*
X109068137Y-86383097D01*
X109098900Y-86228442D01*
X109098900Y-86128753D01*
X117715900Y-86128753D01*
X117715900Y-86286446D01*
X117746661Y-86441089D01*
X117746664Y-86441101D01*
X117807002Y-86586772D01*
X117807009Y-86586785D01*
X117894610Y-86717888D01*
X117894613Y-86717892D01*
X118006107Y-86829386D01*
X118006111Y-86829389D01*
X118137214Y-86916990D01*
X118137227Y-86916997D01*
X118259854Y-86967790D01*
X118282903Y-86977337D01*
X118437553Y-87008099D01*
X118437556Y-87008100D01*
X118437558Y-87008100D01*
X118595244Y-87008100D01*
X118595245Y-87008099D01*
X118749897Y-86977337D01*
X118889920Y-86919338D01*
X118895572Y-86916997D01*
X118895572Y-86916996D01*
X118895579Y-86916994D01*
X119026689Y-86829389D01*
X119138189Y-86717889D01*
X119225794Y-86586779D01*
X119236308Y-86561397D01*
X119257349Y-86510597D01*
X119286137Y-86441097D01*
X119316900Y-86286442D01*
X119316900Y-86128758D01*
X119316900Y-86128755D01*
X119316899Y-86128753D01*
X119308352Y-86085785D01*
X119286137Y-85974103D01*
X119247176Y-85880042D01*
X119225797Y-85828427D01*
X119225790Y-85828414D01*
X119162943Y-85734357D01*
X119138189Y-85697311D01*
X119138186Y-85697307D01*
X119112432Y-85671553D01*
X120001900Y-85671553D01*
X120001900Y-85829246D01*
X120032661Y-85983889D01*
X120032664Y-85983901D01*
X120093002Y-86129572D01*
X120093009Y-86129585D01*
X120180610Y-86260688D01*
X120180613Y-86260692D01*
X120292107Y-86372186D01*
X120292111Y-86372189D01*
X120423214Y-86459790D01*
X120423227Y-86459797D01*
X120545854Y-86510590D01*
X120568903Y-86520137D01*
X120723553Y-86550899D01*
X120723556Y-86550900D01*
X120723558Y-86550900D01*
X120881244Y-86550900D01*
X120881245Y-86550899D01*
X121035897Y-86520137D01*
X121181579Y-86459794D01*
X121181584Y-86459790D01*
X121186952Y-86456922D01*
X121188064Y-86459003D01*
X121244758Y-86441244D01*
X121312140Y-86459721D01*
X121315877Y-86462122D01*
X121388414Y-86510590D01*
X121388427Y-86510597D01*
X121505895Y-86559253D01*
X121534103Y-86570937D01*
X121688753Y-86601699D01*
X121688756Y-86601700D01*
X121688758Y-86601700D01*
X121846444Y-86601700D01*
X121846445Y-86601699D01*
X122001097Y-86570937D01*
X122146779Y-86510594D01*
X122277889Y-86422989D01*
X122389389Y-86311489D01*
X122476994Y-86180379D01*
X122537337Y-86034697D01*
X122568100Y-85880042D01*
X122568100Y-85722358D01*
X122562641Y-85694913D01*
X124582700Y-85694913D01*
X124582700Y-85907487D01*
X124615954Y-86117443D01*
X124679003Y-86311488D01*
X124681644Y-86319614D01*
X124778151Y-86509020D01*
X124903090Y-86680986D01*
X125053413Y-86831309D01*
X125225379Y-86956248D01*
X125225381Y-86956249D01*
X125225384Y-86956251D01*
X125414788Y-87052757D01*
X125616957Y-87118446D01*
X125826913Y-87151700D01*
X125826914Y-87151700D01*
X126039486Y-87151700D01*
X126039487Y-87151700D01*
X126249443Y-87118446D01*
X126451612Y-87052757D01*
X126641016Y-86956251D01*
X126695719Y-86916507D01*
X126812986Y-86831309D01*
X126812988Y-86831306D01*
X126812992Y-86831304D01*
X126963304Y-86680992D01*
X126963306Y-86680988D01*
X126963309Y-86680986D01*
X127087102Y-86510597D01*
X127088251Y-86509016D01*
X127184757Y-86319612D01*
X127250446Y-86117443D01*
X127283700Y-85907487D01*
X127283700Y-85694913D01*
X127250446Y-85484957D01*
X127184757Y-85282788D01*
X127088251Y-85093384D01*
X127088249Y-85093381D01*
X127088248Y-85093379D01*
X126963309Y-84921413D01*
X126812986Y-84771090D01*
X126641020Y-84646151D01*
X126451614Y-84549644D01*
X126451613Y-84549643D01*
X126451612Y-84549643D01*
X126249443Y-84483954D01*
X126249441Y-84483953D01*
X126249440Y-84483953D01*
X126083317Y-84457642D01*
X126039487Y-84450700D01*
X125826913Y-84450700D01*
X125783083Y-84457642D01*
X125616960Y-84483953D01*
X125414785Y-84549644D01*
X125225379Y-84646151D01*
X125053413Y-84771090D01*
X124903090Y-84921413D01*
X124778151Y-85093379D01*
X124681644Y-85282785D01*
X124615953Y-85484960D01*
X124588354Y-85659214D01*
X124582700Y-85694913D01*
X122562641Y-85694913D01*
X122537337Y-85567703D01*
X122520814Y-85527813D01*
X122476997Y-85422027D01*
X122476990Y-85422014D01*
X122389389Y-85290911D01*
X122389386Y-85290907D01*
X122277892Y-85179413D01*
X122277888Y-85179410D01*
X122146785Y-85091809D01*
X122146772Y-85091802D01*
X122001101Y-85031464D01*
X122001089Y-85031461D01*
X121846445Y-85000700D01*
X121846442Y-85000700D01*
X121688758Y-85000700D01*
X121688755Y-85000700D01*
X121534110Y-85031461D01*
X121534098Y-85031464D01*
X121388427Y-85091802D01*
X121383046Y-85094679D01*
X121381939Y-85092608D01*
X121325169Y-85110356D01*
X121257797Y-85091840D01*
X121254122Y-85089477D01*
X121181585Y-85041009D01*
X121181572Y-85041002D01*
X121035901Y-84980664D01*
X121035889Y-84980661D01*
X120881245Y-84949900D01*
X120881242Y-84949900D01*
X120723558Y-84949900D01*
X120723555Y-84949900D01*
X120568910Y-84980661D01*
X120568898Y-84980664D01*
X120423227Y-85041002D01*
X120423214Y-85041009D01*
X120292111Y-85128610D01*
X120292107Y-85128613D01*
X120180613Y-85240107D01*
X120180610Y-85240111D01*
X120093009Y-85371214D01*
X120093002Y-85371227D01*
X120032664Y-85516898D01*
X120032661Y-85516910D01*
X120001900Y-85671553D01*
X119112432Y-85671553D01*
X119026692Y-85585813D01*
X119026688Y-85585810D01*
X118895585Y-85498209D01*
X118895572Y-85498202D01*
X118749901Y-85437864D01*
X118749889Y-85437861D01*
X118595245Y-85407100D01*
X118595242Y-85407100D01*
X118437558Y-85407100D01*
X118437555Y-85407100D01*
X118282910Y-85437861D01*
X118282898Y-85437864D01*
X118137227Y-85498202D01*
X118137214Y-85498209D01*
X118006111Y-85585810D01*
X118006107Y-85585813D01*
X117894613Y-85697307D01*
X117894610Y-85697311D01*
X117807009Y-85828414D01*
X117807002Y-85828427D01*
X117746664Y-85974098D01*
X117746661Y-85974110D01*
X117715900Y-86128753D01*
X109098900Y-86128753D01*
X109098900Y-86070758D01*
X109098900Y-86070755D01*
X109098899Y-86070753D01*
X109081622Y-85983897D01*
X109068137Y-85916103D01*
X109032160Y-85829246D01*
X109007797Y-85770427D01*
X109007790Y-85770414D01*
X108920189Y-85639311D01*
X108920186Y-85639307D01*
X108808692Y-85527813D01*
X108808688Y-85527810D01*
X108677585Y-85440209D01*
X108677572Y-85440202D01*
X108531901Y-85379864D01*
X108531889Y-85379861D01*
X108377245Y-85349100D01*
X108377242Y-85349100D01*
X108219558Y-85349100D01*
X108219555Y-85349100D01*
X108064910Y-85379861D01*
X108064898Y-85379864D01*
X107919227Y-85440202D01*
X107919214Y-85440209D01*
X107788111Y-85527810D01*
X107788107Y-85527813D01*
X107676613Y-85639307D01*
X107676610Y-85639311D01*
X107589009Y-85770414D01*
X107589002Y-85770427D01*
X107528664Y-85916098D01*
X107528661Y-85916110D01*
X107497900Y-86070753D01*
X98772058Y-86070753D01*
X98762938Y-86024908D01*
X98762937Y-86024907D01*
X98762937Y-86024903D01*
X98702935Y-85880044D01*
X98702597Y-85879227D01*
X98702590Y-85879214D01*
X98614989Y-85748111D01*
X98614986Y-85748107D01*
X98503492Y-85636613D01*
X98503488Y-85636610D01*
X98372385Y-85549009D01*
X98372372Y-85549002D01*
X98226701Y-85488664D01*
X98226689Y-85488661D01*
X98072045Y-85457900D01*
X98072042Y-85457900D01*
X97914358Y-85457900D01*
X97914355Y-85457900D01*
X97759710Y-85488661D01*
X97759698Y-85488664D01*
X97614027Y-85549002D01*
X97614014Y-85549009D01*
X97482911Y-85636610D01*
X97482907Y-85636613D01*
X97371413Y-85748107D01*
X97371410Y-85748111D01*
X97283809Y-85879214D01*
X97283802Y-85879227D01*
X97223464Y-86024898D01*
X97223461Y-86024910D01*
X97192700Y-86179553D01*
X95711488Y-86179553D01*
X95723386Y-86170909D01*
X95723388Y-86170906D01*
X95723392Y-86170904D01*
X95873704Y-86020592D01*
X95873706Y-86020588D01*
X95873709Y-86020586D01*
X95998648Y-85848620D01*
X95998647Y-85848620D01*
X95998651Y-85848616D01*
X96095157Y-85659212D01*
X96160846Y-85457043D01*
X96194100Y-85247087D01*
X96194100Y-85034513D01*
X96160846Y-84824557D01*
X96095157Y-84622388D01*
X95998651Y-84432984D01*
X95979066Y-84406027D01*
X95950531Y-84366751D01*
X95902000Y-84299953D01*
X109029100Y-84299953D01*
X109029100Y-84457646D01*
X109059861Y-84612289D01*
X109059864Y-84612301D01*
X109120202Y-84757972D01*
X109120209Y-84757985D01*
X109207810Y-84889088D01*
X109207813Y-84889092D01*
X109319307Y-85000586D01*
X109319311Y-85000589D01*
X109450414Y-85088190D01*
X109450427Y-85088197D01*
X109567965Y-85136882D01*
X109596103Y-85148537D01*
X109750753Y-85179299D01*
X109750756Y-85179300D01*
X109750758Y-85179300D01*
X109908444Y-85179300D01*
X109908445Y-85179299D01*
X110063097Y-85148537D01*
X110200059Y-85091806D01*
X110208772Y-85088197D01*
X110208772Y-85088196D01*
X110208779Y-85088194D01*
X110339889Y-85000589D01*
X110451389Y-84889089D01*
X110538994Y-84757979D01*
X110599337Y-84612297D01*
X110630100Y-84457642D01*
X110630100Y-84299958D01*
X110630100Y-84299955D01*
X110630099Y-84299953D01*
X110602939Y-84163411D01*
X110599337Y-84145303D01*
X110585114Y-84110966D01*
X110538997Y-83999627D01*
X110538990Y-83999614D01*
X110451389Y-83868511D01*
X110451386Y-83868507D01*
X110339892Y-83757013D01*
X110339888Y-83757010D01*
X110208785Y-83669409D01*
X110208772Y-83669402D01*
X110063101Y-83609064D01*
X110063089Y-83609061D01*
X109908445Y-83578300D01*
X109908442Y-83578300D01*
X109750758Y-83578300D01*
X109750755Y-83578300D01*
X109596110Y-83609061D01*
X109596098Y-83609064D01*
X109450427Y-83669402D01*
X109450414Y-83669409D01*
X109319311Y-83757010D01*
X109319307Y-83757013D01*
X109207813Y-83868507D01*
X109207810Y-83868511D01*
X109120209Y-83999614D01*
X109120202Y-83999627D01*
X109059864Y-84145298D01*
X109059861Y-84145310D01*
X109029100Y-84299953D01*
X95902000Y-84299953D01*
X95873709Y-84261013D01*
X95723386Y-84110690D01*
X95551420Y-83985751D01*
X95362014Y-83889244D01*
X95362013Y-83889243D01*
X95362012Y-83889243D01*
X95159843Y-83823554D01*
X95159841Y-83823553D01*
X95159840Y-83823553D01*
X94998557Y-83798008D01*
X94949887Y-83790300D01*
X94737313Y-83790300D01*
X94688642Y-83798008D01*
X94527360Y-83823553D01*
X94325185Y-83889244D01*
X94135779Y-83985751D01*
X93963813Y-84110690D01*
X93813490Y-84261013D01*
X93688551Y-84432979D01*
X93592044Y-84622385D01*
X93526353Y-84824560D01*
X93498473Y-85000589D01*
X93493100Y-85034513D01*
X92609586Y-85034513D01*
X92616137Y-85018697D01*
X92646900Y-84864042D01*
X92646900Y-84706358D01*
X92646900Y-84706355D01*
X92646899Y-84706353D01*
X92634924Y-84646151D01*
X92616137Y-84551703D01*
X92588075Y-84483954D01*
X92555797Y-84406027D01*
X92555790Y-84406014D01*
X92468189Y-84274911D01*
X92468186Y-84274907D01*
X92356692Y-84163413D01*
X92356688Y-84163410D01*
X92225585Y-84075809D01*
X92225572Y-84075802D01*
X92079901Y-84015464D01*
X92079889Y-84015461D01*
X91925245Y-83984700D01*
X91925242Y-83984700D01*
X91767558Y-83984700D01*
X91767555Y-83984700D01*
X91612910Y-84015461D01*
X91612898Y-84015464D01*
X91462052Y-84077946D01*
X91392583Y-84085415D01*
X91367148Y-84077946D01*
X91216301Y-84015464D01*
X91216289Y-84015461D01*
X91061645Y-83984700D01*
X91061642Y-83984700D01*
X90903958Y-83984700D01*
X90903955Y-83984700D01*
X90749310Y-84015461D01*
X90749298Y-84015464D01*
X90603627Y-84075802D01*
X90603615Y-84075809D01*
X90594487Y-84081908D01*
X90527808Y-84102783D01*
X90460429Y-84084296D01*
X90456713Y-84081908D01*
X90447584Y-84075809D01*
X90447572Y-84075802D01*
X90301901Y-84015464D01*
X90301889Y-84015461D01*
X90147245Y-83984700D01*
X90147242Y-83984700D01*
X89989558Y-83984700D01*
X89989555Y-83984700D01*
X89834910Y-84015461D01*
X89834898Y-84015464D01*
X89689227Y-84075802D01*
X89689214Y-84075809D01*
X89558111Y-84163410D01*
X89558107Y-84163413D01*
X89446613Y-84274907D01*
X89446610Y-84274911D01*
X89359009Y-84406014D01*
X89359002Y-84406027D01*
X89298664Y-84551698D01*
X89298661Y-84551710D01*
X89267900Y-84706353D01*
X81018500Y-84706353D01*
X81018500Y-80845553D01*
X84441900Y-80845553D01*
X84441900Y-81003246D01*
X84472661Y-81157889D01*
X84472664Y-81157901D01*
X84533002Y-81303572D01*
X84533009Y-81303585D01*
X84620610Y-81434688D01*
X84620613Y-81434692D01*
X84732107Y-81546186D01*
X84732111Y-81546189D01*
X84863214Y-81633790D01*
X84863227Y-81633797D01*
X84984688Y-81684107D01*
X85008903Y-81694137D01*
X85031334Y-81698599D01*
X85093245Y-81730982D01*
X85127820Y-81791697D01*
X85124081Y-81861467D01*
X85083216Y-81918140D01*
X85054597Y-81934777D01*
X84914024Y-81993004D01*
X84914014Y-81993009D01*
X84782911Y-82080610D01*
X84782907Y-82080613D01*
X84671413Y-82192107D01*
X84671410Y-82192111D01*
X84583809Y-82323214D01*
X84583802Y-82323227D01*
X84523464Y-82468898D01*
X84523461Y-82468910D01*
X84492700Y-82623553D01*
X84492700Y-82781246D01*
X84523461Y-82935889D01*
X84523464Y-82935901D01*
X84583802Y-83081572D01*
X84583809Y-83081585D01*
X84671410Y-83212688D01*
X84671413Y-83212692D01*
X84782907Y-83324186D01*
X84782911Y-83324189D01*
X84914014Y-83411790D01*
X84914027Y-83411797D01*
X85059698Y-83472135D01*
X85059703Y-83472137D01*
X85214353Y-83502899D01*
X85214356Y-83502900D01*
X85214358Y-83502900D01*
X85372044Y-83502900D01*
X85372045Y-83502899D01*
X85526697Y-83472137D01*
X85672379Y-83411794D01*
X85803489Y-83324189D01*
X85914989Y-83212689D01*
X86002594Y-83081579D01*
X86062937Y-82935897D01*
X86093700Y-82781242D01*
X86093700Y-82661700D01*
X86113385Y-82594661D01*
X86166189Y-82548906D01*
X86217700Y-82537700D01*
X86235644Y-82537700D01*
X86235645Y-82537699D01*
X86390297Y-82506937D01*
X86535979Y-82446594D01*
X86667089Y-82358989D01*
X86778589Y-82247489D01*
X86866194Y-82116379D01*
X86866536Y-82115553D01*
X93585900Y-82115553D01*
X93585900Y-82273246D01*
X93616661Y-82427889D01*
X93616664Y-82427901D01*
X93677002Y-82573572D01*
X93677009Y-82573585D01*
X93764610Y-82704688D01*
X93764613Y-82704692D01*
X93876107Y-82816186D01*
X93876111Y-82816189D01*
X94007214Y-82903790D01*
X94007227Y-82903797D01*
X94152898Y-82964135D01*
X94152903Y-82964137D01*
X94307553Y-82994899D01*
X94307556Y-82994900D01*
X94307558Y-82994900D01*
X94465244Y-82994900D01*
X94465245Y-82994899D01*
X94619897Y-82964137D01*
X94765579Y-82903794D01*
X94896689Y-82816189D01*
X94936925Y-82775953D01*
X114159900Y-82775953D01*
X114159900Y-82933646D01*
X114190661Y-83088289D01*
X114190664Y-83088301D01*
X114251002Y-83233972D01*
X114251009Y-83233985D01*
X114338610Y-83365088D01*
X114338613Y-83365092D01*
X114450107Y-83476586D01*
X114450111Y-83476589D01*
X114581214Y-83564190D01*
X114581227Y-83564197D01*
X114726898Y-83624535D01*
X114726903Y-83624537D01*
X114881553Y-83655299D01*
X114881556Y-83655300D01*
X114881558Y-83655300D01*
X115039244Y-83655300D01*
X115039245Y-83655299D01*
X115193897Y-83624537D01*
X115339579Y-83564194D01*
X115470689Y-83476589D01*
X115582189Y-83365089D01*
X115669794Y-83233979D01*
X115730137Y-83088297D01*
X115760900Y-82933642D01*
X115760900Y-82775958D01*
X115760900Y-82775955D01*
X115760899Y-82775953D01*
X115746724Y-82704692D01*
X115730137Y-82621303D01*
X115710372Y-82573585D01*
X115702362Y-82554248D01*
X117500300Y-82554248D01*
X117500300Y-82735351D01*
X117528629Y-82914210D01*
X117584587Y-83086436D01*
X117584588Y-83086439D01*
X117640464Y-83196100D01*
X117659761Y-83233972D01*
X117666806Y-83247797D01*
X117773241Y-83394294D01*
X117773245Y-83394299D01*
X117901300Y-83522354D01*
X117901305Y-83522358D01*
X118020643Y-83609061D01*
X118047806Y-83628796D01*
X118127513Y-83669409D01*
X118209160Y-83711011D01*
X118209163Y-83711012D01*
X118295276Y-83738991D01*
X118381391Y-83766971D01*
X118464229Y-83780091D01*
X118560249Y-83795300D01*
X118560254Y-83795300D01*
X119741351Y-83795300D01*
X119828059Y-83781565D01*
X119920209Y-83766971D01*
X120092439Y-83711011D01*
X120253794Y-83628796D01*
X120400301Y-83522353D01*
X120528353Y-83394301D01*
X120634796Y-83247794D01*
X120717011Y-83086439D01*
X120772971Y-82914209D01*
X120788496Y-82816186D01*
X120801300Y-82735351D01*
X120801300Y-82554248D01*
X121800300Y-82554248D01*
X121800300Y-82735351D01*
X121828629Y-82914210D01*
X121884587Y-83086436D01*
X121884588Y-83086439D01*
X121940464Y-83196100D01*
X121959761Y-83233972D01*
X121966806Y-83247797D01*
X122073241Y-83394294D01*
X122073245Y-83394299D01*
X122201300Y-83522354D01*
X122201305Y-83522358D01*
X122320643Y-83609061D01*
X122347806Y-83628796D01*
X122427513Y-83669409D01*
X122509160Y-83711011D01*
X122509163Y-83711012D01*
X122595276Y-83738991D01*
X122681391Y-83766971D01*
X122764229Y-83780091D01*
X122860249Y-83795300D01*
X122860254Y-83795300D01*
X123841351Y-83795300D01*
X123928059Y-83781565D01*
X124020209Y-83766971D01*
X124192439Y-83711011D01*
X124353794Y-83628796D01*
X124500301Y-83522353D01*
X124628353Y-83394301D01*
X124734796Y-83247794D01*
X124817011Y-83086439D01*
X124872971Y-82914209D01*
X124888496Y-82816186D01*
X124901300Y-82735351D01*
X124901300Y-82554248D01*
X124881286Y-82427889D01*
X124872971Y-82375391D01*
X124831414Y-82247489D01*
X124817012Y-82203163D01*
X124817011Y-82203160D01*
X124772793Y-82116379D01*
X124734796Y-82041806D01*
X124699341Y-81993006D01*
X124628358Y-81895305D01*
X124628354Y-81895300D01*
X124500299Y-81767245D01*
X124500294Y-81767241D01*
X124353797Y-81660806D01*
X124353796Y-81660805D01*
X124353794Y-81660804D01*
X124259672Y-81612846D01*
X124192439Y-81578588D01*
X124192436Y-81578587D01*
X124156763Y-81566997D01*
X124020210Y-81522629D01*
X123841351Y-81494300D01*
X123841346Y-81494300D01*
X122860254Y-81494300D01*
X122860249Y-81494300D01*
X122681389Y-81522629D01*
X122509163Y-81578587D01*
X122509160Y-81578588D01*
X122347802Y-81660806D01*
X122201305Y-81767241D01*
X122201300Y-81767245D01*
X122073245Y-81895300D01*
X122073241Y-81895305D01*
X121966806Y-82041802D01*
X121884588Y-82203160D01*
X121884587Y-82203163D01*
X121828629Y-82375389D01*
X121800300Y-82554248D01*
X120801300Y-82554248D01*
X120781286Y-82427889D01*
X120772971Y-82375391D01*
X120731414Y-82247489D01*
X120717012Y-82203163D01*
X120717011Y-82203160D01*
X120672793Y-82116379D01*
X120634796Y-82041806D01*
X120599341Y-81993006D01*
X120528358Y-81895305D01*
X120528354Y-81895300D01*
X120400299Y-81767245D01*
X120400294Y-81767241D01*
X120253795Y-81660804D01*
X120207486Y-81637208D01*
X120156691Y-81589234D01*
X120139896Y-81521412D01*
X120156394Y-81464725D01*
X120161920Y-81455153D01*
X126351900Y-81455153D01*
X126351900Y-81612846D01*
X126382661Y-81767489D01*
X126382664Y-81767501D01*
X126443002Y-81913172D01*
X126443009Y-81913185D01*
X126530610Y-82044288D01*
X126530613Y-82044292D01*
X126642107Y-82155786D01*
X126642111Y-82155789D01*
X126773214Y-82243390D01*
X126773227Y-82243397D01*
X126895854Y-82294190D01*
X126918903Y-82303737D01*
X127073553Y-82334499D01*
X127073556Y-82334500D01*
X127073558Y-82334500D01*
X127231244Y-82334500D01*
X127231245Y-82334499D01*
X127385897Y-82303737D01*
X127498566Y-82257067D01*
X127531572Y-82243397D01*
X127531572Y-82243396D01*
X127531579Y-82243394D01*
X127662689Y-82155789D01*
X127774189Y-82044289D01*
X127861794Y-81913179D01*
X127922137Y-81767497D01*
X127952900Y-81612842D01*
X127952900Y-81455158D01*
X127952900Y-81455155D01*
X127952899Y-81455153D01*
X127945367Y-81417286D01*
X127922137Y-81300503D01*
X127912515Y-81277274D01*
X127861797Y-81154827D01*
X127861790Y-81154814D01*
X127774189Y-81023711D01*
X127774186Y-81023707D01*
X127662692Y-80912213D01*
X127662688Y-80912210D01*
X127531585Y-80824609D01*
X127531572Y-80824602D01*
X127385901Y-80764264D01*
X127385889Y-80764261D01*
X127231245Y-80733500D01*
X127231242Y-80733500D01*
X127073558Y-80733500D01*
X127073555Y-80733500D01*
X126918910Y-80764261D01*
X126918898Y-80764264D01*
X126773227Y-80824602D01*
X126773214Y-80824609D01*
X126642111Y-80912210D01*
X126642107Y-80912213D01*
X126530613Y-81023707D01*
X126530610Y-81023711D01*
X126443009Y-81154814D01*
X126443002Y-81154827D01*
X126382664Y-81300498D01*
X126382661Y-81300510D01*
X126351900Y-81455153D01*
X120161920Y-81455153D01*
X120183784Y-81417285D01*
X120221300Y-81277275D01*
X120221300Y-81132325D01*
X120183784Y-80992315D01*
X120169436Y-80967464D01*
X120111311Y-80866788D01*
X120111306Y-80866782D01*
X120008817Y-80764293D01*
X120008811Y-80764288D01*
X119883288Y-80691817D01*
X119883289Y-80691817D01*
X119871806Y-80688740D01*
X119743275Y-80654300D01*
X119598325Y-80654300D01*
X119469793Y-80688740D01*
X119458311Y-80691817D01*
X119332788Y-80764288D01*
X119332782Y-80764293D01*
X119230293Y-80866782D01*
X119230288Y-80866788D01*
X119157817Y-80992311D01*
X119157816Y-80992315D01*
X119120300Y-81132325D01*
X119120300Y-81277275D01*
X119127348Y-81303579D01*
X119136627Y-81338207D01*
X119134964Y-81408056D01*
X119095801Y-81465919D01*
X119031573Y-81493423D01*
X119016852Y-81494300D01*
X118560249Y-81494300D01*
X118381389Y-81522629D01*
X118209163Y-81578587D01*
X118209160Y-81578588D01*
X118047802Y-81660806D01*
X117901305Y-81767241D01*
X117901300Y-81767245D01*
X117773245Y-81895300D01*
X117773241Y-81895305D01*
X117666806Y-82041802D01*
X117584588Y-82203160D01*
X117584587Y-82203163D01*
X117528629Y-82375389D01*
X117500300Y-82554248D01*
X115702362Y-82554248D01*
X115669797Y-82475627D01*
X115669790Y-82475614D01*
X115582189Y-82344511D01*
X115582186Y-82344507D01*
X115470692Y-82233013D01*
X115470688Y-82233010D01*
X115339585Y-82145409D01*
X115339572Y-82145402D01*
X115193901Y-82085064D01*
X115193889Y-82085061D01*
X115039245Y-82054300D01*
X115039242Y-82054300D01*
X114881558Y-82054300D01*
X114881555Y-82054300D01*
X114726910Y-82085061D01*
X114726898Y-82085064D01*
X114581227Y-82145402D01*
X114581214Y-82145409D01*
X114450111Y-82233010D01*
X114450107Y-82233013D01*
X114338613Y-82344507D01*
X114338610Y-82344511D01*
X114251009Y-82475614D01*
X114251002Y-82475627D01*
X114190664Y-82621298D01*
X114190661Y-82621310D01*
X114159900Y-82775953D01*
X94936925Y-82775953D01*
X95008189Y-82704689D01*
X95036914Y-82661700D01*
X95095790Y-82573585D01*
X95095790Y-82573584D01*
X95095794Y-82573579D01*
X95112167Y-82534048D01*
X95142075Y-82461847D01*
X95185916Y-82407444D01*
X95252210Y-82385379D01*
X95256636Y-82385300D01*
X95379644Y-82385300D01*
X95379645Y-82385299D01*
X95534297Y-82354537D01*
X95679979Y-82294194D01*
X95811089Y-82206589D01*
X95922589Y-82095089D01*
X96010194Y-81963979D01*
X96070537Y-81818297D01*
X96101300Y-81663642D01*
X96101300Y-81505958D01*
X96101300Y-81505955D01*
X96101299Y-81505953D01*
X107606700Y-81505953D01*
X107606700Y-81663646D01*
X107637461Y-81818289D01*
X107637464Y-81818301D01*
X107697802Y-81963972D01*
X107697809Y-81963985D01*
X107785410Y-82095088D01*
X107785413Y-82095092D01*
X107896907Y-82206586D01*
X107896911Y-82206589D01*
X108028014Y-82294190D01*
X108028027Y-82294197D01*
X108125329Y-82334500D01*
X108173703Y-82354537D01*
X108328353Y-82385299D01*
X108328356Y-82385300D01*
X108328358Y-82385300D01*
X108486044Y-82385300D01*
X108486045Y-82385299D01*
X108640697Y-82354537D01*
X108786379Y-82294194D01*
X108917489Y-82206589D01*
X109028989Y-82095089D01*
X109116594Y-81963979D01*
X109176937Y-81818297D01*
X109207700Y-81663642D01*
X109207700Y-81505958D01*
X109207700Y-81505955D01*
X109207699Y-81505953D01*
X109197595Y-81455158D01*
X109176937Y-81351303D01*
X109157169Y-81303579D01*
X109116597Y-81205627D01*
X109116590Y-81205614D01*
X109028989Y-81074511D01*
X109028986Y-81074507D01*
X108917492Y-80963013D01*
X108917488Y-80963010D01*
X108786385Y-80875409D01*
X108786372Y-80875402D01*
X108640701Y-80815064D01*
X108640689Y-80815061D01*
X108486045Y-80784300D01*
X108486042Y-80784300D01*
X108328358Y-80784300D01*
X108328355Y-80784300D01*
X108173710Y-80815061D01*
X108173698Y-80815064D01*
X108028027Y-80875402D01*
X108028014Y-80875409D01*
X107896911Y-80963010D01*
X107896907Y-80963013D01*
X107785413Y-81074507D01*
X107785410Y-81074511D01*
X107697809Y-81205614D01*
X107697802Y-81205627D01*
X107637464Y-81351298D01*
X107637461Y-81351310D01*
X107606700Y-81505953D01*
X96101299Y-81505953D01*
X96091195Y-81455158D01*
X96070537Y-81351303D01*
X96050769Y-81303579D01*
X96010197Y-81205627D01*
X96010190Y-81205614D01*
X95922589Y-81074511D01*
X95922586Y-81074507D01*
X95811092Y-80963013D01*
X95811088Y-80963010D01*
X95679985Y-80875409D01*
X95679972Y-80875402D01*
X95534301Y-80815064D01*
X95534289Y-80815061D01*
X95379645Y-80784300D01*
X95379642Y-80784300D01*
X95221958Y-80784300D01*
X95221955Y-80784300D01*
X95067310Y-80815061D01*
X95067298Y-80815064D01*
X94921627Y-80875402D01*
X94921614Y-80875409D01*
X94790511Y-80963010D01*
X94790507Y-80963013D01*
X94679013Y-81074507D01*
X94679010Y-81074511D01*
X94591409Y-81205614D01*
X94591402Y-81205626D01*
X94545126Y-81317352D01*
X94501286Y-81371756D01*
X94434992Y-81393821D01*
X94430565Y-81393900D01*
X94307555Y-81393900D01*
X94152910Y-81424661D01*
X94152898Y-81424664D01*
X94007227Y-81485002D01*
X94007214Y-81485009D01*
X93876111Y-81572610D01*
X93876107Y-81572613D01*
X93764613Y-81684107D01*
X93764610Y-81684111D01*
X93677009Y-81815214D01*
X93677002Y-81815227D01*
X93616664Y-81960898D01*
X93616661Y-81960910D01*
X93585900Y-82115553D01*
X86866536Y-82115553D01*
X86888713Y-82062014D01*
X86926535Y-81970701D01*
X86926537Y-81970697D01*
X86957300Y-81816042D01*
X86957300Y-81658358D01*
X86957300Y-81658355D01*
X86957299Y-81658353D01*
X86941433Y-81578589D01*
X86926537Y-81503703D01*
X86918791Y-81485002D01*
X86866197Y-81358027D01*
X86866190Y-81358014D01*
X86778589Y-81226911D01*
X86778586Y-81226907D01*
X86667092Y-81115413D01*
X86667088Y-81115410D01*
X86535985Y-81027809D01*
X86535972Y-81027802D01*
X86390301Y-80967464D01*
X86390289Y-80967461D01*
X86235645Y-80936700D01*
X86235642Y-80936700D01*
X86162794Y-80936700D01*
X86095755Y-80917015D01*
X86050000Y-80864211D01*
X86041177Y-80836892D01*
X86012138Y-80690908D01*
X86012137Y-80690907D01*
X86012137Y-80690903D01*
X86012135Y-80690898D01*
X85951797Y-80545227D01*
X85951790Y-80545214D01*
X85864189Y-80414111D01*
X85864186Y-80414107D01*
X85752692Y-80302613D01*
X85752688Y-80302610D01*
X85621585Y-80215009D01*
X85621572Y-80215002D01*
X85475901Y-80154664D01*
X85475889Y-80154661D01*
X85321245Y-80123900D01*
X85321242Y-80123900D01*
X85163558Y-80123900D01*
X85163555Y-80123900D01*
X85008910Y-80154661D01*
X85008898Y-80154664D01*
X84863227Y-80215002D01*
X84863214Y-80215009D01*
X84732111Y-80302610D01*
X84732107Y-80302613D01*
X84620613Y-80414107D01*
X84620610Y-80414111D01*
X84533009Y-80545214D01*
X84533002Y-80545227D01*
X84472664Y-80690898D01*
X84472661Y-80690910D01*
X84441900Y-80845553D01*
X81018500Y-80845553D01*
X81018500Y-79219953D01*
X93331900Y-79219953D01*
X93331900Y-79377646D01*
X93362661Y-79532289D01*
X93362664Y-79532301D01*
X93423002Y-79677972D01*
X93423009Y-79677985D01*
X93510610Y-79809088D01*
X93510613Y-79809092D01*
X93622107Y-79920586D01*
X93622111Y-79920589D01*
X93753214Y-80008190D01*
X93753227Y-80008197D01*
X93846753Y-80046936D01*
X93898903Y-80068537D01*
X94036375Y-80095882D01*
X94053553Y-80099299D01*
X94053556Y-80099300D01*
X94053558Y-80099300D01*
X94211244Y-80099300D01*
X94211245Y-80099299D01*
X94365897Y-80068537D01*
X94511579Y-80008194D01*
X94642689Y-79920589D01*
X94754189Y-79809089D01*
X94774459Y-79778753D01*
X104152300Y-79778753D01*
X104152300Y-79936446D01*
X104183061Y-80091089D01*
X104183064Y-80091101D01*
X104243402Y-80236772D01*
X104243409Y-80236785D01*
X104331010Y-80367888D01*
X104331013Y-80367892D01*
X104442507Y-80479386D01*
X104442511Y-80479389D01*
X104573614Y-80566990D01*
X104573627Y-80566997D01*
X104719298Y-80627335D01*
X104719303Y-80627337D01*
X104873953Y-80658099D01*
X104873956Y-80658100D01*
X104873958Y-80658100D01*
X105031644Y-80658100D01*
X105031645Y-80658099D01*
X105186297Y-80627337D01*
X105331979Y-80566994D01*
X105463089Y-80479389D01*
X105553758Y-80388720D01*
X121220299Y-80388720D01*
X121249140Y-80533707D01*
X121249143Y-80533717D01*
X121305712Y-80670288D01*
X121305719Y-80670301D01*
X121387848Y-80793215D01*
X121387851Y-80793219D01*
X121492380Y-80897748D01*
X121492384Y-80897751D01*
X121615298Y-80979880D01*
X121615311Y-80979887D01*
X121730999Y-81027806D01*
X121751887Y-81036458D01*
X121751891Y-81036458D01*
X121751892Y-81036459D01*
X121896879Y-81065300D01*
X121896882Y-81065300D01*
X122044720Y-81065300D01*
X122142262Y-81045896D01*
X122189713Y-81036458D01*
X122326295Y-80979884D01*
X122449216Y-80897751D01*
X122553751Y-80793216D01*
X122635884Y-80670295D01*
X122692458Y-80533713D01*
X122721300Y-80388720D01*
X123220299Y-80388720D01*
X123249140Y-80533707D01*
X123249143Y-80533717D01*
X123305712Y-80670288D01*
X123305719Y-80670301D01*
X123387848Y-80793215D01*
X123387851Y-80793219D01*
X123492380Y-80897748D01*
X123492384Y-80897751D01*
X123615298Y-80979880D01*
X123615311Y-80979887D01*
X123730999Y-81027806D01*
X123751887Y-81036458D01*
X123751891Y-81036458D01*
X123751892Y-81036459D01*
X123896879Y-81065300D01*
X123896882Y-81065300D01*
X124044720Y-81065300D01*
X124142262Y-81045896D01*
X124189713Y-81036458D01*
X124326295Y-80979884D01*
X124449216Y-80897751D01*
X124553751Y-80793216D01*
X124635884Y-80670295D01*
X124692458Y-80533713D01*
X124721300Y-80388718D01*
X124721300Y-80240882D01*
X124721300Y-80240879D01*
X124692459Y-80095892D01*
X124692458Y-80095891D01*
X124692458Y-80095887D01*
X124681129Y-80068537D01*
X124635887Y-79959311D01*
X124635880Y-79959298D01*
X124553751Y-79836384D01*
X124553748Y-79836380D01*
X124449219Y-79731851D01*
X124449215Y-79731848D01*
X124326301Y-79649719D01*
X124326288Y-79649712D01*
X124189717Y-79593143D01*
X124189707Y-79593140D01*
X124044720Y-79564300D01*
X124044718Y-79564300D01*
X123896882Y-79564300D01*
X123896880Y-79564300D01*
X123751892Y-79593140D01*
X123751882Y-79593143D01*
X123615311Y-79649712D01*
X123615298Y-79649719D01*
X123492384Y-79731848D01*
X123492380Y-79731851D01*
X123387851Y-79836380D01*
X123387848Y-79836384D01*
X123305719Y-79959298D01*
X123305712Y-79959311D01*
X123249143Y-80095882D01*
X123249140Y-80095892D01*
X123220300Y-80240879D01*
X123220300Y-80240882D01*
X123220300Y-80388718D01*
X123220300Y-80388720D01*
X123220299Y-80388720D01*
X122721300Y-80388720D01*
X122721300Y-80388718D01*
X122721300Y-80240882D01*
X122721300Y-80240879D01*
X122692459Y-80095892D01*
X122692458Y-80095891D01*
X122692458Y-80095887D01*
X122681129Y-80068537D01*
X122635887Y-79959311D01*
X122635880Y-79959298D01*
X122553751Y-79836384D01*
X122553748Y-79836380D01*
X122449219Y-79731851D01*
X122449215Y-79731848D01*
X122326301Y-79649719D01*
X122326288Y-79649712D01*
X122189717Y-79593143D01*
X122189707Y-79593140D01*
X122044720Y-79564300D01*
X122044718Y-79564300D01*
X121896882Y-79564300D01*
X121896880Y-79564300D01*
X121751892Y-79593140D01*
X121751882Y-79593143D01*
X121615311Y-79649712D01*
X121615298Y-79649719D01*
X121492384Y-79731848D01*
X121492380Y-79731851D01*
X121387851Y-79836380D01*
X121387848Y-79836384D01*
X121305719Y-79959298D01*
X121305712Y-79959311D01*
X121249143Y-80095882D01*
X121249140Y-80095892D01*
X121220300Y-80240879D01*
X121220300Y-80240882D01*
X121220300Y-80388718D01*
X121220300Y-80388720D01*
X121220299Y-80388720D01*
X105553758Y-80388720D01*
X105574589Y-80367889D01*
X105662194Y-80236779D01*
X105722537Y-80091097D01*
X105725442Y-80076489D01*
X105729297Y-80066509D01*
X105744304Y-80046936D01*
X105755735Y-80025082D01*
X105765191Y-80019696D01*
X105771812Y-80011062D01*
X105795018Y-80002710D01*
X105816449Y-79990506D01*
X105829583Y-79990271D01*
X105837554Y-79987403D01*
X105848566Y-79989932D01*
X105869163Y-79989564D01*
X105889955Y-79993700D01*
X105889958Y-79993700D01*
X106047644Y-79993700D01*
X106047645Y-79993699D01*
X106202297Y-79962937D01*
X106347979Y-79902594D01*
X106479089Y-79814989D01*
X106590589Y-79703489D01*
X106678194Y-79572379D01*
X106738537Y-79426697D01*
X106769300Y-79272042D01*
X106769300Y-79114358D01*
X106769300Y-79114355D01*
X106769299Y-79114353D01*
X106765210Y-79093797D01*
X106738537Y-78959703D01*
X106711607Y-78894688D01*
X106678197Y-78814027D01*
X106678190Y-78814014D01*
X106590589Y-78682911D01*
X106590586Y-78682907D01*
X106479092Y-78571413D01*
X106479088Y-78571410D01*
X106347985Y-78483809D01*
X106347972Y-78483802D01*
X106202301Y-78423464D01*
X106202291Y-78423461D01*
X106190334Y-78421083D01*
X106190333Y-78421082D01*
X106047645Y-78392700D01*
X106047642Y-78392700D01*
X105889958Y-78392700D01*
X105889955Y-78392700D01*
X105735310Y-78423461D01*
X105735298Y-78423464D01*
X105589627Y-78483802D01*
X105589614Y-78483809D01*
X105458511Y-78571410D01*
X105458507Y-78571413D01*
X105347013Y-78682907D01*
X105347010Y-78682911D01*
X105259409Y-78814014D01*
X105259402Y-78814027D01*
X105199064Y-78959698D01*
X105199062Y-78959707D01*
X105198244Y-78963818D01*
X105165854Y-79025727D01*
X105105136Y-79060297D01*
X105052441Y-79061236D01*
X105031645Y-79057100D01*
X105031642Y-79057100D01*
X104873958Y-79057100D01*
X104873955Y-79057100D01*
X104719310Y-79087861D01*
X104719298Y-79087864D01*
X104573627Y-79148202D01*
X104573614Y-79148209D01*
X104442511Y-79235810D01*
X104442507Y-79235813D01*
X104331013Y-79347307D01*
X104331010Y-79347311D01*
X104243409Y-79478414D01*
X104243402Y-79478427D01*
X104183064Y-79624098D01*
X104183061Y-79624110D01*
X104152300Y-79778753D01*
X94774459Y-79778753D01*
X94824750Y-79703488D01*
X94830596Y-79694736D01*
X94841794Y-79677979D01*
X94902137Y-79532297D01*
X94932900Y-79377642D01*
X94932900Y-79219958D01*
X94932900Y-79219955D01*
X94932899Y-79219953D01*
X94918628Y-79148209D01*
X94902137Y-79065303D01*
X94900452Y-79061236D01*
X94841797Y-78919627D01*
X94841790Y-78919614D01*
X94754189Y-78788511D01*
X94754186Y-78788507D01*
X94642692Y-78677013D01*
X94642688Y-78677010D01*
X94511585Y-78589409D01*
X94511575Y-78589404D01*
X94436926Y-78558483D01*
X94382522Y-78514641D01*
X94360458Y-78448347D01*
X94377738Y-78380648D01*
X94428875Y-78333038D01*
X94460188Y-78322305D01*
X94465240Y-78321300D01*
X94465242Y-78321300D01*
X94544407Y-78305553D01*
X107860700Y-78305553D01*
X107860700Y-78463246D01*
X107891461Y-78617889D01*
X107891464Y-78617901D01*
X107951802Y-78763572D01*
X107951809Y-78763585D01*
X108039410Y-78894688D01*
X108039413Y-78894692D01*
X108150907Y-79006186D01*
X108150911Y-79006189D01*
X108282014Y-79093790D01*
X108282027Y-79093797D01*
X108413384Y-79148206D01*
X108427703Y-79154137D01*
X108582353Y-79184899D01*
X108582356Y-79184900D01*
X108582358Y-79184900D01*
X108740044Y-79184900D01*
X108740045Y-79184899D01*
X108894697Y-79154137D01*
X109040379Y-79093794D01*
X109100309Y-79053749D01*
X109166986Y-79032872D01*
X109234366Y-79051356D01*
X109238074Y-79053738D01*
X109298021Y-79093794D01*
X109298023Y-79093795D01*
X109298027Y-79093797D01*
X109429384Y-79148206D01*
X109443703Y-79154137D01*
X109598353Y-79184899D01*
X109598356Y-79184900D01*
X109598358Y-79184900D01*
X109756044Y-79184900D01*
X109756045Y-79184899D01*
X109910697Y-79154137D01*
X110056379Y-79093794D01*
X110187489Y-79006189D01*
X110298989Y-78894689D01*
X110386594Y-78763579D01*
X110446937Y-78617897D01*
X110477700Y-78463242D01*
X110477700Y-78305558D01*
X110477700Y-78305555D01*
X110477699Y-78305553D01*
X110468860Y-78261116D01*
X110446937Y-78150903D01*
X110397309Y-78031089D01*
X110386597Y-78005227D01*
X110386590Y-78005214D01*
X110298989Y-77874111D01*
X110298986Y-77874107D01*
X110183182Y-77758303D01*
X110184096Y-77757388D01*
X110148529Y-77705170D01*
X110146660Y-77635325D01*
X110182849Y-77575558D01*
X110245605Y-77544843D01*
X110290719Y-77545447D01*
X110317320Y-77550739D01*
X110360356Y-77559300D01*
X110360358Y-77559300D01*
X110518044Y-77559300D01*
X110518045Y-77559299D01*
X110672697Y-77528537D01*
X110818379Y-77468194D01*
X110949489Y-77380589D01*
X111060989Y-77269089D01*
X111148594Y-77137979D01*
X111208937Y-76992297D01*
X111239700Y-76837642D01*
X111239700Y-76679958D01*
X111239700Y-76679955D01*
X111239699Y-76679953D01*
X111208938Y-76525306D01*
X111208936Y-76525301D01*
X111194352Y-76490092D01*
X113028891Y-76490092D01*
X113028891Y-76647785D01*
X113059652Y-76802428D01*
X113059655Y-76802440D01*
X113119993Y-76948111D01*
X113120000Y-76948124D01*
X113207601Y-77079227D01*
X113207604Y-77079231D01*
X113319098Y-77190725D01*
X113319102Y-77190728D01*
X113450205Y-77278329D01*
X113450218Y-77278336D01*
X113595889Y-77338674D01*
X113595894Y-77338676D01*
X113750544Y-77369438D01*
X113750547Y-77369439D01*
X113750549Y-77369439D01*
X113908235Y-77369439D01*
X113908236Y-77369438D01*
X114062888Y-77338676D01*
X114175557Y-77292006D01*
X114208563Y-77278336D01*
X114208563Y-77278335D01*
X114208570Y-77278333D01*
X114339680Y-77190728D01*
X114451180Y-77079228D01*
X114538785Y-76948118D01*
X114541528Y-76941497D01*
X114559126Y-76899010D01*
X114599128Y-76802436D01*
X114629891Y-76647781D01*
X114629891Y-76490097D01*
X114629891Y-76490094D01*
X114629890Y-76490092D01*
X114627237Y-76476753D01*
X114609726Y-76388720D01*
X121220299Y-76388720D01*
X121249140Y-76533707D01*
X121249143Y-76533717D01*
X121305712Y-76670288D01*
X121305719Y-76670301D01*
X121387848Y-76793215D01*
X121387851Y-76793219D01*
X121492380Y-76897748D01*
X121492384Y-76897751D01*
X121615298Y-76979880D01*
X121615311Y-76979887D01*
X121751882Y-77036456D01*
X121751887Y-77036458D01*
X121751891Y-77036458D01*
X121751892Y-77036459D01*
X121896879Y-77065300D01*
X121896882Y-77065300D01*
X122044720Y-77065300D01*
X122142262Y-77045896D01*
X122189713Y-77036458D01*
X122326295Y-76979884D01*
X122449216Y-76897751D01*
X122553751Y-76793216D01*
X122635884Y-76670295D01*
X122692458Y-76533713D01*
X122703788Y-76476753D01*
X122721300Y-76388720D01*
X123220299Y-76388720D01*
X123249140Y-76533707D01*
X123249143Y-76533717D01*
X123305712Y-76670288D01*
X123305719Y-76670301D01*
X123387848Y-76793215D01*
X123387851Y-76793219D01*
X123492380Y-76897748D01*
X123492384Y-76897751D01*
X123615298Y-76979880D01*
X123615311Y-76979887D01*
X123751882Y-77036456D01*
X123751887Y-77036458D01*
X123751891Y-77036458D01*
X123751892Y-77036459D01*
X123896879Y-77065300D01*
X123896882Y-77065300D01*
X124044720Y-77065300D01*
X124142262Y-77045896D01*
X124189713Y-77036458D01*
X124326295Y-76979884D01*
X124449216Y-76897751D01*
X124553751Y-76793216D01*
X124635884Y-76670295D01*
X124692458Y-76533713D01*
X124703788Y-76476753D01*
X124721300Y-76388720D01*
X124721300Y-76240879D01*
X124692459Y-76095892D01*
X124692458Y-76095891D01*
X124692458Y-76095887D01*
X124681882Y-76070355D01*
X124635887Y-75959311D01*
X124635880Y-75959298D01*
X124553751Y-75836384D01*
X124553748Y-75836380D01*
X124449219Y-75731851D01*
X124449215Y-75731848D01*
X124326301Y-75649719D01*
X124326288Y-75649712D01*
X124189717Y-75593143D01*
X124189707Y-75593140D01*
X124044720Y-75564300D01*
X124044718Y-75564300D01*
X123896882Y-75564300D01*
X123896880Y-75564300D01*
X123751892Y-75593140D01*
X123751882Y-75593143D01*
X123615311Y-75649712D01*
X123615298Y-75649719D01*
X123492384Y-75731848D01*
X123492380Y-75731851D01*
X123387851Y-75836380D01*
X123387848Y-75836384D01*
X123305719Y-75959298D01*
X123305712Y-75959311D01*
X123249143Y-76095882D01*
X123249140Y-76095892D01*
X123220300Y-76240879D01*
X123220300Y-76240882D01*
X123220300Y-76388718D01*
X123220300Y-76388720D01*
X123220299Y-76388720D01*
X122721300Y-76388720D01*
X122721300Y-76240879D01*
X122692459Y-76095892D01*
X122692458Y-76095891D01*
X122692458Y-76095887D01*
X122681882Y-76070355D01*
X122635887Y-75959311D01*
X122635880Y-75959298D01*
X122553751Y-75836384D01*
X122553748Y-75836380D01*
X122449219Y-75731851D01*
X122449215Y-75731848D01*
X122326301Y-75649719D01*
X122326288Y-75649712D01*
X122189717Y-75593143D01*
X122189707Y-75593140D01*
X122044720Y-75564300D01*
X122044718Y-75564300D01*
X121896882Y-75564300D01*
X121896880Y-75564300D01*
X121751892Y-75593140D01*
X121751882Y-75593143D01*
X121615311Y-75649712D01*
X121615298Y-75649719D01*
X121492384Y-75731848D01*
X121492380Y-75731851D01*
X121387851Y-75836380D01*
X121387848Y-75836384D01*
X121305719Y-75959298D01*
X121305712Y-75959311D01*
X121249143Y-76095882D01*
X121249140Y-76095892D01*
X121220300Y-76240879D01*
X121220300Y-76240882D01*
X121220300Y-76388718D01*
X121220300Y-76388720D01*
X121220299Y-76388720D01*
X114609726Y-76388720D01*
X114599128Y-76335442D01*
X114559959Y-76240879D01*
X114538788Y-76189765D01*
X114538781Y-76189753D01*
X114451180Y-76058650D01*
X114451177Y-76058646D01*
X114339683Y-75947152D01*
X114339679Y-75947149D01*
X114208576Y-75859548D01*
X114208563Y-75859541D01*
X114062892Y-75799203D01*
X114062880Y-75799200D01*
X113908236Y-75768439D01*
X113908233Y-75768439D01*
X113750549Y-75768439D01*
X113750546Y-75768439D01*
X113595901Y-75799200D01*
X113595889Y-75799203D01*
X113450218Y-75859541D01*
X113450205Y-75859548D01*
X113319102Y-75947149D01*
X113319098Y-75947152D01*
X113207604Y-76058646D01*
X113207601Y-76058650D01*
X113120000Y-76189753D01*
X113119993Y-76189766D01*
X113059655Y-76335437D01*
X113059652Y-76335449D01*
X113028891Y-76490092D01*
X111194352Y-76490092D01*
X111148597Y-76379627D01*
X111148590Y-76379614D01*
X111060989Y-76248511D01*
X111060986Y-76248507D01*
X110949492Y-76137013D01*
X110949488Y-76137010D01*
X110818385Y-76049409D01*
X110818372Y-76049402D01*
X110672701Y-75989064D01*
X110672689Y-75989061D01*
X110518045Y-75958300D01*
X110518042Y-75958300D01*
X110360358Y-75958300D01*
X110360355Y-75958300D01*
X110205710Y-75989061D01*
X110205698Y-75989064D01*
X110060027Y-76049402D01*
X110060014Y-76049409D01*
X109928911Y-76137010D01*
X109928907Y-76137013D01*
X109817413Y-76248507D01*
X109817410Y-76248511D01*
X109729809Y-76379614D01*
X109729802Y-76379627D01*
X109669464Y-76525298D01*
X109669461Y-76525310D01*
X109638700Y-76679953D01*
X109638700Y-76837646D01*
X109669461Y-76992289D01*
X109669464Y-76992301D01*
X109729802Y-77137972D01*
X109729809Y-77137985D01*
X109817410Y-77269088D01*
X109817413Y-77269092D01*
X109933218Y-77384897D01*
X109932302Y-77385812D01*
X109967869Y-77438026D01*
X109969740Y-77507871D01*
X109933552Y-77567639D01*
X109870797Y-77598355D01*
X109825679Y-77597751D01*
X109756045Y-77583900D01*
X109756042Y-77583900D01*
X109598358Y-77583900D01*
X109598355Y-77583900D01*
X109443710Y-77614661D01*
X109443698Y-77614664D01*
X109298028Y-77675002D01*
X109298015Y-77675009D01*
X109238091Y-77715050D01*
X109171413Y-77735928D01*
X109104033Y-77717443D01*
X109100309Y-77715050D01*
X109040384Y-77675009D01*
X109040381Y-77675007D01*
X109040379Y-77675006D01*
X109040376Y-77675004D01*
X109040371Y-77675002D01*
X108894701Y-77614664D01*
X108894689Y-77614661D01*
X108740045Y-77583900D01*
X108740042Y-77583900D01*
X108582358Y-77583900D01*
X108582355Y-77583900D01*
X108427710Y-77614661D01*
X108427698Y-77614664D01*
X108282027Y-77675002D01*
X108282014Y-77675009D01*
X108150911Y-77762610D01*
X108150907Y-77762613D01*
X108039413Y-77874107D01*
X108039410Y-77874111D01*
X107951809Y-78005214D01*
X107951802Y-78005227D01*
X107891464Y-78150898D01*
X107891461Y-78150910D01*
X107860700Y-78305553D01*
X94544407Y-78305553D01*
X94619897Y-78290537D01*
X94765579Y-78230194D01*
X94896689Y-78142589D01*
X95008189Y-78031089D01*
X95095794Y-77899979D01*
X95156137Y-77754297D01*
X95186900Y-77599642D01*
X95186900Y-77441958D01*
X95186900Y-77441955D01*
X95186899Y-77441953D01*
X95172475Y-77369438D01*
X95156137Y-77287303D01*
X95146898Y-77264997D01*
X95095797Y-77141627D01*
X95095790Y-77141614D01*
X95008189Y-77010511D01*
X95008186Y-77010507D01*
X94896692Y-76899013D01*
X94896688Y-76899010D01*
X94765585Y-76811409D01*
X94765572Y-76811402D01*
X94619901Y-76751064D01*
X94619889Y-76751061D01*
X94465245Y-76720300D01*
X94465242Y-76720300D01*
X94307558Y-76720300D01*
X94307555Y-76720300D01*
X94152910Y-76751061D01*
X94152898Y-76751064D01*
X94007227Y-76811402D01*
X94007214Y-76811409D01*
X93876111Y-76899010D01*
X93876107Y-76899013D01*
X93764613Y-77010507D01*
X93764610Y-77010511D01*
X93677009Y-77141614D01*
X93677002Y-77141627D01*
X93616664Y-77287298D01*
X93616661Y-77287310D01*
X93585900Y-77441953D01*
X93585900Y-77599646D01*
X93616661Y-77754289D01*
X93616664Y-77754301D01*
X93677002Y-77899972D01*
X93677009Y-77899985D01*
X93764610Y-78031088D01*
X93764613Y-78031092D01*
X93876107Y-78142586D01*
X93876111Y-78142589D01*
X94007214Y-78230190D01*
X94007223Y-78230195D01*
X94081873Y-78261116D01*
X94136276Y-78304957D01*
X94158341Y-78371251D01*
X94141062Y-78438950D01*
X94089925Y-78486561D01*
X94058612Y-78497294D01*
X93898908Y-78529061D01*
X93898898Y-78529064D01*
X93753227Y-78589402D01*
X93753214Y-78589409D01*
X93622111Y-78677010D01*
X93622107Y-78677013D01*
X93510613Y-78788507D01*
X93510610Y-78788511D01*
X93423009Y-78919614D01*
X93423002Y-78919627D01*
X93362664Y-79065298D01*
X93362661Y-79065310D01*
X93331900Y-79219953D01*
X81018500Y-79219953D01*
X81018500Y-76476753D01*
X90436300Y-76476753D01*
X90436300Y-76634446D01*
X90467061Y-76789089D01*
X90467064Y-76789101D01*
X90527402Y-76934772D01*
X90527409Y-76934785D01*
X90615010Y-77065888D01*
X90615013Y-77065892D01*
X90726507Y-77177386D01*
X90726511Y-77177389D01*
X90857614Y-77264990D01*
X90857627Y-77264997D01*
X90954929Y-77305300D01*
X91003303Y-77325337D01*
X91157953Y-77356099D01*
X91157956Y-77356100D01*
X91157958Y-77356100D01*
X91315644Y-77356100D01*
X91315645Y-77356099D01*
X91470297Y-77325337D01*
X91592945Y-77274535D01*
X91615972Y-77264997D01*
X91615972Y-77264996D01*
X91615979Y-77264994D01*
X91747089Y-77177389D01*
X91858589Y-77065889D01*
X91935820Y-76950305D01*
X91989432Y-76905500D01*
X92058757Y-76896793D01*
X92086374Y-76904635D01*
X92120898Y-76918935D01*
X92120903Y-76918937D01*
X92267570Y-76948111D01*
X92275553Y-76949699D01*
X92275556Y-76949700D01*
X92275558Y-76949700D01*
X92433244Y-76949700D01*
X92433245Y-76949699D01*
X92587897Y-76918937D01*
X92733579Y-76858594D01*
X92864689Y-76770989D01*
X92976189Y-76659489D01*
X93063794Y-76528379D01*
X93124137Y-76382697D01*
X93125638Y-76375153D01*
X96633900Y-76375153D01*
X96633900Y-76532846D01*
X96664661Y-76687489D01*
X96664664Y-76687501D01*
X96725002Y-76833172D01*
X96725009Y-76833185D01*
X96812610Y-76964288D01*
X96812613Y-76964292D01*
X96924107Y-77075786D01*
X96924111Y-77075789D01*
X97055214Y-77163390D01*
X97055227Y-77163397D01*
X97200898Y-77223735D01*
X97200903Y-77223737D01*
X97355553Y-77254499D01*
X97355556Y-77254500D01*
X97355558Y-77254500D01*
X97513244Y-77254500D01*
X97513245Y-77254499D01*
X97667897Y-77223737D01*
X97813579Y-77163394D01*
X97944689Y-77075789D01*
X98056189Y-76964289D01*
X98143794Y-76833179D01*
X98204137Y-76687497D01*
X98214690Y-76634446D01*
X98215743Y-76629153D01*
X100697900Y-76629153D01*
X100697900Y-76786846D01*
X100728661Y-76941489D01*
X100728664Y-76941501D01*
X100789002Y-77087172D01*
X100789009Y-77087185D01*
X100876610Y-77218288D01*
X100876613Y-77218292D01*
X100988107Y-77329786D01*
X100988111Y-77329789D01*
X101119214Y-77417390D01*
X101119227Y-77417397D01*
X101241854Y-77468190D01*
X101264903Y-77477737D01*
X101416396Y-77507871D01*
X101419553Y-77508499D01*
X101419556Y-77508500D01*
X101419558Y-77508500D01*
X101577244Y-77508500D01*
X101577245Y-77508499D01*
X101731897Y-77477737D01*
X101877579Y-77417394D01*
X102008689Y-77329789D01*
X102120189Y-77218289D01*
X102207794Y-77087179D01*
X102268137Y-76941497D01*
X102298900Y-76786842D01*
X102298900Y-76629158D01*
X102298900Y-76629155D01*
X102298899Y-76629153D01*
X102279915Y-76533717D01*
X102268137Y-76474503D01*
X102248027Y-76425953D01*
X104304700Y-76425953D01*
X104304700Y-76583646D01*
X104335461Y-76738289D01*
X104335464Y-76738301D01*
X104395802Y-76883972D01*
X104395809Y-76883985D01*
X104483410Y-77015088D01*
X104483413Y-77015092D01*
X104594907Y-77126586D01*
X104594911Y-77126589D01*
X104726014Y-77214190D01*
X104726027Y-77214197D01*
X104871698Y-77274535D01*
X104871703Y-77274537D01*
X105026353Y-77305299D01*
X105026356Y-77305300D01*
X105026358Y-77305300D01*
X105184044Y-77305300D01*
X105184045Y-77305299D01*
X105338697Y-77274537D01*
X105461345Y-77223735D01*
X105484372Y-77214197D01*
X105484372Y-77214196D01*
X105484379Y-77214194D01*
X105615489Y-77126589D01*
X105726989Y-77015089D01*
X105814594Y-76883979D01*
X105825108Y-76858597D01*
X105854829Y-76786842D01*
X105874937Y-76738297D01*
X105905700Y-76583642D01*
X105905700Y-76425958D01*
X105905700Y-76425955D01*
X105905699Y-76425953D01*
X105898292Y-76388718D01*
X105874937Y-76271303D01*
X105853893Y-76220498D01*
X105814597Y-76125627D01*
X105814590Y-76125614D01*
X105726989Y-75994511D01*
X105726986Y-75994507D01*
X105615492Y-75883013D01*
X105615488Y-75883010D01*
X105484385Y-75795409D01*
X105484372Y-75795402D01*
X105338701Y-75735064D01*
X105338689Y-75735061D01*
X105184045Y-75704300D01*
X105184042Y-75704300D01*
X105026358Y-75704300D01*
X105026355Y-75704300D01*
X104871710Y-75735061D01*
X104871698Y-75735064D01*
X104726027Y-75795402D01*
X104726014Y-75795409D01*
X104594911Y-75883010D01*
X104594907Y-75883013D01*
X104483413Y-75994507D01*
X104483410Y-75994511D01*
X104395809Y-76125614D01*
X104395802Y-76125627D01*
X104335464Y-76271298D01*
X104335461Y-76271310D01*
X104304700Y-76425953D01*
X102248027Y-76425953D01*
X102230108Y-76382691D01*
X102207797Y-76328827D01*
X102207790Y-76328814D01*
X102120189Y-76197711D01*
X102120186Y-76197707D01*
X102008692Y-76086213D01*
X102008688Y-76086210D01*
X101877585Y-75998609D01*
X101877572Y-75998602D01*
X101731901Y-75938264D01*
X101731889Y-75938261D01*
X101577245Y-75907500D01*
X101577242Y-75907500D01*
X101419558Y-75907500D01*
X101419555Y-75907500D01*
X101264910Y-75938261D01*
X101264898Y-75938264D01*
X101119227Y-75998602D01*
X101119214Y-75998609D01*
X100988111Y-76086210D01*
X100988107Y-76086213D01*
X100876613Y-76197707D01*
X100876610Y-76197711D01*
X100789009Y-76328814D01*
X100789002Y-76328827D01*
X100728664Y-76474498D01*
X100728661Y-76474510D01*
X100697900Y-76629153D01*
X98215743Y-76629153D01*
X98221766Y-76598874D01*
X98221766Y-76598873D01*
X98234899Y-76532846D01*
X98234900Y-76532844D01*
X98234900Y-76375155D01*
X98234899Y-76375153D01*
X98225683Y-76328821D01*
X98204137Y-76220503D01*
X98194695Y-76197707D01*
X98143797Y-76074827D01*
X98143790Y-76074814D01*
X98056189Y-75943711D01*
X98056186Y-75943707D01*
X97944692Y-75832213D01*
X97944688Y-75832210D01*
X97813585Y-75744609D01*
X97813572Y-75744602D01*
X97667901Y-75684264D01*
X97667889Y-75684261D01*
X97513245Y-75653500D01*
X97513242Y-75653500D01*
X97355558Y-75653500D01*
X97355555Y-75653500D01*
X97200910Y-75684261D01*
X97200898Y-75684264D01*
X97055227Y-75744602D01*
X97055214Y-75744609D01*
X96924111Y-75832210D01*
X96924107Y-75832213D01*
X96812613Y-75943707D01*
X96812610Y-75943711D01*
X96725009Y-76074814D01*
X96725002Y-76074827D01*
X96664664Y-76220498D01*
X96664661Y-76220510D01*
X96633900Y-76375153D01*
X93125638Y-76375153D01*
X93133536Y-76335449D01*
X93152346Y-76240882D01*
X93154900Y-76228042D01*
X93154900Y-76070358D01*
X93154900Y-76070355D01*
X93154899Y-76070353D01*
X93124139Y-75915711D01*
X93123667Y-75914155D01*
X93123659Y-75913298D01*
X93122949Y-75909728D01*
X93123626Y-75909593D01*
X93123040Y-75844288D01*
X93160286Y-75785173D01*
X93218135Y-75756537D01*
X93229637Y-75754248D01*
X93248297Y-75750537D01*
X93393979Y-75690194D01*
X93525089Y-75602589D01*
X93636589Y-75491089D01*
X93724194Y-75359979D01*
X93784537Y-75214297D01*
X93815300Y-75059642D01*
X93815300Y-74901958D01*
X93815300Y-74901955D01*
X93815299Y-74901953D01*
X93785150Y-74750385D01*
X93784537Y-74747303D01*
X93784535Y-74747298D01*
X93724197Y-74601627D01*
X93724190Y-74601614D01*
X93636589Y-74470511D01*
X93636586Y-74470507D01*
X93525092Y-74359013D01*
X93525088Y-74359010D01*
X93393985Y-74271409D01*
X93393972Y-74271402D01*
X93248301Y-74211064D01*
X93248289Y-74211061D01*
X93093645Y-74180300D01*
X93093642Y-74180300D01*
X92935958Y-74180300D01*
X92935955Y-74180300D01*
X92781310Y-74211061D01*
X92781298Y-74211064D01*
X92635627Y-74271402D01*
X92635614Y-74271409D01*
X92504511Y-74359010D01*
X92504507Y-74359013D01*
X92393013Y-74470507D01*
X92393010Y-74470511D01*
X92305409Y-74601614D01*
X92305402Y-74601627D01*
X92245064Y-74747298D01*
X92245061Y-74747310D01*
X92214300Y-74901953D01*
X92214300Y-75059646D01*
X92245061Y-75214294D01*
X92245535Y-75215854D01*
X92245542Y-75216710D01*
X92246251Y-75220272D01*
X92245575Y-75220406D01*
X92246156Y-75285721D01*
X92208905Y-75344833D01*
X92151068Y-75373462D01*
X92120904Y-75379462D01*
X92120898Y-75379464D01*
X91975227Y-75439802D01*
X91975214Y-75439809D01*
X91844111Y-75527410D01*
X91844107Y-75527413D01*
X91732613Y-75638907D01*
X91732610Y-75638911D01*
X91655380Y-75754495D01*
X91601768Y-75799300D01*
X91532443Y-75808007D01*
X91504829Y-75800166D01*
X91470297Y-75785863D01*
X91470293Y-75785862D01*
X91470288Y-75785860D01*
X91315645Y-75755100D01*
X91315642Y-75755100D01*
X91157958Y-75755100D01*
X91157955Y-75755100D01*
X91003310Y-75785861D01*
X91003298Y-75785864D01*
X90857627Y-75846202D01*
X90857614Y-75846209D01*
X90726511Y-75933810D01*
X90726507Y-75933813D01*
X90615013Y-76045307D01*
X90615010Y-76045311D01*
X90527409Y-76176414D01*
X90527402Y-76176427D01*
X90467064Y-76322098D01*
X90467061Y-76322110D01*
X90436300Y-76476753D01*
X81018500Y-76476753D01*
X81018500Y-74292353D01*
X88861500Y-74292353D01*
X88861500Y-74450046D01*
X88892261Y-74604689D01*
X88892264Y-74604701D01*
X88952602Y-74750372D01*
X88952609Y-74750385D01*
X89040210Y-74881488D01*
X89040213Y-74881492D01*
X89151707Y-74992986D01*
X89151711Y-74992989D01*
X89282814Y-75080590D01*
X89282827Y-75080597D01*
X89414894Y-75135300D01*
X89428503Y-75140937D01*
X89548847Y-75164875D01*
X89583153Y-75171699D01*
X89583156Y-75171700D01*
X89583158Y-75171700D01*
X89740844Y-75171700D01*
X89740845Y-75171699D01*
X89895497Y-75140937D01*
X90008166Y-75094267D01*
X90041172Y-75080597D01*
X90041172Y-75080596D01*
X90041179Y-75080594D01*
X90172289Y-74992989D01*
X90283789Y-74881489D01*
X90371394Y-74750379D01*
X90431737Y-74604697D01*
X90462500Y-74450042D01*
X90462500Y-74292358D01*
X90462500Y-74286266D01*
X90465047Y-74286266D01*
X90475968Y-74228554D01*
X90524013Y-74177825D01*
X90538908Y-74170448D01*
X90549179Y-74166194D01*
X90680289Y-74078589D01*
X90791789Y-73967089D01*
X90879394Y-73835979D01*
X90881857Y-73830034D01*
X90893067Y-73802966D01*
X90939737Y-73690297D01*
X90970500Y-73535642D01*
X90970500Y-73377958D01*
X90962828Y-73339390D01*
X90965409Y-73310543D01*
X90965087Y-73281589D01*
X90968484Y-73276171D01*
X90969054Y-73269801D01*
X90986820Y-73246929D01*
X91002205Y-73222395D01*
X91009349Y-73217926D01*
X91011916Y-73214623D01*
X91031682Y-73202984D01*
X91034273Y-73201765D01*
X91158779Y-73150194D01*
X91193981Y-73126671D01*
X91202382Y-73122722D01*
X91228099Y-73118731D01*
X91252929Y-73110957D01*
X91268964Y-73112391D01*
X91271426Y-73112010D01*
X91273127Y-73112764D01*
X91279337Y-73113320D01*
X91411955Y-73139700D01*
X91411958Y-73139700D01*
X91569644Y-73139700D01*
X91569645Y-73139699D01*
X91724297Y-73108937D01*
X91869979Y-73048594D01*
X92001089Y-72960989D01*
X92112589Y-72849489D01*
X92200194Y-72718379D01*
X92260537Y-72572697D01*
X92288635Y-72431440D01*
X92321020Y-72369529D01*
X92381735Y-72334955D01*
X92451505Y-72338694D01*
X92508177Y-72379560D01*
X92531869Y-72431439D01*
X92549861Y-72521891D01*
X92549864Y-72521901D01*
X92610202Y-72667572D01*
X92610209Y-72667585D01*
X92697810Y-72798688D01*
X92697813Y-72798692D01*
X92809307Y-72910186D01*
X92809311Y-72910189D01*
X92940414Y-72997790D01*
X92940427Y-72997797D01*
X93063054Y-73048590D01*
X93086103Y-73058137D01*
X93240753Y-73088899D01*
X93240756Y-73088900D01*
X93240758Y-73088900D01*
X93398444Y-73088900D01*
X93398445Y-73088899D01*
X93553097Y-73058137D01*
X93675170Y-73007573D01*
X93698772Y-72997797D01*
X93698772Y-72997796D01*
X93698779Y-72997794D01*
X93829889Y-72910189D01*
X93941389Y-72798689D01*
X93961659Y-72768353D01*
X100393100Y-72768353D01*
X100393100Y-72926046D01*
X100423861Y-73080689D01*
X100423864Y-73080701D01*
X100484202Y-73226372D01*
X100484209Y-73226385D01*
X100571810Y-73357488D01*
X100571813Y-73357492D01*
X100683307Y-73468986D01*
X100683311Y-73468989D01*
X100814414Y-73556590D01*
X100814427Y-73556597D01*
X100937054Y-73607390D01*
X100960103Y-73616937D01*
X101114753Y-73647699D01*
X101114756Y-73647700D01*
X101114758Y-73647700D01*
X101272444Y-73647700D01*
X101272445Y-73647699D01*
X101427097Y-73616937D01*
X101572779Y-73556594D01*
X101683510Y-73482605D01*
X101750186Y-73461728D01*
X101817566Y-73480212D01*
X101821271Y-73482593D01*
X101932021Y-73556594D01*
X101932023Y-73556595D01*
X101932027Y-73556597D01*
X102054654Y-73607390D01*
X102077703Y-73616937D01*
X102232353Y-73647699D01*
X102232356Y-73647700D01*
X102232358Y-73647700D01*
X102390044Y-73647700D01*
X102390045Y-73647699D01*
X102544697Y-73616937D01*
X102690379Y-73556594D01*
X102821489Y-73468989D01*
X102832026Y-73458452D01*
X102858519Y-73431960D01*
X102919842Y-73398475D01*
X102989534Y-73403459D01*
X103033881Y-73431960D01*
X103070907Y-73468986D01*
X103070911Y-73468989D01*
X103202014Y-73556590D01*
X103202027Y-73556597D01*
X103324654Y-73607390D01*
X103347703Y-73616937D01*
X103502353Y-73647699D01*
X103502356Y-73647700D01*
X103502358Y-73647700D01*
X103660044Y-73647700D01*
X103660045Y-73647699D01*
X103814697Y-73616937D01*
X103960379Y-73556594D01*
X104071110Y-73482605D01*
X104137786Y-73461728D01*
X104205166Y-73480212D01*
X104208871Y-73482593D01*
X104319621Y-73556594D01*
X104319623Y-73556595D01*
X104319627Y-73556597D01*
X104442254Y-73607390D01*
X104465303Y-73616937D01*
X104576357Y-73639027D01*
X104638268Y-73671411D01*
X104655268Y-73691754D01*
X104737407Y-73814684D01*
X104737413Y-73814692D01*
X104848907Y-73926186D01*
X104848911Y-73926189D01*
X104980014Y-74013790D01*
X104980027Y-74013797D01*
X105125698Y-74074135D01*
X105125703Y-74074137D01*
X105280353Y-74104899D01*
X105280356Y-74104900D01*
X105280358Y-74104900D01*
X105438044Y-74104900D01*
X105438045Y-74104899D01*
X105592697Y-74074137D01*
X105738379Y-74013794D01*
X105869489Y-73926189D01*
X105980989Y-73814689D01*
X106068594Y-73683579D01*
X106073599Y-73671497D01*
X106100149Y-73607397D01*
X106128937Y-73537897D01*
X106128937Y-73537894D01*
X106129881Y-73534786D01*
X106130818Y-73533355D01*
X106131268Y-73532270D01*
X106131473Y-73532355D01*
X106168179Y-73476347D01*
X106231991Y-73447891D01*
X106301058Y-73458452D01*
X106336222Y-73483101D01*
X106372907Y-73519786D01*
X106372911Y-73519789D01*
X106504014Y-73607390D01*
X106504027Y-73607397D01*
X106649698Y-73667735D01*
X106649703Y-73667737D01*
X106770444Y-73691754D01*
X106804353Y-73698499D01*
X106804356Y-73698500D01*
X106804358Y-73698500D01*
X106962044Y-73698500D01*
X106962045Y-73698499D01*
X107116697Y-73667737D01*
X107262379Y-73607394D01*
X107393489Y-73519789D01*
X107504989Y-73408289D01*
X107592594Y-73277179D01*
X107652937Y-73131497D01*
X107658395Y-73104056D01*
X107690779Y-73042148D01*
X107751494Y-73007573D01*
X107821263Y-73011312D01*
X107848901Y-73025146D01*
X107960021Y-73099394D01*
X107960023Y-73099395D01*
X107960027Y-73099397D01*
X108057329Y-73139700D01*
X108105703Y-73159737D01*
X108260353Y-73190499D01*
X108260356Y-73190500D01*
X108260358Y-73190500D01*
X108418044Y-73190500D01*
X108418045Y-73190499D01*
X108572697Y-73159737D01*
X108718379Y-73099394D01*
X108849489Y-73011789D01*
X108960989Y-72900289D01*
X109048594Y-72769179D01*
X109108937Y-72623497D01*
X109110438Y-72615953D01*
X110214700Y-72615953D01*
X110214700Y-72773646D01*
X110245461Y-72928289D01*
X110245464Y-72928301D01*
X110305802Y-73073972D01*
X110305809Y-73073985D01*
X110393410Y-73205088D01*
X110393413Y-73205092D01*
X110504907Y-73316586D01*
X110504911Y-73316589D01*
X110636014Y-73404190D01*
X110636027Y-73404197D01*
X110767012Y-73458452D01*
X110781703Y-73464537D01*
X110936353Y-73495299D01*
X110936356Y-73495300D01*
X110936358Y-73495300D01*
X111094044Y-73495300D01*
X111094045Y-73495299D01*
X111248697Y-73464537D01*
X111361366Y-73417867D01*
X111394372Y-73404197D01*
X111394372Y-73404196D01*
X111394379Y-73404194D01*
X111461788Y-73359153D01*
X115360300Y-73359153D01*
X115360300Y-73516846D01*
X115391061Y-73671489D01*
X115391064Y-73671501D01*
X115451402Y-73817172D01*
X115451409Y-73817184D01*
X115457508Y-73826313D01*
X115478383Y-73892992D01*
X115459896Y-73960371D01*
X115457508Y-73964087D01*
X115451409Y-73973215D01*
X115451402Y-73973227D01*
X115391064Y-74118898D01*
X115391061Y-74118910D01*
X115360300Y-74273553D01*
X115360300Y-74431246D01*
X115391061Y-74585889D01*
X115391064Y-74585901D01*
X115451402Y-74731572D01*
X115451409Y-74731585D01*
X115539010Y-74862688D01*
X115539013Y-74862692D01*
X115650507Y-74974186D01*
X115650511Y-74974189D01*
X115781614Y-75061790D01*
X115781627Y-75061797D01*
X115927298Y-75122135D01*
X115927303Y-75122137D01*
X116081953Y-75152899D01*
X116081956Y-75152900D01*
X116081958Y-75152900D01*
X116239644Y-75152900D01*
X116239645Y-75152899D01*
X116394297Y-75122137D01*
X116539979Y-75061794D01*
X116671089Y-74974189D01*
X116782589Y-74862689D01*
X116870194Y-74731579D01*
X116930537Y-74585897D01*
X116961300Y-74431242D01*
X116961300Y-74273558D01*
X116961300Y-74273555D01*
X116961299Y-74273553D01*
X116948452Y-74208968D01*
X116930537Y-74118903D01*
X116924737Y-74104900D01*
X116870197Y-73973227D01*
X116870195Y-73973224D01*
X116870194Y-73973221D01*
X116864091Y-73964087D01*
X116858117Y-73945008D01*
X116847611Y-73927998D01*
X116847891Y-73912349D01*
X116843215Y-73897415D01*
X116844084Y-73894248D01*
X117500300Y-73894248D01*
X117500300Y-74075351D01*
X117528629Y-74254210D01*
X117584587Y-74426436D01*
X117584588Y-74426439D01*
X117640464Y-74536100D01*
X117665839Y-74585901D01*
X117666806Y-74587797D01*
X117773241Y-74734294D01*
X117773245Y-74734299D01*
X117901300Y-74862354D01*
X117901305Y-74862358D01*
X117991916Y-74928190D01*
X118047806Y-74968796D01*
X118146923Y-75019299D01*
X118209160Y-75051011D01*
X118209163Y-75051012D01*
X118242348Y-75061794D01*
X118381391Y-75106971D01*
X118464229Y-75120091D01*
X118560249Y-75135300D01*
X118560254Y-75135300D01*
X119016852Y-75135300D01*
X119083891Y-75154985D01*
X119129646Y-75207789D01*
X119139590Y-75276947D01*
X119136627Y-75291390D01*
X119120300Y-75352325D01*
X119120300Y-75497275D01*
X119148519Y-75602589D01*
X119157817Y-75637288D01*
X119230288Y-75762811D01*
X119230290Y-75762813D01*
X119230291Y-75762815D01*
X119332785Y-75865309D01*
X119332786Y-75865310D01*
X119332788Y-75865311D01*
X119458311Y-75937782D01*
X119458312Y-75937782D01*
X119458315Y-75937784D01*
X119598325Y-75975300D01*
X119598328Y-75975300D01*
X119743272Y-75975300D01*
X119743275Y-75975300D01*
X119883285Y-75937784D01*
X120008815Y-75865309D01*
X120111309Y-75762815D01*
X120183784Y-75637285D01*
X120221300Y-75497275D01*
X120221300Y-75352325D01*
X120183784Y-75212315D01*
X120160335Y-75171700D01*
X120156395Y-75164875D01*
X120139922Y-75096975D01*
X120162774Y-75030948D01*
X120207488Y-74992390D01*
X120215054Y-74988535D01*
X120253794Y-74968796D01*
X120400301Y-74862353D01*
X120528353Y-74734301D01*
X120634796Y-74587794D01*
X120717011Y-74426439D01*
X120772971Y-74254209D01*
X120791067Y-74139955D01*
X120801300Y-74075351D01*
X120801300Y-73894248D01*
X121800300Y-73894248D01*
X121800300Y-74075351D01*
X121828629Y-74254210D01*
X121884587Y-74426436D01*
X121884588Y-74426439D01*
X121940464Y-74536100D01*
X121965839Y-74585901D01*
X121966806Y-74587797D01*
X122073241Y-74734294D01*
X122073245Y-74734299D01*
X122201300Y-74862354D01*
X122201305Y-74862358D01*
X122291916Y-74928190D01*
X122347806Y-74968796D01*
X122446923Y-75019299D01*
X122509160Y-75051011D01*
X122509163Y-75051012D01*
X122542348Y-75061794D01*
X122681391Y-75106971D01*
X122764229Y-75120091D01*
X122860249Y-75135300D01*
X122860254Y-75135300D01*
X123841351Y-75135300D01*
X123928059Y-75121565D01*
X124020209Y-75106971D01*
X124192439Y-75051011D01*
X124353794Y-74968796D01*
X124500301Y-74862353D01*
X124628353Y-74734301D01*
X124734796Y-74587794D01*
X124817011Y-74426439D01*
X124872971Y-74254209D01*
X124891068Y-74139953D01*
X126301100Y-74139953D01*
X126301100Y-74297646D01*
X126331861Y-74452289D01*
X126331864Y-74452301D01*
X126392202Y-74597972D01*
X126392209Y-74597985D01*
X126479810Y-74729088D01*
X126479813Y-74729092D01*
X126591307Y-74840586D01*
X126591311Y-74840589D01*
X126722414Y-74928190D01*
X126722427Y-74928197D01*
X126868098Y-74988535D01*
X126868103Y-74988537D01*
X127022753Y-75019299D01*
X127022756Y-75019300D01*
X127022758Y-75019300D01*
X127180444Y-75019300D01*
X127180445Y-75019299D01*
X127335097Y-74988537D01*
X127480779Y-74928194D01*
X127611889Y-74840589D01*
X127723389Y-74729089D01*
X127810994Y-74597979D01*
X127815212Y-74587797D01*
X127824667Y-74564966D01*
X127871337Y-74452297D01*
X127902100Y-74297642D01*
X127902100Y-74139958D01*
X127902100Y-74139955D01*
X127902099Y-74139953D01*
X127889249Y-74075351D01*
X127871337Y-73985303D01*
X127861010Y-73960371D01*
X127810997Y-73839627D01*
X127810990Y-73839614D01*
X127723389Y-73708511D01*
X127723386Y-73708507D01*
X127611892Y-73597013D01*
X127611888Y-73597010D01*
X127480785Y-73509409D01*
X127480772Y-73509402D01*
X127335101Y-73449064D01*
X127335089Y-73449061D01*
X127180445Y-73418300D01*
X127180442Y-73418300D01*
X127022758Y-73418300D01*
X127022755Y-73418300D01*
X126868110Y-73449061D01*
X126868098Y-73449064D01*
X126722427Y-73509402D01*
X126722414Y-73509409D01*
X126591311Y-73597010D01*
X126591307Y-73597013D01*
X126479813Y-73708507D01*
X126479810Y-73708511D01*
X126392209Y-73839614D01*
X126392202Y-73839627D01*
X126331864Y-73985298D01*
X126331861Y-73985310D01*
X126301100Y-74139953D01*
X124891068Y-74139953D01*
X124891424Y-74137703D01*
X124895104Y-74114468D01*
X124895104Y-74114467D01*
X124901300Y-74075350D01*
X124901300Y-73894248D01*
X124884819Y-73790197D01*
X124872971Y-73715391D01*
X124821376Y-73556594D01*
X124817012Y-73543163D01*
X124817011Y-73543160D01*
X124776949Y-73464535D01*
X124734796Y-73381806D01*
X124702764Y-73337717D01*
X124628358Y-73235305D01*
X124628354Y-73235300D01*
X124500299Y-73107245D01*
X124500294Y-73107241D01*
X124353797Y-73000806D01*
X124353796Y-73000805D01*
X124353794Y-73000804D01*
X124299456Y-72973117D01*
X124192439Y-72918588D01*
X124192436Y-72918587D01*
X124020210Y-72862629D01*
X123841351Y-72834300D01*
X123841346Y-72834300D01*
X122860254Y-72834300D01*
X122860249Y-72834300D01*
X122681389Y-72862629D01*
X122509163Y-72918587D01*
X122509160Y-72918588D01*
X122347802Y-73000806D01*
X122201305Y-73107241D01*
X122201300Y-73107245D01*
X122073245Y-73235300D01*
X122073241Y-73235305D01*
X121966806Y-73381802D01*
X121884588Y-73543160D01*
X121884587Y-73543163D01*
X121828629Y-73715389D01*
X121800300Y-73894248D01*
X120801300Y-73894248D01*
X120784819Y-73790197D01*
X120772971Y-73715391D01*
X120721376Y-73556594D01*
X120717012Y-73543163D01*
X120717011Y-73543160D01*
X120676949Y-73464535D01*
X120634796Y-73381806D01*
X120602764Y-73337717D01*
X120528358Y-73235305D01*
X120528354Y-73235300D01*
X120400299Y-73107245D01*
X120400294Y-73107241D01*
X120253797Y-73000806D01*
X120253796Y-73000805D01*
X120253794Y-73000804D01*
X120199456Y-72973117D01*
X120092439Y-72918588D01*
X120092436Y-72918587D01*
X119920210Y-72862629D01*
X119741351Y-72834300D01*
X119741346Y-72834300D01*
X118560254Y-72834300D01*
X118560249Y-72834300D01*
X118381389Y-72862629D01*
X118209163Y-72918587D01*
X118209160Y-72918588D01*
X118047802Y-73000806D01*
X117901305Y-73107241D01*
X117901300Y-73107245D01*
X117773245Y-73235300D01*
X117773241Y-73235305D01*
X117666806Y-73381802D01*
X117584588Y-73543160D01*
X117584587Y-73543163D01*
X117528629Y-73715389D01*
X117500300Y-73894248D01*
X116844084Y-73894248D01*
X116848504Y-73878132D01*
X116848588Y-73873431D01*
X116848345Y-73871735D01*
X116848632Y-73870983D01*
X116848863Y-73858140D01*
X116860875Y-73833034D01*
X116861699Y-73830034D01*
X116864097Y-73826303D01*
X116867985Y-73820485D01*
X116867985Y-73820484D01*
X116870194Y-73817179D01*
X116930537Y-73671497D01*
X116961300Y-73516842D01*
X116961300Y-73359158D01*
X116961300Y-73359155D01*
X116961299Y-73359153D01*
X116944793Y-73276171D01*
X116930537Y-73204503D01*
X116924737Y-73190500D01*
X116870197Y-73058827D01*
X116870190Y-73058814D01*
X116782589Y-72927711D01*
X116782586Y-72927707D01*
X116671092Y-72816213D01*
X116671088Y-72816210D01*
X116539985Y-72728609D01*
X116539972Y-72728602D01*
X116394301Y-72668264D01*
X116394289Y-72668261D01*
X116239645Y-72637500D01*
X116239642Y-72637500D01*
X116081958Y-72637500D01*
X116081955Y-72637500D01*
X115927310Y-72668261D01*
X115927298Y-72668264D01*
X115781627Y-72728602D01*
X115781614Y-72728609D01*
X115650511Y-72816210D01*
X115650507Y-72816213D01*
X115539013Y-72927707D01*
X115539010Y-72927711D01*
X115451409Y-73058814D01*
X115451402Y-73058827D01*
X115391064Y-73204498D01*
X115391061Y-73204510D01*
X115360300Y-73359153D01*
X111461788Y-73359153D01*
X111525489Y-73316589D01*
X111531535Y-73310543D01*
X111576694Y-73265385D01*
X111636986Y-73205092D01*
X111636989Y-73205089D01*
X111724594Y-73073979D01*
X111735108Y-73048597D01*
X111756149Y-72997797D01*
X111784937Y-72928297D01*
X111815700Y-72773642D01*
X111815700Y-72615958D01*
X111815700Y-72615955D01*
X111815699Y-72615953D01*
X111809676Y-72585673D01*
X111784937Y-72461303D01*
X111775352Y-72438163D01*
X111724597Y-72315627D01*
X111724590Y-72315614D01*
X111636989Y-72184511D01*
X111636986Y-72184507D01*
X111525492Y-72073013D01*
X111525488Y-72073010D01*
X111501757Y-72057153D01*
X126301100Y-72057153D01*
X126301100Y-72214846D01*
X126331861Y-72369489D01*
X126331864Y-72369501D01*
X126392202Y-72515172D01*
X126392209Y-72515185D01*
X126479810Y-72646288D01*
X126479813Y-72646292D01*
X126591307Y-72757786D01*
X126591311Y-72757789D01*
X126722414Y-72845390D01*
X126722427Y-72845397D01*
X126868098Y-72905735D01*
X126868103Y-72905737D01*
X127022753Y-72936499D01*
X127022756Y-72936500D01*
X127022758Y-72936500D01*
X127180444Y-72936500D01*
X127180445Y-72936499D01*
X127335097Y-72905737D01*
X127470055Y-72849836D01*
X127480772Y-72845397D01*
X127480772Y-72845396D01*
X127480779Y-72845394D01*
X127611889Y-72757789D01*
X127723389Y-72646289D01*
X127810994Y-72515179D01*
X127871337Y-72369497D01*
X127902100Y-72214842D01*
X127902100Y-72057158D01*
X127902100Y-72057155D01*
X127902099Y-72057153D01*
X127894107Y-72016976D01*
X127871337Y-71902503D01*
X127867939Y-71894300D01*
X127810997Y-71756827D01*
X127810990Y-71756814D01*
X127723389Y-71625711D01*
X127723386Y-71625707D01*
X127611892Y-71514213D01*
X127611888Y-71514210D01*
X127480785Y-71426609D01*
X127480772Y-71426602D01*
X127335101Y-71366264D01*
X127335089Y-71366261D01*
X127180445Y-71335500D01*
X127180442Y-71335500D01*
X127022758Y-71335500D01*
X127022755Y-71335500D01*
X126868110Y-71366261D01*
X126868098Y-71366264D01*
X126722427Y-71426602D01*
X126722414Y-71426609D01*
X126591311Y-71514210D01*
X126591307Y-71514213D01*
X126479813Y-71625707D01*
X126479810Y-71625711D01*
X126392209Y-71756814D01*
X126392202Y-71756827D01*
X126331864Y-71902498D01*
X126331861Y-71902510D01*
X126301100Y-72057153D01*
X111501757Y-72057153D01*
X111394385Y-71985409D01*
X111394372Y-71985402D01*
X111248701Y-71925064D01*
X111248689Y-71925061D01*
X111094045Y-71894300D01*
X111094042Y-71894300D01*
X110936358Y-71894300D01*
X110936355Y-71894300D01*
X110781710Y-71925061D01*
X110781698Y-71925064D01*
X110636027Y-71985402D01*
X110636014Y-71985409D01*
X110504911Y-72073010D01*
X110504907Y-72073013D01*
X110393413Y-72184507D01*
X110393410Y-72184511D01*
X110305809Y-72315614D01*
X110305802Y-72315627D01*
X110245464Y-72461298D01*
X110245461Y-72461310D01*
X110214700Y-72615953D01*
X109110438Y-72615953D01*
X109114604Y-72595009D01*
X109116461Y-72585674D01*
X109116461Y-72585673D01*
X109130484Y-72515172D01*
X109139700Y-72468842D01*
X109139700Y-72311158D01*
X109139700Y-72311155D01*
X109139699Y-72311153D01*
X109136670Y-72295925D01*
X109108937Y-72156503D01*
X109101191Y-72137802D01*
X109048597Y-72010827D01*
X109048590Y-72010814D01*
X108960989Y-71879711D01*
X108960986Y-71879707D01*
X108849492Y-71768213D01*
X108849488Y-71768210D01*
X108718385Y-71680609D01*
X108718372Y-71680602D01*
X108572701Y-71620264D01*
X108572689Y-71620261D01*
X108418045Y-71589500D01*
X108418042Y-71589500D01*
X108260358Y-71589500D01*
X108260355Y-71589500D01*
X108105710Y-71620261D01*
X108105698Y-71620264D01*
X107960027Y-71680602D01*
X107960014Y-71680609D01*
X107828911Y-71768210D01*
X107828907Y-71768213D01*
X107717413Y-71879707D01*
X107717410Y-71879711D01*
X107629809Y-72010814D01*
X107629802Y-72010827D01*
X107569464Y-72156498D01*
X107569462Y-72156505D01*
X107564004Y-72183944D01*
X107531617Y-72245854D01*
X107470901Y-72280427D01*
X107401132Y-72276686D01*
X107373496Y-72262852D01*
X107262385Y-72188609D01*
X107262372Y-72188602D01*
X107160200Y-72146282D01*
X107105796Y-72102441D01*
X107083731Y-72036147D01*
X107101010Y-71968448D01*
X107138762Y-71928619D01*
X107177854Y-71902498D01*
X107190289Y-71894189D01*
X107301789Y-71782689D01*
X107389394Y-71651579D01*
X107449737Y-71505897D01*
X107480500Y-71351242D01*
X107480500Y-71193558D01*
X107480500Y-71193555D01*
X107480499Y-71193553D01*
X107449738Y-71038910D01*
X107449737Y-71038903D01*
X107415154Y-70955411D01*
X107389397Y-70893227D01*
X107389390Y-70893214D01*
X107301789Y-70762111D01*
X107301786Y-70762107D01*
X107190292Y-70650613D01*
X107190288Y-70650610D01*
X107059185Y-70563009D01*
X107059172Y-70563002D01*
X106987852Y-70533461D01*
X106933448Y-70489620D01*
X106911383Y-70423326D01*
X106928662Y-70355627D01*
X106979799Y-70308016D01*
X107035304Y-70294900D01*
X107063644Y-70294900D01*
X107063645Y-70294899D01*
X107218297Y-70264137D01*
X107363979Y-70203794D01*
X107495089Y-70116189D01*
X107606589Y-70004689D01*
X107694194Y-69873579D01*
X107754537Y-69727897D01*
X107785300Y-69573242D01*
X107785300Y-69415558D01*
X107785300Y-69415555D01*
X107785299Y-69415553D01*
X107756485Y-69270697D01*
X107754537Y-69260903D01*
X107737549Y-69219889D01*
X107694197Y-69115227D01*
X107694195Y-69115223D01*
X107694194Y-69115221D01*
X107620205Y-69004489D01*
X107599328Y-68937814D01*
X107617812Y-68870434D01*
X107620206Y-68866709D01*
X107662301Y-68803710D01*
X107694194Y-68755979D01*
X107754537Y-68610297D01*
X107785300Y-68455642D01*
X107785300Y-68297958D01*
X107785300Y-68297955D01*
X107785299Y-68297953D01*
X107769145Y-68216741D01*
X107754537Y-68143303D01*
X107745298Y-68120997D01*
X107694197Y-67997627D01*
X107694190Y-67997614D01*
X107647782Y-67928160D01*
X107644161Y-67916598D01*
X107636521Y-67907197D01*
X107633915Y-67883876D01*
X107626904Y-67861483D01*
X107629916Y-67848076D01*
X107628764Y-67837759D01*
X107636650Y-67818111D01*
X107639771Y-67804225D01*
X107643327Y-67797046D01*
X107678794Y-67743967D01*
X107701830Y-67688353D01*
X115379100Y-67688353D01*
X115379100Y-67846046D01*
X115409861Y-68000689D01*
X115409864Y-68000701D01*
X115470202Y-68146372D01*
X115470209Y-68146385D01*
X115557810Y-68277488D01*
X115557813Y-68277492D01*
X115569440Y-68289119D01*
X115602925Y-68350442D01*
X115597941Y-68420134D01*
X115569440Y-68464481D01*
X115557813Y-68476107D01*
X115557810Y-68476111D01*
X115470209Y-68607214D01*
X115470202Y-68607227D01*
X115409864Y-68752898D01*
X115409861Y-68752910D01*
X115379100Y-68907553D01*
X115379100Y-69065246D01*
X115409861Y-69219889D01*
X115409864Y-69219901D01*
X115470202Y-69365572D01*
X115470209Y-69365585D01*
X115557810Y-69496688D01*
X115557813Y-69496692D01*
X115669307Y-69608186D01*
X115669311Y-69608189D01*
X115800414Y-69695790D01*
X115800427Y-69695797D01*
X115923054Y-69746590D01*
X115946103Y-69756137D01*
X116100753Y-69786899D01*
X116100756Y-69786900D01*
X116100758Y-69786900D01*
X116258444Y-69786900D01*
X116258445Y-69786899D01*
X116413097Y-69756137D01*
X116558779Y-69695794D01*
X116558780Y-69695792D01*
X116563947Y-69693653D01*
X116633417Y-69686184D01*
X116658853Y-69693653D01*
X116664019Y-69695793D01*
X116664021Y-69695794D01*
X116809703Y-69756137D01*
X116964353Y-69786899D01*
X116964356Y-69786900D01*
X116964358Y-69786900D01*
X117122044Y-69786900D01*
X117122045Y-69786899D01*
X117276697Y-69756137D01*
X117422379Y-69695794D01*
X117553489Y-69608189D01*
X117588436Y-69573242D01*
X117666719Y-69494960D01*
X117728042Y-69461475D01*
X117797734Y-69466459D01*
X117842081Y-69494960D01*
X117955307Y-69608186D01*
X117955311Y-69608189D01*
X118086414Y-69695790D01*
X118086427Y-69695797D01*
X118209054Y-69746590D01*
X118232103Y-69756137D01*
X118386753Y-69786899D01*
X118386756Y-69786900D01*
X118386758Y-69786900D01*
X118544444Y-69786900D01*
X118544445Y-69786899D01*
X118699097Y-69756137D01*
X118844779Y-69695794D01*
X118975889Y-69608189D01*
X119087389Y-69496689D01*
X119174994Y-69365579D01*
X119235337Y-69219897D01*
X119266100Y-69065242D01*
X119266100Y-68907558D01*
X119266100Y-68907555D01*
X119266099Y-68907553D01*
X119262028Y-68887088D01*
X119235337Y-68752903D01*
X119193894Y-68652852D01*
X119186426Y-68583383D01*
X119193895Y-68557947D01*
X119235337Y-68457897D01*
X119266100Y-68303242D01*
X119266100Y-68145558D01*
X119266100Y-68145555D01*
X119266099Y-68145553D01*
X119246055Y-68044785D01*
X119235337Y-67990903D01*
X119206751Y-67921889D01*
X119174997Y-67845227D01*
X119174993Y-67845220D01*
X119170008Y-67837759D01*
X119151921Y-67810690D01*
X119131044Y-67744014D01*
X119149528Y-67676634D01*
X119151922Y-67672908D01*
X119174994Y-67638379D01*
X119235337Y-67492697D01*
X119266100Y-67338042D01*
X119266100Y-67180358D01*
X119266100Y-67180355D01*
X119266099Y-67180353D01*
X119259149Y-67145413D01*
X119235337Y-67025703D01*
X119218727Y-66985602D01*
X119174997Y-66880027D01*
X119174990Y-66880014D01*
X119087389Y-66748911D01*
X119087386Y-66748907D01*
X118975892Y-66637413D01*
X118975888Y-66637410D01*
X118844785Y-66549809D01*
X118844772Y-66549802D01*
X118699101Y-66489464D01*
X118699089Y-66489461D01*
X118544445Y-66458700D01*
X118544442Y-66458700D01*
X118386758Y-66458700D01*
X118386755Y-66458700D01*
X118232110Y-66489461D01*
X118232098Y-66489464D01*
X118086427Y-66549802D01*
X118086414Y-66549809D01*
X117955311Y-66637410D01*
X117955307Y-66637413D01*
X117843813Y-66748907D01*
X117843810Y-66748911D01*
X117756209Y-66880014D01*
X117756202Y-66880027D01*
X117695864Y-67025698D01*
X117695860Y-67025712D01*
X117694345Y-67033329D01*
X117661958Y-67095239D01*
X117601241Y-67129811D01*
X117531471Y-67126068D01*
X117503838Y-67112235D01*
X117422385Y-67057809D01*
X117422372Y-67057802D01*
X117276701Y-66997464D01*
X117276689Y-66997461D01*
X117122045Y-66966700D01*
X117122042Y-66966700D01*
X116964358Y-66966700D01*
X116964355Y-66966700D01*
X116809710Y-66997461D01*
X116809698Y-66997464D01*
X116658852Y-67059946D01*
X116589383Y-67067415D01*
X116563948Y-67059946D01*
X116413101Y-66997464D01*
X116413089Y-66997461D01*
X116258445Y-66966700D01*
X116258442Y-66966700D01*
X116100758Y-66966700D01*
X116100755Y-66966700D01*
X115946110Y-66997461D01*
X115946098Y-66997464D01*
X115800427Y-67057802D01*
X115800414Y-67057809D01*
X115669311Y-67145410D01*
X115669307Y-67145413D01*
X115557813Y-67256907D01*
X115557810Y-67256911D01*
X115470209Y-67388014D01*
X115470202Y-67388027D01*
X115409864Y-67533698D01*
X115409861Y-67533710D01*
X115379100Y-67688353D01*
X107701830Y-67688353D01*
X107739137Y-67598285D01*
X107769900Y-67443630D01*
X107769900Y-67285946D01*
X107769900Y-67285943D01*
X107769899Y-67285941D01*
X107764220Y-67257390D01*
X107739137Y-67131291D01*
X107724204Y-67095239D01*
X107678797Y-66985615D01*
X107678790Y-66985602D01*
X107591189Y-66854499D01*
X107591186Y-66854495D01*
X107479692Y-66743001D01*
X107479688Y-66742998D01*
X107348585Y-66655397D01*
X107348572Y-66655390D01*
X107202901Y-66595052D01*
X107202889Y-66595049D01*
X107048245Y-66564288D01*
X107048242Y-66564288D01*
X106890558Y-66564288D01*
X106890555Y-66564288D01*
X106735910Y-66595049D01*
X106735898Y-66595052D01*
X106655167Y-66628492D01*
X106585698Y-66635961D01*
X106523219Y-66604685D01*
X106487567Y-66544596D01*
X106490061Y-66474771D01*
X106504613Y-66445040D01*
X106548046Y-66380038D01*
X106608389Y-66234356D01*
X106639152Y-66079701D01*
X106639152Y-65922017D01*
X106639152Y-65922014D01*
X106639151Y-65922012D01*
X106622560Y-65838606D01*
X106608389Y-65767362D01*
X106595833Y-65737048D01*
X106548049Y-65621686D01*
X106548042Y-65621673D01*
X106460441Y-65490570D01*
X106460438Y-65490566D01*
X106348944Y-65379072D01*
X106348940Y-65379069D01*
X106217837Y-65291468D01*
X106217824Y-65291461D01*
X106072153Y-65231123D01*
X106072141Y-65231120D01*
X105917497Y-65200359D01*
X105917494Y-65200359D01*
X105759810Y-65200359D01*
X105759808Y-65200359D01*
X105747125Y-65202881D01*
X105677534Y-65196649D01*
X105622359Y-65153783D01*
X105599118Y-65087892D01*
X105608379Y-65033812D01*
X105620937Y-65003497D01*
X105651700Y-64848842D01*
X105651700Y-64691158D01*
X105651700Y-64691155D01*
X105651699Y-64691153D01*
X105620938Y-64536510D01*
X105620937Y-64536503D01*
X105597085Y-64478918D01*
X105560597Y-64390827D01*
X105560590Y-64390814D01*
X105472989Y-64259711D01*
X105472986Y-64259707D01*
X105361492Y-64148213D01*
X105361488Y-64148210D01*
X105230385Y-64060609D01*
X105230372Y-64060602D01*
X105084701Y-64000264D01*
X105084689Y-64000261D01*
X104930045Y-63969500D01*
X104930042Y-63969500D01*
X104772358Y-63969500D01*
X104772355Y-63969500D01*
X104617710Y-64000261D01*
X104617698Y-64000264D01*
X104472027Y-64060602D01*
X104472014Y-64060609D01*
X104340911Y-64148210D01*
X104340907Y-64148213D01*
X104229413Y-64259707D01*
X104229410Y-64259711D01*
X104141809Y-64390814D01*
X104141802Y-64390827D01*
X104081464Y-64536498D01*
X104081461Y-64536510D01*
X104050700Y-64691153D01*
X104050700Y-64848846D01*
X104081461Y-65003489D01*
X104081464Y-65003501D01*
X104141802Y-65149172D01*
X104141809Y-65149185D01*
X104229410Y-65280288D01*
X104229413Y-65280292D01*
X104340907Y-65391786D01*
X104340911Y-65391789D01*
X104472014Y-65479390D01*
X104472027Y-65479397D01*
X104617698Y-65539735D01*
X104617703Y-65539737D01*
X104759684Y-65567979D01*
X104772353Y-65570499D01*
X104772356Y-65570500D01*
X104772358Y-65570500D01*
X104930044Y-65570500D01*
X104942718Y-65567979D01*
X105012310Y-65574206D01*
X105067487Y-65617069D01*
X105090732Y-65682958D01*
X105081471Y-65737048D01*
X105068916Y-65767357D01*
X105068913Y-65767369D01*
X105038152Y-65922012D01*
X105038152Y-66079705D01*
X105068913Y-66234348D01*
X105068916Y-66234360D01*
X105129254Y-66380031D01*
X105129261Y-66380044D01*
X105216862Y-66511147D01*
X105216865Y-66511151D01*
X105313404Y-66607690D01*
X105346889Y-66669013D01*
X105341905Y-66738705D01*
X105309286Y-66784371D01*
X105310418Y-66785503D01*
X105194613Y-66901307D01*
X105194610Y-66901311D01*
X105107009Y-67032414D01*
X105107002Y-67032427D01*
X105046664Y-67178098D01*
X105046661Y-67178110D01*
X105015900Y-67332753D01*
X105015900Y-67490446D01*
X105046661Y-67645089D01*
X105046664Y-67645101D01*
X105107002Y-67790772D01*
X105107009Y-67790785D01*
X105194610Y-67921888D01*
X105194613Y-67921892D01*
X105306107Y-68033386D01*
X105306111Y-68033389D01*
X105437214Y-68120990D01*
X105437227Y-68120997D01*
X105580863Y-68180492D01*
X105582903Y-68181337D01*
X105737553Y-68212099D01*
X105737556Y-68212100D01*
X105737558Y-68212100D01*
X105895244Y-68212100D01*
X106036108Y-68184080D01*
X106105700Y-68190307D01*
X106160877Y-68233170D01*
X106184122Y-68299060D01*
X106184300Y-68305697D01*
X106184300Y-68455646D01*
X106215061Y-68610289D01*
X106215064Y-68610301D01*
X106275402Y-68755972D01*
X106275409Y-68755985D01*
X106349393Y-68866709D01*
X106370271Y-68933387D01*
X106351787Y-69000767D01*
X106349393Y-69004491D01*
X106275409Y-69115214D01*
X106275402Y-69115227D01*
X106215064Y-69260898D01*
X106215061Y-69260910D01*
X106184300Y-69415553D01*
X106184300Y-69573246D01*
X106215061Y-69727889D01*
X106215064Y-69727901D01*
X106275402Y-69873572D01*
X106275409Y-69873585D01*
X106363010Y-70004688D01*
X106363013Y-70004692D01*
X106474507Y-70116186D01*
X106474511Y-70116189D01*
X106605614Y-70203790D01*
X106605627Y-70203797D01*
X106676948Y-70233339D01*
X106731352Y-70277180D01*
X106753417Y-70343474D01*
X106736138Y-70411173D01*
X106685001Y-70458784D01*
X106629496Y-70471900D01*
X106601155Y-70471900D01*
X106446510Y-70502661D01*
X106446498Y-70502664D01*
X106295652Y-70565146D01*
X106226183Y-70572615D01*
X106200748Y-70565146D01*
X106049901Y-70502664D01*
X106049889Y-70502661D01*
X105895245Y-70471900D01*
X105895242Y-70471900D01*
X105737558Y-70471900D01*
X105737555Y-70471900D01*
X105582910Y-70502661D01*
X105582898Y-70502664D01*
X105437227Y-70563002D01*
X105437214Y-70563009D01*
X105313877Y-70645421D01*
X105247199Y-70666299D01*
X105179819Y-70647814D01*
X105176095Y-70645421D01*
X105128785Y-70613809D01*
X105128772Y-70613802D01*
X104983101Y-70553464D01*
X104983089Y-70553461D01*
X104828445Y-70522700D01*
X104828442Y-70522700D01*
X104670758Y-70522700D01*
X104670755Y-70522700D01*
X104516110Y-70553461D01*
X104516098Y-70553464D01*
X104370427Y-70613802D01*
X104370414Y-70613809D01*
X104239311Y-70701410D01*
X104239307Y-70701413D01*
X104127813Y-70812907D01*
X104127810Y-70812911D01*
X104040209Y-70944014D01*
X104040202Y-70944027D01*
X103979864Y-71089698D01*
X103979861Y-71089710D01*
X103949100Y-71244353D01*
X103949100Y-71402046D01*
X103979861Y-71556689D01*
X103979864Y-71556701D01*
X104040202Y-71702372D01*
X104040209Y-71702385D01*
X104127810Y-71833488D01*
X104127813Y-71833492D01*
X104239307Y-71944986D01*
X104239310Y-71944988D01*
X104239311Y-71944989D01*
X104261808Y-71960021D01*
X104269448Y-71965126D01*
X104290490Y-71990305D01*
X104312412Y-72014710D01*
X104312779Y-72016976D01*
X104314252Y-72018739D01*
X104318341Y-72051298D01*
X104323589Y-72083680D01*
X104322672Y-72085784D01*
X104322959Y-72088064D01*
X104308795Y-72117667D01*
X104295704Y-72147744D01*
X104293426Y-72149789D01*
X104292804Y-72151091D01*
X104269448Y-72171330D01*
X104208892Y-72211793D01*
X104142214Y-72232671D01*
X104074834Y-72214187D01*
X104071109Y-72211793D01*
X103960385Y-72137809D01*
X103960372Y-72137802D01*
X103814701Y-72077464D01*
X103814689Y-72077461D01*
X103660045Y-72046700D01*
X103660042Y-72046700D01*
X103502358Y-72046700D01*
X103502355Y-72046700D01*
X103347710Y-72077461D01*
X103347698Y-72077464D01*
X103202027Y-72137802D01*
X103202014Y-72137809D01*
X103070911Y-72225410D01*
X103070907Y-72225413D01*
X103033881Y-72262440D01*
X102972558Y-72295925D01*
X102902866Y-72290941D01*
X102858519Y-72262440D01*
X102821492Y-72225413D01*
X102821488Y-72225410D01*
X102690385Y-72137809D01*
X102690372Y-72137802D01*
X102544701Y-72077464D01*
X102544689Y-72077461D01*
X102390045Y-72046700D01*
X102390042Y-72046700D01*
X102232358Y-72046700D01*
X102232355Y-72046700D01*
X102077710Y-72077461D01*
X102077698Y-72077464D01*
X101932027Y-72137802D01*
X101932014Y-72137809D01*
X101821291Y-72211793D01*
X101754613Y-72232671D01*
X101687233Y-72214187D01*
X101683509Y-72211793D01*
X101572785Y-72137809D01*
X101572772Y-72137802D01*
X101427101Y-72077464D01*
X101427089Y-72077461D01*
X101272445Y-72046700D01*
X101272442Y-72046700D01*
X101114758Y-72046700D01*
X101114755Y-72046700D01*
X100960110Y-72077461D01*
X100960098Y-72077464D01*
X100814427Y-72137802D01*
X100814414Y-72137809D01*
X100683311Y-72225410D01*
X100683307Y-72225413D01*
X100571813Y-72336907D01*
X100571810Y-72336911D01*
X100484209Y-72468014D01*
X100484202Y-72468027D01*
X100423864Y-72613698D01*
X100423861Y-72613710D01*
X100393100Y-72768353D01*
X93961659Y-72768353D01*
X93989917Y-72726062D01*
X94011758Y-72693375D01*
X94027346Y-72670045D01*
X94028994Y-72667579D01*
X94089337Y-72521897D01*
X94120100Y-72367242D01*
X94120100Y-72209558D01*
X94120100Y-72209555D01*
X94120099Y-72209553D01*
X94110883Y-72163221D01*
X94089337Y-72054903D01*
X94089335Y-72054898D01*
X94028997Y-71909227D01*
X94028993Y-71909220D01*
X94028990Y-71909215D01*
X93988949Y-71849290D01*
X93968072Y-71782614D01*
X93986556Y-71715234D01*
X93988938Y-71711525D01*
X94028994Y-71651579D01*
X94089337Y-71505897D01*
X94120100Y-71351242D01*
X94120100Y-71193558D01*
X94120100Y-71193555D01*
X94120099Y-71193553D01*
X94089338Y-71038910D01*
X94089337Y-71038903D01*
X94054754Y-70955411D01*
X94028997Y-70893227D01*
X94028990Y-70893214D01*
X93941389Y-70762111D01*
X93941386Y-70762107D01*
X93829892Y-70650613D01*
X93829888Y-70650610D01*
X93698785Y-70563009D01*
X93698772Y-70563002D01*
X93553101Y-70502664D01*
X93553089Y-70502661D01*
X93398445Y-70471900D01*
X93398442Y-70471900D01*
X93240758Y-70471900D01*
X93240755Y-70471900D01*
X93086110Y-70502661D01*
X93086098Y-70502664D01*
X92940427Y-70563002D01*
X92940414Y-70563009D01*
X92809311Y-70650610D01*
X92809307Y-70650613D01*
X92697813Y-70762107D01*
X92697810Y-70762111D01*
X92610209Y-70893214D01*
X92610202Y-70893227D01*
X92549864Y-71038898D01*
X92549861Y-71038910D01*
X92519100Y-71193553D01*
X92519100Y-71351246D01*
X92549861Y-71505889D01*
X92549864Y-71505901D01*
X92610202Y-71651571D01*
X92610209Y-71651584D01*
X92650250Y-71711509D01*
X92671128Y-71778187D01*
X92652643Y-71845567D01*
X92650250Y-71849291D01*
X92610209Y-71909215D01*
X92610202Y-71909228D01*
X92549864Y-72054898D01*
X92549861Y-72054908D01*
X92521764Y-72196160D01*
X92489379Y-72258071D01*
X92428663Y-72292645D01*
X92358893Y-72288904D01*
X92302222Y-72248038D01*
X92278530Y-72196159D01*
X92269306Y-72149789D01*
X92260537Y-72105703D01*
X92248091Y-72075656D01*
X92200197Y-71960027D01*
X92200190Y-71960014D01*
X92112589Y-71828911D01*
X92112586Y-71828907D01*
X92001092Y-71717413D01*
X92001088Y-71717410D01*
X91869985Y-71629809D01*
X91869972Y-71629802D01*
X91724301Y-71569464D01*
X91724289Y-71569461D01*
X91569645Y-71538700D01*
X91569642Y-71538700D01*
X91411958Y-71538700D01*
X91411955Y-71538700D01*
X91257310Y-71569461D01*
X91257298Y-71569464D01*
X91111628Y-71629802D01*
X91111619Y-71629807D01*
X91084143Y-71648166D01*
X91017465Y-71669042D01*
X90991063Y-71666679D01*
X90858446Y-71640300D01*
X90858442Y-71640300D01*
X90700758Y-71640300D01*
X90700755Y-71640300D01*
X90546110Y-71671061D01*
X90546098Y-71671064D01*
X90400428Y-71731402D01*
X90400412Y-71731411D01*
X90384592Y-71741981D01*
X90317914Y-71762855D01*
X90291517Y-71760493D01*
X90198042Y-71741900D01*
X90040358Y-71741900D01*
X90040355Y-71741900D01*
X89885710Y-71772661D01*
X89885698Y-71772664D01*
X89740027Y-71833002D01*
X89740014Y-71833009D01*
X89608911Y-71920610D01*
X89608907Y-71920613D01*
X89497413Y-72032107D01*
X89497410Y-72032111D01*
X89409809Y-72163214D01*
X89409802Y-72163227D01*
X89349464Y-72308898D01*
X89349461Y-72308910D01*
X89318700Y-72463553D01*
X89318700Y-72621246D01*
X89349461Y-72775889D01*
X89349464Y-72775901D01*
X89409802Y-72921572D01*
X89409809Y-72921585D01*
X89444242Y-72973117D01*
X89465120Y-73039795D01*
X89455701Y-73089460D01*
X89400264Y-73223298D01*
X89400261Y-73223310D01*
X89369500Y-73377953D01*
X89369500Y-73541734D01*
X89366967Y-73541734D01*
X89355995Y-73599514D01*
X89307918Y-73650213D01*
X89293081Y-73657555D01*
X89282826Y-73661802D01*
X89282818Y-73661807D01*
X89151715Y-73749407D01*
X89151707Y-73749413D01*
X89040213Y-73860907D01*
X89040210Y-73860911D01*
X88952609Y-73992014D01*
X88952602Y-73992027D01*
X88892264Y-74137698D01*
X88892261Y-74137710D01*
X88861500Y-74292353D01*
X81018500Y-74292353D01*
X81018500Y-71498353D01*
X85407100Y-71498353D01*
X85407100Y-71656046D01*
X85437861Y-71810689D01*
X85437864Y-71810701D01*
X85498202Y-71956372D01*
X85498209Y-71956385D01*
X85585810Y-72087488D01*
X85585813Y-72087492D01*
X85697307Y-72198986D01*
X85697311Y-72198989D01*
X85828414Y-72286590D01*
X85828427Y-72286597D01*
X85949898Y-72336911D01*
X85974103Y-72346937D01*
X86087680Y-72369529D01*
X86128753Y-72377699D01*
X86128756Y-72377700D01*
X86128758Y-72377700D01*
X86286444Y-72377700D01*
X86286445Y-72377699D01*
X86441097Y-72346937D01*
X86564252Y-72295925D01*
X86586772Y-72286597D01*
X86586772Y-72286596D01*
X86586779Y-72286594D01*
X86717889Y-72198989D01*
X86829389Y-72087489D01*
X86916994Y-71956379D01*
X86977337Y-71810697D01*
X87008100Y-71656042D01*
X87008100Y-71498358D01*
X87008100Y-71498355D01*
X87008099Y-71498353D01*
X86993828Y-71426609D01*
X86977337Y-71343703D01*
X86973939Y-71335500D01*
X86916997Y-71198027D01*
X86916990Y-71198014D01*
X86829389Y-71066911D01*
X86829386Y-71066907D01*
X86717892Y-70955413D01*
X86717888Y-70955410D01*
X86586785Y-70867809D01*
X86586772Y-70867802D01*
X86441101Y-70807464D01*
X86441089Y-70807461D01*
X86286445Y-70776700D01*
X86286442Y-70776700D01*
X86128758Y-70776700D01*
X86128755Y-70776700D01*
X85974110Y-70807461D01*
X85974098Y-70807464D01*
X85828427Y-70867802D01*
X85828414Y-70867809D01*
X85697311Y-70955410D01*
X85697307Y-70955413D01*
X85585813Y-71066907D01*
X85585810Y-71066911D01*
X85498209Y-71198014D01*
X85498202Y-71198027D01*
X85437864Y-71343698D01*
X85437861Y-71343710D01*
X85407100Y-71498353D01*
X81018500Y-71498353D01*
X81018500Y-68958353D01*
X89521900Y-68958353D01*
X89521900Y-69116046D01*
X89552661Y-69270689D01*
X89552664Y-69270701D01*
X89613002Y-69416372D01*
X89613009Y-69416385D01*
X89700610Y-69547488D01*
X89700613Y-69547492D01*
X89812107Y-69658986D01*
X89812111Y-69658989D01*
X89943214Y-69746590D01*
X89943227Y-69746597D01*
X90040529Y-69786900D01*
X90088903Y-69806937D01*
X90243553Y-69837699D01*
X90243556Y-69837700D01*
X90243558Y-69837700D01*
X90401244Y-69837700D01*
X90401245Y-69837699D01*
X90555897Y-69806937D01*
X90701579Y-69746594D01*
X90786909Y-69689577D01*
X90853586Y-69668700D01*
X90920966Y-69687184D01*
X90924681Y-69689571D01*
X91010021Y-69746594D01*
X91010023Y-69746595D01*
X91010027Y-69746597D01*
X91107329Y-69786900D01*
X91155703Y-69806937D01*
X91310353Y-69837699D01*
X91310356Y-69837700D01*
X91310358Y-69837700D01*
X91468044Y-69837700D01*
X91468045Y-69837699D01*
X91622697Y-69806937D01*
X91768379Y-69746594D01*
X91777511Y-69740492D01*
X91844185Y-69719615D01*
X91911566Y-69738099D01*
X91915250Y-69740466D01*
X91924421Y-69746594D01*
X91924424Y-69746595D01*
X91924427Y-69746597D01*
X92021729Y-69786900D01*
X92070103Y-69806937D01*
X92224753Y-69837699D01*
X92224756Y-69837700D01*
X92224758Y-69837700D01*
X92382444Y-69837700D01*
X92382445Y-69837699D01*
X92537097Y-69806937D01*
X92682779Y-69746594D01*
X92813889Y-69658989D01*
X92925389Y-69547489D01*
X93012994Y-69416379D01*
X93073337Y-69270697D01*
X93080734Y-69233508D01*
X93113117Y-69171599D01*
X93154892Y-69143142D01*
X93292379Y-69086194D01*
X93423489Y-68998589D01*
X93534989Y-68887089D01*
X93622594Y-68755979D01*
X93682937Y-68610297D01*
X93713700Y-68455642D01*
X93713700Y-68297958D01*
X93713700Y-68297955D01*
X93713699Y-68297953D01*
X93697545Y-68216741D01*
X93682937Y-68143303D01*
X93673698Y-68120997D01*
X93622597Y-67997627D01*
X93622590Y-67997614D01*
X93534989Y-67866511D01*
X93534986Y-67866507D01*
X93423492Y-67755013D01*
X93423488Y-67755010D01*
X93316867Y-67683768D01*
X93292384Y-67667409D01*
X93292372Y-67667402D01*
X93146701Y-67607064D01*
X93146689Y-67607061D01*
X93044595Y-67586753D01*
X99732700Y-67586753D01*
X99732700Y-67744446D01*
X99763461Y-67899089D01*
X99763464Y-67899101D01*
X99823802Y-68044772D01*
X99823809Y-68044785D01*
X99911410Y-68175888D01*
X99911413Y-68175892D01*
X100022907Y-68287386D01*
X100022911Y-68287389D01*
X100154014Y-68374990D01*
X100154027Y-68374997D01*
X100262999Y-68420134D01*
X100299703Y-68435337D01*
X100446219Y-68464481D01*
X100454353Y-68466099D01*
X100454356Y-68466100D01*
X100454358Y-68466100D01*
X100612044Y-68466100D01*
X100612045Y-68466099D01*
X100766697Y-68435337D01*
X100912379Y-68374994D01*
X101043489Y-68287389D01*
X101154989Y-68175889D01*
X101242594Y-68044779D01*
X101302937Y-67899097D01*
X101333700Y-67744442D01*
X101333700Y-67586758D01*
X101333700Y-67586755D01*
X101333699Y-67586753D01*
X101323148Y-67533710D01*
X101302937Y-67432103D01*
X101268308Y-67348500D01*
X101242597Y-67286427D01*
X101242590Y-67286414D01*
X101154989Y-67155311D01*
X101154986Y-67155307D01*
X101043492Y-67043813D01*
X101043488Y-67043810D01*
X100912385Y-66956209D01*
X100912372Y-66956202D01*
X100766701Y-66895864D01*
X100766689Y-66895861D01*
X100612045Y-66865100D01*
X100612042Y-66865100D01*
X100454358Y-66865100D01*
X100454355Y-66865100D01*
X100299710Y-66895861D01*
X100299698Y-66895864D01*
X100154027Y-66956202D01*
X100154014Y-66956209D01*
X100022911Y-67043810D01*
X100022907Y-67043813D01*
X99911413Y-67155307D01*
X99911410Y-67155311D01*
X99823809Y-67286414D01*
X99823802Y-67286427D01*
X99763464Y-67432098D01*
X99763461Y-67432110D01*
X99732700Y-67586753D01*
X93044595Y-67586753D01*
X92992045Y-67576300D01*
X92992042Y-67576300D01*
X92834358Y-67576300D01*
X92834355Y-67576300D01*
X92679710Y-67607061D01*
X92679698Y-67607064D01*
X92534027Y-67667402D01*
X92534014Y-67667409D01*
X92402911Y-67755010D01*
X92402907Y-67755013D01*
X92291413Y-67866507D01*
X92291410Y-67866511D01*
X92203809Y-67997614D01*
X92203802Y-67997627D01*
X92143464Y-68143298D01*
X92143461Y-68143307D01*
X92136065Y-68180492D01*
X92133100Y-68186158D01*
X92133030Y-68192551D01*
X92117102Y-68216741D01*
X92103679Y-68242402D01*
X92097243Y-68246902D01*
X92094607Y-68250907D01*
X92070409Y-68265669D01*
X92064706Y-68269658D01*
X92063316Y-68270274D01*
X91924421Y-68327806D01*
X91906419Y-68339834D01*
X91896658Y-68344162D01*
X91872172Y-68347405D01*
X91848608Y-68354783D01*
X91838148Y-68351913D01*
X91827393Y-68353338D01*
X91805042Y-68342829D01*
X91781229Y-68336296D01*
X91777513Y-68333908D01*
X91768384Y-68327809D01*
X91768372Y-68327802D01*
X91622701Y-68267464D01*
X91622689Y-68267461D01*
X91468045Y-68236700D01*
X91468042Y-68236700D01*
X91310358Y-68236700D01*
X91310355Y-68236700D01*
X91155710Y-68267461D01*
X91155698Y-68267464D01*
X91010027Y-68327802D01*
X91010014Y-68327809D01*
X90924691Y-68384821D01*
X90858013Y-68405699D01*
X90790633Y-68387214D01*
X90786909Y-68384821D01*
X90701585Y-68327809D01*
X90701572Y-68327802D01*
X90555901Y-68267464D01*
X90555889Y-68267461D01*
X90401245Y-68236700D01*
X90401242Y-68236700D01*
X90243558Y-68236700D01*
X90243555Y-68236700D01*
X90088910Y-68267461D01*
X90088898Y-68267464D01*
X89943227Y-68327802D01*
X89943214Y-68327809D01*
X89812111Y-68415410D01*
X89812107Y-68415413D01*
X89700613Y-68526907D01*
X89700610Y-68526911D01*
X89613009Y-68658014D01*
X89613002Y-68658027D01*
X89552664Y-68803698D01*
X89552661Y-68803710D01*
X89521900Y-68958353D01*
X81018500Y-68958353D01*
X81018500Y-66469153D01*
X97497500Y-66469153D01*
X97497500Y-66626846D01*
X97528261Y-66781489D01*
X97528264Y-66781501D01*
X97588602Y-66927172D01*
X97588609Y-66927185D01*
X97676210Y-67058288D01*
X97676213Y-67058292D01*
X97787707Y-67169786D01*
X97787711Y-67169789D01*
X97918814Y-67257390D01*
X97918827Y-67257397D01*
X97988913Y-67286427D01*
X98064503Y-67317737D01*
X98166603Y-67338046D01*
X98219153Y-67348499D01*
X98219156Y-67348500D01*
X98219158Y-67348500D01*
X98376844Y-67348500D01*
X98376845Y-67348499D01*
X98531497Y-67317737D01*
X98677179Y-67257394D01*
X98808289Y-67169789D01*
X98919789Y-67058289D01*
X99007394Y-66927179D01*
X99067737Y-66781497D01*
X99098500Y-66626842D01*
X99098500Y-66469158D01*
X99098500Y-66469155D01*
X99098499Y-66469153D01*
X99067738Y-66314510D01*
X99067737Y-66314503D01*
X99034541Y-66234360D01*
X99007397Y-66168827D01*
X99007390Y-66168814D01*
X98919789Y-66037711D01*
X98919786Y-66037707D01*
X98808292Y-65926213D01*
X98808288Y-65926210D01*
X98677185Y-65838609D01*
X98677172Y-65838602D01*
X98531501Y-65778264D01*
X98531489Y-65778261D01*
X98376845Y-65747500D01*
X98376842Y-65747500D01*
X98219158Y-65747500D01*
X98219155Y-65747500D01*
X98064510Y-65778261D01*
X98064498Y-65778264D01*
X97918827Y-65838602D01*
X97918814Y-65838609D01*
X97787711Y-65926210D01*
X97787707Y-65926213D01*
X97676213Y-66037707D01*
X97676210Y-66037711D01*
X97588609Y-66168814D01*
X97588602Y-66168827D01*
X97528264Y-66314498D01*
X97528261Y-66314510D01*
X97497500Y-66469153D01*
X81018500Y-66469153D01*
X81018500Y-64843553D01*
X96075100Y-64843553D01*
X96075100Y-65001246D01*
X96105861Y-65155889D01*
X96105864Y-65155901D01*
X96166202Y-65301572D01*
X96166209Y-65301585D01*
X96253810Y-65432688D01*
X96253813Y-65432692D01*
X96365307Y-65544186D01*
X96365311Y-65544189D01*
X96496414Y-65631790D01*
X96496427Y-65631797D01*
X96642098Y-65692135D01*
X96642103Y-65692137D01*
X96796753Y-65722899D01*
X96796756Y-65722900D01*
X96796758Y-65722900D01*
X96954444Y-65722900D01*
X96954445Y-65722899D01*
X97109097Y-65692137D01*
X97254779Y-65631794D01*
X97385889Y-65544189D01*
X97497389Y-65432689D01*
X97584994Y-65301579D01*
X97645337Y-65155897D01*
X97676100Y-65001242D01*
X97676100Y-64843558D01*
X97676100Y-64843555D01*
X97676099Y-64843553D01*
X97645337Y-64688903D01*
X97619008Y-64625338D01*
X97584997Y-64543227D01*
X97584990Y-64543214D01*
X97497389Y-64412111D01*
X97497386Y-64412107D01*
X97385892Y-64300613D01*
X97385888Y-64300610D01*
X97254785Y-64213009D01*
X97254772Y-64213002D01*
X97109101Y-64152664D01*
X97109089Y-64152661D01*
X96954445Y-64121900D01*
X96954442Y-64121900D01*
X96796758Y-64121900D01*
X96796755Y-64121900D01*
X96642110Y-64152661D01*
X96642098Y-64152664D01*
X96496427Y-64213002D01*
X96496414Y-64213009D01*
X96365311Y-64300610D01*
X96365307Y-64300613D01*
X96253813Y-64412107D01*
X96253810Y-64412111D01*
X96166209Y-64543214D01*
X96166202Y-64543227D01*
X96105864Y-64688898D01*
X96105861Y-64688910D01*
X96075100Y-64843553D01*
X81018500Y-64843553D01*
X81018500Y-62709953D01*
X96075100Y-62709953D01*
X96075100Y-62867646D01*
X96105861Y-63022289D01*
X96105864Y-63022301D01*
X96166202Y-63167972D01*
X96166209Y-63167985D01*
X96253810Y-63299088D01*
X96253813Y-63299092D01*
X96365307Y-63410586D01*
X96365311Y-63410589D01*
X96496414Y-63498190D01*
X96496427Y-63498197D01*
X96593729Y-63538500D01*
X96642103Y-63558537D01*
X96796753Y-63589299D01*
X96796756Y-63589300D01*
X96796758Y-63589300D01*
X96954444Y-63589300D01*
X96954445Y-63589299D01*
X97109097Y-63558537D01*
X97254779Y-63498194D01*
X97385889Y-63410589D01*
X97476925Y-63319553D01*
X105981100Y-63319553D01*
X105981100Y-63477246D01*
X106011861Y-63631889D01*
X106011864Y-63631901D01*
X106072202Y-63777572D01*
X106072209Y-63777585D01*
X106159810Y-63908688D01*
X106159813Y-63908692D01*
X106271307Y-64020186D01*
X106271311Y-64020189D01*
X106402414Y-64107790D01*
X106402427Y-64107797D01*
X106548098Y-64168135D01*
X106548103Y-64168137D01*
X106702753Y-64198899D01*
X106702756Y-64198900D01*
X106702758Y-64198900D01*
X106860444Y-64198900D01*
X106860445Y-64198899D01*
X107015097Y-64168137D01*
X107160779Y-64107794D01*
X107291889Y-64020189D01*
X107403389Y-63908689D01*
X107490994Y-63777579D01*
X107551337Y-63631897D01*
X107582100Y-63477242D01*
X107582100Y-63319558D01*
X107582100Y-63319555D01*
X107582099Y-63319553D01*
X107571995Y-63268758D01*
X107551337Y-63164903D01*
X107531569Y-63117179D01*
X107490997Y-63019227D01*
X107490990Y-63019214D01*
X107403389Y-62888111D01*
X107403386Y-62888107D01*
X107291892Y-62776613D01*
X107291888Y-62776610D01*
X107160785Y-62689009D01*
X107160772Y-62689002D01*
X107015101Y-62628664D01*
X107015089Y-62628661D01*
X106860445Y-62597900D01*
X106860442Y-62597900D01*
X106702758Y-62597900D01*
X106702755Y-62597900D01*
X106548110Y-62628661D01*
X106548098Y-62628664D01*
X106402427Y-62689002D01*
X106402414Y-62689009D01*
X106271311Y-62776610D01*
X106271307Y-62776613D01*
X106159813Y-62888107D01*
X106159810Y-62888111D01*
X106072209Y-63019214D01*
X106072202Y-63019227D01*
X106011864Y-63164898D01*
X106011861Y-63164910D01*
X105981100Y-63319553D01*
X97476925Y-63319553D01*
X97497389Y-63299089D01*
X97531333Y-63248289D01*
X97533815Y-63244575D01*
X97584990Y-63167985D01*
X97584990Y-63167984D01*
X97584994Y-63167979D01*
X97645337Y-63022297D01*
X97676100Y-62867642D01*
X97676100Y-62709958D01*
X97676100Y-62709955D01*
X97676099Y-62709953D01*
X97661828Y-62638209D01*
X97645337Y-62555303D01*
X97604530Y-62456785D01*
X97584997Y-62409627D01*
X97584990Y-62409614D01*
X97497389Y-62278511D01*
X97497386Y-62278507D01*
X97385892Y-62167013D01*
X97385888Y-62167010D01*
X97279267Y-62095768D01*
X97254784Y-62079409D01*
X97254772Y-62079402D01*
X97109101Y-62019064D01*
X97109089Y-62019061D01*
X97006995Y-61998753D01*
X109130700Y-61998753D01*
X109130700Y-62156446D01*
X109161461Y-62311089D01*
X109161464Y-62311101D01*
X109221802Y-62456772D01*
X109221809Y-62456785D01*
X109309410Y-62587888D01*
X109309413Y-62587892D01*
X109420907Y-62699386D01*
X109420911Y-62699389D01*
X109552014Y-62786990D01*
X109552027Y-62786997D01*
X109673488Y-62837307D01*
X109697703Y-62847337D01*
X109799803Y-62867646D01*
X109852353Y-62878099D01*
X109852356Y-62878100D01*
X109852358Y-62878100D01*
X110010044Y-62878100D01*
X110010045Y-62878099D01*
X110164697Y-62847337D01*
X110310379Y-62786994D01*
X110441489Y-62699389D01*
X110481725Y-62659153D01*
X114261500Y-62659153D01*
X114261500Y-62816846D01*
X114292261Y-62971489D01*
X114292264Y-62971501D01*
X114352602Y-63117172D01*
X114352609Y-63117185D01*
X114440210Y-63248288D01*
X114440213Y-63248292D01*
X114551707Y-63359786D01*
X114551711Y-63359789D01*
X114682814Y-63447390D01*
X114682827Y-63447397D01*
X114782683Y-63488758D01*
X114828503Y-63507737D01*
X114983153Y-63538499D01*
X114983156Y-63538500D01*
X114983158Y-63538500D01*
X115140844Y-63538500D01*
X115140845Y-63538499D01*
X115295497Y-63507737D01*
X115341317Y-63488757D01*
X115410784Y-63481288D01*
X115473263Y-63512562D01*
X115508917Y-63572650D01*
X115510386Y-63627509D01*
X115480700Y-63776753D01*
X115480700Y-63934446D01*
X115511461Y-64089089D01*
X115511464Y-64089101D01*
X115571802Y-64234772D01*
X115571809Y-64234785D01*
X115659410Y-64365888D01*
X115659413Y-64365892D01*
X115770907Y-64477386D01*
X115770911Y-64477389D01*
X115902014Y-64564990D01*
X115902027Y-64564997D01*
X116047698Y-64625335D01*
X116047703Y-64625337D01*
X116202353Y-64656099D01*
X116202356Y-64656100D01*
X116202358Y-64656100D01*
X116360044Y-64656100D01*
X116360045Y-64656099D01*
X116514697Y-64625337D01*
X116660379Y-64564994D01*
X116720309Y-64524949D01*
X116786986Y-64504072D01*
X116854366Y-64522556D01*
X116858074Y-64524938D01*
X116918021Y-64564994D01*
X116918023Y-64564995D01*
X116918027Y-64564997D01*
X117063698Y-64625335D01*
X117063703Y-64625337D01*
X117218353Y-64656099D01*
X117218356Y-64656100D01*
X117218358Y-64656100D01*
X117376044Y-64656100D01*
X117376045Y-64656099D01*
X117530697Y-64625337D01*
X117676379Y-64564994D01*
X117807489Y-64477389D01*
X117918989Y-64365889D01*
X118006594Y-64234779D01*
X118066937Y-64089097D01*
X118097700Y-63934442D01*
X118097700Y-63776758D01*
X118097700Y-63776755D01*
X118097699Y-63776753D01*
X118068885Y-63631897D01*
X118066937Y-63622103D01*
X118040608Y-63558538D01*
X118006597Y-63476427D01*
X118006590Y-63476414D01*
X117924178Y-63353076D01*
X117918204Y-63333997D01*
X117907698Y-63316989D01*
X117907977Y-63301336D01*
X117903300Y-63286398D01*
X117908140Y-63268753D01*
X125539100Y-63268753D01*
X125539100Y-63426446D01*
X125569861Y-63581089D01*
X125569864Y-63581101D01*
X125630202Y-63726772D01*
X125630209Y-63726785D01*
X125717810Y-63857888D01*
X125717813Y-63857892D01*
X125829307Y-63969386D01*
X125829311Y-63969389D01*
X125960414Y-64056990D01*
X125960427Y-64056997D01*
X126083054Y-64107790D01*
X126106103Y-64117337D01*
X126260753Y-64148099D01*
X126260756Y-64148100D01*
X126260758Y-64148100D01*
X126418444Y-64148100D01*
X126418445Y-64148099D01*
X126573097Y-64117337D01*
X126710059Y-64060606D01*
X126718772Y-64056997D01*
X126718772Y-64056996D01*
X126718779Y-64056994D01*
X126849889Y-63969389D01*
X126961389Y-63857889D01*
X127048994Y-63726779D01*
X127109337Y-63581097D01*
X127140100Y-63426442D01*
X127140100Y-63268758D01*
X127140100Y-63268755D01*
X127140099Y-63268753D01*
X127129465Y-63215293D01*
X127109337Y-63114103D01*
X127071307Y-63022289D01*
X127048997Y-62968427D01*
X127048990Y-62968414D01*
X126961389Y-62837311D01*
X126961386Y-62837307D01*
X126849892Y-62725813D01*
X126849888Y-62725810D01*
X126718785Y-62638209D01*
X126718772Y-62638202D01*
X126573101Y-62577864D01*
X126573089Y-62577861D01*
X126418445Y-62547100D01*
X126418442Y-62547100D01*
X126260758Y-62547100D01*
X126260755Y-62547100D01*
X126106110Y-62577861D01*
X126106098Y-62577864D01*
X125960427Y-62638202D01*
X125960414Y-62638209D01*
X125829311Y-62725810D01*
X125829307Y-62725813D01*
X125717813Y-62837307D01*
X125717810Y-62837311D01*
X125630209Y-62968414D01*
X125630202Y-62968427D01*
X125569864Y-63114098D01*
X125569861Y-63114110D01*
X125539100Y-63268753D01*
X117908140Y-63268753D01*
X117908588Y-63267119D01*
X117908946Y-63247130D01*
X117920962Y-63222014D01*
X117921785Y-63219018D01*
X117924179Y-63215293D01*
X117938558Y-63193774D01*
X117955794Y-63167979D01*
X118016137Y-63022297D01*
X118046900Y-62867642D01*
X118046900Y-62709958D01*
X118046900Y-62709955D01*
X118046899Y-62709953D01*
X118032628Y-62638209D01*
X118016137Y-62555303D01*
X117975330Y-62456785D01*
X117955797Y-62409627D01*
X117955790Y-62409614D01*
X117868189Y-62278511D01*
X117868187Y-62278508D01*
X117857523Y-62267845D01*
X117824036Y-62206523D01*
X117823584Y-62155969D01*
X117843700Y-62054844D01*
X117843700Y-61897155D01*
X117843699Y-61897153D01*
X117833148Y-61844110D01*
X117812937Y-61742503D01*
X117794675Y-61698414D01*
X117752597Y-61596827D01*
X117752590Y-61596814D01*
X117664989Y-61465711D01*
X117664986Y-61465707D01*
X117553492Y-61354213D01*
X117553488Y-61354210D01*
X117422385Y-61266609D01*
X117422372Y-61266602D01*
X117276701Y-61206264D01*
X117276689Y-61206261D01*
X117122045Y-61175500D01*
X117122042Y-61175500D01*
X116964358Y-61175500D01*
X116964355Y-61175500D01*
X116809710Y-61206261D01*
X116809698Y-61206264D01*
X116664028Y-61266602D01*
X116664015Y-61266609D01*
X116604091Y-61306650D01*
X116537413Y-61327528D01*
X116470033Y-61309043D01*
X116466309Y-61306650D01*
X116406384Y-61266609D01*
X116406381Y-61266607D01*
X116406379Y-61266606D01*
X116406376Y-61266604D01*
X116406371Y-61266602D01*
X116260701Y-61206264D01*
X116260689Y-61206261D01*
X116106045Y-61175500D01*
X116106042Y-61175500D01*
X115948358Y-61175500D01*
X115948355Y-61175500D01*
X115793710Y-61206261D01*
X115793698Y-61206264D01*
X115648027Y-61266602D01*
X115648014Y-61266609D01*
X115516911Y-61354210D01*
X115516907Y-61354213D01*
X115405413Y-61465707D01*
X115405410Y-61465711D01*
X115317809Y-61596814D01*
X115317802Y-61596827D01*
X115257464Y-61742498D01*
X115257461Y-61742508D01*
X115238528Y-61837692D01*
X115206143Y-61899603D01*
X115145427Y-61934177D01*
X115116911Y-61937500D01*
X114983155Y-61937500D01*
X114828510Y-61968261D01*
X114828498Y-61968264D01*
X114682827Y-62028602D01*
X114682814Y-62028609D01*
X114551711Y-62116210D01*
X114551707Y-62116213D01*
X114440213Y-62227707D01*
X114440210Y-62227711D01*
X114352609Y-62358814D01*
X114352602Y-62358827D01*
X114292264Y-62504498D01*
X114292261Y-62504510D01*
X114261500Y-62659153D01*
X110481725Y-62659153D01*
X110552989Y-62587889D01*
X110559688Y-62577864D01*
X110640590Y-62456785D01*
X110640590Y-62456784D01*
X110640594Y-62456779D01*
X110700937Y-62311097D01*
X110731700Y-62156442D01*
X110731700Y-61998758D01*
X110731700Y-61998755D01*
X110731699Y-61998753D01*
X110718854Y-61934177D01*
X110700937Y-61844103D01*
X110700935Y-61844098D01*
X110640597Y-61698427D01*
X110640590Y-61698414D01*
X110552989Y-61567311D01*
X110552986Y-61567307D01*
X110441492Y-61455813D01*
X110441488Y-61455810D01*
X110310385Y-61368209D01*
X110310372Y-61368202D01*
X110164701Y-61307864D01*
X110164689Y-61307861D01*
X110010045Y-61277100D01*
X110010042Y-61277100D01*
X109852358Y-61277100D01*
X109852355Y-61277100D01*
X109697710Y-61307861D01*
X109697698Y-61307864D01*
X109552027Y-61368202D01*
X109552014Y-61368209D01*
X109420911Y-61455810D01*
X109420907Y-61455813D01*
X109309413Y-61567307D01*
X109309410Y-61567311D01*
X109221809Y-61698414D01*
X109221802Y-61698427D01*
X109161464Y-61844098D01*
X109161461Y-61844110D01*
X109130700Y-61998753D01*
X97006995Y-61998753D01*
X96954445Y-61988300D01*
X96954442Y-61988300D01*
X96796758Y-61988300D01*
X96796755Y-61988300D01*
X96642110Y-62019061D01*
X96642098Y-62019064D01*
X96496427Y-62079402D01*
X96496414Y-62079409D01*
X96365311Y-62167010D01*
X96365307Y-62167013D01*
X96253813Y-62278507D01*
X96253810Y-62278511D01*
X96166209Y-62409614D01*
X96166202Y-62409627D01*
X96105864Y-62555298D01*
X96105861Y-62555310D01*
X96075100Y-62709953D01*
X81018500Y-62709953D01*
X81018500Y-60220753D01*
X83425900Y-60220753D01*
X83425900Y-60378446D01*
X83456661Y-60533089D01*
X83456664Y-60533101D01*
X83517002Y-60678772D01*
X83517009Y-60678785D01*
X83604610Y-60809888D01*
X83604613Y-60809892D01*
X83716107Y-60921386D01*
X83716111Y-60921389D01*
X83847214Y-61008990D01*
X83847227Y-61008997D01*
X83992898Y-61069335D01*
X83992903Y-61069337D01*
X84147553Y-61100099D01*
X84147556Y-61100100D01*
X84147558Y-61100100D01*
X84305244Y-61100100D01*
X84305245Y-61100099D01*
X84459897Y-61069337D01*
X84605579Y-61008994D01*
X84736689Y-60921389D01*
X84848189Y-60809889D01*
X84935794Y-60678779D01*
X84996137Y-60533097D01*
X85026900Y-60378442D01*
X85026900Y-60220758D01*
X85026900Y-60220755D01*
X85026899Y-60220753D01*
X84996138Y-60066110D01*
X84996137Y-60066103D01*
X84967551Y-59997089D01*
X84935797Y-59920427D01*
X84935790Y-59920414D01*
X84848189Y-59789311D01*
X84848186Y-59789307D01*
X84736692Y-59677813D01*
X84736688Y-59677810D01*
X84605585Y-59590209D01*
X84605572Y-59590202D01*
X84459901Y-59529864D01*
X84459889Y-59529861D01*
X84305245Y-59499100D01*
X84305242Y-59499100D01*
X84147558Y-59499100D01*
X84147555Y-59499100D01*
X83992910Y-59529861D01*
X83992898Y-59529864D01*
X83847227Y-59590202D01*
X83847214Y-59590209D01*
X83716111Y-59677810D01*
X83716107Y-59677813D01*
X83604613Y-59789307D01*
X83604610Y-59789311D01*
X83517009Y-59920414D01*
X83517002Y-59920427D01*
X83456664Y-60066098D01*
X83456661Y-60066110D01*
X83425900Y-60220753D01*
X81018500Y-60220753D01*
X81018500Y-56309153D01*
X82054300Y-56309153D01*
X82054300Y-56466846D01*
X82085061Y-56621489D01*
X82085064Y-56621501D01*
X82145402Y-56767172D01*
X82145409Y-56767185D01*
X82233010Y-56898288D01*
X82233013Y-56898292D01*
X82344507Y-57009786D01*
X82344511Y-57009789D01*
X82475614Y-57097390D01*
X82475627Y-57097397D01*
X82621298Y-57157735D01*
X82621303Y-57157737D01*
X82775953Y-57188499D01*
X82775956Y-57188500D01*
X82775958Y-57188500D01*
X82933644Y-57188500D01*
X82933645Y-57188499D01*
X83088297Y-57157737D01*
X83200966Y-57111067D01*
X83233972Y-57097397D01*
X83233972Y-57097396D01*
X83233979Y-57097394D01*
X83365089Y-57009789D01*
X83476589Y-56898289D01*
X83564194Y-56767179D01*
X83624537Y-56621497D01*
X83655300Y-56466842D01*
X83655300Y-56309158D01*
X83655300Y-56309155D01*
X83655299Y-56309153D01*
X84035500Y-56309153D01*
X84035500Y-56466846D01*
X84066261Y-56621489D01*
X84066264Y-56621501D01*
X84126602Y-56767172D01*
X84126609Y-56767185D01*
X84214210Y-56898288D01*
X84214213Y-56898292D01*
X84325707Y-57009786D01*
X84325711Y-57009789D01*
X84456814Y-57097390D01*
X84456827Y-57097397D01*
X84602498Y-57157735D01*
X84602503Y-57157737D01*
X84757153Y-57188499D01*
X84757156Y-57188500D01*
X84757158Y-57188500D01*
X84914844Y-57188500D01*
X84914845Y-57188499D01*
X85069497Y-57157737D01*
X85182166Y-57111067D01*
X85215172Y-57097397D01*
X85215172Y-57097396D01*
X85215179Y-57097394D01*
X85346289Y-57009789D01*
X85457789Y-56898289D01*
X85545394Y-56767179D01*
X85605737Y-56621497D01*
X85636500Y-56466842D01*
X85636500Y-56309158D01*
X85636500Y-56309155D01*
X85636499Y-56309153D01*
X85605738Y-56154510D01*
X85605737Y-56154503D01*
X85577151Y-56085489D01*
X85545397Y-56008827D01*
X85545390Y-56008814D01*
X85457789Y-55877711D01*
X85457786Y-55877707D01*
X85346292Y-55766213D01*
X85346288Y-55766210D01*
X85215185Y-55678609D01*
X85215172Y-55678602D01*
X85069501Y-55618264D01*
X85069489Y-55618261D01*
X84914845Y-55587500D01*
X84914842Y-55587500D01*
X84757158Y-55587500D01*
X84757155Y-55587500D01*
X84602510Y-55618261D01*
X84602498Y-55618264D01*
X84456827Y-55678602D01*
X84456814Y-55678609D01*
X84325711Y-55766210D01*
X84325707Y-55766213D01*
X84214213Y-55877707D01*
X84214210Y-55877711D01*
X84126609Y-56008814D01*
X84126602Y-56008827D01*
X84066264Y-56154498D01*
X84066261Y-56154510D01*
X84035500Y-56309153D01*
X83655299Y-56309153D01*
X83624538Y-56154510D01*
X83624537Y-56154503D01*
X83595951Y-56085489D01*
X83564197Y-56008827D01*
X83564190Y-56008814D01*
X83476589Y-55877711D01*
X83476586Y-55877707D01*
X83365092Y-55766213D01*
X83365088Y-55766210D01*
X83233985Y-55678609D01*
X83233972Y-55678602D01*
X83088301Y-55618264D01*
X83088289Y-55618261D01*
X82933645Y-55587500D01*
X82933642Y-55587500D01*
X82775958Y-55587500D01*
X82775955Y-55587500D01*
X82621310Y-55618261D01*
X82621298Y-55618264D01*
X82475627Y-55678602D01*
X82475614Y-55678609D01*
X82344511Y-55766210D01*
X82344507Y-55766213D01*
X82233013Y-55877707D01*
X82233010Y-55877711D01*
X82145409Y-56008814D01*
X82145402Y-56008827D01*
X82085064Y-56154498D01*
X82085061Y-56154510D01*
X82054300Y-56309153D01*
X81018500Y-56309153D01*
X81018500Y-54175553D01*
X82054300Y-54175553D01*
X82054300Y-54333246D01*
X82085061Y-54487889D01*
X82085064Y-54487901D01*
X82145402Y-54633572D01*
X82145409Y-54633585D01*
X82233010Y-54764688D01*
X82233013Y-54764692D01*
X82344507Y-54876186D01*
X82344511Y-54876189D01*
X82475614Y-54963790D01*
X82475627Y-54963797D01*
X82603870Y-55016916D01*
X82621303Y-55024137D01*
X82748177Y-55049374D01*
X82775953Y-55054899D01*
X82775956Y-55054900D01*
X82775958Y-55054900D01*
X82933644Y-55054900D01*
X82933645Y-55054899D01*
X83088297Y-55024137D01*
X83214173Y-54971998D01*
X83233972Y-54963797D01*
X83233972Y-54963796D01*
X83233979Y-54963794D01*
X83365089Y-54876189D01*
X83476589Y-54764689D01*
X83564194Y-54633579D01*
X83624537Y-54487897D01*
X83655300Y-54333242D01*
X83655300Y-54175558D01*
X83655300Y-54175555D01*
X83655299Y-54175553D01*
X84035500Y-54175553D01*
X84035500Y-54333246D01*
X84066261Y-54487889D01*
X84066264Y-54487901D01*
X84126602Y-54633572D01*
X84126609Y-54633585D01*
X84214210Y-54764688D01*
X84214213Y-54764692D01*
X84325707Y-54876186D01*
X84325711Y-54876189D01*
X84456814Y-54963790D01*
X84456827Y-54963797D01*
X84585070Y-55016916D01*
X84602503Y-55024137D01*
X84729377Y-55049374D01*
X84757153Y-55054899D01*
X84757156Y-55054900D01*
X84757158Y-55054900D01*
X84914844Y-55054900D01*
X84914845Y-55054899D01*
X85069497Y-55024137D01*
X85195373Y-54971998D01*
X85215172Y-54963797D01*
X85215172Y-54963796D01*
X85215179Y-54963794D01*
X85346289Y-54876189D01*
X85457789Y-54764689D01*
X85545394Y-54633579D01*
X85605737Y-54487897D01*
X85636500Y-54333242D01*
X85636500Y-54175558D01*
X85636500Y-54175555D01*
X85636499Y-54175553D01*
X85617178Y-54078421D01*
X85605737Y-54020903D01*
X85590543Y-53984220D01*
X85545397Y-53875227D01*
X85545390Y-53875214D01*
X85457789Y-53744111D01*
X85457786Y-53744107D01*
X85346292Y-53632613D01*
X85346288Y-53632610D01*
X85215185Y-53545009D01*
X85215172Y-53545002D01*
X85069501Y-53484664D01*
X85069489Y-53484661D01*
X84914845Y-53453900D01*
X84914842Y-53453900D01*
X84757158Y-53453900D01*
X84757155Y-53453900D01*
X84602510Y-53484661D01*
X84602498Y-53484664D01*
X84456827Y-53545002D01*
X84456814Y-53545009D01*
X84325711Y-53632610D01*
X84325707Y-53632613D01*
X84214213Y-53744107D01*
X84214210Y-53744111D01*
X84126609Y-53875214D01*
X84126602Y-53875227D01*
X84066264Y-54020898D01*
X84066261Y-54020910D01*
X84035500Y-54175553D01*
X83655299Y-54175553D01*
X83635978Y-54078421D01*
X83624537Y-54020903D01*
X83609343Y-53984220D01*
X83564197Y-53875227D01*
X83564190Y-53875214D01*
X83476589Y-53744111D01*
X83476586Y-53744107D01*
X83365092Y-53632613D01*
X83365088Y-53632610D01*
X83233985Y-53545009D01*
X83233972Y-53545002D01*
X83088301Y-53484664D01*
X83088289Y-53484661D01*
X82933645Y-53453900D01*
X82933642Y-53453900D01*
X82775958Y-53453900D01*
X82775955Y-53453900D01*
X82621310Y-53484661D01*
X82621298Y-53484664D01*
X82475627Y-53545002D01*
X82475614Y-53545009D01*
X82344511Y-53632610D01*
X82344507Y-53632613D01*
X82233013Y-53744107D01*
X82233010Y-53744111D01*
X82145409Y-53875214D01*
X82145402Y-53875227D01*
X82085064Y-54020898D01*
X82085061Y-54020910D01*
X82054300Y-54175553D01*
X81018500Y-54175553D01*
X81018500Y-50924353D01*
X85762700Y-50924353D01*
X85762700Y-51082046D01*
X85793461Y-51236689D01*
X85793464Y-51236701D01*
X85853802Y-51382372D01*
X85853809Y-51382385D01*
X85941410Y-51513488D01*
X85941413Y-51513492D01*
X86052907Y-51624986D01*
X86052911Y-51624989D01*
X86070434Y-51636698D01*
X86115239Y-51690311D01*
X86123946Y-51759636D01*
X86093791Y-51822663D01*
X86070434Y-51842902D01*
X86052911Y-51854610D01*
X86052907Y-51854613D01*
X85941413Y-51966107D01*
X85941410Y-51966111D01*
X85853809Y-52097214D01*
X85853802Y-52097227D01*
X85793464Y-52242898D01*
X85793461Y-52242910D01*
X85762700Y-52397553D01*
X85762700Y-52555246D01*
X85793461Y-52709889D01*
X85793464Y-52709901D01*
X85853802Y-52855572D01*
X85853809Y-52855585D01*
X85941410Y-52986688D01*
X85941413Y-52986692D01*
X86052907Y-53098186D01*
X86052911Y-53098189D01*
X86184014Y-53185790D01*
X86184027Y-53185797D01*
X86247288Y-53212000D01*
X86329703Y-53246137D01*
X86484353Y-53276899D01*
X86484356Y-53276900D01*
X86484358Y-53276900D01*
X86642044Y-53276900D01*
X86642045Y-53276899D01*
X86796697Y-53246137D01*
X86909366Y-53199467D01*
X86942372Y-53185797D01*
X86942372Y-53185796D01*
X86942379Y-53185794D01*
X87073489Y-53098189D01*
X87184989Y-52986689D01*
X87272594Y-52855579D01*
X87332937Y-52709897D01*
X87363700Y-52555242D01*
X87363700Y-52397558D01*
X87363700Y-52397555D01*
X87363699Y-52397553D01*
X87355663Y-52357150D01*
X87351820Y-52337831D01*
X88325650Y-52337831D01*
X88325650Y-52564168D01*
X88361058Y-52787722D01*
X88361058Y-52787725D01*
X88430998Y-53002978D01*
X88431000Y-53002981D01*
X88533755Y-53204650D01*
X88666793Y-53387761D01*
X88826839Y-53547807D01*
X88904749Y-53604412D01*
X88923351Y-53617927D01*
X88966016Y-53673257D01*
X88971995Y-53742871D01*
X88939389Y-53804666D01*
X88919358Y-53821346D01*
X88897710Y-53835811D01*
X88897707Y-53835813D01*
X88786213Y-53947307D01*
X88786210Y-53947311D01*
X88698609Y-54078414D01*
X88698602Y-54078427D01*
X88638264Y-54224098D01*
X88638261Y-54224110D01*
X88607500Y-54378753D01*
X88607500Y-54536446D01*
X88638261Y-54691089D01*
X88638264Y-54691101D01*
X88698602Y-54836772D01*
X88698609Y-54836785D01*
X88786210Y-54967888D01*
X88786213Y-54967892D01*
X88897707Y-55079386D01*
X88897711Y-55079389D01*
X89028814Y-55166990D01*
X89028827Y-55166997D01*
X89174498Y-55227335D01*
X89174503Y-55227337D01*
X89329153Y-55258099D01*
X89329156Y-55258100D01*
X89329158Y-55258100D01*
X89486844Y-55258100D01*
X89560507Y-55243447D01*
X89639168Y-55227800D01*
X89708759Y-55234027D01*
X89732250Y-55246315D01*
X89841614Y-55319390D01*
X89841627Y-55319397D01*
X89987298Y-55379735D01*
X89987303Y-55379737D01*
X90141953Y-55410499D01*
X90141956Y-55410500D01*
X90141958Y-55410500D01*
X90299644Y-55410500D01*
X90299645Y-55410499D01*
X90454297Y-55379737D01*
X90599979Y-55319394D01*
X90731089Y-55231789D01*
X90842589Y-55120289D01*
X90860035Y-55094177D01*
X90913642Y-55049374D01*
X90982967Y-55040664D01*
X91010585Y-55048505D01*
X91070058Y-55073140D01*
X91175841Y-55094181D01*
X91214140Y-55101799D01*
X91214144Y-55101800D01*
X91214145Y-55101800D01*
X91361056Y-55101800D01*
X91361057Y-55101799D01*
X91505142Y-55073140D01*
X91640869Y-55016920D01*
X91763020Y-54935301D01*
X91866901Y-54831420D01*
X91948520Y-54709269D01*
X92004740Y-54573542D01*
X92033400Y-54429455D01*
X92033400Y-54282545D01*
X92033399Y-54282540D01*
X92573800Y-54282540D01*
X92573800Y-54429459D01*
X92602458Y-54573534D01*
X92602461Y-54573544D01*
X92658678Y-54709266D01*
X92658683Y-54709275D01*
X92740298Y-54831419D01*
X92740301Y-54831423D01*
X92844176Y-54935298D01*
X92844180Y-54935301D01*
X92966324Y-55016916D01*
X92966333Y-55016921D01*
X92983754Y-55024137D01*
X93102058Y-55073140D01*
X93207841Y-55094181D01*
X93246140Y-55101799D01*
X93246144Y-55101800D01*
X93378055Y-55101800D01*
X93445094Y-55121485D01*
X93490849Y-55174289D01*
X93500793Y-55243447D01*
X93492616Y-55273253D01*
X93464263Y-55341702D01*
X93464261Y-55341710D01*
X93433500Y-55496353D01*
X93433500Y-55654046D01*
X93464261Y-55808689D01*
X93464264Y-55808701D01*
X93524602Y-55954372D01*
X93524609Y-55954385D01*
X93612210Y-56085488D01*
X93612213Y-56085492D01*
X93723707Y-56196986D01*
X93723711Y-56196989D01*
X93854814Y-56284590D01*
X93854827Y-56284597D01*
X93973654Y-56333816D01*
X94000503Y-56344937D01*
X94155153Y-56375699D01*
X94155156Y-56375700D01*
X94155158Y-56375700D01*
X94312844Y-56375700D01*
X94312845Y-56375699D01*
X94467497Y-56344937D01*
X94613179Y-56284594D01*
X94744289Y-56196989D01*
X94855789Y-56085489D01*
X94943394Y-55954379D01*
X95003737Y-55808697D01*
X95034500Y-55654042D01*
X95034500Y-55519713D01*
X100046300Y-55519713D01*
X100046300Y-55732287D01*
X100079554Y-55942243D01*
X100126097Y-56085488D01*
X100145244Y-56144414D01*
X100241751Y-56333820D01*
X100366690Y-56505786D01*
X100517013Y-56656109D01*
X100688982Y-56781050D01*
X100697746Y-56785516D01*
X100748542Y-56833491D01*
X100765336Y-56901312D01*
X100742798Y-56967447D01*
X100697746Y-57006484D01*
X100688982Y-57010949D01*
X100517013Y-57135890D01*
X100366690Y-57286213D01*
X100241751Y-57458179D01*
X100145244Y-57647585D01*
X100079553Y-57849760D01*
X100078091Y-57858993D01*
X100046300Y-58059713D01*
X100046300Y-58272287D01*
X100056334Y-58335644D01*
X100079553Y-58482239D01*
X100145244Y-58684414D01*
X100241751Y-58873820D01*
X100366690Y-59045786D01*
X100517013Y-59196109D01*
X100688979Y-59321048D01*
X100688981Y-59321049D01*
X100688984Y-59321051D01*
X100878388Y-59417557D01*
X101080557Y-59483246D01*
X101290513Y-59516500D01*
X101290514Y-59516500D01*
X101503086Y-59516500D01*
X101503087Y-59516500D01*
X101713043Y-59483246D01*
X101915212Y-59417557D01*
X102104616Y-59321051D01*
X102205057Y-59248077D01*
X102276586Y-59196109D01*
X102276588Y-59196106D01*
X102276592Y-59196104D01*
X102426904Y-59045792D01*
X102426906Y-59045788D01*
X102426909Y-59045786D01*
X102551848Y-58873820D01*
X102551847Y-58873820D01*
X102551851Y-58873816D01*
X102556314Y-58865054D01*
X102604288Y-58814259D01*
X102672108Y-58797463D01*
X102738244Y-58819999D01*
X102777286Y-58865056D01*
X102781751Y-58873820D01*
X102906690Y-59045786D01*
X103057013Y-59196109D01*
X103228979Y-59321048D01*
X103228981Y-59321049D01*
X103228984Y-59321051D01*
X103418388Y-59417557D01*
X103620557Y-59483246D01*
X103830513Y-59516500D01*
X103830514Y-59516500D01*
X104043086Y-59516500D01*
X104043087Y-59516500D01*
X104253043Y-59483246D01*
X104455212Y-59417557D01*
X104581607Y-59353155D01*
X104650274Y-59340260D01*
X104715014Y-59366536D01*
X104755272Y-59423642D01*
X104761900Y-59463641D01*
X104761900Y-59565646D01*
X104792661Y-59720289D01*
X104792664Y-59720301D01*
X104853002Y-59865972D01*
X104853009Y-59865985D01*
X104940610Y-59997088D01*
X104940613Y-59997092D01*
X105052107Y-60108586D01*
X105052111Y-60108589D01*
X105183214Y-60196190D01*
X105183227Y-60196197D01*
X105328898Y-60256535D01*
X105328903Y-60256537D01*
X105483553Y-60287299D01*
X105483556Y-60287300D01*
X105483558Y-60287300D01*
X105641244Y-60287300D01*
X105702702Y-60275074D01*
X105773675Y-60260957D01*
X105843265Y-60267184D01*
X105898443Y-60310046D01*
X105912427Y-60335122D01*
X105970602Y-60475572D01*
X105970609Y-60475585D01*
X106058210Y-60606688D01*
X106058213Y-60606692D01*
X106169707Y-60718186D01*
X106169711Y-60718189D01*
X106300814Y-60805790D01*
X106300827Y-60805797D01*
X106446498Y-60866135D01*
X106446503Y-60866137D01*
X106601153Y-60896899D01*
X106601156Y-60896900D01*
X106601158Y-60896900D01*
X106758844Y-60896900D01*
X106758845Y-60896899D01*
X106913497Y-60866137D01*
X107026166Y-60819467D01*
X107059172Y-60805797D01*
X107059172Y-60805796D01*
X107059179Y-60805794D01*
X107190289Y-60718189D01*
X107301789Y-60606689D01*
X107389394Y-60475579D01*
X107449737Y-60329897D01*
X107480500Y-60175242D01*
X107480500Y-60017558D01*
X107480500Y-60017555D01*
X107480499Y-60017553D01*
X107461178Y-59920421D01*
X107449737Y-59862903D01*
X107449735Y-59862898D01*
X107389397Y-59717227D01*
X107389390Y-59717214D01*
X107301789Y-59586111D01*
X107301786Y-59586107D01*
X107190292Y-59474613D01*
X107190288Y-59474610D01*
X107059185Y-59387009D01*
X107059172Y-59387002D01*
X106966391Y-59348572D01*
X106913501Y-59326664D01*
X106913489Y-59326661D01*
X106758845Y-59295900D01*
X106758842Y-59295900D01*
X106601158Y-59295900D01*
X106601153Y-59295900D01*
X106468724Y-59322242D01*
X106399133Y-59316015D01*
X106343955Y-59273152D01*
X106329972Y-59248077D01*
X106271797Y-59107626D01*
X106271790Y-59107614D01*
X106184189Y-58976511D01*
X106184186Y-58976507D01*
X106072692Y-58865013D01*
X106072688Y-58865010D01*
X105941585Y-58777409D01*
X105941572Y-58777402D01*
X105795901Y-58717064D01*
X105795889Y-58717061D01*
X105641245Y-58686300D01*
X105641242Y-58686300D01*
X105483558Y-58686300D01*
X105483553Y-58686300D01*
X105374802Y-58707932D01*
X105305210Y-58701705D01*
X105250033Y-58658842D01*
X105226789Y-58592952D01*
X105232679Y-58548003D01*
X105254046Y-58482243D01*
X105287300Y-58272287D01*
X105287300Y-58059713D01*
X105254046Y-57849757D01*
X105188357Y-57647588D01*
X105091851Y-57458184D01*
X105091849Y-57458181D01*
X105091848Y-57458179D01*
X104966909Y-57286213D01*
X104816586Y-57135890D01*
X104644620Y-57010951D01*
X104636400Y-57006763D01*
X104635854Y-57006485D01*
X104585059Y-56958512D01*
X104568263Y-56890692D01*
X104590799Y-56824556D01*
X104635854Y-56785515D01*
X104644616Y-56781051D01*
X104749321Y-56704979D01*
X104816586Y-56656109D01*
X104816588Y-56656106D01*
X104816592Y-56656104D01*
X104966904Y-56505792D01*
X104966906Y-56505788D01*
X104966909Y-56505786D01*
X105091848Y-56333820D01*
X105091847Y-56333820D01*
X105091851Y-56333816D01*
X105188357Y-56144412D01*
X105254046Y-55942243D01*
X105287300Y-55732287D01*
X105287300Y-55519713D01*
X105254046Y-55309757D01*
X105188357Y-55107588D01*
X105091851Y-54918184D01*
X105091849Y-54918181D01*
X105091848Y-54918179D01*
X104966909Y-54746213D01*
X104816586Y-54595890D01*
X104644620Y-54470951D01*
X104636936Y-54467036D01*
X104635854Y-54466485D01*
X104585059Y-54418512D01*
X104568263Y-54350692D01*
X104590799Y-54284556D01*
X104635854Y-54245515D01*
X104644616Y-54241051D01*
X104734760Y-54175558D01*
X104816586Y-54116109D01*
X104816588Y-54116106D01*
X104816592Y-54116104D01*
X104966904Y-53965792D01*
X104966906Y-53965788D01*
X104966909Y-53965786D01*
X105091848Y-53793820D01*
X105091847Y-53793820D01*
X105091851Y-53793816D01*
X105188357Y-53604412D01*
X105254046Y-53402243D01*
X105287300Y-53192287D01*
X105287300Y-52979713D01*
X110053900Y-52979713D01*
X110053900Y-53192286D01*
X110084860Y-53387763D01*
X110087154Y-53402243D01*
X110134451Y-53547809D01*
X110152844Y-53604414D01*
X110249351Y-53793820D01*
X110374290Y-53965786D01*
X110524613Y-54116109D01*
X110696582Y-54241050D01*
X110705346Y-54245516D01*
X110756142Y-54293491D01*
X110772936Y-54361312D01*
X110750398Y-54427447D01*
X110705346Y-54466484D01*
X110696582Y-54470949D01*
X110524613Y-54595890D01*
X110374290Y-54746213D01*
X110249351Y-54918179D01*
X110152844Y-55107585D01*
X110087153Y-55309760D01*
X110057600Y-55496353D01*
X110053900Y-55519713D01*
X110053900Y-55732287D01*
X110087154Y-55942243D01*
X110133697Y-56085488D01*
X110152844Y-56144414D01*
X110249351Y-56333820D01*
X110374290Y-56505786D01*
X110524613Y-56656109D01*
X110696579Y-56781048D01*
X110696581Y-56781049D01*
X110696584Y-56781051D01*
X110705893Y-56785794D01*
X110756690Y-56833766D01*
X110773487Y-56901587D01*
X110750952Y-56967722D01*
X110705905Y-57006760D01*
X110696846Y-57011376D01*
X110696840Y-57011380D01*
X110642682Y-57050727D01*
X110642682Y-57050728D01*
X111274991Y-57683037D01*
X111211407Y-57700075D01*
X111097393Y-57765901D01*
X111004301Y-57858993D01*
X110938475Y-57973007D01*
X110921437Y-58036591D01*
X110289128Y-57404282D01*
X110289127Y-57404282D01*
X110249780Y-57458439D01*
X110153304Y-57647782D01*
X110087642Y-57849869D01*
X110087642Y-57849872D01*
X110054400Y-58059753D01*
X110054400Y-58272246D01*
X110087642Y-58482127D01*
X110087642Y-58482130D01*
X110153304Y-58684217D01*
X110249775Y-58873550D01*
X110289128Y-58927716D01*
X110921437Y-58295408D01*
X110938475Y-58358993D01*
X111004301Y-58473007D01*
X111097393Y-58566099D01*
X111211407Y-58631925D01*
X111274990Y-58648962D01*
X110642682Y-59281269D01*
X110642682Y-59281270D01*
X110696849Y-59320624D01*
X110886182Y-59417095D01*
X111088270Y-59482757D01*
X111298154Y-59516000D01*
X111510646Y-59516000D01*
X111720527Y-59482757D01*
X111720530Y-59482757D01*
X111922617Y-59417095D01*
X112111954Y-59320622D01*
X112166116Y-59281270D01*
X112166117Y-59281270D01*
X111533808Y-58648962D01*
X111597393Y-58631925D01*
X111711407Y-58566099D01*
X111804499Y-58473007D01*
X111870325Y-58358993D01*
X111887362Y-58295408D01*
X112523653Y-58931700D01*
X112577145Y-58942937D01*
X112626903Y-58991988D01*
X112636205Y-59013187D01*
X112660042Y-59085121D01*
X112660043Y-59085124D01*
X112752084Y-59234345D01*
X112876054Y-59358315D01*
X113025275Y-59450356D01*
X113025280Y-59450358D01*
X113191702Y-59505505D01*
X113191709Y-59505506D01*
X113294419Y-59515999D01*
X113694399Y-59515999D01*
X113694400Y-59515998D01*
X113694400Y-58599012D01*
X113751407Y-58631925D01*
X113878574Y-58666000D01*
X114010226Y-58666000D01*
X114137393Y-58631925D01*
X114194400Y-58599012D01*
X114194400Y-59515999D01*
X114594372Y-59515999D01*
X114594386Y-59515998D01*
X114697097Y-59505505D01*
X114863519Y-59450358D01*
X114863524Y-59450356D01*
X115012745Y-59358315D01*
X115136715Y-59234345D01*
X115228756Y-59085124D01*
X115228758Y-59085119D01*
X115283905Y-58918697D01*
X115283906Y-58918690D01*
X115294399Y-58815986D01*
X115294400Y-58815973D01*
X115294400Y-58416000D01*
X114377412Y-58416000D01*
X114410325Y-58358993D01*
X114444400Y-58231826D01*
X114444400Y-58100174D01*
X114410325Y-57973007D01*
X114377412Y-57916000D01*
X115294399Y-57916000D01*
X115294399Y-57516028D01*
X115294398Y-57516013D01*
X115283905Y-57413302D01*
X115228758Y-57246880D01*
X115228756Y-57246875D01*
X115136715Y-57097654D01*
X115012745Y-56973684D01*
X114863524Y-56881643D01*
X114863514Y-56881639D01*
X114852672Y-56878046D01*
X114795229Y-56838272D01*
X114768409Y-56773755D01*
X114780726Y-56704979D01*
X114818803Y-56660018D01*
X114824192Y-56656104D01*
X114974504Y-56505792D01*
X114974506Y-56505788D01*
X114974509Y-56505786D01*
X115099448Y-56333820D01*
X115099447Y-56333820D01*
X115099451Y-56333816D01*
X115195957Y-56144412D01*
X115261646Y-55942243D01*
X115294900Y-55732287D01*
X115294900Y-55519713D01*
X115261646Y-55309757D01*
X115195957Y-55107588D01*
X115099451Y-54918184D01*
X115099449Y-54918181D01*
X115099448Y-54918179D01*
X114974509Y-54746213D01*
X114824186Y-54595890D01*
X114652220Y-54470951D01*
X114644536Y-54467036D01*
X114643454Y-54466485D01*
X114592659Y-54418512D01*
X114575863Y-54350692D01*
X114598399Y-54284556D01*
X114643454Y-54245515D01*
X114652216Y-54241051D01*
X114742360Y-54175558D01*
X114824186Y-54116109D01*
X114824188Y-54116106D01*
X114824192Y-54116104D01*
X114974504Y-53965792D01*
X114974506Y-53965788D01*
X114974509Y-53965786D01*
X115099448Y-53793820D01*
X115099447Y-53793820D01*
X115099451Y-53793816D01*
X115195957Y-53604412D01*
X115261646Y-53402243D01*
X115294900Y-53192287D01*
X115294900Y-52979713D01*
X115261646Y-52769757D01*
X115195957Y-52567588D01*
X115099451Y-52378184D01*
X115099449Y-52378181D01*
X115099448Y-52378179D01*
X114974509Y-52206213D01*
X114824186Y-52055890D01*
X114652220Y-51930951D01*
X114462814Y-51834444D01*
X114462813Y-51834443D01*
X114462812Y-51834443D01*
X114260643Y-51768754D01*
X114260641Y-51768753D01*
X114260640Y-51768753D01*
X114099357Y-51743208D01*
X114050687Y-51735500D01*
X113838113Y-51735500D01*
X113789442Y-51743208D01*
X113628160Y-51768753D01*
X113425985Y-51834444D01*
X113236579Y-51930951D01*
X113064613Y-52055890D01*
X112914290Y-52206213D01*
X112789349Y-52378182D01*
X112784884Y-52386946D01*
X112736909Y-52437742D01*
X112669088Y-52454536D01*
X112602953Y-52431998D01*
X112563916Y-52386946D01*
X112559450Y-52378182D01*
X112434509Y-52206213D01*
X112284186Y-52055890D01*
X112112220Y-51930951D01*
X111922814Y-51834444D01*
X111922813Y-51834443D01*
X111922812Y-51834443D01*
X111720643Y-51768754D01*
X111720641Y-51768753D01*
X111720640Y-51768753D01*
X111559357Y-51743208D01*
X111510687Y-51735500D01*
X111298113Y-51735500D01*
X111249442Y-51743208D01*
X111088160Y-51768753D01*
X110885985Y-51834444D01*
X110696579Y-51930951D01*
X110524613Y-52055890D01*
X110374290Y-52206213D01*
X110249351Y-52378179D01*
X110152844Y-52567585D01*
X110087153Y-52769760D01*
X110053900Y-52979713D01*
X105287300Y-52979713D01*
X105254046Y-52769757D01*
X105188357Y-52567588D01*
X105091851Y-52378184D01*
X105091849Y-52378181D01*
X105091848Y-52378179D01*
X104966909Y-52206213D01*
X104816586Y-52055890D01*
X104644620Y-51930951D01*
X104455214Y-51834444D01*
X104455213Y-51834443D01*
X104455212Y-51834443D01*
X104253043Y-51768754D01*
X104253041Y-51768753D01*
X104253040Y-51768753D01*
X104091757Y-51743208D01*
X104043087Y-51735500D01*
X103830513Y-51735500D01*
X103781842Y-51743208D01*
X103620560Y-51768753D01*
X103418385Y-51834444D01*
X103228979Y-51930951D01*
X103057013Y-52055890D01*
X102906692Y-52206211D01*
X102902774Y-52211605D01*
X102847443Y-52254270D01*
X102777829Y-52260248D01*
X102716035Y-52227641D01*
X102684751Y-52177723D01*
X102681157Y-52166878D01*
X102681156Y-52166875D01*
X102589115Y-52017654D01*
X102465145Y-51893684D01*
X102315924Y-51801643D01*
X102315919Y-51801641D01*
X102149497Y-51746494D01*
X102149490Y-51746493D01*
X102046786Y-51736000D01*
X101646800Y-51736000D01*
X101646800Y-52652988D01*
X101589793Y-52620075D01*
X101462626Y-52586000D01*
X101330974Y-52586000D01*
X101203807Y-52620075D01*
X101146800Y-52652988D01*
X101146800Y-51736000D01*
X100746828Y-51736000D01*
X100746812Y-51736001D01*
X100644102Y-51746494D01*
X100477680Y-51801641D01*
X100477675Y-51801643D01*
X100328454Y-51893684D01*
X100204484Y-52017654D01*
X100112443Y-52166875D01*
X100112441Y-52166880D01*
X100057294Y-52333302D01*
X100057293Y-52333309D01*
X100046800Y-52436013D01*
X100046800Y-52836000D01*
X100963788Y-52836000D01*
X100930875Y-52893007D01*
X100896800Y-53020174D01*
X100896800Y-53151826D01*
X100930875Y-53278993D01*
X100963788Y-53336000D01*
X100046801Y-53336000D01*
X100046801Y-53735986D01*
X100057294Y-53838697D01*
X100112441Y-54005119D01*
X100112443Y-54005124D01*
X100204484Y-54154345D01*
X100328454Y-54278315D01*
X100477675Y-54370356D01*
X100477678Y-54370357D01*
X100488523Y-54373951D01*
X100545967Y-54413724D01*
X100572790Y-54478240D01*
X100560475Y-54547016D01*
X100522405Y-54591974D01*
X100517011Y-54595892D01*
X100366690Y-54746213D01*
X100241751Y-54918179D01*
X100145244Y-55107585D01*
X100079553Y-55309760D01*
X100050000Y-55496353D01*
X100046300Y-55519713D01*
X95034500Y-55519713D01*
X95034500Y-55496358D01*
X95034500Y-55496355D01*
X95034499Y-55496353D01*
X95003737Y-55341703D01*
X94994498Y-55319397D01*
X94943397Y-55196027D01*
X94943390Y-55196014D01*
X94855789Y-55064911D01*
X94855786Y-55064907D01*
X94744292Y-54953413D01*
X94744288Y-54953410D01*
X94613185Y-54865809D01*
X94613172Y-54865802D01*
X94467501Y-54805464D01*
X94467489Y-54805461D01*
X94312845Y-54774700D01*
X94312842Y-54774700D01*
X94155158Y-54774700D01*
X94155152Y-54774700D01*
X94150711Y-54775137D01*
X94082066Y-54762112D01*
X94031360Y-54714042D01*
X94014692Y-54646190D01*
X94024007Y-54604281D01*
X94036740Y-54573542D01*
X94065400Y-54429455D01*
X94065400Y-54282545D01*
X94036740Y-54138458D01*
X93980520Y-54002731D01*
X93980519Y-54002730D01*
X93980516Y-54002724D01*
X93898901Y-53880580D01*
X93898898Y-53880576D01*
X93795023Y-53776701D01*
X93795019Y-53776698D01*
X93672875Y-53695083D01*
X93672866Y-53695078D01*
X93537144Y-53638861D01*
X93537145Y-53638861D01*
X93537142Y-53638860D01*
X93537138Y-53638859D01*
X93537134Y-53638858D01*
X93393059Y-53610200D01*
X93393055Y-53610200D01*
X93246145Y-53610200D01*
X93246140Y-53610200D01*
X93102065Y-53638858D01*
X93102055Y-53638861D01*
X92966333Y-53695078D01*
X92966324Y-53695083D01*
X92844180Y-53776698D01*
X92844176Y-53776701D01*
X92740301Y-53880576D01*
X92740298Y-53880580D01*
X92658683Y-54002724D01*
X92658678Y-54002733D01*
X92602461Y-54138455D01*
X92602458Y-54138465D01*
X92573800Y-54282540D01*
X92033399Y-54282540D01*
X92004740Y-54138458D01*
X91948520Y-54002731D01*
X91948519Y-54002730D01*
X91948516Y-54002724D01*
X91866901Y-53880580D01*
X91866898Y-53880576D01*
X91763023Y-53776701D01*
X91763019Y-53776698D01*
X91640875Y-53695083D01*
X91640866Y-53695078D01*
X91505144Y-53638861D01*
X91505145Y-53638861D01*
X91505142Y-53638860D01*
X91505138Y-53638859D01*
X91505134Y-53638858D01*
X91361059Y-53610200D01*
X91361055Y-53610200D01*
X91214145Y-53610200D01*
X91214140Y-53610200D01*
X91070065Y-53638858D01*
X91070055Y-53638861D01*
X90934333Y-53695078D01*
X90934324Y-53695083D01*
X90812180Y-53776698D01*
X90720998Y-53867880D01*
X90659674Y-53901364D01*
X90589983Y-53896380D01*
X90585867Y-53894760D01*
X90559210Y-53883719D01*
X90504805Y-53839879D01*
X90482739Y-53773586D01*
X90500017Y-53705886D01*
X90533775Y-53668839D01*
X90575040Y-53638858D01*
X90700361Y-53547807D01*
X90860407Y-53387761D01*
X90993445Y-53204650D01*
X91096200Y-53002981D01*
X91103760Y-52979713D01*
X91166141Y-52787725D01*
X91166141Y-52787724D01*
X91166142Y-52787721D01*
X91201550Y-52564169D01*
X91201550Y-52337831D01*
X93405650Y-52337831D01*
X93405650Y-52564168D01*
X93441058Y-52787722D01*
X93441058Y-52787725D01*
X93510998Y-53002978D01*
X93511000Y-53002981D01*
X93613755Y-53204650D01*
X93746793Y-53387761D01*
X93906839Y-53547807D01*
X94089950Y-53680845D01*
X94291619Y-53783600D01*
X94291621Y-53783601D01*
X94464828Y-53839879D01*
X94506879Y-53853542D01*
X94730431Y-53888950D01*
X94730432Y-53888950D01*
X94956768Y-53888950D01*
X94956769Y-53888950D01*
X95180321Y-53853542D01*
X95180324Y-53853541D01*
X95180325Y-53853541D01*
X95395578Y-53783601D01*
X95395578Y-53783600D01*
X95395581Y-53783600D01*
X95597250Y-53680845D01*
X95780361Y-53547807D01*
X95940407Y-53387761D01*
X96073445Y-53204650D01*
X96176200Y-53002981D01*
X96183760Y-52979713D01*
X96246141Y-52787725D01*
X96246141Y-52787724D01*
X96246142Y-52787721D01*
X96281550Y-52564169D01*
X96281550Y-52337831D01*
X96246142Y-52114279D01*
X96246141Y-52114275D01*
X96246141Y-52114274D01*
X96176201Y-51899021D01*
X96176199Y-51899018D01*
X96173482Y-51893684D01*
X96073445Y-51697350D01*
X95940407Y-51514239D01*
X95780361Y-51354193D01*
X95597250Y-51221155D01*
X95395581Y-51118400D01*
X95395578Y-51118398D01*
X95180323Y-51048458D01*
X95031286Y-51024852D01*
X94956769Y-51013050D01*
X94730431Y-51013050D01*
X94655913Y-51024852D01*
X94506877Y-51048458D01*
X94506874Y-51048458D01*
X94291621Y-51118398D01*
X94291618Y-51118400D01*
X94089949Y-51221155D01*
X93985478Y-51297058D01*
X93906839Y-51354193D01*
X93906837Y-51354195D01*
X93906836Y-51354195D01*
X93746795Y-51514236D01*
X93746795Y-51514237D01*
X93746793Y-51514239D01*
X93689658Y-51592878D01*
X93613755Y-51697349D01*
X93511000Y-51899018D01*
X93510998Y-51899021D01*
X93441058Y-52114274D01*
X93441058Y-52114277D01*
X93405650Y-52337831D01*
X91201550Y-52337831D01*
X91166142Y-52114279D01*
X91166141Y-52114275D01*
X91166141Y-52114274D01*
X91096201Y-51899021D01*
X91096199Y-51899018D01*
X91093482Y-51893684D01*
X90993445Y-51697350D01*
X90860407Y-51514239D01*
X90700361Y-51354193D01*
X90517250Y-51221155D01*
X90315581Y-51118400D01*
X90315578Y-51118398D01*
X90100323Y-51048458D01*
X89951286Y-51024852D01*
X89876769Y-51013050D01*
X89650431Y-51013050D01*
X89575913Y-51024852D01*
X89426877Y-51048458D01*
X89426874Y-51048458D01*
X89211621Y-51118398D01*
X89211618Y-51118400D01*
X89009949Y-51221155D01*
X88905478Y-51297058D01*
X88826839Y-51354193D01*
X88826837Y-51354195D01*
X88826836Y-51354195D01*
X88666795Y-51514236D01*
X88666795Y-51514237D01*
X88666793Y-51514239D01*
X88609658Y-51592878D01*
X88533755Y-51697349D01*
X88431000Y-51899018D01*
X88430998Y-51899021D01*
X88361058Y-52114274D01*
X88361058Y-52114277D01*
X88325650Y-52337831D01*
X87351820Y-52337831D01*
X87332938Y-52242908D01*
X87332937Y-52242907D01*
X87332937Y-52242903D01*
X87305939Y-52177723D01*
X87272597Y-52097227D01*
X87272590Y-52097214D01*
X87184989Y-51966111D01*
X87184986Y-51966107D01*
X87073492Y-51854613D01*
X87073487Y-51854609D01*
X87055967Y-51842903D01*
X87011161Y-51789292D01*
X87002452Y-51719967D01*
X87032606Y-51656939D01*
X87055967Y-51636697D01*
X87061631Y-51632912D01*
X87073489Y-51624989D01*
X87184989Y-51513489D01*
X87272594Y-51382379D01*
X87332937Y-51236697D01*
X87363700Y-51082042D01*
X87363700Y-50924358D01*
X87363700Y-50924355D01*
X87363699Y-50924353D01*
X87332938Y-50769710D01*
X87332937Y-50769703D01*
X87309844Y-50713950D01*
X87272597Y-50624027D01*
X87272590Y-50624014D01*
X87184989Y-50492911D01*
X87184986Y-50492907D01*
X87073492Y-50381413D01*
X87073488Y-50381410D01*
X86942385Y-50293809D01*
X86942372Y-50293802D01*
X86796701Y-50233464D01*
X86796689Y-50233461D01*
X86642045Y-50202700D01*
X86642042Y-50202700D01*
X86484358Y-50202700D01*
X86484355Y-50202700D01*
X86329710Y-50233461D01*
X86329698Y-50233464D01*
X86184027Y-50293802D01*
X86184014Y-50293809D01*
X86052911Y-50381410D01*
X86052907Y-50381413D01*
X85941413Y-50492907D01*
X85941410Y-50492911D01*
X85853809Y-50624014D01*
X85853802Y-50624027D01*
X85793464Y-50769698D01*
X85793461Y-50769710D01*
X85762700Y-50924353D01*
X81018500Y-50924353D01*
X81018500Y-48560113D01*
X82266300Y-48560113D01*
X82266300Y-48772686D01*
X82296549Y-48963674D01*
X82299554Y-48982643D01*
X82358347Y-49163589D01*
X82365244Y-49184814D01*
X82461751Y-49374220D01*
X82586690Y-49546186D01*
X82737013Y-49696509D01*
X82908979Y-49821448D01*
X82908981Y-49821449D01*
X82908984Y-49821451D01*
X83098388Y-49917957D01*
X83300557Y-49983646D01*
X83510513Y-50016900D01*
X83510514Y-50016900D01*
X83723086Y-50016900D01*
X83723087Y-50016900D01*
X83933043Y-49983646D01*
X84135212Y-49917957D01*
X84324616Y-49821451D01*
X84421002Y-49751423D01*
X84496586Y-49696509D01*
X84496588Y-49696506D01*
X84496592Y-49696504D01*
X84646904Y-49546192D01*
X84646906Y-49546188D01*
X84646909Y-49546186D01*
X84771848Y-49374220D01*
X84771847Y-49374220D01*
X84771851Y-49374216D01*
X84868357Y-49184812D01*
X84875499Y-49162831D01*
X88325650Y-49162831D01*
X88325650Y-49389169D01*
X88335597Y-49451972D01*
X88361058Y-49612722D01*
X88361058Y-49612725D01*
X88430998Y-49827978D01*
X88431000Y-49827981D01*
X88533755Y-50029650D01*
X88666793Y-50212761D01*
X88826839Y-50372807D01*
X89009950Y-50505845D01*
X89211619Y-50608600D01*
X89211621Y-50608601D01*
X89412401Y-50673837D01*
X89426879Y-50678542D01*
X89650431Y-50713950D01*
X89650432Y-50713950D01*
X89876768Y-50713950D01*
X89876769Y-50713950D01*
X90100321Y-50678542D01*
X90100324Y-50678541D01*
X90100325Y-50678541D01*
X90315578Y-50608601D01*
X90315578Y-50608600D01*
X90315581Y-50608600D01*
X90517250Y-50505845D01*
X90700361Y-50372807D01*
X90860407Y-50212761D01*
X90993445Y-50029650D01*
X91096200Y-49827981D01*
X91121076Y-49751420D01*
X91166141Y-49612725D01*
X91166141Y-49612724D01*
X91166142Y-49612721D01*
X91201550Y-49389169D01*
X91201550Y-49202540D01*
X91557800Y-49202540D01*
X91557800Y-49349459D01*
X91586458Y-49493534D01*
X91586461Y-49493544D01*
X91642678Y-49629266D01*
X91642683Y-49629275D01*
X91724298Y-49751419D01*
X91724301Y-49751423D01*
X91828176Y-49855298D01*
X91828180Y-49855301D01*
X91950324Y-49936916D01*
X91950330Y-49936919D01*
X91950331Y-49936920D01*
X92086058Y-49993140D01*
X92230140Y-50021799D01*
X92230144Y-50021800D01*
X92230145Y-50021800D01*
X92377056Y-50021800D01*
X92377057Y-50021799D01*
X92521142Y-49993140D01*
X92656869Y-49936920D01*
X92779020Y-49855301D01*
X92882901Y-49751420D01*
X92964520Y-49629269D01*
X93020740Y-49493542D01*
X93049400Y-49349455D01*
X93049400Y-49202545D01*
X93045343Y-49182148D01*
X93045343Y-49182146D01*
X93041501Y-49162831D01*
X93405650Y-49162831D01*
X93405650Y-49389169D01*
X93415597Y-49451972D01*
X93441058Y-49612722D01*
X93441058Y-49612725D01*
X93510998Y-49827978D01*
X93511000Y-49827981D01*
X93613755Y-50029650D01*
X93746793Y-50212761D01*
X93906839Y-50372807D01*
X94089950Y-50505845D01*
X94291619Y-50608600D01*
X94291621Y-50608601D01*
X94492401Y-50673837D01*
X94506879Y-50678542D01*
X94730431Y-50713950D01*
X94730432Y-50713950D01*
X94956768Y-50713950D01*
X94956769Y-50713950D01*
X95180321Y-50678542D01*
X95180324Y-50678541D01*
X95180325Y-50678541D01*
X95395578Y-50608601D01*
X95395578Y-50608600D01*
X95395581Y-50608600D01*
X95597250Y-50505845D01*
X95780361Y-50372807D01*
X95940407Y-50212761D01*
X96073445Y-50029650D01*
X96176200Y-49827981D01*
X96201076Y-49751420D01*
X96246141Y-49612725D01*
X96246141Y-49612724D01*
X96246142Y-49612721D01*
X96281550Y-49389169D01*
X96281550Y-49162831D01*
X96246142Y-48939279D01*
X96246141Y-48939275D01*
X96246141Y-48939274D01*
X96191850Y-48772184D01*
X96181378Y-48739953D01*
X102933100Y-48739953D01*
X102933100Y-48897646D01*
X102963861Y-49052289D01*
X102963864Y-49052301D01*
X103024202Y-49197972D01*
X103024209Y-49197985D01*
X103111810Y-49329088D01*
X103111813Y-49329092D01*
X103223307Y-49440586D01*
X103223311Y-49440589D01*
X103354414Y-49528190D01*
X103354427Y-49528197D01*
X103500098Y-49588535D01*
X103500103Y-49588537D01*
X103654753Y-49619299D01*
X103654756Y-49619300D01*
X103654758Y-49619300D01*
X103812444Y-49619300D01*
X103812445Y-49619299D01*
X103967097Y-49588537D01*
X104112779Y-49528194D01*
X104243889Y-49440589D01*
X104355389Y-49329089D01*
X104442994Y-49197979D01*
X104442995Y-49197976D01*
X104442997Y-49197973D01*
X104457239Y-49163589D01*
X104501079Y-49109185D01*
X104567373Y-49087120D01*
X104635073Y-49104399D01*
X104682683Y-49155535D01*
X104686361Y-49163589D01*
X104700602Y-49197973D01*
X104700609Y-49197985D01*
X104788210Y-49329088D01*
X104788213Y-49329092D01*
X104899707Y-49440586D01*
X104899711Y-49440589D01*
X105030814Y-49528190D01*
X105030827Y-49528197D01*
X105176498Y-49588535D01*
X105176503Y-49588537D01*
X105331153Y-49619299D01*
X105331156Y-49619300D01*
X105331158Y-49619300D01*
X105488844Y-49619300D01*
X105488845Y-49619299D01*
X105643497Y-49588537D01*
X105789179Y-49528194D01*
X105920289Y-49440589D01*
X106031789Y-49329089D01*
X106119394Y-49197979D01*
X106138587Y-49151644D01*
X106159039Y-49102267D01*
X106202879Y-49047863D01*
X106269173Y-49025798D01*
X106336873Y-49043077D01*
X106384484Y-49094214D01*
X106388161Y-49102267D01*
X106427802Y-49197972D01*
X106427809Y-49197985D01*
X106515410Y-49329088D01*
X106515413Y-49329092D01*
X106626907Y-49440586D01*
X106626911Y-49440589D01*
X106758014Y-49528190D01*
X106758027Y-49528197D01*
X106903698Y-49588535D01*
X106903703Y-49588537D01*
X107058353Y-49619299D01*
X107058356Y-49619300D01*
X107058358Y-49619300D01*
X107216044Y-49619300D01*
X107216045Y-49619299D01*
X107370697Y-49588537D01*
X107516379Y-49528194D01*
X107647489Y-49440589D01*
X107758989Y-49329089D01*
X107846594Y-49197979D01*
X107906937Y-49052297D01*
X107912208Y-49025798D01*
X107918543Y-48993953D01*
X118477900Y-48993953D01*
X118477900Y-49151646D01*
X118508661Y-49306289D01*
X118508664Y-49306301D01*
X118569002Y-49451972D01*
X118569009Y-49451985D01*
X118656610Y-49583088D01*
X118656613Y-49583092D01*
X118768107Y-49694586D01*
X118768111Y-49694589D01*
X118899214Y-49782190D01*
X118899227Y-49782197D01*
X119009754Y-49827978D01*
X119044903Y-49842537D01*
X119199553Y-49873299D01*
X119199556Y-49873300D01*
X119199558Y-49873300D01*
X119357244Y-49873300D01*
X119357245Y-49873299D01*
X119511897Y-49842537D01*
X119657579Y-49782194D01*
X119788689Y-49694589D01*
X119900189Y-49583089D01*
X119987794Y-49451979D01*
X120048137Y-49306297D01*
X120078900Y-49151642D01*
X120078900Y-48993958D01*
X120078900Y-48993955D01*
X120078899Y-48993953D01*
X120662300Y-48993953D01*
X120662300Y-49151646D01*
X120693061Y-49306289D01*
X120693064Y-49306301D01*
X120753402Y-49451972D01*
X120753409Y-49451985D01*
X120841010Y-49583088D01*
X120841013Y-49583092D01*
X120952507Y-49694586D01*
X120952511Y-49694589D01*
X121083614Y-49782190D01*
X121083627Y-49782197D01*
X121194154Y-49827978D01*
X121229303Y-49842537D01*
X121383953Y-49873299D01*
X121383956Y-49873300D01*
X121383958Y-49873300D01*
X121541644Y-49873300D01*
X121541645Y-49873299D01*
X121696297Y-49842537D01*
X121841979Y-49782194D01*
X121973089Y-49694589D01*
X122084589Y-49583089D01*
X122172194Y-49451979D01*
X122232537Y-49306297D01*
X122263300Y-49151642D01*
X122263300Y-48993958D01*
X122263300Y-48993955D01*
X122263299Y-48993953D01*
X122257276Y-48963673D01*
X122232537Y-48839303D01*
X122204736Y-48772184D01*
X122172197Y-48693627D01*
X122172190Y-48693614D01*
X122084589Y-48562511D01*
X122084586Y-48562507D01*
X121973092Y-48451013D01*
X121973088Y-48451010D01*
X121903246Y-48404343D01*
X121841985Y-48363409D01*
X121841972Y-48363402D01*
X121703662Y-48306113D01*
X124379500Y-48306113D01*
X124379500Y-48518687D01*
X124386441Y-48562511D01*
X124412021Y-48724019D01*
X124412754Y-48728643D01*
X124475817Y-48922731D01*
X124478444Y-48930814D01*
X124574951Y-49120220D01*
X124699890Y-49292186D01*
X124850213Y-49442509D01*
X125022179Y-49567448D01*
X125022181Y-49567449D01*
X125022184Y-49567451D01*
X125211588Y-49663957D01*
X125413757Y-49729646D01*
X125623713Y-49762900D01*
X125623714Y-49762900D01*
X125836286Y-49762900D01*
X125836287Y-49762900D01*
X126046243Y-49729646D01*
X126248412Y-49663957D01*
X126437816Y-49567451D01*
X126539555Y-49493534D01*
X126609786Y-49442509D01*
X126609788Y-49442506D01*
X126609792Y-49442504D01*
X126760104Y-49292192D01*
X126760106Y-49292188D01*
X126760109Y-49292186D01*
X126885048Y-49120220D01*
X126885047Y-49120220D01*
X126885051Y-49120216D01*
X126981557Y-48930812D01*
X127047246Y-48728643D01*
X127080500Y-48518687D01*
X127080500Y-48306113D01*
X127047246Y-48096157D01*
X126981557Y-47893988D01*
X126885051Y-47704584D01*
X126885049Y-47704581D01*
X126885048Y-47704579D01*
X126760109Y-47532613D01*
X126609786Y-47382290D01*
X126437820Y-47257351D01*
X126248414Y-47160844D01*
X126248413Y-47160843D01*
X126248412Y-47160843D01*
X126046243Y-47095154D01*
X126046241Y-47095153D01*
X126046240Y-47095153D01*
X125884957Y-47069608D01*
X125836287Y-47061900D01*
X125623713Y-47061900D01*
X125575042Y-47069608D01*
X125413760Y-47095153D01*
X125211585Y-47160844D01*
X125022179Y-47257351D01*
X124850213Y-47382290D01*
X124699890Y-47532613D01*
X124574951Y-47704579D01*
X124478444Y-47893985D01*
X124412753Y-48096160D01*
X124399602Y-48179193D01*
X124379500Y-48306113D01*
X121703662Y-48306113D01*
X121696301Y-48303064D01*
X121696289Y-48303061D01*
X121541645Y-48272300D01*
X121541642Y-48272300D01*
X121383958Y-48272300D01*
X121383955Y-48272300D01*
X121229310Y-48303061D01*
X121229298Y-48303064D01*
X121083627Y-48363402D01*
X121083614Y-48363409D01*
X120952511Y-48451010D01*
X120952507Y-48451013D01*
X120841013Y-48562507D01*
X120841010Y-48562511D01*
X120753409Y-48693614D01*
X120753402Y-48693627D01*
X120693064Y-48839298D01*
X120693061Y-48839310D01*
X120662300Y-48993953D01*
X120078899Y-48993953D01*
X120072876Y-48963673D01*
X120048137Y-48839303D01*
X120020336Y-48772184D01*
X119987797Y-48693627D01*
X119987790Y-48693614D01*
X119900189Y-48562511D01*
X119900186Y-48562507D01*
X119788692Y-48451013D01*
X119788688Y-48451010D01*
X119657585Y-48363409D01*
X119657572Y-48363402D01*
X119511901Y-48303064D01*
X119511889Y-48303061D01*
X119357245Y-48272300D01*
X119357242Y-48272300D01*
X119199558Y-48272300D01*
X119199555Y-48272300D01*
X119044910Y-48303061D01*
X119044898Y-48303064D01*
X118899227Y-48363402D01*
X118899214Y-48363409D01*
X118768111Y-48451010D01*
X118768107Y-48451013D01*
X118656613Y-48562507D01*
X118656610Y-48562511D01*
X118569009Y-48693614D01*
X118569002Y-48693627D01*
X118508664Y-48839298D01*
X118508661Y-48839310D01*
X118477900Y-48993953D01*
X107918543Y-48993953D01*
X107924566Y-48963674D01*
X107924566Y-48963673D01*
X107937699Y-48897646D01*
X107937700Y-48897644D01*
X107937700Y-48739955D01*
X107937699Y-48739953D01*
X107934530Y-48724021D01*
X107906937Y-48585303D01*
X107896503Y-48560113D01*
X107846597Y-48439627D01*
X107846590Y-48439614D01*
X107758989Y-48308511D01*
X107758986Y-48308507D01*
X107647492Y-48197013D01*
X107647488Y-48197010D01*
X107516385Y-48109409D01*
X107516372Y-48109402D01*
X107370701Y-48049064D01*
X107370689Y-48049061D01*
X107216045Y-48018300D01*
X107216042Y-48018300D01*
X107058358Y-48018300D01*
X107058355Y-48018300D01*
X106903710Y-48049061D01*
X106903698Y-48049064D01*
X106758027Y-48109402D01*
X106758014Y-48109409D01*
X106626911Y-48197010D01*
X106626907Y-48197013D01*
X106515413Y-48308507D01*
X106515410Y-48308511D01*
X106427809Y-48439614D01*
X106427802Y-48439627D01*
X106388161Y-48535332D01*
X106344320Y-48589736D01*
X106278026Y-48611801D01*
X106210327Y-48594522D01*
X106162716Y-48543385D01*
X106159039Y-48535332D01*
X106119397Y-48439627D01*
X106119390Y-48439614D01*
X106031789Y-48308511D01*
X106031786Y-48308507D01*
X105920292Y-48197013D01*
X105920288Y-48197010D01*
X105789185Y-48109409D01*
X105789172Y-48109402D01*
X105643501Y-48049064D01*
X105643489Y-48049061D01*
X105488845Y-48018300D01*
X105488842Y-48018300D01*
X105331158Y-48018300D01*
X105331155Y-48018300D01*
X105176510Y-48049061D01*
X105176498Y-48049064D01*
X105030827Y-48109402D01*
X105030814Y-48109409D01*
X104899711Y-48197010D01*
X104899707Y-48197013D01*
X104788213Y-48308507D01*
X104788210Y-48308511D01*
X104700609Y-48439614D01*
X104700604Y-48439623D01*
X104686361Y-48474011D01*
X104642520Y-48528414D01*
X104576226Y-48550479D01*
X104508527Y-48533200D01*
X104460916Y-48482063D01*
X104457239Y-48474011D01*
X104442995Y-48439623D01*
X104442990Y-48439614D01*
X104355389Y-48308511D01*
X104355386Y-48308507D01*
X104243892Y-48197013D01*
X104243888Y-48197010D01*
X104112785Y-48109409D01*
X104112772Y-48109402D01*
X103967101Y-48049064D01*
X103967089Y-48049061D01*
X103812445Y-48018300D01*
X103812442Y-48018300D01*
X103654758Y-48018300D01*
X103654755Y-48018300D01*
X103500110Y-48049061D01*
X103500098Y-48049064D01*
X103354427Y-48109402D01*
X103354414Y-48109409D01*
X103223311Y-48197010D01*
X103223307Y-48197013D01*
X103111813Y-48308507D01*
X103111810Y-48308511D01*
X103024209Y-48439614D01*
X103024202Y-48439627D01*
X102963864Y-48585298D01*
X102963861Y-48585310D01*
X102933100Y-48739953D01*
X96181378Y-48739953D01*
X96176201Y-48724021D01*
X96176196Y-48724010D01*
X96107780Y-48589736D01*
X96073445Y-48522350D01*
X95940407Y-48339239D01*
X95780361Y-48179193D01*
X95597250Y-48046155D01*
X95395581Y-47943400D01*
X95395578Y-47943398D01*
X95180323Y-47873458D01*
X95031286Y-47849852D01*
X94956769Y-47838050D01*
X94730431Y-47838050D01*
X94655913Y-47849852D01*
X94506877Y-47873458D01*
X94506874Y-47873458D01*
X94291621Y-47943398D01*
X94291618Y-47943400D01*
X94089949Y-48046155D01*
X94002888Y-48109409D01*
X93906839Y-48179193D01*
X93906837Y-48179195D01*
X93906836Y-48179195D01*
X93746795Y-48339236D01*
X93746795Y-48339237D01*
X93746793Y-48339239D01*
X93699492Y-48404343D01*
X93613755Y-48522349D01*
X93511004Y-48724010D01*
X93510998Y-48724021D01*
X93441058Y-48939274D01*
X93441058Y-48939277D01*
X93422182Y-49058455D01*
X93405650Y-49162831D01*
X93041501Y-49162831D01*
X93020741Y-49058465D01*
X93020740Y-49058458D01*
X92964520Y-48922731D01*
X92964519Y-48922730D01*
X92964516Y-48922724D01*
X92882901Y-48800580D01*
X92882898Y-48800576D01*
X92779023Y-48696701D01*
X92779019Y-48696698D01*
X92656875Y-48615083D01*
X92656866Y-48615078D01*
X92529956Y-48562511D01*
X92521142Y-48558860D01*
X92521138Y-48558859D01*
X92521134Y-48558858D01*
X92377059Y-48530200D01*
X92377055Y-48530200D01*
X92230145Y-48530200D01*
X92230140Y-48530200D01*
X92086065Y-48558858D01*
X92086055Y-48558861D01*
X91950333Y-48615078D01*
X91950324Y-48615083D01*
X91828180Y-48696698D01*
X91828176Y-48696701D01*
X91724301Y-48800576D01*
X91724298Y-48800580D01*
X91642683Y-48922724D01*
X91642678Y-48922733D01*
X91586461Y-49058455D01*
X91586458Y-49058465D01*
X91557800Y-49202540D01*
X91201550Y-49202540D01*
X91201550Y-49162831D01*
X91166142Y-48939279D01*
X91166141Y-48939275D01*
X91166141Y-48939274D01*
X91096201Y-48724021D01*
X91096196Y-48724010D01*
X91027780Y-48589736D01*
X90993445Y-48522350D01*
X90860407Y-48339239D01*
X90700361Y-48179193D01*
X90517250Y-48046155D01*
X90315581Y-47943400D01*
X90315578Y-47943398D01*
X90100323Y-47873458D01*
X89951286Y-47849852D01*
X89876769Y-47838050D01*
X89650431Y-47838050D01*
X89575913Y-47849852D01*
X89426877Y-47873458D01*
X89426874Y-47873458D01*
X89211621Y-47943398D01*
X89211618Y-47943400D01*
X89009949Y-48046155D01*
X88922888Y-48109409D01*
X88826839Y-48179193D01*
X88826837Y-48179195D01*
X88826836Y-48179195D01*
X88666795Y-48339236D01*
X88666795Y-48339237D01*
X88666793Y-48339239D01*
X88619492Y-48404343D01*
X88533755Y-48522349D01*
X88431004Y-48724010D01*
X88430998Y-48724021D01*
X88361058Y-48939274D01*
X88361058Y-48939277D01*
X88342182Y-49058455D01*
X88325650Y-49162831D01*
X84875499Y-49162831D01*
X84934046Y-48982643D01*
X84967300Y-48772687D01*
X84967300Y-48560113D01*
X84934046Y-48350157D01*
X84868357Y-48147988D01*
X84771851Y-47958584D01*
X84771849Y-47958581D01*
X84771848Y-47958579D01*
X84646909Y-47786613D01*
X84496586Y-47636290D01*
X84324620Y-47511351D01*
X84135214Y-47414844D01*
X84135213Y-47414843D01*
X84135212Y-47414843D01*
X83933043Y-47349154D01*
X83933041Y-47349153D01*
X83933040Y-47349153D01*
X83771757Y-47323608D01*
X83723087Y-47315900D01*
X83510513Y-47315900D01*
X83461842Y-47323608D01*
X83300560Y-47349153D01*
X83098385Y-47414844D01*
X82908979Y-47511351D01*
X82737013Y-47636290D01*
X82586690Y-47786613D01*
X82461751Y-47958579D01*
X82365244Y-48147985D01*
X82299553Y-48350160D01*
X82266300Y-48560113D01*
X81018500Y-48560113D01*
X81018500Y-46090500D01*
X81038185Y-46023461D01*
X81090989Y-45977706D01*
X81142500Y-45966500D01*
X128204300Y-45966500D01*
X128271339Y-45986185D01*
G37*
%TD.AperFunction*%
%TD*%
M02*
