%TF.GenerationSoftware,KiCad,Pcbnew,9.0.6*%
%TF.CreationDate,2025-11-15T14:07:05+05:00*%
%TF.ProjectId,DynaButton,44796e61-4275-4747-946f-6e2e6b696361,rev?*%
%TF.SameCoordinates,Original*%
%TF.FileFunction,Legend,Bot*%
%TF.FilePolarity,Positive*%
%FSLAX46Y46*%
G04 Gerber Fmt 4.6, Leading zero omitted, Abs format (unit mm)*
G04 Created by KiCad (PCBNEW 9.0.6) date 2025-11-15 14:07:05*
%MOMM*%
%LPD*%
G01*
G04 APERTURE LIST*
%ADD10C,0.250000*%
G04 APERTURE END LIST*
D10*
G36*
X103146213Y-91604349D02*
G01*
X103171612Y-91639379D01*
X103189217Y-91678692D01*
X103195181Y-91723032D01*
X103189314Y-91767263D01*
X103172485Y-91803741D01*
X103144318Y-91834346D01*
X103108292Y-91856685D01*
X103064634Y-91870691D01*
X103011389Y-91875684D01*
X102960159Y-91869334D01*
X102932259Y-91860940D01*
X102909600Y-91849489D01*
X102887085Y-91832371D01*
X102869972Y-91813158D01*
X102859034Y-91789827D01*
X102854951Y-91756677D01*
X102858040Y-91725322D01*
X102866455Y-91701481D01*
X102879559Y-91683404D01*
X102911660Y-91659826D01*
X102980675Y-91626251D01*
X103046254Y-91601399D01*
X103118672Y-91575815D01*
X103146213Y-91604349D01*
G37*
G36*
X103072571Y-91178249D02*
G01*
X103119283Y-91195590D01*
X103137450Y-91208671D01*
X103152134Y-91225204D01*
X103161813Y-91244664D01*
X103165078Y-91266787D01*
X103159031Y-91302578D01*
X103142181Y-91328031D01*
X103114832Y-91348342D01*
X103067381Y-91371994D01*
X103015174Y-91391656D01*
X102934880Y-91417912D01*
X102906676Y-91382041D01*
X102889817Y-91353371D01*
X102879808Y-91322668D01*
X102876139Y-91282785D01*
X102880678Y-91251030D01*
X102893811Y-91224636D01*
X102916134Y-91202245D01*
X102944237Y-91186191D01*
X102979068Y-91175956D01*
X103022318Y-91172265D01*
X103072571Y-91178249D01*
G37*
G36*
X105094780Y-91538568D02*
G01*
X105154925Y-91555421D01*
X105155597Y-91577647D01*
X105156268Y-91616726D01*
X105151641Y-91695879D01*
X105139538Y-91753318D01*
X105118974Y-91802418D01*
X105094780Y-91835201D01*
X105073897Y-91853393D01*
X105049717Y-91865914D01*
X105023009Y-91873192D01*
X104993664Y-91875684D01*
X104970762Y-91873329D01*
X104943838Y-91865609D01*
X104918413Y-91852853D01*
X104897371Y-91835201D01*
X104878484Y-91810459D01*
X104863543Y-91780979D01*
X104854468Y-91746571D01*
X104850904Y-91695616D01*
X104854834Y-91649003D01*
X104865253Y-91615077D01*
X104882555Y-91586543D01*
X104904881Y-91564824D01*
X104931352Y-91549059D01*
X104962950Y-91538873D01*
X105031949Y-91531790D01*
X105094780Y-91538568D01*
G37*
G36*
X106049879Y-91174553D02*
G01*
X106074682Y-91181363D01*
X106097899Y-91193360D01*
X106121455Y-91212748D01*
X106140201Y-91236906D01*
X106155954Y-91269351D01*
X106165711Y-91306392D01*
X106169265Y-91353004D01*
X106165398Y-91397929D01*
X106154916Y-91432261D01*
X106137574Y-91461308D01*
X106115288Y-91483125D01*
X106089631Y-91498472D01*
X106058990Y-91508770D01*
X106025678Y-91514246D01*
X105988220Y-91516159D01*
X105921298Y-91508404D01*
X105865305Y-91492528D01*
X105864267Y-91471340D01*
X105863229Y-91429819D01*
X105867677Y-91351363D01*
X105879288Y-91294630D01*
X105899237Y-91246012D01*
X105923313Y-91212748D01*
X105944856Y-91194069D01*
X105969108Y-91181729D01*
X105995620Y-91174653D01*
X106023758Y-91172265D01*
X106049879Y-91174553D01*
G37*
G36*
X107041522Y-91189021D02*
G01*
X107073772Y-91203333D01*
X107100397Y-91227024D01*
X107122118Y-91261841D01*
X107140028Y-91315809D01*
X107153133Y-91399917D01*
X107158327Y-91524646D01*
X107153109Y-91645960D01*
X107139825Y-91729415D01*
X107121446Y-91784398D01*
X107099322Y-91820211D01*
X107072618Y-91844400D01*
X107040695Y-91858895D01*
X107001889Y-91863960D01*
X106963116Y-91858897D01*
X106931212Y-91844404D01*
X106904517Y-91820215D01*
X106882393Y-91784398D01*
X106864036Y-91729391D01*
X106850742Y-91645554D01*
X106845513Y-91523303D01*
X106850695Y-91399511D01*
X106863791Y-91315784D01*
X106881722Y-91261841D01*
X106903443Y-91227020D01*
X106930058Y-91203329D01*
X106962289Y-91189019D01*
X107001889Y-91183988D01*
X107041522Y-91189021D01*
G37*
G36*
X113103003Y-91192376D02*
G01*
X113148261Y-91205604D01*
X113189754Y-91228500D01*
X113229166Y-91264039D01*
X113258990Y-91307143D01*
X113284853Y-91369063D01*
X113300652Y-91439061D01*
X113306347Y-91524341D01*
X113300722Y-91611036D01*
X113285525Y-91678275D01*
X113260523Y-91737497D01*
X113230509Y-91781895D01*
X113193176Y-91816967D01*
X113150642Y-91841063D01*
X113103770Y-91855282D01*
X113054288Y-91860053D01*
X113004831Y-91855192D01*
X112957995Y-91840696D01*
X112915447Y-91816231D01*
X112878067Y-91780551D01*
X112845046Y-91730757D01*
X112821342Y-91671497D01*
X112807830Y-91605583D01*
X112802901Y-91523608D01*
X112808626Y-91436301D01*
X112824089Y-91368697D01*
X112849428Y-91309209D01*
X112879410Y-91265382D01*
X112917368Y-91229880D01*
X112959705Y-91206275D01*
X113006004Y-91192497D01*
X113054288Y-91187896D01*
X113103003Y-91192376D01*
G37*
G36*
X110079471Y-91848329D02*
G01*
X110060359Y-91848329D01*
X109901846Y-91847657D01*
X109855440Y-91842768D01*
X109813735Y-91829827D01*
X109777962Y-91808951D01*
X109757376Y-91784337D01*
X109745964Y-91754300D01*
X109741989Y-91718941D01*
X109747206Y-91673908D01*
X109760795Y-91643959D01*
X109784590Y-91621895D01*
X109824665Y-91604575D01*
X109858317Y-91598059D01*
X109909356Y-91594988D01*
X110022074Y-91594316D01*
X110079471Y-91594316D01*
X110079471Y-91848329D01*
G37*
G36*
X110079471Y-91418461D02*
G01*
X110038500Y-91418461D01*
X109932620Y-91416385D01*
X109891469Y-91411443D01*
X109863622Y-91402464D01*
X109833195Y-91383235D01*
X109817154Y-91361187D01*
X109809087Y-91334490D01*
X109806225Y-91302446D01*
X109809301Y-91277083D01*
X109818864Y-91251033D01*
X109835841Y-91229083D01*
X109863622Y-91212809D01*
X109894288Y-91204481D01*
X109935002Y-91200658D01*
X110054864Y-91199620D01*
X110079471Y-91199620D01*
X110079471Y-91418461D01*
G37*
G36*
X115281355Y-91627655D02*
G01*
X115097624Y-91627655D01*
X115043646Y-91413210D01*
X115226706Y-91413210D01*
X115281355Y-91627655D01*
G37*
G36*
X107017316Y-89752748D02*
G01*
X107054157Y-89760688D01*
X107090131Y-89773412D01*
X107124499Y-89790790D01*
X107124499Y-90172969D01*
X107071926Y-90185182D01*
X107016544Y-90187868D01*
X106967959Y-90183847D01*
X106928641Y-90172683D01*
X106896775Y-90155184D01*
X106871036Y-90131387D01*
X106846005Y-90090913D01*
X106829427Y-90035712D01*
X106823226Y-89961272D01*
X106828420Y-89887802D01*
X106841922Y-89835937D01*
X106861511Y-89800255D01*
X106890512Y-89773347D01*
X106929681Y-89756398D01*
X106982411Y-89750185D01*
X107017316Y-89752748D01*
G37*
G36*
X109959157Y-89709770D02*
G01*
X109992224Y-89728596D01*
X110019754Y-89761176D01*
X110038442Y-89801343D01*
X110050755Y-89853190D01*
X110055291Y-89919629D01*
X110051284Y-89992316D01*
X110040860Y-90044451D01*
X110025921Y-90080829D01*
X110002395Y-90109644D01*
X109970947Y-90126954D01*
X109928896Y-90133158D01*
X109894946Y-90129484D01*
X109866736Y-90119053D01*
X109840772Y-90102348D01*
X109812758Y-90078020D01*
X109812758Y-89730829D01*
X109864721Y-89709824D01*
X109918637Y-89703290D01*
X109959157Y-89709770D01*
G37*
G36*
X101131917Y-89737053D02*
G01*
X101160822Y-89744079D01*
X101186977Y-89757670D01*
X101213700Y-89782059D01*
X101233213Y-89811911D01*
X101249604Y-89854660D01*
X101259248Y-89903889D01*
X101262915Y-89970736D01*
X101259799Y-90030976D01*
X101251314Y-90078997D01*
X101236351Y-90121596D01*
X101217120Y-90152575D01*
X101192981Y-90175620D01*
X101164913Y-90191288D01*
X101133118Y-90200313D01*
X101095548Y-90203500D01*
X101062725Y-90200684D01*
X101031678Y-90192326D01*
X101003716Y-90177392D01*
X100980082Y-90154651D01*
X100959462Y-90123046D01*
X100944239Y-90084431D01*
X100935693Y-90039368D01*
X100932271Y-89970736D01*
X100935653Y-89906310D01*
X100944606Y-89858079D01*
X100959948Y-89815768D01*
X100978739Y-89785478D01*
X101003069Y-89761529D01*
X101031373Y-89746094D01*
X101062962Y-89737494D01*
X101097563Y-89734554D01*
X101131917Y-89737053D01*
G37*
G36*
X104116565Y-89737053D02*
G01*
X104145469Y-89744079D01*
X104171625Y-89757670D01*
X104198348Y-89782059D01*
X104217861Y-89811911D01*
X104234251Y-89854660D01*
X104243896Y-89903889D01*
X104247563Y-89970736D01*
X104244446Y-90030976D01*
X104235961Y-90078997D01*
X104220999Y-90121596D01*
X104201767Y-90152575D01*
X104177629Y-90175620D01*
X104149560Y-90191288D01*
X104117766Y-90200313D01*
X104080195Y-90203500D01*
X104047373Y-90200684D01*
X104016326Y-90192326D01*
X103988364Y-90177392D01*
X103964730Y-90154651D01*
X103944110Y-90123046D01*
X103928887Y-90084431D01*
X103920341Y-90039368D01*
X103916919Y-89970736D01*
X103920301Y-89906310D01*
X103929253Y-89858079D01*
X103944596Y-89815768D01*
X103963386Y-89785478D01*
X103987717Y-89761529D01*
X104016021Y-89746094D01*
X104047610Y-89737494D01*
X104082210Y-89734554D01*
X104116565Y-89737053D01*
G37*
G36*
X107948819Y-90003770D02*
G01*
X108003210Y-90012226D01*
X108036868Y-90020562D01*
X108070358Y-90035418D01*
X108093227Y-90054451D01*
X108107576Y-90079418D01*
X108112706Y-90112947D01*
X108108615Y-90151965D01*
X108101851Y-90166111D01*
X108088098Y-90180724D01*
X108071075Y-90192502D01*
X108050546Y-90200935D01*
X108025608Y-90205480D01*
X107982219Y-90207408D01*
X107945549Y-90203743D01*
X107907481Y-90192387D01*
X107871562Y-90174726D01*
X107840863Y-90152636D01*
X107840863Y-89992474D01*
X107948819Y-90003770D01*
G37*
G36*
X112513229Y-90003770D02*
G01*
X112567620Y-90012226D01*
X112601279Y-90020562D01*
X112634768Y-90035418D01*
X112657638Y-90054451D01*
X112671986Y-90079418D01*
X112677116Y-90112947D01*
X112673025Y-90151965D01*
X112666262Y-90166111D01*
X112652509Y-90180724D01*
X112635485Y-90192502D01*
X112614956Y-90200935D01*
X112590018Y-90205480D01*
X112546629Y-90207408D01*
X112509959Y-90203743D01*
X112471891Y-90192387D01*
X112435972Y-90174726D01*
X112405274Y-90152636D01*
X112405274Y-89992474D01*
X112513229Y-90003770D01*
G37*
G36*
X113500375Y-89737053D02*
G01*
X113529279Y-89744079D01*
X113555435Y-89757670D01*
X113582158Y-89782059D01*
X113601671Y-89811911D01*
X113618062Y-89854660D01*
X113627706Y-89903889D01*
X113631373Y-89970736D01*
X113628257Y-90030976D01*
X113619771Y-90078997D01*
X113604809Y-90121596D01*
X113585577Y-90152575D01*
X113561439Y-90175620D01*
X113533370Y-90191288D01*
X113501576Y-90200313D01*
X113464006Y-90203500D01*
X113431183Y-90200684D01*
X113400136Y-90192326D01*
X113372174Y-90177392D01*
X113348540Y-90154651D01*
X113327920Y-90123046D01*
X113312697Y-90084431D01*
X113304151Y-90039368D01*
X113300729Y-89970736D01*
X113304111Y-89906310D01*
X113313063Y-89858079D01*
X113328406Y-89815768D01*
X113347196Y-89785478D01*
X113371527Y-89761529D01*
X113399831Y-89746094D01*
X113431420Y-89737494D01*
X113466021Y-89734554D01*
X113500375Y-89737053D01*
G37*
G36*
X111103982Y-89752791D02*
G01*
X111140829Y-89760871D01*
X111176791Y-89773803D01*
X111211171Y-89791462D01*
X111211171Y-90179198D01*
X111160612Y-90192265D01*
X111103215Y-90195684D01*
X111054726Y-90191589D01*
X111015436Y-90180205D01*
X110983532Y-90162321D01*
X110957708Y-90137921D01*
X110932689Y-90096631D01*
X110916102Y-90040399D01*
X110909897Y-89964691D01*
X110914436Y-89896442D01*
X110926596Y-89844667D01*
X110944763Y-89805872D01*
X110964469Y-89782484D01*
X110990618Y-89765320D01*
X111024727Y-89754246D01*
X111069082Y-89750185D01*
X111103982Y-89752791D01*
G37*
G36*
X113374526Y-88069275D02*
G01*
X113421839Y-88088220D01*
X113457838Y-88118240D01*
X113483736Y-88158133D01*
X113500297Y-88209053D01*
X113506321Y-88274067D01*
X113500607Y-88347287D01*
X113485987Y-88396682D01*
X113464982Y-88428856D01*
X113434661Y-88452302D01*
X113394775Y-88467234D01*
X113342373Y-88472697D01*
X113305887Y-88469806D01*
X113269955Y-88461096D01*
X113235710Y-88447422D01*
X113205047Y-88430199D01*
X113205047Y-88081542D01*
X113257010Y-88067498D01*
X113312331Y-88062369D01*
X113374526Y-88069275D01*
G37*
G36*
X96163613Y-88323770D02*
G01*
X96218004Y-88332226D01*
X96251663Y-88340562D01*
X96285152Y-88355418D01*
X96308022Y-88374451D01*
X96322370Y-88399418D01*
X96327500Y-88432947D01*
X96323409Y-88471965D01*
X96316646Y-88486111D01*
X96302892Y-88500724D01*
X96285869Y-88512502D01*
X96265340Y-88520935D01*
X96240402Y-88525480D01*
X96197013Y-88527408D01*
X96160343Y-88523743D01*
X96122275Y-88512387D01*
X96086356Y-88494726D01*
X96055658Y-88472636D01*
X96055658Y-88312474D01*
X96163613Y-88323770D01*
G37*
G36*
X97689642Y-88323770D02*
G01*
X97744033Y-88332226D01*
X97777692Y-88340562D01*
X97811182Y-88355418D01*
X97834051Y-88374451D01*
X97848399Y-88399418D01*
X97853529Y-88432947D01*
X97849438Y-88471965D01*
X97842675Y-88486111D01*
X97828922Y-88500724D01*
X97811898Y-88512502D01*
X97791369Y-88520935D01*
X97766431Y-88525480D01*
X97723042Y-88527408D01*
X97686372Y-88523743D01*
X97648304Y-88512387D01*
X97612385Y-88494726D01*
X97581687Y-88472636D01*
X97581687Y-88312474D01*
X97689642Y-88323770D01*
G37*
G36*
X104349656Y-88323770D02*
G01*
X104404047Y-88332226D01*
X104437706Y-88340562D01*
X104471196Y-88355418D01*
X104494065Y-88374451D01*
X104508413Y-88399418D01*
X104513543Y-88432947D01*
X104509452Y-88471965D01*
X104502689Y-88486111D01*
X104488936Y-88500724D01*
X104471912Y-88512502D01*
X104451383Y-88520935D01*
X104426445Y-88525480D01*
X104383056Y-88527408D01*
X104346386Y-88523743D01*
X104308318Y-88512387D01*
X104272399Y-88494726D01*
X104241701Y-88472636D01*
X104241701Y-88312474D01*
X104349656Y-88323770D01*
G37*
G36*
X105336802Y-88057053D02*
G01*
X105365706Y-88064079D01*
X105391862Y-88077670D01*
X105418585Y-88102059D01*
X105438098Y-88131911D01*
X105454489Y-88174660D01*
X105464133Y-88223889D01*
X105467800Y-88290736D01*
X105464684Y-88350976D01*
X105456198Y-88398997D01*
X105441236Y-88441596D01*
X105422004Y-88472575D01*
X105397866Y-88495620D01*
X105369798Y-88511288D01*
X105338003Y-88520313D01*
X105300433Y-88523500D01*
X105267610Y-88520684D01*
X105236563Y-88512326D01*
X105208601Y-88497392D01*
X105184967Y-88474651D01*
X105164347Y-88443046D01*
X105149124Y-88404431D01*
X105140578Y-88359368D01*
X105137156Y-88290736D01*
X105140538Y-88226310D01*
X105149490Y-88178079D01*
X105164833Y-88135768D01*
X105183623Y-88105478D01*
X105207954Y-88081529D01*
X105236258Y-88066094D01*
X105267847Y-88057494D01*
X105302448Y-88054554D01*
X105336802Y-88057053D01*
G37*
G36*
X110008862Y-88039450D02*
G01*
X110047302Y-88051997D01*
X110079654Y-88072200D01*
X110104534Y-88100170D01*
X110121885Y-88138785D01*
X110130823Y-88191330D01*
X109811842Y-88191330D01*
X109817675Y-88140695D01*
X109830804Y-88102630D01*
X109850127Y-88074276D01*
X109876834Y-88053476D01*
X109913322Y-88040013D01*
X109962784Y-88035014D01*
X110008862Y-88039450D01*
G37*
G36*
X110937962Y-88039450D02*
G01*
X110976402Y-88051997D01*
X111008754Y-88072200D01*
X111033634Y-88100170D01*
X111050984Y-88138785D01*
X111059923Y-88191330D01*
X110740942Y-88191330D01*
X110746775Y-88140695D01*
X110759904Y-88102630D01*
X110779227Y-88074276D01*
X110805934Y-88053476D01*
X110842422Y-88040013D01*
X110891884Y-88035014D01*
X110937962Y-88039450D01*
G37*
G36*
X102940409Y-88072791D02*
G01*
X102977256Y-88080871D01*
X103013218Y-88093803D01*
X103047598Y-88111462D01*
X103047598Y-88499198D01*
X102997039Y-88512265D01*
X102939642Y-88515684D01*
X102891153Y-88511589D01*
X102851863Y-88500205D01*
X102819959Y-88482321D01*
X102794135Y-88457921D01*
X102769117Y-88416631D01*
X102752530Y-88360399D01*
X102746324Y-88284691D01*
X102750864Y-88216442D01*
X102763023Y-88164667D01*
X102781190Y-88125872D01*
X102800896Y-88102484D01*
X102827045Y-88085320D01*
X102861154Y-88074246D01*
X102905509Y-88070185D01*
X102940409Y-88072791D01*
G37*
G36*
X105589116Y-86152376D02*
G01*
X105634374Y-86165604D01*
X105675867Y-86188500D01*
X105715279Y-86224039D01*
X105745103Y-86267143D01*
X105770966Y-86329063D01*
X105786765Y-86399061D01*
X105792460Y-86484341D01*
X105786835Y-86571036D01*
X105771638Y-86638275D01*
X105746636Y-86697497D01*
X105716622Y-86741895D01*
X105679289Y-86776967D01*
X105636755Y-86801063D01*
X105589883Y-86815282D01*
X105540401Y-86820053D01*
X105490944Y-86815192D01*
X105444108Y-86800696D01*
X105401560Y-86776231D01*
X105364180Y-86740551D01*
X105331159Y-86690757D01*
X105307455Y-86631497D01*
X105293943Y-86565583D01*
X105289014Y-86483608D01*
X105294739Y-86396301D01*
X105310202Y-86328697D01*
X105335541Y-86269209D01*
X105365523Y-86225382D01*
X105403481Y-86189880D01*
X105445818Y-86166275D01*
X105492117Y-86152497D01*
X105540401Y-86147896D01*
X105589116Y-86152376D01*
G37*
G36*
X109390512Y-86152376D02*
G01*
X109435769Y-86165604D01*
X109477263Y-86188500D01*
X109516675Y-86224039D01*
X109546499Y-86267143D01*
X109572362Y-86329063D01*
X109588161Y-86399061D01*
X109593855Y-86484341D01*
X109588231Y-86571036D01*
X109573034Y-86638275D01*
X109548032Y-86697497D01*
X109518018Y-86741895D01*
X109480685Y-86776967D01*
X109438151Y-86801063D01*
X109391279Y-86815282D01*
X109341797Y-86820053D01*
X109292340Y-86815192D01*
X109245504Y-86800696D01*
X109202955Y-86776231D01*
X109165576Y-86740551D01*
X109132555Y-86690757D01*
X109108850Y-86631497D01*
X109095338Y-86565583D01*
X109090410Y-86483608D01*
X109096135Y-86396301D01*
X109111598Y-86328697D01*
X109136937Y-86269209D01*
X109166919Y-86225382D01*
X109204877Y-86189880D01*
X109247214Y-86166275D01*
X109293513Y-86152497D01*
X109341797Y-86147896D01*
X109390512Y-86152376D01*
G37*
G36*
X108356094Y-86437080D02*
G01*
X108275494Y-86437080D01*
X108215199Y-86435366D01*
X108170286Y-86430852D01*
X108130589Y-86420341D01*
X108099211Y-86402458D01*
X108075121Y-86379348D01*
X108059278Y-86355075D01*
X108050151Y-86326591D01*
X108046638Y-86285527D01*
X108050773Y-86248760D01*
X108062392Y-86219154D01*
X108082813Y-86195134D01*
X108116308Y-86175557D01*
X108144325Y-86166810D01*
X108178468Y-86162062D01*
X108261144Y-86159620D01*
X108356094Y-86159620D01*
X108356094Y-86437080D01*
G37*
G36*
X113282533Y-86468343D02*
G01*
X113207367Y-86468343D01*
X113143368Y-86466104D01*
X113097092Y-86460283D01*
X113056521Y-86447817D01*
X113024307Y-86427860D01*
X113002454Y-86404032D01*
X112987793Y-86376263D01*
X112979543Y-86344348D01*
X112976497Y-86303051D01*
X112982458Y-86263047D01*
X112999761Y-86229840D01*
X113025359Y-86203357D01*
X113053678Y-86186975D01*
X113094747Y-86174294D01*
X113133606Y-86169145D01*
X113237470Y-86167436D01*
X113282533Y-86167436D01*
X113282533Y-86468343D01*
G37*
G36*
X114346394Y-86601211D02*
G01*
X114096411Y-86601211D01*
X114221403Y-86236312D01*
X114346394Y-86601211D01*
G37*
G36*
X115833292Y-92176539D02*
G01*
X95686781Y-92176539D01*
X95686781Y-91856145D01*
X101665733Y-91856145D01*
X101665733Y-92032000D01*
X102344728Y-92032000D01*
X102344728Y-91856145D01*
X102130221Y-91856145D01*
X102130221Y-91746602D01*
X102594039Y-91746602D01*
X102595172Y-91756677D01*
X102601244Y-91810682D01*
X102622307Y-91867599D01*
X102657618Y-91919094D01*
X102709138Y-91966176D01*
X102768039Y-92001616D01*
X102838762Y-92028279D01*
X102923547Y-92045404D01*
X103025066Y-92051539D01*
X103133514Y-92045326D01*
X103218384Y-92028519D01*
X103293946Y-92000093D01*
X103351558Y-91964772D01*
X103397214Y-91920840D01*
X103428433Y-91871288D01*
X103447052Y-91816011D01*
X103453346Y-91756066D01*
X103449901Y-91722605D01*
X103617233Y-91722605D01*
X103624414Y-91792237D01*
X103645626Y-91856328D01*
X103667632Y-91895377D01*
X103696443Y-91930764D01*
X103732699Y-91962818D01*
X103794136Y-92000293D01*
X103867643Y-92028702D01*
X103949535Y-92045345D01*
X104055832Y-92051539D01*
X104177697Y-92046145D01*
X104272720Y-92031633D01*
X104358628Y-92009341D01*
X104419937Y-91986998D01*
X104419937Y-91762355D01*
X104393315Y-91762355D01*
X104330825Y-91795519D01*
X104252936Y-91825553D01*
X104172497Y-91845971D01*
X104103643Y-91852237D01*
X104017608Y-91845703D01*
X103973820Y-91834881D01*
X103939023Y-91816944D01*
X103916156Y-91797688D01*
X103898723Y-91775117D01*
X103887945Y-91747286D01*
X103883702Y-91704165D01*
X103886194Y-91685724D01*
X104586511Y-91685724D01*
X104587453Y-91695616D01*
X104593772Y-91762003D01*
X104615209Y-91832636D01*
X104637206Y-91876457D01*
X104664030Y-91914783D01*
X104695809Y-91948163D01*
X104755221Y-91992374D01*
X104823915Y-92025039D01*
X104873092Y-92039302D01*
X104929541Y-92048348D01*
X104994335Y-92051539D01*
X105083327Y-92045106D01*
X105161397Y-92026687D01*
X105209898Y-92006884D01*
X105252846Y-91981569D01*
X105290846Y-91950667D01*
X105328282Y-91908788D01*
X105359951Y-91858737D01*
X105385795Y-91799358D01*
X105403340Y-91736722D01*
X105414584Y-91663427D01*
X105418585Y-91577830D01*
X105414914Y-91489034D01*
X105412033Y-91467371D01*
X105601584Y-91467371D01*
X105605363Y-91551883D01*
X105616403Y-91630763D01*
X105634374Y-91704592D01*
X105660714Y-91775405D01*
X105693996Y-91836591D01*
X105734086Y-91889301D01*
X105785870Y-91938592D01*
X105845454Y-91979065D01*
X105913787Y-92010995D01*
X105986367Y-92032864D01*
X106069206Y-92046679D01*
X106163831Y-92051539D01*
X106273130Y-92045311D01*
X106350310Y-92034320D01*
X106350310Y-91832697D01*
X106322955Y-91832697D01*
X106264581Y-91853092D01*
X106223176Y-91860868D01*
X106161083Y-91863960D01*
X106108250Y-91860642D01*
X106056547Y-91850710D01*
X106008220Y-91833302D01*
X105968437Y-91808884D01*
X105931887Y-91774664D01*
X105902186Y-91732436D01*
X105880937Y-91683379D01*
X105867320Y-91621977D01*
X105926338Y-91652800D01*
X105977657Y-91674001D01*
X106031938Y-91687098D01*
X106104358Y-91692013D01*
X106160866Y-91688483D01*
X106214023Y-91678092D01*
X106264161Y-91660207D01*
X106309278Y-91634922D01*
X106344254Y-91605601D01*
X106374344Y-91570551D01*
X106399770Y-91529165D01*
X106402118Y-91523303D01*
X106581120Y-91523303D01*
X106587259Y-91647700D01*
X106604384Y-91752403D01*
X106623661Y-91818288D01*
X106647933Y-91872998D01*
X106676741Y-91918121D01*
X106713500Y-91958412D01*
X106756528Y-91991532D01*
X106806556Y-92017833D01*
X106860448Y-92035801D01*
X106924926Y-92047385D01*
X107001889Y-92051539D01*
X107077475Y-92047395D01*
X107141838Y-92035751D01*
X107196612Y-92017528D01*
X107247433Y-91990870D01*
X107290653Y-91957398D01*
X107327099Y-91916778D01*
X107356844Y-91870277D01*
X107381325Y-91815439D01*
X107400188Y-91750998D01*
X107416740Y-91648160D01*
X107422720Y-91523974D01*
X107416486Y-91396391D01*
X107399517Y-91294569D01*
X107380319Y-91231248D01*
X107371305Y-91211344D01*
X107551069Y-91211344D01*
X108019039Y-91211344D01*
X108019039Y-91402830D01*
X107585263Y-91402830D01*
X107585263Y-91598224D01*
X108019039Y-91598224D01*
X108019039Y-92032000D01*
X108279951Y-92032000D01*
X108279951Y-91856145D01*
X108543611Y-91856145D01*
X108543611Y-92032000D01*
X109222606Y-92032000D01*
X109222606Y-91856145D01*
X109008100Y-91856145D01*
X109008100Y-91721689D01*
X109470085Y-91721689D01*
X109473537Y-91769932D01*
X109483539Y-91813463D01*
X109499822Y-91853031D01*
X109535112Y-91905975D01*
X109581460Y-91948957D01*
X109644599Y-91987448D01*
X109713657Y-92012949D01*
X109790604Y-92026725D01*
X109896350Y-92032000D01*
X110340384Y-92032000D01*
X110340384Y-91856145D01*
X110604044Y-91856145D01*
X110604044Y-92032000D01*
X111283039Y-92032000D01*
X111283039Y-91856145D01*
X111068533Y-91856145D01*
X111068533Y-91316856D01*
X111283039Y-91316856D01*
X111283039Y-91218854D01*
X111555553Y-91218854D01*
X112015951Y-92032000D01*
X112308370Y-92032000D01*
X112012538Y-91524341D01*
X112530326Y-91524341D01*
X112536500Y-91621858D01*
X112554144Y-91707515D01*
X112582351Y-91783031D01*
X112620791Y-91849838D01*
X112669728Y-91909023D01*
X112727770Y-91958933D01*
X112793948Y-91998185D01*
X112869436Y-92027057D01*
X112955808Y-92045177D01*
X113054960Y-92051539D01*
X113153803Y-92045184D01*
X113239976Y-92027080D01*
X113315357Y-91998218D01*
X113381504Y-91958961D01*
X113439581Y-91909023D01*
X113488495Y-91849842D01*
X113526918Y-91783036D01*
X113555113Y-91707520D01*
X113572750Y-91621861D01*
X113578922Y-91524341D01*
X113572721Y-91425853D01*
X113555031Y-91339627D01*
X113526800Y-91263883D01*
X113496570Y-91211344D01*
X113701104Y-91211344D01*
X114169074Y-91211344D01*
X114169074Y-91402830D01*
X113735298Y-91402830D01*
X113735298Y-91598224D01*
X114169074Y-91598224D01*
X114169074Y-92032000D01*
X114429986Y-92032000D01*
X114429986Y-91250422D01*
X114663787Y-91250422D01*
X114663787Y-91413210D01*
X114663787Y-91414554D01*
X114879698Y-91414554D01*
X114932943Y-91625579D01*
X114740296Y-91625579D01*
X114740296Y-91789711D01*
X114973976Y-91789711D01*
X115036136Y-92032000D01*
X115200755Y-92032000D01*
X115139939Y-91789711D01*
X115320312Y-91789711D01*
X115381068Y-92032000D01*
X115548435Y-92032000D01*
X115486947Y-91789711D01*
X115671411Y-91789711D01*
X115671411Y-91625579D01*
X115445975Y-91625579D01*
X115393402Y-91414554D01*
X115593559Y-91414554D01*
X115593559Y-91250422D01*
X115352369Y-91250422D01*
X115293629Y-91015949D01*
X115126261Y-91015949D01*
X115185002Y-91250422D01*
X115005361Y-91250422D01*
X114945949Y-91015949D01*
X114778582Y-91015949D01*
X114837994Y-91250422D01*
X114663787Y-91250422D01*
X114429986Y-91250422D01*
X114429986Y-91015949D01*
X113701104Y-91015949D01*
X113701104Y-91211344D01*
X113496570Y-91211344D01*
X113488395Y-91197135D01*
X113439581Y-91138254D01*
X113381540Y-91088578D01*
X113315413Y-91049507D01*
X113240033Y-91020770D01*
X113153841Y-91002740D01*
X113054960Y-90996410D01*
X112956406Y-91002726D01*
X112870355Y-91020732D01*
X112794960Y-91049453D01*
X112728691Y-91088533D01*
X112670399Y-91138254D01*
X112621301Y-91197174D01*
X112582694Y-91263944D01*
X112554326Y-91339688D01*
X112536554Y-91425893D01*
X112530372Y-91523608D01*
X112530326Y-91524341D01*
X112012538Y-91524341D01*
X111830143Y-91211344D01*
X112352762Y-91211344D01*
X112352762Y-91015949D01*
X111555553Y-91015949D01*
X111555553Y-91218854D01*
X111283039Y-91218854D01*
X111283039Y-91152725D01*
X111188761Y-91146986D01*
X111145902Y-91138744D01*
X111113596Y-91127141D01*
X111081887Y-91107224D01*
X111060351Y-91083360D01*
X111046635Y-91053978D01*
X111039834Y-91015949D01*
X110813726Y-91015949D01*
X110813726Y-91856145D01*
X110604044Y-91856145D01*
X110340384Y-91856145D01*
X110340384Y-91015949D01*
X109945565Y-91015949D01*
X109830883Y-91018409D01*
X109765558Y-91024192D01*
X109709355Y-91037165D01*
X109652474Y-91060463D01*
X109616309Y-91082926D01*
X109587850Y-91109215D01*
X109566134Y-91139536D01*
X109545031Y-91191882D01*
X109537741Y-91252804D01*
X109542207Y-91300876D01*
X109542680Y-91302446D01*
X109555213Y-91344014D01*
X109576697Y-91383229D01*
X109605603Y-91417490D01*
X109641906Y-91446752D01*
X109686668Y-91471157D01*
X109686668Y-91476652D01*
X109622832Y-91495258D01*
X109570769Y-91522575D01*
X109528521Y-91558352D01*
X109496702Y-91602784D01*
X109477047Y-91656381D01*
X109470378Y-91718941D01*
X109470085Y-91721689D01*
X109008100Y-91721689D01*
X109008100Y-91316856D01*
X109222606Y-91316856D01*
X109222606Y-91152725D01*
X109128329Y-91146986D01*
X109085469Y-91138744D01*
X109053163Y-91127141D01*
X109021455Y-91107224D01*
X108999918Y-91083360D01*
X108986202Y-91053978D01*
X108979402Y-91015949D01*
X108753294Y-91015949D01*
X108753294Y-91856145D01*
X108543611Y-91856145D01*
X108279951Y-91856145D01*
X108279951Y-91015949D01*
X107551069Y-91015949D01*
X107551069Y-91211344D01*
X107371305Y-91211344D01*
X107355616Y-91176698D01*
X107325694Y-91129827D01*
X107288823Y-91089238D01*
X107245371Y-91056018D01*
X107194536Y-91029810D01*
X107139804Y-91011872D01*
X107076083Y-91000457D01*
X107001889Y-90996410D01*
X106924459Y-91000653D01*
X106859780Y-91012471D01*
X106805884Y-91030787D01*
X106755979Y-91057618D01*
X106712940Y-91091625D01*
X106676069Y-91133247D01*
X106646653Y-91179638D01*
X106622405Y-91234036D01*
X106603651Y-91297622D01*
X106587120Y-91399274D01*
X106581120Y-91523303D01*
X106402118Y-91523303D01*
X106417804Y-91484144D01*
X106429419Y-91429588D01*
X106433597Y-91363568D01*
X106428804Y-91299378D01*
X106414930Y-91241766D01*
X106392346Y-91189647D01*
X106360895Y-91142167D01*
X106319902Y-91098748D01*
X106260405Y-91055033D01*
X106192054Y-91023243D01*
X106113194Y-91003387D01*
X106021682Y-90996410D01*
X105929949Y-91002964D01*
X105853337Y-91021323D01*
X105806176Y-91041025D01*
X105764103Y-91066303D01*
X105726575Y-91097282D01*
X105689144Y-91139138D01*
X105657965Y-91188555D01*
X105633030Y-91246576D01*
X105616298Y-91307784D01*
X105605469Y-91380746D01*
X105603268Y-91429819D01*
X105601584Y-91467371D01*
X105412033Y-91467371D01*
X105404446Y-91410335D01*
X105387872Y-91340609D01*
X105362888Y-91273864D01*
X105329488Y-91212962D01*
X105287427Y-91157244D01*
X105239354Y-91110947D01*
X105181830Y-91071429D01*
X105113587Y-91038664D01*
X105041101Y-91015973D01*
X104956892Y-91001528D01*
X104859086Y-90996410D01*
X104749848Y-91003310D01*
X104672606Y-91013629D01*
X104672606Y-91215251D01*
X104698557Y-91215251D01*
X104761083Y-91195224D01*
X104806755Y-91186952D01*
X104861162Y-91183988D01*
X104926998Y-91188537D01*
X104981790Y-91201250D01*
X105027423Y-91221161D01*
X105065410Y-91247919D01*
X105097604Y-91282062D01*
X105123007Y-91322416D01*
X105141769Y-91369946D01*
X105153521Y-91425972D01*
X105099524Y-91397705D01*
X105042512Y-91375353D01*
X104982505Y-91360901D01*
X104916483Y-91355935D01*
X104858327Y-91359443D01*
X104806146Y-91369552D01*
X104757053Y-91387185D01*
X104711502Y-91413027D01*
X104676597Y-91441988D01*
X104646396Y-91477128D01*
X104620705Y-91519151D01*
X104602436Y-91564822D01*
X104590714Y-91619735D01*
X104586511Y-91685724D01*
X103886194Y-91685724D01*
X103889300Y-91662732D01*
X103904218Y-91634616D01*
X103927621Y-91613764D01*
X103958135Y-91599629D01*
X103993480Y-91591315D01*
X104038735Y-91587539D01*
X104126174Y-91586501D01*
X104182167Y-91586501D01*
X104182167Y-91410646D01*
X104124098Y-91410646D01*
X104029881Y-91407287D01*
X103990673Y-91401384D01*
X103960150Y-91391656D01*
X103933219Y-91376172D01*
X103915087Y-91357462D01*
X103904294Y-91332980D01*
X103900066Y-91294691D01*
X103904234Y-91266482D01*
X103915820Y-91245599D01*
X103933383Y-91228999D01*
X103955387Y-91216045D01*
X103983583Y-91206105D01*
X104018280Y-91199803D01*
X104080440Y-91195712D01*
X104145581Y-91200973D01*
X104219780Y-91217877D01*
X104293370Y-91244750D01*
X104365288Y-91281685D01*
X104390567Y-91281685D01*
X104390567Y-91060707D01*
X104329210Y-91039913D01*
X104238281Y-91017293D01*
X104141309Y-91001636D01*
X104042887Y-90996410D01*
X103949630Y-91000852D01*
X103874115Y-91013018D01*
X103805629Y-91033332D01*
X103754559Y-91057471D01*
X103704842Y-91095135D01*
X103671272Y-91138193D01*
X103651018Y-91188658D01*
X103643917Y-91249384D01*
X103649803Y-91303614D01*
X103667192Y-91353272D01*
X103696551Y-91399594D01*
X103735214Y-91438286D01*
X103780963Y-91466260D01*
X103835159Y-91484041D01*
X103835159Y-91493261D01*
X103800061Y-91500220D01*
X103761397Y-91512373D01*
X103724215Y-91529920D01*
X103690323Y-91554016D01*
X103660207Y-91585144D01*
X103637078Y-91620878D01*
X103622713Y-91662845D01*
X103617233Y-91722605D01*
X103449901Y-91722605D01*
X103448292Y-91706978D01*
X103433461Y-91662505D01*
X103408650Y-91621549D01*
X103375095Y-91586994D01*
X103325025Y-91552710D01*
X103253922Y-91518906D01*
X103253922Y-91514815D01*
X103310270Y-91483804D01*
X103353032Y-91449694D01*
X103384409Y-91412539D01*
X103407329Y-91369765D01*
X103421257Y-91322469D01*
X103426052Y-91269534D01*
X103419183Y-91212765D01*
X103398977Y-91162037D01*
X103364724Y-91115726D01*
X103314067Y-91072980D01*
X103256911Y-91040875D01*
X103190360Y-91016962D01*
X103112798Y-91001786D01*
X103022318Y-90996410D01*
X102926300Y-91001496D01*
X102846700Y-91015608D01*
X102780970Y-91037368D01*
X102726907Y-91065897D01*
X102678725Y-91104947D01*
X102646032Y-91148141D01*
X102626630Y-91196336D01*
X102619989Y-91251216D01*
X102623431Y-91282785D01*
X102625037Y-91297515D01*
X102639945Y-91339862D01*
X102665113Y-91379322D01*
X102698219Y-91413043D01*
X102743358Y-91444938D01*
X102803049Y-91474821D01*
X102803049Y-91478912D01*
X102735052Y-91510419D01*
X102683397Y-91546428D01*
X102645269Y-91586684D01*
X102617035Y-91634045D01*
X102599934Y-91686866D01*
X102594039Y-91746602D01*
X102130221Y-91746602D01*
X102130221Y-91316856D01*
X102344728Y-91316856D01*
X102344728Y-91152725D01*
X102250450Y-91146986D01*
X102207590Y-91138744D01*
X102175284Y-91127141D01*
X102143576Y-91107224D01*
X102122039Y-91083360D01*
X102108324Y-91053978D01*
X102101523Y-91015949D01*
X101875415Y-91015949D01*
X101875415Y-91856145D01*
X101665733Y-91856145D01*
X95686781Y-91856145D01*
X95686781Y-89851973D01*
X99247118Y-89851973D01*
X99247118Y-90352000D01*
X99494414Y-90352000D01*
X99494414Y-89968416D01*
X99496795Y-89872673D01*
X99502007Y-89835857D01*
X99511511Y-89809109D01*
X99526490Y-89787869D01*
X99548391Y-89773205D01*
X99576439Y-89765122D01*
X99619405Y-89761909D01*
X99649722Y-89764554D01*
X99679489Y-89772533D01*
X99751235Y-89807704D01*
X99751235Y-90352000D01*
X99998531Y-90352000D01*
X99998531Y-89968416D01*
X100001279Y-89873039D01*
X100006769Y-89835891D01*
X100016300Y-89809109D01*
X100031756Y-89787822D01*
X100053547Y-89773205D01*
X100081205Y-89765121D01*
X100123583Y-89761909D01*
X100159161Y-89765564D01*
X100193925Y-89776624D01*
X100255413Y-89807704D01*
X100255413Y-90352000D01*
X100501305Y-90352000D01*
X100501305Y-89969393D01*
X100677465Y-89969393D01*
X100677552Y-89970736D01*
X100682364Y-90045359D01*
X100696343Y-90111796D01*
X100718664Y-90170112D01*
X100749071Y-90221476D01*
X100787802Y-90266759D01*
X100833432Y-90304485D01*
X100886038Y-90334385D01*
X100946655Y-90356533D01*
X101016630Y-90370516D01*
X101097563Y-90375447D01*
X101178493Y-90370516D01*
X101248475Y-90356535D01*
X101309106Y-90334387D01*
X101361731Y-90304487D01*
X101407385Y-90266759D01*
X101446091Y-90221480D01*
X101476481Y-90170118D01*
X101498791Y-90111801D01*
X101512763Y-90045362D01*
X101517660Y-89969393D01*
X101512717Y-89892786D01*
X101498628Y-89825957D01*
X101476157Y-89767456D01*
X101445576Y-89716079D01*
X101406652Y-89670928D01*
X101360731Y-89633269D01*
X101343858Y-89623728D01*
X101624700Y-89623728D01*
X101624700Y-89832251D01*
X101659566Y-89832251D01*
X101694065Y-89805323D01*
X101743585Y-89775098D01*
X101805073Y-89751712D01*
X101840025Y-89744857D01*
X101882926Y-89742369D01*
X101931398Y-89746628D01*
X101971816Y-89758630D01*
X102005730Y-89777782D01*
X102034234Y-89804285D01*
X102062671Y-89848395D01*
X102080682Y-89903447D01*
X102087174Y-89972385D01*
X102080347Y-90043488D01*
X102061762Y-90097672D01*
X102032891Y-90138837D01*
X101993244Y-90169521D01*
X101942944Y-90188751D01*
X101878835Y-90195684D01*
X101833688Y-90193027D01*
X101795181Y-90185548D01*
X101759814Y-90173950D01*
X101733327Y-90161551D01*
X101692355Y-90134013D01*
X101659566Y-90105803D01*
X101624700Y-90105803D01*
X101624700Y-90315913D01*
X101683937Y-90340403D01*
X101745966Y-90359327D01*
X101811024Y-90371251D01*
X101885612Y-90375447D01*
X101983427Y-90369218D01*
X102066389Y-90352000D01*
X102526017Y-90352000D01*
X102781495Y-90352000D01*
X102781495Y-90082355D01*
X102526017Y-90082355D01*
X102526017Y-90352000D01*
X102066389Y-90352000D01*
X102069039Y-90351450D01*
X102122748Y-90332178D01*
X102170697Y-90307441D01*
X102213508Y-90277261D01*
X102250775Y-90241215D01*
X102282130Y-90199321D01*
X102307786Y-90150927D01*
X102325880Y-90099095D01*
X102337254Y-90039998D01*
X102341247Y-89972446D01*
X102336941Y-89901283D01*
X102324734Y-89839758D01*
X102305405Y-89786455D01*
X102278046Y-89736809D01*
X102244769Y-89693749D01*
X102205326Y-89656640D01*
X102162188Y-89627302D01*
X102114556Y-89603513D01*
X102072114Y-89588802D01*
X102929873Y-89588802D01*
X102929873Y-89824435D01*
X102951732Y-89824435D01*
X103002291Y-89815642D01*
X103060359Y-89812711D01*
X103111463Y-89814521D01*
X103153294Y-89819489D01*
X103194075Y-89828353D01*
X103240061Y-89842509D01*
X103240061Y-90352000D01*
X103485952Y-90352000D01*
X103485952Y-89969393D01*
X103662113Y-89969393D01*
X103662200Y-89970736D01*
X103667012Y-90045359D01*
X103680991Y-90111796D01*
X103703312Y-90170112D01*
X103733719Y-90221476D01*
X103772449Y-90266759D01*
X103818080Y-90304485D01*
X103870685Y-90334385D01*
X103931302Y-90356533D01*
X104001277Y-90370516D01*
X104082210Y-90375447D01*
X104163141Y-90370516D01*
X104233123Y-90356535D01*
X104293753Y-90334387D01*
X104346378Y-90304487D01*
X104392032Y-90266759D01*
X104430739Y-90221480D01*
X104461129Y-90170118D01*
X104483439Y-90111801D01*
X104497411Y-90045362D01*
X104502308Y-89969393D01*
X104497364Y-89892786D01*
X104483275Y-89825957D01*
X104460804Y-89767456D01*
X104430223Y-89716079D01*
X104391300Y-89670928D01*
X104345379Y-89633269D01*
X104292654Y-89603456D01*
X104244891Y-89586054D01*
X104592800Y-89586054D01*
X104592800Y-89754093D01*
X104823060Y-89754093D01*
X104823060Y-90024409D01*
X104822388Y-90094323D01*
X104819223Y-90123141D01*
X104811458Y-90147996D01*
X104798395Y-90169082D01*
X104777631Y-90185670D01*
X104750196Y-90195625D01*
X104706922Y-90199592D01*
X104656669Y-90191349D01*
X104613316Y-90176145D01*
X104592800Y-90176145D01*
X104592800Y-90345649D01*
X104676820Y-90361769D01*
X104785447Y-90367631D01*
X104858687Y-90363266D01*
X104916937Y-90351350D01*
X104962923Y-90333255D01*
X104998915Y-90309745D01*
X105027573Y-90278551D01*
X105049323Y-90237022D01*
X105063653Y-90182526D01*
X105068951Y-90111603D01*
X105068951Y-90110016D01*
X105247004Y-90110016D01*
X105253654Y-90166743D01*
X105273073Y-90216738D01*
X105305701Y-90261664D01*
X105353555Y-90302418D01*
X105407712Y-90332591D01*
X105472941Y-90355433D01*
X105551310Y-90370161D01*
X105645242Y-90375447D01*
X105745095Y-90370475D01*
X105831050Y-90356457D01*
X105847636Y-90352000D01*
X106145574Y-90352000D01*
X106391465Y-90352000D01*
X106391465Y-89957608D01*
X106569763Y-89957608D01*
X106569960Y-89961272D01*
X106573143Y-90020510D01*
X106582950Y-90078012D01*
X106598828Y-90130777D01*
X106633251Y-90203463D01*
X106674970Y-90259493D01*
X106727872Y-90306698D01*
X106786345Y-90340276D01*
X106850357Y-90360718D01*
X106919518Y-90367631D01*
X106982502Y-90363822D01*
X107030954Y-90353587D01*
X107076479Y-90337085D01*
X107124499Y-90314325D01*
X107124499Y-90633367D01*
X107370391Y-90633367D01*
X107370391Y-89829808D01*
X107596987Y-89829808D01*
X107596987Y-90152636D01*
X107596987Y-90352000D01*
X107840863Y-90352000D01*
X107840863Y-90270728D01*
X107890078Y-90306937D01*
X107945399Y-90340398D01*
X107982303Y-90355467D01*
X108020565Y-90366471D01*
X108060529Y-90373115D01*
X108105928Y-90375447D01*
X108159612Y-90370980D01*
X108207345Y-90358066D01*
X108250203Y-90336989D01*
X108288988Y-90307425D01*
X108321274Y-90271034D01*
X108344056Y-90230564D01*
X108357944Y-90185175D01*
X108362749Y-90133646D01*
X108358172Y-90078414D01*
X108345382Y-90033022D01*
X108325197Y-89995588D01*
X108297313Y-89963024D01*
X108262132Y-89934885D01*
X108218585Y-89911080D01*
X108145527Y-89885539D01*
X108049203Y-89867116D01*
X107947092Y-89855856D01*
X107839459Y-89847882D01*
X107839459Y-89843730D01*
X107845617Y-89804263D01*
X107862712Y-89775657D01*
X107891361Y-89755131D01*
X107927001Y-89742625D01*
X107976715Y-89733952D01*
X108044379Y-89730646D01*
X108105825Y-89735802D01*
X108174194Y-89752200D01*
X108273234Y-89785356D01*
X108295766Y-89785356D01*
X108295766Y-89623728D01*
X108468384Y-89623728D01*
X108468384Y-89832251D01*
X108503250Y-89832251D01*
X108537749Y-89805323D01*
X108587270Y-89775098D01*
X108648758Y-89751712D01*
X108683710Y-89744857D01*
X108726610Y-89742369D01*
X108775082Y-89746628D01*
X108815501Y-89758630D01*
X108849415Y-89777782D01*
X108877919Y-89804285D01*
X108906356Y-89848395D01*
X108924367Y-89903447D01*
X108930858Y-89972385D01*
X108924032Y-90043488D01*
X108905446Y-90097672D01*
X108876575Y-90138837D01*
X108836929Y-90169521D01*
X108786629Y-90188751D01*
X108722519Y-90195684D01*
X108677372Y-90193027D01*
X108638866Y-90185548D01*
X108603499Y-90173950D01*
X108577011Y-90161551D01*
X108536040Y-90134013D01*
X108503250Y-90105803D01*
X108468384Y-90105803D01*
X108468384Y-90315913D01*
X108527622Y-90340403D01*
X108589651Y-90359327D01*
X108654708Y-90371251D01*
X108729297Y-90375447D01*
X108827112Y-90369218D01*
X108912723Y-90351450D01*
X108966432Y-90332178D01*
X109014382Y-90307441D01*
X109057193Y-90277261D01*
X109094459Y-90241215D01*
X109125815Y-90199321D01*
X109151471Y-90150927D01*
X109169565Y-90099095D01*
X109180939Y-90039998D01*
X109184932Y-89972446D01*
X109180625Y-89901283D01*
X109180437Y-89900333D01*
X109345522Y-89900333D01*
X109352247Y-89995911D01*
X109372877Y-90094629D01*
X109404886Y-90187941D01*
X109441143Y-90258210D01*
X109786807Y-90258210D01*
X109797737Y-90204904D01*
X109836847Y-90228739D01*
X109872903Y-90246487D01*
X109913360Y-90257620D01*
X109977378Y-90262118D01*
X110030794Y-90256284D01*
X110077777Y-90239323D01*
X110119804Y-90211081D01*
X110157751Y-90170161D01*
X110186576Y-90122993D01*
X110208110Y-90067091D01*
X110221852Y-90000843D01*
X110226750Y-89922315D01*
X110220613Y-89842047D01*
X110203547Y-89776380D01*
X110175705Y-89717277D01*
X110139982Y-89667326D01*
X110098600Y-89628408D01*
X110049185Y-89598938D01*
X109995342Y-89580316D01*
X109943306Y-89574330D01*
X109899939Y-89578465D01*
X109863377Y-89590206D01*
X109831156Y-89607506D01*
X109809400Y-89624461D01*
X109809400Y-89582146D01*
X109650886Y-89582146D01*
X109650886Y-89730829D01*
X109650886Y-90137066D01*
X109534749Y-90137066D01*
X109513529Y-90081547D01*
X109498234Y-90020257D01*
X109489182Y-89957748D01*
X109486266Y-89899356D01*
X109490113Y-89823076D01*
X109501056Y-89756165D01*
X109518384Y-89697429D01*
X109543193Y-89641527D01*
X109572813Y-89593807D01*
X109607167Y-89553325D01*
X109648114Y-89517596D01*
X109693281Y-89488644D01*
X109743149Y-89466192D01*
X109823315Y-89444874D01*
X109911860Y-89437554D01*
X109968942Y-89441397D01*
X110023744Y-89452820D01*
X110076785Y-89471870D01*
X110150528Y-89512267D01*
X110214477Y-89564377D01*
X110251701Y-89606530D01*
X110284610Y-89656062D01*
X110313151Y-89713854D01*
X110333985Y-89774769D01*
X110346715Y-89840120D01*
X110351069Y-89910653D01*
X110346822Y-89987735D01*
X110334659Y-90056154D01*
X110315227Y-90117038D01*
X110287965Y-90174864D01*
X110256170Y-90224386D01*
X110219911Y-90266515D01*
X110178170Y-90302678D01*
X110132313Y-90332518D01*
X110081914Y-90356274D01*
X110028778Y-90373378D01*
X109973586Y-90383690D01*
X109915890Y-90387170D01*
X109856029Y-90384646D01*
X109783754Y-90376363D01*
X109711880Y-90363474D01*
X109652230Y-90348092D01*
X109652230Y-90479250D01*
X109778625Y-90500866D01*
X109842890Y-90506371D01*
X109915951Y-90508315D01*
X109998419Y-90503390D01*
X110075232Y-90488965D01*
X110147188Y-90465328D01*
X110215256Y-90432415D01*
X110276408Y-90391789D01*
X110331286Y-90343207D01*
X110378471Y-90287960D01*
X110418649Y-90225026D01*
X110451881Y-90153552D01*
X110475679Y-90078311D01*
X110490248Y-89997623D01*
X110492542Y-89957608D01*
X110656434Y-89957608D01*
X110656969Y-89964691D01*
X110663228Y-90047586D01*
X110682608Y-90125607D01*
X110713702Y-90193669D01*
X110756512Y-90253325D01*
X110810462Y-90303954D01*
X110869223Y-90339170D01*
X110933904Y-90360365D01*
X111006190Y-90367631D01*
X111068260Y-90363913D01*
X111118969Y-90353648D01*
X111166213Y-90336724D01*
X111211171Y-90313714D01*
X111221429Y-90352000D01*
X111457062Y-90352000D01*
X111688910Y-90352000D01*
X111934801Y-90352000D01*
X111934801Y-89829808D01*
X112161397Y-89829808D01*
X112161397Y-90152636D01*
X112161397Y-90352000D01*
X112405274Y-90352000D01*
X112405274Y-90270728D01*
X112454489Y-90306937D01*
X112509810Y-90340398D01*
X112546713Y-90355467D01*
X112584975Y-90366471D01*
X112624939Y-90373115D01*
X112670338Y-90375447D01*
X112724022Y-90370980D01*
X112771755Y-90358066D01*
X112814613Y-90336989D01*
X112853398Y-90307425D01*
X112885685Y-90271034D01*
X112908466Y-90230564D01*
X112922354Y-90185175D01*
X112927160Y-90133646D01*
X112922583Y-90078414D01*
X112909792Y-90033022D01*
X112889607Y-89995588D01*
X112867177Y-89969393D01*
X113045923Y-89969393D01*
X113046010Y-89970736D01*
X113050822Y-90045359D01*
X113064801Y-90111796D01*
X113087122Y-90170112D01*
X113117529Y-90221476D01*
X113156260Y-90266759D01*
X113201890Y-90304485D01*
X113254495Y-90334385D01*
X113315112Y-90356533D01*
X113385087Y-90370516D01*
X113466021Y-90375447D01*
X113546951Y-90370516D01*
X113616933Y-90356535D01*
X113677564Y-90334387D01*
X113730188Y-90304487D01*
X113775843Y-90266759D01*
X113814549Y-90221480D01*
X113844939Y-90170118D01*
X113867249Y-90111801D01*
X113881221Y-90045362D01*
X113886118Y-89969393D01*
X113881175Y-89892786D01*
X113872571Y-89851973D01*
X114056111Y-89851973D01*
X114056111Y-90352000D01*
X114303346Y-90352000D01*
X114303346Y-89971164D01*
X114308170Y-89878474D01*
X114315334Y-89835604D01*
X114324534Y-89810452D01*
X114341370Y-89788594D01*
X114364529Y-89773571D01*
X114393614Y-89765221D01*
X114437924Y-89761909D01*
X114471374Y-89764591D01*
X114505945Y-89772839D01*
X114540621Y-89786429D01*
X114580745Y-89807704D01*
X114580745Y-90352000D01*
X114826636Y-90352000D01*
X114826636Y-90110016D01*
X114990340Y-90110016D01*
X114996990Y-90166743D01*
X115016408Y-90216738D01*
X115049037Y-90261664D01*
X115096891Y-90302418D01*
X115151048Y-90332591D01*
X115216277Y-90355433D01*
X115294646Y-90370161D01*
X115388578Y-90375447D01*
X115488431Y-90370475D01*
X115574386Y-90356457D01*
X115653271Y-90335259D01*
X115708292Y-90314386D01*
X115708292Y-90113618D01*
X115685761Y-90113618D01*
X115643079Y-90140302D01*
X115574386Y-90171443D01*
X115487680Y-90196844D01*
X115438137Y-90204696D01*
X115383815Y-90207408D01*
X115316292Y-90202912D01*
X115276593Y-90192143D01*
X115256318Y-90179543D01*
X115245354Y-90164761D01*
X115241727Y-90147019D01*
X115247077Y-90122315D01*
X115262243Y-90106230D01*
X115287629Y-90095177D01*
X115340096Y-90081867D01*
X115414224Y-90068495D01*
X115499281Y-90050970D01*
X115566511Y-90027725D01*
X115617128Y-89999073D01*
X115654314Y-89965607D01*
X115682066Y-89924451D01*
X115698977Y-89876898D01*
X115704873Y-89821199D01*
X115698498Y-89768667D01*
X115679659Y-89721204D01*
X115647592Y-89677363D01*
X115600031Y-89636368D01*
X115546617Y-89605822D01*
X115482452Y-89582764D01*
X115405527Y-89567926D01*
X115313473Y-89562607D01*
X115228545Y-89567055D01*
X115148487Y-89580131D01*
X115074230Y-89599476D01*
X115025206Y-89617561D01*
X115025206Y-89812711D01*
X115046394Y-89812711D01*
X115104003Y-89780130D01*
X115171080Y-89753482D01*
X115241717Y-89736320D01*
X115312802Y-89730646D01*
X115369550Y-89734861D01*
X115412880Y-89746216D01*
X115437119Y-89759320D01*
X115449550Y-89773830D01*
X115453486Y-89790363D01*
X115448679Y-89814967D01*
X115435045Y-89832190D01*
X115409945Y-89844589D01*
X115348278Y-89861010D01*
X115267373Y-89875787D01*
X115180239Y-89893922D01*
X115117889Y-89915556D01*
X115071077Y-89942380D01*
X115036807Y-89973851D01*
X115011356Y-90012471D01*
X114995784Y-90057307D01*
X114990340Y-90110016D01*
X114826636Y-90110016D01*
X114826636Y-89289055D01*
X114580745Y-89289055D01*
X114580745Y-89668608D01*
X114514580Y-89622140D01*
X114454716Y-89589962D01*
X114391811Y-89569625D01*
X114320504Y-89562607D01*
X114258881Y-89567618D01*
X114207060Y-89581754D01*
X114163258Y-89604249D01*
X114126148Y-89635147D01*
X114097128Y-89673131D01*
X114075325Y-89720480D01*
X114061221Y-89779235D01*
X114056111Y-89851973D01*
X113872571Y-89851973D01*
X113867086Y-89825957D01*
X113844615Y-89767456D01*
X113814033Y-89716079D01*
X113775110Y-89670928D01*
X113729189Y-89633269D01*
X113676465Y-89603456D01*
X113615936Y-89581403D01*
X113546303Y-89567502D01*
X113466021Y-89562607D01*
X113384466Y-89567572D01*
X113314162Y-89581634D01*
X113253455Y-89603877D01*
X113200953Y-89633863D01*
X113155588Y-89671661D01*
X113117112Y-89717026D01*
X113086889Y-89768470D01*
X113064696Y-89826866D01*
X113050795Y-89893374D01*
X113045923Y-89969393D01*
X112867177Y-89969393D01*
X112861723Y-89963024D01*
X112826542Y-89934885D01*
X112782995Y-89911080D01*
X112709937Y-89885539D01*
X112613613Y-89867116D01*
X112511503Y-89855856D01*
X112403869Y-89847882D01*
X112403869Y-89843730D01*
X112410028Y-89804263D01*
X112427122Y-89775657D01*
X112455771Y-89755131D01*
X112491412Y-89742625D01*
X112541125Y-89733952D01*
X112608789Y-89730646D01*
X112670235Y-89735802D01*
X112738604Y-89752200D01*
X112837645Y-89785356D01*
X112860176Y-89785356D01*
X112860176Y-89600770D01*
X112733475Y-89576590D01*
X112645499Y-89566095D01*
X112557559Y-89562607D01*
X112448466Y-89567754D01*
X112364720Y-89581525D01*
X112301499Y-89601826D01*
X112254637Y-89627209D01*
X112214700Y-89663067D01*
X112185965Y-89707445D01*
X112167879Y-89762116D01*
X112161397Y-89829808D01*
X111934801Y-89829808D01*
X111934801Y-89586054D01*
X111688910Y-89586054D01*
X111688910Y-90352000D01*
X111457062Y-90352000D01*
X111457062Y-89476633D01*
X111682071Y-89476633D01*
X111941640Y-89476633D01*
X111941640Y-89289055D01*
X111682071Y-89289055D01*
X111682071Y-89476633D01*
X111457062Y-89476633D01*
X111457062Y-89289055D01*
X111211171Y-89289055D01*
X111211171Y-89663662D01*
X111153124Y-89622407D01*
X111095399Y-89590633D01*
X111055100Y-89575387D01*
X111009929Y-89565907D01*
X110959051Y-89562607D01*
X110888271Y-89569635D01*
X110828742Y-89589610D01*
X110778149Y-89621981D01*
X110735019Y-89667692D01*
X110702422Y-89721491D01*
X110677876Y-89786274D01*
X110662094Y-89864144D01*
X110656434Y-89957608D01*
X110492542Y-89957608D01*
X110495234Y-89910653D01*
X110490081Y-89826989D01*
X110474973Y-89748923D01*
X110450171Y-89675630D01*
X110416026Y-89606132D01*
X110374629Y-89543439D01*
X110325790Y-89486952D01*
X110271402Y-89438260D01*
X110210047Y-89396708D01*
X110141021Y-89362144D01*
X110068113Y-89336817D01*
X109992186Y-89321562D01*
X109912531Y-89316410D01*
X109833230Y-89321234D01*
X109758671Y-89335423D01*
X109688133Y-89358786D01*
X109621334Y-89391123D01*
X109561783Y-89430671D01*
X109508798Y-89477610D01*
X109461871Y-89531439D01*
X109421955Y-89592314D01*
X109388936Y-89660975D01*
X109365234Y-89733408D01*
X109350583Y-89812842D01*
X109345522Y-89900333D01*
X109180437Y-89900333D01*
X109168418Y-89839758D01*
X109149089Y-89786455D01*
X109121730Y-89736809D01*
X109088454Y-89693749D01*
X109049011Y-89656640D01*
X109005873Y-89627302D01*
X108958241Y-89603513D01*
X108905579Y-89585260D01*
X108823075Y-89568318D01*
X108736807Y-89562607D01*
X108660096Y-89566999D01*
X108592032Y-89579581D01*
X108527433Y-89599307D01*
X108468384Y-89623728D01*
X108295766Y-89623728D01*
X108295766Y-89600770D01*
X108169065Y-89576590D01*
X108081088Y-89566095D01*
X107993149Y-89562607D01*
X107884056Y-89567754D01*
X107800310Y-89581525D01*
X107737088Y-89601826D01*
X107690227Y-89627209D01*
X107650289Y-89663067D01*
X107621555Y-89707445D01*
X107603469Y-89762116D01*
X107596987Y-89829808D01*
X107370391Y-89829808D01*
X107370391Y-89586054D01*
X107124499Y-89586054D01*
X107124499Y-89665982D01*
X107066509Y-89624466D01*
X107008728Y-89591794D01*
X106968366Y-89575897D01*
X106923201Y-89566036D01*
X106872380Y-89562607D01*
X106802746Y-89569599D01*
X106743694Y-89589551D01*
X106693035Y-89622026D01*
X106649386Y-89668058D01*
X106616292Y-89722081D01*
X106591430Y-89786908D01*
X106575476Y-89864597D01*
X106569763Y-89957608D01*
X106391465Y-89957608D01*
X106391465Y-89586054D01*
X106145574Y-89586054D01*
X106145574Y-90352000D01*
X105847636Y-90352000D01*
X105909936Y-90335259D01*
X105964956Y-90314386D01*
X105964956Y-90113618D01*
X105942425Y-90113618D01*
X105899743Y-90140302D01*
X105831050Y-90171443D01*
X105744344Y-90196844D01*
X105694802Y-90204696D01*
X105640480Y-90207408D01*
X105572957Y-90202912D01*
X105533257Y-90192143D01*
X105512982Y-90179543D01*
X105502018Y-90164761D01*
X105498391Y-90147019D01*
X105503741Y-90122315D01*
X105518908Y-90106230D01*
X105544293Y-90095177D01*
X105596760Y-90081867D01*
X105670888Y-90068495D01*
X105755945Y-90050970D01*
X105823175Y-90027725D01*
X105873792Y-89999073D01*
X105910979Y-89965607D01*
X105938730Y-89924451D01*
X105955641Y-89876898D01*
X105961537Y-89821199D01*
X105955162Y-89768667D01*
X105936324Y-89721204D01*
X105904256Y-89677363D01*
X105856696Y-89636368D01*
X105803281Y-89605822D01*
X105739116Y-89582764D01*
X105662191Y-89567926D01*
X105570138Y-89562607D01*
X105485210Y-89567055D01*
X105405152Y-89580131D01*
X105330895Y-89599476D01*
X105281870Y-89617561D01*
X105281870Y-89812711D01*
X105303058Y-89812711D01*
X105360667Y-89780130D01*
X105427744Y-89753482D01*
X105498381Y-89736320D01*
X105569466Y-89730646D01*
X105626214Y-89734861D01*
X105669545Y-89746216D01*
X105693783Y-89759320D01*
X105706214Y-89773830D01*
X105710150Y-89790363D01*
X105705343Y-89814967D01*
X105691710Y-89832190D01*
X105666609Y-89844589D01*
X105604942Y-89861010D01*
X105524037Y-89875787D01*
X105436903Y-89893922D01*
X105374553Y-89915556D01*
X105327742Y-89942380D01*
X105293472Y-89973851D01*
X105268021Y-90012471D01*
X105252448Y-90057307D01*
X105247004Y-90110016D01*
X105068951Y-90110016D01*
X105068951Y-89754093D01*
X105170068Y-89754093D01*
X105170068Y-89586054D01*
X105068951Y-89586054D01*
X105068951Y-89476633D01*
X106138735Y-89476633D01*
X106398304Y-89476633D01*
X106398304Y-89289055D01*
X106138735Y-89289055D01*
X106138735Y-89476633D01*
X105068951Y-89476633D01*
X105068951Y-89367212D01*
X104823060Y-89367212D01*
X104823060Y-89586054D01*
X104592800Y-89586054D01*
X104244891Y-89586054D01*
X104232126Y-89581403D01*
X104162492Y-89567502D01*
X104082210Y-89562607D01*
X104000656Y-89567572D01*
X103930352Y-89581634D01*
X103869645Y-89603877D01*
X103817143Y-89633863D01*
X103771778Y-89671661D01*
X103733302Y-89717026D01*
X103703079Y-89768470D01*
X103680885Y-89826866D01*
X103666985Y-89893374D01*
X103662113Y-89969393D01*
X103485952Y-89969393D01*
X103485952Y-89586054D01*
X103240061Y-89586054D01*
X103240061Y-89698772D01*
X103183624Y-89654405D01*
X103137042Y-89625076D01*
X103098644Y-89607608D01*
X103039236Y-89591124D01*
X102987941Y-89586054D01*
X102958571Y-89586787D01*
X102929873Y-89588802D01*
X102072114Y-89588802D01*
X102061895Y-89585260D01*
X101979390Y-89568318D01*
X101893123Y-89562607D01*
X101816412Y-89566999D01*
X101748348Y-89579581D01*
X101683749Y-89599307D01*
X101624700Y-89623728D01*
X101343858Y-89623728D01*
X101308007Y-89603456D01*
X101247478Y-89581403D01*
X101177845Y-89567502D01*
X101097563Y-89562607D01*
X101016008Y-89567572D01*
X100945704Y-89581634D01*
X100884997Y-89603877D01*
X100832496Y-89633863D01*
X100787130Y-89671661D01*
X100748655Y-89717026D01*
X100718431Y-89768470D01*
X100696238Y-89826866D01*
X100682337Y-89893374D01*
X100677465Y-89969393D01*
X100501305Y-89969393D01*
X100501305Y-89586054D01*
X100255413Y-89586054D01*
X100255413Y-89668608D01*
X100191418Y-89622987D01*
X100133780Y-89590633D01*
X100073329Y-89569764D01*
X100005370Y-89562607D01*
X99955737Y-89566543D01*
X99911409Y-89577931D01*
X99871464Y-89596495D01*
X99835945Y-89622244D01*
X99805764Y-89655113D01*
X99780605Y-89696024D01*
X99705899Y-89639091D01*
X99637174Y-89598205D01*
X99589747Y-89577990D01*
X99544401Y-89566377D01*
X99500520Y-89562607D01*
X99438964Y-89567818D01*
X99388260Y-89582407D01*
X99346327Y-89605494D01*
X99311659Y-89637162D01*
X99284906Y-89675801D01*
X99264782Y-89723205D01*
X99251800Y-89781185D01*
X99247118Y-89851973D01*
X95686781Y-89851973D01*
X95686781Y-88149808D01*
X95811781Y-88149808D01*
X95811781Y-88472636D01*
X95811781Y-88672000D01*
X96055658Y-88672000D01*
X96055658Y-88590728D01*
X96104873Y-88626937D01*
X96160194Y-88660398D01*
X96197097Y-88675467D01*
X96235359Y-88686471D01*
X96275323Y-88693115D01*
X96320722Y-88695447D01*
X96374406Y-88690980D01*
X96422139Y-88678066D01*
X96464997Y-88656989D01*
X96503782Y-88627425D01*
X96536069Y-88591034D01*
X96558850Y-88550564D01*
X96572738Y-88505175D01*
X96577544Y-88453646D01*
X96572967Y-88398414D01*
X96560176Y-88353022D01*
X96539991Y-88315588D01*
X96512107Y-88283024D01*
X96476926Y-88254885D01*
X96433379Y-88231080D01*
X96360321Y-88205539D01*
X96263997Y-88187116D01*
X96161886Y-88175856D01*
X96054253Y-88167882D01*
X96054253Y-88163730D01*
X96060411Y-88124263D01*
X96077506Y-88095657D01*
X96106155Y-88075131D01*
X96141795Y-88062625D01*
X96191509Y-88053952D01*
X96259173Y-88050646D01*
X96320619Y-88055802D01*
X96388988Y-88072200D01*
X96488029Y-88105356D01*
X96510560Y-88105356D01*
X96510560Y-87920770D01*
X96383859Y-87896590D01*
X96295883Y-87886095D01*
X96207943Y-87882607D01*
X96098850Y-87887754D01*
X96015104Y-87901525D01*
X95951883Y-87921826D01*
X95905021Y-87947209D01*
X95865083Y-87983067D01*
X95836349Y-88027445D01*
X95818263Y-88082116D01*
X95811781Y-88149808D01*
X95686781Y-88149808D01*
X95686781Y-87614916D01*
X96613936Y-87614916D01*
X96613936Y-87788817D01*
X96632376Y-87788817D01*
X96675119Y-87778803D01*
X96731417Y-87773186D01*
X96779330Y-87776875D01*
X96810344Y-87786145D01*
X96829480Y-87799198D01*
X96842247Y-87818554D01*
X96851401Y-87850337D01*
X96855064Y-87899887D01*
X96855064Y-87906054D01*
X96665166Y-87906054D01*
X96665166Y-88074093D01*
X96846882Y-88074093D01*
X96846882Y-88672000D01*
X97092774Y-88672000D01*
X97092774Y-88149808D01*
X97337810Y-88149808D01*
X97337810Y-88472636D01*
X97337810Y-88672000D01*
X97581687Y-88672000D01*
X97581687Y-88590728D01*
X97630902Y-88626937D01*
X97686223Y-88660398D01*
X97723126Y-88675467D01*
X97761389Y-88686471D01*
X97801353Y-88693115D01*
X97846751Y-88695447D01*
X97900435Y-88690980D01*
X97948169Y-88678066D01*
X97991026Y-88656989D01*
X98029812Y-88627425D01*
X98062098Y-88591034D01*
X98084879Y-88550564D01*
X98098767Y-88505175D01*
X98103573Y-88453646D01*
X98098996Y-88398414D01*
X98086205Y-88353022D01*
X98066021Y-88315588D01*
X98038136Y-88283024D01*
X98002955Y-88254885D01*
X97959409Y-88231080D01*
X97886350Y-88205539D01*
X97790026Y-88187116D01*
X97687916Y-88175856D01*
X97580283Y-88167882D01*
X97580283Y-88163730D01*
X97586441Y-88124263D01*
X97603535Y-88095657D01*
X97632184Y-88075131D01*
X97667825Y-88062625D01*
X97717538Y-88053952D01*
X97785202Y-88050646D01*
X97846648Y-88055802D01*
X97915017Y-88072200D01*
X98014058Y-88105356D01*
X98036589Y-88105356D01*
X98036589Y-87920770D01*
X97959478Y-87906054D01*
X98192660Y-87906054D01*
X98192660Y-88074093D01*
X98422920Y-88074093D01*
X98422920Y-88344409D01*
X98422249Y-88414323D01*
X98419084Y-88443141D01*
X98411319Y-88467996D01*
X98398255Y-88489082D01*
X98377491Y-88505670D01*
X98350057Y-88515625D01*
X98306783Y-88519592D01*
X98256530Y-88511349D01*
X98213177Y-88496145D01*
X98192660Y-88496145D01*
X98192660Y-88665649D01*
X98276680Y-88681769D01*
X98385307Y-88687631D01*
X98458548Y-88683266D01*
X98516798Y-88671350D01*
X98562783Y-88653255D01*
X98598775Y-88629745D01*
X98627434Y-88598551D01*
X98649183Y-88557022D01*
X98663513Y-88502526D01*
X98668812Y-88431603D01*
X98668812Y-88430016D01*
X98846865Y-88430016D01*
X98853514Y-88486743D01*
X98872933Y-88536738D01*
X98905562Y-88581664D01*
X98953416Y-88622418D01*
X99007573Y-88652591D01*
X99072802Y-88675433D01*
X99151171Y-88690161D01*
X99245103Y-88695447D01*
X99344956Y-88690475D01*
X99430911Y-88676457D01*
X99447497Y-88672000D01*
X99745679Y-88672000D01*
X99991631Y-88672000D01*
X99991631Y-88589445D01*
X100059634Y-88636800D01*
X100116683Y-88668458D01*
X100155359Y-88683017D01*
X100200067Y-88692205D01*
X100251872Y-88695447D01*
X100314948Y-88690339D01*
X100367371Y-88676006D01*
X100375095Y-88672000D01*
X100756844Y-88672000D01*
X101017756Y-88672000D01*
X101017756Y-87991844D01*
X101206312Y-88433618D01*
X101387296Y-88433618D01*
X101575851Y-87991844D01*
X101575851Y-88672000D01*
X101823147Y-88672000D01*
X101823147Y-88277608D01*
X102492861Y-88277608D01*
X102493396Y-88284691D01*
X102499655Y-88367586D01*
X102519035Y-88445607D01*
X102550129Y-88513669D01*
X102592940Y-88573325D01*
X102646889Y-88623954D01*
X102705650Y-88659170D01*
X102770331Y-88680365D01*
X102842617Y-88687631D01*
X102904687Y-88683913D01*
X102955396Y-88673648D01*
X103002641Y-88656724D01*
X103047598Y-88633714D01*
X103057856Y-88672000D01*
X103293489Y-88672000D01*
X103525337Y-88672000D01*
X103771228Y-88672000D01*
X103771228Y-88149808D01*
X103997824Y-88149808D01*
X103997824Y-88472636D01*
X103997824Y-88672000D01*
X104241701Y-88672000D01*
X104241701Y-88590728D01*
X104290916Y-88626937D01*
X104346237Y-88660398D01*
X104383140Y-88675467D01*
X104421403Y-88686471D01*
X104461366Y-88693115D01*
X104506765Y-88695447D01*
X104560449Y-88690980D01*
X104608182Y-88678066D01*
X104651040Y-88656989D01*
X104689825Y-88627425D01*
X104722112Y-88591034D01*
X104744893Y-88550564D01*
X104758781Y-88505175D01*
X104763587Y-88453646D01*
X104759010Y-88398414D01*
X104746219Y-88353022D01*
X104726034Y-88315588D01*
X104703604Y-88289393D01*
X104882350Y-88289393D01*
X104882437Y-88290736D01*
X104887249Y-88365359D01*
X104901228Y-88431796D01*
X104923549Y-88490112D01*
X104953956Y-88541476D01*
X104992687Y-88586759D01*
X105038317Y-88624485D01*
X105090922Y-88654385D01*
X105151539Y-88676533D01*
X105221514Y-88690516D01*
X105302448Y-88695447D01*
X105383378Y-88690516D01*
X105453360Y-88676535D01*
X105513991Y-88654387D01*
X105566615Y-88624487D01*
X105612270Y-88586759D01*
X105650976Y-88541480D01*
X105681366Y-88490118D01*
X105703676Y-88431801D01*
X105717648Y-88365362D01*
X105722545Y-88289393D01*
X105717602Y-88212786D01*
X105708998Y-88171973D01*
X105892538Y-88171973D01*
X105892538Y-88672000D01*
X106139773Y-88672000D01*
X106139773Y-88291164D01*
X106144597Y-88198474D01*
X106151761Y-88155604D01*
X106160961Y-88130452D01*
X106177797Y-88108594D01*
X106200956Y-88093571D01*
X106230041Y-88085221D01*
X106274351Y-88081909D01*
X106307801Y-88084591D01*
X106342373Y-88092839D01*
X106377048Y-88106429D01*
X106417172Y-88127704D01*
X106417172Y-88672000D01*
X106663063Y-88672000D01*
X106663063Y-88353079D01*
X106829698Y-88353079D01*
X106834868Y-88411400D01*
X106849937Y-88464037D01*
X106874799Y-88512124D01*
X106910088Y-88556484D01*
X106957132Y-88597566D01*
X107022330Y-88636686D01*
X107100090Y-88666032D01*
X107192750Y-88684824D01*
X107303102Y-88691539D01*
X107425285Y-88685547D01*
X107506557Y-88672000D01*
X108405064Y-88672000D01*
X108660542Y-88672000D01*
X108660542Y-88402355D01*
X108405064Y-88402355D01*
X108405064Y-88672000D01*
X107506557Y-88672000D01*
X107523409Y-88669191D01*
X107615245Y-88643560D01*
X107699325Y-88612526D01*
X107699325Y-88367184D01*
X107670626Y-88367184D01*
X107614330Y-88408890D01*
X107553796Y-88443593D01*
X107488604Y-88471476D01*
X107420652Y-88492094D01*
X107356279Y-88504005D01*
X107294920Y-88507868D01*
X107232088Y-88503594D01*
X107195091Y-88497513D01*
X107168524Y-88489306D01*
X107140575Y-88474524D01*
X107119004Y-88457249D01*
X107104819Y-88434582D01*
X107099525Y-88400218D01*
X107106424Y-88369426D01*
X107127919Y-88342455D01*
X107160615Y-88321989D01*
X107210900Y-88305147D01*
X107332106Y-88279562D01*
X107394756Y-88265774D01*
X107452029Y-88249093D01*
X107534624Y-88215479D01*
X107594694Y-88177571D01*
X107596589Y-88175698D01*
X108405064Y-88175698D01*
X108660542Y-88175698D01*
X108660542Y-87908802D01*
X108837619Y-87908802D01*
X108837619Y-88144435D01*
X108859478Y-88144435D01*
X108910037Y-88135642D01*
X108968105Y-88132711D01*
X109019209Y-88134521D01*
X109061040Y-88139489D01*
X109101821Y-88148353D01*
X109147807Y-88162509D01*
X109147807Y-88672000D01*
X109393698Y-88672000D01*
X109393698Y-88249765D01*
X109567294Y-88249765D01*
X109567294Y-88335921D01*
X110130152Y-88335921D01*
X110119596Y-88393444D01*
X110096735Y-88439018D01*
X110061519Y-88475262D01*
X110016730Y-88500477D01*
X109956207Y-88517237D01*
X109875345Y-88523500D01*
X109798757Y-88516370D01*
X109724403Y-88494923D01*
X109656086Y-88463753D01*
X109608937Y-88433618D01*
X109581643Y-88433618D01*
X109581643Y-88631699D01*
X109664410Y-88661218D01*
X109738753Y-88680365D01*
X109814623Y-88691505D01*
X109902029Y-88695447D01*
X109997184Y-88690546D01*
X110078312Y-88676776D01*
X110147378Y-88655260D01*
X110206093Y-88626725D01*
X110255876Y-88591460D01*
X110299271Y-88547386D01*
X110333099Y-88496838D01*
X110357845Y-88438898D01*
X110373344Y-88372236D01*
X110378791Y-88295194D01*
X110375744Y-88249765D01*
X110496394Y-88249765D01*
X110496394Y-88335921D01*
X111059251Y-88335921D01*
X111048696Y-88393444D01*
X111025835Y-88439018D01*
X110990619Y-88475262D01*
X110945830Y-88500477D01*
X110885306Y-88517237D01*
X110804445Y-88523500D01*
X110727856Y-88516370D01*
X110653503Y-88494923D01*
X110585186Y-88463753D01*
X110538037Y-88433618D01*
X110510743Y-88433618D01*
X110510743Y-88631699D01*
X110593510Y-88661218D01*
X110667852Y-88680365D01*
X110743722Y-88691505D01*
X110831129Y-88695447D01*
X110926283Y-88690546D01*
X111007412Y-88676776D01*
X111076477Y-88655260D01*
X111135193Y-88626725D01*
X111184975Y-88591460D01*
X111228371Y-88547386D01*
X111262199Y-88496838D01*
X111286944Y-88438898D01*
X111302444Y-88372236D01*
X111307891Y-88295194D01*
X111302778Y-88218950D01*
X111292520Y-88171973D01*
X111477884Y-88171973D01*
X111477884Y-88672000D01*
X111725119Y-88672000D01*
X111725119Y-88291164D01*
X111729942Y-88198474D01*
X111737106Y-88155604D01*
X111746307Y-88130452D01*
X111763142Y-88108594D01*
X111786301Y-88093571D01*
X111815386Y-88085221D01*
X111859696Y-88081909D01*
X111893146Y-88084591D01*
X111927718Y-88092839D01*
X111962393Y-88106429D01*
X112002517Y-88127704D01*
X112002517Y-88672000D01*
X112248409Y-88672000D01*
X112480256Y-88672000D01*
X112726148Y-88672000D01*
X112726148Y-87906054D01*
X112959094Y-87906054D01*
X112959094Y-88081542D01*
X112959094Y-88584438D01*
X112962890Y-88655965D01*
X112973469Y-88715892D01*
X112989869Y-88765972D01*
X113013763Y-88812646D01*
X113042421Y-88850726D01*
X113075904Y-88881316D01*
X113114400Y-88906393D01*
X113158667Y-88926805D01*
X113209504Y-88942376D01*
X113290461Y-88956233D01*
X113386092Y-88961183D01*
X113465638Y-88958758D01*
X113543568Y-88951535D01*
X113618372Y-88940409D01*
X113677779Y-88928088D01*
X113677779Y-88734526D01*
X113647737Y-88734526D01*
X113599946Y-88750742D01*
X113537767Y-88766766D01*
X113474278Y-88778005D01*
X113421629Y-88781420D01*
X113356581Y-88777908D01*
X113310621Y-88768842D01*
X113271573Y-88752886D01*
X113245347Y-88733182D01*
X113227366Y-88708902D01*
X113214634Y-88677434D01*
X113207635Y-88641688D01*
X113205047Y-88595979D01*
X113205047Y-88581691D01*
X113251763Y-88614102D01*
X113303416Y-88639088D01*
X113359471Y-88654803D01*
X113423644Y-88660276D01*
X113503369Y-88653558D01*
X113569836Y-88634656D01*
X113625538Y-88604602D01*
X113672284Y-88563250D01*
X113708096Y-88512880D01*
X113735375Y-88449025D01*
X113753213Y-88368650D01*
X113759723Y-88268022D01*
X113756497Y-88205030D01*
X113750952Y-88171973D01*
X113931059Y-88171973D01*
X113931059Y-88672000D01*
X114178294Y-88672000D01*
X114178294Y-88291164D01*
X114183118Y-88198474D01*
X114190282Y-88155604D01*
X114199482Y-88130452D01*
X114216318Y-88108594D01*
X114239477Y-88093571D01*
X114268561Y-88085221D01*
X114312872Y-88081909D01*
X114346321Y-88084591D01*
X114380893Y-88092839D01*
X114415569Y-88106429D01*
X114455693Y-88127704D01*
X114455693Y-88672000D01*
X114701584Y-88672000D01*
X114701584Y-87906054D01*
X114455693Y-87906054D01*
X114455693Y-87988608D01*
X114389527Y-87942140D01*
X114329663Y-87909962D01*
X114266759Y-87889625D01*
X114195452Y-87882607D01*
X114133828Y-87887618D01*
X114082008Y-87901754D01*
X114038206Y-87924249D01*
X114001096Y-87955147D01*
X113972076Y-87993131D01*
X113950272Y-88040480D01*
X113936169Y-88099235D01*
X113931059Y-88171973D01*
X113750952Y-88171973D01*
X113747393Y-88150755D01*
X113733100Y-88104013D01*
X113700752Y-88039098D01*
X113657934Y-87983723D01*
X113608189Y-87941571D01*
X113546926Y-87909290D01*
X113479967Y-87889228D01*
X113411982Y-87882607D01*
X113351504Y-87886436D01*
X113298958Y-87897322D01*
X113249925Y-87915005D01*
X113206390Y-87937989D01*
X113197537Y-87906054D01*
X112959094Y-87906054D01*
X112726148Y-87906054D01*
X112480256Y-87906054D01*
X112480256Y-88672000D01*
X112248409Y-88672000D01*
X112248409Y-87906054D01*
X112002517Y-87906054D01*
X112002517Y-87988608D01*
X111936352Y-87942140D01*
X111876488Y-87909962D01*
X111813584Y-87889625D01*
X111742277Y-87882607D01*
X111680653Y-87887618D01*
X111628832Y-87901754D01*
X111585031Y-87924249D01*
X111547920Y-87955147D01*
X111518901Y-87993131D01*
X111497097Y-88040480D01*
X111482994Y-88099235D01*
X111477884Y-88171973D01*
X111292520Y-88171973D01*
X111288148Y-88151952D01*
X111264691Y-88092803D01*
X111232577Y-88040362D01*
X111191448Y-87993798D01*
X111143300Y-87955046D01*
X111088407Y-87924418D01*
X111025792Y-87901812D01*
X110954190Y-87887599D01*
X110872100Y-87882607D01*
X110778093Y-87889466D01*
X110701941Y-87908441D01*
X110640330Y-87937894D01*
X110590672Y-87977312D01*
X110551061Y-88027214D01*
X110521765Y-88087697D01*
X110503087Y-88160940D01*
X110500797Y-88191330D01*
X110496394Y-88249765D01*
X110375744Y-88249765D01*
X110373678Y-88218950D01*
X110359048Y-88151952D01*
X110335591Y-88092803D01*
X110303477Y-88040362D01*
X110262348Y-87993798D01*
X110214201Y-87955046D01*
X110159308Y-87924418D01*
X110096692Y-87901812D01*
X110025090Y-87887599D01*
X109943001Y-87882607D01*
X109848993Y-87889466D01*
X109772842Y-87908441D01*
X109711230Y-87937894D01*
X109661572Y-87977312D01*
X109621962Y-88027214D01*
X109592665Y-88087697D01*
X109573987Y-88160940D01*
X109571697Y-88191330D01*
X109567294Y-88249765D01*
X109393698Y-88249765D01*
X109393698Y-87906054D01*
X109147807Y-87906054D01*
X109147807Y-88018772D01*
X109091370Y-87974405D01*
X109044788Y-87945076D01*
X109006390Y-87927608D01*
X108946982Y-87911124D01*
X108895687Y-87906054D01*
X108866317Y-87906787D01*
X108837619Y-87908802D01*
X108660542Y-87908802D01*
X108660542Y-87906054D01*
X108405064Y-87906054D01*
X108405064Y-88175698D01*
X107596589Y-88175698D01*
X107636799Y-88135948D01*
X107667563Y-88085677D01*
X107686514Y-88027218D01*
X107693158Y-87958505D01*
X107688068Y-87903720D01*
X107673183Y-87854039D01*
X107671726Y-87851344D01*
X114907664Y-87851344D01*
X115382472Y-87851344D01*
X115382472Y-88027198D01*
X114941858Y-88027198D01*
X114941858Y-88222593D01*
X115382472Y-88222593D01*
X115382472Y-88476605D01*
X114907664Y-88476605D01*
X114907664Y-88672000D01*
X115643384Y-88672000D01*
X115643384Y-87655949D01*
X114907664Y-87655949D01*
X114907664Y-87851344D01*
X107671726Y-87851344D01*
X107648486Y-87808369D01*
X107638723Y-87796633D01*
X112473418Y-87796633D01*
X112732987Y-87796633D01*
X112732987Y-87609055D01*
X112473418Y-87609055D01*
X112473418Y-87796633D01*
X107638723Y-87796633D01*
X107613189Y-87765937D01*
X107565785Y-87726352D01*
X107500550Y-87688418D01*
X107425390Y-87660357D01*
X107338613Y-87642653D01*
X107238194Y-87636410D01*
X107138348Y-87641255D01*
X107039808Y-87655766D01*
X106945465Y-87678402D01*
X106869998Y-87704309D01*
X106869998Y-87937317D01*
X106898025Y-87937317D01*
X106964672Y-87892424D01*
X107048662Y-87853725D01*
X107108827Y-87834955D01*
X107169363Y-87823797D01*
X107230684Y-87820080D01*
X107295958Y-87824721D01*
X107327798Y-87831349D01*
X107358423Y-87842062D01*
X107383156Y-87855431D01*
X107404218Y-87874363D01*
X107418604Y-87897623D01*
X107423330Y-87923639D01*
X107419767Y-87948952D01*
X107409623Y-87969173D01*
X107392617Y-87985555D01*
X107354387Y-88003957D01*
X107276479Y-88024817D01*
X107168890Y-88047409D01*
X107057882Y-88077512D01*
X106982697Y-88108165D01*
X106926373Y-88143093D01*
X106885385Y-88181804D01*
X106855181Y-88228597D01*
X106836373Y-88284865D01*
X106829698Y-88353079D01*
X106663063Y-88353079D01*
X106663063Y-87609055D01*
X106417172Y-87609055D01*
X106417172Y-87988608D01*
X106351007Y-87942140D01*
X106291143Y-87909962D01*
X106228238Y-87889625D01*
X106156931Y-87882607D01*
X106095308Y-87887618D01*
X106043487Y-87901754D01*
X105999685Y-87924249D01*
X105962575Y-87955147D01*
X105933556Y-87993131D01*
X105911752Y-88040480D01*
X105897649Y-88099235D01*
X105892538Y-88171973D01*
X105708998Y-88171973D01*
X105703513Y-88145957D01*
X105681042Y-88087456D01*
X105650461Y-88036079D01*
X105611537Y-87990928D01*
X105565616Y-87953269D01*
X105512892Y-87923456D01*
X105452363Y-87901403D01*
X105382730Y-87887502D01*
X105302448Y-87882607D01*
X105220893Y-87887572D01*
X105150589Y-87901634D01*
X105089882Y-87923877D01*
X105037381Y-87953863D01*
X104992015Y-87991661D01*
X104953540Y-88037026D01*
X104923316Y-88088470D01*
X104901123Y-88146866D01*
X104887222Y-88213374D01*
X104882350Y-88289393D01*
X104703604Y-88289393D01*
X104698150Y-88283024D01*
X104662969Y-88254885D01*
X104619422Y-88231080D01*
X104546364Y-88205539D01*
X104450040Y-88187116D01*
X104347930Y-88175856D01*
X104240296Y-88167882D01*
X104240296Y-88163730D01*
X104246455Y-88124263D01*
X104263549Y-88095657D01*
X104292198Y-88075131D01*
X104327839Y-88062625D01*
X104377552Y-88053952D01*
X104445216Y-88050646D01*
X104506662Y-88055802D01*
X104575031Y-88072200D01*
X104674072Y-88105356D01*
X104696603Y-88105356D01*
X104696603Y-87920770D01*
X104569902Y-87896590D01*
X104481926Y-87886095D01*
X104393986Y-87882607D01*
X104284893Y-87887754D01*
X104201147Y-87901525D01*
X104137926Y-87921826D01*
X104091064Y-87947209D01*
X104051127Y-87983067D01*
X104022392Y-88027445D01*
X104004307Y-88082116D01*
X103997824Y-88149808D01*
X103771228Y-88149808D01*
X103771228Y-87906054D01*
X103525337Y-87906054D01*
X103525337Y-88672000D01*
X103293489Y-88672000D01*
X103293489Y-87796633D01*
X103518498Y-87796633D01*
X103778067Y-87796633D01*
X103778067Y-87609055D01*
X103518498Y-87609055D01*
X103518498Y-87796633D01*
X103293489Y-87796633D01*
X103293489Y-87609055D01*
X103047598Y-87609055D01*
X103047598Y-87983662D01*
X102989551Y-87942407D01*
X102931827Y-87910633D01*
X102891527Y-87895387D01*
X102846356Y-87885907D01*
X102795478Y-87882607D01*
X102724698Y-87889635D01*
X102665169Y-87909610D01*
X102614577Y-87941981D01*
X102571446Y-87987692D01*
X102538849Y-88041491D01*
X102514303Y-88106274D01*
X102498521Y-88184144D01*
X102492861Y-88277608D01*
X101823147Y-88277608D01*
X101823147Y-87655949D01*
X101518515Y-87655949D01*
X101289660Y-88165989D01*
X101061476Y-87655949D01*
X100756844Y-87655949D01*
X100756844Y-88672000D01*
X100375095Y-88672000D01*
X100411111Y-88653320D01*
X100447633Y-88622296D01*
X100476090Y-88584049D01*
X100497464Y-88536653D01*
X100511271Y-88478150D01*
X100516265Y-88406080D01*
X100516265Y-87906054D01*
X100268969Y-87906054D01*
X100268969Y-88286890D01*
X100265244Y-88383671D01*
X100258640Y-88420223D01*
X100247781Y-88447601D01*
X100231526Y-88469445D01*
X100208519Y-88484543D01*
X100179385Y-88492851D01*
X100135063Y-88496145D01*
X100103055Y-88493423D01*
X100065454Y-88484543D01*
X100028078Y-88470267D01*
X99991631Y-88450349D01*
X99991631Y-87906054D01*
X99745679Y-87906054D01*
X99745679Y-88672000D01*
X99447497Y-88672000D01*
X99509796Y-88655259D01*
X99564817Y-88634386D01*
X99564817Y-88433618D01*
X99542285Y-88433618D01*
X99499604Y-88460302D01*
X99430911Y-88491443D01*
X99344204Y-88516844D01*
X99294662Y-88524696D01*
X99240340Y-88527408D01*
X99172817Y-88522912D01*
X99133118Y-88512143D01*
X99112843Y-88499543D01*
X99101879Y-88484761D01*
X99098252Y-88467019D01*
X99103601Y-88442315D01*
X99118768Y-88426230D01*
X99144154Y-88415177D01*
X99196621Y-88401867D01*
X99270748Y-88388495D01*
X99355806Y-88370970D01*
X99423036Y-88347725D01*
X99473653Y-88319073D01*
X99510839Y-88285607D01*
X99538591Y-88244451D01*
X99555501Y-88196898D01*
X99561397Y-88141199D01*
X99555022Y-88088667D01*
X99536184Y-88041204D01*
X99504117Y-87997363D01*
X99456556Y-87956368D01*
X99403142Y-87925822D01*
X99338977Y-87902764D01*
X99262051Y-87887926D01*
X99169998Y-87882607D01*
X99085070Y-87887055D01*
X99005012Y-87900131D01*
X98930755Y-87919476D01*
X98881731Y-87937561D01*
X98881731Y-88132711D01*
X98902919Y-88132711D01*
X98960528Y-88100130D01*
X99027605Y-88073482D01*
X99098241Y-88056320D01*
X99169327Y-88050646D01*
X99226075Y-88054861D01*
X99269405Y-88066216D01*
X99293643Y-88079320D01*
X99306075Y-88093830D01*
X99310010Y-88110363D01*
X99305204Y-88134967D01*
X99291570Y-88152190D01*
X99266469Y-88164589D01*
X99204803Y-88181010D01*
X99123897Y-88195787D01*
X99036764Y-88213922D01*
X98974413Y-88235556D01*
X98927602Y-88262380D01*
X98893332Y-88293851D01*
X98867881Y-88332471D01*
X98852309Y-88377307D01*
X98846865Y-88430016D01*
X98668812Y-88430016D01*
X98668812Y-88074093D01*
X98769928Y-88074093D01*
X98769928Y-87906054D01*
X98668812Y-87906054D01*
X98668812Y-87687212D01*
X98422920Y-87687212D01*
X98422920Y-87906054D01*
X98192660Y-87906054D01*
X97959478Y-87906054D01*
X97909888Y-87896590D01*
X97821912Y-87886095D01*
X97733972Y-87882607D01*
X97624879Y-87887754D01*
X97541133Y-87901525D01*
X97477912Y-87921826D01*
X97431050Y-87947209D01*
X97391113Y-87983067D01*
X97362378Y-88027445D01*
X97344293Y-88082116D01*
X97337810Y-88149808D01*
X97092774Y-88149808D01*
X97092774Y-88074093D01*
X97197981Y-88074093D01*
X97197981Y-87906054D01*
X97092774Y-87906054D01*
X97092774Y-87884744D01*
X97087384Y-87813734D01*
X97072457Y-87756229D01*
X97049220Y-87709678D01*
X97017974Y-87672130D01*
X96978891Y-87642910D01*
X96929717Y-87620823D01*
X96868208Y-87606462D01*
X96791561Y-87601239D01*
X96692521Y-87605025D01*
X96613936Y-87614916D01*
X95686781Y-87614916D01*
X95686781Y-86992000D01*
X103749307Y-86992000D01*
X104010220Y-86992000D01*
X104010220Y-86311844D01*
X104198775Y-86753618D01*
X104379759Y-86753618D01*
X104568315Y-86311844D01*
X104568315Y-86992000D01*
X104815611Y-86992000D01*
X104815611Y-86484341D01*
X105016439Y-86484341D01*
X105022614Y-86581858D01*
X105040257Y-86667515D01*
X105068464Y-86743031D01*
X105106904Y-86809838D01*
X105155841Y-86869023D01*
X105213883Y-86918933D01*
X105280061Y-86958185D01*
X105355549Y-86987057D01*
X105441921Y-87005177D01*
X105541073Y-87011539D01*
X105639916Y-87005184D01*
X105726089Y-86987080D01*
X105801470Y-86958218D01*
X105867617Y-86918961D01*
X105925694Y-86869023D01*
X105974608Y-86809842D01*
X106013031Y-86743036D01*
X106041226Y-86667520D01*
X106058863Y-86581861D01*
X106065035Y-86484341D01*
X106058834Y-86385853D01*
X106041144Y-86299627D01*
X106012913Y-86223883D01*
X105974508Y-86157135D01*
X105925694Y-86098254D01*
X105867653Y-86048578D01*
X105855411Y-86041345D01*
X106197964Y-86041345D01*
X106197964Y-86288580D01*
X106228006Y-86288580D01*
X106276244Y-86249196D01*
X106342128Y-86204316D01*
X106380924Y-86184074D01*
X106423400Y-86167008D01*
X106468235Y-86155675D01*
X106517006Y-86151804D01*
X106571261Y-86156203D01*
X106622214Y-86169206D01*
X106669636Y-86191977D01*
X106714415Y-86226909D01*
X106750026Y-86270792D01*
X106779689Y-86330040D01*
X106797906Y-86398179D01*
X106804602Y-86485684D01*
X106801255Y-86549101D01*
X106791960Y-86601815D01*
X106777613Y-86645480D01*
X106746113Y-86704314D01*
X106709653Y-86746474D01*
X106665316Y-86778798D01*
X106616718Y-86800086D01*
X106565373Y-86812201D01*
X106515602Y-86816145D01*
X106468190Y-86812518D01*
X106421019Y-86801551D01*
X106375798Y-86784255D01*
X106334618Y-86761984D01*
X106272458Y-86718936D01*
X106225319Y-86679369D01*
X106197964Y-86679369D01*
X106197964Y-86923673D01*
X106271115Y-86955974D01*
X106344143Y-86982047D01*
X106437749Y-87003967D01*
X106485567Y-87009376D01*
X106557978Y-87011539D01*
X106632997Y-87007686D01*
X106702576Y-86996443D01*
X106718300Y-86992000D01*
X107272144Y-86992000D01*
X107527622Y-86992000D01*
X107637409Y-86992000D01*
X107957795Y-86992000D01*
X108235194Y-86620750D01*
X108356094Y-86620750D01*
X108356094Y-86992000D01*
X108617006Y-86992000D01*
X108617006Y-86484341D01*
X108817835Y-86484341D01*
X108824009Y-86581858D01*
X108841653Y-86667515D01*
X108869859Y-86743031D01*
X108908299Y-86809838D01*
X108957236Y-86869023D01*
X109015279Y-86918933D01*
X109081456Y-86958185D01*
X109156945Y-86987057D01*
X109243317Y-87005177D01*
X109342469Y-87011539D01*
X109441312Y-87005184D01*
X109527485Y-86987080D01*
X109602865Y-86958218D01*
X109669012Y-86918961D01*
X109727090Y-86869023D01*
X109776003Y-86809842D01*
X109814426Y-86743036D01*
X109842621Y-86667520D01*
X109860258Y-86581861D01*
X109866430Y-86484341D01*
X109860230Y-86385853D01*
X109842539Y-86299627D01*
X109814309Y-86223883D01*
X109784079Y-86171344D01*
X109964677Y-86171344D01*
X110282315Y-86171344D01*
X110282315Y-86992000D01*
X110544632Y-86992000D01*
X110544632Y-86673079D01*
X110940794Y-86673079D01*
X110945964Y-86731400D01*
X110961033Y-86784037D01*
X110985895Y-86832124D01*
X111021184Y-86876484D01*
X111068227Y-86917566D01*
X111133426Y-86956686D01*
X111211185Y-86986032D01*
X111303845Y-87004824D01*
X111414197Y-87011539D01*
X111536380Y-87005547D01*
X111634504Y-86989191D01*
X111726341Y-86963560D01*
X111810420Y-86932526D01*
X111810420Y-86687184D01*
X111781722Y-86687184D01*
X111725426Y-86728890D01*
X111664891Y-86763593D01*
X111599700Y-86791476D01*
X111531748Y-86812094D01*
X111467374Y-86824005D01*
X111406015Y-86827868D01*
X111343184Y-86823594D01*
X111306186Y-86817513D01*
X111279620Y-86809306D01*
X111251671Y-86794524D01*
X111230099Y-86777249D01*
X111215915Y-86754582D01*
X111210621Y-86720218D01*
X111217520Y-86689426D01*
X111239014Y-86662455D01*
X111271711Y-86641989D01*
X111321996Y-86625147D01*
X111443201Y-86599562D01*
X111505851Y-86585774D01*
X111563124Y-86569093D01*
X111645720Y-86535479D01*
X111705790Y-86497571D01*
X111747894Y-86455948D01*
X111778659Y-86405677D01*
X111797610Y-86347218D01*
X111804253Y-86278505D01*
X111799164Y-86223720D01*
X111784278Y-86174039D01*
X111776481Y-86159620D01*
X111969117Y-86159620D01*
X112135813Y-86159620D01*
X112135813Y-86808329D01*
X111969117Y-86808329D01*
X111969117Y-86992000D01*
X112564825Y-86992000D01*
X112564825Y-86808329D01*
X112398130Y-86808329D01*
X112398130Y-86296091D01*
X112705326Y-86296091D01*
X112705943Y-86303051D01*
X112711286Y-86363321D01*
X112729262Y-86429264D01*
X112758686Y-86489774D01*
X112797528Y-86538563D01*
X112840074Y-86575624D01*
X112885184Y-86605688D01*
X112933144Y-86629177D01*
X112983943Y-86645459D01*
X113045340Y-86656023D01*
X113119257Y-86659829D01*
X113282533Y-86659829D01*
X113282533Y-86992000D01*
X113544850Y-86992000D01*
X113691273Y-86992000D01*
X113962505Y-86992000D01*
X114032847Y-86784882D01*
X114409958Y-86784882D01*
X114480300Y-86992000D01*
X114744632Y-86992000D01*
X114393107Y-86041345D01*
X114823644Y-86041345D01*
X114823644Y-86288580D01*
X114853686Y-86288580D01*
X114901924Y-86249196D01*
X114967809Y-86204316D01*
X115006605Y-86184074D01*
X115049081Y-86167008D01*
X115093916Y-86155675D01*
X115142687Y-86151804D01*
X115196941Y-86156203D01*
X115247894Y-86169206D01*
X115295317Y-86191977D01*
X115340096Y-86226909D01*
X115375706Y-86270792D01*
X115405370Y-86330040D01*
X115423587Y-86398179D01*
X115430283Y-86485684D01*
X115426936Y-86549101D01*
X115417641Y-86601815D01*
X115403294Y-86645480D01*
X115371794Y-86704314D01*
X115335333Y-86746474D01*
X115290996Y-86778798D01*
X115242399Y-86800086D01*
X115191053Y-86812201D01*
X115141282Y-86816145D01*
X115093870Y-86812518D01*
X115046699Y-86801551D01*
X115001479Y-86784255D01*
X114960298Y-86761984D01*
X114898138Y-86718936D01*
X114851000Y-86679369D01*
X114823644Y-86679369D01*
X114823644Y-86923673D01*
X114896795Y-86955974D01*
X114969824Y-86982047D01*
X115063430Y-87003967D01*
X115111248Y-87009376D01*
X115183658Y-87011539D01*
X115258678Y-87007686D01*
X115328256Y-86996443D01*
X115393036Y-86978139D01*
X115454706Y-86951855D01*
X115509459Y-86918696D01*
X115558022Y-86878549D01*
X115599982Y-86831560D01*
X115635610Y-86776860D01*
X115664939Y-86713502D01*
X115685450Y-86646524D01*
X115698342Y-86570790D01*
X115702858Y-86485012D01*
X115698632Y-86405166D01*
X115686401Y-86332488D01*
X115666649Y-86266110D01*
X115638502Y-86203034D01*
X115603474Y-86147101D01*
X115561441Y-86097582D01*
X115514507Y-86056541D01*
X115460062Y-86021765D01*
X115397188Y-85993229D01*
X115330892Y-85973032D01*
X115259728Y-85960650D01*
X115182987Y-85956410D01*
X115120315Y-85958313D01*
X115067216Y-85963615D01*
X114971900Y-85982422D01*
X114888918Y-86011548D01*
X114823644Y-86041345D01*
X114393107Y-86041345D01*
X114368925Y-85975949D01*
X114066980Y-85975949D01*
X113835776Y-86601211D01*
X113691273Y-86992000D01*
X113544850Y-86992000D01*
X113544850Y-85975949D01*
X113113151Y-85975949D01*
X113020006Y-85980525D01*
X112949569Y-85992680D01*
X112885954Y-86013876D01*
X112831722Y-86042689D01*
X112793652Y-86072260D01*
X112762540Y-86106424D01*
X112737810Y-86145576D01*
X112720270Y-86188499D01*
X112709224Y-86238244D01*
X112705326Y-86296091D01*
X112398130Y-86296091D01*
X112398130Y-86159620D01*
X112564825Y-86159620D01*
X112564825Y-85975949D01*
X111969117Y-85975949D01*
X111969117Y-86159620D01*
X111776481Y-86159620D01*
X111759582Y-86128369D01*
X111724285Y-86085937D01*
X111676881Y-86046352D01*
X111611645Y-86008418D01*
X111536486Y-85980357D01*
X111449708Y-85962653D01*
X111349290Y-85956410D01*
X111249444Y-85961255D01*
X111150904Y-85975766D01*
X111056561Y-85998402D01*
X110981094Y-86024309D01*
X110981094Y-86257317D01*
X111009121Y-86257317D01*
X111075767Y-86212424D01*
X111159757Y-86173725D01*
X111219922Y-86154955D01*
X111280459Y-86143797D01*
X111341779Y-86140080D01*
X111407053Y-86144721D01*
X111438893Y-86151349D01*
X111469518Y-86162062D01*
X111494252Y-86175431D01*
X111515314Y-86194363D01*
X111529699Y-86217623D01*
X111534426Y-86243639D01*
X111530863Y-86268952D01*
X111520718Y-86289173D01*
X111503712Y-86305555D01*
X111465483Y-86323957D01*
X111387575Y-86344817D01*
X111279986Y-86367409D01*
X111168978Y-86397512D01*
X111093792Y-86428165D01*
X111037469Y-86463093D01*
X110996481Y-86501804D01*
X110966277Y-86548597D01*
X110947469Y-86604865D01*
X110940794Y-86673079D01*
X110544632Y-86673079D01*
X110544632Y-86171344D01*
X110862270Y-86171344D01*
X110862270Y-85975949D01*
X109964677Y-85975949D01*
X109964677Y-86171344D01*
X109784079Y-86171344D01*
X109775904Y-86157135D01*
X109727090Y-86098254D01*
X109669049Y-86048578D01*
X109602922Y-86009507D01*
X109527541Y-85980770D01*
X109441349Y-85962740D01*
X109342469Y-85956410D01*
X109243915Y-85962726D01*
X109157863Y-85980732D01*
X109082469Y-86009453D01*
X109016200Y-86048533D01*
X108957908Y-86098254D01*
X108908810Y-86157174D01*
X108870202Y-86223944D01*
X108841834Y-86299688D01*
X108824063Y-86385893D01*
X108817881Y-86483608D01*
X108817835Y-86484341D01*
X108617006Y-86484341D01*
X108617006Y-85975949D01*
X108177064Y-85975949D01*
X108090001Y-85978731D01*
X108022031Y-85986207D01*
X107959227Y-86002428D01*
X107900398Y-86030660D01*
X107848704Y-86070119D01*
X107809234Y-86119198D01*
X107791037Y-86156847D01*
X107779513Y-86201788D01*
X107775406Y-86255607D01*
X107777988Y-86285527D01*
X107781758Y-86329209D01*
X107799530Y-86389679D01*
X107827674Y-86439583D01*
X107866083Y-86482982D01*
X107915291Y-86522410D01*
X107976968Y-86557858D01*
X107637409Y-86992000D01*
X107527622Y-86992000D01*
X107527622Y-86722355D01*
X107272144Y-86722355D01*
X107272144Y-86992000D01*
X106718300Y-86992000D01*
X106767355Y-86978139D01*
X106829026Y-86951855D01*
X106883779Y-86918696D01*
X106932341Y-86878549D01*
X106974302Y-86831560D01*
X107009930Y-86776860D01*
X107039258Y-86713502D01*
X107059769Y-86646524D01*
X107072661Y-86570790D01*
X107077177Y-86485012D01*
X107072952Y-86405166D01*
X107060721Y-86332488D01*
X107040968Y-86266110D01*
X107012822Y-86203034D01*
X106977793Y-86147101D01*
X106935761Y-86097582D01*
X106888826Y-86056541D01*
X106834381Y-86021765D01*
X106771507Y-85993229D01*
X106705211Y-85973032D01*
X106634048Y-85960650D01*
X106557306Y-85956410D01*
X106494635Y-85958313D01*
X106441535Y-85963615D01*
X106346219Y-85982422D01*
X106263238Y-86011548D01*
X106197964Y-86041345D01*
X105855411Y-86041345D01*
X105801526Y-86009507D01*
X105726146Y-85980770D01*
X105639954Y-85962740D01*
X105541073Y-85956410D01*
X105442519Y-85962726D01*
X105356468Y-85980732D01*
X105281073Y-86009453D01*
X105214804Y-86048533D01*
X105156512Y-86098254D01*
X105107414Y-86157174D01*
X105068807Y-86223944D01*
X105040439Y-86299688D01*
X105022667Y-86385893D01*
X105016485Y-86483608D01*
X105016439Y-86484341D01*
X104815611Y-86484341D01*
X104815611Y-85975949D01*
X104510979Y-85975949D01*
X104282123Y-86485989D01*
X104053939Y-85975949D01*
X103749307Y-85975949D01*
X103749307Y-86992000D01*
X95686781Y-86992000D01*
X95686781Y-85831410D01*
X115833292Y-85831410D01*
X115833292Y-92176539D01*
G37*
M02*
